<svg xmlns="http://www.w3.org/2000/svg" xmlns:xlink="http://www.w3.org/1999/xlink" width="498.37" height="235.088" viewBox="0 0 498.37 235.088">
  <defs>
    <linearGradient id="linear-gradient" x1="-23.711" y1="-10.938" x2="-22.707" y2="-10.938" gradientUnits="objectBoundingBox">
      <stop offset="0" stop-color="#f1f8f7"/>
      <stop offset="1" stop-color="#bfe3ee"/>
    </linearGradient>
    <linearGradient id="linear-gradient-2" x1="-28.976" y1="-4.131" x2="-27.986" y2="-4.131" xlink:href="#linear-gradient"/>
    <linearGradient id="linear-gradient-3" x1="56.294" y1="0.676" x2="72.749" y2="0.676" gradientUnits="objectBoundingBox">
      <stop offset="0" stop-color="#dfefea"/>
      <stop offset="1" stop-color="#bfe3ee"/>
    </linearGradient>
    <linearGradient id="linear-gradient-4" x1="0" y1="0.5" x2="1" y2="0.5" xlink:href="#linear-gradient-3"/>
    <linearGradient id="linear-gradient-7" x1="-2.279" y1="0.5" x2="-1.279" y2="0.5" xlink:href="#linear-gradient-3"/>
  </defs>
  <g id="Grupo_9987" data-name="Grupo 9987" transform="translate(-288.712 -342.005)">
    <g id="Grupo_9886" data-name="Grupo 9886" transform="translate(633.529 342.005)">
      <path id="Trazado_18981" data-name="Trazado 18981" d="M3047.809,636.938a8.753,8.753,0,0,0,1.282-13.8L3079,596.466l-5.412-9.534-30.925,13.886a13.487,13.487,0,0,0-19.656-6.022,13.45,13.45,0,0,0-5.732,7.726,11.965,11.965,0,0,0-15.481,17.854,11.812,11.812,0,0,0,5.319,3.63,10.668,10.668,0,0,0,10.995,16.553,10.664,10.664,0,1,0,20.5-3.469A8.781,8.781,0,0,0,3047.809,636.938Z" transform="translate(-2998.994 -555.771)" fill="#92cec6"/>
      <g id="Grupo_9885" data-name="Grupo 9885" transform="translate(66.47)">
        <path id="Trazado_18982" data-name="Trazado 18982" d="M3722.855,637.6l2.023,3.169a4.925,4.925,0,0,1-1.5,6.8l-10,6.38a.689.689,0,0,1-.911-1.007l3.459-4.381a5.016,5.016,0,0,0,.292-5.806l-1.386-2.171Z" transform="translate(-3688.032 -599.996)" fill="#212b53"/>
        <path id="Trazado_18983" data-name="Trazado 18983" d="M3540.6,407.116l-2.023-3.169a4.924,4.924,0,0,0-6.8-1.5l-10,6.38a.689.689,0,0,0,.53,1.25l5.431-1.292a5.016,5.016,0,0,1,5.389,2.181l1.385,2.171Z" transform="translate(-3521.457 -394.08)" fill="#212b53"/>
        <path id="Trazado_18984" data-name="Trazado 18984" d="M3826.828,353.862l6.864,10.755a14.314,14.314,0,0,1,1.585.4,14.59,14.59,0,0,1,3.739,1.824,36.028,36.028,0,0,0,8.686-22.073,36.058,36.058,0,0,0-23.863-1.367,18.463,18.463,0,0,1-.256,6.373A22.861,22.861,0,0,1,3826.828,353.862Z" transform="translate(-3785.146 -342.005)" fill="#212b53"/>
        <path id="Trazado_18985" data-name="Trazado 18985" d="M3828.246,353.935a57.443,57.443,0,0,1,1.1,6.18c.665.432,1.345.84,2.048,1.2a10.887,10.887,0,0,1,3.164,2.544,14.489,14.489,0,0,1,2.165,1.079c.116.034.234.065.347.1a14.6,14.6,0,0,1,3.109,1.42,37.113,37.113,0,0,0,6.917-12.835,38.777,38.777,0,0,1-4.44-5.729,39.362,39.362,0,0,1-2.961-5.562,37.425,37.425,0,0,0-15.137,1.109,16.451,16.451,0,0,1,.19,3.686A18.609,18.609,0,0,1,3828.246,353.935Z" transform="translate(-3785.993 -342.007)" fill="#212b53"/>
        <path id="Trazado_18986" data-name="Trazado 18986" d="M3643.534,364.847a40.511,40.511,0,0,1-5.376-12.537c-16.141,4.236-27.715,17.291-27.715,17.291l7.649,11.985,7.649,11.985s16.91-5.058,27.54-18.081A40.123,40.123,0,0,1,3643.534,364.847Z" transform="translate(-3599.121 -350.999)" fill="#f9b646"/>
        <path id="Trazado_18987" data-name="Trazado 18987" d="M3622.847,521.166l-1.257,2.1,8.835,13.844,2.369-.358Z" transform="translate(-3608.85 -498.372)" fill="#212b53"/>
        <path id="Trazado_18988" data-name="Trazado 18988" d="M3568.318,580.111a8.7,8.7,0,0,0-9.351-14.651Z" transform="translate(-3554.195 -535.977)" fill="#053c5e"/>
        <g id="Grupo_9884" data-name="Grupo 9884" transform="translate(23.33 10.758)">
          <path id="Trazado_18989" data-name="Trazado 18989" d="M3730.726,455.117a8.738,8.738,0,1,1,2.665-12.066A8.738,8.738,0,0,1,3730.726,455.117Z" transform="translate(-3715.702 -437.429)" fill="#fff"/>
          <path id="Trazado_18990" data-name="Trazado 18990" d="M3723.859,431.332a10.322,10.322,0,1,0-3.148,14.254A10.321,10.321,0,0,0,3723.859,431.332Zm-14.77,9.426a7.2,7.2,0,1,1,9.942,2.2A7.2,7.2,0,0,1,3709.09,440.758Z" transform="translate(-3704.835 -426.562)" fill="#ffd147"/>
        </g>
        <rect id="Rectángulo_2148" data-name="Rectángulo 2148" width="1.582" height="10.949" transform="translate(12.912 28.104) rotate(-32.544)" fill="#053c5e"/>
      </g>
    </g>
    <g id="Grupo_9887" data-name="Grupo 9887" transform="translate(592.188 378.511)">
      <path id="Trazado_18991" data-name="Trazado 18991" d="M2676.216,712.3c18.293-11.616,35.6-22.812,54.552-35.026a37.134,37.134,0,0,0,4.708-3.053c.382-.254.636-.254,1.018-.509,2.036-1.527,4.071-2.544,6.107-4.071.891-.509,1.654-1.018,2.417-1.527.382-.254.763-.254,1.018-.509a43.5,43.5,0,0,1,5.089-3.308c2.926-1.908,5.471-3.69,8.4-5.471a50.3,50.3,0,0,0,5.471-3.562c1.018-.636,2.036-1.145,3.053-1.908.763-.509,1.527-.891,2.29-1.4,7.507-4.962,14.376-9.287,21.557-13.855" transform="translate(-2675.941 -636.934)" fill="#01888b"/>
      <path id="Trazado_18992" data-name="Trazado 18992" d="M2790.88,628.951l-116.823,74.934.549.857,117.08-75.1A3.057,3.057,0,0,1,2790.88,628.951Z" transform="translate(-2674.057 -628.951)" fill="#01888b"/>
    </g>
    <g id="Grupo_9889" data-name="Grupo 9889" transform="translate(288.712 432.361)">
      <g id="Grupo_9888" data-name="Grupo 9888" transform="translate(0 12.508)">
        <path id="Trazado_18993" data-name="Trazado 18993" d="M585.725,1150.525,453.04,1216.817l-24.164-35.2-140.164,64.458v18.634l134.948-64.048,24.377,35.512,144.426-72.158Z" transform="translate(-288.712 -1150.525)" fill="#ffd147"/>
      </g>
      <path id="Trazado_18994" data-name="Trazado 18994" d="M2457.789,1060.739l23.491,34.5,27.6-43.026Z" transform="translate(-2181.828 -1052.21)" fill="#ffd147"/>
    </g>
    <g id="Grupo_9890" data-name="Grupo 9890" transform="translate(570.553 449.631)">
      <line id="Línea_66" data-name="Línea 66" x2="9.362" y2="14.437" transform="translate(0.427 0.277)" fill="#01888b"/>
      <rect id="Rectángulo_2149" data-name="Rectángulo 2149" width="1.018" height="17.207" transform="matrix(0.839, -0.544, 0.544, 0.839, 0, 0.554)" fill="#01888b"/>
    </g>
    <g id="Grupo_9897" data-name="Grupo 9897" transform="translate(759.793 409.929)">
      <g id="Grupo_9891" data-name="Grupo 9891">
        <path id="Trazado_18995" data-name="Trazado 18995" d="M4012.721,906.06l2.728,4.952-5.419-1.049-18.589-5.188Z" transform="translate(-3991.441 -901.1)" fill="#afd8c7"/>
        <path id="Trazado_18996" data-name="Trazado 18996" d="M4117.341,943.659l-9.155-.265,2.2-1.212Z" transform="translate(-4093.333 -933.749)" fill="#63c0c4"/>
        <path id="Trazado_18997" data-name="Trazado 18997" d="M4012.721,880.854l1.436-4.96-22.716,3.674Z" transform="translate(-3991.441 -875.894)" fill="url(#linear-gradient)"/>
        <path id="Trazado_18998" data-name="Trazado 18998" d="M3991.441,904.774l18.589,5.188-2.508,7.163Z" transform="translate(-3991.441 -901.1)" fill="url(#linear-gradient-2)"/>
      </g>
      <g id="Grupo_9896" data-name="Grupo 9896" transform="translate(3.501 13.04)">
        <g id="Grupo_9892" data-name="Grupo 9892" transform="translate(16.235)">
          <path id="Trazado_18999" data-name="Trazado 18999" d="M4148.988,980.394a.431.431,0,0,0,.063-.71,12.075,12.075,0,0,0-1.852-1.243.43.43,0,1,0-.41.755,11.167,11.167,0,0,1,1.719,1.155A.431.431,0,0,0,4148.988,980.394Z" transform="translate(-4146.565 -978.387)" fill="#63c0c4"/>
        </g>
        <g id="Grupo_9894" data-name="Grupo 9894" transform="translate(0 3.046)">
          <g id="Grupo_9893" data-name="Grupo 9893">
            <path id="Trazado_19000" data-name="Trazado 19000" d="M4032.483,1048.476a.43.43,0,0,1,.132-.593,12.1,12.1,0,0,0,3.061-2.837.431.431,0,0,1,.682.526,12.948,12.948,0,0,1-3.281,3.036l-.024.014A.43.43,0,0,1,4032.483,1048.476Zm4.738-4.981a.429.429,0,0,1-.181-.58,15.387,15.387,0,0,0,1.429-3.964.43.43,0,0,1,.841.179,16.231,16.231,0,0,1-1.51,4.184.423.423,0,0,1-.172.177A.429.429,0,0,1,4037.221,1043.5Zm1.972-6.608a.43.43,0,0,1-.413-.446l.006-.194a19.858,19.858,0,0,0-.345-4.032.43.43,0,1,1,.845-.157,20.724,20.724,0,0,1,.36,4.208l-.006.208a.431.431,0,0,1-.447.413Zm-.824-6.867a.43.43,0,0,1-.535-.288,31.366,31.366,0,0,0-1.529-4,.43.43,0,0,1,.781-.359,32.047,32.047,0,0,1,1.571,4.111.429.429,0,0,1-.2.5A.487.487,0,0,1,4038.369,1030.021Zm-2.631-6.422a.43.43,0,0,1-.582-.177c-.057-.106-.114-.213-.172-.319a14.559,14.559,0,0,1-1.375.509.43.43,0,0,1-.257-.821q.617-.193,1.213-.445c-.475-.84-1-1.712-1.583-2.65a.43.43,0,0,1,.729-.456c.609.972,1.148,1.874,1.638,2.746a13.011,13.011,0,0,0,1.756-1.058.43.43,0,0,1,.5.7,13.984,13.984,0,0,1-1.842,1.112c.051.092.1.185.15.278a.43.43,0,0,1-.172.579Zm3.275-3.729a.43.43,0,0,1-.028-.607,10.79,10.79,0,0,0,2.166-3.544.43.43,0,1,1,.806.3,11.675,11.675,0,0,1-2.335,3.823.418.418,0,0,1-.111.087A.43.43,0,0,1,4039.012,1019.87Zm-8.025,4.305a13.438,13.438,0,0,1-4.462-.2.43.43,0,0,1,.184-.84,12.562,12.562,0,0,0,4.177.186.43.43,0,1,1,.1.854Zm11.14-10.4a.43.43,0,0,1-.366-.486,13.045,13.045,0,0,0-.1-4.186.43.43,0,1,1,.845-.155,13.921,13.921,0,0,1,.106,4.462.43.43,0,0,1-.486.365Zm-18.156,9.338a11.21,11.21,0,0,1-1.029-.551,9.183,9.183,0,0,1-2.506-2.24.43.43,0,1,1,.681-.525,8.325,8.325,0,0,0,2.269,2.029,10.551,10.551,0,0,0,.951.509.43.43,0,1,1-.366.778Zm7.6-5.581a15.96,15.96,0,0,0-2.763-3.187.43.43,0,1,1,.554-.657,16.785,16.785,0,0,1,2.917,3.355.431.431,0,0,1-.109.6l-.037.023A.43.43,0,0,1,4031.569,1017.53Zm9.968-10.612a.43.43,0,0,1-.555-.249,13.793,13.793,0,0,0-.805-1.74,13.114,13.114,0,0,0-1.273-1.9.43.43,0,0,1,.67-.539,13.965,13.965,0,0,1,1.356,2.024,14.706,14.706,0,0,1,.855,1.85.43.43,0,0,1-.194.529A.455.455,0,0,1,4041.537,1006.919Zm-21.839,11.255a.43.43,0,0,1-.531-.3,4.777,4.777,0,0,1,.239-3.438,4.365,4.365,0,0,1,.7-1.034.43.43,0,0,1,.636.579,3.507,3.507,0,0,0-.562.83,3.879,3.879,0,0,0-.186,2.828.43.43,0,0,1-.3.531Zm7.021-5.146a6.153,6.153,0,0,0-3.97-.242.43.43,0,0,1-.238-.826,6.94,6.94,0,0,1,4.542.276.43.43,0,1,1-.334.792Z" transform="translate(-4018.956 -1002.329)" fill="#63c0c4"/>
          </g>
        </g>
        <g id="Grupo_9895" data-name="Grupo 9895" transform="translate(8.966 49.664)">
          <path id="Trazado_19001" data-name="Trazado 19001" d="M4092.175,1369.553a.43.43,0,0,0-.339-.786,9.2,9.2,0,0,1-2.009.408.43.43,0,1,0,.076.856,10.085,10.085,0,0,0,2.2-.444A.472.472,0,0,0,4092.175,1369.553Z" transform="translate(-4089.434 -1368.747)" fill="#63c0c4"/>
        </g>
      </g>
    </g>
    <g id="Grupo_9907" data-name="Grupo 9907" transform="translate(314.408 488.9)">
      <g id="Grupo_9900" data-name="Grupo 9900" transform="translate(15.672 83.508)">
        <path id="Trazado_19002" data-name="Trazado 19002" d="M614.523,2170.5l6.705-.008c.89.094,1.885.346,2.052,1.118a4.493,4.493,0,0,1,.1,1.022c-.237.278-9.128-.037-9.128-.037l-.039-.032A1.41,1.41,0,0,1,614.523,2170.5Z" transform="translate(-613.859 -2168.267)" fill="#12375a"/>
        <path id="Trazado_19003" data-name="Trazado 19003" d="M626.047,2187.057l-9.128-.037.079.355h9.062Z" transform="translate(-616.529 -2182.691)" fill="#212b53"/>
        <g id="Grupo_9898" data-name="Grupo 9898" transform="translate(3.148 2.226)">
          <path id="Trazado_19004" data-name="Trazado 19004" d="M638.771,2170.493l.6,0-.188.822H638.6Z" transform="translate(-638.601 -2170.493)" fill="#fff"/>
        </g>
        <g id="Grupo_9899" data-name="Grupo 9899" transform="translate(4.442 2.226)">
          <path id="Trazado_19005" data-name="Trazado 19005" d="M648.947,2170.493l.6,0-.188.822h-.586Z" transform="translate(-648.777 -2170.493)" fill="#fff"/>
        </g>
        <path id="Trazado_19006" data-name="Trazado 19006" d="M615.457,2153l.46,2.234h0a2.175,2.175,0,0,0,1.8.042l.1-.045.323-2.231Z" transform="translate(-615.254 -2152.999)" fill="#f7b58e"/>
      </g>
      <g id="Grupo_9903" data-name="Grupo 9903" transform="translate(0 83.508)">
        <path id="Trazado_19007" data-name="Trazado 19007" d="M491.342,2170.5l6.705-.008c.89.094,1.885.346,2.052,1.118a4.494,4.494,0,0,1,.1,1.022c-.237.278-9.128-.037-9.128-.037l-.039-.032A1.41,1.41,0,0,1,491.342,2170.5Z" transform="translate(-490.679 -2168.267)" fill="#212b53"/>
        <path id="Trazado_19008" data-name="Trazado 19008" d="M502.867,2187.057l-9.128-.037.079.355h9.062Z" transform="translate(-493.349 -2182.691)" fill="#212b53"/>
        <g id="Grupo_9901" data-name="Grupo 9901" transform="translate(3.148 2.226)">
          <path id="Trazado_19009" data-name="Trazado 19009" d="M515.591,2170.493l.6,0-.188.822h-.586Z" transform="translate(-515.421 -2170.493)" fill="#fff"/>
        </g>
        <g id="Grupo_9902" data-name="Grupo 9902" transform="translate(4.443 2.226)">
          <path id="Trazado_19010" data-name="Trazado 19010" d="M525.767,2170.493l.6,0-.188.822H525.6Z" transform="translate(-525.597 -2170.493)" fill="#fff"/>
        </g>
        <path id="Trazado_19011" data-name="Trazado 19011" d="M496.185,2153l-.291,2.234h0a2.175,2.175,0,0,0,1.8.042l.1-.045,1.074-2.231Z" transform="translate(-495.231 -2152.999)" fill="#f7b58e"/>
      </g>
      <g id="Grupo_9904" data-name="Grupo 9904" transform="translate(5.439 8.399)">
        <path id="Trazado_19012" data-name="Trazado 19012" d="M538.951,1562.633l-5.522,3.6,1.7,4.364c.024.061.056.119.084.178.121-.008.243-.015.365-.015l.06,0,.058,0a4.26,4.26,0,0,1,3.52,2.133,7.345,7.345,0,0,0,2.607-.677,2.7,2.7,0,0,0,1.228-.93C543.645,1568.193,538.951,1562.633,538.951,1562.633Z" transform="translate(-533.429 -1562.633)" fill="#f7b58e"/>
      </g>
      <path id="Trazado_19013" data-name="Trazado 19013" d="M627.34,1563.762s.676,6.409-.685,10.49c.632.549,2.953,3.036,3.682-.188s-.819-11.432-.819-11.432Z" transform="translate(-609.355 -1554.234)" fill="#f7b58e"/>
      <g id="Grupo_9906" data-name="Grupo 9906" transform="translate(13.372 0.084)">
        <g id="Grupo_9905" data-name="Grupo 9905" transform="translate(0 8.99)">
          <path id="Trazado_19014" data-name="Trazado 19014" d="M597.087,1567.94l-1.3.836.464.97,1.394-.615Z" transform="translate(-595.787 -1567.94)" fill="#212b53"/>
          <path id="Trazado_19015" data-name="Trazado 19015" d="M596.321,1574.013c.13.3.139.579.021.631s-.32-.146-.451-.443-.14-.579-.021-.631S596.191,1573.716,596.321,1574.013Z" transform="translate(-595.787 -1572.847)" fill="#212b53"/>
        </g>
        <path id="Trazado_19016" data-name="Trazado 19016" d="M620.314,1501.541c0-.012,0-.024,0-.037a12.991,12.991,0,0,0-1.256-2.255,11.344,11.344,0,0,1-1.207-1.972l-13.416,8.781.869,1.639,15.007-5.546A4.165,4.165,0,0,1,620.314,1501.541Z" transform="translate(-603.339 -1497.278)" fill="#053c5e"/>
      </g>
      <path id="Trazado_19017" data-name="Trazado 19017" d="M563.945,1638.653l-.483,3.013h4.269l.307-3.692Z" transform="translate(-554.203 -1619.99)" fill="#f39f85"/>
      <path id="Trazado_19018" data-name="Trazado 19018" d="M642.821,1549.947s5.042-1.606,6.623-3.765-1.094-13.976-1.094-13.976l.346-2.126a1.98,1.98,0,0,0-1.937-2.3l-1.347-.012a.771.771,0,0,0-.711,1.084l1.772,3.987s1.33,8.95-.533,9.63a20.994,20.994,0,0,1-4.735.982Z" transform="translate(-622.053 -1523.807)" fill="#f7b58e"/>
      <path id="Trazado_19019" data-name="Trazado 19019" d="M535.581,1560.938l-1.3-2.877.843-.529a1.585,1.585,0,0,0,.658-1.854l-.924-2.711s2.627-.322,2.548-2.769c0-1.26-1.735-1.267-1.735-1.267a2.522,2.522,0,0,1-2.128,1.26,4.185,4.185,0,0,0-3.867,2.4c-.861,1.5-.483,3.855.266,5.62a5.126,5.126,0,0,0,4.083,2.726Z" transform="translate(-524.287 -1542.275)" fill="#12375a"/>
      <path id="Trazado_19020" data-name="Trazado 19020" d="M497.779,1833.256a94.865,94.865,0,0,0,1.595,12.781,11.427,11.427,0,0,1-.393,5.878c-3.011,8.945-7.232,22.4-7.232,22.4H495.5s8.508-15.9,10.7-23.782,2.568-10.389,2.568-10.389l-2.609-6.884Z" transform="translate(-491.612 -1790.427)" fill="#212b53"/>
      <path id="Trazado_19021" data-name="Trazado 19021" d="M563.5,1607.068a1.222,1.222,0,0,0,.7,1.34c.54.287,1.1.152,1.258-.3a1.221,1.221,0,0,0-.7-1.34C564.22,1606.48,563.657,1606.615,563.5,1607.068Z" transform="translate(-554.203 -1592.622)" fill="#f7b58e"/>
      <path id="Trazado_19022" data-name="Trazado 19022" d="M551.4,1672.907H539.152V1657.2a6.664,6.664,0,0,1,6.045-6.636l8.514-1.031s1,1.532,3.791,5.093a28.746,28.746,0,0,1-7.233,3.026Z" transform="translate(-532.985 -1630.078)" fill="#01888b"/>
      <path id="Trazado_19023" data-name="Trazado 19023" d="M539.152,1833.256s1.729,6.258,8.11,13.273a8.205,8.205,0,0,1,2.382,6.379l-1.316,21.4h3.809s4.642-17.774,3.641-26.536a40.209,40.209,0,0,0-4.381-14.519Z" transform="translate(-532.985 -1790.427)" fill="#053c5e"/>
      <path id="Trazado_19024" data-name="Trazado 19024" d="M708.709,1499.509c.659,1.366,1.552,2.3,2,2.086s.27-1.495-.389-2.861-1.552-2.3-2-2.086S708.051,1498.143,708.709,1499.509Z" transform="translate(-680.417 -1496.617)" fill="#63c0c4"/>
      <path id="Trazado_19025" data-name="Trazado 19025" d="M627.879,1537.822l.113.054a1.708,1.708,0,0,0,1.278.08l.075-.025a2.28,2.28,0,0,0,1.452-1.472h0a.423.423,0,0,0-.49-.542l-.848.178a1.278,1.278,0,0,0-.805.548Z" transform="translate(-610.424 -1530.909)" fill="#f7b58e"/>
    </g>
    <g id="Grupo_9916" data-name="Grupo 9916" transform="translate(448.363 480.258)">
      <g id="Grupo_9908" data-name="Grupo 9908" transform="translate(56.41 8.32)">
        <path id="Trazado_19026" data-name="Trazado 19026" d="M1990.236,1498.555l1.909-1.414a.6.6,0,0,0,.234-.538l-.05-.492a.6.6,0,0,0-.215-.4l-1.808-1.488a.6.6,0,0,0-.743-.014l-.232.177a.6.6,0,0,0-.229.384l-.454,2.915Z" transform="translate(-1988.434 -1494.084)" fill="#f7b58e"/>
        <path id="Trazado_19027" data-name="Trazado 19027" d="M1987.18,1503.7l-.211-2.09a.573.573,0,0,1,.644-.626l.905.117c.241.031.735,1.25.735,1.25s-.764.591-1.1-.572a.9.9,0,0,1-.455.059,2.573,2.573,0,0,1,.63,2.491Z" transform="translate(-1986.966 -1500.102)" fill="#f39f85"/>
      </g>
      <path id="Trazado_19028" data-name="Trazado 19028" d="M1861.2,1520.174s-4.939,11.275-7.553,15.32-10.39,10.4-10.39,10.4l-2.883-9.516s6.821-2.844,10.3-6.1,8.395-11.5,8.395-11.5Z" transform="translate(-1802.612 -1507.319)" fill="#01888b"/>
      <g id="Grupo_9909" data-name="Grupo 9909" transform="translate(19.462)">
        <path id="Trazado_19029" data-name="Trazado 19029" d="M1697.529,1432.471l-.934-2.185a.6.6,0,0,1,.069-.582l.292-.4a.6.6,0,0,1,.389-.238l2.313-.371a.6.6,0,0,1,.648.363l.111.27a.6.6,0,0,1,0,.447l-1.08,2.745Z" transform="translate(-1696.55 -1428.687)" fill="#f7b58e"/>
        <path id="Trazado_19030" data-name="Trazado 19030" d="M1709.516,1438.737l1.238-1.7a.573.573,0,0,0-.239-.865l-.841-.356c-.224-.095-1.266.708-1.266.708s.361.9,1.239.062c.073.151.363.281.363.281a2.573,2.573,0,0,0-1.8,1.833Z" transform="translate(-1706.725 -1434.904)" fill="#f7b58e"/>
      </g>
      <g id="Grupo_9910" data-name="Grupo 9910" transform="translate(0 73.921)">
        <path id="Trazado_19031" data-name="Trazado 19031" d="M1547.435,2012.973a12.116,12.116,0,0,0-2.575,4.833c-.238.749-.028,1.583-1.281,1.51l.246-4.19.807-3.449-.6-.035.111-1.882s3.109-.343,3.439.779C1547.519,2011.556,1547.435,2012.973,1547.435,2012.973Z" transform="translate(-1543.578 -2009.709)" fill="#212b53"/>
        <path id="Trazado_19032" data-name="Trazado 19032" d="M1573.98,2014.1l-2.223.082h0a2.133,2.133,0,0,1,.058-2.31l.085-.125,2.257-.652Z" transform="translate(-1567.899 -2010.921)" fill="#f7b58e"/>
      </g>
      <path id="Trazado_19033" data-name="Trazado 19033" d="M1610.123,1806.227a44.5,44.5,0,0,0-2.8,16,4.419,4.419,0,0,1-3.9,4.473c-6.883.882-14.951,5.416-14.951,5.416l-.2,3.473s21.154-.659,25.719-3.4,7.786-22.2,7.786-22.2Z" transform="translate(-1582.585 -1758.194)" fill="#212b53"/>
      <path id="Trazado_19034" data-name="Trazado 19034" d="M1718.371,1480.979c4.586,3.438,1.268,22.729,1.268,22.729l-14.465-2.592,2.422-14.274s-6.156-8.468-7.073-14.449a137.151,137.151,0,0,1-1-15.333l2.684.158s2.287,12.32,4,15.509,7.774,7.916,7.774,7.916Z" transform="translate(-1679.682 -1453.449)" fill="#01888b"/>
      <g id="Grupo_9911" data-name="Grupo 9911" transform="translate(39.848 29.123)">
        <path id="Trazado_19035" data-name="Trazado 19035" d="M1856.79,1678.418c.334-2.085,2.3-15.119.029-20.483.067-.111.131-.223.193-.336,2.568,5.573.306,19.592.059,21.062C1856.98,1678.578,1856.884,1678.5,1856.79,1678.418Z" transform="translate(-1856.79 -1657.599)" fill="url(#linear-gradient-3)"/>
      </g>
      <g id="Grupo_9912" data-name="Grupo 9912" transform="translate(50.91 88.761)">
        <path id="Trazado_19036" data-name="Trazado 19036" d="M1947,2144.233a12.119,12.119,0,0,0,4.833,2.576c.749.238,1.583.027,1.51,1.281l-4.19-.246-3.449-.807-.035.6-1.882-.111s-.343-3.109.779-3.439Z" transform="translate(-1943.734 -2141.833)" fill="#212b53"/>
        <path id="Trazado_19037" data-name="Trazado 19037" d="M1948.127,2126.529l.082,2.223h0a2.133,2.133,0,0,1-2.31-.058l-.125-.085-.652-2.257Z" transform="translate(-1944.946 -2126.352)" fill="#f7b58e"/>
      </g>
      <g id="Grupo_9915" data-name="Grupo 9915" transform="translate(32.183 15.386)">
        <g id="Grupo_9913" data-name="Grupo 9913" transform="translate(3.33 8.985)">
          <path id="Trazado_19038" data-name="Trazado 19038" d="M1822.709,1622.924l.8-2.678,3.1.532.043,3.24a.651.651,0,0,1-.068.061A8.89,8.89,0,0,0,1822.709,1622.924Z" transform="translate(-1822.709 -1620.246)" fill="#f39f85"/>
        </g>
        <g id="Grupo_9914" data-name="Grupo 9914">
          <path id="Trazado_19039" data-name="Trazado 19039" d="M1817.974,1577.764l.568,4.319a.672.672,0,0,1,.67.8.81.81,0,0,1,.1.314,4.992,4.992,0,0,0,3.937.591c2.7-.745.622-5.918.622-5.918Z" transform="translate(-1815.247 -1574.183)" fill="#f7b58e"/>
          <path id="Trazado_19040" data-name="Trazado 19040" d="M1798.147,1556.57a2.666,2.666,0,0,0-.791-1.146c-1.662-1.22-.35-2.312.118-2.668.517-.394.331-1.375.993-1.984,1.011-.93,2.12-.139,2.8-.322s1.035-1.136,2.078-.729,1,1.2,1.344,1.51.866-.66,1.929.312c1.617,1.478-1.249,2.395-1.249,2.395a5.318,5.318,0,0,1-3.729.129.7.7,0,0,0-.8.266c-.45.731-.166,4.35-.166,4.35l-.753-.53A1.969,1.969,0,0,1,1798.147,1556.57Z" transform="translate(-1796.538 -1549.621)" fill="#212b53"/>
          <path id="Trazado_19041" data-name="Trazado 19041" d="M1821.848,1599.337a.668.668,0,1,0,.294-.9A.668.668,0,0,0,1821.848,1599.337Z" transform="translate(-1818.565 -1592.166)" fill="#f7b58e"/>
        </g>
      </g>
      <path id="Trazado_19042" data-name="Trazado 19042" d="M1757.434,1805.937s9.954,10.656,10.753,13.166,3.4,25.686,3.4,25.686l-3-.176s-5.443-10.131-6.833-17.917a7.908,7.908,0,0,0-5.013-6.007c-16.3-6.12-13.772-17.344-13.772-17.344Z" transform="translate(-1717.477 -1755.679)" fill="#053c5e"/>
      <path id="Trazado_19043" data-name="Trazado 19043" d="M1820.849,1631.759l-.022,1.482-4.769-1.246,1.106-1.552Z" transform="translate(-1781.391 -1604.774)" fill="#63c0c4"/>
    </g>
    <g id="Grupo_9924" data-name="Grupo 9924" transform="translate(371.366 488.922)">
      <g id="Grupo_9917" data-name="Grupo 9917" transform="translate(14.702 82.741)">
        <path id="Trazado_19044" data-name="Trazado 19044" d="M1056.518,2161.479s.6.837,3.454,1.563c.627.16,1.3.269,1.3,1.3h-2.813l-2.876-.5v.5h-1.553s-.432-2.541.475-2.866Z" transform="translate(-1053.93 -2159.654)" fill="#212b53"/>
        <path id="Trazado_19045" data-name="Trazado 19045" d="M1060.63,2147.135l-.148,1.825h0a1.757,1.757,0,0,1-1.9.064l-.107-.064v-1.825Z" transform="translate(-1057.894 -2147.135)" fill="#f7b58e"/>
      </g>
      <g id="Grupo_9918" data-name="Grupo 9918" transform="translate(0.273 83.105)">
        <path id="Trazado_19046" data-name="Trazado 19046" d="M943.109,2164.337s.6.837,3.454,1.563c.627.159,1.3.269,1.3,1.3h-2.813l-2.876-.5v.5h-1.553s-.433-2.541.475-2.866Z" transform="translate(-940.521 -2162.512)" fill="#212b53"/>
        <path id="Trazado_19047" data-name="Trazado 19047" d="M947.221,2149.994l-.148,1.825h0a1.757,1.757,0,0,1-1.9.063l-.107-.063v-1.825Z" transform="translate(-944.485 -2149.994)" fill="#f7b58e"/>
      </g>
      <path id="Trazado_19048" data-name="Trazado 19048" d="M1028.259,1767.713l-.7,45.837h-3.34s-5.083-37.007-4-45.837S1028.259,1767.713,1028.259,1767.713Z" transform="translate(-1009.676 -1729.819)" fill="#212b53"/>
      <path id="Trazado_19049" data-name="Trazado 19049" d="M955.3,1794.557s-1.162,14.081-3.833,21.875-7.492,23.972-7.492,23.972H940.52s5.772-33.805,4.452-45.847H955.3Z" transform="translate(-940.247 -1756.673)" fill="#053c5e"/>
      <path id="Trazado_19050" data-name="Trazado 19050" d="M1067.741,1611.174s4.116,9.6,5.16,9.6c.836,0-.313-7.837-.313-7.837h3.447s4.335,13.433.888,15.887-11.02-6.946-11.02-6.946Z" transform="translate(-1049.678 -1596.621)" fill="#63c0c4"/>
      <path id="Trazado_19051" data-name="Trazado 19051" d="M983.888,1802.7l1.247,3.084c.6,1.211,2.808,1.242,4.274.857a.3.3,0,0,0,.144-.5,42.384,42.384,0,0,0-3.618-3.651Z" transform="translate(-978.097 -1763.592)" fill="#f7b58e"/>
      <path id="Trazado_19052" data-name="Trazado 19052" d="M992.68,1595.306a3.869,3.869,0,0,1,3.314,1.836,2.614,2.614,0,0,1,.405,1.317v22.183H983.8V1599.9s.258-4.612,4.766-4.612C990.489,1595.291,991.8,1595.3,992.68,1595.306Z" transform="translate(-978.024 -1582.759)" fill="#63c0c4"/>
      <g id="Grupo_9919" data-name="Grupo 9919" transform="translate(18.166 17.97)">
        <path id="Trazado_19053" data-name="Trazado 19053" d="M1081.157,1657.956v-19.923l.418.014v19.91Z" transform="translate(-1081.157 -1638.032)" fill="url(#linear-gradient-4)"/>
      </g>
      <path id="Trazado_19054" data-name="Trazado 19054" d="M1017.367,1562.022l1.343,5.056a3.2,3.2,0,0,0,2.666.528c1.519-.4,1.228-1.5,1.228-1.5l-.861-3.24-2.4.011Z" transform="translate(-1007.317 -1553.722)" fill="#f39f85"/>
      <path id="Trazado_19055" data-name="Trazado 19055" d="M1014.757,1517.6a1.948,1.948,0,0,0,1.05-.593c.778-2.507-2.3-7.893-2.3-7.893l-4.661,2.177.875,3.924a3.373,3.373,0,0,0,1.934,2.353h0A5.411,5.411,0,0,0,1014.757,1517.6Z" transform="translate(-999.883 -1507.545)" fill="#f7b58e"/>
      <path id="Trazado_19056" data-name="Trazado 19056" d="M1002.927,1500.02a10.835,10.835,0,0,0,3.334-.885c1.628-.758.035-2.351.035-2.351a6.956,6.956,0,0,1-3.448,1.178c-1.576.179-2.063-.007-2.9.77-1.134,1.056-.181,3.36-.181,3.36l2.071,4.86.273-.073s-.731-3.023-1-4.046c.162-.542.472-.624.741-.571a.792.792,0,0,1,.59.587l1.394,5.247s3.724.553,4.505.066-.82-4.224-.82-4.224a1.615,1.615,0,0,0-1.627.888c-.529,1.043-1.675.409-1.675.409Z" transform="translate(-991.631 -1496.784)" fill="#212b53"/>
      <path id="Trazado_19057" data-name="Trazado 19057" d="M1108.336,1594.63l-.121-.662a5.512,5.512,0,0,0-3.081-3.767h-1.463l.453,3.126,2.065,1.3Z" transform="translate(-1082.641 -1578.316)" fill="#f7b58e"/>
      <path id="Trazado_19058" data-name="Trazado 19058" d="M1012.361,1539.46a.883.883,0,0,1,1.019.589.761.761,0,0,1-.311,1.063.883.883,0,0,1-1.019-.589A.761.761,0,0,1,1012.361,1539.46Z" transform="translate(-1002.6 -1534.001)" fill="#f7b58e"/>
      <path id="Trazado_19059" data-name="Trazado 19059" d="M1098.358,1604.548l2.85,1.65s-1.788-.018-1.818,0l-3.017-2.525s.219-.441.9-.069A3.468,3.468,0,0,1,1098.358,1604.548Z" transform="translate(-1076.272 -1589.884)" fill="#f7b58e"/>
      <path id="Trazado_19060" data-name="Trazado 19060" d="M945.494,1606.2s-7.121,7.91-7.121,12.651,5.78,13.1,5.78,13.1l2.855-.836s-2.576-10.341-2.576-13.091,5.292-6.784,5.292-6.784" transform="translate(-938.373 -1592.281)" fill="#63c0c4"/>
      <g id="Grupo_9920" data-name="Grupo 9920" transform="translate(5.849 18.793)">
        <path id="Trazado_19061" data-name="Trazado 19061" d="M984.768,1651.446c0,2.368,2.1,11.027,2.589,13.044-.145.038-.2.049-.423.106-.606-2.492-2.584-10.823-2.584-13.15,0-2.822,5.155-6.783,5.375-6.95l.253.332C989.926,1644.868,984.768,1648.829,984.768,1651.446Z" transform="translate(-984.35 -1644.496)" fill="url(#linear-gradient-4)"/>
      </g>
      <g id="Grupo_9923" data-name="Grupo 9923" transform="translate(17.771 2.859)">
        <path id="Trazado_19062" data-name="Trazado 19062" d="M1097.293,1573.948a7.554,7.554,0,0,0,1.982,5.319.824.824,0,0,0,.565.228,2.1,2.1,0,0,0,.957-.284.917.917,0,0,0,.539-.5.4.4,0,0,0-.093-.4c-.452-.519-1.873-2.322-1.553-4.115A3.1,3.1,0,0,0,1097.293,1573.948Z" transform="translate(-1094.841 -1566.869)" fill="#00666b"/>
        <path id="Trazado_19063" data-name="Trazado 19063" d="M1109.458,1579.153a.607.607,0,0,0,.291-.359.4.4,0,0,0-.093-.4c-.452-.519-1.873-2.322-1.553-4.115a2.617,2.617,0,0,0-1.175-.372C1107.106,1575.806,1107.672,1577.022,1109.458,1579.153Z" transform="translate(-1103.255 -1566.95)" fill="#01888b"/>
        <g id="Grupo_9922" data-name="Grupo 9922" transform="translate(4.347 8.451)">
          <g id="Grupo_9921" data-name="Grupo 9921" transform="translate(0 0.007)">
            <path id="Trazado_19064" data-name="Trazado 19064" d="M1112.313,1586.932c.144.424.4.722.563.665s.185-.446.041-.87-.4-.722-.562-.665S1112.169,1586.508,1112.313,1586.932Z" transform="translate(-1112.216 -1586.014)" fill="#00666b"/>
            <path id="Trazado_19065" data-name="Trazado 19065" d="M1113.047,1585.795l.174-.065,0,.092-.114.062Z" transform="translate(-1112.941 -1585.73)" fill="#f49b42"/>
            <path id="Trazado_19066" data-name="Trazado 19066" d="M1116.807,1597.715l.213-.07-.252-.005Z" transform="translate(-1116.189 -1596.125)" fill="#e7365e"/>
          </g>
          <path id="Trazado_19067" data-name="Trazado 19067" d="M1113.43,1586.552c.144.424.4.722.563.666s.185-.447.041-.87-.4-.722-.563-.666S1113.286,1586.128,1113.43,1586.552Z" transform="translate(-1113.191 -1585.675)" fill="#63c0c4"/>
        </g>
        <path id="Trazado_19068" data-name="Trazado 19068" d="M1079.419,1555.506l-.335.042a1.15,1.15,0,0,0-1.025,1.255l.11.881a1.15,1.15,0,0,0,1.3.963l.335-.042Z" transform="translate(-1078.051 -1550.894)" fill="#00666b"/>
        <path id="Trazado_19069" data-name="Trazado 19069" d="M1152.413,1523.454c.3,2.4-.007,4.422-.689,4.507s-1.479-1.794-1.78-4.2.007-4.422.689-4.508S1152.112,1521.05,1152.413,1523.454Z" transform="translate(-1140.697 -1519.253)" fill="#212b53"/>
        <path id="Trazado_19070" data-name="Trazado 19070" d="M1147.106,1542.15l1.055.512.177,1.408-.891,1.038-.577-1.787Z" transform="translate(-1138.113 -1539.237)" fill="#fff"/>
        <path id="Trazado_19071" data-name="Trazado 19071" d="M1095.375,1525.051c-.253-2.02-.075-3.763.393-4.32l0,0a20.05,20.05,0,0,1-8.461,4.48l.385,3.072s6.437-1.177,9.13.863l0,0C1096.232,1528.718,1095.628,1527.072,1095.375,1525.051Z" transform="translate(-1086.127 -1520.541)" fill="#01888b"/>
        <path id="Trazado_19072" data-name="Trazado 19072" d="M1156.749,1546.819c.049.391.029.715-.044.724s-.173-.3-.222-.69-.029-.715.045-.724S1156.7,1546.429,1156.749,1546.819Z" transform="translate(-1146.48 -1542.709)" fill="#ffd147"/>
      </g>
      <path id="Trazado_19073" data-name="Trazado 19073" d="M1107.482,1592.8a3.362,3.362,0,0,1-1.592.26c-.829,0-1.2-1.019-1.344-1.573-.05-.2-.094-.472.15-.6l1.332-.185Z" transform="translate(-1083.37 -1578.757)" fill="#f7b58e"/>
    </g>
    <g id="Grupo_9934" data-name="Grupo 9934" transform="translate(650.301 488.231)">
      <g id="Grupo_9933" data-name="Grupo 9933" transform="translate(0 0.4)">
        <g id="Grupo_9927" data-name="Grupo 9927" transform="translate(9.613 2.298)">
          <g id="Grupo_9926" data-name="Grupo 9926">
            <path id="Trazado_19074" data-name="Trazado 19074" d="M3210.4,1550.7l-1.53,3.418-2.49-2.244,1.757-4.979Z" transform="translate(-3206.384 -1542.529)" fill="#f39f85"/>
            <g id="Grupo_9925" data-name="Grupo 9925" transform="translate(1.696)">
              <path id="Trazado_19075" data-name="Trazado 19075" d="M3222.927,1520.947a1.7,1.7,0,0,0,1.046-.1c1.514-1.715.995-6.767.995-6.767l-1.772-1.528-2.711,1.265-.707,2.776a4.44,4.44,0,0,0,.7,3.217h0A4.716,4.716,0,0,0,3222.927,1520.947Z" transform="translate(-3219.718 -1512.556)" fill="#f7b58e"/>
            </g>
          </g>
        </g>
        <path id="Trazado_19076" data-name="Trazado 19076" d="M3233.325,1659.29a3.919,3.919,0,0,0,1.837,1.31c1.225.421,10.344-1.493,10.344-1.493l1.832.192a4.654,4.654,0,0,0,2.9-.15l2.682-1.037-15.733-.328-6.022-7.479Z" transform="translate(-3218.4 -1630.481)" fill="#f7b58e"/>
        <path id="Trazado_19077" data-name="Trazado 19077" d="M3167.7,1586.035s-3.635,4.656-4.484,7.717-1.156,11.5-1.156,11.5h7.65s2.2-3.981,3.9-7.593a4.133,4.133,0,0,0,.047-3.432c-1.249-2.829-3.124-6.719-3.124-6.719Z" transform="translate(-3158.084 -1574.389)" fill="#ffda71"/>
        <g id="Grupo_9929" data-name="Grupo 9929" transform="translate(10.867 81.8)">
          <g id="Grupo_9928" data-name="Grupo 9928" transform="translate(0.558)">
            <path id="Trazado_19078" data-name="Trazado 19078" d="M3222.7,2137.449l.607,1.579a2.027,2.027,0,0,0,.826,1.049,7.948,7.948,0,0,0,2.089.948c-1.216,1.038-3.151-.046-4.258-.813a2.707,2.707,0,0,1-1.082-1.567l-.254-1.2Z" transform="translate(-3220.629 -2137.449)" fill="#f7b58e"/>
          </g>
          <path id="Trazado_19079" data-name="Trazado 19079" d="M3216.931,2143.9a1.742,1.742,0,0,0-.672,1.471c.151.824.364,2.753.364,2.753h.845l-.026-1.8c0-.118,1.813,1.8,2.12,1.8h4.475s.3-1.214-2.33-1.6A9.69,9.69,0,0,1,3216.931,2143.9Z" transform="translate(-3216.241 -2143.082)" fill="#053c5e"/>
        </g>
        <g id="Grupo_9931" data-name="Grupo 9931" transform="translate(2.169 81.8)">
          <g id="Grupo_9930" data-name="Grupo 9930" transform="translate(0.558)">
            <path id="Trazado_19080" data-name="Trazado 19080" d="M3154.334,2137.449l.606,1.579a2.029,2.029,0,0,0,.826,1.049,7.948,7.948,0,0,0,2.089.948c-1.216,1.038-3.151-.046-4.258-.813a2.708,2.708,0,0,1-1.082-1.567l-.253-1.2Z" transform="translate(-3152.263 -2137.449)" fill="#f7b58e"/>
          </g>
          <path id="Trazado_19081" data-name="Trazado 19081" d="M3148.565,2143.9a1.741,1.741,0,0,0-.672,1.471c.151.824.364,2.753.364,2.753h.845l-.026-1.8c0-.118,1.813,1.8,2.12,1.8h4.474s.3-1.214-2.33-1.6A9.692,9.692,0,0,1,3148.565,2143.9Z" transform="translate(-3147.875 -2143.082)" fill="#053c5e"/>
        </g>
        <path id="Trazado_19082" data-name="Trazado 19082" d="M3184.632,1737.221s3.8,5.69.547,28.371c.51,8.573,1.463,22.682,1.463,22.682h-2.155s-5.973-15.028-3.969-22.514c.476-7.414-1.361-28.674-1.361-28.674Z" transform="translate(-3173.009 -1706.223)" fill="#01888b"/>
        <path id="Trazado_19083" data-name="Trazado 19083" d="M3134.8,1737.087s-3.973,3.2-3.973,7.941c0,3.723,1.794,11.434,2.823,16.482a11.707,11.707,0,0,1-.52,5.523c-2.1,7.321.452,21.242.452,21.242h2.143s.117-7.16,3.049-23.211c3.367-18.435,3.675-27.977,3.675-27.977Z" transform="translate(-3130.828 -1706.223)" fill="#63c0c4"/>
        <g id="Grupo_9932" data-name="Grupo 9932" transform="translate(22.453 16.624)">
          <path id="Trazado_19084" data-name="Trazado 19084" d="M3319.811,1636.167h-12.5v-.918h11.942l5.306-10.088.813.427Z" transform="translate(-3307.313 -1625.161)" fill="url(#linear-gradient-4)"/>
        </g>
        <path id="Trazado_19085" data-name="Trazado 19085" d="M3179.158,1633.34s3.991,9.292,5.91,9.292,12.538-4.542,12.538-4.542l-.282-1.586-10.844,1.837a47.5,47.5,0,0,1-1.628-5.5,3.026,3.026,0,0,0-2.339-2.336C3179.95,1630.022,3179.158,1633.34,3179.158,1633.34Z" transform="translate(-3173.009 -1613.16)" fill="#f7b58e"/>
        <path id="Trazado_19086" data-name="Trazado 19086" d="M3150.4,1499.928s1.183.715,4.807-1.607c.555.145-.331-5.077-5.019-3.543-3.281,1.074-3.124,4.25-2.973,6.008.164,1.9-.824,3.152-2.13,4.54-1.095,1.165-1.078,3.306-1.807,4.459-.9,1.418-1.849,1.335-2.561,2.774a4.544,4.544,0,0,0,.151,4.7c.567.768,1.889,2.621,3.98,1.961,1.174-.37,1.49-2.42,1.542-4.147a5.228,5.228,0,0,1,1.993-3.922,7.422,7.422,0,0,0,2.689-3.412C3151.722,1505.217,3150.4,1499.928,3150.4,1499.928Z" transform="translate(-3138.957 -1494.495)" fill="#212b53"/>
        <path id="Trazado_19087" data-name="Trazado 19087" d="M3215.974,1537.355a.77.77,0,0,1,.991.264.663.663,0,0,1-.02.965.77.77,0,0,1-.991-.264A.664.664,0,0,1,3215.974,1537.355Z" transform="translate(-3204.953 -1531.821)" fill="#f7b58e"/>
        <path id="Trazado_19088" data-name="Trazado 19088" d="M3324.351,1673.343a.521.521,0,0,0-.31-.537l-2.039-.886a2.236,2.236,0,0,0-1.595-.071l-2.021.672-.274.011-.218,1.881c.4-.148.641-.24.641-.24l1.279-.465s2.791,2.366,3.788.218c.3,2.128.9,1.891.9,1.891Z" transform="translate(-3294.095 -1649.185)" fill="#f7b58e"/>
      </g>
      <path id="Trazado_19089" data-name="Trazado 19089" d="M3206.188,1495.359c.4,1.453,2.467,2.151,4.614,1.558s3.312-2.205,3.16-3.706c-.2-1.97-2.467-2.151-4.614-1.558S3205.787,1493.905,3206.188,1495.359Z" transform="translate(-3196.541 -1491.355)" fill="#212b53"/>
    </g>
    <g id="Grupo_9959" data-name="Grupo 9959" transform="translate(678.935 456.435)">
      <g id="Grupo_9946" data-name="Grupo 9946" transform="translate(39.928)">
        <g id="Grupo_9935" data-name="Grupo 9935" transform="translate(19.997)">
          <path id="Trazado_19090" data-name="Trazado 19090" d="M3865.584,1361.668l-38.674-120.229h2.2l38.674,120.229Z" transform="translate(-3826.911 -1241.439)" fill="#ffd147"/>
        </g>
        <g id="Grupo_9936" data-name="Grupo 9936">
          <path id="Trazado_19091" data-name="Trazado 19091" d="M3708.407,1361.668l-38.674-120.229h2.2l38.674,120.229Z" transform="translate(-3669.733 -1241.439)" fill="#ffd147"/>
        </g>
        <g id="Grupo_9937" data-name="Grupo 9937" transform="translate(11.144 31.21)">
          <path id="Trazado_19092" data-name="Trazado 19092" d="M3778.4,1486.767v1.792l-20.721-.011-.354-1.793Z" transform="translate(-3757.324 -1486.755)" fill="#ffd147"/>
        </g>
        <g id="Grupo_9938" data-name="Grupo 9938" transform="translate(6.86 19.561)">
          <path id="Trazado_19093" data-name="Trazado 19093" d="M3744.727,1395.2v1.793l-20.721-.011-.354-1.793Z" transform="translate(-3723.651 -1395.189)" fill="#ffd147"/>
        </g>
        <g id="Grupo_9939" data-name="Grupo 9939" transform="translate(3.318 7.911)">
          <path id="Trazado_19094" data-name="Trazado 19094" d="M3716.886,1303.635v1.792l-20.721-.011-.354-1.793Z" transform="translate(-3695.812 -1303.624)" fill="#ffd147"/>
        </g>
        <g id="Grupo_9940" data-name="Grupo 9940" transform="translate(14.918 43.01)">
          <path id="Trazado_19095" data-name="Trazado 19095" d="M3808.065,1579.51v1.792l-20.721-.011-.354-1.792Z" transform="translate(-3786.99 -1579.499)" fill="#ffd147"/>
        </g>
        <g id="Grupo_9941" data-name="Grupo 9941" transform="translate(18.46 54.809)">
          <path id="Trazado_19096" data-name="Trazado 19096" d="M3835.9,1672.25v1.793l-20.721-.012-.354-1.793Z" transform="translate(-3814.83 -1672.239)" fill="#ffd147"/>
        </g>
        <g id="Grupo_9942" data-name="Grupo 9942" transform="translate(22.962 67.067)">
          <path id="Trazado_19097" data-name="Trazado 19097" d="M3870.45,1768.6l.837,1.793-20.721-.012-.354-1.792Z" transform="translate(-3850.212 -1768.594)" fill="#ffd147"/>
        </g>
        <g id="Grupo_9943" data-name="Grupo 9943" transform="translate(26.846 79.326)">
          <path id="Trazado_19098" data-name="Trazado 19098" d="M3900.985,1864.96l.837,1.793-20.721-.011-.354-1.792Z" transform="translate(-3880.747 -1864.949)" fill="#ffd147"/>
        </g>
        <g id="Grupo_9944" data-name="Grupo 9944" transform="translate(30.485 91.312)">
          <path id="Trazado_19099" data-name="Trazado 19099" d="M3929.582,1959.167l.837,1.793-20.721-.011-.354-1.792Z" transform="translate(-3909.344 -1959.156)" fill="#ffd147"/>
        </g>
        <g id="Grupo_9945" data-name="Grupo 9945" transform="translate(33.499 103.559)">
          <path id="Trazado_19100" data-name="Trazado 19100" d="M3953.275,2055.43l.837,1.793-20.721-.012-.354-1.793Z" transform="translate(-3933.037 -2055.419)" fill="#ffd147"/>
        </g>
      </g>
      <g id="Grupo_9958" data-name="Grupo 9958">
        <g id="Grupo_9947" data-name="Grupo 9947">
          <path id="Trazado_19101" data-name="Trazado 19101" d="M3358.095,1361.668l38.674-120.229h-2.2l-38.674,120.229Z" transform="translate(-3355.893 -1241.439)" fill="#053c5e"/>
        </g>
        <g id="Grupo_9948" data-name="Grupo 9948" transform="translate(19.997)">
          <path id="Trazado_19102" data-name="Trazado 19102" d="M3515.273,1361.668l38.674-120.229h-2.2l-38.674,120.229Z" transform="translate(-3513.071 -1241.439)" fill="#053c5e"/>
        </g>
        <g id="Grupo_9949" data-name="Grupo 9949" transform="translate(28.655 31.21)">
          <path id="Trazado_19103" data-name="Trazado 19103" d="M3581.12,1486.767v1.792l20.721-.011.354-1.793Z" transform="translate(-3581.12 -1486.755)" fill="#053c5e"/>
        </g>
        <g id="Grupo_9950" data-name="Grupo 9950" transform="translate(32.939 19.561)">
          <path id="Trazado_19104" data-name="Trazado 19104" d="M3614.793,1395.2v1.793l20.721-.011.354-1.793Z" transform="translate(-3614.793 -1395.189)" fill="#053c5e"/>
        </g>
        <g id="Grupo_9951" data-name="Grupo 9951" transform="translate(36.481 7.911)">
          <path id="Trazado_19105" data-name="Trazado 19105" d="M3642.633,1303.635v1.792l20.721-.011.354-1.793Z" transform="translate(-3642.633 -1303.624)" fill="#053c5e"/>
        </g>
        <g id="Grupo_9952" data-name="Grupo 9952" transform="translate(24.88 43.01)">
          <path id="Trazado_19106" data-name="Trazado 19106" d="M3551.455,1579.51v1.792l20.721-.011.354-1.792Z" transform="translate(-3551.455 -1579.499)" fill="#053c5e"/>
        </g>
        <g id="Grupo_9953" data-name="Grupo 9953" transform="translate(21.338 54.809)">
          <path id="Trazado_19107" data-name="Trazado 19107" d="M3523.614,1672.25v1.793l20.721-.012.354-1.793Z" transform="translate(-3523.614 -1672.239)" fill="#053c5e"/>
        </g>
        <g id="Grupo_9954" data-name="Grupo 9954" transform="translate(16.837 67.067)">
          <path id="Trazado_19108" data-name="Trazado 19108" d="M3489.07,1768.6l-.837,1.793,20.721-.012.354-1.792Z" transform="translate(-3488.232 -1768.594)" fill="#053c5e"/>
        </g>
        <g id="Grupo_9955" data-name="Grupo 9955" transform="translate(12.952 79.326)">
          <path id="Trazado_19109" data-name="Trazado 19109" d="M3458.534,1864.96l-.837,1.793,20.721-.011.354-1.792Z" transform="translate(-3457.697 -1864.949)" fill="#053c5e"/>
        </g>
        <g id="Grupo_9956" data-name="Grupo 9956" transform="translate(9.314 91.312)">
          <path id="Trazado_19110" data-name="Trazado 19110" d="M3429.938,1959.167l-.838,1.793,20.721-.011.354-1.792Z" transform="translate(-3429.101 -1959.156)" fill="#053c5e"/>
        </g>
        <g id="Grupo_9957" data-name="Grupo 9957" transform="translate(6.299 103.559)">
          <path id="Trazado_19111" data-name="Trazado 19111" d="M3406.244,2055.43l-.837,1.793,20.721-.012.354-1.793Z" transform="translate(-3405.407 -2055.419)" fill="#053c5e"/>
        </g>
      </g>
    </g>
    <g id="Grupo_9966" data-name="Grupo 9966" transform="translate(689.978 402.167)">
      <g id="Grupo_9962" data-name="Grupo 9962" transform="translate(0 69.791)">
        <path id="Trazado_19112" data-name="Trazado 19112" d="M3446.571,1370.144l1.538,4.07a1.343,1.343,0,0,1-.438,1.587,5.119,5.119,0,0,1-.806.37c-.28-.059-2.055-5.555-2.055-5.555l.017-.033A1.461,1.461,0,0,1,3446.571,1370.144Z" transform="translate(-3444.54 -1369.183)" fill="#01888b"/>
        <path id="Trazado_19113" data-name="Trazado 19113" d="M3445.014,1380.267l-2.055-5.556-.27.156,2.07,5.5Z" transform="translate(-3442.689 -1373.278)" fill="#212b53"/>
        <g id="Grupo_9960" data-name="Grupo 9960" transform="translate(1.935 2.57)">
          <path id="Trazado_19114" data-name="Trazado 19114" d="M3458.608,1383.651l.134.368-.709.136-.134-.356Z" transform="translate(-3457.899 -1383.651)" fill="#fff"/>
        </g>
        <g id="Grupo_9961" data-name="Grupo 9961" transform="translate(2.231 3.356)">
          <path id="Trazado_19115" data-name="Trazado 19115" d="M3460.932,1389.831l.135.368-.709.136-.134-.356Z" transform="translate(-3460.224 -1389.831)" fill="#fff"/>
        </g>
        <path id="Trazado_19116" data-name="Trazado 19116" d="M3460.153,1363.45l-1.706.96h0a1.1,1.1,0,0,0,.376,1.1l.06.048,1.883-.484Z" transform="translate(-3456.416 -1363.45)" fill="#f7b58e"/>
      </g>
      <path id="Trazado_19117" data-name="Trazado 19117" d="M3485.678,1161.6a9.794,9.794,0,0,0-2.127,5.028c-.29,2.134.509,5.516.6,8.169a6.844,6.844,0,0,1-2.938,5.836l-9.15,6.648.613,1.629s12.523-1.878,15.811-7.487,4.067-18.306,4.067-18.306Z" transform="translate(-3468.323 -1117.486)" fill="#212b53"/>
      <path id="Trazado_19118" data-name="Trazado 19118" d="M3467.992,1107.275l-4.706,10.508a6.39,6.39,0,0,0-2.772.967,2,2,0,0,0-.3,1.814.649.649,0,0,0,1.063.375,4.47,4.47,0,0,1,1.622-1.028,1.951,1.951,0,0,0,1.508-1.015l6.751-10.589Z" transform="translate(-3457.921 -1070.076)" fill="#f7b58e"/>
      <path id="Trazado_19119" data-name="Trazado 19119" d="M3692.181,830.951l2.411-2.062-1.87-10.186-1.769-.9a2.077,2.077,0,0,1-1.132-1.85h0c0-.856.809-1.023,1.665-1.063,2.4-.111,2.719,3.623,2.719,3.623s3.739,10.251,3.739,11.346-2.095,2.594-2.095,2.594Z" transform="translate(-3658.38 -814.885)" fill="#f7b58e"/>
      <path id="Trazado_19120" data-name="Trazado 19120" d="M3600.58,1160s-1.451,1.747-.581,5.809c.556,2.593,3,5.855,4.634,8.1a7.127,7.127,0,0,1,.846,5.6c-1.342,7.459.805,16.565.805,16.565h1.741s2.611-13.344,3.385-22.724a27.064,27.064,0,0,0-3-14.8Z" transform="translate(-3579.743 -1114.833)" fill="#053c5e"/>
      <path id="Trazado_19121" data-name="Trazado 19121" d="M3526.445,949.651c-3.11,2.284-6.771,13.268-6.771,13.268l2.73,1.532,4.444-6.1a59.012,59.012,0,0,1-.63,12.475c.483,2.031,2.79,1.8,6.529,1.093a18.552,18.552,0,0,0,6.188-2.321s.162-9.795.645-14.988-.472-5.748.837-5.576c2.921-1.659,7.708-7,7.708-7l-4.446-.865-9.573,5.609A41.464,41.464,0,0,0,3526.445,949.651Z" transform="translate(-3509.88 -925.102)" fill="#63c0c4"/>
      <path id="Trazado_19122" data-name="Trazado 19122" d="M3615.527,905.731l2.31,2.281a4,4,0,0,1,1.1,3.718l-.271,1.218Z" transform="translate(-3593.538 -894.173)" fill="#f7b58e"/>
      <path id="Trazado_19123" data-name="Trazado 19123" d="M3567.978,898.947c-5.609,0-3.223,10.767-3.223,10.767s1,6.984,3.223,9.788c1.925,2.427,5.734,1.7,7.538.532a6.892,6.892,0,0,1,2.912-1.075c1.528-.184,3.346-.859,3.346-3.616,0-2.595-3.1-4.6-5.136-6.035a6.722,6.722,0,0,1-2.643-3.908C3573.342,902.744,3571.75,898.947,3567.978,898.947Z" transform="translate(-3548.785 -888.252)" fill="#212b53"/>
      <g id="Grupo_9965" data-name="Grupo 9965" transform="translate(26.41 81.243)">
        <path id="Trazado_19124" data-name="Trazado 19124" d="M3650.705,1468.622l4.351-.007c.578.081,1.223.3,1.332.969a5.136,5.136,0,0,1,.063.885c-.154.241-5.923-.032-5.923-.032l-.025-.028A1.461,1.461,0,0,1,3650.705,1468.622Z" transform="translate(-3650.275 -1466.687)" fill="#01888b"/>
        <path id="Trazado_19125" data-name="Trazado 19125" d="M3658.182,1482.963l-5.923-.032.051.308h5.881Z" transform="translate(-3652.006 -1479.182)" fill="#053c5e"/>
        <g id="Grupo_9963" data-name="Grupo 9963" transform="translate(2.043 1.928)">
          <path id="Trazado_19126" data-name="Trazado 19126" d="M3666.439,1468.615l.392,0-.122.712h-.38Z" transform="translate(-3666.329 -1468.615)" fill="#fff"/>
        </g>
        <g id="Grupo_9964" data-name="Grupo 9964" transform="translate(2.883 1.928)">
          <path id="Trazado_19127" data-name="Trazado 19127" d="M3673.042,1468.615l.392,0-.122.712h-.38Z" transform="translate(-3672.932 -1468.615)" fill="#fff"/>
        </g>
        <path id="Trazado_19128" data-name="Trazado 19128" d="M3651.311,1453.461l.3,1.935h0a1.094,1.094,0,0,0,1.166.037l.066-.039.21-1.933Z" transform="translate(-3651.179 -1453.461)" fill="#f7b58e"/>
      </g>
    </g>
    <g id="Grupo_9986" data-name="Grupo 9986" transform="translate(523.359 482.772)">
      <g id="Grupo_9978" data-name="Grupo 9978" transform="translate(0 5.506)">
        <g id="Grupo_9971" data-name="Grupo 9971" transform="translate(6.711 5.907)">
          <g id="Grupo_9967" data-name="Grupo 9967" transform="translate(0 26.505)">
            <path id="Trazado_19129" data-name="Trazado 19129" d="M2186.66,1798.854h-.862c1.579-10.507,3.119-21.073,4.61-31.3,1-6.888,2.042-14.011,3.084-21.067l.844.125c-1.043,7.056-2.081,14.178-3.085,21.066C2189.767,1777.864,2188.233,1788.387,2186.66,1798.854Z" transform="translate(-2185.798 -1746.482)" fill="#212b53"/>
          </g>
          <g id="Grupo_9968" data-name="Grupo 9968" transform="translate(24.783 26.505)">
            <path id="Trazado_19130" data-name="Trazado 19130" d="M2381.456,1798.854h-.862c1.58-10.507,3.12-21.073,4.611-31.3,1-6.888,2.041-14.011,3.084-21.067l.843.125c-1.042,7.056-2.08,14.178-3.084,21.066C2384.563,1777.864,2383.029,1788.387,2381.456,1798.854Z" transform="translate(-2380.594 -1746.482)" fill="#212b53"/>
          </g>
          <path id="Trazado_19131" data-name="Trazado 19131" d="M2191.885,1604.836c7.2-14.818,7.2-43.767,7.2-43.767l6.824,43.767Z" transform="translate(-2191.111 -1558.154)" fill="#e3cce4"/>
          <g id="Grupo_9969" data-name="Grupo 9969" transform="translate(39.047 27.885)">
            <path id="Trazado_19132" data-name="Trazado 19132" d="M2500.988,1810.025c-2.633-16.973-4.975-33.362-7.451-50.689l-.83-1.887.844-.121.83,1.887c2.482,17.37,4.829,33.8,7.469,50.81Z" transform="translate(-2492.707 -1757.328)" fill="#212b53"/>
          </g>
          <g id="Grupo_9970" data-name="Grupo 9970" transform="translate(12.264 27.882)">
            <path id="Trazado_19133" data-name="Trazado 19133" d="M2289.92,1810.01c-1.59-10.571-3.14-21.2-4.639-31.5-1-6.891-2.042-14.017-3.086-21.077l.844-.125c1.043,7.061,2.082,14.187,3.086,21.079,1.506,10.334,3.061,21.009,4.657,31.62Z" transform="translate(-2282.194 -1757.311)" fill="#212b53"/>
          </g>
          <path id="Trazado_19134" data-name="Trazado 19134" d="M2223.126,1683.283l5.061-33.3,6.748,30.934-.883,2.361Z" transform="translate(-2218.377 -1635.76)" fill="#212b53"/>
          <path id="Trazado_19135" data-name="Trazado 19135" d="M2279.429,1544.719c-6.625-1.115-31.033.538-31.033.538s-.679,33.352,7.146,44.547c7.979.006,32.811,0,32.811,0S2278.537,1568.345,2279.429,1544.719Z" transform="translate(-2240.419 -1543.546)" fill="url(#linear-gradient-7)"/>
          <path id="Trazado_19136" data-name="Trazado 19136" d="M2335.169,1901.791l-1.148,2.042-30.533.014-.421-2.056Z" transform="translate(-2288.146 -1855.526)" fill="#212b53"/>
          <path id="Trazado_19137" data-name="Trazado 19137" d="M2279.48,1541.46l-.307,2.042-30.533.014-.14-2.056Z" transform="translate(-2240.522 -1541.039)" fill="#212b53"/>
          <path id="Trazado_19138" data-name="Trazado 19138" d="M2246.621,1539.6a1.449,1.449,0,1,1-1.448-1.449A1.448,1.448,0,0,1,2246.621,1539.6Z" transform="translate(-2236.354 -1538.153)" fill="#212b53"/>
          <path id="Trazado_19139" data-name="Trazado 19139" d="M2484.219,1539.6a1.449,1.449,0,1,1-1.449-1.449A1.448,1.448,0,0,1,2484.219,1539.6Z" transform="translate(-2443.723 -1538.153)" fill="#212b53"/>
        </g>
        <g id="Grupo_9972" data-name="Grupo 9972" transform="translate(21.024 17.755)">
          <path id="Trazado_19140" data-name="Trazado 19140" d="M2302.2,1741.466h-3.891l.153-13.056h4.2Z" transform="translate(-2298.306 -1716.053)" fill="#63c0c4"/>
          <path id="Trazado_19141" data-name="Trazado 19141" d="M2346.5,1696.682h-4.2l-.613-19.585h4.809Z" transform="translate(-2336.174 -1671.269)" fill="#01888b"/>
          <rect id="Rectángulo_2150" data-name="Rectángulo 2150" width="4.197" height="16.087" transform="translate(12.065 9.326)" fill="#ea5768"/>
          <path id="Trazado_19142" data-name="Trazado 19142" d="M2397.335,1720.673h-4.2v-16.087h4.656Z" transform="translate(-2381.073 -1695.26)" fill="#63c0c4"/>
          <path id="Trazado_19143" data-name="Trazado 19143" d="M2443.963,1656.7h-4.2v-25.413h5.422Z" transform="translate(-2421.769 -1631.283)" fill="#053c5e"/>
        </g>
        <g id="Grupo_9977" data-name="Grupo 9977">
          <g id="Grupo_9973" data-name="Grupo 9973" transform="translate(0 59.131)">
            <path id="Trazado_19144" data-name="Trazado 19144" d="M2134.08,2136.915a1.7,1.7,0,0,0-.9,1.292c0,.815-.129,2.7-.129,2.7l.81.147.287-1.729c.023-.112,1.453,1.826,2.426,2.8l3.579.07s.5-1.112-1.954-1.941A9.439,9.439,0,0,1,2134.08,2136.915Z" transform="translate(-2133.053 -2113.962)" fill="#00666b"/>
            <path id="Trazado_19145" data-name="Trazado 19145" d="M2144.038,1965.165a15.443,15.443,0,0,1,.21-2.185,13.465,13.465,0,0,1,1.788-4.492c.878-.325,1.718-.731,2.614-1.086a23.6,23.6,0,0,1,3.171-.9q-.067.181-.136.363c-5.242,13.832-8.173,20.114-8.63,21.6a1.711,1.711,0,0,0-.11.689,5.131,5.131,0,0,0,2.511,3.713c-2.231.556-4.329-3.412-4.329-3.412S2143.927,1969.925,2144.038,1965.165Z" transform="translate(-2140.102 -1956.502)" fill="#f39f85"/>
          </g>
          <path id="Trazado_19146" data-name="Trazado 19146" d="M2222.093,1570.407l-.238,3.759-3.671-.759.441-5.109Z" transform="translate(-2207.354 -1558.556)" fill="#f39f85"/>
          <path id="Trazado_19147" data-name="Trazado 19147" d="M2223.2,1520.369a2.164,2.164,0,0,0,1.294-.336c1.547-2.466-.216-9.112-.216-9.112l-5.614,1.007-.178,4.454a3.738,3.738,0,0,0,1.4,3.072h0A6,6,0,0,0,2223.2,1520.369Z" transform="translate(-2207.61 -1508.478)" fill="#f7b58e"/>
          <path id="Trazado_19148" data-name="Trazado 19148" d="M2222.708,2147.22a1.636,1.636,0,0,0-.631,1.382c.142.774.342,2.587.342,2.587h.794l-.024-1.691c0-.111,1.7,1.691,1.992,1.691h4.2s.279-1.14-2.189-1.507A9.1,9.1,0,0,1,2222.708,2147.22Z" transform="translate(-2210.736 -2063.824)" fill="#00666b"/>
          <g id="Grupo_9974" data-name="Grupo 9974" transform="translate(8.99 58.292)">
            <path id="Trazado_19149" data-name="Trazado 19149" d="M2204.567,1960.728a15.473,15.473,0,0,1-.56-2.122,23.118,23.118,0,0,1-.164-5.974c.71-.609,1.641-.141,2.358-.784a23.6,23.6,0,0,1,2.662-1.943q0,.193,0,.387c-.121,14.792-.692,21.7-.606,23.254.013.237.714,3.294,3.192,3.935-1.9,1.3-4.75-2.472-4.75-2.472S2206.114,1965.232,2204.567,1960.728Z" transform="translate(-2203.717 -1949.904)" fill="#f7b58e"/>
          </g>
          <path id="Trazado_19150" data-name="Trazado 19150" d="M2176.016,1593.1l3.527,5.762a4.511,4.511,0,0,1,.323,2.936l-2.24,9.833a8.659,8.659,0,0,0-.214,1.738l-.535,25.779h-11.26a79.835,79.835,0,0,0,2.143-11.657c.714-6.569-1.376-9.427-.794-12.3a14.148,14.148,0,0,1,2.772-5.612,5.455,5.455,0,0,0,1.167-3.284c.119-4.876-4.987-18.338-.113-15.062S2176.016,1593.1,2176.016,1593.1Z" transform="translate(-2161.474 -1578.13)" fill="#01888b"/>
          <path id="Trazado_19151" data-name="Trazado 19151" d="M2225.473,1724l.265.946a5.317,5.317,0,0,0,.76,1.427c1.241,2.07,5.423,7.141,5.423,7.141l3.38,1.917s-.07.488-.836.349a3.473,3.473,0,0,1-1.324-.558s-.14.556.557,1.673c.521.834,2.193,2.256,1.046,2.509a19.309,19.309,0,0,1-2.328-1.288,2.252,2.252,0,0,1-1.13-1.592l-.306-1.79-7.177-5.867a5.431,5.431,0,0,1-1.717-2.494l-.024-.072Z" transform="translate(-2210.736 -1694.45)" fill="#f7b58e"/>
          <path id="Trazado_19152" data-name="Trazado 19152" d="M2390.134,1663.463a3.178,3.178,0,0,0,1.752-.614c.895-.547,2.392-2.261,2.708-1.123-.46,1.059-.872,2.367-.872,2.367a3.456,3.456,0,0,1-2.159,1.179l-2.322.138s-.832-.841-.877-.874l.243-.422A5.082,5.082,0,0,0,2390.134,1663.463Z" transform="translate(-2355.881 -1639.764)" fill="#f7b58e"/>
          <g id="Grupo_9975" data-name="Grupo 9975" transform="translate(8.784 19.769)">
            <path id="Trazado_19153" data-name="Trazado 19153" d="M2204.537,1659.474l3.7-2.495-1.409-9.866-.346.05,1.378,9.649-3.124,2.1-2.3-7.855-.336.1Z" transform="translate(-2202.097 -1647.112)" fill="#00666b"/>
          </g>
          <path id="Trazado_19154" data-name="Trazado 19154" d="M2183.445,1496.814a5.723,5.723,0,0,0,3.03.7,3.849,3.849,0,0,0,2.968-1.955c.394-.849.481-1.731-.828-2.718a2.043,2.043,0,0,0-2.491.183.941.941,0,0,1-1.248.034,5.765,5.765,0,0,0-3.8-1.332c-1.953,0-1.9,1.894-1.6,3.269a1.977,1.977,0,0,1-.875,2.106c-1.159.718-2.635,1.888-2.332,3.058a6.932,6.932,0,0,0,1.3,2.436,1.73,1.73,0,0,1,.017,2.11c-.72.95-1.564,2.331-1.315,3.33a11.747,11.747,0,0,0,1.509,3.036,1.881,1.881,0,0,1,0,2.038,2.508,2.508,0,0,0-.4,1.9,4.381,4.381,0,0,0,.713,1.533,1.224,1.224,0,0,0,2.1-.161c1.279-2.581,3.518-7.866,2.736-11.9-.392-2.021-.926-5.587-.926-5.587S2181.424,1495.954,2183.445,1496.814Z" transform="translate(-2170.73 -1491.726)" fill="#212b53"/>
          <path id="Trazado_19155" data-name="Trazado 19155" d="M2255.933,1680.324l4.3,2.227a2.355,2.355,0,0,0,1.74.17l11.823-3.734V1677.5l-11.522,1.4-3.6-1.916Z" transform="translate(-2240.3 -1653.409)" fill="#f7b58e"/>
          <path id="Trazado_19156" data-name="Trazado 19156" d="M2214.56,1538.671a.979.979,0,0,1,1.3.127.844.844,0,0,1,.174,1.215.98.98,0,0,1-1.3-.127A.844.844,0,0,1,2214.56,1538.671Z" transform="translate(-2204.024 -1532.53)" fill="#f7b58e"/>
          <path id="Trazado_19157" data-name="Trazado 19157" d="M2248.885,1649.51l1.19-7.351,5.105,5.867-1.4,4.565-4.864-2.516C2249.063,1649.512,2248.917,1650.074,2248.885,1649.51Z" transform="translate(-2234.148 -1623.019)" fill="#01888b"/>
          <g id="Grupo_9976" data-name="Grupo 9976" transform="translate(14.409 14.936)">
            <path id="Trazado_19158" data-name="Trazado 19158" d="M2248.753,1624.6c-.136-.1-.136-.1-.275-.193l1.606-6.6a4.308,4.308,0,0,0-.3-2.781l-3.482-5.7c.113-.081.078-.069.134-.17.012-.023.156-.029.193-.035l3.523,5.707a4.742,4.742,0,0,1,.338,3.072" transform="translate(-2246.305 -1609.121)" fill="#63c0c4"/>
          </g>
          <path id="Trazado_19159" data-name="Trazado 19159" d="M2394.844,1665.059a.888.888,0,0,0,.173.039c-.076.13-.143.264-.206.4-.43.338-.849.691-1.275,1.034-.174-.291-.418-.7-.44-.725l2.316-2.841s.469.15.2.883A3.477,3.477,0,0,1,2394.844,1665.059Z" transform="translate(-2360.011 -1641.178)" fill="#f7b58e"/>
        </g>
      </g>
      <g id="Grupo_9985" data-name="Grupo 9985" transform="translate(56.512)">
        <g id="Grupo_9979" data-name="Grupo 9979" transform="translate(18.75 87.463)">
          <path id="Trazado_19160" data-name="Trazado 19160" d="M2730.046,2150.318a10.028,10.028,0,0,1-4.117,1.893c-.63.161-1.309-.054-1.309.986h3.473l2.889-.5v.5h1.56s.435-2.552-.477-2.879Z" transform="translate(-2724.619 -2148.485)" fill="#212b53"/>
          <path id="Trazado_19161" data-name="Trazado 19161" d="M2767.449,2135.913l-.176,1.833h0a1.764,1.764,0,0,0,1.911.064l.107-.064.324-1.833Z" transform="translate(-2761.846 -2135.913)" fill="#f7b58e"/>
        </g>
        <g id="Grupo_9980" data-name="Grupo 9980" transform="translate(31.329 87.463)">
          <path id="Trazado_19162" data-name="Trazado 19162" d="M2828.916,2150.318a10.028,10.028,0,0,1-4.117,1.893c-.63.161-1.309-.054-1.309.986h3.473l2.888-.5v.5h1.56s.435-2.552-.477-2.879Z" transform="translate(-2823.489 -2148.485)" fill="#212b53"/>
          <path id="Trazado_19163" data-name="Trazado 19163" d="M2866.32,2135.913l-.176,1.833h0a1.764,1.764,0,0,0,1.911.064l.107-.064.324-1.833Z" transform="translate(-2860.717 -2135.913)" fill="#f7b58e"/>
        </g>
        <g id="Grupo_9981" data-name="Grupo 9981" transform="translate(0 17.765)">
          <path id="Trazado_19164" data-name="Trazado 19164" d="M2582.808,1593.162a3.74,3.74,0,0,1-2.169-.279c-1.165-.411-3.311-2.021-3.4-.63.79,1.108,1.584,2.515,1.584,2.515a4.074,4.074,0,0,0,2.778.829l2.71-.41s.752-1.173.8-1.223l-.384-.427A5.981,5.981,0,0,1,2582.808,1593.162Z" transform="translate(-2577.242 -1591.238)" fill="#f7b58e"/>
          <path id="Trazado_19165" data-name="Trazado 19165" d="M2606.5,1590.36a1.054,1.054,0,0,1-.189.087c.119.132.23.269.336.409.578.284,1.147.588,1.722.879.129-.378.311-.908.33-.944l-3.366-2.708s-.5.288-.018,1.068A4.086,4.086,0,0,0,2606.5,1590.36Z" transform="translate(-2601.561 -1588.084)" fill="#f7b58e"/>
        </g>
        <g id="Grupo_9983" data-name="Grupo 9983" transform="translate(27.656)">
          <path id="Trazado_19166" data-name="Trazado 19166" d="M2823.942,1512.6l-.365,3.587,3.844.152-.77-5.561Z" transform="translate(-2819.894 -1502.852)" fill="#f39f85"/>
          <g id="Grupo_9982" data-name="Grupo 9982" transform="translate(1.261 2.362)">
            <path id="Trazado_19167" data-name="Trazado 19167" d="M2806.141,1475.063a1.93,1.93,0,0,1-1.077-.255c-1.288-1.873.179-6.923.179-6.923l2.058-.867,2.616,1.632.149,3.384a2.745,2.745,0,0,1-1.168,2.334h0A5.359,5.359,0,0,1,2806.141,1475.063Z" transform="translate(-2804.534 -1467.018)" fill="#f7b58e"/>
          </g>
          <path id="Trazado_19168" data-name="Trazado 19168" d="M2800.853,1454.362c-.144-.568-.069-1.88-.647-1.785-.422.069-1.869.129-2.356.129-1.16,0-3.229-.454-3.229-2.22a2.277,2.277,0,0,1,3.076-1.891c1.278.447,2.972,1.432,3.648,1.3,1.137-.229,2.271.438,2.255,1.4a9.659,9.659,0,0,1-1.063,3.57,5.419,5.419,0,0,1-1.158,1.516h0Z" transform="translate(-2794.621 -1448.451)" fill="#212b53"/>
          <path id="Trazado_19169" data-name="Trazado 19169" d="M2843.357,1494.915a.873.873,0,0,0-1.081.1c-.338.282-.4.7-.145.923a.873.873,0,0,0,1.081-.1C2843.551,1495.556,2843.615,1495.143,2843.357,1494.915Z" transform="translate(-2835.948 -1488.875)" fill="#f7b58e"/>
        </g>
        <path id="Trazado_19170" data-name="Trazado 19170" d="M2647.006,1554.7c-7.244,5.632-21.292,4.142-21.292,4.142l-.649,3.683s17.824,5.267,20.047,1.053S2654.249,1549.072,2647.006,1554.7Z" transform="translate(-2618.98 -1539.75)" fill="#afd8c8"/>
        <path id="Trazado_19171" data-name="Trazado 19171" d="M2784.223,1545.114q-.2,0-.389.007c-4.239.155-7.55,6-7.55,10.247v15.341h16.362v-17.557a7.956,7.956,0,0,0-6.651-7.907A11.658,11.658,0,0,0,2784.223,1545.114Z" transform="translate(-2750.961 -1532.816)" fill="#afd8c8"/>
        <path id="Trazado_19172" data-name="Trazado 19172" d="M2751.726,1697.867l-3.621.416c-1.481.057-2.667-2.051-3.065-3.663a.334.334,0,0,1,.406-.4,46.38,46.38,0,0,1,5.41,1.568Z" transform="translate(-2723.683 -1662.943)" fill="#f7b58e"/>
        <path id="Trazado_19173" data-name="Trazado 19173" d="M2802.8,1578.177s8.252,11.021,3.068,16.367-16.847,3.078-16.847,3.078v-3.4s11.016.027,11.664-3.713-2.619-7.789-2.619-7.789" transform="translate(-2762.074 -1561.673)" fill="#afd8c8"/>
        <g id="Grupo_9984" data-name="Grupo 9984" transform="translate(26.781 20.944)">
          <path id="Trazado_19174" data-name="Trazado 19174" d="M2802.648,1626.418c-5.222,3.008-13.444,1.723-14.58,1.526v-3.105c1.43-.012,11.034-.225,11.662-3.846.653-3.768-2.518-7.751-2.653-7.919l-.252.2c.032.04,3.214,4.035,2.586,7.66-.615,3.544-11.285,3.578-11.5,3.578h-.165v3.7l.131.026a33.193,33.193,0,0,0,5.6.467,19.515,19.515,0,0,0,9.169-1.923Z" transform="translate(-2787.744 -1613.074)" fill="#01888b"/>
        </g>
        <path id="Trazado_19175" data-name="Trazado 19175" d="M2761.169,1746.3c-1.87,9.075-2.158,18.841-2.2,27.039a217.006,217.006,0,0,0,1.015,22.854h2.7l5.638-37.745s.614,5.613,1.446,15.132c.653,7.469.961,13.783,2.715,22.613h2.709s2.338-27.255,2.338-49.893Z" transform="translate(-2735.846 -1708.404)" fill="#212b53"/>
        <path id="Trazado_19176" data-name="Trazado 19176" d="M2821.906,1537.5h3.418l.544,1.258h-4.4Z" transform="translate(-2790.395 -1526.171)" fill="#fff"/>
      </g>
    </g>
  </g>
</svg>
