<svg xmlns="http://www.w3.org/2000/svg" xmlns:xlink="http://www.w3.org/1999/xlink" width="363.995" height="278.444" viewBox="0 0 363.995 278.444">
  <defs>
    <linearGradient id="linear-gradient" y1="0.5" x2="1" y2="0.5" gradientUnits="objectBoundingBox">
      <stop offset="0" stop-color="#eef7f6"/>
      <stop offset="1" stop-color="#b2deeb"/>
    </linearGradient>
    <linearGradient id="linear-gradient-5" x1="3.491" y1="0.5" x2="4.491" y2="0.5" gradientUnits="objectBoundingBox">
      <stop offset="0" stop-color="#daece5"/>
      <stop offset="1" stop-color="#b2deeb"/>
    </linearGradient>
    <linearGradient id="linear-gradient-6" x1="0.931" y1="0.5" x2="1.931" y2="0.5" xlink:href="#linear-gradient-5"/>
    <linearGradient id="linear-gradient-7" x1="-26.755" y1="22.225" x2="-25.769" y2="22.225" xlink:href="#linear-gradient-5"/>
  </defs>
  <g id="Grupo_10046" data-name="Grupo 10046" transform="translate(-59.14 -59.668)">
    <g id="Grupo_9994" data-name="Grupo 9994" transform="translate(355.335 78.757)">
      <g id="Grupo_9988" data-name="Grupo 9988">
        <path id="Trazado_19177" data-name="Trazado 19177" d="M460.287,90.368l2.86,5.625-6.006-1.371-20.547-6.475Z" transform="translate(-436.593 -84.888)" fill="#a4d1bb"/>
        <path id="Trazado_19178" data-name="Trazado 19178" d="M467.633,97.623l-10.2-.634,2.5-1.271Z" transform="translate(-441.079 -86.518)" fill="#53b6b9"/>
        <path id="Trazado_19179" data-name="Trazado 19179" d="M460.287,89.474l1.786-5.48-25.48,3.26Z" transform="translate(-436.593 -83.994)" fill="url(#linear-gradient)"/>
        <path id="Trazado_19180" data-name="Trazado 19180" d="M436.593,88.148l20.547,6.475-3.063,7.9Z" transform="translate(-436.593 -84.888)" fill="url(#linear-gradient)"/>
      </g>
      <g id="Grupo_9993" data-name="Grupo 9993" transform="translate(2.923 14.454)">
        <g id="Grupo_9989" data-name="Grupo 9989" transform="translate(18.733)">
          <path id="Trazado_19181" data-name="Trazado 19181" d="M466.835,104.725a.484.484,0,0,0,.144-.113.479.479,0,0,0-.047-.677,13.521,13.521,0,0,0-2.019-1.455.48.48,0,1,0-.486.827,12.529,12.529,0,0,1,1.875,1.352A.48.48,0,0,0,466.835,104.725Z" transform="translate(-464.191 -102.412)" fill="#53b6b9"/>
        </g>
        <g id="Grupo_9991" data-name="Grupo 9991" transform="translate(0 3.532)">
          <g id="Grupo_9990" data-name="Grupo 9990">
            <path id="Trazado_19182" data-name="Trazado 19182" d="M454.229,158.149a.48.48,0,0,1,.169-.658,13.5,13.5,0,0,0,3.52-3.051.48.48,0,1,1,.74.612,14.467,14.467,0,0,1-3.773,3.266.218.218,0,0,1-.027.015A.48.48,0,0,1,454.229,158.149Zm5.47-5.382a.48.48,0,0,1-.18-.654,17.163,17.163,0,0,0,1.741-4.369.48.48,0,1,1,.932.231,18.133,18.133,0,0,1-1.839,4.612.465.465,0,0,1-.2.191A.478.478,0,0,1,459.7,152.767Zm2.444-7.3a.481.481,0,0,1-.445-.513l.013-.217a22.193,22.193,0,0,0-.235-4.511.48.48,0,1,1,.949-.144,23.15,23.15,0,0,1,.246,4.708l-.014.232a.482.482,0,0,1-.262.394A.494.494,0,0,1,462.143,145.469Zm-.666-7.693a.479.479,0,0,1-.586-.341,35.006,35.006,0,0,0-1.558-4.52.48.48,0,0,1,.885-.371,35.812,35.812,0,0,1,1.6,4.644.479.479,0,0,1-.246.551A.531.531,0,0,1,461.476,137.776Zm-2.7-7.262a.479.479,0,0,1-.642-.219c-.06-.121-.119-.242-.18-.362a16.121,16.121,0,0,1-1.551.517.48.48,0,0,1-.257-.925q.7-.193,1.369-.451c-.5-.955-1.048-1.947-1.668-3.015a.48.48,0,1,1,.829-.482c.644,1.106,1.211,2.134,1.726,3.124a14.639,14.639,0,0,0,2-1.116.48.48,0,0,1,.533.8,15.682,15.682,0,0,1-2.1,1.172c.053.1.1.21.157.315a.481.481,0,0,1-.213.64Zm3.792-4.039a.479.479,0,0,1-.009-.678,12.057,12.057,0,0,0,2.546-3.874.48.48,0,1,1,.888.364,12.986,12.986,0,0,1-2.746,4.179.466.466,0,0,1-.126.093A.48.48,0,0,1,462.57,126.475Zm-9.113,4.507a15.009,15.009,0,0,1-4.97-.388.48.48,0,1,1,.235-.931,14.03,14.03,0,0,0,4.653.363.48.48,0,0,1,.258.906A.475.475,0,0,1,453.457,130.983Zm12.814-11.195a.48.48,0,0,1-.39-.556,14.554,14.554,0,0,0,.044-4.674.48.48,0,1,1,.949-.142,15.537,15.537,0,0,1-.047,4.981.48.48,0,0,1-.556.39Zm-20.6,9.748a12.633,12.633,0,0,1-1.128-.653,10.242,10.242,0,0,1-2.713-2.592.48.48,0,0,1,.779-.56,9.307,9.307,0,0,0,2.457,2.347,11.621,11.621,0,0,0,1.041.6.48.48,0,0,1-.437.855Zm8.683-5.946a17.791,17.791,0,0,0-2.965-3.658.48.48,0,1,1,.643-.713,18.759,18.759,0,0,1,3.129,3.851.481.481,0,0,1-.144.664.474.474,0,0,1-.043.024A.48.48,0,0,1,454.352,123.59Zm11.513-11.471a.479.479,0,0,1-.61-.3,15.366,15.366,0,0,0-.834-1.971,14.614,14.614,0,0,0-1.349-2.167.48.48,0,1,1,.767-.577,15.513,15.513,0,0,1,1.438,2.308,16.253,16.253,0,0,1,.887,2.1.481.481,0,0,1-.236.584A.488.488,0,0,1,465.865,112.119Zm-24.781,11.75a.48.48,0,0,1-.582-.349,5.334,5.334,0,0,1,.393-3.827,4.9,4.9,0,0,1,.819-1.128.48.48,0,0,1,.688.669,3.9,3.9,0,0,0-.658.906,4.329,4.329,0,0,0-.312,3.148.48.48,0,0,1-.248.544A.472.472,0,0,1,441.084,123.869Zm8.023-5.482a6.871,6.871,0,0,0-4.42-.416.48.48,0,0,1-.235-.931,7.745,7.745,0,0,1,5.057.476.481.481,0,0,1,.235.637.473.473,0,0,1-.218.226A.478.478,0,0,1,449.107,118.386Z" transform="translate(-440.318 -106.913)" fill="#53b6b9"/>
          </g>
        </g>
        <g id="Grupo_9992" data-name="Grupo 9992" transform="translate(8.773 55.217)">
          <path id="Trazado_19183" data-name="Trazado 19183" d="M454.558,173.685a.48.48,0,0,0-.349-.889,10.323,10.323,0,0,1-2.257.381.479.479,0,1,0,.053.957,11.281,11.281,0,0,0,2.467-.414A.459.459,0,0,0,454.558,173.685Z" transform="translate(-451.498 -172.778)" fill="#53b6b9"/>
        </g>
      </g>
    </g>
    <g id="Grupo_9997" data-name="Grupo 9997" transform="translate(59.14 128.868)">
      <g id="Grupo_9995" data-name="Grupo 9995" transform="translate(78.522)">
        <path id="Trazado_19184" data-name="Trazado 19184" d="M198.907,158.719l-16.613-9.169-8.481-1.7-6.409.942Z" transform="translate(-160.969 -147.853)" fill="url(#linear-gradient)"/>
        <path id="Trazado_19185" data-name="Trazado 19185" d="M198.907,158.977l-31.109-8-.394-1.926" transform="translate(-160.969 -148.111)" fill="#a4d1bb"/>
        <path id="Trazado_19186" data-name="Trazado 19186" d="M166.774,158.31l.04.065,1.306,4.83,30.573-2.233Z" transform="translate(-160.834 -150.104)" fill="#53b6b9"/>
        <path id="Trazado_19187" data-name="Trazado 19187" d="M159.2,153.715l4.439-3.6,33.3,9.041-28.663-.852Z" transform="translate(-159.204 -148.339)" fill="url(#linear-gradient)"/>
      </g>
      <g id="Grupo_9996" data-name="Grupo 9996" transform="translate(0 1.537)">
        <path id="Trazado_19188" data-name="Trazado 19188" d="M69.636,232.879a23.272,23.272,0,0,0,2.993-1.3.452.452,0,0,1,.417.8,24.305,24.305,0,0,1-3.11,1.349q-.573.2-1.154.376a.452.452,0,0,1-.26-.866Q69.082,233.074,69.636,232.879Z" transform="translate(-61.091 -167.403)" fill="#53b6b9"/>
        <path id="Trazado_19189" data-name="Trazado 19189" d="M147.48,150.41c1.41.181,2.878.414,4.489.71a.452.452,0,0,1-.164.89c-1.594-.3-3.046-.524-4.439-.7a.452.452,0,1,1,.115-.9Z" transform="translate(-78.048 -149.939)" fill="#53b6b9"/>
        <path id="Trazado_19190" data-name="Trazado 19190" d="M137.964,150.628a.452.452,0,0,1,.265-.815c1.449-.013,2.983.048,4.556.18a.452.452,0,0,1-.075.9c-1.546-.129-3.051-.189-4.474-.177A.444.444,0,0,1,137.964,150.628Z" transform="translate(-76.07 -149.811)" fill="#53b6b9"/>
        <path id="Trazado_19191" data-name="Trazado 19191" d="M80.145,226.269a.446.446,0,0,1,.639.009.451.451,0,0,1-.009.639,25.2,25.2,0,0,1-3.567,2.9.453.453,0,0,1-.52-.012.439.439,0,0,1-.106-.112.451.451,0,0,1,.123-.626A24.482,24.482,0,0,0,80.145,226.269Z" transform="translate(-62.879 -166.243)" fill="#53b6b9"/>
        <path id="Trazado_19192" data-name="Trazado 19192" d="M83.473,223.373a.451.451,0,0,1-.063-.636c.255-.312.5-.629.743-.953a23.438,23.438,0,0,0,1.737-2.715.451.451,0,0,1,.613-.181.457.457,0,0,1,.18.614,24.3,24.3,0,0,1-1.8,2.821q-.373.5-.771.988a.451.451,0,0,1-.618.077Z" transform="translate(-64.343 -164.67)" fill="#53b6b9"/>
        <path id="Trazado_19193" data-name="Trazado 19193" d="M88.289,215.4a.451.451,0,0,1-.246-.59,30.792,30.792,0,0,0,1.375-4.23.452.452,0,1,1,.877.221,31.482,31.482,0,0,1-1.416,4.354A.451.451,0,0,1,88.289,215.4Z" transform="translate(-65.355 -162.821)" fill="#53b6b9"/>
        <path id="Trazado_19194" data-name="Trazado 19194" d="M102.694,167.471q-.565.69-1.1,1.4c-.533.72-1.041,1.464-1.512,2.214a.453.453,0,0,1-.623.143l-.029-.02a.452.452,0,0,1-.113-.6c.483-.77,1-1.534,1.551-2.273q.544-.733,1.124-1.439a.43.43,0,0,1,.636-.063A.453.453,0,0,1,102.694,167.471Z" transform="translate(-67.776 -153.452)" fill="#53b6b9"/>
        <path id="Trazado_19195" data-name="Trazado 19195" d="M97.886,175.063a32.87,32.87,0,0,0-1.792,4.078.452.452,0,0,1-.578.272.472.472,0,0,1-.116-.062.452.452,0,0,1-.156-.516,33.882,33.882,0,0,1,1.841-4.191.452.452,0,1,1,.8.419Z" transform="translate(-66.907 -155.105)" fill="#53b6b9"/>
        <path id="Trazado_19196" data-name="Trazado 19196" d="M108.959,161.035a36.659,36.659,0,0,0-3.272,3.035.452.452,0,0,1-.6.052.391.391,0,0,1-.044-.037.452.452,0,0,1-.015-.639,37.788,37.788,0,0,1,3.352-3.11.452.452,0,0,1,.574.7Z" transform="translate(-68.993 -152.055)" fill="#53b6b9"/>
        <path id="Trazado_19197" data-name="Trazado 19197" d="M120.514,154.035a.452.452,0,1,1-.366-.826,35.775,35.775,0,0,1,4.293-1.58.452.452,0,1,1,.257.867A35,35,0,0,0,120.514,154.035Z" transform="translate(-72.216 -150.198)" fill="#53b6b9"/>
        <path id="Trazado_19198" data-name="Trazado 19198" d="M92.2,197.407a.451.451,0,0,1-.4-.5l.064-.569c.15-1.311.3-2.622.472-3.928a.452.452,0,1,1,.9.119c-.172,1.3-.321,2.607-.47,3.911l-.064.569A.452.452,0,0,1,92.2,197.407Z" transform="translate(-66.171 -158.897)" fill="#53b6b9"/>
        <path id="Trazado_19199" data-name="Trazado 19199" d="M112.589,158.31a.452.452,0,1,1-.521-.738,37.62,37.62,0,0,1,3.891-2.4.452.452,0,0,1,.427.8A36.5,36.5,0,0,0,112.589,158.31Z" transform="translate(-70.493 -150.953)" fill="#53b6b9"/>
        <path id="Trazado_19200" data-name="Trazado 19200" d="M91.712,201.174a.451.451,0,0,1,.392.505c-.221,1.761-.44,3.189-.685,4.5a.452.452,0,0,1-.889-.168c.242-1.288.458-2.7.678-4.441A.452.452,0,0,1,91.712,201.174Z" transform="translate(-65.896 -160.868)" fill="#53b6b9"/>
        <path id="Trazado_19201" data-name="Trazado 19201" d="M63.983,234.521a.452.452,0,0,1,.174.887,36.459,36.459,0,0,1-4.533.586.452.452,0,0,1-.064-.9A35.786,35.786,0,0,0,63.983,234.521Z" transform="translate(-59.14 -168.045)" fill="#53b6b9"/>
        <path id="Trazado_19202" data-name="Trazado 19202" d="M94.5,182.985a.453.453,0,0,1,.319.554c-.356,1.329-.662,2.761-.932,4.376a.452.452,0,1,1-.891-.149c.275-1.644.586-3.1.951-4.46A.452.452,0,0,1,94.5,182.985Z" transform="translate(-66.427 -156.949)" fill="#53b6b9"/>
        <path id="Trazado_19203" data-name="Trazado 19203" d="M131.935,150.112q.792-.094,1.585-.154a.452.452,0,1,1,.068.9q-.775.058-1.547.149c-.955.114-1.919.273-2.867.473a.451.451,0,0,1-.363-.079.447.447,0,0,1-.173-.269.452.452,0,0,1,.348-.536C129.962,150.392,130.954,150.229,131.935,150.112Z" transform="translate(-74.1 -149.842)" fill="#53b6b9"/>
      </g>
    </g>
    <g id="Grupo_10003" data-name="Grupo 10003" transform="translate(207.078 59.668)">
      <g id="Grupo_10002" data-name="Grupo 10002" transform="translate(0)">
        <g id="Grupo_10001" data-name="Grupo 10001" transform="translate(0 7.875)">
          <g id="Grupo_9998" data-name="Grupo 9998" transform="translate(0 8.736)">
            <path id="Trazado_19204" data-name="Trazado 19204" d="M272.583,121c-.559-.123-1.13-.247-1.743-.374-17.371-3.6-23.341-17.147-23.174-27.65.071-4.5,2.154-8.6,5.437-10.7a8.4,8.4,0,0,1,9.218-.115l4.413,2.71,4.317,12.314.108.463a23.86,23.86,0,0,0,2.5,8.175l.318.615-.1.7c-.166,1.111-.259,1.97-.3,2.785a23.761,23.761,0,0,0,1.084,8.444l1.047,3.318ZM267.6,98.422l-3.769-10.749-3.272-2.009a5.146,5.146,0,0,0-5.644.075,8.754,8.754,0,0,0-3.621,7.288c-.138,8.724,4.817,19.937,19.12,23.405a27.942,27.942,0,0,1-.456-6.735c.042-.775.12-1.567.246-2.5A28.111,28.111,0,0,1,267.6,98.422Z" transform="translate(-247.663 -80.837)" fill="#fda630"/>
          </g>
          <g id="Grupo_9999" data-name="Grupo 9999" transform="translate(53.835 9.863)">
            <path id="Trazado_19205" data-name="Trazado 19205" d="M316.267,122.455l1.164-3.279a23.739,23.739,0,0,0,1.387-8.4c-.015-.816-.077-1.678-.2-2.794l-.078-.7.34-.6a23.844,23.844,0,0,0,2.791-8.079l.124-.459,4.757-12.151,4.507-2.55a8.4,8.4,0,0,1,9.208.446c3.206,2.218,5.141,6.39,5.05,10.886-.211,10.5-6.663,23.823-24.153,26.8-.616.105-1.192.21-1.755.312Zm6.019-14.283c.093.941.141,1.736.155,2.512a27.938,27.938,0,0,1-.7,6.714c14.418-2.953,19.772-13.98,19.948-22.7a8.755,8.755,0,0,0-3.357-7.413A5.147,5.147,0,0,0,332.7,87l-3.343,1.89L325.2,99.5A28.109,28.109,0,0,1,322.286,108.172Z" transform="translate(-316.267 -82.273)" fill="#fda630"/>
          </g>
          <path id="Trazado_19206" data-name="Trazado 19206" d="M302.027,143.537c6.783-28.423-16.328-28.838-10.569-.19s-4.586,33.087-4.586,33.087h0a33.4,33.4,0,0,0,18.55.334h0S295.244,171.961,302.027,143.537Z" transform="translate(-256.104 -80.971)" fill="#fda630"/>
          <path id="Trazado_19207" data-name="Trazado 19207" d="M322.114,72.354c.006-.017.038-.033.038-.049.02-1.106-13.128-2.24-29.366-2.531s-29.419.369-29.439,1.475c0,.017.031.035.038.053-.063,1.042-2.583,45.365,22.561,60.522a1.5,1.5,0,0,0-.253.767l-.005.326a1.543,1.543,0,0,0,1.51,1.566l8.848.158a1.543,1.543,0,0,0,1.566-1.511l.005-.326a1.488,1.488,0,0,0-.224-.775C323.078,117.778,322.138,73.356,322.114,72.354Z" transform="translate(-251.026 -69.704)" fill="#fda630"/>
          <g id="Grupo_10000" data-name="Grupo 10000" transform="translate(53.835 9.863)">
            <path id="Trazado_19208" data-name="Trazado 19208" d="M316.267,122.455l1.164-3.279a23.739,23.739,0,0,0,1.387-8.4c-.015-.816-.077-1.678-.2-2.794l-.078-.7.34-.6a23.844,23.844,0,0,0,2.791-8.079l.124-.459,4.757-12.151,4.507-2.55a8.4,8.4,0,0,1,9.208.446c3.206,2.218,5.141,6.39,5.05,10.886-.211,10.5-6.663,23.823-24.153,26.8-.616.105-1.192.21-1.755.312Zm6.019-14.283c.093.941.141,1.736.155,2.512a27.938,27.938,0,0,1-.7,6.714c14.418-2.953,19.772-13.98,19.948-22.7a8.755,8.755,0,0,0-3.357-7.413A5.147,5.147,0,0,0,332.7,87l-3.343,1.89L325.2,99.5A28.109,28.109,0,0,1,322.286,108.172Z" transform="translate(-316.267 -82.273)" fill="#ffc630"/>
          </g>
          <path id="Trazado_19209" data-name="Trazado 19209" d="M329.86,72.367c.006-.017.038-.033.038-.049.02-1.106-13.128-2.24-29.366-2.532q-.634-.012-1.261-.02c.879,2.951,1.686,5.919,2.5,8.848a129.233,129.233,0,0,1,4.122,24.361,254.707,254.707,0,0,1,.77,28.16C330.782,116,329.884,73.349,329.86,72.367Z" transform="translate(-258.773 -69.717)" fill="#ffc630"/>
        </g>
        <path id="Trazado_19210" data-name="Trazado 19210" d="M319.98,79.2l14.724-1.76-14.481-3.051-1.759-14.724-3.051,14.481-14.724,1.76L315.17,78.96l1.76,14.724Z" transform="translate(-259.078 -59.668)" fill="#fff"/>
      </g>
      <rect id="Rect치ngulo_2151" data-name="Rect치ngulo 2151" width="29.288" height="4.616" rx="1.78" transform="translate(25.265 101.801) rotate(1.029)" fill="#ffc630"/>
      <rect id="Rect치ngulo_2152" data-name="Rect치ngulo 2152" width="39.27" height="6.189" rx="2.252" transform="translate(20.226 104.464) rotate(1.029)" fill="#f4872e"/>
    </g>
    <g id="Grupo_10015" data-name="Grupo 10015" transform="translate(198.502 163.611)">
      <g id="Grupo_10011" data-name="Grupo 10011">
        <g id="Grupo_10005" data-name="Grupo 10005" transform="translate(20.209 0.934)">
          <path id="Trazado_19211" data-name="Trazado 19211" d="M276.34,200.27q1.449.771,2.965,1.442l-.2.043-9.253,19.592,3.768,5.464-8.224,1.061s-3.431-4.157-2.842-6.371,13.656-20.934,13.656-20.934Z" transform="translate(-262.488 -194.814)" fill="#f7a57a"/>
          <path id="Trazado_19212" data-name="Trazado 19212" d="M298.391,256.094c-7.034-1.151-20.275-4.3-21.938-4.519-5.015-4.923-11.824-18.3-11.824-18.3l9.455.64L290.428,250.4a105.264,105.264,0,0,1,9.087,5.921C299.142,256.243,298.77,256.156,298.391,256.094Z" transform="translate(-262.949 -201.919)" fill="#a4d1bc"/>
          <g id="Grupo_10004" data-name="Grupo 10004" transform="translate(12.477)">
            <path id="Trazado_19213" data-name="Trazado 19213" d="M278.953,199.586l-.557-4.44a1.127,1.127,0,0,1,.427-1.019l.735-.572a1.127,1.127,0,0,1,.827-.23l4.38.527a1.126,1.126,0,0,1,.985.993l.062.547a1.132,1.132,0,0,1-.225.811l-3.379,4.41Z" transform="translate(-278.388 -193.317)" fill="#f7a57a"/>
            <path id="Trazado_19214" data-name="Trazado 19214" d="M282.611,201.172l3.121-2.431a1.079,1.079,0,0,0,.016-1.69l-1.337-1.081c-.355-.288-2.659.625-2.659.625s.189,1.81,2.211.756c.054.31.512.7.512.7a4.846,4.846,0,0,0-4.212,2.383Z" transform="translate(-278.792 -193.876)" fill="#f7a57a"/>
          </g>
        </g>
        <g id="Grupo_10007" data-name="Grupo 10007" transform="translate(40.893)">
          <path id="Trazado_19215" data-name="Trazado 19215" d="M316.979,199.08q-1.449.772-2.965,1.442l.2.043,9.253,19.592-3.767,5.465,8.223,1.061s3.431-4.157,2.843-6.371-13.657-20.935-13.657-20.935Z" transform="translate(-294.264 -193.624)" fill="#f7a57a"/>
          <path id="Trazado_19216" data-name="Trazado 19216" d="M289.97,254.9c7.034-1.15,20.276-4.3,21.938-4.518,5.015-4.924,11.824-18.3,11.824-18.3l-9.454.64-16.346,16.486a105.158,105.158,0,0,0-9.087,5.922C289.219,255.053,289.591,254.967,289.97,254.9Z" transform="translate(-288.846 -200.729)" fill="#a4d1bc"/>
          <g id="Grupo_10006" data-name="Grupo 10006" transform="translate(16.658)">
            <path id="Trazado_19217" data-name="Trazado 19217" d="M316.94,198.4l.557-4.441a1.129,1.129,0,0,0-.427-1.019l-.735-.573a1.129,1.129,0,0,0-.828-.23l-4.38.527a1.128,1.128,0,0,0-.986.993l-.061.547a1.132,1.132,0,0,0,.225.811l3.379,4.41Z" transform="translate(-310.074 -192.127)" fill="#f7a57a"/>
            <path id="Trazado_19218" data-name="Trazado 19218" d="M313.706,199.983l-3.121-2.431a1.08,1.08,0,0,1-.016-1.691l1.337-1.081c.355-.287,2.659.626,2.659.626s-.189,1.81-2.211.755c-.053.31-.512.7-.512.7a4.848,4.848,0,0,1,4.213,2.383Z" transform="translate(-310.095 -192.686)" fill="#f7a57a"/>
          </g>
        </g>
        <g id="Grupo_10010" data-name="Grupo 10010" transform="translate(0 141.494)">
          <path id="Trazado_19219" data-name="Trazado 19219" d="M241.139,374.927l3.218,8.516c.268,1.19.314,2.616-.916,3.321a10.8,10.8,0,0,1-1.687.775c-.586-.124-4.3-11.624-4.3-11.624l.035-.069A3.058,3.058,0,0,1,241.139,374.927Z" transform="translate(-236.89 -372.918)" fill="#122043"/>
          <path id="Trazado_19220" data-name="Trazado 19220" d="M241.6,387.882l-4.3-11.624-.565.327,4.331,11.516Z" transform="translate(-236.735 -373.26)" fill="#122043"/>
          <g id="Grupo_10008" data-name="Grupo 10008" transform="translate(4.049 5.377)">
            <path id="Trazado_19221" data-name="Trazado 19221" d="M243.377,379.291l.281.77-1.484.285-.28-.744Z" transform="translate(-241.895 -379.291)" fill="#fff"/>
          </g>
          <g id="Grupo_10009" data-name="Grupo 10009" transform="translate(4.668 7.023)">
            <path id="Trazado_19222" data-name="Trazado 19222" d="M244.165,381.387l.282.77-1.484.285-.28-.744Z" transform="translate(-242.683 -381.387)" fill="#fff"/>
          </g>
          <path id="Trazado_19223" data-name="Trazado 19223" d="M245.7,372.438l-3.569,2.01h0a2.29,2.29,0,0,0,.787,2.312l.124.1,3.94-1.013Z" transform="translate(-237.884 -372.438)" fill="#f7a57a"/>
        </g>
        <path id="Trazado_19224" data-name="Trazado 19224" d="M275.193,303.966a20.484,20.484,0,0,0-4.452,10.521c-.607,4.464,1.064,11.539,1.247,17.09.167,5.077-2.123,9.111-6.148,12.211L246.7,357.7l1.282,3.409s26.2-3.93,33.08-15.665,8.51-38.3,8.51-38.3Z" transform="translate(-238.88 -216.204)" fill="#005558"/>
        <path id="Trazado_19225" data-name="Trazado 19225" d="M291.8,305.955s-3.035,3.656-1.214,12.154c1.162,5.424,6.267,12.249,9.7,16.951,2.458,3.371,2.51,7.61,1.771,11.717-2.808,15.606,1.685,34.66,1.685,34.66h3.642s5.462-27.921,7.081-47.546a56.623,56.623,0,0,0-6.272-30.956Z" transform="translate(-248.203 -215.981)" fill="#0f787a"/>
        <path id="Trazado_19226" data-name="Trazado 19226" d="M281.209,269.494a52,52,0,0,0,.17-6.545,21.074,21.074,0,0,0-3.174-10.374,12.092,12.092,0,0,1,2.116-2.117,72.841,72.841,0,0,1,12.335-4.931,25.057,25.057,0,0,0,5.377,6.381,22.85,22.85,0,0,0,10.046,4.772c-.043,1.2-.126,2.571-.273,4.155-1.011,10.867-1.35,31.361-1.35,31.361a38.8,38.8,0,0,1-12.948,4.856c-7.823,1.484-12.65,1.962-13.661-2.287C281.761,285.022,281.36,272.749,281.209,269.494Z" transform="translate(-245.663 -203.623)" fill="#a4d1bc"/>
        <path id="Trazado_19227" data-name="Trazado 19227" d="M295.365,217.171l4.833,4.773a8.38,8.38,0,0,1,2.291,7.78l-.566,2.548Z" transform="translate(-249.357 -197.518)" fill="#f7a57a"/>
        <path id="Trazado_19228" data-name="Trazado 19228" d="M285.77,214.87c-11.735,0-6.744,22.527-6.744,22.527s2.09,14.612,6.744,20.479c4.027,5.079,12,3.552,15.772,1.113a14.416,14.416,0,0,1,6.093-2.248c3.2-.385,7-1.8,7-7.565,0-5.429-6.482-9.628-10.748-12.628a14.064,14.064,0,0,1-5.529-8.176C296.993,222.813,293.662,214.87,285.77,214.87Z" transform="translate(-245.612 -197.023)" fill="#122043"/>
      </g>
      <g id="Grupo_10014" data-name="Grupo 10014" transform="translate(55.231 165.454)">
        <path id="Trazado_19229" data-name="Trazado 19229" d="M308.079,408.466l9.7-.016c1.288.18,2.728.669,2.969,2.16a11.5,11.5,0,0,1,.141,1.974c-.344.538-13.209-.072-13.209-.072l-.056-.061A3.259,3.259,0,0,1,308.079,408.466Z" transform="translate(-307.119 -404.151)" fill="#002b49"/>
        <path id="Trazado_19230" data-name="Trazado 19230" d="M321.045,413.7l-13.209-.072.115.687h13.113Z" transform="translate(-307.273 -405.266)" fill="#002f4c"/>
        <g id="Grupo_10012" data-name="Grupo 10012" transform="translate(4.555 4.299)">
          <path id="Trazado_19231" data-name="Trazado 19231" d="M313.169,408.45l.874.008-.272,1.588h-.847Z" transform="translate(-312.923 -408.45)" fill="#fff"/>
        </g>
        <g id="Grupo_10013" data-name="Grupo 10013" transform="translate(6.428 4.299)">
          <path id="Trazado_19232" data-name="Trazado 19232" d="M315.556,408.45l.874.008-.272,1.588h-.847Z" transform="translate(-315.31 -408.45)" fill="#fff"/>
        </g>
        <path id="Trazado_19233" data-name="Trazado 19233" d="M307.493,402.972l.666,4.314h0a2.44,2.44,0,0,0,2.6.082l.148-.086.468-4.31Z" transform="translate(-307.199 -402.972)" fill="#f7a57a"/>
      </g>
    </g>
    <g id="Grupo_10021" data-name="Grupo 10021" transform="translate(361.421 169.212)">
      <path id="Trazado_19234" data-name="Trazado 19234" d="M466.506,286.521l.589,1.185a4.862,4.862,0,0,1,.08,4.154h0a1.34,1.34,0,0,1-1.207.791s-6.233,1.767-5.779.064,2.58-2.47,2.58-2.47l-.868-2.955Z" transform="translate(-447.754 -218.049)" fill="#f7a57a"/>
      <path id="Trazado_19235" data-name="Trazado 19235" d="M449.462,247.811a68.042,68.042,0,0,0,5.808,7.166c.774.84,1.635,1.8,2.574,2.693l-1.478,1.4,6.746,19.117-4.6.77s-10.809-14.79-13.817-20.99C443.521,255.557,446,251.666,449.462,247.811Z" transform="translate(-444.359 -209.715)" fill="#0f787a"/>
      <g id="Grupo_10017" data-name="Grupo 10017" transform="translate(20.703)">
        <path id="Trazado_19236" data-name="Trazado 19236" d="M477.345,221.134l-1.442,6.282,6.784,1.122-.133-10.034Z" transform="translate(-471.845 -203.406)" fill="#f18c72"/>
        <g id="Grupo_10016" data-name="Grupo 10016" transform="translate(0.881 4.618)">
          <path id="Trazado_19237" data-name="Trazado 19237" d="M474.233,219.16a3.45,3.45,0,0,1-1.854-.692c-1.869-3.608,1.853-12.238,1.853-12.238l3.843-1.081,4.278,3.473-.487,6.035a4.906,4.906,0,0,1-2.589,3.88h0A9.576,9.576,0,0,1,474.233,219.16Z" transform="translate(-471.855 -205.149)" fill="#f7a57a"/>
        </g>
        <path id="Trazado_19238" data-name="Trazado 19238" d="M480.955,210.665c-.129-1.04.295-3.349-.753-3.31-.764.029-3.343-.186-4.207-.293-2.058-.257-5.626-1.522-5.234-4.653a4.069,4.069,0,0,1,5.875-2.673c2.167,1.075,4.954,3.2,6.183,3.108,2.067-.154,3.931,1.28,3.688,2.99a17.271,17.271,0,0,1-2.677,6.1,18.013,18.013,0,0,1-2.391,2.432h0Z" transform="translate(-470.732 -199.264)" fill="#122043"/>
        <path id="Trazado_19239" data-name="Trazado 19239" d="M485.667,214.313a1.56,1.56,0,0,0-1.938-.068c-.663.425-.87,1.143-.461,1.606a1.56,1.56,0,0,0,1.938.068C485.869,215.494,486.075,214.775,485.667,214.313Z" transform="translate(-473.386 -202.425)" fill="#f7a57a"/>
      </g>
      <path id="Trazado_19240" data-name="Trazado 19240" d="M476.5,229.358c-13.157,0-13.046,19.645-13.046,19.645l.347,27.218h26.773l.475-28.926S489.662,229.358,476.5,229.358Z" transform="translate(-448.463 -205.743)" fill="#0f787a"/>
      <path id="Trazado_19241" data-name="Trazado 19241" d="M495.5,243.939s15.7-1.361,19.2-8.167-26.177-23.594-26.177-23.594l-2.726,3.36s8.681,12.52,16.07,15.373c-7-2.364-15.4-4.178-15.4-4.178l3.306,14.289Z" transform="translate(-453.271 -202.044)" fill="#0f787a"/>
      <path id="Trazado_19242" data-name="Trazado 19242" d="M485.4,210.756a9.642,9.642,0,0,0-6.795-4.018,35.982,35.982,0,0,1-6.657-1.132.492.492,0,0,0-.65.555c.535,3.1,1.706,3.483,7.508,5.608,3.438,1.421,4.108,2.979,4.108,2.979Z" transform="translate(-450.148 -200.623)" fill="#f18c72"/>
      <g id="Grupo_10018" data-name="Grupo 10018" transform="translate(1.045 159.341)">
        <path id="Trazado_19243" data-name="Trazado 19243" d="M456.089,406.8s-2.408,2.233-7.9,3.632c-1.208.308-2.512-.1-2.512,1.89h6.661l5.541-.958v.958h2.992s.833-4.894-.914-5.522Z" transform="translate(-445.681 -403.283)" fill="#122043"/>
        <path id="Trazado_19244" data-name="Trazado 19244" d="M459.534,402.319l-.589,3.515h0a3.385,3.385,0,0,0,3.666.123l.206-.123-.3-3.515Z" transform="translate(-448.536 -402.319)" fill="#f7a57a"/>
      </g>
      <path id="Trazado_19245" data-name="Trazado 19245" d="M462.737,289.077l-4.243,90.03h5.021s7.911-27.9,7.864-40.7a13.662,13.662,0,0,1,.483-3.764c4.488-15.945,8.728-45.569,8.728-45.569Z" transform="translate(-447.394 -218.599)" fill="#122043"/>
      <g id="Grupo_10019" data-name="Grupo 10019" transform="translate(23.848 159.341)">
        <path id="Trazado_19246" data-name="Trazado 19246" d="M485.148,406.8s-2.407,2.233-7.9,3.632c-1.208.308-2.511-.1-2.511,1.89H481.4l5.541-.958v.958h2.992s.833-4.894-.915-5.522Z" transform="translate(-474.74 -403.283)" fill="#122043"/>
        <path id="Trazado_19247" data-name="Trazado 19247" d="M488.592,402.319,488,405.834h0a3.385,3.385,0,0,0,3.666.123l.2-.123-.3-3.515Z" transform="translate(-477.595 -402.319)" fill="#f7a57a"/>
      </g>
      <path id="Trazado_19248" data-name="Trazado 19248" d="M492.264,289.077s2.425,24.7-1.365,41.2a17.97,17.97,0,0,0-.419,5.692c2.34,25.116-1.461,43.14-1.461,43.14h-4.472l-13.259-90.03Z" transform="translate(-450.148 -218.599)" fill="#002f4c"/>
      <path id="Trazado_19249" data-name="Trazado 19249" d="M484.06,229.951l-1.409-2.822h-6.532l-1.5,2.477Z" transform="translate(-450.866 -205.263)" fill="#53b6b9"/>
      <path id="Trazado_19250" data-name="Trazado 19250" d="M468.1,230.286c-8.175,0-26.431,17.709-23.423,23.909s13.817,20.99,13.817,20.99l4.6-.77L456.355,255.3l12.5-11.848S476.279,230.286,468.1,230.286Z" transform="translate(-444.349 -205.943)" fill="#0f787a"/>
      <g id="Grupo_10020" data-name="Grupo 10020" transform="translate(14.705 34.282)">
        <path id="Trazado_19251" data-name="Trazado 19251" d="M464,277.35a4.087,4.087,0,0,0-.538-1.523c-.024-.046-.042-.095-.068-.14l-.3-23.757a34.992,34.992,0,0,1,1.3-8.98c.147.227.29.454.444.676a35.865,35.865,0,0,0-1.165,8.3Z" transform="translate(-463.088 -242.951)" fill="#53b6b9"/>
      </g>
    </g>
    <g id="Grupo_10032" data-name="Grupo 10032" transform="translate(292.642 170.424)">
      <g id="Grupo_10022" data-name="Grupo 10022" transform="translate(12.408 157.116)">
        <path id="Trazado_19252" data-name="Trazado 19252" d="M384.568,406.217s-2.789,2.586-9.147,4.206c-1.4.356-2.91-.12-2.91,2.189h7.717l6.417-1.11v1.11h3.466s.964-5.668-1.059-6.4Z" transform="translate(-372.512 -402.145)" fill="#122043"/>
        <path id="Trazado_19253" data-name="Trazado 19253" d="M388.558,401.028l-.682,4.072h0a3.92,3.92,0,0,0,4.246.142l.239-.142-.345-4.072Z" transform="translate(-375.82 -401.028)" fill="#f7a57a"/>
      </g>
      <g id="Grupo_10023" data-name="Grupo 10023" transform="translate(37.994 157.116)">
        <path id="Trazado_19254" data-name="Trazado 19254" d="M417.174,406.217s-2.789,2.586-9.147,4.206c-1.4.356-2.909-.12-2.909,2.189h7.716l6.417-1.11v1.11h3.466s.964-5.668-1.059-6.4Z" transform="translate(-405.118 -402.145)" fill="#122043"/>
        <path id="Trazado_19255" data-name="Trazado 19255" d="M421.163,401.028l-.682,4.072h0a3.92,3.92,0,0,0,4.246.142l.239-.142-.345-4.072Z" transform="translate(-408.425 -401.028)" fill="#f7a57a"/>
      </g>
      <g id="Grupo_10024" data-name="Grupo 10024" transform="translate(15.052 70.717)">
        <path id="Trazado_19256" data-name="Trazado 19256" d="M380,293s-3.47,32.407-4.085,37.26,8.675,49.67,8.675,49.67l5.943.173s1.569-26.152,1.293-41.046c-.1-5.255,2.243-11.136,5.267-15.588,12.687-18.676,11.572-31.335,11.572-31.335Z" transform="translate(-375.882 -291.186)" fill="#122043"/>
        <path id="Trazado_19257" data-name="Trazado 19257" d="M386.84,293.257s1.711,22.322,4.877,34.309c1.331,5.039,21.219,51.718,21.219,51.718l5.345-.1s-.8-22.884-6.571-38.357c-2.036-5.459-1.409-8.256-1.067-12.832a297.522,297.522,0,0,0,.377-37.069Z" transform="translate(-378.241 -290.926)" fill="#002f4c"/>
      </g>
      <g id="Grupo_10031" data-name="Grupo 10031" transform="translate(0)">
        <g id="Grupo_10025" data-name="Grupo 10025" transform="translate(8.196 2.368)">
          <path id="Trazado_19258" data-name="Trazado 19258" d="M367.145,209.257l1.453-4.424a1.175,1.175,0,0,1,.855-.767l.946-.211a1.173,1.173,0,0,1,.88.152l3.884,2.445a1.172,1.172,0,0,1,.485,1.372l-.186.541a1.17,1.17,0,0,1-.573.663l-5.141,2.644Z" transform="translate(-367.145 -203.826)" fill="#f7a57a"/>
          <path id="Trazado_19259" data-name="Trazado 19259" d="M369.947,212.539l4.017-.9a1.123,1.123,0,0,0,.767-1.583l-.776-1.613c-.206-.428-2.779-.6-2.779-.6s-.628,1.787,1.742,1.7a1.773,1.773,0,0,0,.171.883,5.042,5.042,0,0,0-5.023.366Z" transform="translate(-367.343 -204.693)" fill="#f18c72"/>
        </g>
        <path id="Trazado_19260" data-name="Trazado 19260" d="M364.547,209.911s-11.263,13.128-6.8,21.443,18.639,21.966,18.639,21.966l7.145-18.128s-10.2.605-16.467-6.306,1.392-15.862,1.392-15.862Z" transform="translate(-356.701 -202.768)" fill="url(#linear-gradient-5)"/>
        <g id="Grupo_10026" data-name="Grupo 10026" transform="translate(34.548)">
          <path id="Trazado_19261" data-name="Trazado 19261" d="M409.451,205.814l-1.945-4.23a1.172,1.172,0,0,0-.937-.665l-.964-.1a1.177,1.177,0,0,0-.857.251l-3.581,2.87a1.173,1.173,0,0,0-.326,1.42l.246.516a1.172,1.172,0,0,0,.645.593l5.408,2.043Z" transform="translate(-400.727 -200.809)" fill="#f7a57a"/>
          <path id="Trazado_19262" data-name="Trazado 19262" d="M407.5,209.383l-4.093-.436a1.123,1.123,0,0,1-.942-1.485l.588-1.689c.156-.45,2.693-.907,2.693-.907s.826,1.7-1.539,1.881a1.775,1.775,0,0,1-.069.9,5.042,5.042,0,0,1,5.032-.206Z" transform="translate(-401.087 -201.682)" fill="#f7a57a"/>
        </g>
        <path id="Trazado_19263" data-name="Trazado 19263" d="M387.052,231.168c-9.5,5.985-6.091,44.191-6.091,44.191l28.665-2.762-2.461-28.264s13.372-15.559,16.112-27.1-17.672-11.455-17.672-11.455l-3.3,4.106s13.675,1.14,9.82,7.1-16.441,14.224-16.441,14.224Z" transform="translate(-361.795 -201.879)" fill="url(#linear-gradient-6)"/>
        <g id="Grupo_10027" data-name="Grupo 10027" transform="translate(18.24 32.182)">
          <path id="Trazado_19264" data-name="Trazado 19264" d="M381.133,282.518c-.321-4.125-2.078-29.894,3.2-40.011-.112-.227-.219-.457-.323-.687-5.9,10.477-3.713,38.217-3.465,41.126C380.738,282.8,380.937,282.661,381.133,282.518Z" transform="translate(-379.945 -241.82)" fill="#2c9796"/>
        </g>
        <g id="Grupo_10030" data-name="Grupo 10030" transform="translate(19.588 6.653)">
          <g id="Grupo_10028" data-name="Grupo 10028" transform="translate(4.085 16.846)">
            <path id="Trazado_19265" data-name="Trazado 19265" d="M394.733,236.111l-1.129-5.357-6.137.545-.6,6.322a1.2,1.2,0,0,0,.123.129A17.429,17.429,0,0,1,394.733,236.111Z" transform="translate(-386.868 -230.755)" fill="#f18c72"/>
          </g>
          <g id="Grupo_10029" data-name="Grupo 10029">
            <path id="Trazado_19266" data-name="Trazado 19266" d="M396.291,217.387l-1.8,8.345c-.832-.17-1.47.649-1.437,1.462a1.59,1.59,0,0,0-.242.6,9.778,9.778,0,0,1-7.782.527c-5.16-1.885-.273-11.657-.273-11.657Z" transform="translate(-381.879 -210.875)" fill="#f7a57a"/>
            <path id="Trazado_19267" data-name="Trazado 19267" d="M397.557,220.443a5.617,5.617,0,0,0-.481-7.366c-1.827-1.977-4.325-3.72-6.517-3.777-3.864-.1-5.4.362-7.63,2.09-3.394,2.63,1.11,4.876,1.11,4.876a10.42,10.42,0,0,0,7.263.844,1.365,1.365,0,0,1,1.526.648c.763,1.5-.367,8.522-.367,8.522A24.161,24.161,0,0,0,397.557,220.443Z" transform="translate(-381.663 -209.287)" fill="#122043"/>
            <path id="Trazado_19268" data-name="Trazado 19268" d="M397.252,225.864a1.309,1.309,0,1,1-.432-1.8A1.309,1.309,0,0,1,397.252,225.864Z" transform="translate(-384.496 -212.427)" fill="#f7a57a"/>
          </g>
        </g>
        <path id="Trazado_19269" data-name="Trazado 19269" d="M387.031,236.075l-.192,2.9,9.513-1.675-1.913-3.207Z" transform="translate(-363.189 -207.974)" fill="url(#linear-gradient-7)"/>
      </g>
    </g>
    <g id="Grupo_10038" data-name="Grupo 10038" transform="translate(89.924 174.765)">
      <g id="Grupo_10033" data-name="Grupo 10033" transform="translate(28.985 151.687)">
        <path id="Trazado_19270" data-name="Trazado 19270" d="M140.786,404.567s2.647,2.455,8.682,3.992c1.329.339,2.761-.114,2.761,2.078H144.9l-6.091-1.053v1.053h-3.29s-.917-5.38,1.005-6.07Z" transform="translate(-135.306 -400.702)" fill="#122043"/>
        <path id="Trazado_19271" data-name="Trazado 19271" d="M140.475,399.642l.647,3.865h0a3.723,3.723,0,0,1-4.03.135l-.226-.135.328-3.865Z" transform="translate(-135.641 -399.642)" fill="#f7a57a"/>
      </g>
      <g id="Grupo_10034" data-name="Grupo 10034" transform="translate(0 151.687)">
        <path id="Trazado_19272" data-name="Trazado 19272" d="M103.849,404.567s2.647,2.455,8.681,3.992c1.329.339,2.761-.114,2.761,2.078h-7.324l-6.091-1.053v1.053h-3.29s-.917-5.38,1.005-6.07Z" transform="translate(-98.369 -400.702)" fill="#122043"/>
        <path id="Trazado_19273" data-name="Trazado 19273" d="M103.537,399.642l.647,3.865h0a3.723,3.723,0,0,1-4.03.135l-.226-.135.327-3.865Z" transform="translate(-98.704 -399.642)" fill="#f7a57a"/>
      </g>
      <g id="Grupo_10037" data-name="Grupo 10037" transform="translate(0.573)">
        <path id="Trazado_19274" data-name="Trazado 19274" d="M134.43,211.854a1.1,1.1,0,0,1-.133-1.008l1.362-3.775a1.1,1.1,0,0,1,1.644-.549l5.849,3.829a1.1,1.1,0,0,1,.5.924v5.742s2.931,15.528,1.55,21.628-5.771,1.394-6.967.355c2.575-7.721,1.3-19.847,1.3-19.847Z" transform="translate(-106.662 -206.341)" fill="#f7a57a"/>
        <path id="Trazado_19275" data-name="Trazado 19275" d="M146.855,251.209s9.54-3.038,12.53-7.123-2.07-26.442-2.07-26.442l.654-4.023a3.745,3.745,0,0,0-3.664-4.346l-2.549-.022a1.458,1.458,0,0,0-1.345,2.05l3.352,7.542s2.516,16.933-1.008,18.219a39.708,39.708,0,0,1-8.959,1.857Z" transform="translate(-108.721 -206.968)" fill="#f7a57a"/>
        <path id="Trazado_19276" data-name="Trazado 19276" d="M109.61,302.956a179.469,179.469,0,0,0,3.016,24.182,21.618,21.618,0,0,1-.745,11.121C106.185,355.182,99.1,380.63,99.1,380.63h5.3s17-30.075,21.143-44.994,4.858-19.655,4.858-19.655l-4.935-13.025Z" transform="translate(-99.099 -227.14)" fill="#122043"/>
        <g id="Grupo_10036" data-name="Grupo 10036" transform="translate(10.005 9.798)">
          <g id="Grupo_10035" data-name="Grupo 10035" transform="translate(0.934 3.017)">
            <path id="Trazado_19277" data-name="Trazado 19277" d="M122.6,222.672l-9.558,6.232,2.951,7.553c.042.107.1.206.144.309.21-.013.42-.025.632-.025.035,0,.069,0,.1,0s.066,0,.1,0a7.374,7.374,0,0,1,6.093,3.692,12.689,12.689,0,0,0,4.511-1.171,4.666,4.666,0,0,0,2.125-1.609C130.721,232.3,122.6,222.672,122.6,222.672Z" transform="translate(-113.039 -222.672)" fill="#f7a57a"/>
          </g>
          <path id="Trazado_19278" data-name="Trazado 19278" d="M122.3,244.99l-.835,5.215h7.389l.531-6.391Z" transform="translate(-113.919 -224.206)" fill="#f18c72"/>
          <path id="Trazado_19279" data-name="Trazado 19279" d="M122.917,239.61l-2.245-4.979,1.459-.916a2.744,2.744,0,0,0,1.138-3.209l-1.6-4.693s4.548-.557,4.411-4.794c0-2.181-3-2.193-3-2.193a4.365,4.365,0,0,1-3.683,2.182c-1.2-.151-4.478.29-6.693,4.155-1.489,2.6-.837,6.672.461,9.728,1.161,2.738,4.128,4.267,7.068,4.719Z" transform="translate(-111.848 -218.827)" fill="#122043"/>
          <path id="Trazado_19280" data-name="Trazado 19280" d="M121.535,235.8a2.114,2.114,0,0,0,1.208,2.319c.935.5,1.909.263,2.177-.522a2.113,2.113,0,0,0-1.208-2.319C122.778,234.78,121.8,235.013,121.535,235.8Z" transform="translate(-113.919 -222.312)" fill="#f7a57a"/>
        </g>
        <path id="Trazado_19281" data-name="Trazado 19281" d="M135.656,290.824H112.493V261.106a12.61,12.61,0,0,1,11.437-12.555l16.109-1.949s1.894,2.9,7.172,9.636a54.4,54.4,0,0,1-13.685,5.725Z" transform="translate(-101.982 -215.009)" fill="#53b6b9"/>
        <path id="Trazado_19282" data-name="Trazado 19282" d="M112.493,302.956s3.272,11.841,15.343,25.112a15.523,15.523,0,0,1,4.505,12.067l-1.59,40.495h5.406s9.683-33.627,7.788-50.2-8.288-27.47-8.288-27.47Z" transform="translate(-101.982 -227.14)" fill="#002f4c"/>
      </g>
    </g>
    <g id="Grupo_10045" data-name="Grupo 10045" transform="translate(158.594 161.74)">
      <g id="Grupo_10040" data-name="Grupo 10040" transform="translate(11.92)">
        <path id="Trazado_19283" data-name="Trazado 19283" d="M211.753,201.133l.379,27-7.328-1.951,4.136-26.321Z" transform="translate(-201.872 -191.921)" fill="#f18c72"/>
        <g id="Grupo_10039" data-name="Grupo 10039" transform="translate(5.767)">
          <path id="Trazado_19284" data-name="Trazado 19284" d="M208.6,192.314a3.923,3.923,0,0,0,.176,2.8l.953,3.539.67.34,2.149.775c-.336-.677-.135.054-.135.054l.779-5.457s2.3-3.207-2.757-4.573a1.2,1.2,0,0,0-1.311.428A3.078,3.078,0,0,0,208.6,192.314Z" transform="translate(-208.417 -189.743)" fill="#f18c72"/>
        </g>
        <path id="Trazado_19285" data-name="Trazado 19285" d="M207.252,256.137a158.593,158.593,0,0,0,4.076-21.235l-7.07-3.6-3.19,9.328Z" transform="translate(-201.068 -198.69)" fill="#005558"/>
      </g>
      <path id="Trazado_19286" data-name="Trazado 19286" d="M190.492,386.809l3.073.534c.636-3.811,10.193-21.883,10.97-31.269a211.883,211.883,0,0,1,3.284-22.021L197.539,331s-2.6,0,.255,21.237C191.367,360.67,189.644,379.817,190.492,386.809Z" transform="translate(-186.828 -220.152)" fill="#f18c72"/>
      <path id="Trazado_19287" data-name="Trazado 19287" d="M200.193,321.153s2.415,14.527,5.774,30.064c-3.508,9.382,1.838,35.563,1.937,35.47.4-.379,2.25,1.9,2.25,1.9s3.9-23.105,4.76-33.525,1.077-23.124,1.077-23.124Z" transform="translate(-188.96 -218.033)" fill="#f7a57a"/>
      <path id="Trazado_19288" data-name="Trazado 19288" d="M209.125,402.8a3.428,3.428,0,0,0-1.194,2.823c.268,1.582.647,5.287.647,5.287h1.505l-.046-3.455c0-.226,3.227,3.455,3.772,3.455h7.962s.529-2.331-4.146-3.08S209.125,402.8,209.125,402.8Z" transform="translate(-190.618 -235.61)" fill="#002f4c"/>
      <g id="Grupo_10041" data-name="Grupo 10041" transform="translate(0 163.308)">
        <path id="Trazado_19289" data-name="Trazado 19289" d="M193.971,399.1l-.213,3.3a3.081,3.081,0,0,0,.543,1.951,12.377,12.377,0,0,0,2.394,2.489c-2.309.742-4.407-1.847-5.508-3.567a4.105,4.105,0,0,1-.6-2.826l.388-2.594Z" transform="translate(-186.883 -397.852)" fill="#f18c72"/>
        <path id="Trazado_19290" data-name="Trazado 19290" d="M189.542,401.756s-2.031.182-2.368,1.726-1.3,4.669-1.3,4.669l1.107.883,1.562-3.1s3.358,4.526,3.891,4.75h8.69s0-2.877-5.437-3.006C190.679,407.558,189.542,401.756,189.542,401.756Z" transform="translate(-185.878 -398.692)" fill="#122043"/>
      </g>
      <g id="Grupo_10043" data-name="Grupo 10043" transform="translate(32.047 3.145)">
        <path id="Trazado_19291" data-name="Trazado 19291" d="M242.451,205.319,232.8,230.538l-6.083-4.527L240.31,203.1Z" transform="translate(-226.717 -195.762)" fill="#f7a57a"/>
        <g id="Grupo_10042" data-name="Grupo 10042" transform="translate(13.24)">
          <path id="Trazado_19292" data-name="Trazado 19292" d="M244.888,195.682a3.921,3.921,0,0,0-.873,2.663l-.426,3.64.5.563,1.708,1.516c-.06-.754-.145,0-.145,0l2.746-4.78s3.32-2.129-.867-5.27a1.2,1.2,0,0,0-1.376-.088A3.077,3.077,0,0,0,244.888,195.682Z" transform="translate(-243.589 -193.75)" fill="#f7a57a"/>
        </g>
      </g>
      <path id="Trazado_19293" data-name="Trazado 19293" d="M210.921,243.939H204.7l2.483-7.31,4.863,2.988Z" transform="translate(-189.93 -199.836)" fill="#f18c72"/>
      <path id="Trazado_19294" data-name="Trazado 19294" d="M217.645,250.475c-.031-.184-.073-.337-.11-.507a93.979,93.979,0,0,0,8.987-13.536l-5.234-5.959-9.5,11.3-3.491.015a6.992,6.992,0,0,0-8.834,1.135c-1.5,1.551-2.507,5.76-1.5,10.209,2.771,12.265.6,18.753.6,18.753l16.047,5.983s.364-10.665.615-18.145V259.7a8.335,8.335,0,0,1,1.3-4.093A7.315,7.315,0,0,0,217.645,250.475Z" transform="translate(-188.392 -198.511)" fill="#0f787a"/>
      <g id="Grupo_10044" data-name="Grupo 10044" transform="translate(12.978 23.654)">
        <path id="Trazado_19295" data-name="Trazado 19295" d="M212.615,219.886l-10.2,3.57,1.005,7.613c.014.107.043.211.063.317.2.035.392.071.587.12.032.008.063.018.095.027s.061.011.092.019a6.983,6.983,0,0,1,4.769,4.773,12.037,12.037,0,0,0,4.414-.056,4.42,4.42,0,0,0,2.319-1C217.911,230.574,212.615,219.886,212.615,219.886Z" transform="translate(-202.416 -219.886)" fill="#f7a57a"/>
      </g>
      <path id="Trazado_19296" data-name="Trazado 19296" d="M209.112,225.675c-2.746,1.343-2.1,15.493-2.573,25.13a10.952,10.952,0,0,1-9.273,10.243c-3.636.581-7.626.687-10.033-.684,1.591-1.3,10.171-13.926,7.423-30.643-.361-2.2-.406-8.326,3.3-11.651,4.116-3.693,12.608,1.125,12.608,1.125S212.884,223.83,209.112,225.675Z" transform="translate(-186.169 -195.541)" fill="#122043"/>
      <path id="Trazado_19297" data-name="Trazado 19297" d="M213.711,282.771s2.135,10.874,2.135,17.342c0,3.554-.871,25.942-.871,25.942s-15.246,1.1-18.206,1.1c-.734-18.346-4.917-18.911-4.917-27.467,0-3.719,1.907-7.922,3.37-10.6a15.49,15.49,0,0,0,2.115-5.948l.1-.347Z" transform="translate(-187.164 -209.77)" fill="#ffc630"/>
      <path id="Trazado_19298" data-name="Trazado 19298" d="M197.182,334.946" transform="translate(-188.312 -221.002)" fill="#ffc630"/>
    </g>
  </g>
</svg>
