<svg xmlns="http://www.w3.org/2000/svg" xmlns:xlink="http://www.w3.org/1999/xlink" width="321.365" height="273.122" viewBox="0 0 321.365 273.122">
  <defs>
    <linearGradient id="linear-gradient" x1="0.242" y1="0.5" x2="1.242" y2="0.5" gradientUnits="objectBoundingBox">
      <stop offset="0" stop-color="#daece5"/>
      <stop offset="1" stop-color="#b2deeb"/>
    </linearGradient>
    <linearGradient id="linear-gradient-2" x1="-0.756" y1="0.5" x2="0.244" y2="0.5" gradientUnits="objectBoundingBox">
      <stop offset="0" stop-color="#eef7f6"/>
      <stop offset="1" stop-color="#b2deeb"/>
    </linearGradient>
    <linearGradient id="linear-gradient-3" x1="-1.178" y1="0.5" x2="-0.178" y2="0.5" xlink:href="#linear-gradient-2"/>
    <linearGradient id="linear-gradient-4" x1="0" y1="0.5" x2="1" y2="0.5" xlink:href="#linear-gradient"/>
  </defs>
  <g id="Grupo_10132" data-name="Grupo 10132" transform="translate(-70.08 -29.684)">
    <path id="Trazado_19299" data-name="Trazado 19299" d="M359.341,93.448H216.375s-7.754-9.808,0-16.407c4.279-3.642,9.33-3.266,13-2.2a4.28,4.28,0,0,0,5.3-3.351c.869-4.033,3.549-9.309,11.244-12.427,7.571-3.067,12.36,1.617,15.131,6.429a2.15,2.15,0,0,0,3.889-.4c2.4-7.6,10.764-17.669,38.245-17.669,34.953,0,31.069,18.581,27.945,26.3a1.781,1.781,0,0,0,2.02,2.428c5.391-1.152,15.4-2.646,19.887.877C359.341,81.989,359.341,93.448,359.341,93.448Z" transform="translate(-22.155 -2.753)" fill="url(#linear-gradient)"/>
    <g id="Grupo_10071" data-name="Grupo 10071" transform="translate(293.68 180.917)">
      <g id="Grupo_10058" data-name="Grupo 10058" transform="translate(38.726)">
        <g id="Grupo_10047" data-name="Grupo 10047" transform="translate(19.395)">
          <path id="Trazado_19300" data-name="Trazado 19300" d="M441.022,325.284,403.512,208.677h2.136l37.509,116.608Z" transform="translate(-403.512 -208.677)" fill="#ffc630"/>
        </g>
        <g id="Grupo_10048" data-name="Grupo 10048">
          <path id="Trazado_19301" data-name="Trazado 19301" d="M418.067,325.284,380.558,208.677h2.136L420.2,325.284Z" transform="translate(-380.558 -208.677)" fill="#ffc630"/>
        </g>
        <g id="Grupo_10049" data-name="Grupo 10049" transform="translate(10.808 30.27)">
          <path id="Trazado_19302" data-name="Trazado 19302" d="M413.79,244.515v1.738l-20.1-.011-.343-1.739Z" transform="translate(-393.35 -244.504)" fill="#ffc630"/>
        </g>
        <g id="Grupo_10050" data-name="Grupo 10050" transform="translate(6.653 18.972)">
          <path id="Trazado_19303" data-name="Trazado 19303" d="M408.873,231.142v1.739l-20.1-.011-.344-1.739Z" transform="translate(-388.432 -231.131)" fill="#ffc630"/>
        </g>
        <g id="Grupo_10051" data-name="Grupo 10051" transform="translate(3.218 7.673)">
          <path id="Trazado_19304" data-name="Trazado 19304" d="M404.807,217.77v1.739l-20.1-.011-.343-1.739Z" transform="translate(-384.367 -217.758)" fill="#ffc630"/>
        </g>
        <g id="Grupo_10052" data-name="Grupo 10052" transform="translate(14.469 41.714)">
          <path id="Trazado_19305" data-name="Trazado 19305" d="M418.123,258.059V259.8l-20.1-.011-.343-1.738Z" transform="translate(-397.682 -258.048)" fill="#ffc630"/>
        </g>
        <g id="Grupo_10053" data-name="Grupo 10053" transform="translate(17.904 53.158)">
          <path id="Trazado_19306" data-name="Trazado 19306" d="M422.189,271.6v1.739l-20.1-.011-.343-1.739Z" transform="translate(-401.748 -271.592)" fill="#ffc630"/>
        </g>
        <g id="Grupo_10054" data-name="Grupo 10054" transform="translate(22.27 65.047)">
          <path id="Trazado_19307" data-name="Trazado 19307" d="M426.544,285.675l.812,1.739-20.1-.011-.343-1.739Z" transform="translate(-406.916 -285.664)" fill="#ffc630"/>
        </g>
        <g id="Grupo_10055" data-name="Grupo 10055" transform="translate(26.038 76.937)">
          <path id="Trazado_19308" data-name="Trazado 19308" d="M431,299.747l.812,1.739-20.1-.011-.343-1.739Z" transform="translate(-411.375 -299.736)" fill="#ffc630"/>
        </g>
        <g id="Grupo_10056" data-name="Grupo 10056" transform="translate(29.566 88.562)">
          <path id="Trazado_19309" data-name="Trazado 19309" d="M435.18,313.505l.812,1.739-20.1-.011-.343-1.739Z" transform="translate(-415.551 -313.495)" fill="#ffc630"/>
        </g>
        <g id="Grupo_10057" data-name="Grupo 10057" transform="translate(32.49 100.44)">
          <path id="Trazado_19310" data-name="Trazado 19310" d="M438.64,327.564l.812,1.739-20.1-.011-.344-1.739Z" transform="translate(-419.012 -327.553)" fill="#ffc630"/>
        </g>
      </g>
      <g id="Grupo_10070" data-name="Grupo 10070" transform="translate(0)">
        <g id="Grupo_10059" data-name="Grupo 10059">
          <path id="Trazado_19311" data-name="Trazado 19311" d="M336.86,325.284l37.509-116.608h-2.136L334.724,325.284Z" transform="translate(-334.724 -208.677)" fill="#002f4c"/>
        </g>
        <g id="Grupo_10060" data-name="Grupo 10060" transform="translate(19.395)">
          <path id="Trazado_19312" data-name="Trazado 19312" d="M359.815,325.284l37.509-116.608h-2.136L357.678,325.284Z" transform="translate(-357.678 -208.677)" fill="#002f4c"/>
        </g>
        <g id="Grupo_10061" data-name="Grupo 10061" transform="translate(27.792 30.27)">
          <path id="Trazado_19313" data-name="Trazado 19313" d="M367.617,244.515v1.738l20.1-.011.343-1.739Z" transform="translate(-367.617 -244.504)" fill="#002f4c"/>
        </g>
        <g id="Grupo_10062" data-name="Grupo 10062" transform="translate(31.947 18.972)">
          <path id="Trazado_19314" data-name="Trazado 19314" d="M372.534,231.142v1.739l20.1-.011.344-1.739Z" transform="translate(-372.534 -231.131)" fill="#002f4c"/>
        </g>
        <g id="Grupo_10063" data-name="Grupo 10063" transform="translate(35.382 7.673)">
          <path id="Trazado_19315" data-name="Trazado 19315" d="M376.6,217.77v1.739l20.1-.011.343-1.739Z" transform="translate(-376.6 -217.758)" fill="#002f4c"/>
        </g>
        <g id="Grupo_10064" data-name="Grupo 10064" transform="translate(24.131 41.714)">
          <path id="Trazado_19316" data-name="Trazado 19316" d="M363.284,258.059V259.8l20.1-.011.343-1.738Z" transform="translate(-363.284 -258.048)" fill="#002f4c"/>
        </g>
        <g id="Grupo_10065" data-name="Grupo 10065" transform="translate(20.696 53.158)">
          <path id="Trazado_19317" data-name="Trazado 19317" d="M359.218,271.6v1.739l20.1-.011.343-1.739Z" transform="translate(-359.218 -271.592)" fill="#002f4c"/>
        </g>
        <g id="Grupo_10066" data-name="Grupo 10066" transform="translate(16.33 65.047)">
          <path id="Trazado_19318" data-name="Trazado 19318" d="M354.863,285.675l-.812,1.739,20.1-.011.343-1.739Z" transform="translate(-354.051 -285.664)" fill="#002f4c"/>
        </g>
        <g id="Grupo_10067" data-name="Grupo 10067" transform="translate(12.562 76.937)">
          <path id="Trazado_19319" data-name="Trazado 19319" d="M350.4,299.747l-.812,1.739,20.1-.011.344-1.739Z" transform="translate(-349.591 -299.736)" fill="#002f4c"/>
        </g>
        <g id="Grupo_10068" data-name="Grupo 10068" transform="translate(9.033 88.562)">
          <path id="Trazado_19320" data-name="Trazado 19320" d="M346.227,313.505l-.812,1.739,20.1-.011.344-1.739Z" transform="translate(-345.415 -313.495)" fill="#002f4c"/>
        </g>
        <g id="Grupo_10069" data-name="Grupo 10069" transform="translate(6.11 100.44)">
          <path id="Trazado_19321" data-name="Trazado 19321" d="M342.767,327.564l-.812,1.739,20.1-.011.343-1.739Z" transform="translate(-341.955 -327.553)" fill="#002f4c"/>
        </g>
      </g>
    </g>
    <g id="Grupo_10076" data-name="Grupo 10076" transform="translate(106.273 29.684)">
      <g id="Grupo_10072" data-name="Grupo 10072" transform="translate(48.397)">
        <path id="Trazado_19322" data-name="Trazado 19322" d="M229.172,122.74s22.05-61.25-13.489-93.056C142.6,67.022,179.521,138.793,179.521,138.793Z" transform="translate(-170.197 -29.684)" fill="#0f787a"/>
        <path id="Trazado_19323" data-name="Trazado 19323" d="M216.429,29.684c-.254.13-.5.262-.755.393l-7.129,76.371L175.56,71.8q-.285.748-.548,1.5l33.359,35.035-2.057,22.039,1.479-.478,4.1-43.932h0l24.39-13.193c-.046-.514-.095-1.028-.15-1.544L212.053,84.251,217.089,30.3c-.221-.2-.433-.412-.659-.614Z" transform="translate(-170.943 -29.684)" fill="#005558"/>
      </g>
      <g id="Grupo_10073" data-name="Grupo 10073" transform="translate(11.349 9.279)">
        <path id="Trazado_19324" data-name="Trazado 19324" d="M205.942,109.646s-21-61.424-66.054-68.98c-34.384,42.842,7.57,88.451,7.57,88.451l51.531,23.817Z" transform="translate(-126.349 -40.666)" fill="#002f4c"/>
        <path id="Trazado_19325" data-name="Trazado 19325" d="M182.783,68.087,168.821,93.261l-27.581-52.4c-.354-.066-.706-.139-1.062-.2-.135.169-.259.338-.392.507l14.772,28.062-25.994-6.288c-.066.245-.124.49-.187.734l-.158.652,27.225,6.585,24.619,46.766-45.972-9.58c.262.549.525,1.092.791,1.625l46.044,9.595,17.481,33.208.871.4.224-1.392L169.618,94.773l14.135-25.488Q183.273,68.685,182.783,68.087Z" transform="translate(-126.639 -40.666)" fill="#005558"/>
      </g>
      <g id="Grupo_10075" data-name="Grupo 10075" transform="translate(0 86.256)">
        <path id="Trazado_19326" data-name="Trazado 19326" d="M187.4,150.119s-43.98-31.649-74.485-11.808c1.636,74.292,96.25,77.457,96.25,77.457Z" transform="translate(-112.916 -131.773)" fill="#a4d1bc"/>
        <g id="Grupo_10074" data-name="Grupo 10074" transform="translate(0 0.587)">
          <path id="Trazado_19327" data-name="Trazado 19327" d="M112.916,138.42c.007.286.019.568.027.853l62.684,38.151L138.1,191.117q.649.531,1.307,1.045l37.778-13.787,24.484,14.9-.7-2.1L153.31,162.167l-7.333-29.47q-.763-.123-1.53-.229l7.127,28.642L113.6,138c-.227.141-.455.275-.681.422Z" transform="translate(-112.916 -132.468)" fill="#fff"/>
        </g>
      </g>
    </g>
    <g id="Grupo_10079" data-name="Grupo 10079" transform="translate(263.777 60.287)">
      <g id="Grupo_10077" data-name="Grupo 10077">
        <path id="Trazado_19328" data-name="Trazado 19328" d="M299.332,76.864l16.756-9.248,8.554-1.711,6.464.951Z" transform="translate(-299.332 -65.905)" fill="#fff"/>
        <path id="Trazado_19329" data-name="Trazado 19329" d="M299.332,77.038l31.376-8.066.4-1.943" transform="translate(-299.332 -66.079)" fill="#a4d1bb"/>
        <path id="Trazado_19330" data-name="Trazado 19330" d="M331.618,75.7l-.04.065-1.317,4.871-30.835-2.252Z" transform="translate(-299.346 -67.424)" fill="#53b6b9"/>
        <path id="Trazado_19331" data-name="Trazado 19331" d="M337.632,71.655l-4.477-3.633L299.573,77.14l28.909-.859Z" transform="translate(-299.369 -66.233)" fill="#fff"/>
      </g>
      <g id="Grupo_10078" data-name="Grupo 10078" transform="translate(42.531 1.55)">
        <path id="Trazado_19332" data-name="Trazado 19332" d="M427.473,145.647a23.348,23.348,0,0,1-3.019-1.31.456.456,0,0,0-.42.81,24.419,24.419,0,0,0,3.136,1.36q.578.2,1.163.379a.456.456,0,0,0,.263-.873C428.22,145.9,427.845,145.777,427.473,145.647Z" transform="translate(-361.165 -79.611)" fill="#53b6b9"/>
        <path id="Trazado_19333" data-name="Trazado 19333" d="M354.57,68.3c-1.423.183-2.9.417-4.527.716a.456.456,0,1,0,.166.9c1.607-.3,3.071-.529,4.477-.709a.469.469,0,0,0,.214-.086.456.456,0,0,0-.33-.819Z" transform="translate(-349.67 -67.826)" fill="#53b6b9"/>
        <path id="Trazado_19334" data-name="Trazado 19334" d="M363.5,68.563a.456.456,0,0,0-.267-.822c-1.463-.013-3.009.048-4.6.181a.456.456,0,0,0,.077.908c1.559-.13,3.076-.19,4.512-.177A.451.451,0,0,0,363.5,68.563Z" transform="translate(-350.995 -67.739)" fill="#53b6b9"/>
        <path id="Trazado_19335" data-name="Trazado 19335" d="M417.6,139.369a.448.448,0,0,0-.644.008.454.454,0,0,0,.008.644,25.363,25.363,0,0,0,3.6,2.922.454.454,0,0,0,.525-.012.425.425,0,0,0,.107-.112.455.455,0,0,0-.124-.632A24.673,24.673,0,0,1,417.6,139.369Z" transform="translate(-360.084 -78.828)" fill="#53b6b9"/>
        <path id="Trazado_19336" data-name="Trazado 19336" d="M414.911,136.972a.455.455,0,0,0,.063-.641c-.257-.315-.508-.635-.749-.962a23.685,23.685,0,0,1-1.752-2.738.454.454,0,0,0-.618-.183.461.461,0,0,0-.183.618,24.525,24.525,0,0,0,1.819,2.846q.376.508.778,1a.455.455,0,0,0,.623.077Z" transform="translate(-359.277 -77.766)" fill="#53b6b9"/>
        <path id="Trazado_19337" data-name="Trazado 19337" d="M410.6,129.552a.419.419,0,0,0,.1-.055.456.456,0,0,0,.15-.54,31.054,31.054,0,0,1-1.387-4.267.456.456,0,0,0-.884.222,31.727,31.727,0,0,0,1.429,4.392A.454.454,0,0,0,410.6,129.552Z" transform="translate(-358.803 -76.518)" fill="#53b6b9"/>
        <path id="Trazado_19338" data-name="Trazado 19338" d="M396.649,84.335q.569.695,1.1,1.416c.537.726,1.05,1.477,1.525,2.233a.456.456,0,0,0,.629.144l.03-.02a.456.456,0,0,0,.113-.608c-.486-.776-1.012-1.547-1.564-2.291q-.547-.74-1.132-1.452a.434.434,0,0,0-.642-.063A.456.456,0,0,0,396.649,84.335Z" transform="translate(-356.94 -70.196)" fill="#53b6b9"/>
        <path id="Trazado_19339" data-name="Trazado 19339" d="M401.361,91.441a33.27,33.27,0,0,1,1.807,4.113.455.455,0,0,0,.583.275.43.43,0,0,0,.117-.063.454.454,0,0,0,.158-.52,34.007,34.007,0,0,0-1.856-4.228.456.456,0,0,0-.809.422Z" transform="translate(-357.678 -71.311)" fill="#53b6b9"/>
        <path id="Trazado_19340" data-name="Trazado 19340" d="M390.613,78.31a37.132,37.132,0,0,1,3.3,3.06.456.456,0,0,0,.6.052c.015-.012.03-.024.044-.037a.455.455,0,0,0,.015-.644,38.35,38.35,0,0,0-3.38-3.137.457.457,0,0,0-.58.706Z" transform="translate(-355.994 -69.253)" fill="#53b6b9"/>
        <path id="Trazado_19341" data-name="Trazado 19341" d="M379.862,71.87a.456.456,0,0,0,.368-.834,35.929,35.929,0,0,0-4.33-1.594.456.456,0,0,0-.259.874A35.131,35.131,0,0,1,379.862,71.87Z" transform="translate(-353.647 -68)" fill="#53b6b9"/>
        <path id="Trazado_19342" data-name="Trazado 19342" d="M407.088,112.711a.456.456,0,0,0,.4-.5l-.064-.574c-.151-1.321-.3-2.645-.477-3.962a.456.456,0,0,0-.9.12c.174,1.312.324,2.629.474,3.945l.066.574A.455.455,0,0,0,407.088,112.711Z" transform="translate(-358.412 -73.871)" fill="#53b6b9"/>
        <path id="Trazado_19343" data-name="Trazado 19343" d="M387.353,75.93a.456.456,0,1,0,.526-.745,37.984,37.984,0,0,0-3.924-2.423.456.456,0,0,0-.431.8A36.768,36.768,0,0,1,387.353,75.93Z" transform="translate(-354.883 -68.51)" fill="#53b6b9"/>
        <path id="Trazado_19344" data-name="Trazado 19344" d="M407.46,115.852a.454.454,0,0,0-.4.509c.224,1.776.444,3.217.691,4.535a.456.456,0,0,0,.532.363.463.463,0,0,0,.188-.081.456.456,0,0,0,.177-.451c-.244-1.3-.461-2.722-.684-4.48A.455.455,0,0,0,407.46,115.852Z" transform="translate(-358.57 -75.2)" fill="#53b6b9"/>
        <path id="Trazado_19345" data-name="Trazado 19345" d="M432.468,147.089a.455.455,0,1,0-.175.894,36.762,36.762,0,0,0,4.572.591.447.447,0,0,0,.3-.089.455.455,0,0,0-.239-.82A36.333,36.333,0,0,1,432.468,147.089Z" transform="translate(-362.427 -80.044)" fill="#53b6b9"/>
        <path id="Trazado_19346" data-name="Trazado 19346" d="M404.778,98.815a.457.457,0,0,0-.322.558c.36,1.341.667,2.785.94,4.413a.456.456,0,0,0,.525.374.463.463,0,0,0,.2-.083.455.455,0,0,0,.178-.442c-.277-1.659-.591-3.13-.959-4.5A.455.455,0,0,0,404.778,98.815Z" transform="translate(-358.164 -72.556)" fill="#53b6b9"/>
        <path id="Trazado_19347" data-name="Trazado 19347" d="M368.929,68.032q-.8-.1-1.6-.155a.456.456,0,0,0-.069.91q.781.058,1.56.15c.963.115,1.937.275,2.891.477a.455.455,0,0,0,.366-.08.45.45,0,0,0,.174-.271.455.455,0,0,0-.351-.541C370.918,68.314,369.918,68.15,368.929,68.032Z" transform="translate(-352.332 -67.76)" fill="#53b6b9"/>
      </g>
    </g>
    <g id="Grupo_10086" data-name="Grupo 10086" transform="translate(70.08 84.656)">
      <g id="Grupo_10080" data-name="Grupo 10080" transform="translate(3.34)">
        <path id="Trazado_19348" data-name="Trazado 19348" d="M77.113,101.291l-3.079,6.056,6.467-1.476L102.624,98.9Z" transform="translate(-74.034 -95.391)" fill="#a4d1bb"/>
        <path id="Trazado_19349" data-name="Trazado 19349" d="M74.034,108.521l10.986-.683-2.692-1.369Z" transform="translate(-74.034 -96.565)" fill="#53b6b9"/>
        <path id="Trazado_19350" data-name="Trazado 19350" d="M77.325,100.647l-1.923-5.9,27.434,3.51Z" transform="translate(-74.246 -94.746)" fill="url(#linear-gradient-2)"/>
        <path id="Trazado_19351" data-name="Trazado 19351" d="M103.811,98.9l-22.123,6.971,3.3,8.505Z" transform="translate(-75.221 -95.391)" fill="url(#linear-gradient-3)"/>
      </g>
      <g id="Grupo_10085" data-name="Grupo 10085" transform="translate(0 15.562)">
        <g id="Grupo_10081" data-name="Grupo 10081" transform="translate(5.483)">
          <path id="Trazado_19352" data-name="Trazado 19352" d="M76.852,115.654a.5.5,0,0,1-.155-.122.516.516,0,0,1,.051-.728,14.468,14.468,0,0,1,2.175-1.567.517.517,0,0,1,.523.891,13.447,13.447,0,0,0-2.019,1.456A.517.517,0,0,1,76.852,115.654Z" transform="translate(-76.57 -113.165)" fill="#53b6b9"/>
        </g>
        <g id="Grupo_10083" data-name="Grupo 10083" transform="translate(0 3.803)">
          <g id="Grupo_10082" data-name="Grupo 10082">
            <path id="Trazado_19353" data-name="Trazado 19353" d="M83.208,173.029a.323.323,0,0,1-.03-.015,15.561,15.561,0,0,1-4.061-3.517.517.517,0,0,1,.8-.659,14.545,14.545,0,0,0,3.79,3.286.517.517,0,0,1-.5.906Zm-5.7-5.981a.512.512,0,0,1-.215-.205,19.494,19.494,0,0,1-1.98-4.966.517.517,0,0,1,1-.248,18.493,18.493,0,0,0,1.874,4.7.516.516,0,0,1-.684.716ZM75.1,159.123a.514.514,0,0,1-.282-.424l-.015-.25a24.92,24.92,0,0,1,.264-5.068.517.517,0,0,1,1.021.155,23.777,23.777,0,0,0-.253,4.857l.014.232a.518.518,0,0,1-.479.553A.511.511,0,0,1,75.1,159.123Zm.885-8.267a.517.517,0,0,1-.265-.593,38.519,38.519,0,0,1,1.724-5,.517.517,0,0,1,.953.4,37.641,37.641,0,0,0-1.678,4.866.516.516,0,0,1-.631.367A.545.545,0,0,1,75.981,150.857Zm3-7.782a.517.517,0,0,1-.23-.689c.056-.113.112-.226.169-.34a16.848,16.848,0,0,1-2.257-1.262.517.517,0,1,1,.575-.859,15.6,15.6,0,0,0,2.152,1.2c.554-1.066,1.166-2.172,1.859-3.364a.516.516,0,0,1,.893.519c-.668,1.15-1.259,2.219-1.8,3.246.482.186.975.348,1.474.487a.517.517,0,0,1-.276,1,17.383,17.383,0,0,1-1.671-.558c-.065.13-.13.26-.193.39a.517.517,0,0,1-.692.236Zm-4.671-4.255a.5.5,0,0,1-.136-.1,14,14,0,0,1-2.958-4.5.517.517,0,0,1,.956-.393A12.979,12.979,0,0,0,74.915,138a.517.517,0,0,1-.6.821Zm10.216,4.708a.517.517,0,0,1,.278-.976,15.125,15.125,0,0,0,5.01-.39.516.516,0,1,1,.253,1,16.113,16.113,0,0,1-5.352.418A.51.51,0,0,1,84.527,143.527ZM70.6,131.479a.514.514,0,0,1-.275-.371,16.71,16.71,0,0,1-.052-5.364.517.517,0,0,1,1.022.153,15.668,15.668,0,0,0,.047,5.032.517.517,0,0,1-.744.55Zm22.035,10.544a.516.516,0,0,1,0-.92,12.623,12.623,0,0,0,1.121-.65,9.989,9.989,0,0,0,2.645-2.527.517.517,0,0,1,.84.6,11.054,11.054,0,0,1-2.921,2.791,13.507,13.507,0,0,1-1.214.7A.515.515,0,0,1,92.633,142.024ZM83.085,135.8c-.015-.008-.031-.017-.046-.026a.518.518,0,0,1-.155-.715,20.177,20.177,0,0,1,3.369-4.146.517.517,0,1,1,.693.767,19.21,19.21,0,0,0-3.193,3.938A.517.517,0,0,1,83.085,135.8ZM71.29,123.242a.517.517,0,0,1-.253-.628,17.577,17.577,0,0,1,.954-2.256,16.836,16.836,0,0,1,1.549-2.486.516.516,0,1,1,.825.621,15.822,15.822,0,0,0-1.452,2.333,16.6,16.6,0,0,0-.9,2.122.518.518,0,0,1-.657.322A.542.542,0,0,1,71.29,123.242ZM97.931,135.88a.515.515,0,0,1-.267-.586,4.666,4.666,0,0,0-.335-3.39,4.223,4.223,0,0,0-.709-.975.517.517,0,0,1,.741-.72,5.209,5.209,0,0,1,.882,1.214,5.735,5.735,0,0,1,.423,4.121.516.516,0,0,1-.626.377A.51.51,0,0,1,97.931,135.88Zm-8.981-5.87a.518.518,0,0,1,.018-.93,8.348,8.348,0,0,1,5.446-.512.517.517,0,1,1-.254,1,7.394,7.394,0,0,0-4.759.449A.518.518,0,0,1,88.949,130.011Z" transform="translate(-70.08 -117.666)" fill="#53b6b9"/>
          </g>
        </g>
        <g id="Grupo_10084" data-name="Grupo 10084" transform="translate(15.761 59.452)">
          <path id="Trazado_19354" data-name="Trazado 19354" d="M89.016,184.508a.517.517,0,0,1,.377-.958,11.05,11.05,0,0,0,2.429.41.516.516,0,1,1-.057,1.031,12.1,12.1,0,0,1-2.656-.445A.687.687,0,0,1,89.016,184.508Z" transform="translate(-88.734 -183.53)" fill="#53b6b9"/>
        </g>
      </g>
    </g>
    <g id="Grupo_10087" data-name="Grupo 10087" transform="translate(137.829 82.545)">
      <path id="Trazado_19355" data-name="Trazado 19355" d="M168.479,93.184v15.4h22.562v21.324h-.711V286.1a22.3,22.3,0,0,0,22.23,22.23h0c1.937,0,119.894.108,119.894.108V128.918A35.734,35.734,0,0,0,296.72,93.184Z" transform="translate(-153.09 -92.393)" fill="#53b6b9"/>
      <path id="Trazado_19356" data-name="Trazado 19356" d="M150.265,122.75V108.465a16.271,16.271,0,0,1,16.188-16.217,22.2,22.2,0,0,1,22.23,22.045v8.458Z" transform="translate(-150.265 -92.248)" fill="#0f787a"/>
      <path id="Trazado_19357" data-name="Trazado 19357" d="M347.472,341.592H228.328s24.083-4.949,16.057-34.651H371.219S379.246,341.592,347.472,341.592Z" transform="translate(-162.372 -125.545)" fill="#0f787a"/>
    </g>
    <g id="Grupo_10095" data-name="Grupo 10095" transform="translate(320.227 117.778)">
      <g id="Grupo_10088" data-name="Grupo 10088" transform="translate(7.125 78.028)">
        <path id="Trazado_19358" data-name="Trazado 19358" d="M379.063,228.335s-.57.789-3.258,1.474c-.591.151-1.229.254-1.229,1.23h2.653l2.712-.469v.469h1.465s.408-2.4-.448-2.7Z" transform="translate(-374.576 -226.615)" fill="#122043"/>
        <path id="Trazado_19359" data-name="Trazado 19359" d="M379.722,226.3l.139,1.72h0a1.657,1.657,0,0,0,1.795.061l.1-.061V226.3Z" transform="translate(-375.374 -226.299)" fill="#f7a57a"/>
      </g>
      <g id="Grupo_10089" data-name="Grupo 10089" transform="translate(20.732 78.37)">
        <path id="Trazado_19360" data-name="Trazado 19360" d="M395.167,228.741s-.569.789-3.257,1.474c-.591.151-1.229.253-1.229,1.23h2.652l2.713-.469v.469h1.464s.408-2.4-.448-2.7Z" transform="translate(-390.681 -227.02)" fill="#122043"/>
        <path id="Trazado_19361" data-name="Trazado 19361" d="M395.826,226.7l.139,1.721h0a1.658,1.658,0,0,0,1.8.061l.1-.061V226.7Z" transform="translate(-391.479 -226.704)" fill="#f7a57a"/>
      </g>
      <path id="Trazado_19362" data-name="Trazado 19362" d="M378.443,175.564l.66,43.226h3.15s4.793-34.9,3.77-43.226S378.443,175.564,378.443,175.564Z" transform="translate(-368.051 -139.828)" fill="#122043"/>
      <path id="Trazado_19363" data-name="Trazado 19363" d="M382.382,176.232s1.1,13.279,3.615,20.629,7.065,22.606,7.065,22.606h3.26s-5.444-31.88-4.2-43.236h-9.741Z" transform="translate(-368.662 -140.506)" fill="#002f4c"/>
      <path id="Trazado_19364" data-name="Trazado 19364" d="M377.2,150.191s-3.882,9.052-4.867,9.052c-.788,0,.3-7.391.3-7.391h-3.251s-4.088,12.668-.837,14.983,10.392-6.551,10.392-6.551Z" transform="translate(-366.321 -136.467)" fill="#ffc630"/>
      <path id="Trazado_19365" data-name="Trazado 19365" d="M391.727,177.556l-1.176,2.908c-.566,1.142-2.648,1.172-4.03.809a.287.287,0,0,1-.136-.471,40.073,40.073,0,0,1,3.412-3.443Z" transform="translate(-369.271 -140.68)" fill="#f7a57a"/>
      <path id="Trazado_19366" data-name="Trazado 19366" d="M382.182,147.95a3.648,3.648,0,0,0-3.125,1.732,2.464,2.464,0,0,0-.382,1.241v20.92h11.877V152.285s-.242-4.349-4.494-4.349C384.249,147.936,383.01,147.943,382.182,147.95Z" transform="translate(-368.087 -136.117)" fill="#ffc630"/>
      <g id="Grupo_10090" data-name="Grupo 10090" transform="translate(10.392 16.947)">
        <path id="Trazado_19367" data-name="Trazado 19367" d="M378.837,172.794V154.005l-.394.013v18.776Z" transform="translate(-378.443 -154.005)" fill="#fff"/>
      </g>
      <path id="Trazado_19368" data-name="Trazado 19368" d="M387.057,143.212l-1.267,4.768a3.015,3.015,0,0,1-2.514.5c-1.432-.38-1.158-1.413-1.158-1.413l.811-3.056,2.267.01Z" transform="translate(-368.618 -135.385)" fill="#f18c72"/>
      <path id="Trazado_19369" data-name="Trazado 19369" d="M382.379,143.7a1.842,1.842,0,0,1-.989-.559c-.733-2.365,2.165-7.444,2.165-7.444l4.4,2.053-.825,3.7a3.182,3.182,0,0,1-1.824,2.22h0A5.107,5.107,0,0,1,382.379,143.7Z" transform="translate(-368.49 -134.219)" fill="#f7a57a"/>
      <path id="Trazado_19370" data-name="Trazado 19370" d="M385.6,137a10.2,10.2,0,0,1-3.144-.835c-1.535-.714-.032-2.216-.032-2.216a6.56,6.56,0,0,0,3.251,1.111c1.486.168,1.945-.008,2.732.725,1.07,1,.171,3.168.171,3.168l-1.953,4.584-.258-.068s.689-2.851.946-3.816c-.153-.511-.445-.588-.7-.538a.744.744,0,0,0-.556.553l-1.315,4.948s-3.511.521-4.248.063.773-3.984.773-3.984a1.523,1.523,0,0,1,1.534.837c.5.983,1.58.385,1.58.385Z" transform="translate(-368.338 -133.948)" fill="#122043"/>
      <path id="Trazado_19371" data-name="Trazado 19371" d="M370.505,151.389l.114-.624a5.2,5.2,0,0,1,2.906-3.552h1.38l-.428,2.949-1.948,1.228Z" transform="translate(-366.82 -136.005)" fill="#f7a57a"/>
      <path id="Trazado_19372" data-name="Trazado 19372" d="M388.1,140.034a.833.833,0,0,0-.961.556.717.717,0,0,0,.293,1,.833.833,0,0,0,.961-.556A.717.717,0,0,0,388.1,140.034Z" transform="translate(-369.386 -134.887)" fill="#f7a57a"/>
      <path id="Trazado_19373" data-name="Trazado 19373" d="M374.04,150.126l-2.688,1.555s1.686-.017,1.714,0l2.845-2.381s-.206-.416-.851-.064A3.273,3.273,0,0,0,374.04,150.126Z" transform="translate(-366.951 -136.297)" fill="#f7a57a"/>
      <path id="Trazado_19374" data-name="Trazado 19374" d="M390.5,149.485s6.714,7.46,6.714,11.931-5.451,12.352-5.451,12.352l-2.692-.788s2.43-9.752,2.43-12.346-4.991-6.4-4.991-6.4" transform="translate(-369.303 -136.358)" fill="#ffc630"/>
      <g id="Grupo_10091" data-name="Grupo 10091" transform="translate(17.093 17.722)">
        <path id="Trazado_19375" data-name="Trazado 19375" d="M391.287,161.477c0,2.233-1.976,10.4-2.441,12.3.136.036.193.047.4.1.571-2.351,2.437-10.206,2.437-12.4,0-2.661-4.862-6.4-5.069-6.554l-.239.313C386.423,155.274,391.287,159.009,391.287,161.477Z" transform="translate(-386.374 -154.923)" fill="#fff"/>
      </g>
      <g id="Grupo_10094" data-name="Grupo 10094" transform="translate(0 2.695)">
        <path id="Trazado_19376" data-name="Trazado 19376" d="M375.909,145.016a7.125,7.125,0,0,1-1.869,5.016.776.776,0,0,1-.533.215,1.983,1.983,0,0,1-.9-.268.864.864,0,0,1-.508-.47.373.373,0,0,1,.088-.382c.426-.49,1.766-2.189,1.464-3.88A2.92,2.92,0,0,1,375.909,145.016Z" transform="translate(-367.064 -138.34)" fill="#005558"/>
        <path id="Trazado_19377" data-name="Trazado 19377" d="M372.372,149.85a.574.574,0,0,1-.275-.339.373.373,0,0,1,.088-.382c.426-.49,1.766-2.189,1.464-3.88a2.454,2.454,0,0,1,1.108-.351C374.59,146.694,374.057,147.84,372.372,149.85Z" transform="translate(-367.064 -138.342)" fill="#0f787a"/>
        <g id="Grupo_10093" data-name="Grupo 10093" transform="translate(6.173 7.97)">
          <g id="Grupo_10092" data-name="Grupo 10092" transform="translate(0.102 0.007)">
            <path id="Trazado_19378" data-name="Trazado 19378" d="M374.269,147.451c-.136.4-.373.681-.53.628s-.175-.421-.04-.82.373-.681.531-.628S374.4,147.052,374.269,147.451Z" transform="translate(-373.576 -146.585)" fill="#005558"/>
            <path id="Trazado_19379" data-name="Trazado 19379" d="M374.35,146.64l-.165-.062,0,.087.107.059Z" transform="translate(-373.666 -146.578)" fill="#f4872e"/>
            <path id="Trazado_19380" data-name="Trazado 19380" d="M373.771,148.34l-.2-.065.238,0Z" transform="translate(-373.57 -146.84)" fill="#de1d4c"/>
          </g>
          <path id="Trazado_19381" data-name="Trazado 19381" d="M374.111,147.4c-.136.4-.373.681-.531.628s-.175-.421-.039-.82.373-.681.531-.628S374.246,147,374.111,147.4Z" transform="translate(-373.45 -146.57)" fill="#53b6b9"/>
        </g>
        <path id="Trazado_19382" data-name="Trazado 19382" d="M377.756,142.286l.316.04a1.085,1.085,0,0,1,.967,1.184l-.1.831a1.084,1.084,0,0,1-1.229.907l-.316-.039Z" transform="translate(-367.888 -137.936)" fill="#005558"/>
        <path id="Trazado_19383" data-name="Trazado 19383" d="M366.253,141.1c-.285,2.267.006,4.17.649,4.251s1.395-1.691,1.679-3.959-.006-4.17-.649-4.251S366.537,138.833,366.253,141.1Z" transform="translate(-366.144 -137.138)" fill="#122043"/>
        <path id="Trazado_19384" data-name="Trazado 19384" d="M369.1,140.39l-1,.483-.166,1.328.841.979.544-1.686Z" transform="translate(-366.422 -137.642)" fill="#fff"/>
        <path id="Trazado_19385" data-name="Trazado 19385" d="M368.777,141.424c.239-1.9.071-3.549-.37-4.074l0,0a18.913,18.913,0,0,0,7.978,4.225l-.363,2.9s-6.07-1.109-8.61.814l0,0C367.969,144.883,368.538,143.331,368.777,141.424Z" transform="translate(-366.34 -137.17)" fill="#0f787a"/>
        <path id="Trazado_19386" data-name="Trazado 19386" d="M367.884,141.606c-.046.368-.027.673.042.682s.163-.282.21-.651.027-.674-.042-.683S367.931,141.238,367.884,141.606Z" transform="translate(-366.41 -137.73)" fill="#ffc630"/>
      </g>
      <path id="Trazado_19387" data-name="Trazado 19387" d="M372.273,149.26a3.182,3.182,0,0,0,1.5.244c.782,0,1.134-.961,1.267-1.483.046-.184.088-.445-.142-.563l-1.256-.174Z" transform="translate(-367.094 -136.016)" fill="#f7a57a"/>
    </g>
    <g id="Grupo_10096" data-name="Grupo 10096" transform="translate(250.377 193.667)">
      <path id="Trazado_19388" data-name="Trazado 19388" d="M283.472,223.768h27.1s.552,16.884-2.413,17.429-4.176-1.029-4.176-1.029-3.086,5.023-8.23,5.689-12.285.787-12.285.787Z" transform="translate(-283.472 -223.768)" fill="#fff"/>
      <path id="Trazado_19389" data-name="Trazado 19389" d="M299.038,248.71c1.921-.292,10.335-2.014,12.217-4.965a5.52,5.52,0,0,1-4.854-.567S303.315,247.777,299.038,248.71Z" transform="translate(-285.886 -226.778)" fill="#0f787a"/>
    </g>
    <g id="Grupo_10104" data-name="Grupo 10104" transform="translate(171.073 45.708)">
      <g id="Grupo_10103" data-name="Grupo 10103">
        <g id="Grupo_10097" data-name="Grupo 10097" transform="translate(27.099 67.278)">
          <path id="Trazado_19390" data-name="Trazado 19390" d="M224.169,128.277l.352,2.1h0a2.027,2.027,0,0,1-2.194.074l-.123-.074-.52-2.1Z" transform="translate(-221.684 -128.277)" fill="#f7a57a"/>
        </g>
        <path id="Trazado_19391" data-name="Trazado 19391" d="M204.5,70.345c1.869,6.168,8.14,15.637,8.14,15.637l-4.953-2.027-3.5-8.09S202.632,64.177,204.5,70.345Z" transform="translate(-191.777 -51.736)" fill="#a4d1bb"/>
        <path id="Trazado_19392" data-name="Trazado 19392" d="M219.1,98.968l3.907,24.089h-3.473s-7.8-21.674-8.619-28.046c0-3.609,7.885,0,7.885,0Z" transform="translate(-192.915 -55.591)" fill="#122043"/>
        <g id="Grupo_10099" data-name="Grupo 10099" transform="translate(9.148)">
          <path id="Trazado_19393" data-name="Trazado 19393" d="M204.539,58.672l-1.3,3.355L200.437,60l1.894-3.956Z" transform="translate(-200.437 -49.796)" fill="#f18c72"/>
          <g id="Grupo_10098" data-name="Grupo 10098" transform="translate(1.891 1.406)">
            <path id="Trazado_19394" data-name="Trazado 19394" d="M205.943,58.34a1.913,1.913,0,0,0,1.1-.029c1.626-1.553,1.229-6.741,1.229-6.741l-1.817-1.256-2.864,1.049-.831,3.247a2.717,2.717,0,0,0,.658,2.5h0A5.3,5.3,0,0,0,205.943,58.34Z" transform="translate(-202.675 -50.314)" fill="#f7a57a"/>
          </g>
          <path id="Trazado_19395" data-name="Trazado 19395" d="M203.861,52.2a1.118,1.118,0,0,1,1.406-.558,9,9,0,0,0,1.343.411c1.124.235,3.219.215,3.577-1.5s-1.866-1.563-1.866-1.563l-2.954.2a5.443,5.443,0,0,1-2.547-.466,1.2,1.2,0,0,0-1.493.789,7.477,7.477,0,0,0,.306,3.673,5.366,5.366,0,0,0,.814,1.7h0Z" transform="translate(-200.554 -48.649)" fill="#122043"/>
          <path id="Trazado_19396" data-name="Trazado 19396" d="M202.342,53.7a.864.864,0,0,1,1.027.313c.27.341.25.755-.047.923a.864.864,0,0,1-1.027-.313C202.025,54.286,202.046,53.873,202.342,53.7Z" transform="translate(-200.696 -49.422)" fill="#f7a57a"/>
        </g>
        <g id="Grupo_10100" data-name="Grupo 10100" transform="translate(14.202 65.821)">
          <path id="Trazado_19397" data-name="Trazado 19397" d="M224.386,130.366s.009,2.236,4.5,3.579c.922.275.622.548.8.935h-5.17l-2.024-2.275-.629.541-1.46-1.434s.253-2.075,1.365-2.094C222.682,129.931,224.386,130.366,224.386,130.366Z" transform="translate(-208.588 -127.028)" fill="#122043"/>
          <path id="Trazado_19398" data-name="Trazado 19398" d="M209.453,127.354l-.841,1.937h0a2.026,2.026,0,0,1-2.1-.638l-.092-.11.678-1.991Z" transform="translate(-206.42 -126.552)" fill="#f7a57a"/>
        </g>
        <path id="Trazado_19399" data-name="Trazado 19399" d="M202.8,61.611s.357-.552-2.819-2.194c-4.789,4.789-6.36,23.122-6.36,23.122h12.522C206.566,72.076,202.8,61.611,202.8,61.611Z" transform="translate(-190.233 -50.319)" fill="#fff"/>
        <path id="Trazado_19400" data-name="Trazado 19400" d="M217.858,85.809a.553.553,0,0,0-.261-.6l-2.041-1.184a2.366,2.366,0,0,0-1.671-.27l-2.213.088-.29.35-.46,1.956c.444-.106.7-.174.7-.174l1.405.038s2.652,2.463,3.966.321c.054,2.28.722,2.1.722,2.1Z" transform="translate(-192.916 -54.086)" fill="#f7a57a"/>
        <path id="Trazado_19401" data-name="Trazado 19401" d="M193.579,86.783l-.189,1.553-.008.063a6.126,6.126,0,0,0,4.491,6.52A55.221,55.221,0,0,0,210.767,97.2c-4.723,6.063-6.029,23.078-6.029,23.078l3.043,1.105,11.75-27.988a3.092,3.092,0,0,0-2.207-4.222L206.1,86.783Z" transform="translate(-190.19 -54.564)" fill="#002f4c"/>
        <path id="Trazado_19402" data-name="Trazado 19402" d="M200.828,67.892a25.184,25.184,0,0,0-3.7,4.324,1.632,1.632,0,0,0,.146,1.937c2.608,3,11.9,5.888,11.9,5.888l-.6,3.39s-13.186-2.594-17.856-7.278c-4.792-4.807,7.6-14.846,7.6-14.846" transform="translate(-189.611 -50.613)" fill="#fff"/>
        <g id="Grupo_10101" data-name="Grupo 10101" transform="translate(3.801 17.143)">
          <path id="Trazado_19403" data-name="Trazado 19403" d="M198.58,73.5a1.438,1.438,0,0,0,.13,1.717c1.19,1.37,4.362,2.834,7.133,3.9,0,.17,0,.181,0,.384-2.908-1.092-6.115-2.539-7.414-4.034a1.808,1.808,0,0,1-.164-2.159A25.633,25.633,0,0,1,202,68.939l.252.275A25.125,25.125,0,0,0,198.58,73.5Z" transform="translate(-194.71 -68.939)" fill="#a4d1bb"/>
          <path id="Trazado_19404" data-name="Trazado 19404" d="M194.16,81.107a66.306,66.306,0,0,0,15.134,5.244,2.76,2.76,0,0,1-.079.359,65.987,65.987,0,0,1-15.105-5.175A3.668,3.668,0,0,1,194.16,81.107Z" transform="translate(-194.109 -70.826)" fill="#a4d1bb"/>
        </g>
        <g id="Grupo_10102" data-name="Grupo 10102" transform="translate(18.001 21.657)">
          <path id="Trazado_19405" data-name="Trazado 19405" d="M222.782,88.436l3.9-13.954-.716-.2-3.722,13.306-11.2-1.947-.127.733Z" transform="translate(-210.915 -74.282)" fill="#a4d1bc"/>
        </g>
      </g>
      <path id="Trazado_19406" data-name="Trazado 19406" d="M208.47,129.152s-.177,2.255,4.316,3.6c.921.275.622.548.794.935h-5.169l-2.024-2.275-.629.541-1.459-1.434s.681-2.075,1.793-2.093C207.008,128.736,208.47,129.152,208.47,129.152Z" transform="translate(-191.889 -61.022)" fill="#122043"/>
    </g>
    <g id="Grupo_10105" data-name="Grupo 10105" transform="translate(189.81 124.404)">
      <rect id="Rectángulo_2153" data-name="Rectángulo 2153" width="18.71" height="18.158" fill="#a4d1bc"/>
      <rect id="Rectángulo_2154" data-name="Rectángulo 2154" width="18.713" height="18.158" transform="translate(32.788)" fill="#a4d1bc"/>
      <rect id="Rectángulo_2155" data-name="Rectángulo 2155" width="18.71" height="18.158" transform="translate(65.629)" fill="#a4d1bc"/>
      <rect id="Rectángulo_2156" data-name="Rectángulo 2156" width="18.716" height="18.158" transform="translate(98.023)" fill="#a4d1bc"/>
    </g>
    <g id="Grupo_10106" data-name="Grupo 10106" transform="translate(189.81 159.258)">
      <rect id="Rectángulo_2157" data-name="Rectángulo 2157" width="18.71" height="18.159" fill="#a4d1bc"/>
      <rect id="Rectángulo_2158" data-name="Rectángulo 2158" width="18.713" height="18.159" transform="translate(32.788)" fill="#a4d1bc"/>
      <rect id="Rectángulo_2159" data-name="Rectángulo 2159" width="18.71" height="18.159" transform="translate(65.629)" fill="#a4d1bc"/>
      <rect id="Rectángulo_2160" data-name="Rectángulo 2160" width="18.716" height="18.159" transform="translate(98.023)" fill="#a4d1bc"/>
    </g>
    <g id="Grupo_10107" data-name="Grupo 10107" transform="translate(222.599 193.8)">
      <rect id="Rectángulo_2161" data-name="Rectángulo 2161" width="18.713" height="18.159" fill="#a4d1bc"/>
      <rect id="Rectángulo_2162" data-name="Rectángulo 2162" width="18.716" height="18.159" transform="translate(65.235)" fill="#a4d1bc"/>
    </g>
    <g id="Grupo_10117" data-name="Grupo 10117" transform="translate(272.198 194.597)">
      <path id="Trazado_19407" data-name="Trazado 19407" d="M346.965,226.913l-4.6,7.9-2.089,3.593-.627,1.079c-1.216-1.189-2.361-2.6-3.416-3.613q-3.4-3.262-6.8-6.523c-3.926-3.763-9.909,2.2-5.974,5.974l9.073,8.7c2.25,2.156,4.658,5.441,8.118,5.167,3.424-.27,4.951-3.12,6.508-5.8q3.552-6.107,7.1-12.217C357,226.467,349.7,222.209,346.965,226.913Z" transform="translate(-311.294 -224.868)" fill="#002f4c"/>
      <g id="Grupo_10116" data-name="Grupo 10116" transform="translate(0 20.532)">
        <g id="Grupo_10110" data-name="Grupo 10110" transform="translate(0 71.731)">
          <path id="Trazado_19408" data-name="Trazado 19408" d="M311.437,335.212l1.582,4.185a1.381,1.381,0,0,1-.45,1.632,5.332,5.332,0,0,1-.829.381c-.288-.061-2.113-5.712-2.113-5.712l.018-.035A1.5,1.5,0,0,1,311.437,335.212Z" transform="translate(-309.349 -334.225)" fill="#0f787a"/>
          <path id="Trazado_19409" data-name="Trazado 19409" d="M311.688,341.523l-2.113-5.712-.277.161,2.128,5.659Z" transform="translate(-309.298 -334.337)" fill="#122043"/>
          <g id="Grupo_10108" data-name="Grupo 10108" transform="translate(1.99 2.643)">
            <path id="Trazado_19410" data-name="Trazado 19410" d="M312.381,337.195l.138.378-.729.14-.138-.366Z" transform="translate(-311.653 -337.195)" fill="#fff"/>
          </g>
          <g id="Grupo_10109" data-name="Grupo 10109" transform="translate(2.294 3.451)">
            <path id="Trazado_19411" data-name="Trazado 19411" d="M312.741,338.152l.138.378-.729.14-.138-.366Z" transform="translate(-312.013 -338.152)" fill="#fff"/>
          </g>
          <path id="Trazado_19412" data-name="Trazado 19412" d="M313.517,334.067l-1.754.988h0a1.126,1.126,0,0,0,.387,1.136l.061.049,1.936-.5Z" transform="translate(-309.676 -334.067)" fill="#f7a57a"/>
        </g>
        <path id="Trazado_19413" data-name="Trazado 19413" d="M327.847,302.817a10.076,10.076,0,0,0-2.187,5.17c-.3,2.194.523,5.671.613,8.4a7.036,7.036,0,0,1-3.021,6l-9.407,6.834.63,1.675s12.875-1.931,16.255-7.7,4.181-18.821,4.181-18.821Z" transform="translate(-310.003 -257.49)" fill="#122043"/>
        <path id="Trazado_19414" data-name="Trazado 19414" d="M320.071,294.408l-4.839,10.8a6.577,6.577,0,0,0-2.85.994,2.06,2.06,0,0,0-.308,1.865.667.667,0,0,0,1.092.385,4.589,4.589,0,0,1,1.668-1.057,2,2,0,0,0,1.55-1.043l6.942-10.887Z" transform="translate(-309.717 -256.186)" fill="#f7a57a"/>
        <path id="Trazado_19415" data-name="Trazado 19415" d="M349.838,265.664l2.479-2.12-1.922-10.473-2.983-1.524a.86.86,0,0,1,1.06-.331,2.734,2.734,0,0,0,1.359.1s.559-.69-.5-1.157c-.594-.4-.992,0-2.715-.069,0-.265,2.27-.895,2.27-.895.708-.227,2.515,1.173,2.515,1.173a1.267,1.267,0,0,1,.231.562l.286,1.944s3.844,10.539,3.844,11.666-2.154,2.667-2.154,2.667Z" transform="translate(-315.086 -249.169)" fill="#f7a57a"/>
        <path id="Trazado_19416" data-name="Trazado 19416" d="M334.491,303.832s-1.491,1.8-.6,5.972c.571,2.666,3.08,6.02,4.764,8.33a7.328,7.328,0,0,1,.87,5.757c-1.38,7.668.828,17.032.828,17.032h1.789s2.684-13.72,3.479-23.364a27.826,27.826,0,0,0-3.081-15.211Z" transform="translate(-313.068 -257.417)" fill="#122043"/>
        <g id="Grupo_10112" data-name="Grupo 10112" transform="translate(29.778 0.516)">
          <g id="Grupo_10111" data-name="Grupo 10111">
            <rect id="Rectángulo_2163" data-name="Rectángulo 2163" width="1.501" height="5.68" transform="matrix(0.145, -0.989, 0.989, 0.145, 1.565, 1.485)" fill="#f99200"/>
            <rect id="Rectángulo_2164" data-name="Rectángulo 2164" width="1.501" height="0.519" transform="matrix(0.145, -0.989, 0.989, 0.145, 6.996, 2.282)" fill="#fff"/>
            <path id="Trazado_19417" data-name="Trazado 19417" d="M353.3,252.275c.412.058.759.03.858-.641.107-.733-.226-.8-.637-.861Z" transform="translate(-345.9 -249.934)" fill="#122043"/>
            <path id="Trazado_19418" data-name="Trazado 19418" d="M346.193,251.266l-1.091-.656.079-.54,1.229-.289Z" transform="translate(-344.628 -249.781)" fill="#fff"/>
            <path id="Trazado_19419" data-name="Trazado 19419" d="M345.016,250.663l-.474-.342.554-.2Z" transform="translate(-344.541 -249.834)" fill="#002f4c"/>
          </g>
          <rect id="Rectángulo_2165" data-name="Rectángulo 2165" width="0.341" height="5.489" transform="matrix(0.145, -0.989, 0.989, 0.145, 1.598, 1.257)" fill="#ef7100"/>
          <rect id="Rectángulo_2166" data-name="Rectángulo 2166" width="0.341" height="5.489" transform="translate(1.704 0.54) rotate(-81.647)" fill="#ef7100"/>
        </g>
        <path id="Trazado_19420" data-name="Trazado 19420" d="M328.177,277.413c-3.2,2.349-6.961,13.641-6.961,13.641l2.808,1.574,4.569-6.269a60.684,60.684,0,0,1-.648,12.826c.5,2.088,2.868,1.853,6.713,1.124a19.079,19.079,0,0,0,6.362-2.386s.166-10.07.663-15.41-.485-5.91.862-5.733c3-1.706,7.924-7.2,7.924-7.2l-4.571-.889-9.843,5.767A42.661,42.661,0,0,0,328.177,277.413Z" transform="translate(-311.146 -252.197)" fill="#fff"/>
        <path id="Trazado_19421" data-name="Trazado 19421" d="M336.056,263.2l2.375,2.345a4.118,4.118,0,0,1,1.125,3.823l-.278,1.252Z" transform="translate(-313.448 -251.346)" fill="#f7a57a"/>
        <path id="Trazado_19422" data-name="Trazado 19422" d="M331.95,262.155c-5.766,0-3.314,11.07-3.314,11.07s1.027,7.18,3.314,10.063c1.979,2.5,5.895,1.745,7.75.547a7.078,7.078,0,0,1,2.993-1.105c1.572-.189,3.44-.883,3.44-3.718,0-2.667-3.185-4.731-5.281-6.2a6.919,6.919,0,0,1-2.717-4.018C337.464,266.059,335.828,262.155,331.95,262.155Z" transform="translate(-312.217 -251.183)" fill="#122043"/>
        <g id="Grupo_10115" data-name="Grupo 10115" transform="translate(27.153 83.505)">
          <path id="Trazado_19423" data-name="Trazado 19423" d="M341.878,350.356l4.474-.007c.593.083,1.257.308,1.369,1a5.274,5.274,0,0,1,.064.91c-.158.248-6.089-.033-6.089-.033l-.026-.029A1.5,1.5,0,0,1,341.878,350.356Z" transform="translate(-341.435 -348.367)" fill="#0f787a"/>
          <path id="Trazado_19424" data-name="Trazado 19424" d="M347.833,352.6l-6.09-.033.053.317h6.046Z" transform="translate(-341.483 -348.711)" fill="#002f4c"/>
          <g id="Grupo_10113" data-name="Grupo 10113" transform="translate(2.1 1.982)">
            <path id="Trazado_19425" data-name="Trazado 19425" d="M344.034,350.349l.4,0-.125.732h-.391Z" transform="translate(-343.921 -350.349)" fill="#fff"/>
          </g>
          <g id="Grupo_10114" data-name="Grupo 10114" transform="translate(2.964 1.982)">
            <path id="Trazado_19426" data-name="Trazado 19426" d="M345.056,350.349l.4,0-.125.732h-.391Z" transform="translate(-344.943 -350.349)" fill="#fff"/>
          </g>
          <path id="Trazado_19427" data-name="Trazado 19427" d="M341.6,348l.307,1.989h0a1.127,1.127,0,0,0,1.2.038l.068-.04.215-1.987Z" transform="translate(-341.46 -348.003)" fill="#f7a57a"/>
        </g>
        <path id="Trazado_19428" data-name="Trazado 19428" d="M348.618,251.581a.86.86,0,0,0-1.06.331l1.984,1.014c.028-.011.055-.025.083-.036a9.35,9.35,0,0,1,1.314-.478A16.525,16.525,0,0,0,348.618,251.581Z" transform="translate(-315.232 -249.534)" fill="#f7a57a"/>
      </g>
    </g>
    <g id="Grupo_10118" data-name="Grupo 10118" transform="translate(279.5 156.322)">
      <path id="Trazado_19429" data-name="Trazado 19429" d="M323.958,181.077c-6.813,4.023-7.767,12.968-3.235,19.1a16.992,16.992,0,0,0,20.468,5.305c6.444-3.063,10.089-11.011,7.306-17.75a13.4,13.4,0,0,0-19.266-6.279,1.459,1.459,0,0,0,1.472,2.518,10.45,10.45,0,0,1,15.175,5.069c2.081,5.392-1.035,11.594-6.159,13.923a14.112,14.112,0,0,1-16.167-3.884c-3.98-4.726-3.748-12.162,1.879-15.485a1.46,1.46,0,0,0-1.473-2.519Z" transform="translate(-317.941 -179.567)" fill="#fff"/>
    </g>
    <g id="Grupo_10119" data-name="Grupo 10119" transform="translate(249.368 116.577)">
      <path id="Trazado_19430" data-name="Trazado 19430" d="M312.458,149.558c2.564-7.485-2.521-14.9-9.951-16.621A16.991,16.991,0,0,0,283.5,142.2c-2.91,6.515-.515,14.925,5.979,18.24a13.4,13.4,0,0,0,18.725-7.745,1.459,1.459,0,0,0-2.755-.958,10.45,10.45,0,0,1-14.829,6.006c-5.086-2.746-6.746-9.486-4.365-14.585a14.112,14.112,0,0,1,14.812-7.552c6.1,1.005,10.751,6.809,8.633,12.99a1.46,1.46,0,0,0,2.756.958Z" transform="translate(-282.278 -132.527)" fill="#0f787a"/>
    </g>
    <g id="Grupo_10120" data-name="Grupo 10120" transform="translate(187.7 124.703)">
      <path id="Trazado_19431" data-name="Trazado 19431" d="M209.29,142.145h23.745s.484,14.793-2.114,15.269-3.658-.9-3.658-.9-2.7,4.4-7.21,4.983-10.762.689-10.762.689Z" transform="translate(-209.29 -142.145)" fill="#0f787a"/>
      <path id="Trazado_19432" data-name="Trazado 19432" d="M222.927,164c1.682-.257,9.054-1.765,10.7-4.35a4.838,4.838,0,0,1-4.252-.5S226.674,163.18,222.927,164Z" transform="translate(-211.405 -144.782)" fill="#005558"/>
    </g>
    <g id="Grupo_10131" data-name="Grupo 10131" transform="translate(186.186 127.693)">
      <g id="Grupo_10122" data-name="Grupo 10122" transform="translate(9.869 85.002)">
        <path id="Trazado_19433" data-name="Trazado 19433" d="M230.935,252.03l-5.082,13.28-3.2-2.384,7.158-12.067Z" transform="translate(-219.716 -246.998)" fill="#f18c72"/>
        <g id="Grupo_10121" data-name="Grupo 10121" transform="translate(9.905)">
          <path id="Trazado_19434" data-name="Trazado 19434" d="M231.585,247.305a2.071,2.071,0,0,0-.46,1.4l-.224,1.917.262.3.9.8c-.032-.4-.077,0-.077,0l1.446-2.517s1.748-1.12-.457-2.775a.634.634,0,0,0-.725-.046A1.621,1.621,0,0,0,231.585,247.305Z" transform="translate(-230.901 -246.289)" fill="#f18c72"/>
        </g>
        <path id="Trazado_19435" data-name="Trazado 19435" d="M219.178,276.978a83.538,83.538,0,0,0,6.137-9.591l-2.757-3.138-3.38,3.941Z" transform="translate(-219.178 -249.074)" fill="#005558"/>
      </g>
      <path id="Trazado_19436" data-name="Trazado 19436" d="M209.763,342.046l1.619.28c.334-2.007,5.368-11.523,5.777-16.466a111.547,111.547,0,0,1,1.729-11.6l-5.413-1.61s-1.37,0,.135,11.183C210.223,328.281,209.316,338.364,209.763,342.046Z" transform="translate(-207.833 -171.579)" fill="#f18c72"/>
      <path id="Trazado_19437" data-name="Trazado 19437" d="M214.5,307.84s1.272,7.65,3.04,15.832c-1.847,4.941.968,18.727,1.02,18.679.213-.2,1.185,1,1.185,1s2.052-12.168,2.507-17.655.567-12.177.567-12.177Z" transform="translate(-208.584 -170.832)" fill="#f7a57a"/>
      <path id="Trazado_19438" data-name="Trazado 19438" d="M218.914,347.773a1.808,1.808,0,0,0-.629,1.487c.141.833.341,2.783.341,2.783h.792l-.024-1.819c0-.119,1.7,1.819,1.987,1.819h4.192s.278-1.227-2.183-1.621A8.974,8.974,0,0,1,218.914,347.773Z" transform="translate(-209.168 -177.026)" fill="#002f4c"/>
      <g id="Grupo_10123" data-name="Grupo 10123" transform="translate(0 168.703)">
        <path id="Trazado_19439" data-name="Trazado 19439" d="M211.585,346.011l-.112,1.736a1.62,1.62,0,0,0,.286,1.027,6.518,6.518,0,0,0,1.261,1.31c-1.216.39-2.321-.972-2.9-1.878a2.159,2.159,0,0,1-.315-1.488l.2-1.366Z" transform="translate(-207.852 -345.353)" fill="#f18c72"/>
        <path id="Trazado_19440" data-name="Trazado 19440" d="M209.428,347.262s-1.069.1-1.246.909-.684,2.459-.684,2.459l.584.466.822-1.632a24.37,24.37,0,0,0,2.049,2.5h4.577s0-1.514-2.863-1.583C210.027,350.318,209.428,347.262,209.428,347.262Z" transform="translate(-207.498 -345.649)" fill="#122043"/>
      </g>
      <path id="Trazado_19441" data-name="Trazado 19441" d="M219.98,270.35H216.7l1.307-3.849,2.561,1.574Z" transform="translate(-208.926 -164.421)" fill="#f18c72"/>
      <g id="Grupo_10127" data-name="Grupo 10127" transform="translate(10.8)">
        <g id="Grupo_10126" data-name="Grupo 10126">
          <rect id="Rectángulo_2167" data-name="Rectángulo 2167" width="25.967" height="4.703" transform="translate(12.458 79.771) rotate(-68.719)" fill="#f99200"/>
          <path id="Trazado_19442" data-name="Trazado 19442" d="M235.989,235.8l-.126-.05s8.016-22.791,9.425-24.2,4.249-2.2,1.521.592S235.989,235.8,235.989,235.8Z" transform="translate(-222.698 -155.701)" fill="#fff" opacity="0.33"/>
          <g id="Grupo_10125" data-name="Grupo 10125" transform="translate(4.1)">
            <path id="Trazado_19443" data-name="Trazado 19443" d="M245.269,147.741a136.154,136.154,0,0,1,16.641.512c.885.106,4.643.237,2.143.208l1.893.637c2.02,1.493,3.733,3.276,5.909,4.59a25.14,25.14,0,0,0,6.271,2.723,30.189,30.189,0,0,1-26.444,49.753,14.878,14.878,0,0,0-3.217-1.572,8.069,8.069,0,0,0-1.177-.509,39.576,39.576,0,0,0-4.724-2.447,16.612,16.612,0,0,0-5.255-1.223,30.177,30.177,0,0,1,7.958-52.671Z" transform="translate(-225.134 -145.999)" fill="#53b6b9"/>
            <path id="Trazado_19444" data-name="Trazado 19444" d="M259.4,205.616a14.469,14.469,0,0,0-6.328-1.924,34.4,34.4,0,0,1-4.4-.379c-.075-.022-.151-.033-.226-.054l21.416-55.049A30.18,30.18,0,0,1,259.4,205.616Z" transform="translate(-228.749 -146.075)" fill="url(#linear-gradient-4)"/>
            <g id="Grupo_10124" data-name="Grupo 10124">
              <path id="Trazado_19445" data-name="Trazado 19445" d="M227.2,164.933a30.185,30.185,0,1,0,39.075-17.187A30.185,30.185,0,0,0,227.2,164.933Zm3.157,1.229a26.8,26.8,0,1,1,15.257,34.69A26.8,26.8,0,0,1,230.354,166.161Z" transform="translate(-225.134 -145.683)" fill="#122043"/>
            </g>
          </g>
          <path id="Trazado_19446" data-name="Trazado 19446" d="M224.412,263.211l10.325-30.845a1.454,1.454,0,0,1,1.85-.89l3.71,1.446a1.454,1.454,0,0,1,.76,1.907l-8.281,21.257C231.542,254.166,227.019,263.8,224.412,263.211Z" transform="translate(-220.922 -158.975)" fill="#122043"/>
          <path id="Trazado_19447" data-name="Trazado 19447" d="M220.281,266.256,234.1,232.367a1.462,1.462,0,0,1,1.693-.932c-.1.675-8.818,26.325-12.452,37.5C222.559,268.493,221.256,266.476,220.281,266.256Z" transform="translate(-220.281 -158.977)" fill="#005558"/>
        </g>
        <path id="Trazado_19448" data-name="Trazado 19448" d="M253.336,165.723a3.892,3.892,0,1,1-2.218-5.038A3.892,3.892,0,0,1,253.336,165.723Z" transform="translate(-224.241 -147.969)" fill="#fff"/>
        <path id="Trazado_19449" data-name="Trazado 19449" d="M245.022,171.649a1.853,1.853,0,1,1-1.056-2.4A1.853,1.853,0,0,1,245.022,171.649Z" transform="translate(-223.563 -149.319)" fill="#fff"/>
      </g>
      <path id="Trazado_19450" data-name="Trazado 19450" d="M223.789,274.023c-.016-.1-.039-.177-.058-.267,3.244-4.182,6-7.128,6-7.128l-2.756-3.138-6.267,5.95-1.838.008a3.683,3.683,0,0,0-4.653.6c-.792.818-1.32,3.034-.791,5.377,1.46,6.458.318,9.875.318,9.875l8.45,3.151s.193-5.616.324-9.556v-.014a4.393,4.393,0,0,1,.685-2.155A3.852,3.852,0,0,0,223.789,274.023Z" transform="translate(-208.384 -163.954)" fill="#fff"/>
      <g id="Grupo_10129" data-name="Grupo 10129" transform="translate(18.14 84.361)">
        <path id="Trazado_19451" data-name="Trazado 19451" d="M237.254,251.271l-5.082,13.28-3.2-2.384,7.158-12.067Z" transform="translate(-228.968 -246.238)" fill="#f7a57a"/>
        <g id="Grupo_10128" data-name="Grupo 10128" transform="translate(6.972)">
          <path id="Trazado_19452" data-name="Trazado 19452" d="M237.9,246.546a2.064,2.064,0,0,0-.46,1.4l-.225,1.917.262.3.9.8c-.031-.4-.076,0-.076,0l1.446-2.517s1.748-1.121-.457-2.776a.634.634,0,0,0-.724-.046A1.621,1.621,0,0,0,237.9,246.546Z" transform="translate(-237.22 -245.529)" fill="#f7a57a"/>
        </g>
      </g>
      <path id="Trazado_19453" data-name="Trazado 19453" d="M221.931,289.068a62.731,62.731,0,0,1,1.125,9.133c0,1.871-.459,13.661-.459,13.661s-8.028.58-9.587.58c-.387-9.661-2.59-9.958-2.59-14.464A12.857,12.857,0,0,1,212.2,292.4a8.172,8.172,0,0,0,1.114-3.132l.052-.182Z" transform="translate(-207.951 -167.921)" fill="#0f787a"/>
      <g id="Grupo_10130" data-name="Grupo 10130" transform="translate(6.834 95.16)">
        <path id="Trazado_19454" data-name="Trazado 19454" d="M220.958,258.311l-5.371,1.881.53,4.009c.007.057.022.112.033.167.1.019.206.038.309.062l.05.014.048.01a3.678,3.678,0,0,1,2.511,2.514,6.327,6.327,0,0,0,2.324-.03,2.328,2.328,0,0,0,1.221-.526C223.747,263.94,220.958,258.311,220.958,258.311Z" transform="translate(-215.587 -258.311)" fill="#f7a57a"/>
      </g>
      <path id="Trazado_19455" data-name="Trazado 19455" d="M219.682,261.48c-1.446.707-1.105,8.158-1.354,13.234a5.768,5.768,0,0,1-4.884,5.394c-1.915.306-4.016.362-5.283-.361.838-.685,5.356-7.333,3.909-16.136-.19-1.158-.214-4.384,1.738-6.136,2.167-1.945,6.639.592,6.639.592S221.669,260.509,219.682,261.48Z" transform="translate(-207.601 -162.908)" fill="#122043"/>
    </g>
  </g>
</svg>
