<svg xmlns="http://www.w3.org/2000/svg" width="303.687" height="232.485" viewBox="0 0 303.687 232.485">
  <g id="Grupo_9754" data-name="Grupo 9754" transform="translate(-74.251 -57.499)">
    <g id="Grupo_9738" data-name="Grupo 9738" transform="translate(77.585 178.473)">
      <g id="Grupo_9734" data-name="Grupo 9734" transform="translate(34.963)">
        <path id="Trazado_18649" data-name="Trazado 18649" d="M191.1,365.216s18.3-41.853-5.091-65.785c-52.913,22.723-30.424,74.7-30.424,74.7Z" transform="translate(-150.841 -299.431)" fill="#ffc630"/>
        <path id="Trazado_18650" data-name="Trazado 18650" d="M190.145,299.431c-.185.079-.364.159-.547.24l-8.564,53.138-21.475-25.8q-.234.51-.454,1.022l21.717,26.091-2.471,15.334,1.058-.266,4.926-30.568h0l17.694-8.1c-.008-.362-.017-.725-.032-1.088l-17.47,7.993,6.05-37.54c-.145-.153-.285-.309-.433-.46Z" transform="translate(-154.973 -299.431)" fill="#fff"/>
      </g>
      <g id="Grupo_9735" data-name="Grupo 9735" transform="translate(10.097 3.269)">
        <path id="Trazado_18651" data-name="Trazado 18651" d="M155.43,357.355s-11.833-43.989-43.022-51.387c-26.078,28.387,1.162,62.284,1.162,62.284l34.966,19.087Z" transform="translate(-101.112 -305.968)" fill="#53b6b9"/>
        <path id="Trazado_18652" data-name="Trazado 18652" d="M142.773,327.16,131.82,344.133,114.96,306.157c-.245-.063-.487-.13-.735-.189-.1.112-.2.224-.3.336l9.031,20.339-17.906-5.618c-.058.169-.11.337-.166.506l-.141.449,18.753,5.884,15.049,33.9-31.74-8.859c.158.4.317.79.478,1.175l31.789,8.873,10.687,24.069.591.323.222-.965-18.268-41.146L143.4,328.045Q143.089,327.6,142.773,327.16Z" transform="translate(-102.929 -305.968)" fill="#a4d1bc"/>
      </g>
      <g id="Grupo_9737" data-name="Grupo 9737" transform="translate(0 57.012)">
        <path id="Trazado_18653" data-name="Trazado 18653" d="M115.8,467.715h26.869l-10.087-38.949s-29.312-24.217-51.6-11.752C79.723,445.1,98.356,459.97,115.8,467.715Z" transform="translate(-80.92 -413.448)" fill="#0f787a"/>
        <g id="Grupo_9736" data-name="Grupo 9736" transform="translate(0.039 0.874)">
          <path id="Trazado_18654" data-name="Trazado 18654" d="M81.019,417.89c-.009.2-.014.4-.021.6l42.1,29.644L96.19,455.965q.429.4.866.793l27.1-7.886L140.6,460.45l-.389-1.5-32.018-22.543-3.756-20.977q-.529-.122-1.061-.232l3.65,20.388-25.509-17.96c-.166.088-.332.171-.5.264Z" transform="translate(-80.998 -415.197)" fill="#005558"/>
        </g>
      </g>
    </g>
    <g id="Grupo_9745" data-name="Grupo 9745" transform="translate(167.797 112.533)">
      <path id="Trazado_18655" data-name="Trazado 18655" d="M309.039,223.058c-.472,1.224-1.189,1.486-2.989.792s-2.876-2.249-2.4-3.473,2.314-1.653,4.113-.959S309.511,221.834,309.039,223.058Z" transform="translate(-282.432 -193.321)" fill="#f7a57a"/>
      <g id="Grupo_9744" data-name="Grupo 9744" transform="translate(0 20.953)">
        <g id="Grupo_9739" data-name="Grupo 9739" transform="translate(17.492 3.705)">
          <path id="Trazado_18656" data-name="Trazado 18656" d="M296.313,217.927l1.016,1a2.5,2.5,0,0,1,1.737-.651,3.574,3.574,0,0,1,2.374,1.414,4.006,4.006,0,0,1,1.25,2.682,1.714,1.714,0,0,1-.555,1.182l.882,1.121a3.01,3.01,0,0,0,1.062-2.117,5.257,5.257,0,0,0-1.612-3.774,4.924,4.924,0,0,0-3.408-1.909A3.826,3.826,0,0,0,296.313,217.927Z" transform="translate(-296.313 -216.871)" fill="#005558"/>
        </g>
        <g id="Grupo_9742" data-name="Grupo 9742">
          <rect id="Rect치ngulo_2134" data-name="Rect치ngulo 2134" width="21.24" height="13.666" transform="matrix(-0.662, -0.75, 0.75, -0.662, 16.169, 26.418)" fill="#122043"/>
          <g id="Grupo_9741" data-name="Grupo 9741">
            <g id="Grupo_9740" data-name="Grupo 9740">
              <path id="Trazado_18657" data-name="Trazado 18657" d="M273.3,228.9c-.625.552-.434.912-.11,1.279s.658.6,1.283.05l2.175-1.919a55.022,55.022,0,0,0,7.658,6.078l-.276.243-7.809,6.888c-.723.637-1.555.874-1.928.45l-12.809-14.521c-.374-.424-.036-1.22.687-1.857l8.058-7.107a63.671,63.671,0,0,0,5.261,8.485Z" transform="translate(-261.331 -213.97)" fill="#005558"/>
              <path id="Trazado_18658" data-name="Trazado 18658" d="M285.853,209.675,298.662,224.2c.374.424.036,1.22-.687,1.857l-3.921,3.459a32.906,32.906,0,0,1-7.593-6.135l.531-.468c.625-.552.434-.912.11-1.279s-.658-.6-1.283-.051l-.529.466A33.914,33.914,0,0,1,280,213.584l3.921-3.459C284.647,209.488,285.479,209.251,285.853,209.675Z" transform="translate(-270.667 -209.462)" fill="#53b6b9"/>
            </g>
          </g>
        </g>
        <g id="Grupo_9743" data-name="Grupo 9743" transform="translate(12.596 13.199)">
          <path id="Trazado_18659" data-name="Trazado 18659" d="M286.652,236.547l.673-.594a.385.385,0,0,1,.543.035l1.016,1.152a.385.385,0,0,1-.034.543l-.674.594a.384.384,0,0,1-.542-.034l-1.017-1.153A.384.384,0,0,1,286.652,236.547Zm1.133-.487a.275.275,0,0,0-.388-.025l-.673.594a.274.274,0,0,0-.024.387l1.016,1.153a.275.275,0,0,0,.388.024l.673-.594a.275.275,0,0,0,.024-.388Z" transform="translate(-286.522 -235.858)" fill="#fff"/>
          <path id="Trazado_18660" data-name="Trazado 18660" d="M288.972,237.237a.1.1,0,0,0,0,.136h0a.1.1,0,0,0,.134.013l.94-.829a.1.1,0,0,0,0-.135h0a.1.1,0,0,0-.135-.013Z" transform="translate(-287.732 -236.122)" fill="#fff"/>
        </g>
      </g>
      <path id="Trazado_18661" data-name="Trazado 18661" d="M346.109,170.138l-10.574-2.579c-9.234,2.721-25.108,26.574-25.108,26.574l2.182,2.323s15.982-14.1,17.57-13.494l10.662,6.093Z" transform="translate(-285.878 -167.559)" fill="#f7a57a"/>
      <path id="Trazado_18662" data-name="Trazado 18662" d="M308.056,226.5" transform="translate(-284.692 -197.027)" fill="#f7a57a"/>
      <path id="Trazado_18663" data-name="Trazado 18663" d="M304.426,220.611a2.823,2.823,0,0,1,2.382,1.266,2.1,2.1,0,0,1-.062,2.364l-2-2.141Z" transform="translate(-282.877 -194.083)" fill="#f7a57a"/>
    </g>
    <g id="Grupo_9747" data-name="Grupo 9747" transform="translate(351.309 57.499)">
      <g id="Grupo_9746" data-name="Grupo 9746" transform="translate(0.151 15.541)">
        <rect id="Rect치ngulo_2135" data-name="Rect치ngulo 2135" width="0.754" height="39.522" fill="#53b6b9"/>
      </g>
      <path id="Trazado_18664" data-name="Trazado 18664" d="M628.331,57.5,654.96,70.885,628.331,87.7Z" transform="translate(-628.331 -57.499)" fill="#ffc630"/>
      <path id="Trazado_18665" data-name="Trazado 18665" d="M628.331,97.873v3.476L654.538,84.8Z" transform="translate(-628.331 -71.15)" fill="#fa0"/>
    </g>
    <path id="Trazado_18666" data-name="Trazado 18666" d="M270.741,324.36l-1.047,2.414h0a2.526,2.526,0,0,1-2.618-.8l-.116-.136.846-2.482Z" transform="translate(-96.348 -132.922)" fill="#f7a57a"/>
    <path id="Trazado_18667" data-name="Trazado 18667" d="M268.558,331.547s-.25,3.195,6.112,5.1c1.306.39.881.776,1.126,1.325h-7.322l-2.867-3.223-.892.766-2.067-2.031s.966-2.939,2.54-2.965C266.487,330.958,268.558,331.547,268.558,331.547Z" transform="translate(-94.193 -136.499)" fill="#122043"/>
    <path id="Trazado_18668" data-name="Trazado 18668" d="M301.074,213.608,266.826,270.54h4.545c6.25,0,50.192-55.608,50.192-55.608Z" transform="translate(-96.175 -78.049)" fill="#122043"/>
    <path id="Trazado_18669" data-name="Trazado 18669" d="M306.2,433.935H273.339l-2.22-88.515h35.566Z" transform="translate(-98.428 -143.951)" fill="#005558"/>
    <path id="Trazado_18670" data-name="Trazado 18670" d="M399.186,416.06h-37.48l-.268-106.393h39.625Z" transform="translate(-143.584 -126.076)" fill="#53b6b9"/>
    <path id="Trazado_18671" data-name="Trazado 18671" d="M210.434,461.671h-37.48l-.268-60.776H212.31Z" transform="translate(-49.214 -171.686)" fill="#002f4c"/>
    <path id="Trazado_18672" data-name="Trazado 18672" d="M112,486.211H74.519l-.268-36.232h39.625Z" transform="translate(0 -196.227)" fill="#ffc630"/>
    <path id="Trazado_18673" data-name="Trazado 18673" d="M503.065,371.093H459.872V219.727H506.88Z" transform="translate(-192.798 -81.109)" fill="#0f787a"/>
    <path id="Trazado_18674" data-name="Trazado 18674" d="M627.519,341.509H584.326V160.556h47.008Z" transform="translate(-255.021 -51.525)" fill="#002f4c"/>
    <g id="Grupo_9749" data-name="Grupo 9749" transform="translate(228.292 89.699)">
      <path id="Trazado_18675" data-name="Trazado 18675" d="M390,147.666l-2.34,5.165L382.314,150l5.444-6.951Z" transform="translate(-382.314 -132.471)" fill="#f18c72"/>
      <g id="Grupo_9748" data-name="Grupo 9748" transform="translate(5.134 3.245)">
        <path id="Trazado_18676" data-name="Trazado 18676" d="M397.959,141.162a3.036,3.036,0,0,0,1.737-.112c2.492-2.564,1.55-10.779,1.55-10.779l-2.963-1.887-4.486,1.839-1.124,5.206a4.318,4.318,0,0,0,1.195,3.927h0A8.425,8.425,0,0,0,397.959,141.162Z" transform="translate(-392.582 -128.384)" fill="#f7a57a"/>
      </g>
      <path id="Trazado_18677" data-name="Trazado 18677" d="M391.76,130.06c.372-.844.6-2.9,1.475-2.6.636.218,2.863.693,3.618.821,1.8.307,5.125.149,5.591-2.588a3.579,3.579,0,0,0-4.27-3.744c-2.1.355-4.985,1.435-6,1.046-1.7-.655-3.636.08-3.866,1.582a15.2,15.2,0,0,0,.705,5.814,8.532,8.532,0,0,0,1.4,2.656h0Z" transform="translate(-385.276 -121.894)" fill="#122043"/>
      <path id="Trazado_18678" data-name="Trazado 18678" d="M391.213,137.867a1.374,1.374,0,0,1,1.651.435c.45.526.442,1.184-.02,1.47a1.372,1.372,0,0,1-1.65-.435C390.743,138.811,390.752,138.153,391.213,137.867Z" transform="translate(-386.588 -129.815)" fill="#f7a57a"/>
    </g>
    <path id="Trazado_18679" data-name="Trazado 18679" d="M361.912,151.6c-1.506-1.1-19.166-1.428-27.435,30.183,6.231.9,17.441,2.591,17.441,2.591l5.654.754S372.832,159.558,361.912,151.6Z" transform="translate(-130.105 -46.876)" fill="#0f787a"/>
    <g id="Grupo_9751" data-name="Grupo 9751" transform="translate(204.326 134.99)">
      <g id="Grupo_9750" data-name="Grupo 9750" transform="translate(29.49 39.677)">
        <path id="Trazado_18680" data-name="Trazado 18680" d="M398.181,298.574s2.2,2.19,7.349,3.691c1.133.331,2.378-.016,2.313,1.87l-6.3-.218-5.208-1.087-.031.906-2.83-.1s-.629-4.655,1.045-5.192Z" transform="translate(-393.36 -295.134)" fill="#122043"/>
        <path id="Trazado_18681" data-name="Trazado 18681" d="M398.9,291.918l.442,3.343h0a3.2,3.2,0,0,1-3.471,0l-.19-.123.4-3.314Z" transform="translate(-394.52 -291.82)" fill="#f7a57a"/>
      </g>
      <path id="Trazado_18682" data-name="Trazado 18682" d="M334.389,212.471s-.568,13.238,10.013,17.059c6.759,2.441,24.814.2,24.814.2s-5.371,7.993-4.146,23.363c3.7,1.62,4.5.059,4.5.059S385,225.289,380.328,219.791s-26.288-5.9-26.288-5.9Z" transform="translate(-334.383 -212.471)" fill="#002f4c"/>
    </g>
    <g id="Grupo_9753" data-name="Grupo 9753" transform="translate(222.36 113.316)">
      <g id="Grupo_9752" data-name="Grupo 9752" transform="translate(28.613 6.577)">
        <path id="Trazado_18683" data-name="Trazado 18683" d="M431.308,186.085a5.734,5.734,0,0,0,3.386-.42c1.838-.641,5.29-3.177,5.314-.966-1.31,1.753-2.653,3.98-2.653,3.98-.89.977-3.01,1.335-4.371,1.288l-4.17-.682s-1.075-1.874-1.141-1.953l.645-.146C429.35,187.168,430.345,186.436,431.308,186.085Z" transform="translate(-427.673 -183.045)" fill="#f7a57a"/>
        <path id="Trazado_18684" data-name="Trazado 18684" d="M433.379,185.885a1.543,1.543,0,0,0,.288.139c-.2.209-.378.426-.552.648-.919.446-1.825.922-2.739,1.379-.17-.6-.411-1.447-.438-1.5l5.429-4.268s.759.464-.055,1.7A6.833,6.833,0,0,1,433.379,185.885Z" transform="translate(-428.805 -182.279)" fill="#f7a57a"/>
      </g>
      <path id="Trazado_18685" data-name="Trazado 18685" d="M370.45,172.6s2.861,18.047,9.2,18.174,25.119-9.024,25.119-9.024l-2.062-2.839L382.9,183.037l-3.243-13.912Z" transform="translate(-370.45 -169.125)" fill="#f7a57a"/>
    </g>
  </g>
</svg>
