<svg xmlns="http://www.w3.org/2000/svg" width="367.352" height="338.636" viewBox="0 0 367.352 338.636">
  <g id="Grupo_9672" data-name="Grupo 9672" transform="translate(-400.894 -157.059)">
    <g id="Grupo_9662" data-name="Grupo 9662" transform="translate(566.034 309.146)">
      <path id="Trazado_18460" data-name="Trazado 18460" d="M1546.21,1592.833s-3.1,1.786-4.138,1.7-2.2-3.632-3.365-3.781-6.342,1.995-6.788,3.067,2.65,11.582,4.615,11.731,5.523-3.213,8.366-4.7c3.067-1.608,6.61-3.186,6.61-3.186Z" transform="translate(-1518.947 -1517.101)" fill="#f6b68a"/>
      <path id="Trazado_18461" data-name="Trazado 18461" d="M1682.5,2130.441l-1.263,18.109h12.129l1.348-20.72Z" transform="translate(-1644.792 -1969.627)" fill="#f39f89"/>
      <path id="Trazado_18462" data-name="Trazado 18462" d="M2532.613,2095.5l17.249,8.837,7.062-9.686-19.449-12.464Z" transform="translate(-2362.122 -1931.172)" fill="#f39f89"/>
      <path id="Trazado_18463" data-name="Trazado 18463" d="M1467.915,1329.451a19.834,19.834,0,0,1-4.622-.576c-1.978-.576-4.244-5.2-6.132-5.089s-7.229,1.708-7.391,2.7,1.924,11.222,3.057,12.139,3.615,1.331,6.42.2a23.461,23.461,0,0,0,4.136-2.05l5.647.378Z" transform="translate(-1449.76 -1292.175)" fill="#f6b68a"/>
      <path id="Trazado_18464" data-name="Trazado 18464" d="M1620.831,1590.789l-2.918,1.846,3.885,7.146,7.86-3.1Z" transform="translate(-1591.438 -1517.141)" fill="#cde8ea"/>
      <path id="Trazado_18465" data-name="Trazado 18465" d="M1562.081,1350.834l-3.266-.421v10.54l5.538.957Z" transform="translate(-1541.645 -1314.61)" fill="#cde8ea"/>
      <path id="Trazado_18466" data-name="Trazado 18466" d="M1576.4,1281.635v13.577l33.763,5.445s21.486-6.414,28.4-11.251c10.986-7.682,5.721-21.787-3.3-19.226-9.2,2.612-26.975,14.313-26.975,14.313Z" transform="translate(-1556.463 -1246.752)" fill="#00666b"/>
      <path id="Trazado_18467" data-name="Trazado 18467" d="M1906.53,1214.253l3.893,8.658-5.538,2.593-2.938-6.51Z" transform="translate(-1830.752 -1199.889)" fill="#f39f89"/>
      <path id="Trazado_18468" data-name="Trazado 18468" d="M1865.728,1163.724s2.556,5.9,3.131,7.849a7.283,7.283,0,0,1-.12,4.78c-.451.934-4.258,4.646-6.4,4.653s-5.9-5.74-5.831-10.23S1865.728,1163.724,1865.728,1163.724Z" transform="translate(-1792.468 -1157.315)" fill="#f6b68a"/>
      <path id="Trazado_18469" data-name="Trazado 18469" d="M1830.828,1135.293c-1.543,1.226-1.706,3.223-5.541,3.862-4.96.827-6.739-5.117-5.078-6.865s2.59-1.172,3.237-2.289-.163-3.056,1.585-4.156,3.314.434,4.124.023,1.355-2.8,2.915-2.848,2.057,1.912,3.028,1.881,3.2-1.732,4.5-.066-.318,3.67.042,4.61a46.757,46.757,0,0,1,1.75,4.729c.807,3.452-.517,4.741-2.881,6.254-.8-1.7-1.441-3.175-1.82-4.07a2.9,2.9,0,0,0-1.588-1.561A4.122,4.122,0,0,0,1830.828,1135.293Z" transform="translate(-1761.373 -1123.019)" fill="#1b203e"/>
      <path id="Trazado_18470" data-name="Trazado 18470" d="M1927.248,1199.306a2.305,2.305,0,0,1-.756,2.571c-.684.327-1.453-.295-1.719-1.388a2.3,2.3,0,0,1,.756-2.571C1926.212,1197.591,1926.982,1198.213,1927.248,1199.306Z" transform="translate(-1849.907 -1186.052)" fill="#f6b68a"/>
      <path id="Trazado_18471" data-name="Trazado 18471" d="M1913.587,1260.317l.128-2.006,5.56-2.551,1.83,1.875Z" transform="translate(-1840.559 -1234.861)" fill="#51a5a5"/>
      <path id="Trazado_18472" data-name="Trazado 18472" d="M1720.711,1520.589s-31.986,29.037-36.029,33.62-6.654,55.542-6.654,55.542,10.7,2.278,16.425,4.045c2.611-18.7,10.781-41.359,9.349-50.371,34.45-8,57.624-33.033,44.688-59.983Z" transform="translate(-1642.088 -1443.546)" fill="#252a51"/>
      <path id="Trazado_18473" data-name="Trazado 18473" d="M1583.662,2235.525v-10.2l-1.439-2.449s-3.783,2.449-6.984,2.449-2.043-3.258-5.064-3.269-8.5,6.053-11.529,5.885-7.81.421-9.127,2.021,0,5.564,0,5.564Z" transform="translate(-1533.319 -2049.016)" fill="#51a5a5"/>
      <path id="Trazado_18474" data-name="Trazado 18474" d="M1949.124,1520.589s9.2,25.4,35.145,59.514c9.012,10.529,60.813,30.828,60.813,30.828l8.086-14.4s-43.462-27.338-51.548-30.767c-8.086-19.938-6.056-51.8-24.717-62.318Z" transform="translate(-1870.501 -1443.546)" fill="#073e60"/>
      <path id="Trazado_18475" data-name="Trazado 18475" d="M2552.593,2148.386l-10.534-5.9h-1.511s.8,3.434,0,5.209-7.49,1.877-8.277,4.45.778,8.754.778,8.754-7.8-2.084-11.508,0-2.751,7.585-2.751,7.585h23.462Z" transform="translate(-2350.382 -1981.972)" fill="#51a5a5"/>
      <path id="Trazado_18476" data-name="Trazado 18476" d="M1549.083,2289.714a13.334,13.334,0,0,0,.562,2.817h34.143v-2.817Z" transform="translate(-1533.445 -2106.022)" fill="#073e60"/>
      <path id="Trazado_18477" data-name="Trazado 18477" d="M2550.694,2173.2c-3.143,6.176-6.434,12.274-9.776,18.344h-22.159a10.94,10.94,0,0,0,.036,2.817h23.462l10.342-20.094Z" transform="translate(-2350.388 -2007.853)" fill="#073e60"/>
      <path id="Trazado_18478" data-name="Trazado 18478" d="M1450.8,1322.208a1.925,1.925,0,0,1-.2-2.09c.663-.962,3.107-1.99,6.988-.188S1450.8,1322.208,1450.8,1322.208Z" transform="translate(-1450.26 -1288.094)" fill="#f6b68a"/>
      <path id="Trazado_18479" data-name="Trazado 18479" d="M1460.11,1336.22c-.122-2.193-2.565-8.62-3.615-9.183a4.445,4.445,0,0,0-1.814-.292c-2.211.573-4.8,1.549-4.912,2.233-.162.989,1.924,11.222,3.057,12.139a5.4,5.4,0,0,0,3.8.848C1459.574,1341.118,1460.215,1338.1,1460.11,1336.22Z" transform="translate(-1449.76 -1294.669)" fill="#f39f89"/>
      <path id="Trazado_18480" data-name="Trazado 18480" d="M1908.864,1303.6s-11.255-25.906-15.989-31.712-8.754-6.967-15.274-4.2-10.9,11.165-8.623,22.6c1.92,9.651,12.106,30.458,12.106,30.458Z" transform="translate(-1802.462 -1243.709)" fill="#64c0c3"/>
      <path id="Trazado_18481" data-name="Trazado 18481" d="M1672.96,1317.991s16.253-27.276,17.269-33.644c1.31-8.217-3.156-11.433-6.372-12.326s-8.634,1.072-12.266,8.337-11.255,23.283-11.255,23.283l-30.607,18.043,4.764,9.349Z" transform="translate(-1601.393 -1248.392)" fill="#00878a"/>
    </g>
    <g id="Grupo_9664" data-name="Grupo 9664" transform="translate(411.783 269.069)">
      <path id="Trazado_18482" data-name="Trazado 18482" d="M937.982,2175.754l-1.1,9.474,10.154,1.1,1.341-1.958,1.581-13.579Z" transform="translate(-863.38 -1965.743)" fill="#f39f89"/>
      <path id="Trazado_18483" data-name="Trazado 18483" d="M514.371,2101a24.988,24.988,0,0,0-4.033-1.724h-4.789l-4.742-5.747,8.621-13.028-6.847-15.708s-10.485,22.93-13.215,26.571c-1.847,2.462-2.3,7.316-2.365,9.636Z" transform="translate(-484.332 -1876.435)" fill="#f39f89"/>
      <path id="Trazado_18484" data-name="Trazado 18484" d="M1300.132,882.486l4.01-4.414s.934-8.047,3.925-9.339,4.606,2.691,4.606,2.691l1.992,9.339s-4.172,1.265-5.84,2.584a24.232,24.232,0,0,0-3.633,4.145Z" transform="translate(-1169.439 -868.476)" fill="#f6b68a"/>
      <path id="Trazado_18485" data-name="Trazado 18485" d="M1344.884,874.344c-2.3,1.071-6.217,3.1-6.3,5.517s3.1,8.37,7.886,7.24,2.772-9.581,1.911-11.035S1346.041,873.806,1344.884,874.344Z" transform="translate(-1201.837 -873.279)" fill="#f39f89"/>
      <path id="Trazado_18486" data-name="Trazado 18486" d="M901.9,966.23l28.634-27.04,7.914,8.519-23.413,29.733s-22.149,22.369-46.331,20.885c-9.728-1.209-10.546-21.3,2.859-22C885.793,975.591,901.9,966.23,901.9,966.23Z" transform="translate(-799.815 -928.056)" fill="#aed7c6"/>
      <g id="Grupo_9663" data-name="Grupo 9663" transform="translate(67.719 21.921)">
        <path id="Trazado_18487" data-name="Trazado 18487" d="M921.638,1101.471l-1.466,10.693,6.427-.8,1.925.3.793-6.465,1.919-3.834-1.152-3.263-3.781.628Z" transform="translate(-917.021 -1083.871)" fill="#f39f89"/>
        <path id="Trazado_18488" data-name="Trazado 18488" d="M995.286,1067.468a8.085,8.085,0,0,1,.323,2.823,32.142,32.142,0,0,1-2.2,7.978c-1.164,2.364-5.72-1.992-5.72-1.992l-.506-4.4,3.363-5.815Z" transform="translate(-973.478 -1056.876)" fill="#f6b68a"/>
        <path id="Trazado_18489" data-name="Trazado 18489" d="M918.845,1018.469a5.77,5.77,0,0,0,5.6-1.19c2.636-2.316,3.395-5.392,1.7-7.01-2.368-2.266-4.719,1.091-5.776.6s-4.028-3.632-8.346-3.109-6.648,3.756-5.849,6.25c-1.75-1.835-5.523.09-5.975,3.979s2.691,4.462,3.345,5.682.632,2.41,2.559,2.536,5.541-2.383,5.541-2.383l1.817,1.877a3.418,3.418,0,0,0-1.758,2.629c-.094,1.77,1.327,1.658,2.315,3.027,1.2,1.657,4.375,2.294,5.443.953s1.787-3.249.826-3.677c-.788-.351-2.869-.16-3.349-.739s-1.907-2.064-1.956-2.869a16.226,16.226,0,0,1,.926-3.632c.06-.151.989-.082,1.731-.524A2.579,2.579,0,0,0,918.845,1018.469Z" transform="translate(-900.157 -1007.702)" fill="#1d3556"/>
        <path id="Trazado_18490" data-name="Trazado 18490" d="M974.654,1100.849s-.454-1.316-1.6-1.476-1.506,1.951-.716,2.825a2.98,2.98,0,0,0,2.166,1.277C975.153,1103.429,974.654,1100.849,974.654,1100.849Z" transform="translate(-960.622 -1084.932)" fill="#f6b68a"/>
      </g>
      <path id="Trazado_18491" data-name="Trazado 18491" d="M831.311,1166.307c9.311,1.5,11.926,7.53,11.926,13.026s-8.185,37.061-8.185,37.061l-28.428-7.834a220.348,220.348,0,0,1,6.392-28.257C814.658,1174.645,818.011,1164.164,831.311,1166.307Z" transform="translate(-753.633 -1119.175)" fill="#cde8ea"/>
      <path id="Trazado_18492" data-name="Trazado 18492" d="M806.208,1501.432s-23.663-20.457-27.77-39.75,3.4-25.488,3.4-25.488l28.428,7.834,20.158,48.379a11.21,11.21,0,0,1,.674,5.043c-.837,8.675-10.69,37.263-15.73,60.5-5.541-.119-9.471,0-13.639,0C802.2,1545.174,802.278,1514.414,806.208,1501.432Z" transform="translate(-728.849 -1346.81)" fill="#63c0c5"/>
      <path id="Trazado_18493" data-name="Trazado 18493" d="M593.3,1444.028s-11.9,48.781-18.637,60.214S532.2,1559.7,532.2,1559.7s-6.788-4.851-12.5-8.5c7.86-11.151,17.03-38.9,31.083-49.241.715-19.988,2.025-54.482,14.093-65.765C579.929,1439.764,593.3,1444.028,593.3,1444.028Z" transform="translate(-511.879 -1346.81)" fill="#7bc7cb"/>
      <path id="Trazado_18494" data-name="Trazado 18494" d="M474.121,2227.831l-4.071,12.378h35.442a6.12,6.12,0,0,0-2.586-3.9c-2.155-1.293-8.86-1.485-8.86-1.485s-3.552-6.1-6.038-6.166-5.744,3.675-8.091,3.579S477.282,2228.022,474.121,2227.831Z" transform="translate(-470.05 -2013.806)" fill="#073e60"/>
      <path id="Trazado_18495" data-name="Trazado 18495" d="M470.7,2293.841l-.653,1.985h35.442a6.64,6.64,0,0,0-.757-1.985Z" transform="translate(-470.05 -2069.423)" fill="#252a51"/>
      <path id="Trazado_18496" data-name="Trazado 18496" d="M918.327,2231.958l-1.524,10.606h36.831s-.341-5.993-3.927-6.487-10.728-1.341-10.728-1.341-4.684-4.194-7.036-4.108-4.459,4.061-6.9,3.869S921.672,2231.719,918.327,2231.958Z" transform="translate(-846.463 -2016.161)" fill="#073e60"/>
      <path id="Trazado_18497" data-name="Trazado 18497" d="M917.1,2293.537l-.292,2.032h36.831a12.878,12.878,0,0,0-.324-2.032Z" transform="translate(-846.463 -2069.167)" fill="#252a51"/>
      <path id="Trazado_18498" data-name="Trazado 18498" d="M1366.64,1150.575s4.2-1.429,5-3.394,1.016-4.735,1.831-6.766c1-2.5,3.3-3.126,4.109-2.211,1.965-.491,4.02-.335,4.756,2.121s3.506,8.91,2.479,10.763-3.327,2.456-9.736,2.97a24.643,24.643,0,0,0-5.94,2.546Z" transform="translate(-1225.475 -1095.4)" fill="#f6b68a"/>
      <path id="Trazado_18499" data-name="Trazado 18499" d="M879.184,1175.557c-4.177,5.716-.6,13.3,6.54,17.147s35.229,13.85,35.229,13.85l39.351-21-5.936-9.118L922.492,1188.2s-19.84-13.3-27.04-16.983S883.361,1169.841,879.184,1175.557Z" transform="translate(-813.267 -1122.049)" fill="#daeef1"/>
    </g>
    <g id="Grupo_9668" data-name="Grupo 9668" transform="translate(455.321 354.143)">
      <path id="Trazado_18500" data-name="Trazado 18500" d="M1470.488,1468.739l3.287-4.516s-.691-3.617,1.152-5.494,4.928-1.6,5.942.611,2.764,5.481,2.119,6.817-5.113,1.059-7,3.132a32.044,32.044,0,0,0-3.132,4.057Z" transform="translate(-1356.511 -1449.82)" fill="#f6b68a"/>
      <path id="Trazado_18501" data-name="Trazado 18501" d="M1474.02,1511.734c-.432-.386-.905-.889-1.4-1.347l-2.129,2.925,2.366,4.607a32.047,32.047,0,0,1,3.132-4.056c.061-.067.125-.131.191-.194Q1475.1,1512.7,1474.02,1511.734Z" transform="translate(-1356.511 -1494.394)" fill="#fdd148"/>
      <path id="Trazado_18502" data-name="Trazado 18502" d="M1539.877,1690.576l4.285-.768s-.748-2.974,1.049-4.894,5.757-2.056,6.823.13,2.02,5.137,1.384,6.477c-1.135,2.391-13.156,4.22-13.156,4.22Z" transform="translate(-1414.975 -1640.199)" fill="#f6b68a"/>
      <path id="Trazado_18503" data-name="Trazado 18503" d="M1543.157,1725.034l-3.281.588.385,5.165s1.576-.24,3.638-.659C1543.607,1728.436,1543.352,1726.74,1543.157,1725.034Z" transform="translate(-1414.975 -1675.245)" fill="#fdd148"/>
      <g id="Grupo_9665" data-name="Grupo 9665" transform="translate(53.55 66.823)">
        <path id="Trazado_18504" data-name="Trazado 18504" d="M1392.18,2177.537l-.914,3.7-8.324.119,3.535-10.567Z" transform="translate(-1336.299 -2117.64)" fill="#f6b68a"/>
        <path id="Trazado_18505" data-name="Trazado 18505" d="M1359.474,2231.337l-2.545,12.009h5.448l.809-5.1,3.393,5.1h17.284s-.755-4.308-2.412-5.236-7.489-1.114-7.489-1.114a33.074,33.074,0,0,0-4.334-5.659Z" transform="translate(-1314.381 -2168.656)" fill="#232c54"/>
        <path id="Trazado_18506" data-name="Trazado 18506" d="M1357.3,2296.381l-.374,1.768h5.448l.28-1.768Z" transform="translate(-1314.382 -2223.458)" fill="#0c7676"/>
        <path id="Trazado_18507" data-name="Trazado 18507" d="M1411.05,2296.381l1.128,1.768h17.284a15.386,15.386,0,0,0-.409-1.768Z" transform="translate(-1359.981 -2223.458)" fill="#0c7676"/>
        <path id="Trazado_18508" data-name="Trazado 18508" d="M1131.243,1893.8l11.333.212s10.1-22.888,10.987-40.615-5.2-19.862-13.053-20.144-44.074,1.37-44.074,1.37-16.838,11.194-6.238,20.094,36.292,6.617,41.208,4.2c0,0-.242,5.4-.887,6.688s-1.531,3.424-1.41,4.351,2.377,4.633,2.74,6.245-1.813,3.263-1.571,6.043S1130.876,1891.809,1131.243,1893.8Z" transform="translate(-1086.694 -1833.225)" fill="#0f7878"/>
      </g>
      <g id="Grupo_9667" data-name="Grupo 9667">
        <path id="Trazado_18509" data-name="Trazado 18509" d="M1172.864,1529.759c4.457-3.689,11.257,2.142,13.058,3.9s6.27,9.337,9.436,9.119,3.519-3.513,5.5-5.227,1.832-.868,2.953-1.9.8-1.989,1.707-3.046,3.144-.985,4.249-2.343.722-2.706,2.027-3.93a5.066,5.066,0,0,1,4.731-1.087c1.374.451,4.143,3.425,4.143,3.425s2.4,4.552.636,7.754-2.7,1.55-4.106,3.144-.268,3.917-1.729,5.774-3.816,1.42-5.294,3.194-1.27,3.232-2.312,4.516-3.529,1.508-4.776,2.687a13.257,13.257,0,0,1-7.957,3.229c-3.278-.022-15.982-5.768-22-14.435C1168.1,1537.28,1170.041,1532.094,1172.864,1529.759Z" transform="translate(-1103.353 -1506.745)" fill="#f5a40a"/>
        <path id="Trazado_18510" data-name="Trazado 18510" d="M821.152,2162.336l-10.265-.48v7.256l50.133,5.49Z" transform="translate(-800.761 -2043.292)" fill="#f6b68a"/>
        <path id="Trazado_18511" data-name="Trazado 18511" d="M1223.406,1461.84s-.365,4.288,1.27,5.925,5.516,4.175,6.6,7.432-2.57,9.081-.649,13,4.456,3.286,6.842,7.069c2.4,3.8,2.01,9.787-1.075,12.387-4.462,3.76-7.979,2.423-9.906.6s-1.234-4.677-3.013-6.558-3.3-.293-5.488-5.057-10.07-20.059-10.07-20.059l1.787-15.095Z" transform="translate(-1135.281 -1453.19)" fill="#232949"/>
        <path id="Trazado_18512" data-name="Trazado 18512" d="M1205.8,1508.271l-1.516,4.246-5.247-.885,2.068-7.657Z" transform="translate(-1127.799 -1488.991)" fill="#f39f89"/>
        <path id="Trazado_18513" data-name="Trazado 18513" d="M758.223,2155.68v7.817l-4.14,7.35.372,1.338a6.8,6.8,0,0,1,4.224,6.509h-8.974l-2.651-8.02a5.164,5.164,0,0,1,.7-4.622l3.1-4.341a.561.561,0,0,0-.409-.945h-3.869v-5.678S754.517,2154.2,758.223,2155.68Z" transform="translate(-746.578 -2037.365)" fill="#232c54"/>
        <path id="Trazado_18514" data-name="Trazado 18514" d="M1203.764,1455.244s4.037,4.169,8.172,3.144,5.384-11.53,5.384-11.53l-8-3.389Z" transform="translate(-1131.782 -1438.012)" fill="#f6b68a"/>
        <path id="Trazado_18515" data-name="Trazado 18515" d="M1158.219,1410.81a8.653,8.653,0,0,1,8.06-1.626c2.254.824,3,3.1,4.729,3.183,2.34.116,3.883-.426,4.812.379,3.063,2.655.892,9.763-6.1,6.634s-4.19,3.154-5.843,3.372-.78-3.717-1.7-3.423-.572,2.416-.819,3.506-2.663,5.372-1.1,8.94-9.527,6.833-9.527,6.833,6.71-5.311,4.29-12.169C1152.109,1418.2,1154.389,1414.217,1158.219,1410.81Z" transform="translate(-1087.097 -1408.809)" fill="#222c53"/>
        <path id="Trazado_18516" data-name="Trazado 18516" d="M1210.526,1467.959c-.236,1.208-.844,2.26-1.834,2.067a2.558,2.558,0,0,1-1.751-2.768,1.863,1.863,0,1,1,3.585.7Z" transform="translate(-1134.429 -1456.484)" fill="#f6b68a"/>
        <g id="Grupo_9666" data-name="Grupo 9666" transform="translate(0 117.572)">
          <path id="Trazado_18517" data-name="Trazado 18517" d="M748.444,2231.273a5.164,5.164,0,0,0-.229,3.816l2.651,8.02h8.974a5.261,5.261,0,0,0-.181-1.382h-7.935Z" transform="translate(-747.737 -2219.351)" fill="#0c7676"/>
          <path id="Trazado_18518" data-name="Trazado 18518" d="M748.373,2155.552c-1.089.072-1.795.152-1.795.152v5.678h1.795Z" transform="translate(-746.578 -2155.552)" fill="#0c7676"/>
        </g>
        <path id="Trazado_18519" data-name="Trazado 18519" d="M1063.195,1588.917s6.112-37.7,24.462-35.9c6.7,1.549,9.929,11.727,10.323,15.856.432,4.529-6.38,12.008-6.38,12.008l-9.145,18.928Z" transform="translate(-1013.345 -1530.258)" fill="#fdd148"/>
        <path id="Trazado_18520" data-name="Trazado 18520" d="M830.744,1842.7l.909,15.61s4.425,2.2,6.807,2.2,5.4-3.7,6.908-3.454,4.234,2.67,7.242,3.449,5.8-3.1,10.017-1.3,22.346-.711,27.5-2.753,6.608-6.007,5.991-14.494-9.516-48.095-9.516-48.095l-19.107-10.59s-7.039,4.236-10.254,16.026c-3.314,12.15,4.5,29.148,14.033,38.038C862.815,1831.707,845.135,1842.6,830.744,1842.7Z" transform="translate(-817.492 -1724.323)" fill="#158990"/>
        <path id="Trazado_18521" data-name="Trazado 18521" d="M1181.74,1559.011c4.917-3.049,10.861,3.651,12.408,5.635s8.968,16.023,11.311,18.164,6.7,1.121,9.319,1.021,1.973.467,3.492.362,1.867-1.053,3.236-1.311,3.07,1.195,4.781.825,2.254-1.662,4.038-1.8a5.066,5.066,0,0,1,4.373,2.106c.791,1.211,1.4,6.109,1.4,6.109s-1.278,4.2-4.652,5.605-3.079-.478-5.17-.11-2.656,2.891-4.957,3.428-3.867-1.276-6.13-.814-3.01,1.73-4.627,2.082-3.7-1.027-5.408-.885-5.72.556-7.966-1.83-12.4-14.51-17.185-23.914C1176,1565.816,1178.626,1560.942,1181.74,1559.011Z" transform="translate(-1110.051 -1534.703)" fill="#ffd049"/>
      </g>
    </g>
    <path id="Trazado_18522" data-name="Trazado 18522" d="M1254.917,551.958l-93.451-328.123-3.19.908,93.192,327.214Z" transform="translate(-638.136 -56.262)" fill="#63c0c5"/>
    <path id="Trazado_18523" data-name="Trazado 18523" d="M1542.758,1594.429a2.1,2.1,0,0,1-.686.1c-1.042-.089-2.2-3.632-3.365-3.781s-6.342,1.995-6.788,3.067,2.65,11.582,4.615,11.731,5.523-3.213,8.366-4.7c.469-.246.948-.49,1.425-.729C1545.087,1598.244,1543.88,1596.359,1542.758,1594.429Z" transform="translate(-952.913 -1207.955)" fill="#f6b68a"/>
    <path id="Trazado_18524" data-name="Trazado 18524" d="M1574.136,1685.043c-1.066-2.186-5.026-2.05-6.823-.13s-1.049,4.894-1.049,4.894l-.025,0c.539,1.62,1.033,3.256,1.542,4.886,3.351-.764,7.127-1.889,7.739-3.178C1576.156,1690.18,1575.2,1687.229,1574.136,1685.043Z" transform="translate(-981.756 -1286.057)" fill="#f6b68a"/>
    <path id="Trazado_18525" data-name="Trazado 18525" d="M1460.11,1336.22c-.122-2.193-2.565-8.62-3.615-9.183a4.445,4.445,0,0,0-1.814-.292c-2.211.573-4.8,1.549-4.912,2.233-.162.989,1.924,11.222,3.057,12.139a5.4,5.4,0,0,0,3.8.848C1459.574,1341.118,1460.215,1338.1,1460.11,1336.22Z" transform="translate(-883.726 -985.523)" fill="#f39f89"/>
    <path id="Trazado_18526" data-name="Trazado 18526" d="M1498.07,1458.814c-.217,1.808,1.241,4.322,2.256,5.262a9.826,9.826,0,0,0,5.656,2.372.969.969,0,0,0,.226-.29c.645-1.336-1.106-4.606-2.119-6.817s-4.1-2.487-5.942-.611C1498.121,1458.756,1498.1,1458.785,1498.07,1458.814Z" transform="translate(-924.412 -1095.677)" fill="#f39f89"/>
    <path id="Trazado_18527" data-name="Trazado 18527" d="M1415.038,1140.326c-.737-2.456-2.791-2.613-4.756-2.121-.8-.916-3.1-.293-4.109,2.211a16.568,16.568,0,0,0-.723,2.5c.96,3.716,2.257,7.359,3.224,11.067,5.73-.5,7.864-1.131,8.842-2.895C1418.544,1149.235,1415.775,1142.782,1415.038,1140.326Z" transform="translate(-846.393 -826.33)" fill="#f6b68a"/>
    <path id="Trazado_18528" data-name="Trazado 18528" d="M1344.884,874.344c-2.3,1.071-6.217,3.1-6.3,5.517s3.1,8.37,7.886,7.24,2.772-9.581,1.911-11.035S1346.041,873.806,1344.884,874.344Z" transform="translate(-790.054 -604.21)" fill="#f39f89"/>
    <path id="Trazado_18529" data-name="Trazado 18529" d="M543.947,304.216,417.02,345.566l41.8-52.968-57.93-14.265,122.862-45.01Z" transform="translate(0 -64.256)" fill="#ffd049"/>
    <g id="Grupo_9671" data-name="Grupo 9671" transform="translate(470.251 191.73)">
      <rect id="Rectángulo_2129" data-name="Rectángulo 2129" width="2.925" height="11.974" transform="translate(27.763 34.964) rotate(-19.277)" fill="#f5a40a"/>
      <circle id="Elipse_512" data-name="Elipse 512" cx="7.62" cy="7.62" r="7.62" transform="translate(20.048 22.645)" fill="#f5a40a"/>
      <path id="Trazado_18530" data-name="Trazado 18530" d="M1030.586,641.4a4.832,4.832,0,0,0-9.107,3.185Z" transform="translate(-992.967 -597.299)" fill="#f5a40a"/>
      <path id="Trazado_18531" data-name="Trazado 18531" d="M1023.073,655.514c-1.067-2.322-5.16-3.03-9.355-1.563s-6.955,4.572-6.342,7.053Z" transform="translate(-981.173 -609.744)" fill="#f5a40a"/>
      <g id="Grupo_9669" data-name="Grupo 9669" transform="translate(0 11.267)">
        <path id="Trazado_18532" data-name="Trazado 18532" d="M854.857,466.313q-.161.056-.33.1a4.1,4.1,0,0,1-4.788-2.077c-.163-.341-.293-.425-1.425-.617a7.113,7.113,0,0,1-4.678-2.389,7.982,7.982,0,0,1-2.171-6.3,7.222,7.222,0,0,1,3.481-5.1c3.842-2.526,7.613-.137,9.07,1.48l.189.21.1.265c.3.794,2.891,7.842,3.092,10.64A3.675,3.675,0,0,1,854.857,466.313Zm-7.433-14.334a3.87,3.87,0,0,0-.849.425,4.382,4.382,0,0,0-2.173,3.025,5.092,5.092,0,0,0,1.463,3.95,4.275,4.275,0,0,0,2.946,1.42,4.229,4.229,0,0,1,3.6,2.263,1.164,1.164,0,0,0,1.357.487c.476-.125.7-.4.67-.815-.138-1.923-1.977-7.266-2.8-9.525C851.064,452.662,849.38,451.295,847.424,451.979Z" transform="translate(-841.406 -448.826)" fill="#f5a40a"/>
      </g>
      <path id="Trazado_18533" data-name="Trazado 18533" d="M895.969,381.367l-11.73,4.1s-.657,2.932,2.633,12.34c5.42,15.5,13.26,16.834,19.92,14.505s11.582-9.334,6.538-23.758c-3.172-9.068-5.631-11.291-5.631-11.291Z" transform="translate(-877.451 -377.265)" fill="#f5a40a"/>
      <g id="Grupo_9670" data-name="Grupo 9670" transform="translate(29.196 1.189)">
        <path id="Trazado_18534" data-name="Trazado 18534" d="M1035.492,403.852a3.675,3.675,0,0,1-4.349-1.382c-1.587-2.312-3.949-9.442-4.213-10.247l-.088-.269.017-.282c.132-2.172,1.592-6.39,6.171-6.81a7.222,7.222,0,0,1,5.9,1.821,7.982,7.982,0,0,1,2.229,6.28,7.111,7.111,0,0,1-2.17,4.783c-.765.856-.815,1-.729,1.371a4.1,4.1,0,0,1-2.45,4.608C1035.706,403.772,1035.6,403.815,1035.492,403.852Zm-5.649-12.256c.76,2.281,2.652,7.608,3.743,9.2a.752.752,0,0,0,1.033.22,1.164,1.164,0,0,0,.757-1.227,4.228,4.228,0,0,1,1.407-4.015,4.277,4.277,0,0,0,1.419-2.947,5.092,5.092,0,0,0-1.318-4,4.382,4.382,0,0,0-3.585-1.012C1030.541,388.066,1029.959,390.742,1029.843,391.6Z" transform="translate(-1026.842 -384.819)" fill="#f5a40a"/>
      </g>
    </g>
    <path id="Trazado_18535" data-name="Trazado 18535" d="M1142.119,157.059l-1.3,9.063,2.749,2.359,3.189-.908.773-3.495Z" transform="translate(-623.425)" fill="#51a5a5"/>
  </g>
</svg>
