<svg xmlns="http://www.w3.org/2000/svg" xmlns:xlink="http://www.w3.org/1999/xlink" width="672" height="516.061" viewBox="0 0 672 516.061">
  <defs>
    <linearGradient id="linear-gradient" y1="0.5" x2="1" y2="0.5" gradientUnits="objectBoundingBox">
      <stop offset="0" stop-color="#dfefea"/>
      <stop offset="1" stop-color="#bfe3ee"/>
    </linearGradient>
    <linearGradient id="linear-gradient-2" x1="3.703" y1="0.5" x2="4.703" y2="0.5" xlink:href="#linear-gradient"/>
    <linearGradient id="linear-gradient-3" y1="0.5" x2="1" y2="0.5" gradientUnits="objectBoundingBox">
      <stop offset="0" stop-color="#f1f8f7"/>
      <stop offset="1" stop-color="#bfe3ee"/>
    </linearGradient>
  </defs>
  <g id="Grupo_10433" data-name="Grupo 10433" transform="translate(-273.327 -255.984)">
    <g id="Grupo_10354" data-name="Grupo 10354" transform="translate(563.907 436.138)">
      <path id="Trazado_19791" data-name="Trazado 19791" d="M1719.162,1179.771s41.33-13.619,51.717-33.135c5-9.4-2.1-20.387-12.748-20.179-31.139.608-42.6,50.064-42.6,50.064Z" transform="translate(-1662.082 -1098.965)" fill="#212b53"/>
      <g id="Grupo_10351" data-name="Grupo 10351" transform="translate(52.895 32.04)">
        <path id="Trazado_19792" data-name="Trazado 19792" d="M1714.32,1197.041l-1.1-.648c1.139-1.933,27.8-47.31,53.911-50.859l.911,1.1C1742.543,1150.1,1714.6,1196.573,1714.32,1197.041Z" transform="translate(-1713.221 -1145.534)" fill="#00666b"/>
      </g>
      <path id="Trazado_19793" data-name="Trazado 19793" d="M1564.626,1059.965a57.207,57.207,0,0,1-9.366-17.615c-4.161-13.855,5.119-28.256,19.381-30.682,8-1.361,17.872-.044,27.157,9.369,20.405,20.689-7.085,77.168-7.085,77.168h-9.92S1584.419,1086.423,1564.626,1059.965Z" transform="translate(-1539.284 -1011.216)" fill="#00666b"/>
      <path id="Trazado_19794" data-name="Trazado 19794" d="M1525.935,1243.4s-28.926-6.3-34.173-28.436a10.741,10.741,0,0,1,11.055-13.055c35.82,1.826,34.17,41.491,34.17,41.491Z" transform="translate(-1491.478 -1156.409)" fill="#01888b"/>
      <g id="Grupo_10352" data-name="Grupo 10352" transform="translate(29.767 1.562)">
        <path id="Trazado_19795" data-name="Trazado 19795" d="M1636.6,1103.337l-1.242-.289c.133-.57,12.574-57.477-19.09-84.74l1.373-.543C1649.887,1045.533,1636.73,1102.76,1636.6,1103.337Z" transform="translate(-1616.264 -1017.765)" fill="#fff"/>
      </g>
      <g id="Grupo_10353" data-name="Grupo 10353" transform="translate(1.117 50.249)">
        <path id="Trazado_19796" data-name="Trazado 19796" d="M1535.824,1258.93c-.2-.339-20.287-33.849-39.664-35.842l.718-1.221c20.022,2.058,39.225,35.015,40.047,36.418Z" transform="translate(-1496.16 -1221.867)" fill="#00666b"/>
      </g>
      <rect id="Rectángulo_2217" data-name="Rectángulo 2217" width="36.911" height="35.06" transform="translate(27.938 86.99)" fill="#f6a505"/>
      <path id="Trazado_19797" data-name="Trazado 19797" d="M1631.634,1378.271h-42.189a2.558,2.558,0,0,1-2.551-2.551h0a2.558,2.558,0,0,1,2.551-2.551h42.189a2.558,2.558,0,0,1,2.551,2.551h0A2.558,2.558,0,0,1,1631.634,1378.271Z" transform="translate(-1564.133 -1286.829)" fill="#ffda71"/>
    </g>
    <g id="Grupo_10356" data-name="Grupo 10356" transform="translate(349.701 289.215)">
      <path id="Trazado_19798" data-name="Trazado 19798" d="M593.5,460.877V398.993a3.7,3.7,0,0,1,3.7-3.7H813.588a3.7,3.7,0,0,1,3.7,3.7v47.733a3.7,3.7,0,0,1-3.7,3.7H614.534a3.7,3.7,0,0,0-2.6,1.069L599.8,463.5A3.7,3.7,0,0,1,593.5,460.877Z" transform="translate(-593.498 -395.296)" fill="#0d496d"/>
      <g id="Grupo_10355" data-name="Grupo 10355" transform="translate(15.806 8.255)">
        <rect id="Rectángulo_2218" data-name="Rectángulo 2218" width="199.389" height="3.716" fill="#01888b"/>
        <rect id="Rectángulo_2219" data-name="Rectángulo 2219" width="199.389" height="3.716" transform="translate(0 9.758)" fill="#01888b"/>
        <rect id="Rectángulo_2220" data-name="Rectángulo 2220" width="199.389" height="3.716" transform="translate(0 19.517)" fill="#01888b"/>
        <rect id="Rectángulo_2221" data-name="Rectángulo 2221" width="101.923" height="3.716" transform="translate(0 29.275)" fill="#01888b"/>
      </g>
    </g>
    <g id="Grupo_10361" data-name="Grupo 10361" transform="translate(336.504 363.503)">
      <g id="Grupo_10358" data-name="Grupo 10358" transform="translate(111.766)">
        <path id="Trazado_19799" data-name="Trazado 19799" d="M1030.316,850.955l-6.2,16.731-17.409-7.7,15.54-23.026Z" transform="translate(-1006.71 -805.891)" fill="#f39f85"/>
        <g id="Grupo_10357" data-name="Grupo 10357" transform="translate(15.005 12.281)">
          <path id="Trazado_19800" data-name="Trazado 19800" d="M1082.033,796.471c2.011.918,3.995,1.523,5.341,1.211,9.8-5.515,14.29-31.144,14.29-31.144l-7.256-8.336-15.176,1.548-8.036,14.708a13.586,13.586,0,0,0,.1,12.914h0A26.519,26.519,0,0,0,1082.033,796.471Z" transform="translate(-1069.614 -758.201)" fill="#f7b58e"/>
        </g>
        <path id="Trazado_19801" data-name="Trazado 19801" d="M1072.681,729.965c1.878-2.213,4.4-8.2,6.767-6.52,1.725,1.227,8.023,4.645,10.186,5.706,5.155,2.528,15.332,5.018,19.18-2.825,1.923-3.922-.222-9.169-2.138-11.356a11.637,11.637,0,0,0-7.408-3.75c-6.649-.8-16.324-.115-19.03-2.192-4.552-3.492-11.044-3-13.078,1.324-2.173,4.621-3.163,12.69-3.058,18.175a26.841,26.841,0,0,0,1.844,9.26h0Z" transform="translate(-1050.406 -706.719)" fill="#212b53"/>
        <path id="Trazado_19802" data-name="Trazado 19802" d="M1071.339,795.506c1.646-.451,3.7.8,4.592,2.785s.276,3.966-1.37,4.417-3.7-.8-4.592-2.785S1069.692,795.957,1071.339,795.506Z" transform="translate(-1054.568 -774.256)" fill="#f7b58e"/>
      </g>
      <g id="Grupo_10359" data-name="Grupo 10359" transform="translate(29.803 374.569)">
        <path id="Trazado_19803" data-name="Trazado 19803" d="M681.551,2319.033s.045,10.344,20.823,16.554c4.262,1.274,2.876,2.535,3.676,4.327H682.138l-9.363-10.525-2.911,2.5-6.751-6.633s3.153-9.6,8.293-9.683Z" transform="translate(-663.113 -2306.365)" fill="#212b53"/>
        <path id="Trazado_19804" data-name="Trazado 19804" d="M711.908,2280.672l-3.885,8.957h0a9.371,9.371,0,0,1-9.716-2.952l-.429-.506,3.139-9.211Z" transform="translate(-689.585 -2276.961)" fill="#f7b58e"/>
      </g>
      <path id="Trazado_19805" data-name="Trazado 19805" d="M728.826,896.2c-46.317-5.092-88.844,81.552-88.844,81.552l55.983,39.3S756.4,961.722,746.6,912.8A20.744,20.744,0,0,0,728.826,896.2Z" transform="translate(-615.696 -850.838)" fill="#01888b"/>
      <g id="Grupo_10360" data-name="Grupo 10360" transform="translate(1.009 382.582)">
        <path id="Trazado_19806" data-name="Trazado 19806" d="M556.2,2351.351s6.665,6.182,21.862,10.053c3.346.852,6.953-.286,6.953,5.233H566.576l-15.338-2.652v2.652h-8.284s-2.307-13.548,2.532-15.286Z" transform="translate(-542.404 -2341.619)" fill="#212b53"/>
        <path id="Trazado_19807" data-name="Trazado 19807" d="M564.41,2310.555l1.629,9.731h0a9.371,9.371,0,0,1-10.149.341l-.569-.341.825-9.731Z" transform="translate(-552.241 -2310.555)" fill="#f7b58e"/>
      </g>
      <path id="Trazado_19808" data-name="Trazado 19808" d="M713.579,1353.829s30.684,55.715,26.647,85.187S682.9,1571.2,682.9,1571.2l-9.689-4.441s10.768-82.8,20.753-111.406c2.36-6.763,3.747-13.81.616-20.253-13.945-28.7-31.462-76.021-31.462-76.021l28.3-20.81Z" transform="translate(-633.31 -1187.616)" fill="#212b53"/>
      <path id="Trazado_19809" data-name="Trazado 19809" d="M984.782,1026.645s25.065,25.3,41.214,37.143c13.182,9.666,41.066,18.256,50.87,21.088a9.022,9.022,0,0,0,6.682-.678l9.2-4.8,27.454.538s0,4.912-16.688,5.921a43.844,43.844,0,0,1-5.922,8.342,9.447,9.447,0,0,1-8.173,2.988c-12.367-1.534-48.064-6.619-72.034-16.713-29.4-12.381-59.214-37.143-59.214-37.143Z" transform="translate(-857.983 -950.329)" fill="#f7b58e"/>
      <path id="Trazado_19810" data-name="Trazado 19810" d="M605.26,1268.813l-52.221,230.659h-11.3s-8.776-81.075,1.227-122.879a58.652,58.652,0,0,0,1.184-19c-5.615-60.961-2.067-98.255,18.314-118.822Z" transform="translate(-538.174 -1111.854)" fill="#053c5e"/>
    </g>
    <g id="Grupo_10364" data-name="Grupo 10364" transform="translate(624.669 746.615)">
      <path id="Trazado_19811" data-name="Trazado 19811" d="M1776.73,2360.322l-23-.036c-3.053.426-6.466,1.585-7.038,5.119a27.173,27.173,0,0,0-.332,4.678c.814,1.275,31.307-.17,31.307-.17l.133-.146C1781.034,2364.577,1776.73,2360.322,1776.73,2360.322Z" transform="translate(-1746.318 -2348.952)" fill="#00666b"/>
      <path id="Trazado_19812" data-name="Trazado 19812" d="M1746.246,2400.813l31.307-.17-.271,1.626H1746.2Z" transform="translate(-1746.201 -2379.683)" fill="#00666b"/>
      <g id="Grupo_10362" data-name="Grupo 10362" transform="translate(19.238 11.334)">
        <path id="Trazado_19813" data-name="Trazado 19813" d="M1828.919,2360.286l-2.07.019.645,3.763h2.008Z" transform="translate(-1826.849 -2360.286)" fill="#fff"/>
      </g>
      <g id="Grupo_10363" data-name="Grupo 10363" transform="translate(14.798 11.334)">
        <path id="Trazado_19814" data-name="Trazado 19814" d="M1810.3,2360.286l-2.071.019.645,3.763h2.009Z" transform="translate(-1808.234 -2360.286)" fill="#fff"/>
      </g>
      <path id="Trazado_19815" data-name="Trazado 19815" d="M1847.431,2312.774l-.94,11.37h0a5.787,5.787,0,0,1-6.166.195l-.349-.205-2.006-10.216Z" transform="translate(-1816.079 -2312.774)" fill="#f7b58e"/>
    </g>
    <path id="Trazado_19816" data-name="Trazado 19816" d="M1816.56,1643.237v9.614a31.249,31.249,0,0,1-25.686,30.818c-13.417,2.381-19,2.567-39.076-4.829,19.026,32.829,4.422,127.491,4.422,127.491h-9.07l-28.237-140.838a16.9,16.9,0,0,1,15.891-22.987Z" transform="translate(-1099.876 -1055.777)" fill="#222c53"/>
    <g id="Grupo_10365" data-name="Grupo 10365" transform="translate(657.543 634.283)">
      <path id="Trazado_19817" data-name="Trazado 19817" d="M1888.117,1977.136l-4.105-.92,12.037-134.353,4.1.919Z" transform="translate(-1884.011 -1841.864)" fill="#01888b"/>
    </g>
    <path id="Trazado_19818" data-name="Trazado 19818" d="M2021.839,1394.687s35.091-90.9,10.8-114.18c-14.423-13.823-41.272-11.815-60.708-7.9a28.748,28.748,0,0,0-23.131,28.161v92.921Z" transform="translate(-1275.801 -771.912)" fill="#ffda71"/>
    <path id="Trazado_19819" data-name="Trazado 19819" d="M1913.558,1265.255a40.981,40.981,0,0,1,21.149-14.645,80.5,80.5,0,0,1,22.283-2.9q1.113,0,2.187.033c17.358.524,31.5,10.963,39.164,26.548l3.85,7.725-20.229,7.86-3.728-5.9,3.382,58.636h-56.525l.585-65.918-19.658.347Z" transform="translate(-1243.226 -755.159)" fill="#01888b"/>
    <path id="Trazado_19820" data-name="Trazado 19820" d="M2078.847,1185.757l-1.064,8.021s-.455,4.162,6.979,4.162a11.163,11.163,0,0,0,6.229-1.508,4.5,4.5,0,0,0,1.923-4.373l-2.3-17.269Z" transform="translate(-1374.014 -699.633)" fill="#f39f85"/>
    <path id="Trazado_19821" data-name="Trazado 19821" d="M2131.841,1393.95s9.71,21.5,5.549,27.4-59.588-6.589-59.588-6.589v-7.282l41.9,2.774-5.835-9.436Z" transform="translate(-1374.031 -866.513)" fill="#f7b58e"/>
    <path id="Trazado_19822" data-name="Trazado 19822" d="M1841.782,1439.092s-13.507,8.768-13.517,15.4,24.736,1.6,24.736,1.6Z" transform="translate(-1184.02 -900.887)" fill="#f7b58e"/>
    <path id="Trazado_19823" data-name="Trazado 19823" d="M2036.522,1108.067c-2.095.367-4.094.425-5.289-.268-7.981-8.326-6.474-35.531-6.474-35.531l22.594-.6,4.267,17.14a14.82,14.82,0,0,1-2.979,13.047h0A23.775,23.775,0,0,1,2036.522,1108.067Z" transform="translate(-1333.555 -621.112)" fill="#f7b58e"/>
    <path id="Trazado_19824" data-name="Trazado 19824" d="M1991.381,1023.461c2.945-3.306,7.6-3.966,9.814-2.675,1.642.959,7.31-8.394,18.547-7.7,7.723.477,18.038,12.452,5.367,36.2-.839-2.649-6.583-17.259-10.482-14.555a22.667,22.667,0,0,1-11.2,5.149c-4.337.73-10.46-1.675-13.082-5.207C1988.137,1031.694,1987.095,1028.34,1991.381,1023.461Z" transform="translate(-1305.977 -576.474)" fill="#212b53"/>
    <path id="Trazado_19825" data-name="Trazado 19825" d="M2118.691,1112.44c-1.446-.918-3.656-.23-4.936,1.534s-1.146,3.939.3,4.856,3.656.231,4.937-1.534S2120.137,1113.357,2118.691,1112.44Z" transform="translate(-1400.739 -651.846)" fill="#f7b58e"/>
    <path id="Trazado_19826" data-name="Trazado 19826" d="M2127.536,990.014s2.551-4.969,11.313-3.069c15.779,4.293,13.8,23.205,12.179,32.868a18.431,18.431,0,0,0,3.667,14.466c7.81,9.947,19.448,29.1,3.986,40.036a12.181,12.181,0,0,1-10.084,2.055,10.99,10.99,0,0,1-6.8-5.266,12.785,12.785,0,0,1-1.117-9.981c.733-2.545,1.43-6.037.432-7.82-1.684-3.006-11.343-8.878-11.971-17.975s5.145-12.6,6.556-22.194c2.486-16.886-1.189-19.015-1.189-19.015Z" transform="translate(-1411.902 -556.266)" fill="#212b53"/>
    <path id="Trazado_19827" data-name="Trazado 19827" d="M2127.181,1008.131l-7.482-4.073,1.869-2.865,6.97,4.1Z" transform="translate(-1405.935 -567.445)" fill="#f6a505"/>
    <g id="Grupo_10366" data-name="Grupo 10366" transform="translate(741.983 634.283)">
      <path id="Trazado_19828" data-name="Trazado 19828" d="M2250.033,1977.136l4.105-.92L2242.1,1841.864l-4.1.919Z" transform="translate(-2237.998 -1841.864)" fill="#01888b"/>
    </g>
    <path id="Trazado_19829" data-name="Trazado 19829" d="M2011.721,1779.729H1934.5c0-5.159,2.8-9.65,6.8-10.868,14.066-4.288,42.555-13.195,62.651-10.294,6.662.962,11.289,9.212,9.355,17.266A11.671,11.671,0,0,1,2011.721,1779.729Z" transform="translate(-1264.91 -1143.72)" fill="#f6a505"/>
    <g id="Grupo_10369" data-name="Grupo 10369" transform="translate(646.376 746.615)">
      <path id="Trazado_19830" data-name="Trazado 19830" d="M1867.726,2360.322l-23-.036c-3.052.426-6.466,1.585-7.038,5.119a27.186,27.186,0,0,0-.332,4.678c.813,1.275,31.307-.17,31.307-.17l.133-.146C1872.03,2364.577,1867.726,2360.322,1867.726,2360.322Z" transform="translate(-1837.314 -2348.952)" fill="#01888b"/>
      <path id="Trazado_19831" data-name="Trazado 19831" d="M1837.241,2400.813l31.307-.17-.271,1.626H1837.2Z" transform="translate(-1837.196 -2379.683)" fill="#00666b"/>
      <g id="Grupo_10367" data-name="Grupo 10367" transform="translate(19.238 11.334)">
        <path id="Trazado_19832" data-name="Trazado 19832" d="M1919.915,2360.286l-2.071.019.645,3.763h2.008Z" transform="translate(-1917.844 -2360.286)" fill="#fff"/>
      </g>
      <g id="Grupo_10368" data-name="Grupo 10368" transform="translate(14.798 11.334)">
        <path id="Trazado_19833" data-name="Trazado 19833" d="M1901.3,2360.286l-2.071.019.645,3.763h2.009Z" transform="translate(-1899.23 -2360.286)" fill="#fff"/>
      </g>
      <path id="Trazado_19834" data-name="Trazado 19834" d="M1938.427,2312.774l-.94,11.37h0a5.787,5.787,0,0,1-6.165.195l-.349-.205-2.006-10.216Z" transform="translate(-1907.075 -2312.774)" fill="#f7b58e"/>
    </g>
    <path id="Trazado_19835" data-name="Trazado 19835" d="M1907.556,1643.237v9.614a31.249,31.249,0,0,1-25.686,30.818c-13.417,2.381-16.243,4.646-36.319-2.75,12.534,39.3,1.665,125.412,1.665,125.412h-9.07l-28.237-140.838a16.9,16.9,0,0,1,15.891-22.987Z" transform="translate(-1169.165 -1055.777)" fill="#053c5e"/>
    <g id="Grupo_10386" data-name="Grupo 10386" transform="translate(706.957 362.303)">
      <g id="Grupo_10385" data-name="Grupo 10385">
        <g id="Grupo_10382" data-name="Grupo 10382" transform="translate(46.954 149.588)">
          <g id="Grupo_10370" data-name="Grupo 10370" transform="translate(0 197.823)">
            <path id="Trazado_19836" data-name="Trazado 19836" d="M2415.988,2160.747l.061,35.425s6.136,2.228,9.455,1.909,5.955-3.409,5.955-3.409l2.106-36.592Z" transform="translate(-2385.457 -2158.08)" fill="#f6b590"/>
            <path id="Trazado_19837" data-name="Trazado 19837" d="M2329.2,2298.664c-3.739.134-7.073-3.021-9.409-2.113s-9.364,8.7-9.364,8.7-13.137,6.909-18.364,10.5a5.212,5.212,0,0,0-2.091,6.773H2343.2l-6.909-28.773h-1.12S2333.023,2298.528,2329.2,2298.664Z" transform="translate(-2289.113 -2261.391)" fill="#00666b"/>
            <path id="Trazado_19838" data-name="Trazado 19838" d="M2288,2371.413a.674.674,0,0,1,.591-.668,30.846,30.846,0,0,0,6.955-.43c7.773-1.636,12.773-6.955,17.682-6.864s4.364,2.909,7.364,2.772,11.682-8.318,18.046-7.3,6.818,13.159,3.455,13.159h-53.419a.674.674,0,0,1-.674-.674Z" transform="translate(-2287.998 -2310.951)" fill="#65c0c5"/>
            <path id="Trazado_19839" data-name="Trazado 19839" d="M2484.934,2285.064c.6-1.2,2.3-3.723,3.973-2.3,1.534,1.3-.67,4.384-3.973,3.934-.182-.909,1.875-.676,2.869-1.636,1.037-1-.011-2.2-1.1-1.274a17.967,17.967,0,0,0-1.784,2.093S2484.334,2286.268,2484.934,2285.064Z" transform="translate(-2437.751 -2252.7)" fill="#65c1c5"/>
          </g>
          <g id="Grupo_10371" data-name="Grupo 10371" transform="translate(36.173 202.186)">
            <path id="Trazado_19840" data-name="Trazado 19840" d="M2563.6,2180.191l1.021,29.91s6.136,2.228,9.455,1.909,5.954-3.409,5.954-3.409l-.248-32.228Z" transform="translate(-2534.034 -2176.373)" fill="#f6b590"/>
            <path id="Trazado_19841" data-name="Trazado 19841" d="M2480.848,2298.664c-3.739.134-7.073-3.021-9.409-2.113s-9.364,8.7-9.364,8.7-13.137,6.909-18.364,10.5a5.212,5.212,0,0,0-2.091,6.773h53.228l-6.909-28.773h-1.121S2484.666,2298.528,2480.848,2298.664Z" transform="translate(-2440.756 -2265.754)" fill="#00666b"/>
            <path id="Trazado_19842" data-name="Trazado 19842" d="M2439.642,2371.413a.674.674,0,0,1,.591-.668,30.849,30.849,0,0,0,6.955-.43c7.773-1.636,12.773-6.955,17.682-6.864s4.364,2.909,7.364,2.772,11.682-8.318,18.046-7.3,6.818,13.159,3.455,13.159h-53.418a.673.673,0,0,1-.674-.674Z" transform="translate(-2439.642 -2315.314)" fill="#65c0c5"/>
            <path id="Trazado_19843" data-name="Trazado 19843" d="M2636.578,2285.064c.6-1.2,2.295-3.723,3.973-2.3,1.533,1.3-.67,4.384-3.973,3.934-.182-.909,1.875-.676,2.869-1.636,1.036-1-.011-2.2-1.1-1.274a17.983,17.983,0,0,0-1.784,2.093S2635.979,2286.268,2636.578,2285.064Z" transform="translate(-2589.396 -2257.064)" fill="#65c1c5"/>
          </g>
          <path id="Trazado_19844" data-name="Trazado 19844" d="M2469.2,1328.781s3.394,11.015,1.818,28.417-28.364,77.04-28.364,77.04,1.939,7.879.485,15.031-12,54.062-16.607,92.729l-21.212,1.94.485-111.4,11.472-90.608Z" transform="translate(-2377.332 -1328.781)" fill="#222a53"/>
          <g id="Grupo_10374" data-name="Grupo 10374" transform="translate(39.196 8.486)">
            <g id="Grupo_10373" data-name="Grupo 10373">
              <g id="Grupo_10372" data-name="Grupo 10372">
                <path id="Trazado_19845" data-name="Trazado 19845" d="M2452.676,1573.127l-.364-.008c.528-23.036,3.313-53.532,5.157-73.712.817-8.945,1.407-15.407,1.468-17.683a62.667,62.667,0,0,0-1.34-13.874l-.03-.13,2.451-1.435-4.549-1.449.14-.2c.037-.053.917-1.278,3.728-1.364,2.7-28.438,18.644-98.211,18.8-98.914l.354.081c-.161.7-16.157,70.717-18.812,99.028l-.015.162-.163,0a5.107,5.107,0,0,0-3.416,1.022l4.817,1.534-2.926,1.713a63.235,63.235,0,0,1,1.32,13.835c-.06,2.287-.651,8.755-1.469,17.706C2456.1,1518.389,2453.2,1550.1,2452.676,1573.127Z" transform="translate(-2452.313 -1364.356)" fill="#0a3c5e"/>
              </g>
            </g>
          </g>
          <path id="Trazado_19846" data-name="Trazado 19846" d="M2553.062,1331.391s4.846,2.893,6.665,19.5-13.819,62.91-18.667,88.123c4.121,16.849-4,81.82-3.515,112.73-5.212.485-20.243.97-20.243.97s-7.152-70.426-11.879-113.457c.243-47.031.727-99.76.727-99.76Z" transform="translate(-2453.557 -1330.768)" fill="#0a3c5e"/>
          <g id="Grupo_10376" data-name="Grupo 10376" transform="translate(60.401 1.71)">
            <g id="Grupo_10375" data-name="Grupo 10375">
              <path id="Trazado_19847" data-name="Trazado 19847" d="M2560.026,1359.517c-9,0-13.633-4.865-15.937-8.975a24.555,24.555,0,0,1-2.872-9.138l-.009-.136,14.455-5.318.069.156c.027.061,2.717,6.281,4.818,23.205l.025.2-.2,0Zm-18.433-18a24.308,24.308,0,0,0,2.82,8.862c2.256,4.021,6.792,8.779,15.615,8.779h.136c-1.908-15.258-4.279-21.691-4.7-22.744Z" transform="translate(-2541.208 -1335.949)" fill="#222a53"/>
            </g>
          </g>
          <g id="Grupo_10378" data-name="Grupo 10378" transform="translate(88.949 6.339)">
            <g id="Grupo_10377" data-name="Grupo 10377">
              <path id="Trazado_19848" data-name="Trazado 19848" d="M2671.242,1380.693c-3.733,0-7-1-7.97-3.187-1.615-3.644-2.349-19.1-2.379-19.755l-.008-.163,14.384-2.234.053.137a55.59,55.59,0,0,1,2.963,13.626,46.367,46.367,0,0,1-.4,10.483l-.015.118-.115.034A23.615,23.615,0,0,1,2671.242,1380.693Zm-9.978-22.8c.084,1.7.84,16.076,2.34,19.461,1.415,3.194,8.448,3.653,13.932,2.078a45.693,45.693,0,0,0,.388-10.28,55.656,55.656,0,0,0-2.889-13.4Z" transform="translate(-2660.885 -1355.355)" fill="#222a53"/>
            </g>
          </g>
          <g id="Grupo_10381" data-name="Grupo 10381" transform="translate(68.083 2.493)">
            <g id="Grupo_10380" data-name="Grupo 10380">
              <g id="Grupo_10379" data-name="Grupo 10379">
                <path id="Trazado_19849" data-name="Trazado 19849" d="M2577.982,1554.937c-1.679-31.67-1.345-51.889-1.1-66.653.274-16.6.439-26.622-2.453-38.772l-.045-.191.194-.031c1.011-.16,1.875-.322,2.339-.412l-3.5-3.036.138-.138c.041-.041,1.031-1,4.474-1.548,8.848-28.574,9.032-55.533,7.626-73.125-1.526-19.089-5.2-31.57-5.237-31.694l.349-.1c.037.124,3.72,12.634,5.249,31.758,1.411,17.649,1.226,44.706-7.674,73.381l-.034.108-.112.017a10.4,10.4,0,0,0-4.227,1.343l3.748,3.248-.361.074c-.011,0-1.1.226-2.525.455,2.856,12.107,2.691,22.128,2.418,38.671-.244,14.758-.577,34.97,1.1,66.627Z" transform="translate(-2573.412 -1339.234)" fill="#222a53"/>
              </g>
            </g>
          </g>
          <path id="Trazado_19850" data-name="Trazado 19850" d="M2390.651,2207.87s-1.9,9.206.984,14.678c9.6.192,24.96-1.824,24.96-1.824s2.6-8.045.967-15.1Z" transform="translate(-2365.698 -1996.462)" fill="#1d2446"/>
          <path id="Trazado_19851" data-name="Trazado 19851" d="M2543.9,2225.544s.63,9.9,2.838,13.355c10.227.333,22.729-2.221,22.729-2.221s.623-3.752-.223-13.21C2565.476,2223.083,2543.9,2225.544,2543.9,2225.544Z" transform="translate(-2482.856 -2010.016)" fill="#222a53"/>
        </g>
        <path id="Trazado_19852" data-name="Trazado 19852" d="M2451.686,1323.579l.9,4.424,59.561-12.529-1.274-4.986Z" transform="translate(-2365.686 -1165.263)" fill="#fbc30c"/>
        <g id="Grupo_10383" data-name="Grupo 10383" transform="translate(0 67.636)">
          <path id="Trazado_19853" data-name="Trazado 19853" d="M2333.766,1070.33l16.485-11.636s17.394-52.85,17.758-61.4-12.667-17.394-22.273-8.121-17.425,58.607-17.425,58.607l-8.364,7.394Z" transform="translate(-2265.373 -985.227)" fill="#fbc30c"/>
          <path id="Trazado_19854" data-name="Trazado 19854" d="M2146.711,1274.868l-28.55,29.043s-13.758-.424-16.182.969-10.242,12.788-10.788,16.788,6.97,3.212,6.97,3.212,4.667-7.576,8.485-7.94,7.273,1.091,10-.485,9.212-7.879,9.212-7.879l33.7-17.7Z" transform="translate(-2091.162 -1205.776)" fill="#f39f85"/>
          <path id="Trazado_19855" data-name="Trazado 19855" d="M2222.173,1380.4l5.376,6.746-3,2-5.307-6.711Z" transform="translate(-2188.693 -1286.137)" fill="#0a3c5e"/>
          <path id="Trazado_19856" data-name="Trazado 19856" d="M2202.674,1368.616l4.486-3.893a.8.8,0,0,1,1.087.031l2.2,2.148a.8.8,0,0,1-.031,1.179l-4.472,3.919a.8.8,0,0,1-1.091-.03l-2.219-2.174A.8.8,0,0,1,2202.674,1368.616Z" transform="translate(-2175.863 -1274.047)" fill="#c8dfe9"/>
          <path id="Trazado_19857" data-name="Trazado 19857" d="M2314.881,1253.067l-7.636,6.667,14.728,17.637,9.152-5.879Z" transform="translate(-2255.7 -1189.176)" fill="#fdd148"/>
        </g>
        <path id="Trazado_19858" data-name="Trazado 19858" d="M2441.976,953.005c17.409-2.088,27.382-.273,30.564.909s4.273,6.546,4.909,12.637-4.105,27.932-2.454,40c2.636,19.273,4.455,19.365,5.818,24.91,1.348,5.48-1.455,6.091-1.455,6.091l-59.183,13.091a4.87,4.87,0,0,1-1.446-2.677c-.267-1.654.376-3.947.1-5.631-1.206-7.448-3.013-18.5-5.2-31.33-3.182-18.637-5.909-40.455.909-47.092S2432.572,954.133,2441.976,953.005Z" transform="translate(-2334.175 -892.328)" fill="#f6a948"/>
        <path id="Trazado_19859" data-name="Trazado 19859" d="M2459.308,1035.382l10.273-8.637s12.363-42.91,19.909-59.547,17.563-12.556,21.273-11.637c5.273,1.306,9.728,11.75,4.182,28.569-4.253,12.9-22.546,54.888-22.546,54.888l-20.955,15.455Z" transform="translate(-2371.49 -894.158)" fill="#fbc30c"/>
        <path id="Trazado_19860" data-name="Trazado 19860" d="M2240.931,1449.043a10.371,10.371,0,0,0,6,.909,12.484,12.484,0,0,0,4.364-1.273l-2.242-5.818Z" transform="translate(-2205.205 -1266.06)" fill="#f39f85"/>
        <path id="Trazado_19861" data-name="Trazado 19861" d="M2171.823,1334.023s10.786-10.485,13.7-11.091,13.212,1.272,18.909,1.091c8.061-6.121,32.109-27.058,35.971-30.3,6.212,2.182,11.328,17.819,11.328,17.819s-16.389,10-41.662,19.272c-4.243,3.212-11.394,4.3-11.394,4.3l-3.879-2.424s-9.7,7.333-12.667,7.333S2171.823,1334.023,2171.823,1334.023Z" transform="translate(-2152.582 -1152.495)" fill="#f6b590"/>
        <path id="Trazado_19862" data-name="Trazado 19862" d="M2315.388,1410.5s1.921.292,3.789,2.836a13.174,13.174,0,0,1,2.376,5.551l-1.117.536a22,22,0,0,0-2.485-5.332,8.991,8.991,0,0,0-3.723-2.661Z" transform="translate(-2261.018 -1241.418)" fill="#d3eae8"/>
        <path id="Trazado_19863" data-name="Trazado 19863" d="M2322.766,1403.883l1.336-1.095s2.306.6,4.6,4.1c2.222,3.384,1.96,5.4,1.96,5.4l-1.194.449a13.6,13.6,0,0,0-2.485-5.836A10.862,10.862,0,0,0,2322.766,1403.883Z" transform="translate(-2267.519 -1235.546)" fill="#d3eae8"/>
        <g id="Grupo_10384" data-name="Grupo 10384" transform="translate(71.295)">
          <path id="Trazado_19864" data-name="Trazado 19864" d="M2460.381,770.025s-.437,8.244-2.02,10.537-7.971,6.5-12.885,7.589-6.169-1.42-7.753-6.17-7.316-21.566-4.15-29.21,11.3-12.175,19.656-13.049,14.141,3.877,15.4,11.193S2470.045,766.149,2460.381,770.025Z" transform="translate(-2422.474 -730.572)" fill="#f6b590"/>
          <path id="Trazado_19865" data-name="Trazado 19865" d="M2521.525,837.785l2.839,29.756-17.253,1.911s.328-8.135-1.31-12.5S2521.525,837.785,2521.525,837.785Z" transform="translate(-2478.104 -805.32)" fill="#f39f85"/>
          <path id="Trazado_19866" data-name="Trazado 19866" d="M2502.554,933.676l-.983-4.422,21.621-7.125.491,9.172Z" transform="translate(-2474.966 -869.544)" fill="#fbc30c"/>
          <path id="Trazado_19867" data-name="Trazado 19867" d="M2466.393,830.633a29.1,29.1,0,0,0,1.187,9.746c1.558,5.027,2.17,13.922-6.838,18.8s-15.929,4.136-17.854,1.351-.819-6.634,0-9.3a10.17,10.17,0,0,0,.177-5.078c4.312-3.972,13.991,2.58,17.431,0s2.334-10.2,2.211-15.11Z" transform="translate(-2429.469 -799.874)" fill="#222c53"/>
          <path id="Trazado_19868" data-name="Trazado 19868" d="M2512.729,781.662s2.019,7.976,8.395,10.2a38.207,38.207,0,0,0,1.372,4.668,5.087,5.087,0,0,0,5.421,1.933c1.437-4.881,7.825-6.915,7.907-10.832s-2.989-3.958-2.784-6.5,3.235-4.382,2.088-7.33-6.443-1.56-6.443-1.56S2513.057,774.168,2512.729,781.662Z" transform="translate(-2483.462 -755.162)" fill="#222c53"/>
          <path id="Trazado_19869" data-name="Trazado 19869" d="M2391.583,729.294c3.768,4.545,12.408-.7,16.175-.532s4.463,2.457,7.739,2.047,5.405-6.429,7.985-7.534,16.912-3.522,15.724-8.395-5.692-1.858-6.92-4.143.082-7.568-4.586-8.878-8.939,5.364-12.27,5.692-7.426-2.17-10.825-.45-1.065,6.715-3.726,8.763-7.379,1.015-9.746,5A7.589,7.589,0,0,0,2391.583,729.294Z" transform="translate(-2390.038 -701.688)" fill="#0a3c5e"/>
          <path id="Trazado_19870" data-name="Trazado 19870" d="M2546.783,846.258c-.189,2.3-1.342,4.08-2.574,3.979s-2.009-2.874-1.819-5.174,1.274-3.253,2.506-3.152S2546.972,843.959,2546.783,846.258Z" transform="translate(-2506.026 -808.457)" fill="#f6b590"/>
        </g>
        <path id="Trazado_19871" data-name="Trazado 19871" d="M2451.3,1273.284l7.7-6.243,13.939,21.879-8.364,5.333Z" transform="translate(-2365.396 -1132.181)" fill="#fdd148"/>
      </g>
    </g>
    <g id="Grupo_10400" data-name="Grupo 10400" transform="translate(363.983 414.059)">
      <path id="Trazado_19872" data-name="Trazado 19872" d="M1722.764,1193.151l4.626,4.815-4.939,28.371-4.691,2.7Z" transform="translate(-1463.858 -1127.672)" fill="#62c0c3"/>
      <path id="Trazado_19873" data-name="Trazado 19873" d="M906.117,1310.887s21.682,43.089,34.91,45.552,73.428-19.319,73.428-19.319v-8.592l-60.2,1.442-14.283-29.547Z" transform="translate(-845.826 -1209.355)" fill="#f39f85"/>
      <path id="Trazado_19874" data-name="Trazado 19874" d="M801.773,1124.3c-71.314,3.611-63.226,124.878-63.226,124.878H815S828.333,1204.855,801.773,1124.3Z" transform="translate(-718.017 -1075.243)" fill="#fdd148"/>
      <g id="Grupo_10387" data-name="Grupo 10387" transform="translate(68.725 323.256)">
        <path id="Trazado_19875" data-name="Trazado 19875" d="M958.6,2312.859s.041,9.606,19.337,15.374c3.958,1.183,2.671,2.354,3.414,4.018H959.142l-8.694-9.774-2.7,2.323-6.27-6.159s2.928-8.913,7.7-8.991Z" transform="translate(-941.474 -2301.094)" fill="#212b53"/>
        <path id="Trazado_19876" data-name="Trazado 19876" d="M988.282,2273.788l-5.1,11.765h0a8.7,8.7,0,0,1-9.023-2.741l-.4-.469,2.915-8.554Z" transform="translate(-966.057 -2273.788)" fill="#f7b58e"/>
      </g>
      <g id="Grupo_10388" data-name="Grupo 10388" transform="translate(67.431)">
        <path id="Trazado_19877" data-name="Trazado 19877" d="M941.386,1042.747l-2.422,22.456s3.192,5.991,10.049,6.73,7.39-4.2,7.39-4.2l1.578-14.629-9.863-3.738Z" transform="translate(-938.268 -1013.146)" fill="#f39f85"/>
        <path id="Trazado_19878" data-name="Trazado 19878" d="M966.048,987.5c2.118.164,4.111.029,5.233-.775,7.135-9.046,3.022-35.949,3.022-35.949l-22.522,1.578L949.187,969.8a14.8,14.8,0,0,0,4.216,12.685h0A23.747,23.747,0,0,0,966.048,987.5Z" transform="translate(-945.93 -943.111)" fill="#f7b58e"/>
        <path id="Trazado_19879" data-name="Trazado 19879" d="M952.243,929.474a47.542,47.542,0,0,0,15.05,1.623c7.863-.539,3.843-9.574,3.843-9.574s-5.991,1.991-15.977-.6c-6.739-1.751-8.437-3.279-13.08-1.411-6.308,2.538-6.03,13.478-6.03,13.478l.83,23.17,1.26,1.611s1.739-15.013,2.237-19.631c1.516-1.964,2.915-1.813,3.935-1.171A3.472,3.472,0,0,1,945.8,940.3l-2.555,23.688s14.384,8.13,18.35,7.366,3.294-18.595,3.294-18.595a7.088,7.088,0,0,0-8.062,1.073c-3.808,3.439-7.5-.964-7.5-.964Z" transform="translate(-936.047 -918.654)" fill="#212b53"/>
        <path id="Trazado_19880" data-name="Trazado 19880" d="M953.508,992.052c1.71.042,3.163,1.84,3.245,4.016s-1.237,3.906-2.948,3.864-3.163-1.841-3.245-4.017S951.8,992.009,953.508,992.052Z" transform="translate(-947.095 -974.543)" fill="#f7b58e"/>
      </g>
      <path id="Trazado_19881" data-name="Trazado 19881" d="M997.969,1647.8s35.556,19.952,53.4,44.074a17.728,17.728,0,0,1,.36,20.664c-25.761,37.133-59.819,86.28-59.819,86.28h-13.36s17.646-64.018,38.986-101.772C1019.594,1683.093,997.969,1647.8,997.969,1647.8Z" transform="translate(-900.985 -1473.869)" fill="#212b53"/>
      <path id="Trazado_19882" data-name="Trazado 19882" d="M1352.134,1418.242l10.767,1.725,10.1,10.944s-4.925,2.386-12.312-5.259c-14.582-1.031-10.623-3.652-10.623-3.652Z" transform="translate(-1183.504 -1299.069)" fill="#f39f85"/>
      <path id="Trazado_19883" data-name="Trazado 19883" d="M858.132,1364.085s21.682,43.089,34.911,45.552,71.066-25.813,71.066-25.813l2.362-9.274-60.2,8.618-14.283-29.547Z" transform="translate(-809.287 -1249.863)" fill="#f7b58e"/>
      <g id="Grupo_10389" data-name="Grupo 10389" transform="translate(167.497 331.181)">
        <path id="Trazado_19884" data-name="Trazado 19884" d="M1368.354,2344.894s6.19,5.741,20.3,9.335c3.107.791,6.457-.266,6.457,4.859h-17.126l-14.243-2.463v2.463h-7.693s-2.142-12.581,2.351-14.195Z" transform="translate(-1355.539 -2335.857)" fill="#212b53"/>
        <path id="Trazado_19885" data-name="Trazado 19885" d="M1368.845,2307.009l1.513,9.037h0a8.7,8.7,0,0,1-9.425.316l-.528-.316-2.233-9.037Z" transform="translate(-1357.544 -2307.009)" fill="#f7b58e"/>
      </g>
      <path id="Trazado_19886" data-name="Trazado 19886" d="M1318.778,1440.451a2.265,2.265,0,0,0-1.436-2.283l-9.013-3.509a9.719,9.719,0,0,0-6.942-.042l-8.909,1.75-.953,1.6-.63,8.213c1.732-.713,2.744-1.152,2.744-1.152l5.717-.728s12.292,8.307,16.267-1.2c1.655,9.2,4.25,8.069,4.25,8.069Z" transform="translate(-1138.818 -1311.066)" fill="#f7b58e"/>
      <path id="Trazado_19887" data-name="Trazado 19887" d="M738.3,1647.8s-11.124,46.8,91.468,62.892a17.983,17.983,0,0,1,14.609,13.429c8.8,34.755,41.19,84.546,41.19,84.546h13.258l-21.506-94.959a34.4,34.4,0,0,0-10.241-17.7L814.756,1647.8Z" transform="translate(-717.772 -1473.869)" fill="#053c5e"/>
      <g id="Grupo_10395" data-name="Grupo 10395" transform="translate(0 126.582)">
        <g id="Grupo_10390" data-name="Grupo 10390" transform="translate(64.169 105.69)">
          <path id="Trazado_19888" data-name="Trazado 19888" d="M942.782,2018.085l-17.257-125.712-3.152.432,17.2,125.28Z" transform="translate(-922.373 -1892.373)" fill="#01888b"/>
        </g>
        <g id="Grupo_10394" data-name="Grupo 10394">
          <g id="Grupo_10392" data-name="Grupo 10392">
            <path id="Trazado_19889" data-name="Trazado 19889" d="M786.825,1833.1H711.2v-14.855c26.528-12.2,75.628,7.428,75.628,7.428Z" transform="translate(-697.402 -1727.193)" fill="#63c0c4"/>
            <g id="Grupo_10391" data-name="Grupo 10391" transform="translate(0 37.283)">
              <path id="Trazado_19890" data-name="Trazado 19890" d="M667.163,1672.631v-3.184c-.422-.006-10.611-.334-10.611-16.976,0-18.043,11.275-45.377,11.391-45.651L665,1605.6c-.474,1.142-11.633,28.2-11.633,46.873C653.368,1672.4,667.025,1672.631,667.163,1672.631Z" transform="translate(-653.368 -1605.599)" fill="#01888b"/>
            </g>
            <path id="Trazado_19891" data-name="Trazado 19891" d="M717.926,1491.545c-18.57-4.347-20.885-1.9-20.885-1.9s5.711-21.967.262-35.083c22.776-13.146,26.99,2.494,26.99,2.494S728.228,1470.344,717.926,1491.545Z" transform="translate(-686.623 -1449.304)" fill="#63c0c4"/>
          </g>
          <g id="Grupo_10393" data-name="Grupo 10393" transform="translate(3.138 105.69)">
            <path id="Trazado_19892" data-name="Trazado 19892" d="M669.735,2018.085l17.2-125.28-3.152-.432-17.255,125.712Z" transform="translate(-666.523 -1892.373)" fill="#01888b"/>
          </g>
        </g>
      </g>
      <g id="Grupo_10398" data-name="Grupo 10398" transform="translate(142.114 143.006)">
        <path id="Trazado_19893" data-name="Trazado 19893" d="M1540.235,1524.138H1251.658a5.983,5.983,0,0,1,5.983-5.983h276.611a5.983,5.983,0,0,1,5.983,5.983Z" transform="translate(-1251.054 -1518.155)" fill="#212b53"/>
        <g id="Grupo_10396" data-name="Grupo 10396" transform="translate(0 5.766)">
          <path id="Trazado_19894" data-name="Trazado 19894" d="M1252.795,1751.538l-3.668-.641,16.826-208.572,3.667.641Z" transform="translate(-1249.127 -1542.325)" fill="#01888b"/>
        </g>
        <g id="Grupo_10397" data-name="Grupo 10397" transform="translate(267.34 5.766)">
          <path id="Trazado_19895" data-name="Trazado 19895" d="M2386.677,1751.538l3.668-.641-16.826-208.572-3.667.641Z" transform="translate(-2369.853 -1542.325)" fill="#01888b"/>
        </g>
      </g>
      <rect id="Rectángulo_2222" data-name="Rectángulo 2222" width="34.383" height="2.856" transform="translate(162.607 140.15)" fill="#62c0c3"/>
      <g id="Grupo_10399" data-name="Grupo 10399" transform="translate(209.505 24.451)">
        <path id="Trazado_19896" data-name="Trazado 19896" d="M1556.027,1139.095h-24.386V1135.4h24.386a13.3,13.3,0,0,0,13.128-11.447l16.681-102.8,3.645.592L1572.807,1124.5A17,17,0,0,1,1556.027,1139.095Z" transform="translate(-1531.641 -1021.155)" fill="#62c0c3"/>
      </g>
      <path id="Trazado_19897" data-name="Trazado 19897" d="M1700.791,1021.155l-2.486,1.923-15.7,94.094,2.2,2.463Z" transform="translate(-1437.091 -996.704)" fill="#212b53"/>
    </g>
    <g id="Grupo_10403" data-name="Grupo 10403" transform="translate(632.057 512.752)">
      <g id="Grupo_10402" data-name="Grupo 10402" transform="translate(0 0)">
        <path id="Trazado_19898" data-name="Trazado 19898" d="M1849.588,1332.391h-72.415L1798.6,1376.1h71.872Z" transform="translate(-1777.173 -1332.391)" fill="#63c0c4"/>
        <g id="Grupo_10401" data-name="Grupo 10401" transform="translate(57.136 38.564)">
          <rect id="Rectángulo_2223" data-name="Rectángulo 2223" width="54.268" height="5.142" fill="#63c0c4"/>
        </g>
      </g>
      <circle id="Elipse_557" data-name="Elipse 557" cx="4.27" cy="4.27" r="4.27" transform="translate(38.439 21.183) rotate(-45)" fill="#fff"/>
    </g>
    <g id="Grupo_10410" data-name="Grupo 10410" transform="translate(276.249 376.515)">
      <path id="Trazado_19899" data-name="Trazado 19899" d="M559.558,1049.043l16.078,30.283-17.716-.854-1.244-30.406Z" transform="translate(-492.007 -979.653)" fill="#f7b58e"/>
      <path id="Trazado_19900" data-name="Trazado 19900" d="M445.01,995.832l14.853-.021,6.155,96H439.4Z" transform="translate(-402.708 -939.862)" fill="#fff"/>
      <g id="Grupo_10405" data-name="Grupo 10405" transform="translate(11.955 372.42)">
        <path id="Trazado_19901" data-name="Trazado 19901" d="M338.776,2337.866s-3.671,2.886-3,6.563,1.626,12.291,1.626,12.291h3.774l-.116-8.033c.011-.525,8.094,8.033,9.463,8.033H370.5s1.327-5.418-10.4-7.16S338.776,2337.866,338.776,2337.866Z" transform="translate(-335.696 -2334.201)" fill="#053c5e"/>
        <g id="Grupo_10404" data-name="Grupo 10404" transform="translate(2.492)">
          <path id="Trazado_19902" data-name="Trazado 19902" d="M355.386,2322.5l2.708,7.046a9.05,9.05,0,0,0,3.688,4.682,35.476,35.476,0,0,0,9.324,4.233c-5.427,4.633-14.063-.205-19-3.627a12.09,12.09,0,0,1-4.829-7l-1.131-5.338Z" transform="translate(-346.142 -2322.502)" fill="#f7b58e"/>
        </g>
      </g>
      <g id="Grupo_10407" data-name="Grupo 10407" transform="translate(50.001 372.42)">
        <path id="Trazado_19903" data-name="Trazado 19903" d="M498.269,2337.866s-3.67,2.886-3,6.563,1.626,12.291,1.626,12.291h3.774l-.116-8.033c.011-.525,8.094,8.033,9.463,8.033H529.99s1.327-5.418-10.4-7.16S498.269,2337.866,498.269,2337.866Z" transform="translate(-495.189 -2334.201)" fill="#053c5e"/>
        <g id="Grupo_10406" data-name="Grupo 10406" transform="translate(2.492)">
          <path id="Trazado_19904" data-name="Trazado 19904" d="M514.879,2322.5l2.708,7.046a9.051,9.051,0,0,0,3.688,4.682,35.461,35.461,0,0,0,9.324,4.233c-5.427,4.633-14.064-.205-19-3.627a12.093,12.093,0,0,1-4.829-7l-1.131-5.338Z" transform="translate(-505.635 -2322.502)" fill="#f7b58e"/>
        </g>
      </g>
      <path id="Trazado_19905" data-name="Trazado 19905" d="M414.631,1398.236s-2.495,14.349,11.854,84.869c-11.616,36.753,6.985,136.566,6.985,136.566h13.559l9.231-221.435Z" transform="translate(-383.72 -1246.292)" fill="#01888b"/>
      <path id="Trazado_19906" data-name="Trazado 19906" d="M518.339,995.9l5.417,141.5H541.3s-9.373-53.724-8.69-84.1c-2.441-21.966,10.021-10.395-5.247-52.686C521.676,995.879,518.339,995.9,518.339,995.9Z" transform="translate(-462.816 -939.93)" fill="#ffda71"/>
      <path id="Trazado_19907" data-name="Trazado 19907" d="M470,892.489l-1.87,9.821a6.249,6.249,0,0,1-9.458,4.126l-6.551-4.106,11.7-26.438Z" transform="translate(-412.397 -848.55)" fill="#f39f85"/>
      <path id="Trazado_19908" data-name="Trazado 19908" d="M325.2,1398.236s-20.258,30.914-5.909,101.434c-11.616,36.753,1.126,120,1.126,120h12.171l34.24-221.435Z" transform="translate(-307.339 -1246.292)" fill="#63c0c4"/>
      <path id="Trazado_19909" data-name="Trazado 19909" d="M327.88,954.523s-14.995,8.427-19.654,15.952c-4.441,7.171-5.979,23.493-6.406,38.023-.587,19.952-16.241,97.4-16.241,97.4h46.089L332.8,966.759Z" transform="translate(-285.578 -908.423)" fill="#ffda71"/>
      <path id="Trazado_19910" data-name="Trazado 19910" d="M474.6,775.75c-9.092-2.3-17.836,7.016-17.836,7.016l-6.84,36.836-10.518-16.211s-.6-22.027,9.567-36.614c7.281-8.833,21.256-6.3,28.321,2.294,3.436,4.178,4.153,9.946,3.821,15.254-.447,7.127-2.467,48.031-2.467,48.031L457.823,816.93a96.921,96.921,0,0,1,2.492-11.724C463.745,792.189,480.707,777.3,474.6,775.75Z" transform="translate(-402.708 -761.267)" fill="#053c5e"/>
      <path id="Trazado_19911" data-name="Trazado 19911" d="M496.366,848.522c1.343-.546,3.081.361,3.88,2.024s.359,3.454-.984,4-3.081-.361-3.881-2.024S495.023,849.067,496.366,848.522Z" transform="translate(-445.031 -827.587)" fill="#f7b58e"/>
      <g id="Grupo_10408" data-name="Grupo 10408" transform="translate(50.316 10.97)">
        <path id="Trazado_19912" data-name="Trazado 19912" d="M507.286,841.951c1.689.623,3.346.973,4.447.576,7.908-5.73,10.763-28.621,10.763-28.621l-6.262-6.652-12.47,2.74-6.145,13.633a12.547,12.547,0,0,0,.51,11.319h0A20.13,20.13,0,0,0,507.286,841.951Z" transform="translate(-496.511 -807.254)" fill="#f7b58e"/>
      </g>
      <path id="Trazado_19913" data-name="Trazado 19913" d="M528.911,794.241c-.649,6.923-19.919,7.492-19.919,7.492l-1-9.374,11.235-6.184,8.893,5.351A5.9,5.9,0,0,1,528.911,794.241Z" transform="translate(-454.934 -780.233)" fill="#053c5e"/>
      <path id="Trazado_19914" data-name="Trazado 19914" d="M593.618,821.989c-.64,2.577,1.97,7.067,1.97,7.067l1.533-2.769-.042-2.4-1.514-1.871S594.258,819.413,593.618,821.989Z" transform="translate(-520.06 -806.638)" fill="#212b53"/>
      <path id="Trazado_19915" data-name="Trazado 19915" d="M359.589,1021.114c-19.45,2.27-10.263,52.445-6.084,73.047a8.72,8.72,0,0,0,11.147,6.609c16.923-5.337,41.647-27.5,41.647-27.5l-3.919-4.935L369.536,1076S382.137,1018.483,359.589,1021.114Z" transform="translate(-332.843 -959.063)" fill="#f7b58e"/>
      <path id="Trazado_19916" data-name="Trazado 19916" d="M540.474,1164.932l-6.351,39.312a1.872,1.872,0,0,0,1.849,2.171h25.145a1.873,1.873,0,0,0,1.849-1.579l6.238-39.312a1.872,1.872,0,0,0-1.849-2.166H542.322A1.873,1.873,0,0,0,540.474,1164.932Z" transform="translate(-474.816 -1067.442)" fill="#00666b"/>
      <g id="Grupo_10409" data-name="Grupo 10409" transform="translate(84.702 102.364)">
        <path id="Trazado_19917" data-name="Trazado 19917" d="M649.524,1202.921c.155-1.382.023-2.247-.438-5.107-.6-3.719-.442-9.543-4.24-6.64a19.119,19.119,0,0,0-4.005,9.289c-.731,2.641.886,6.312,2.4,8.3l2.611,5.689S650.354,1209.209,649.524,1202.921Z" transform="translate(-640.66 -1190.39)" fill="#f7b58e"/>
      </g>
      <path id="Trazado_19918" data-name="Trazado 19918" d="M608.857,1221.263a1.919,1.919,0,1,0,1.918-1.919A1.918,1.918,0,0,0,608.857,1221.263Z" transform="translate(-531.741 -1110.073)" fill="url(#linear-gradient)"/>
    </g>
    <g id="Grupo_10420" data-name="Grupo 10420" transform="translate(762.596 375.648)">
      <g id="Grupo_10419" data-name="Grupo 10419" transform="translate(0 1.802)">
        <g id="Grupo_10413" data-name="Grupo 10413" transform="translate(107.657 10.364)">
          <g id="Grupo_10412" data-name="Grupo 10412">
            <path id="Trazado_19919" data-name="Trazado 19919" d="M2832.668,908.408l6.9,15.416L2850.8,913.7l-7.923-22.458Z" transform="translate(-2819.084 -871.539)" fill="#f39f85"/>
            <g id="Grupo_10411" data-name="Grupo 10411">
              <path id="Trazado_19920" data-name="Trazado 19920" d="M2785.313,846.481c-1.885.251-3.675.229-4.719-.433-6.83-7.736-4.486-30.521-4.486-30.521l7.994-6.891,12.225,5.706,3.187,12.522c.85,4.132-.316,11.377-3.141,14.51h0A21.273,21.273,0,0,1,2785.313,846.481Z" transform="translate(-2775.72 -808.636)" fill="#f7b58e"/>
            </g>
          </g>
        </g>
        <path id="Trazado_19921" data-name="Trazado 19921" d="M2526.114,1180.522a17.671,17.671,0,0,1-8.286,5.907c-5.523,1.9-46.652-6.733-46.652-6.733l-8.261.866a21,21,0,0,1-13.083-.677l-12.1-4.677,70.96-1.48,27.161-33.733Z" transform="translate(-2410.703 -1050.588)" fill="#f7b58e"/>
        <path id="Trazado_19922" data-name="Trazado 19922" d="M2817.849,985.392s16.4,21,20.226,34.808,5.21,51.87,5.21,51.87h-34.5s-9.907-17.956-17.6-34.248a18.631,18.631,0,0,1-.214-15.48c5.632-12.757,14.089-30.305,14.089-30.305Z" transform="translate(-2678.475 -932.864)" fill="#ffda71"/>
        <g id="Grupo_10415" data-name="Grupo 10415" transform="translate(98.506 368.944)">
          <g id="Grupo_10414" data-name="Grupo 10414" transform="translate(7.468)">
            <path id="Trazado_19923" data-name="Trazado 19923" d="M2784.551,2311.849l-2.736,7.121a9.144,9.144,0,0,1-3.727,4.731,35.825,35.825,0,0,1-9.422,4.278c5.484,4.682,14.211-.207,19.2-3.665a12.219,12.219,0,0,0,4.879-7.07l1.143-5.395Z" transform="translate(-2768.666 -2311.849)" fill="#f7b58e"/>
          </g>
          <path id="Trazado_19924" data-name="Trazado 19924" d="M2769.458,2327.376s3.709,2.916,3.03,6.632-1.643,12.42-1.643,12.42h-3.813l.117-8.118c-.011-.531-8.179,8.118-9.562,8.118H2737.4s-1.341-5.476,10.51-7.236S2769.458,2327.376,2769.458,2327.376Z" transform="translate(-2737.358 -2323.672)" fill="#053c5e"/>
        </g>
        <g id="Grupo_10417" data-name="Grupo 10417" transform="translate(137.736 368.944)">
          <g id="Grupo_10416" data-name="Grupo 10416" transform="translate(7.468)">
            <path id="Trazado_19925" data-name="Trazado 19925" d="M2949.01,2311.849l-2.736,7.121a9.147,9.147,0,0,1-3.727,4.731,35.825,35.825,0,0,1-9.422,4.278c5.484,4.682,14.211-.207,19.2-3.665a12.217,12.217,0,0,0,4.879-7.07l1.143-5.395Z" transform="translate(-2933.125 -2311.849)" fill="#f7b58e"/>
          </g>
          <path id="Trazado_19926" data-name="Trazado 19926" d="M2933.917,2327.376s3.709,2.916,3.029,6.632-1.642,12.42-1.642,12.42h-3.814l.117-8.118c-.011-.531-8.179,8.118-9.562,8.118h-20.182s-1.341-5.476,10.511-7.236S2933.917,2327.376,2933.917,2327.376Z" transform="translate(-2901.817 -2323.672)" fill="#053c5e"/>
        </g>
        <path id="Trazado_19927" data-name="Trazado 19927" d="M2841.736,1349.361s-17.121,25.662-2.469,127.964c-2.3,38.665-6.6,102.3-6.6,102.3h9.719s26.94-67.779,17.9-101.543c-2.147-33.441,6.138-129.328,6.138-129.328Z" transform="translate(-2711.427 -1209.55)" fill="#01888b"/>
        <path id="Trazado_19928" data-name="Trazado 19928" d="M2905.18,1348.756s17.92,14.414,17.92,35.818c0,16.791-8.093,51.571-12.733,74.338-1.684,8.265.018,16.8,2.344,24.91,9.477,33.02-2.04,95.805-2.04,95.805h-9.667s-.53-32.292-13.752-104.687c-15.186-83.148-16.576-126.184-16.576-126.184Z" transform="translate(-2740.369 -1209.55)" fill="#63c0c4"/>
        <g id="Grupo_10418" data-name="Grupo 10418" transform="translate(0 74.98)">
          <path id="Trazado_19929" data-name="Trazado 19929" d="M2349.5,1129.154h56.366v-4.143H2352l-23.93-45.5-3.666,1.928Z" transform="translate(-2324.408 -1079.513)" fill="url(#linear-gradient-2)"/>
        </g>
        <path id="Trazado_19930" data-name="Trazado 19930" d="M2708.573,1105.253s-18,41.907-26.654,41.907-56.552-20.486-56.552-20.486l1.272-7.152,48.907,8.285a214.333,214.333,0,0,0,7.342-24.8,13.647,13.647,0,0,1,10.551-10.535C2705,1090.287,2708.573,1105.253,2708.573,1105.253Z" transform="translate(-2553.576 -1014.235)" fill="#f7b58e"/>
        <path id="Trazado_19931" data-name="Trazado 19931" d="M2802.707,789.693s-5.337,3.227-21.68-7.25c-2.5.653,1.493-22.9,22.637-15.981,14.8,4.843,14.091,19.171,13.408,27.1-.737,8.563,3.72,14.215,9.607,20.477,4.938,5.253,4.862,14.912,8.152,20.109,4.048,6.4,8.339,6.023,11.549,12.51,3.36,6.791,3.82,15.094-.679,21.19-2.557,3.465-8.518,11.822-17.952,8.844-5.295-1.671-6.721-10.914-6.953-18.7a23.585,23.585,0,0,0-8.992-17.692c-5.089-4.05-10.643-9.6-12.13-15.391C2796.756,813.545,2802.707,789.693,2802.707,789.693Z" transform="translate(-2671.601 -765.188)" fill="#212b53"/>
        <path id="Trazado_19932" data-name="Trazado 19932" d="M2864.983,868.487c-1.259-.873-3.26-.339-4.469,1.191s-1.168,3.479.091,4.352,3.26.339,4.469-1.191S2866.242,869.36,2864.983,868.487Z" transform="translate(-2731.959 -843.526)" fill="#f7b58e"/>
        <path id="Trazado_19933" data-name="Trazado 19933" d="M2516.108,1198.8a2.349,2.349,0,0,1,1.4-2.423l9.2-4a10.079,10.079,0,0,1,7.191-.321l9.119,3.028,1.234.048.982,8.485c-1.823-.67-2.89-1.084-2.89-1.084l-5.771-2.1s-12.587,10.67-17.085.981c-1.348,9.6-4.082,8.531-4.082,8.531Z" transform="translate(-2469.842 -1089.843)" fill="#f7b58e"/>
      </g>
      <path id="Trazado_19934" data-name="Trazado 19934" d="M2795.909,775.691c-1.811,6.556-11.129,9.7-20.812,7.027s-14.938-9.946-14.254-16.713c.9-8.888,11.128-9.7,20.812-7.026S2797.719,769.136,2795.909,775.691Z" transform="translate(-2656.689 -757.633)" fill="#212b53"/>
    </g>
    <g id="Grupo_10423" data-name="Grupo 10423" transform="translate(273.327 255.984)">
      <g id="Grupo_10421" data-name="Grupo 10421" transform="translate(104.616)">
        <path id="Trazado_19935" data-name="Trazado 19935" d="M789.8,270.461l-22.134-12.216-11.3-2.261-8.539,1.256Z" transform="translate(-739.254 -255.984)" fill="url(#linear-gradient-3)"/>
        <path id="Trazado_19936" data-name="Trazado 19936" d="M789.8,274.469l-41.448-10.655-.525-2.567" transform="translate(-739.254 -259.992)" fill="#afd8c7"/>
        <path id="Trazado_19937" data-name="Trazado 19937" d="M745.07,301.818l.053.087,1.739,6.435,40.733-2.975Z" transform="translate(-737.155 -290.884)" fill="#63c0c4"/>
        <path id="Trazado_19938" data-name="Trazado 19938" d="M711.891,270.689l5.914-4.8,44.362,12.045L723.979,276.8Z" transform="translate(-711.891 -263.526)" fill="url(#linear-gradient-3)"/>
      </g>
      <g id="Grupo_10422" data-name="Grupo 10422" transform="translate(0 2.047)">
        <path id="Trazado_19939" data-name="Trazado 19939" d="M314.949,624.522a30.962,30.962,0,0,0,3.988-1.73.6.6,0,1,1,.555,1.07,32.226,32.226,0,0,1-4.143,1.8q-.764.27-1.537.5a.6.6,0,1,1-.347-1.152Q314.211,624.782,314.949,624.522Z" transform="translate(-303.564 -537.289)" fill="#63c0c4"/>
        <path id="Trazado_19940" data-name="Trazado 19940" d="M658.953,267.181c1.879.241,3.836.55,5.98.947a.6.6,0,0,1-.219,1.185c-2.123-.392-4.058-.7-5.915-.936a.6.6,0,0,1,.153-1.2Z" transform="translate(-566.448 -266.554)" fill="#63c0c4"/>
        <path id="Trazado_19941" data-name="Trazado 19941" d="M618.237,265.655a.6.6,0,0,1,.354-1.086c1.931-.017,3.975.064,6.071.239a.6.6,0,0,1-.1,1.2c-2.059-.172-4.064-.251-5.96-.235A.6.6,0,0,1,618.237,265.655Z" transform="translate(-535.776 -264.567)" fill="#63c0c4"/>
        <path id="Trazado_19942" data-name="Trazado 19942" d="M354.285,599.273a.593.593,0,0,1,.851.011.6.6,0,0,1-.011.851,33.55,33.55,0,0,1-4.752,3.86.6.6,0,0,1-.693-.016.578.578,0,0,1-.142-.149A.6.6,0,0,1,349.7,603,32.526,32.526,0,0,0,354.285,599.273Z" transform="translate(-331.28 -519.299)" fill="#63c0c4"/>
        <path id="Trazado_19943" data-name="Trazado 19943" d="M379.467,573.125a.6.6,0,0,1-.084-.847q.51-.624.991-1.271a31.207,31.207,0,0,0,2.313-3.618.6.6,0,0,1,.816-.241.609.609,0,0,1,.241.817,32.359,32.359,0,0,1-2.4,3.758q-.5.671-1.028,1.317a.6.6,0,0,1-.824.1Z" transform="translate(-353.98 -494.914)" fill="#63c0c4"/>
        <path id="Trazado_19944" data-name="Trazado 19944" d="M400.228,536.306a.613.613,0,0,1-.129-.073.6.6,0,0,1-.2-.713,41.055,41.055,0,0,0,1.832-5.636.6.6,0,1,1,1.167.294,41.953,41.953,0,0,1-1.886,5.8A.6.6,0,0,1,400.228,536.306Z" transform="translate(-369.673 -466.248)" fill="#63c0c4"/>
        <path id="Trazado_19945" data-name="Trazado 19945" d="M453.715,339.681q-.752.918-1.458,1.871c-.71.959-1.388,1.951-2.015,2.95a.6.6,0,0,1-.83.19l-.039-.027a.6.6,0,0,1-.15-.8c.642-1.026,1.338-2.044,2.066-3.028q.723-.977,1.5-1.918a.573.573,0,0,1,.848-.083A.6.6,0,0,1,453.715,339.681Z" transform="translate(-407.193 -321.003)" fill="#63c0c4"/>
        <path id="Trazado_19946" data-name="Trazado 19946" d="M435,373.225a43.911,43.911,0,0,0-2.387,5.433.6.6,0,1,1-1.133-.407,44.962,44.962,0,0,1,2.452-5.584.6.6,0,1,1,1.068.558Z" transform="translate(-393.728 -346.634)" fill="#63c0c4"/>
        <path id="Trazado_19947" data-name="Trazado 19947" d="M479.313,311.312a48.921,48.921,0,0,0-4.36,4.043.6.6,0,0,1-.793.069.66.66,0,0,1-.058-.049.6.6,0,0,1-.02-.851,50.389,50.389,0,0,1,4.466-4.143.6.6,0,0,1,.765.931Z" transform="translate(-426.067 -299.347)" fill="#63c0c4"/>
        <path id="Trazado_19948" data-name="Trazado 19948" d="M540.381,275.682a.6.6,0,0,1-.487-1.1,47.635,47.635,0,0,1,5.72-2.105.6.6,0,1,1,.342,1.155A46.51,46.51,0,0,0,540.381,275.682Z" transform="translate(-476.033 -270.57)" fill="#63c0c4"/>
        <path id="Trazado_19949" data-name="Trazado 19949" d="M417,456.735a.6.6,0,0,1-.53-.667l.086-.758c.2-1.745.4-3.493.629-5.233a.6.6,0,0,1,1.194.159c-.23,1.733-.428,3.473-.626,5.211l-.087.758A.6.6,0,0,1,417,456.735Z" transform="translate(-382.32 -405.427)" fill="#63c0c4"/>
        <path id="Trazado_19950" data-name="Trazado 19950" d="M505.411,292.071a.6.6,0,1,1-.694-.984,49.981,49.981,0,0,1,5.184-3.2.6.6,0,0,1,.569,1.062A48.607,48.607,0,0,0,505.411,292.071Z" transform="translate(-449.326 -282.269)" fill="#63c0c4"/>
        <path id="Trazado_19951" data-name="Trazado 19951" d="M412.456,489.674a.6.6,0,0,1,.522.673c-.3,2.345-.586,4.248-.913,5.99a.6.6,0,0,1-1.185-.223c.323-1.716.61-3.6.9-5.918A.6.6,0,0,1,412.456,489.674Z" transform="translate(-378.06 -435.973)" fill="#63c0c4"/>
        <path id="Trazado_19952" data-name="Trazado 19952" d="M279.78,635.812a.6.6,0,0,1,.231,1.181,48.593,48.593,0,0,1-6.04.78.6.6,0,1,1-.085-1.2A47.919,47.919,0,0,0,279.78,635.812Z" transform="translate(-273.327 -547.246)" fill="#63c0c4"/>
        <path id="Trazado_19953" data-name="Trazado 19953" d="M423.69,409.916a.6.6,0,0,1,.425.738c-.475,1.771-.881,3.678-1.242,5.829a.6.6,0,1,1-1.187-.2c.366-2.19.781-4.134,1.267-5.942A.6.6,0,0,1,423.69,409.916Z" transform="translate(-386.289 -375.228)" fill="#63c0c4"/>
        <path id="Trazado_19954" data-name="Trazado 19954" d="M582.294,265.413q1.055-.125,2.112-.205a.6.6,0,0,1,.091,1.2q-1.032.077-2.06.2c-1.272.151-2.558.363-3.819.63a.6.6,0,0,1-.249-1.178C579.665,265.786,580.986,265.569,582.294,265.413Z" transform="translate(-505.239 -265.054)" fill="#63c0c4"/>
      </g>
    </g>
    <g id="Grupo_10424" data-name="Grupo 10424" transform="translate(525.104 327.684)">
      <path id="Trazado_19955" data-name="Trazado 19955" d="M1328.81,667.445V561.125a4.564,4.564,0,0,1,4.564-4.564h176.433a4.564,4.564,0,0,1,4.565,4.564v86.632a4.564,4.564,0,0,1-4.565,4.565H1350.892a4.564,4.564,0,0,0-3.853,2.118l-9.811,15.452A4.564,4.564,0,0,1,1328.81,667.445Z" transform="translate(-1328.81 -556.561)" fill="#60c2c5"/>
      <rect id="Rectángulo_2224" data-name="Rectángulo 2224" width="146.416" height="6.609" transform="translate(165.989 21.352) rotate(180)" fill="#fff"/>
      <rect id="Rectángulo_2225" data-name="Rectángulo 2225" width="146.416" height="6.609" transform="translate(165.989 36.604) rotate(180)" fill="#fff"/>
      <rect id="Rectángulo_2226" data-name="Rectángulo 2226" width="146.416" height="6.609" transform="translate(165.989 51.856) rotate(180)" fill="#fff"/>
      <rect id="Rectángulo_2227" data-name="Rectángulo 2227" width="74.875" height="6.609" transform="translate(94.448 67.107) rotate(180)" fill="#fff"/>
    </g>
    <g id="Grupo_10425" data-name="Grupo 10425" transform="translate(697.098 264.332)">
      <path id="Trazado_19956" data-name="Trazado 19956" d="M2212.139,387.97v-93a3.992,3.992,0,0,0-3.992-3.992H2053.824a3.992,3.992,0,0,0-3.992,3.992V370.75a3.992,3.992,0,0,0,3.992,3.992h139a3.993,3.993,0,0,1,3.371,1.853l8.581,13.516A3.992,3.992,0,0,0,2212.139,387.97Z" transform="translate(-2049.832 -290.982)" fill="#cfeaea"/>
      <rect id="Rectángulo_2228" data-name="Rectángulo 2228" width="128.067" height="5.781" transform="translate(17.12 12.896)" fill="#50a5a5"/>
      <rect id="Rectángulo_2229" data-name="Rectángulo 2229" width="128.067" height="5.781" transform="translate(17.12 26.236)" fill="#50a5a5"/>
      <rect id="Rectángulo_2230" data-name="Rectángulo 2230" width="128.067" height="5.781" transform="translate(17.12 39.576)" fill="#50a5a5"/>
      <rect id="Rectángulo_2231" data-name="Rectángulo 2231" width="65.491" height="5.781" transform="translate(79.696 52.917)" fill="#50a5a5"/>
    </g>
    <g id="Grupo_10432" data-name="Grupo 10432" transform="translate(729.937 322.514)">
      <g id="Grupo_10426" data-name="Grupo 10426">
        <path id="Trazado_19957" data-name="Trazado 19957" d="M2219.063,556.052l3.81,7.494-8-1.826-27.375-8.626Z" transform="translate(-2187.495 -548.751)" fill="#afd8c7"/>
        <path id="Trazado_19958" data-name="Trazado 19958" d="M2292.409,588.807l-13.594-.845,3.331-1.694Z" transform="translate(-2257.031 -574.012)" fill="#63c0c4"/>
        <path id="Trazado_19959" data-name="Trazado 19959" d="M2219.063,542.188l2.379-7.3L2187.5,539.23Z" transform="translate(-2187.495 -534.887)" fill="#fff"/>
        <path id="Trazado_19960" data-name="Trazado 19960" d="M2187.5,553.094l27.375,8.626-4.081,10.524Z" transform="translate(-2187.495 -548.751)" fill="#fff"/>
      </g>
      <g id="Grupo_10431" data-name="Grupo 10431" transform="translate(3.894 19.256)">
        <g id="Grupo_10427" data-name="Grupo 10427" transform="translate(24.958)">
          <path id="Trazado_19961" data-name="Trazado 19961" d="M2311.974,618.693a.639.639,0,0,0,.13-1.052,17.961,17.961,0,0,0-2.691-1.939.639.639,0,1,0-.647,1.1,16.666,16.666,0,0,1,2.5,1.8A.639.639,0,0,0,2311.974,618.693Z" transform="translate(-2308.45 -615.612)" fill="#63c0c4"/>
        </g>
        <g id="Grupo_10429" data-name="Grupo 10429" transform="translate(0 4.706)">
          <g id="Grupo_10428" data-name="Grupo 10428">
            <path id="Trazado_19962" data-name="Trazado 19962" d="M2222.354,703.6a.639.639,0,0,1,.226-.876,17.99,17.99,0,0,0,4.69-4.066.64.64,0,0,1,.987.816,19.269,19.269,0,0,1-5.027,4.352.4.4,0,0,1-.036.019A.639.639,0,0,1,2222.354,703.6Zm7.287-7.17a.639.639,0,0,1-.24-.871,22.885,22.885,0,0,0,2.32-5.821.64.64,0,1,1,1.242.307,24.15,24.15,0,0,1-2.45,6.145.625.625,0,0,1-.266.254A.638.638,0,0,1,2229.641,696.431Zm3.257-9.724a.641.641,0,0,1-.593-.684l.018-.288a29.5,29.5,0,0,0-.314-6.01.639.639,0,0,1,1.264-.192,30.89,30.89,0,0,1,.327,6.271l-.019.309a.641.641,0,0,1-.683.593Zm-.887-10.249a.639.639,0,0,1-.781-.454,46.6,46.6,0,0,0-2.076-6.021.639.639,0,1,1,1.179-.495,47.669,47.669,0,0,1,2.133,6.187.64.64,0,0,1-.327.734A.717.717,0,0,1,2232.011,676.458Zm-3.6-9.674a.64.64,0,0,1-.856-.292c-.079-.161-.159-.322-.24-.482a21.537,21.537,0,0,1-2.067.69.64.64,0,1,1-.342-1.233q.927-.257,1.824-.6c-.665-1.272-1.4-2.594-2.222-4.017a.639.639,0,1,1,1.105-.642c.858,1.474,1.614,2.843,2.3,4.162a19.407,19.407,0,0,0,2.663-1.486.64.64,0,0,1,.71,1.064,20.8,20.8,0,0,1-2.792,1.562q.105.21.209.42a.64.64,0,0,1-.284.852Zm5.051-5.381a.639.639,0,0,1-.012-.9,16.072,16.072,0,0,0,3.393-5.162.639.639,0,1,1,1.183.486,17.339,17.339,0,0,1-3.66,5.568.622.622,0,0,1-.168.124A.64.64,0,0,1,2233.467,661.4Zm-12.141,6a19.977,19.977,0,0,1-6.622-.517.639.639,0,0,1,.314-1.24,18.693,18.693,0,0,0,6.2.483.64.64,0,0,1,.109,1.274Zm17.071-14.915a.64.64,0,0,1-.519-.74,19.412,19.412,0,0,0,.058-6.227.639.639,0,0,1,1.265-.189,20.7,20.7,0,0,1-.063,6.637.64.64,0,0,1-.74.519Zm-27.448,12.987a16.665,16.665,0,0,1-1.5-.869,13.653,13.653,0,0,1-3.615-3.453.639.639,0,1,1,1.038-.746,12.389,12.389,0,0,0,3.273,3.127,15.465,15.465,0,0,0,1.388.8.639.639,0,1,1-.583,1.138Zm11.569-7.921a23.718,23.718,0,0,0-3.95-4.873.64.64,0,0,1,.857-.95,24.958,24.958,0,0,1,4.169,5.13.64.64,0,0,1-.191.884c-.019.012-.037.022-.057.032A.64.64,0,0,1,2222.519,657.558Zm15.339-15.283a.639.639,0,0,1-.812-.4,20.529,20.529,0,0,0-1.112-2.627,19.537,19.537,0,0,0-1.8-2.886.639.639,0,0,1,1.021-.769,20.7,20.7,0,0,1,1.917,3.076,21.806,21.806,0,0,1,1.181,2.791.64.64,0,0,1-.314.777A.667.667,0,0,1,2237.858,642.275Zm-33.017,15.654a.639.639,0,0,1-.775-.466,7.1,7.1,0,0,1,.524-5.1,6.494,6.494,0,0,1,1.092-1.5.639.639,0,0,1,.917.891,5.211,5.211,0,0,0-.877,1.207,5.772,5.772,0,0,0-.415,4.194.639.639,0,0,1-.33.724A.615.615,0,0,1,2204.841,657.929Zm10.69-7.3a9.15,9.15,0,0,0-5.888-.555.64.64,0,1,1-.314-1.24,10.324,10.324,0,0,1,6.739.634.639.639,0,1,1-.536,1.161Z" transform="translate(-2203.821 -635.339)" fill="#63c0c4"/>
          </g>
        </g>
        <g id="Grupo_10430" data-name="Grupo 10430" transform="translate(11.688 73.566)">
          <path id="Trazado_19963" data-name="Trazado 19963" d="M2256.9,925.221a.64.64,0,0,0-.466-1.185,13.689,13.689,0,0,1-3.006.507.639.639,0,1,0,.07,1.276,15.014,15.014,0,0,0,3.287-.552A.7.7,0,0,0,2256.9,925.221Z" transform="translate(-2252.821 -924.011)" fill="#63c0c4"/>
        </g>
      </g>
    </g>
  </g>
</svg>
