<svg xmlns="http://www.w3.org/2000/svg" xmlns:xlink="http://www.w3.org/1999/xlink" width="503.172" height="487.195" viewBox="0 0 503.172 487.195">
  <defs>
    <linearGradient id="linear-gradient" x1="-12.951" y1="-2.036" x2="-10.237" y2="-2.036" gradientUnits="objectBoundingBox">
      <stop offset="0" stop-color="#dfefea"/>
      <stop offset="1" stop-color="#bfe3ee"/>
    </linearGradient>
    <linearGradient id="linear-gradient-2" x1="0" y1="0.5" x2="1" y2="0.5" xlink:href="#linear-gradient"/>
    <linearGradient id="linear-gradient-3" y1="0.5" x2="1" y2="0.5" gradientUnits="objectBoundingBox">
      <stop offset="0" stop-color="#f1f8f7"/>
      <stop offset="1" stop-color="#bfe3ee"/>
    </linearGradient>
  </defs>
  <g id="Grupo_10349" data-name="Grupo 10349" transform="translate(-194.413 -207.046)">
    <g id="Grupo_10298" data-name="Grupo 10298" transform="translate(279.283 369.253)">
      <path id="Trazado_19665" data-name="Trazado 19665" d="M684.679,959.067v21.617h31.669v29.931h-1v219.243a31.3,31.3,0,0,0,31.2,31.2h0c2.72,0,168.291.152,168.291.152V1009.225a50.158,50.158,0,0,0-50.159-50.158Z" transform="translate(-663.078 -957.957)" fill="#afd8c7"/>
      <path id="Trazado_19666" data-name="Trazado 19666" d="M585.213,996.77v-20.05a22.84,22.84,0,0,1,22.723-22.764,31.166,31.166,0,0,1,31.2,30.944V996.77Z" transform="translate(-585.213 -953.955)" fill="#01888b"/>
      <g id="Grupo_10291" data-name="Grupo 10291" transform="translate(104.483 56.913)">
        <g id="Grupo_10286" data-name="Grupo 10286">
          <rect id="Rectángulo_2207" data-name="Rectángulo 2207" width="107.692" height="4.521" fill="#01888b"/>
        </g>
        <g id="Grupo_10287" data-name="Grupo 10287" transform="translate(0 18.083)">
          <rect id="Rectángulo_2208" data-name="Rectángulo 2208" width="107.692" height="4.521" fill="#01888b"/>
        </g>
        <g id="Grupo_10290" data-name="Grupo 10290" transform="translate(0 38.426)">
          <g id="Grupo_10288" data-name="Grupo 10288">
            <rect id="Rectángulo_2209" data-name="Rectángulo 2209" width="107.692" height="4.521" fill="#01888b"/>
          </g>
          <g id="Grupo_10289" data-name="Grupo 10289" transform="translate(0 18.083)">
            <rect id="Rectángulo_2210" data-name="Rectángulo 2210" width="107.692" height="4.521" fill="#01888b"/>
          </g>
        </g>
      </g>
      <g id="Grupo_10297" data-name="Grupo 10297" transform="translate(104.483 133.137)">
        <g id="Grupo_10292" data-name="Grupo 10292">
          <rect id="Rectángulo_2211" data-name="Rectángulo 2211" width="107.692" height="4.521" fill="#01888b"/>
        </g>
        <g id="Grupo_10293" data-name="Grupo 10293" transform="translate(0 18.083)">
          <rect id="Rectángulo_2212" data-name="Rectángulo 2212" width="107.692" height="4.52" fill="#01888b"/>
        </g>
        <g id="Grupo_10296" data-name="Grupo 10296" transform="translate(0 38.425)">
          <g id="Grupo_10294" data-name="Grupo 10294">
            <rect id="Rectángulo_2213" data-name="Rectángulo 2213" width="107.692" height="4.521" fill="#01888b"/>
          </g>
          <g id="Grupo_10295" data-name="Grupo 10295" transform="translate(0 18.083)">
            <rect id="Rectángulo_2214" data-name="Rectángulo 2214" width="107.692" height="4.52" fill="#01888b"/>
          </g>
        </g>
      </g>
      <path id="Trazado_19667" data-name="Trazado 19667" d="M1178.752,2175.029H1011.514s33.8-6.947,22.538-48.638h178.033S1223.352,2175.029,1178.752,2175.029Z" transform="translate(-918.934 -1871.772)" fill="#63c0c4"/>
    </g>
    <g id="Grupo_10307" data-name="Grupo 10307" transform="translate(459.662 207.046)">
      <g id="Grupo_10305" data-name="Grupo 10305" transform="translate(104.269)">
        <g id="Grupo_10304" data-name="Grupo 10304">
          <g id="Grupo_10300" data-name="Grupo 10300" transform="translate(0 46.979)">
            <path id="Trazado_19668" data-name="Trazado 19668" d="M1901.8,528.723l34.943,12.584s1.228-11.579,5.207-19.36a11.058,11.058,0,0,1,7.6-5.661c42.006-8.851,42.566-36.329,42.566-36.329s7.633-32.353-35.286-51.209c-45.757-20.1-57.968,22.608-57.968,22.608s-10.5,22.43,8.172,46.952a14.954,14.954,0,0,1,2.528,12.382A53.409,53.409,0,0,1,1901.8,528.723Z" transform="translate(-1895.922 -423.368)" fill="#ffd147"/>
            <path id="Trazado_19669" data-name="Trazado 19669" d="M1939.646,920.749l-4.508,12.516c-1.689,4.69-6.135,7.424-9.879,6.075l-21.277-7.663c-3.744-1.348-5.426-6.289-3.737-10.979l4.508-12.516Z" transform="translate(-1898.792 -802.896)" fill="#63c0c4"/>
            <path id="Trazado_19670" data-name="Trazado 19670" d="M1940.869,1023.951l-4.465,4.852-13.232-4.765-.833-6.761Z" transform="translate(-1916.602 -888.298)" fill="#01888b"/>
            <g id="Grupo_10299" data-name="Grupo 10299" transform="translate(17.913 41.348)">
              <path id="Trazado_19671" data-name="Trazado 19671" d="M2021.541,634.805c8.876-7.979-2.422-17.591-11.042-13.043a7.339,7.339,0,0,0-3.293,3.955c-1.116,2.917-2.724,7.51-2.724,7.51a55.646,55.646,0,0,1-5.021-3.242,26.1,26.1,0,0,0,2.183-8.489c.266-12.156-16.684-8.793-11.37,1.882a21.706,21.706,0,0,0,6.217,6.933q-9.042,25.791-18.083,51.581l2.387.86,11.115-31.7q2.883-8.226,5.767-16.452c.3-.862.657-1.765,1.024-2.689a43.1,43.1,0,0,0,4.921,2.84l-17.924,49.77,2.387.859,17.855-49.579c.474.2.959.406,1.407.566C2011.889,637.988,2017.718,638.241,2021.541,634.805Zm-24.308-6.5c-2.962-2.33-6.9-6.323-6.133-9.84a2.74,2.74,0,0,1,1.666-1.9c7.817-3.163,6.105,7.01,5.643,8.194A31.316,31.316,0,0,1,1997.233,628.31Zm22.413,5.355c-4.145,3.022-8.851,2.6-13.159.613l2.745-7.622a5.611,5.611,0,0,1,2.917-3.211c2.441-1.126,6.32-1.842,9.558,1.586C2023.637,627.485,2022.464,631.61,2019.645,633.664Z" transform="translate(-1978.407 -613.763)" fill="#fff"/>
            </g>
          </g>
          <g id="Grupo_10301" data-name="Grupo 10301" transform="translate(5.194)">
            <path id="Trazado_19672" data-name="Trazado 19672" d="M1933.928,234.785a1.963,1.963,0,0,0,.941-2.613l-11.289-24a1.964,1.964,0,1,0-3.555,1.672l11.288,24A1.964,1.964,0,0,0,1933.928,234.785Z" transform="translate(-1919.839 -207.046)" fill="#ffd147"/>
          </g>
          <g id="Grupo_10302" data-name="Grupo 10302" transform="translate(96.974 41.695)">
            <path id="Trazado_19673" data-name="Trazado 19673" d="M2342.646,413.129a1.963,1.963,0,0,1,.941-2.614l24-11.288a1.964,1.964,0,1,1,1.672,3.555l-24,11.289A1.963,1.963,0,0,1,2342.646,413.129Z" transform="translate(-2342.458 -399.039)" fill="#ffd147"/>
          </g>
          <g id="Grupo_10303" data-name="Grupo 10303" transform="translate(64.839 8.535)">
            <path id="Trazado_19674" data-name="Trazado 19674" d="M2195.783,275.109a1.963,1.963,0,0,0,2.514-1.182l8.985-24.95a1.964,1.964,0,1,0-3.7-1.331L2194.6,272.6A1.963,1.963,0,0,0,2195.783,275.109Z" transform="translate(-2194.484 -246.346)" fill="#ffd147"/>
          </g>
        </g>
      </g>
      <g id="Grupo_10306" data-name="Grupo 10306" transform="translate(0 142.676)">
        <path id="Trazado_19675" data-name="Trazado 19675" d="M1516.828,1013.091l-98.634,267.974c3.4,10.239.825,12.065,6.546,14.171l18.009-1.831c5.72,2.105,12.7,7.869,14.8,2.148l98.656-268.037Z" transform="translate(-1417.674 -980.718)" fill="#00666b"/>
        <path id="Trazado_19676" data-name="Trazado 19676" d="M1516.175,1013.091l-98.634,267.974c-2.105,5.721,14.831,17.22,14.831,17.22l102.457-278.362Z" transform="translate(-1417.021 -980.718)" fill="#01888b"/>
        <path id="Trazado_19677" data-name="Trazado 19677" d="M1883.966,906.136,1902.608,913a11.037,11.037,0,0,0,14.171-6.545l7.624-20.714a11.036,11.036,0,0,0-6.546-14.171l-10.357-3.812h0l-8.285-3.049a11.037,11.037,0,0,0-14.171,6.546l-7.624,20.714A11.037,11.037,0,0,0,1883.966,906.136Z" transform="translate(-1776.635 -864.023)" fill="#053c5e"/>
        <rect id="Rectángulo_2215" data-name="Rectángulo 2215" width="15.453" height="41.941" transform="translate(94.304 45.551) rotate(-69.793)" fill="url(#linear-gradient)"/>
        <path id="Trazado_19678" data-name="Trazado 19678" d="M1447.986,2402.362l-6.585,6.95-.337-9.882,4.143-1.523Z" transform="translate(-1435.577 -2064.793)" fill="#212b53"/>
        <path id="Trazado_19679" data-name="Trazado 19679" d="M1421.286,2286.425a9.016,9.016,0,0,1,3.38.549c.108.04.206.094.311.137a9.2,9.2,0,0,1,1.752.953c.033.023.063.05.1.074.232.166.458.339.671.525a8.953,8.953,0,0,1,.713.695l26.949-21.318-20.408-7.511-18.95-6.975Z" transform="translate(-1415.799 -1951.788)" fill="url(#linear-gradient-2)"/>
      </g>
    </g>
    <g id="Grupo_10311" data-name="Grupo 10311" transform="translate(338.544 506.404)">
      <path id="Trazado_19680" data-name="Trazado 19680" d="M939.5,2126.413c-3.35,23.96.317,48.783.317,48.567s2.671,0,2.671,0,3.7-29.124,4.57-38.845,0-10.37,0-10.37S942.845,2102.454,939.5,2126.413Z" transform="translate(-920.712 -2000.471)" fill="#f39f85"/>
      <path id="Trazado_19681" data-name="Trazado 19681" d="M898.534,1829.867l-8.193,5.223-3.457-7.2,10.586-12.132Z" transform="translate(-880.631 -1765.75)" fill="#00666b"/>
      <g id="Grupo_10309" data-name="Grupo 10309" transform="translate(44.708)">
        <path id="Trazado_19682" data-name="Trazado 19682" d="M1080.391,1650.132l-10.03,26.209-6.406-4.766,14.312-24.128Z" transform="translate(-1063.956 -1633.992)" fill="#f7b58e"/>
        <g id="Grupo_10308" data-name="Grupo 10308" transform="translate(14.312)">
          <path id="Trazado_19683" data-name="Trazado 19683" d="M1132.563,1592.733a4.132,4.132,0,0,0-1.477,2.555l-1.229,3.658.39.689,1.734,2a2.631,2.631,0,0,1,.685-1.369l2.729-3.055s4.477-5.22.3-6.991c2.451-4.849.7-4.724.7-4.724l-2.195,4.155Z" transform="translate(-1129.857 -1585.492)" fill="#f7b58e"/>
          <path id="Trazado_19684" data-name="Trazado 19684" d="M1134.4,1606.089s-.9-.851-.1-2.874-.412-1.882-.412-1.882-3.349,7.887-2.274,8.784S1134.4,1606.089,1134.4,1606.089Z" transform="translate(-1131.067 -1597.891)" fill="#f7b58e"/>
        </g>
      </g>
      <path id="Trazado_19685" data-name="Trazado 19685" d="M946.116,1763.268l3,.234,10.205-11.9,5.511,6.274a166.592,166.592,0,0,1-12.455,19.43c-.421,2.009-2.613,22.231-2.613,22.231H932.074s2.818-14.838-2.16-23.095S946.116,1763.268,946.116,1763.268Z" transform="translate(-913.723 -1715.531)" fill="#00666b"/>
      <path id="Trazado_19686" data-name="Trazado 19686" d="M975.461,2126.413c-3.35,23.96.317,48.783.317,48.567s2.671,0,2.671,0,3.7-29.124,4.57-38.845,0-10.37,0-10.37S978.811,2102.454,975.461,2126.413Z" transform="translate(-948.867 -2000.471)" fill="#f7b58e"/>
      <g id="Grupo_10310" data-name="Grupo 10310" transform="translate(22.845 29.233)">
        <path id="Trazado_19687" data-name="Trazado 19687" d="M973.475,1720.1l-10.192,3.568,1.005,7.609c.014.107.043.211.063.317.2.035.392.072.586.12.032.008.063.019.095.027s.062.011.092.019a6.979,6.979,0,0,1,4.765,4.77,12.04,12.04,0,0,0,4.411-.056,4.428,4.428,0,0,0,2.317-1C978.769,1730.779,973.475,1720.1,973.475,1720.1Z" transform="translate(-963.283 -1720.098)" fill="#f7b58e"/>
      </g>
      <path id="Trazado_19688" data-name="Trazado 19688" d="M943.168,1714.786a6.708,6.708,0,0,0-.209,5.858,9.846,9.846,0,0,1,.341,8.031,10.715,10.715,0,0,1-3.733,3.371,5.763,5.763,0,0,0-2.706,4.362c-.227,2.475-.462,5.513-2.582,6.243-6.151,2.119-8.407,1.914-9.227-3.212a10.422,10.422,0,0,1,.531-5.023,8.983,8.983,0,0,0-.19-6.732,11.734,11.734,0,0,1-1.161-4.019c0-1.162,1.064-2.8,2.182-4.19a8.614,8.614,0,0,0,1.811-6.175c-.2-2.219.113-5.055,2.364-6.977,4.2-3.586,13.533,2.058,13.533,2.058A9,9,0,0,1,943.168,1714.786Z" transform="translate(-909.867 -1679.148)" fill="#212b53"/>
      <path id="Trazado_19689" data-name="Trazado 19689" d="M864.344,1871.621l-3.935,4.074c-2.614,2.706-3.423,6.473-.281,8.544l12.858,10.213-1.182,2.213a5.4,5.4,0,0,0,.471,5.817l1.359,1.78,3.008-10.325-9.323-11.64a2.234,2.234,0,0,1,.482-3.473h0Z" transform="translate(-858.091 -1809.482)" fill="#f7b58e"/>
      <path id="Trazado_19690" data-name="Trazado 19690" d="M942.347,1972.33a43.173,43.173,0,0,1,2.593,13.535c0,3.742-3.241,31.962-3.241,31.962H924.853c1.141-20.841-5.177-23.4-5.177-32.405,0-6.354,4.977-13.091,4.977-13.091Z" transform="translate(-906.302 -1888.32)" fill="#053c5e"/>
      <path id="Trazado_19691" data-name="Trazado 19691" d="M941.58,2374.613a3.119,3.119,0,0,0-1.2,2.634c.27,1.476.652,4.932.652,4.932h1.514l-.047-3.224c0-.211,3.248,3.224,3.8,3.224h8.014s.533-2.175-4.174-2.874S941.58,2374.613,941.58,2374.613Z" transform="translate(-922.481 -2203.239)" fill="#212b53"/>
      <path id="Trazado_19692" data-name="Trazado 19692" d="M980.991,2374.613a3.119,3.119,0,0,0-1.2,2.634c.27,1.476.652,4.932.652,4.932h1.515l-.047-3.224c0-.211,3.248,3.224,3.8,3.224h8.014s.532-2.175-4.174-2.874S980.991,2374.613,980.991,2374.613Z" transform="translate(-953.333 -2203.239)" fill="#12375a"/>
      <path id="Trazado_19693" data-name="Trazado 19693" d="M940.528,2165.414" transform="translate(-922.625 -2039.472)" fill="#01888b"/>
    </g>
    <g id="Grupo_10319" data-name="Grupo 10319" transform="translate(258.125 524.993)">
      <g id="Grupo_10312" data-name="Grupo 10312" transform="translate(26.768 150.648)">
        <path id="Trazado_19694" data-name="Trazado 19694" d="M615.754,2380.07s1.1,1.523,6.289,2.845c1.142.291,2.374.49,2.374,2.374H619.3l-5.237-.906v.906h-2.828s-.788-4.626.864-5.219Z" transform="translate(-611.043 -2376.748)" fill="#212b53"/>
        <path id="Trazado_19695" data-name="Trazado 19695" d="M619.815,2364.771l-.269,3.323h0a3.2,3.2,0,0,1-3.465.116l-.194-.116v-3.323Z" transform="translate(-614.835 -2364.771)" fill="#f7b58e"/>
      </g>
      <g id="Grupo_10313" data-name="Grupo 10313" transform="translate(0.498 151.309)">
        <path id="Trazado_19696" data-name="Trazado 19696" d="M494.789,2383.118s1.1,1.524,6.289,2.845c1.142.291,2.374.49,2.374,2.374H498.33l-5.236-.906v.906h-2.828s-.788-4.625.865-5.219Z" transform="translate(-490.078 -2379.795)" fill="#212b53"/>
        <path id="Trazado_19697" data-name="Trazado 19697" d="M498.851,2367.819l-.269,3.323h0a3.2,3.2,0,0,1-3.465.116l-.194-.116v-3.323Z" transform="translate(-493.871 -2367.819)" fill="#f7b58e"/>
      </g>
      <path id="Trazado_19698" data-name="Trazado 19698" d="M589.837,1963.028l-1.275,83.457h-6.081s-9.255-67.38-7.279-83.457S589.837,1963.028,589.837,1963.028Z" transform="translate(-556.001 -1894.033)" fill="#212b53"/>
      <path id="Trazado_19699" data-name="Trazado 19699" d="M516.987,1988.7s-2.117,25.637-6.978,39.829-13.64,43.646-13.64,43.646h-6.293s10.51-61.55,8.106-83.474h18.805Z" transform="translate(-489.579 -1919.726)" fill="#053c5e"/>
      <path id="Trazado_19700" data-name="Trazado 19700" d="M627.16,1793.1s7.494,17.475,9.4,17.475c1.521,0-.571-14.269-.571-14.269h6.276s7.892,24.457,1.616,28.926-20.064-12.646-20.064-12.646Z" transform="translate(-594.273 -1766.603)" fill="#ffd147"/>
      <path id="Trazado_19701" data-name="Trazado 19701" d="M536.335,1997.541l2.271,5.615c1.094,2.206,5.113,2.261,7.782,1.561a.554.554,0,0,0,.262-.91,77.119,77.119,0,0,0-6.587-6.648Z" transform="translate(-525.792 -1926.346)" fill="#f7b58e"/>
      <path id="Trazado_19702" data-name="Trazado 19702" d="M552.4,1776.186a7.043,7.043,0,0,1,6.033,3.343,4.756,4.756,0,0,1,.738,2.4v40.39H536.243v-37.762s.469-8.4,8.677-8.4C548.414,1776.158,550.808,1776.171,552.4,1776.186Z" transform="translate(-525.72 -1753.34)" fill="#ffd147"/>
      <g id="Grupo_10314" data-name="Grupo 10314" transform="translate(33.074 32.719)">
        <path id="Trazado_19703" data-name="Trazado 19703" d="M640.084,1858.023v-36.275l.761.025v36.25Z" transform="translate(-640.084 -1821.748)" fill="#f6a505"/>
      </g>
      <path id="Trazado_19704" data-name="Trazado 19704" d="M572.043,1740.673l2.445,9.206a5.82,5.82,0,0,0,4.853.961c2.766-.735,2.236-2.728,2.236-2.728l-1.567-5.9-4.376.021Z" transform="translate(-553.745 -1725.561)" fill="#f39f85"/>
      <path id="Trazado_19705" data-name="Trazado 19705" d="M573.715,1699.689a3.549,3.549,0,0,0,1.911-1.079c1.416-4.565-4.182-14.37-4.182-14.37l-8.486,3.964,1.593,7.144a6.141,6.141,0,0,0,3.521,4.285h0A9.854,9.854,0,0,0,573.715,1699.689Z" transform="translate(-546.633 -1681.383)" fill="#f7b58e"/>
      <path id="Trazado_19706" data-name="Trazado 19706" d="M559.3,1676.98a19.732,19.732,0,0,0,6.07-1.612c2.964-1.38.063-4.28.063-4.28a12.666,12.666,0,0,1-6.277,2.145c-2.87.325-3.755-.014-5.275,1.4-2.065,1.922-.328,6.117-.328,6.117l3.771,8.849.5-.132s-1.331-5.5-1.826-7.367c.295-.986.859-1.136,1.35-1.039a1.441,1.441,0,0,1,1.074,1.068l2.537,9.553s6.78,1.007,8.2.12-1.493-7.691-1.493-7.691a2.941,2.941,0,0,0-2.963,1.616c-.962,1.9-3.049.744-3.049.744Z" transform="translate(-538.739 -1671.088)" fill="#212b53"/>
      <path id="Trazado_19707" data-name="Trazado 19707" d="M672.59,1778.794l-.221-1.205c-.49-2.669-3.04-5.988-5.609-6.859H664.1l.825,5.692,3.76,2.372Z" transform="translate(-625.807 -1749.091)" fill="#f7b58e"/>
      <path id="Trazado_19708" data-name="Trazado 19708" d="M567.005,1716.633a1.608,1.608,0,0,1,1.855,1.072,1.385,1.385,0,0,1-.566,1.935,1.608,1.608,0,0,1-1.855-1.072A1.385,1.385,0,0,1,567.005,1716.633Z" transform="translate(-549.232 -1706.694)" fill="#f7b58e"/>
      <path id="Trazado_19709" data-name="Trazado 19709" d="M659.927,1786.857l5.19,3s-3.256-.033-3.309,0l-5.493-4.6s.4-.8,1.644-.125A6.313,6.313,0,0,1,659.927,1786.857Z" transform="translate(-619.715 -1760.157)" fill="#f7b58e"/>
      <path id="Trazado_19710" data-name="Trazado 19710" d="M500.751,1787.8s-12.964,14.4-12.964,23.035,10.523,23.846,10.523,23.846l5.2-1.521s-4.691-18.828-4.691-23.836,9.636-12.352,9.636-12.352" transform="translate(-487.787 -1762.451)" fill="#ffd147"/>
      <g id="Grupo_10315" data-name="Grupo 10315" transform="translate(10.65 34.216)">
        <path id="Trazado_19711" data-name="Trazado 19711" d="M537.586,1841.295c0,4.312,3.816,20.077,4.714,23.75-.263.07-.372.09-.77.194-1.1-4.537-4.7-19.706-4.7-23.943,0-5.137,9.387-12.35,9.786-12.654l.461.6C546.977,1829.318,537.586,1836.53,537.586,1841.295Z" transform="translate(-536.825 -1828.641)" fill="#f6a505"/>
      </g>
      <g id="Grupo_10318" data-name="Grupo 10318" transform="translate(32.355 5.205)">
        <path id="Trazado_19712" data-name="Trazado 19712" d="M657.3,1753.5a13.755,13.755,0,0,0,3.608,9.686,1.5,1.5,0,0,0,1.029.414,3.816,3.816,0,0,0,1.742-.517,1.668,1.668,0,0,0,.98-.906.72.72,0,0,0-.169-.737c-.823-.946-3.41-4.228-2.828-7.492A5.638,5.638,0,0,0,657.3,1753.5Z" transform="translate(-652.833 -1740.609)" fill="#00666b"/>
        <path id="Trazado_19713" data-name="Trazado 19713" d="M672.177,1762.905a1.1,1.1,0,0,0,.53-.654.72.72,0,0,0-.169-.737c-.823-.946-3.41-4.228-2.828-7.492a4.76,4.76,0,0,0-2.139-.677C667.9,1756.811,668.924,1759.025,672.177,1762.905Z" transform="translate(-660.883 -1740.687)" fill="#01888b"/>
        <g id="Grupo_10317" data-name="Grupo 10317" transform="translate(7.914 15.386)">
          <g id="Grupo_10316" data-name="Grupo 10316" transform="translate(0 0.013)">
            <path id="Trazado_19714" data-name="Trazado 19714" d="M673.388,1767.9c.262.772.721,1.314,1.024,1.211s.337-.813.075-1.585-.721-1.314-1.025-1.211S673.126,1767.133,673.388,1767.9Z" transform="translate(-673.212 -1766.232)" fill="#00666b"/>
            <path id="Trazado_19715" data-name="Trazado 19715" d="M674.1,1766.079l.318-.119,0,.168-.207.113Z" transform="translate(-673.905 -1765.96)" fill="#f49b42"/>
            <path id="Trazado_19716" data-name="Trazado 19716" d="M678.138,1778.8l.387-.126-.46-.01Z" transform="translate(-677.011 -1775.905)" fill="#e7365e"/>
          </g>
          <path id="Trazado_19717" data-name="Trazado 19717" d="M674.579,1767.5c.262.772.721,1.314,1.024,1.211s.337-.813.075-1.585-.721-1.314-1.024-1.211S674.317,1766.728,674.579,1767.5Z" transform="translate(-674.144 -1765.902)" fill="#63c0c4"/>
        </g>
        <path id="Trazado_19718" data-name="Trazado 19718" d="M639.261,1733.723l-.61.076a2.094,2.094,0,0,0-1.867,2.285l.2,1.6a2.093,2.093,0,0,0,2.373,1.753l.61-.076Z" transform="translate(-636.769 -1725.326)" fill="#00666b"/>
        <path id="Trazado_19719" data-name="Trazado 19719" d="M718.036,1702.7c.549,4.377-.012,8.051-1.254,8.207s-2.692-3.266-3.241-7.643.013-8.051,1.254-8.207S717.487,1698.327,718.036,1702.7Z" transform="translate(-696.704 -1695.056)" fill="#212b53"/>
        <path id="Trazado_19720" data-name="Trazado 19720" d="M710.605,1719.477l1.921.933.321,2.564-1.623,1.891-1.051-3.255Z" transform="translate(-694.233 -1714.173)" fill="#fff"/>
        <path id="Trazado_19721" data-name="Trazado 19721" d="M661.334,1704.5c-.461-3.678-.136-6.851.715-7.866l0,0a36.508,36.508,0,0,1-15.4,8.157l.7,5.594s11.72-2.143,16.624,1.571l.006,0C662.9,1711.174,661.8,1708.178,661.334,1704.5Z" transform="translate(-644.496 -1696.286)" fill="#053c5e"/>
        <path id="Trazado_19722" data-name="Trazado 19722" d="M720.933,1724.978c.089.711.053,1.3-.081,1.318s-.315-.546-.4-1.257-.053-1.3.082-1.318S720.844,1724.267,720.933,1724.978Z" transform="translate(-702.237 -1717.495)" fill="#ffd147"/>
      </g>
      <path id="Trazado_19723" data-name="Trazado 19723" d="M670.405,1775.083a6.125,6.125,0,0,1-2.9.472c-1.509,0-2.188-1.855-2.446-2.864-.091-.355-.171-.859.273-1.086l2.424-.336Z" transform="translate(-626.506 -1749.513)" fill="#f7b58e"/>
    </g>
    <g id="Grupo_10325" data-name="Grupo 10325" transform="translate(646.556 533.634)">
      <path id="Trazado_19724" data-name="Trazado 19724" d="M2282.176,1747.571a4.951,4.951,0,0,1,.213,3.53l-.644,4.58-.787.529-2.928,1.209a3.153,3.153,0,0,0,0-1.834l-1.286-4.738s-2-7.994,3.428-7.652c-.028-6.512,1.787-5.437,1.787-5.437l.125,5.63Z" transform="translate(-2276.384 -1731.869)" fill="#f7b58e"/>
      <path id="Trazado_19725" data-name="Trazado 19725" d="M2299.827,1826.527s-3.794,14.482-7.031,14.741-6.6-22.942-6.6-22.942l-4.4.532s-1.709,33.363,8.162,33.97,11.175-6.771,11.175-6.771Z" transform="translate(-2280.53 -1794.992)" fill="#ffe97d"/>
      <path id="Trazado_19726" data-name="Trazado 19726" d="M2365.651,1866.121h25.824V1826.9c-7.378-11.259-16.573-8.192-16.573-8.192s-8.361.15-9.664,7.819C2365.239,1832.077,2365.651,1866.121,2365.651,1866.121Z" transform="translate(-2345.942 -1794.992)" fill="#f6a505"/>
      <g id="Grupo_10320" data-name="Grupo 10320" transform="translate(25.56 18.506)">
        <path id="Trazado_19727" data-name="Trazado 19727" d="M2400.5,1796.094l.382,5.545-.182.173a4.809,4.809,0,0,1-6.532.091h0l-.087-4.172Z" transform="translate(-2394.078 -1796.094)" fill="#f39f85"/>
      </g>
      <g id="Grupo_10321" data-name="Grupo 10321" transform="translate(17.397)">
        <path id="Trazado_19728" data-name="Trazado 19728" d="M2384.646,1742.75l-.467,9.166a1.417,1.417,0,0,0-1.273,1.8,1.724,1.724,0,0,0-.153.675,10.517,10.517,0,0,1-8.167,1.9c-5.8-1.11-2.3-12.323-2.3-12.323Z" transform="translate(-2368.036 -1735.828)" fill="#f7b58e"/>
        <path id="Trazado_19729" data-name="Trazado 19729" d="M2376.015,1724.684a5.615,5.615,0,0,1,1.469-2.538c3.284-2.841.346-4.913-.7-5.582-1.152-.741-.926-2.831-2.418-4-2.279-1.783-4.475.065-5.934-.205s-2.365-2.211-4.487-1.183-1.888,2.694-2.568,3.4-1.929-1.239-4,.979c-3.148,3.375,3.025,4.819,3.025,4.819a11.2,11.2,0,0,0,7.852-.357,1.467,1.467,0,0,1,1.731.425c1.068,1.459,1.081,9.106,1.081,9.106l1.492-1.241S2375.817,1727.763,2376.015,1724.684Z" transform="translate(-2356.49 -1710.879)" fill="#212b53"/>
        <path id="Trazado_19730" data-name="Trazado 19730" d="M2420.607,1770.909a1.407,1.407,0,1,1-.769-1.836A1.407,1.407,0,0,1,2420.607,1770.909Z" transform="translate(-2404.561 -1756.353)" fill="#f7b58e"/>
      </g>
      <g id="Grupo_10322" data-name="Grupo 10322" transform="translate(14.107 140.689)">
        <path id="Trazado_19731" data-name="Trazado 19731" d="M2352.8,2378.936s-1.456,2.014-8.316,3.761c-1.51.385-3.139.647-3.139,3.139h6.772l6.924-1.2v1.2h3.74s1.042-6.116-1.143-6.9Z" transform="translate(-2341.341 -2374.542)" fill="#212b53"/>
        <path id="Trazado_19732" data-name="Trazado 19732" d="M2392.451,2358.706l.355,4.393h0a4.231,4.231,0,0,0,4.582.154l.257-.154v-4.393Z" transform="translate(-2381.351 -2358.706)" fill="#f7b58e"/>
      </g>
      <g id="Grupo_10323" data-name="Grupo 10323" transform="translate(33.345 140.689)">
        <path id="Trazado_19733" data-name="Trazado 19733" d="M2441.381,2378.936s-1.456,2.014-8.316,3.761c-1.51.385-3.139.647-3.139,3.139h6.772l6.924-1.2v1.2h3.74s1.042-6.116-1.143-6.9Z" transform="translate(-2429.926 -2374.542)" fill="#212b53"/>
        <path id="Trazado_19734" data-name="Trazado 19734" d="M2481.035,2358.706l.356,4.393h0a4.23,4.23,0,0,0,4.582.154l.257-.154v-4.393Z" transform="translate(-2469.936 -2358.706)" fill="#f7b58e"/>
      </g>
      <path id="Trazado_19735" data-name="Trazado 19735" d="M2394.344,1857.8s7.74,17.863-2.135,26.989-23.283,7.573-23.283,7.573v-5.145s12.119-1.025,16-9.126-1.553-15.113-1.553-15.113" transform="translate(-2348.828 -1825.895)" fill="#f6a505"/>
      <path id="Trazado_19736" data-name="Trazado 19736" d="M2333.69,1987.79l-6.182.13c-2.51-.139-4.18-3.887-4.6-6.673a.566.566,0,0,1,.749-.612,78.714,78.714,0,0,1,8.889,3.5Z" transform="translate(-2312.802 -1922.026)" fill="#f7b58e"/>
      <path id="Trazado_19737" data-name="Trazado 19737" d="M2357.86,2038.405c-7.7,21.747,4.336,69.9,4.336,69.9h6.861s-3.236-68.282,5.7-69.9Z" transform="translate(-2338.151 -1967.276)" fill="#212b53"/>
      <path id="Trazado_19738" data-name="Trazado 19738" d="M2384.032,1926.348a13.924,13.924,0,0,1-1.379,5.4c-3.883,8.1-16.632,9.174-16.632,9.174v5.2s14.038,1.453,23.914-7.672c3.581-3.309,4.84-7.765,5-12.1Z" transform="translate(-2346.554 -1879.554)" fill="#ffda71"/>
      <g id="Grupo_10324" data-name="Grupo 10324" transform="translate(34.541 36.653)">
        <path id="Trazado_19739" data-name="Trazado 19739" d="M2438.31,1890.578c.271-.123.543-.24.812-.369a16.589,16.589,0,0,0-3.08-10.556l-.609.483A15.664,15.664,0,0,1,2438.31,1890.578Z" transform="translate(-2435.432 -1879.653)" fill="#f08712"/>
      </g>
      <path id="Trazado_19740" data-name="Trazado 19740" d="M2296.874,1768.541s1.425-.428,1.647-3.027,1.451-1.8,1.451-1.8-.638,10.248-2.272,10.633S2296.874,1768.541,2296.874,1768.541Z" transform="translate(-2292.267 -1752.151)" fill="#f7b58e"/>
      <path id="Trazado_19741" data-name="Trazado 19741" d="M2401.461,2038.405c-2.1,26.666,14.929,69.9,14.929,69.9h8.155s-5.542-27.645-5.655-53.591a138.65,138.65,0,0,1,.8-16.308Z" transform="translate(-2374.158 -1967.276)" fill="#053c5e"/>
    </g>
    <g id="Grupo_10338" data-name="Grupo 10338" transform="translate(550.622 532.142)">
      <g id="Grupo_10326" data-name="Grupo 10326" transform="translate(30.095 146.135)">
        <path id="Trazado_19742" data-name="Trazado 19742" d="M1982.7,2391.653s-2.193,2.034-7.192,3.307c-1.1.281-2.287-.094-2.287,1.721h6.067l5.046-.873v.873h2.725s.759-4.457-.833-5.029Z" transform="translate(-1973.219 -2388.452)" fill="#212b53"/>
        <path id="Trazado_19743" data-name="Trazado 19743" d="M2017.175,2376.912l-.307,3.2h0a3.082,3.082,0,0,0,3.339.112l.187-.112,1.132-3.2Z" transform="translate(-2007.389 -2376.912)" fill="#f7b58e"/>
      </g>
      <g id="Grupo_10327" data-name="Grupo 10327" transform="translate(54.343 146.135)">
        <path id="Trazado_19744" data-name="Trazado 19744" d="M2094.354,2391.653s-2.193,2.034-7.192,3.307c-1.1.281-2.287-.094-2.287,1.721h6.067l5.046-.873v.873h2.725s.759-4.457-.833-5.029Z" transform="translate(-2084.874 -2388.452)" fill="#212b53"/>
        <path id="Trazado_19745" data-name="Trazado 19745" d="M2128.831,2376.912l-.307,3.2h0a3.083,3.083,0,0,0,3.339.112l.187-.112,1.132-3.2Z" transform="translate(-2119.044 -2376.912)" fill="#f7b58e"/>
      </g>
      <path id="Trazado_19746" data-name="Trazado 19746" d="M2027.366,2007.944h-6.98l-2.453,80.894h4.716l13.856-65.84Z" transform="translate(-1978.127 -1941.938)" fill="#212b53"/>
      <path id="Trazado_19747" data-name="Trazado 19747" d="M2050.943,2007.944l16.315,80.894h5.191l-2.129-80.894Z" transform="translate(-2003.968 -1941.938)" fill="#053c5e"/>
      <g id="Grupo_10333" data-name="Grupo 10333" transform="translate(54.472 79.341)">
        <g id="Grupo_10328" data-name="Grupo 10328" transform="translate(6.672)">
          <path id="Trazado_19748" data-name="Trazado 19748" d="M2116.192,2073.8l1.564-.111a2.753,2.753,0,0,1,.727-1.906,3.928,3.928,0,0,1,2.893-.93,4.405,4.405,0,0,1,3.122.92,1.884,1.884,0,0,1,.571,1.317l1.566.089a3.313,3.313,0,0,0-.973-2.416,5.783,5.783,0,0,0-4.286-1.416,5.414,5.414,0,0,0-4.054,1.423A4.207,4.207,0,0,0,2116.192,2073.8Z" transform="translate(-2116.187 -2069.345)" fill="#212b53"/>
        </g>
        <g id="Grupo_10331" data-name="Grupo 10331" transform="translate(0 3.046)">
          <rect id="Rectángulo_2216" data-name="Rectángulo 2216" width="23.36" height="15.031" transform="translate(23.36 18.255) rotate(180)" fill="#212b53"/>
          <g id="Grupo_10330" data-name="Grupo 10330">
            <g id="Grupo_10329" data-name="Grupo 10329">
              <path id="Trazado_19749" data-name="Trazado 19749" d="M2096.29,2126.544c0,.917.436,1.021.975,1.021s.975-.1.975-1.021v-3.189a60.558,60.558,0,0,0,10.585-1.9v11.856c0,1.06-.41,1.918-1.032,1.918h-21.3c-.622,0-1.032-.858-1.032-1.918V2121.5a69.977,69.977,0,0,0,10.826,1.833Z" transform="translate(-2085.464 -2113.188)" fill="#ffda71"/>
              <path id="Trazado_19750" data-name="Trazado 19750" d="M2090.174,2122.654a44.831,44.831,0,0,0,3.624,6.124,66.591,66.591,0,0,0,5.6,6.6h-12.9c-.622,0-1.032-.858-1.032-1.918V2121.64C2087.656,2122.149,2088.927,2122.433,2090.174,2122.654Z" transform="translate(-2085.464 -2113.329)" fill="#f6a505"/>
              <path id="Trazado_19751" data-name="Trazado 19751" d="M2086.5,2083.369h21.3c.622,0,1.032.858,1.032,1.917v5.751a36.174,36.174,0,0,1-10.585,1.8v-.778c0-.917-.436-1.021-.975-1.021s-.975.1-.975,1.021v.775a37.326,37.326,0,0,1-10.826-1.8v-5.751C2085.464,2084.227,2085.874,2083.369,2086.5,2083.369Z" transform="translate(-2085.464 -2083.369)" fill="#63c0c4"/>
            </g>
          </g>
        </g>
        <g id="Grupo_10332" data-name="Grupo 10332" transform="translate(10.521 12.938)">
          <path id="Trazado_19752" data-name="Trazado 19752" d="M2133.911,2133.444v-.987a.423.423,0,0,1,.423-.423h1.69a.423.423,0,0,1,.423.423v.987a.423.423,0,0,1-.423.422h-1.69A.423.423,0,0,1,2133.911,2133.444Zm.423-1.289a.3.3,0,0,0-.3.3v.987a.3.3,0,0,0,.3.3h1.69a.3.3,0,0,0,.3-.3v-.987a.3.3,0,0,0-.3-.3Z" transform="translate(-2133.911 -2131.358)" fill="#fff"/>
          <path id="Trazado_19753" data-name="Trazado 19753" d="M2139.248,2130.4a.106.106,0,0,0,.109.1h0a.105.105,0,0,0,.109-.1v-1.378a.106.106,0,0,0-.109-.1h0a.106.106,0,0,0-.109.1Z" transform="translate(-2138.089 -2128.921)" fill="#fff"/>
        </g>
      </g>
      <g id="Grupo_10334" data-name="Grupo 10334" transform="translate(0 52.494)">
        <path id="Trazado_19754" data-name="Trazado 19754" d="M1843.323,1950.137a6.168,6.168,0,0,1-3.3.955c-1.941.161-6.076-.684-5.287,1.234,1.859,1,3.922,2.4,3.922,2.4,1.185.5,3.284-.019,4.53-.588l3.622-2.211s.311-2.036.343-2.129l-.83-.338A9.98,9.98,0,0,1,1843.323,1950.137Z" transform="translate(-1834.64 -1948.652)" fill="#f7b58e"/>
        <path id="Trazado_19755" data-name="Trazado 19755" d="M1859.722,1948.063a1.547,1.547,0,0,1-.215.233c.258.1.507.22.75.344,1.017.028,2.032.086,3.048.125-.062-.586-.149-1.409-.144-1.469l-6.6-1.572s-.535.7.673,1.444A6.748,6.748,0,0,0,1859.722,1948.063Z" transform="translate(-1851.704 -1945.724)" fill="#f7b58e"/>
      </g>
      <path id="Trazado_19756" data-name="Trazado 19756" d="M2127.189,2047.733l-2.2,4.827s.472,2.653,1.443,3.688a1.034,1.034,0,0,0,1.149.232c.915-.378,3.025-1.292,3.374-1.793a.99.99,0,0,0,.108-.86l-.64-2.126-.079-4.956Z" transform="translate(-2061.938 -1972.313)" fill="#f7b58e"/>
      <g id="Grupo_10336" data-name="Grupo 10336" transform="translate(46.195)">
        <path id="Trazado_19757" data-name="Trazado 19757" d="M2075.318,1770.116l-.073,6.468,5.762-.31.364-10.026Z" transform="translate(-2069.187 -1752.731)" fill="#f39f85"/>
        <g id="Grupo_10335" data-name="Grupo 10335" transform="translate(2.274 3.479)">
          <path id="Trazado_19758" data-name="Trazado 19758" d="M2060.718,1734.53a3.479,3.479,0,0,1-1.942-.461c-2.323-3.377.323-12.481.323-12.481l3.711-1.563,4.716,2.941.269,6.1a4.951,4.951,0,0,1-2.106,4.208h0A9.666,9.666,0,0,1,2060.718,1734.53Z" transform="translate(-2057.821 -1720.025)" fill="#f7b58e"/>
        </g>
        <path id="Trazado_19759" data-name="Trazado 19759" d="M2058.021,1713.885c-.259-1.025.442-3.39-.6-3.219-.761.125-3.37.232-4.248.232-2.092,0-5.821-.819-5.821-4a2.9,2.9,0,0,1,1.956-2.806c.96-.4,2.043.75,3.025,1.094,2.3.805,7.058,1.457,8.275,1.2a2.815,2.815,0,0,1,2.934,1.966c.233,1.846-1,4.658-1.916,6.436a9.779,9.779,0,0,1-2.089,2.733h0Z" transform="translate(-2047.351 -1704.007)" fill="#212b53"/>
        <path id="Trazado_19760" data-name="Trazado 19760" d="M2099.859,1749.6a1.575,1.575,0,0,0-1.949.174c-.61.508-.727,1.253-.261,1.665a1.575,1.575,0,0,0,1.949-.174C2100.208,1750.754,2100.325,1750.009,2099.859,1749.6Z" transform="translate(-2086.502 -1739.49)" fill="#f7b58e"/>
      </g>
      <path id="Trazado_19761" data-name="Trazado 19761" d="M1930.757,1804.5a16.6,16.6,0,0,1,6.762,1.385,16.269,16.269,0,0,1,9.11,11.255c1.833,7.785,4.906,26.255-2.141,42.446a35.052,35.052,0,0,1-4.716,0l-.755-38.168.534,27.264H1917.7V1831.1s-.566,3.971-5.848,7.638-25.091,1.229-25.091,1.229v-4.132s17.356-3.649,20.186-5.795,8.941-17.619,8.941-17.619a13.96,13.96,0,0,1,9.559-7.418A26.278,26.278,0,0,1,1930.757,1804.5Z" transform="translate(-1875.442 -1782.673)" fill="#01888b"/>
      <g id="Grupo_10337" data-name="Grupo 10337" transform="translate(63.293 39.868)">
        <path id="Trazado_19762" data-name="Trazado 19762" d="M2126.6,1913.877l-.515-26.272.566-.016.52,26.289Z" transform="translate(-2126.085 -1887.588)" fill="#63c0c4"/>
      </g>
      <path id="Trazado_19763" data-name="Trazado 19763" d="M2079.688,1796.015l.355,2.124-6.622-.012.434-2.112Z" transform="translate(-2021.564 -1776.034)" fill="#fff"/>
    </g>
    <g id="Grupo_10345" data-name="Grupo 10345" transform="translate(649.124 379.613)">
      <g id="Grupo_10339" data-name="Grupo 10339" transform="translate(0 0)">
        <path id="Trazado_19764" data-name="Trazado 19764" d="M2320.777,1025.344l3.931,7.732-8.256-1.884-28.242-8.9Z" transform="translate(-2288.21 -1017.812)" fill="#afd8c7"/>
        <path id="Trazado_19765" data-name="Trazado 19765" d="M2405.717,1062.505l-14.025-.872,3.437-1.747Z" transform="translate(-2369.218 -1047.241)" fill="#63c0c4"/>
        <path id="Trazado_19766" data-name="Trazado 19766" d="M2320.777,1009.193l2.455-7.532-35.022,4.481Z" transform="translate(-2288.21 -1001.66)" fill="url(#linear-gradient-3)"/>
        <path id="Trazado_19767" data-name="Trazado 19767" d="M2288.21,1022.292l28.242,8.9-4.21,10.857Z" transform="translate(-2288.21 -1017.812)" fill="url(#linear-gradient-3)"/>
      </g>
      <g id="Grupo_10344" data-name="Grupo 10344" transform="translate(4.018 19.866)">
        <g id="Grupo_10340" data-name="Grupo 10340" transform="translate(25.749)">
          <path id="Trazado_19768" data-name="Trazado 19768" d="M2428.909,1096.316a.652.652,0,0,0,.2-.155.659.659,0,0,0-.065-.93,18.482,18.482,0,0,0-2.776-2,.659.659,0,1,0-.668,1.137,17.178,17.178,0,0,1,2.578,1.858A.659.659,0,0,0,2428.909,1096.316Z" transform="translate(-2425.274 -1093.138)" fill="#63c0c4"/>
        </g>
        <g id="Grupo_10342" data-name="Grupo 10342" transform="translate(0 4.855)">
          <g id="Grupo_10341" data-name="Grupo 10341">
            <path id="Trazado_19769" data-name="Trazado 19769" d="M2325.83,1185.915a.66.66,0,0,1,.233-.9,18.562,18.562,0,0,0,4.839-4.194.66.66,0,0,1,1.018.841,19.864,19.864,0,0,1-5.186,4.489.358.358,0,0,1-.037.02A.66.66,0,0,1,2325.83,1185.915Zm7.518-7.4a.659.659,0,0,1-.248-.9,23.619,23.619,0,0,0,2.393-6.005.66.66,0,1,1,1.281.317,24.9,24.9,0,0,1-2.528,6.34.648.648,0,0,1-.274.262A.658.658,0,0,1,2333.348,1178.518Zm3.36-10.032a.661.661,0,0,1-.612-.705l.019-.3a30.438,30.438,0,0,0-.324-6.2.66.66,0,0,1,1.3-.2,31.835,31.835,0,0,1,.337,6.47l-.02.319a.661.661,0,0,1-.705.611Zm-.916-10.573a.66.66,0,0,1-.807-.469,48.055,48.055,0,0,0-2.142-6.212.66.66,0,0,1,1.216-.51,49.2,49.2,0,0,1,2.2,6.383.659.659,0,0,1-.338.757A.721.721,0,0,1,2335.792,1157.913Zm-3.709-9.981a.66.66,0,0,1-.883-.3q-.122-.249-.247-.5a22.181,22.181,0,0,1-2.133.711.66.66,0,0,1-.353-1.271q.957-.265,1.882-.621c-.686-1.312-1.44-2.676-2.293-4.144a.659.659,0,0,1,1.14-.662c.885,1.521,1.665,2.932,2.372,4.293a20.012,20.012,0,0,0,2.747-1.533.66.66,0,1,1,.733,1.1,21.444,21.444,0,0,1-2.88,1.611q.108.217.215.434a.659.659,0,0,1-.293.879Zm5.211-5.551a.659.659,0,0,1-.012-.933,16.6,16.6,0,0,0,3.5-5.325.66.66,0,0,1,1.22.5,17.89,17.89,0,0,1-3.776,5.745.641.641,0,0,1-.173.128A.661.661,0,0,1,2337.294,1142.381Zm-12.525,6.194a20.61,20.61,0,0,1-6.832-.534.66.66,0,0,1,.324-1.279,19.281,19.281,0,0,0,6.4.5.66.66,0,1,1,.112,1.315Zm17.612-15.387a.66.66,0,0,1-.536-.764,20,20,0,0,0,.06-6.424.66.66,0,0,1,1.3-.195,21.33,21.33,0,0,1-.065,6.847.659.659,0,0,1-.763.536Zm-28.317,13.4a17.2,17.2,0,0,1-1.549-.9,14.089,14.089,0,0,1-3.729-3.563.659.659,0,1,1,1.071-.77,12.779,12.779,0,0,0,3.376,3.226,16.034,16.034,0,0,0,1.432.829.66.66,0,1,1-.6,1.174Zm11.936-8.172a24.476,24.476,0,0,0-4.076-5.027.66.66,0,1,1,.884-.98,25.743,25.743,0,0,1,4.3,5.293.661.661,0,0,1-.2.912c-.019.012-.039.023-.059.033A.659.659,0,0,1,2326,1138.414Zm15.824-15.766a.659.659,0,0,1-.838-.41,21.209,21.209,0,0,0-1.147-2.71,20.153,20.153,0,0,0-1.854-2.978.659.659,0,0,1,1.054-.793,21.405,21.405,0,0,1,1.977,3.173,22.518,22.518,0,0,1,1.218,2.88.66.66,0,0,1-.324.8A.711.711,0,0,1,2341.824,1122.647Zm-34.062,16.15a.659.659,0,0,1-.8-.48,7.328,7.328,0,0,1,.54-5.26,6.7,6.7,0,0,1,1.126-1.55.66.66,0,0,1,.946.92,5.368,5.368,0,0,0-.9,1.245,5.953,5.953,0,0,0-.428,4.327.659.659,0,0,1-.341.747A.638.638,0,0,1,2307.762,1138.8Zm11.028-7.535a9.442,9.442,0,0,0-6.075-.572.66.66,0,0,1-.324-1.279,10.65,10.65,0,0,1,6.952.654.659.659,0,1,1-.553,1.2Z" transform="translate(-2306.71 -1115.492)" fill="#63c0c4"/>
          </g>
        </g>
        <g id="Grupo_10343" data-name="Grupo 10343" transform="translate(12.059 75.896)">
          <path id="Trazado_19770" data-name="Trazado 19770" d="M2366.442,1443.86a.66.66,0,0,0-.481-1.223,14.131,14.131,0,0,1-3.1.523.659.659,0,1,0,.072,1.316,15.466,15.466,0,0,0,3.391-.569A.706.706,0,0,0,2366.442,1443.86Z" transform="translate(-2362.236 -1442.612)" fill="#63c0c4"/>
        </g>
      </g>
    </g>
    <g id="Grupo_10348" data-name="Grupo 10348" transform="translate(194.413 321.499)">
      <g id="Grupo_10346" data-name="Grupo 10346" transform="translate(107.929)">
        <path id="Trazado_19771" data-name="Trazado 19771" d="M775.412,749l-22.835-12.6-11.658-2.332-8.809,1.3Z" transform="translate(-723.267 -734.063)" fill="url(#linear-gradient-3)"/>
        <path id="Trazado_19772" data-name="Trazado 19772" d="M775.412,753.668l-42.76-10.992-.542-2.648" transform="translate(-723.267 -738.733)" fill="#afd8c7"/>
        <path id="Trazado_19773" data-name="Trazado 19773" d="M728.987,786l.055.089,1.794,6.638,42.023-3.069Z" transform="translate(-720.822 -774.722)" fill="#63c0c4"/>
        <path id="Trazado_19774" data-name="Trazado 19774" d="M691.389,750.24l6.1-4.951,45.767,12.426-39.4-1.171Z" transform="translate(-691.389 -742.85)" fill="url(#linear-gradient-3)"/>
      </g>
      <g id="Grupo_10347" data-name="Grupo 10347" transform="translate(0 2.112)">
        <path id="Trazado_19775" data-name="Trazado 19775" d="M241.385,1151.5a31.989,31.989,0,0,0,4.114-1.785.621.621,0,1,1,.572,1.1,33.26,33.26,0,0,1-4.274,1.854q-.789.278-1.586.516a.621.621,0,1,1-.357-1.189Q240.624,1151.772,241.385,1151.5Z" transform="translate(-229.639 -1061.509)" fill="#63c0c4"/>
        <path id="Trazado_19776" data-name="Trazado 19776" d="M631.331,746.751c1.939.249,3.957.568,6.17.976a.621.621,0,0,1-.226,1.222c-2.19-.4-4.186-.721-6.1-.966a.621.621,0,0,1,.158-1.233Z" transform="translate(-535.897 -746.104)" fill="#63c0c4"/>
        <path id="Trazado_19777" data-name="Trazado 19777" d="M585.237,744.912a.621.621,0,0,1,.365-1.121c1.993-.018,4.1.066,6.263.247a.621.621,0,0,1-.1,1.238c-2.124-.178-4.193-.259-6.149-.242A.615.615,0,0,1,585.237,744.912Z" transform="translate(-500.164 -743.789)" fill="#63c0c4"/>
        <path id="Trazado_19778" data-name="Trazado 19778" d="M285.661,1123.057a.612.612,0,0,1,.878.011.619.619,0,0,1-.012.878,34.614,34.614,0,0,1-4.9,3.982.621.621,0,0,1-.715-.016.6.6,0,0,1-.146-.153.621.621,0,0,1,.17-.862A33.564,33.564,0,0,0,285.661,1123.057Z" transform="translate(-261.928 -1040.551)" fill="#63c0c4"/>
        <path id="Trazado_19779" data-name="Trazado 19779" d="M314.667,1092.83a.621.621,0,0,1-.086-.875q.526-.643,1.022-1.311a32.224,32.224,0,0,0,2.387-3.732.621.621,0,0,1,.842-.248.628.628,0,0,1,.248.843,33.377,33.377,0,0,1-2.479,3.877q-.513.693-1.06,1.359a.62.62,0,0,1-.85.106Z" transform="translate(-288.374 -1012.142)" fill="#63c0c4"/>
        <path id="Trazado_19780" data-name="Trazado 19780" d="M338.178,1051.023a.627.627,0,0,1-.133-.075.621.621,0,0,1-.2-.736,42.411,42.411,0,0,0,1.89-5.815.621.621,0,1,1,1.2.3,43.249,43.249,0,0,1-1.946,5.984A.62.62,0,0,1,338.178,1051.023Z" transform="translate(-306.656 -978.747)" fill="#63c0c4"/>
        <path id="Trazado_19781" data-name="Trazado 19781" d="M398.361,828.807q-.776.947-1.5,1.93c-.733.989-1.432,2.013-2.079,3.044a.622.622,0,0,1-.857.2l-.04-.028a.62.62,0,0,1-.155-.828c.663-1.058,1.38-2.109,2.132-3.123q.746-1.008,1.544-1.979a.591.591,0,0,1,.875-.086A.621.621,0,0,1,398.361,828.807Z" transform="translate(-350.366 -809.538)" fill="#63c0c4"/>
        <path id="Trazado_19782" data-name="Trazado 19782" d="M377.261,866.83a45.341,45.341,0,0,0-2.462,5.605.621.621,0,1,1-1.169-.42,46.4,46.4,0,0,1,2.529-5.761.622.622,0,1,1,1.1.576Z" transform="translate(-334.68 -839.397)" fill="#63c0c4"/>
        <path id="Trazado_19783" data-name="Trazado 19783" d="M427.287,796.652a50.56,50.56,0,0,0-4.5,4.171.621.621,0,0,1-.819.071.706.706,0,0,1-.06-.051.621.621,0,0,1-.02-.878,51.943,51.943,0,0,1,4.607-4.275.622.622,0,0,1,.789.961Z" transform="translate(-372.354 -784.308)" fill="#63c0c4"/>
        <path id="Trazado_19784" data-name="Trazado 19784" d="M496.95,756.057a.621.621,0,0,1-.5-1.136,49.161,49.161,0,0,1,5.9-2.172.621.621,0,1,1,.353,1.191A48.016,48.016,0,0,0,496.95,756.057Z" transform="translate(-430.564 -750.784)" fill="#63c0c4"/>
        <path id="Trazado_19785" data-name="Trazado 19785" d="M357.165,960.823a.621.621,0,0,1-.546-.688l.088-.782c.206-1.8.411-3.6.649-5.4a.621.621,0,0,1,1.232.164c-.237,1.788-.442,3.583-.646,5.376l-.089.782A.621.621,0,0,1,357.165,960.823Z" transform="translate(-321.389 -907.89)" fill="#63c0c4"/>
        <path id="Trazado_19786" data-name="Trazado 19786" d="M457.312,774.524a.62.62,0,0,1-.728-.008.627.627,0,0,1-.138-.142.621.621,0,0,1,.15-.865,51.6,51.6,0,0,1,5.348-3.3.622.622,0,0,1,.587,1.1A50.132,50.132,0,0,0,457.312,774.524Z" transform="translate(-399.451 -764.412)" fill="#63c0c4"/>
        <path id="Trazado_19787" data-name="Trazado 19787" d="M351.911,998.877a.619.619,0,0,1,.538.695c-.3,2.419-.6,4.383-.942,6.179a.622.622,0,0,1-1.222-.23c.333-1.771.629-3.71.932-6.105A.621.621,0,0,1,351.911,998.877Z" transform="translate(-316.427 -943.476)" fill="#63c0c4"/>
        <path id="Trazado_19788" data-name="Trazado 19788" d="M201.07,1164.479a.621.621,0,0,1,.239,1.219,50.136,50.136,0,0,1-6.231.8.621.621,0,1,1-.088-1.24A49.432,49.432,0,0,0,201.07,1164.479Z" transform="translate(-194.413 -1073.109)" fill="#63c0c4"/>
        <path id="Trazado_19789" data-name="Trazado 19789" d="M364.6,908.5a.622.622,0,0,1,.439.761c-.49,1.828-.909,3.795-1.281,6.014a.621.621,0,1,1-1.225-.205c.378-2.26.806-4.265,1.307-6.13A.621.621,0,0,1,364.6,908.5Z" transform="translate(-326.014 -872.709)" fill="#63c0c4"/>
        <path id="Trazado_19790" data-name="Trazado 19790" d="M544.084,744.728q1.088-.13,2.178-.212a.622.622,0,0,1,.094,1.24q-1.065.079-2.126.205c-1.313.156-2.639.374-3.94.65a.621.621,0,0,1-.257-1.215C541.372,745.112,542.735,744.888,544.084,744.728Z" transform="translate(-464.589 -744.357)" fill="#63c0c4"/>
      </g>
    </g>
  </g>
</svg>
