<svg xmlns="http://www.w3.org/2000/svg" width="806" height="1040" viewBox="0 0 806 1040">
  <g id="Grupo_10438" data-name="Grupo 10438" transform="translate(-557 -1551)">
    <g id="Rectángulo_2190" data-name="Rectángulo 2190" transform="translate(557 1551)" fill="#fff" stroke="#8de2ed" stroke-width="2">
      <rect width="806" height="101" rx="50.5" stroke="none"/>
      <rect x="1" y="1" width="804" height="99" rx="49.5" fill="none"/>
    </g>
    <path id="Trazado_19970" data-name="Trazado 19970" d="M-309.108-16.8v3.12h3.36V0h3.888V-16.8ZM-296.724.192A2.291,2.291,0,0,0-294.4-2.16a2.237,2.237,0,0,0-2.328-2.3,2.237,2.237,0,0,0-2.328,2.3A2.291,2.291,0,0,0-296.724.192Zm19.968.1a8.632,8.632,0,0,0,6.936-3l-2.5-2.3a5.354,5.354,0,0,1-4.224,1.992A5.154,5.154,0,0,1-281.916-8.4a5.154,5.154,0,0,1,5.376-5.376,5.405,5.405,0,0,1,4.224,1.968l2.5-2.3a8.673,8.673,0,0,0-6.912-2.976c-5.232,0-9.12,3.624-9.12,8.688S-281.964.288-276.756.288Zm14.976-.1c4.1,0,7.08-2.76,7.08-6.648s-2.976-6.648-7.08-6.648-7.1,2.76-7.1,6.648S-265.884.192-261.78.192Zm0-3.072a3.276,3.276,0,0,1-3.312-3.576,3.276,3.276,0,0,1,3.312-3.576,3.259,3.259,0,0,1,3.288,3.576A3.259,3.259,0,0,1-261.78-2.88ZM-244.356-13.1a5.653,5.653,0,0,0-4.272,1.7v-1.512H-252.2V0h3.744V-6.384c0-2.376,1.3-3.48,3.1-3.48,1.656,0,2.616.96,2.616,3.048V0H-239V-7.392C-239-11.328-241.308-13.1-244.356-13.1Zm12.84-.072c0-1.272.6-1.872,1.7-1.872a2.622,2.622,0,0,1,1.512.456l.984-2.712a5.307,5.307,0,0,0-2.856-.7c-3.216,0-4.992,1.9-4.992,4.8v.576h-1.992v2.88h1.992V0h3.744V-9.744h3.216v-2.88h-3.312ZM-220.356.192c4.1,0,7.08-2.76,7.08-6.648s-2.976-6.648-7.08-6.648-7.1,2.76-7.1,6.648S-224.46.192-220.356.192Zm0-3.072a3.276,3.276,0,0,1-3.312-3.576,3.276,3.276,0,0,1,3.312-3.576,3.259,3.259,0,0,1,3.288,3.576A3.259,3.259,0,0,1-220.356-2.88Zm13.152-8.328v-1.7h-3.576V0h3.744V-6.1c0-2.472,1.368-3.6,3.432-3.6.288,0,.528.024.84.048V-13.1A5.211,5.211,0,0,0-207.2-11.208ZM-184-13.1a5.806,5.806,0,0,0-4.656,2.112A4.82,4.82,0,0,0-192.9-13.1a5.229,5.229,0,0,0-4.056,1.68v-1.488h-3.576V0h3.744V-6.48c0-2.3,1.176-3.384,2.832-3.384,1.56,0,2.448.96,2.448,3.048V0h3.744V-6.48c0-2.3,1.176-3.384,2.856-3.384,1.512,0,2.448.96,2.448,3.048V0h3.744V-7.392C-178.716-11.328-180.924-13.1-184-13.1Zm13.848,0a9.926,9.926,0,0,0-5.568,1.56l1.344,2.616a6.208,6.208,0,0,1,3.72-1.2c2.016,0,2.976.936,2.976,2.544h-2.976c-3.936,0-5.544,1.584-5.544,3.864,0,2.232,1.8,3.912,4.824,3.912,1.9,0,3.24-.624,3.936-1.8V0h3.5V-7.368C-163.932-11.28-166.212-13.1-170.148-13.1Zm-.288,10.776c-1.32,0-2.112-.624-2.112-1.56,0-.864.552-1.512,2.3-1.512h2.568v1.32A2.759,2.759,0,0,1-170.436-2.328Zm13.464-8.88v-1.7h-3.576V0h3.744V-6.1c0-2.472,1.368-3.6,3.432-3.6.288,0,.528.024.84.048V-13.1A5.211,5.211,0,0,0-156.972-11.208Zm22.824-1.7v6.384c0,2.376-1.248,3.48-2.976,3.48-1.656,0-2.616-.96-2.616-3.12v-6.744h-3.744v7.3c0,3.984,2.28,5.808,5.52,5.808a5.224,5.224,0,0,0,4.008-1.728V0h3.552V-12.912Zm15.072-.192a5.653,5.653,0,0,0-4.272,1.7v-1.512h-3.576V0h3.744V-6.384c0-2.376,1.3-3.48,3.1-3.48,1.656,0,2.616.96,2.616,3.048V0h3.744V-7.392C-113.724-11.328-116.028-13.1-119.076-13.1Zm25.3.192v1.656A5.183,5.183,0,0,0-98.052-13.1a6.147,6.147,0,0,0-6.456,6.24,6.147,6.147,0,0,0,6.456,6.24,5.316,5.316,0,0,0,4.08-1.608v.552c0,2.328-1.152,3.528-3.792,3.528a7.717,7.717,0,0,1-4.56-1.464l-1.488,2.688a10.637,10.637,0,0,0,6.336,1.776c4.656,0,7.248-2.208,7.248-7.008V-12.912ZM-97.308-3.7a3.155,3.155,0,0,1-3.408-3.168,3.155,3.155,0,0,1,3.408-3.168,3.135,3.135,0,0,1,3.384,3.168A3.135,3.135,0,0,1-97.308-3.7Zm14.136-7.512v-1.7h-3.576V0H-83V-6.1c0-2.472,1.368-3.6,3.432-3.6.288,0,.528.024.84.048V-13.1A5.211,5.211,0,0,0-83.172-11.208Zm16.032-1.7v6.384c0,2.376-1.248,3.48-2.976,3.48-1.656,0-2.616-.96-2.616-3.12v-6.744h-3.744v7.3c0,3.984,2.28,5.808,5.52,5.808a5.224,5.224,0,0,0,4.008-1.728V0H-63.4V-12.912Zm14.856-.192a5.017,5.017,0,0,0-4.056,1.68v-1.488h-3.576V4.656h3.744V-1.368A5.013,5.013,0,0,0-52.284.192a6.271,6.271,0,0,0,6.432-6.648A6.271,6.271,0,0,0-52.284-13.1ZM-52.932-2.88A3.259,3.259,0,0,1-56.22-6.456a3.259,3.259,0,0,1,3.288-3.576,3.259,3.259,0,0,1,3.288,3.576A3.259,3.259,0,0,1-52.932-2.88ZM-37.212.192c4.1,0,7.08-2.76,7.08-6.648s-2.976-6.648-7.08-6.648-7.1,2.76-7.1,6.648S-41.316.192-37.212.192Zm0-3.072a3.276,3.276,0,0,1-3.312-3.576,3.276,3.276,0,0,1,3.312-3.576,3.259,3.259,0,0,1,3.288,3.576A3.259,3.259,0,0,1-37.212-2.88Zm25.776-14.928v6.264A4.961,4.961,0,0,0-15.3-13.1a6.277,6.277,0,0,0-6.456,6.648A6.277,6.277,0,0,0-15.3.192a4.967,4.967,0,0,0,4.032-1.68V0h3.576V-17.808ZM-14.652-2.88a3.276,3.276,0,0,1-3.312-3.576,3.276,3.276,0,0,1,3.312-3.576,3.271,3.271,0,0,1,3.288,3.576A3.271,3.271,0,0,1-14.652-2.88ZM8.412-6.408a6.392,6.392,0,0,0-6.72-6.7A6.573,6.573,0,0,0-5.2-6.456c0,3.84,2.9,6.648,7.368,6.648A6.763,6.763,0,0,0,7.5-1.9L5.508-4.056a4.377,4.377,0,0,1-3.24,1.248A3.443,3.443,0,0,1-1.428-5.4H8.34C8.364-5.712,8.412-6.12,8.412-6.408Zm-6.7-3.864A3.068,3.068,0,0,1,4.884-7.584h-6.36A3.057,3.057,0,0,1,1.716-10.272ZM25.332-13.1a5.017,5.017,0,0,0-4.056,1.68v-1.488H17.7V4.656h3.744V-1.368A5.013,5.013,0,0,0,25.332.192a6.271,6.271,0,0,0,6.432-6.648A6.271,6.271,0,0,0,25.332-13.1ZM24.684-2.88A3.259,3.259,0,0,1,21.4-6.456a3.259,3.259,0,0,1,3.288-3.576,3.259,3.259,0,0,1,3.288,3.576A3.259,3.259,0,0,1,24.684-2.88ZM46.908-6.408a6.392,6.392,0,0,0-6.72-6.7A6.573,6.573,0,0,0,33.3-6.456c0,3.84,2.9,6.648,7.368,6.648A6.763,6.763,0,0,0,46-1.9L44-4.056a4.377,4.377,0,0,1-3.24,1.248,3.443,3.443,0,0,1-3.7-2.592h9.768C46.86-5.712,46.908-6.12,46.908-6.408Zm-6.7-3.864A3.068,3.068,0,0,1,43.38-7.584H37.02A3.057,3.057,0,0,1,40.212-10.272Zm12.768-.936v-1.7H49.4V0h3.744V-6.1c0-2.472,1.368-3.6,3.432-3.6.288,0,.528.024.84.048V-13.1A5.211,5.211,0,0,0,52.98-11.208ZM64.044.192c3.864,0,6.1-1.7,6.1-4.1,0-5.088-7.8-2.952-7.8-5.16,0-.672.72-1.2,2.4-1.2a7.415,7.415,0,0,1,3.72.96l1.248-2.664A10.617,10.617,0,0,0,64.74-13.1c-3.768,0-5.976,1.728-5.976,4.176,0,5.16,7.8,3,7.8,5.112,0,.72-.648,1.176-2.376,1.176A8.834,8.834,0,0,1,59.7-3.888L58.452-1.2A11.084,11.084,0,0,0,64.044.192Zm14.544,0c4.1,0,7.08-2.76,7.08-6.648S82.692-13.1,78.588-13.1s-7.1,2.76-7.1,6.648S74.484.192,78.588.192Zm0-3.072a3.276,3.276,0,0,1-3.312-3.576,3.276,3.276,0,0,1,3.312-3.576,3.259,3.259,0,0,1,3.288,3.576A3.259,3.259,0,0,1,78.588-2.88ZM96.012-13.1a5.653,5.653,0,0,0-4.272,1.7v-1.512H88.164V0h3.744V-6.384c0-2.376,1.3-3.48,3.1-3.48,1.656,0,2.616.96,2.616,3.048V0h3.744V-7.392C101.364-11.328,99.06-13.1,96.012-13.1Zm13.944,0a9.926,9.926,0,0,0-5.568,1.56l1.344,2.616a6.208,6.208,0,0,1,3.72-1.2c2.016,0,2.976.936,2.976,2.544h-2.976c-3.936,0-5.544,1.584-5.544,3.864,0,2.232,1.8,3.912,4.824,3.912,1.9,0,3.24-.624,3.936-1.8V0h3.5V-7.368C116.172-11.28,113.892-13.1,109.956-13.1Zm-.288,10.776c-1.32,0-2.112-.624-2.112-1.56,0-.864.552-1.512,2.3-1.512h2.568v1.32A2.759,2.759,0,0,1,109.668-2.328ZM123.9.192c3.864,0,6.1-1.7,6.1-4.1,0-5.088-7.8-2.952-7.8-5.16,0-.672.72-1.2,2.4-1.2a7.415,7.415,0,0,1,3.72.96l1.248-2.664A10.617,10.617,0,0,0,124.6-13.1c-3.768,0-5.976,1.728-5.976,4.176,0,5.16,7.8,3,7.8,5.112,0,.72-.648,1.176-2.376,1.176a8.834,8.834,0,0,1-4.488-1.248L118.308-1.2A11.084,11.084,0,0,0,123.9.192Zm21.432,0c2.712,0,4.848-1.2,5.784-3.264l-2.9-1.584a3.177,3.177,0,0,1-2.9,1.776,3.3,3.3,0,0,1-3.384-3.576,3.3,3.3,0,0,1,3.384-3.576,3.22,3.22,0,0,1,2.9,1.776l2.9-1.56c-.936-2.112-3.072-3.288-5.784-3.288-4.2,0-7.2,2.76-7.2,6.648S141.132.192,145.332.192Zm13.92,0c4.1,0,7.08-2.76,7.08-6.648s-2.976-6.648-7.08-6.648-7.1,2.76-7.1,6.648S155.148.192,159.252.192Zm0-3.072a3.276,3.276,0,0,1-3.312-3.576,3.276,3.276,0,0,1,3.312-3.576,3.259,3.259,0,0,1,3.288,3.576A3.259,3.259,0,0,1,159.252-2.88ZM176.676-13.1a5.653,5.653,0,0,0-4.272,1.7v-1.512h-3.576V0h3.744V-6.384c0-2.376,1.3-3.48,3.1-3.48,1.656,0,2.616.96,2.616,3.048V0h3.744V-7.392C182.028-11.328,179.724-13.1,176.676-13.1Zm24.744.192-3.7,8.784-3.576-8.784h-3.864L195.708,0h3.864l5.448-12.912ZM212.34.192c4.1,0,7.08-2.76,7.08-6.648s-2.976-6.648-7.08-6.648-7.1,2.76-7.1,6.648S208.236.192,212.34.192Zm0-3.072a3.276,3.276,0,0,1-3.312-3.576,3.276,3.276,0,0,1,3.312-3.576,3.259,3.259,0,0,1,3.288,3.576A3.259,3.259,0,0,1,212.34-2.88ZM221.916,0h3.744V-17.808h-3.744ZM238.4-12.912v6.384c0,2.376-1.248,3.48-2.976,3.48-1.656,0-2.616-.96-2.616-3.12v-6.744h-3.744v7.3c0,3.984,2.28,5.808,5.52,5.808A5.224,5.224,0,0,0,238.6-1.536V0h3.552V-12.912Zm15.072-.192a5.653,5.653,0,0,0-4.272,1.7v-1.512h-3.576V0h3.744V-6.384c0-2.376,1.3-3.48,3.1-3.48,1.656,0,2.616.96,2.616,3.048V0h3.744V-7.392C258.828-11.328,256.524-13.1,253.476-13.1Zm16.056,9.84a2.523,2.523,0,0,1-1.512.48,1.506,1.506,0,0,1-1.608-1.7V-9.744h3.216v-2.88h-3.216v-3.144h-3.744v3.144h-1.992v2.88h1.992v5.3c0,3.072,1.776,4.632,4.824,4.632a5.351,5.351,0,0,0,3.048-.816Zm8.328-9.84a9.926,9.926,0,0,0-5.568,1.56l1.344,2.616a6.208,6.208,0,0,1,3.72-1.2c2.016,0,2.976.936,2.976,2.544h-2.976c-3.936,0-5.544,1.584-5.544,3.864,0,2.232,1.8,3.912,4.824,3.912,1.9,0,3.24-.624,3.936-1.8V0h3.5V-7.368C284.076-11.28,281.8-13.1,277.86-13.1Zm-.288,10.776c-1.32,0-2.112-.624-2.112-1.56,0-.864.552-1.512,2.3-1.512h2.568v1.32A2.759,2.759,0,0,1,277.572-2.328Zm19.44-15.48v6.264a4.96,4.96,0,0,0-3.864-1.56,6.277,6.277,0,0,0-6.456,6.648A6.277,6.277,0,0,0,293.148.192a4.967,4.967,0,0,0,4.032-1.68V0h3.576V-17.808ZM293.8-2.88a3.276,3.276,0,0,1-3.312-3.576,3.276,3.276,0,0,1,3.312-3.576,3.271,3.271,0,0,1,3.288,3.576A3.271,3.271,0,0,1,293.8-2.88ZM-269.58,15.9a5.806,5.806,0,0,0-4.656,2.112,4.82,4.82,0,0,0-4.248-2.112,5.229,5.229,0,0,0-4.056,1.68V16.088h-3.576V29h3.744V22.52c0-2.3,1.176-3.384,2.832-3.384,1.56,0,2.448.96,2.448,3.048V29h3.744V22.52c0-2.3,1.176-3.384,2.856-3.384,1.512,0,2.448.96,2.448,3.048V29h3.744V21.608C-264.3,17.672-266.508,15.9-269.58,15.9Zm13.848,0a9.926,9.926,0,0,0-5.568,1.56l1.344,2.616a6.208,6.208,0,0,1,3.72-1.2c2.016,0,2.976.936,2.976,2.544h-2.976c-3.936,0-5.544,1.584-5.544,3.864,0,2.232,1.8,3.912,4.824,3.912,1.9,0,3.24-.624,3.936-1.8V29h3.5V21.632C-249.516,17.72-251.8,15.9-255.732,15.9Zm-.288,10.776c-1.32,0-2.112-.624-2.112-1.56,0-.864.552-1.512,2.3-1.512h2.568v1.32A2.759,2.759,0,0,1-256.02,26.672ZM-238.284,15.9a5.653,5.653,0,0,0-4.272,1.7V16.088h-3.576V29h3.744V22.616c0-2.376,1.3-3.48,3.1-3.48,1.656,0,2.616.96,2.616,3.048V29h3.744V21.608C-232.932,17.672-235.236,15.9-238.284,15.9Zm10.608-1.608a2.153,2.153,0,0,0,2.328-2.16,2.1,2.1,0,0,0-2.328-2.016A2.14,2.14,0,0,0-230,12.2,2.14,2.14,0,0,0-227.676,14.288ZM-229.548,29h3.744V16.088h-3.744Zm20.3-14.712a2.153,2.153,0,0,0,2.328-2.16,2.1,2.1,0,0,0-2.328-2.016,2.14,2.14,0,0,0-2.328,2.088A2.14,2.14,0,0,0-209.244,14.288Zm-7.272-.336a2.622,2.622,0,0,1,1.512.456l.984-2.712a5.307,5.307,0,0,0-2.856-.7c-3.216,0-4.992,1.9-4.992,4.8v.576h-1.992v2.88h1.992V29h3.744V19.256h3.216v-2.88h-3.312v-.552C-218.22,14.552-217.62,13.952-216.516,13.952Zm5.4,15.048h3.744V16.088h-3.744Zm19.872-6.408a6.392,6.392,0,0,0-6.72-6.7,6.573,6.573,0,0,0-6.888,6.648c0,3.84,2.9,6.648,7.368,6.648a6.763,6.763,0,0,0,5.328-2.088l-1.992-2.16a4.377,4.377,0,0,1-3.24,1.248,3.443,3.443,0,0,1-3.7-2.592h9.768C-191.292,23.288-191.244,22.88-191.244,22.592Zm-6.7-3.864a3.068,3.068,0,0,1,3.168,2.688h-6.36A3.057,3.057,0,0,1-197.94,18.728ZM-184.4,29.192c3.864,0,6.1-1.7,6.1-4.1,0-5.088-7.8-2.952-7.8-5.16,0-.672.72-1.2,2.4-1.2a7.415,7.415,0,0,1,3.72.96l1.248-2.664a10.617,10.617,0,0,0-4.968-1.128c-3.768,0-5.976,1.728-5.976,4.176,0,5.16,7.8,3,7.8,5.112,0,.72-.648,1.176-2.376,1.176a8.834,8.834,0,0,1-4.488-1.248L-190,27.8A11.085,11.085,0,0,0-184.4,29.192Zm15.72-3.456a2.523,2.523,0,0,1-1.512.48,1.506,1.506,0,0,1-1.608-1.7V19.256h3.216v-2.88H-171.8V13.232h-3.744v3.144h-1.992v2.88h1.992v5.3c0,3.072,1.776,4.632,4.824,4.632a5.351,5.351,0,0,0,3.048-.816Zm8.328-9.84a9.926,9.926,0,0,0-5.568,1.56l1.344,2.616a6.208,6.208,0,0,1,3.72-1.2c2.016,0,2.976.936,2.976,2.544h-2.976c-3.936,0-5.544,1.584-5.544,3.864,0,2.232,1.8,3.912,4.824,3.912,1.9,0,3.24-.624,3.936-1.8V29h3.5V21.632C-154.14,17.72-156.42,15.9-160.356,15.9Zm-.288,10.776c-1.32,0-2.112-.624-2.112-1.56,0-.864.552-1.512,2.3-1.512h2.568v1.32A2.759,2.759,0,0,1-160.644,26.672Zm26.088-15.48v6.264a4.961,4.961,0,0,0-3.864-1.56,6.277,6.277,0,0,0-6.456,6.648,6.277,6.277,0,0,0,6.456,6.648,4.967,4.967,0,0,0,4.032-1.68V29h3.576V11.192Zm-3.216,14.928a3.276,3.276,0,0,1-3.312-3.576,3.276,3.276,0,0,1,3.312-3.576,3.271,3.271,0,0,1,3.288,3.576A3.271,3.271,0,0,1-137.772,26.12Zm23.064-3.528a6.392,6.392,0,0,0-6.72-6.7,6.573,6.573,0,0,0-6.888,6.648c0,3.84,2.9,6.648,7.368,6.648A6.763,6.763,0,0,0-115.62,27.1l-1.992-2.16a4.377,4.377,0,0,1-3.24,1.248,3.443,3.443,0,0,1-3.7-2.592h9.768C-114.756,23.288-114.708,22.88-114.708,22.592Zm-6.7-3.864a3.068,3.068,0,0,1,3.168,2.688h-6.36A3.057,3.057,0,0,1-121.4,18.728Zm21.192-2.832a9.926,9.926,0,0,0-5.568,1.56l1.344,2.616a6.208,6.208,0,0,1,3.72-1.2c2.016,0,2.976.936,2.976,2.544h-2.976c-3.936,0-5.544,1.584-5.544,3.864,0,2.232,1.8,3.912,4.824,3.912,1.9,0,3.24-.624,3.936-1.8V29H-94V21.632C-94,17.72-96.276,15.9-100.212,15.9Zm-.288,10.776c-1.32,0-2.112-.624-2.112-1.56,0-.864.552-1.512,2.3-1.512h2.568v1.32A2.759,2.759,0,0,1-100.5,26.672Zm14.232,2.52c3.864,0,6.1-1.7,6.1-4.1,0-5.088-7.8-2.952-7.8-5.16,0-.672.72-1.2,2.4-1.2a7.415,7.415,0,0,1,3.72.96l1.248-2.664A10.617,10.617,0,0,0-85.572,15.9c-3.768,0-5.976,1.728-5.976,4.176,0,5.16,7.8,3,7.8,5.112,0,.72-.648,1.176-2.376,1.176a8.834,8.834,0,0,1-4.488-1.248L-91.86,27.8A11.084,11.084,0,0,0-86.268,29.192Zm14.544,0c4.1,0,7.08-2.76,7.08-6.648S-67.62,15.9-71.724,15.9s-7.1,2.76-7.1,6.648S-75.828,29.192-71.724,29.192Zm0-3.072a3.276,3.276,0,0,1-3.312-3.576,3.276,3.276,0,0,1,3.312-3.576,3.259,3.259,0,0,1,3.288,3.576A3.259,3.259,0,0,1-71.724,26.12Zm15.816,3.072c2.712,0,4.848-1.2,5.784-3.264l-2.9-1.584a3.177,3.177,0,0,1-2.9,1.776,3.3,3.3,0,0,1-3.384-3.576,3.3,3.3,0,0,1,3.384-3.576,3.22,3.22,0,0,1,2.9,1.776l2.9-1.56C-51.06,17.072-53.2,15.9-55.908,15.9c-4.2,0-7.2,2.76-7.2,6.648S-60.108,29.192-55.908,29.192Zm9.816-14.9a2.153,2.153,0,0,0,2.328-2.16,2.1,2.1,0,0,0-2.328-2.016A2.14,2.14,0,0,0-48.42,12.2,2.14,2.14,0,0,0-46.092,14.288ZM-47.964,29h3.744V16.088h-3.744Zm12.432-13.1a9.926,9.926,0,0,0-5.568,1.56l1.344,2.616a6.208,6.208,0,0,1,3.72-1.2c2.016,0,2.976.936,2.976,2.544h-2.976c-3.936,0-5.544,1.584-5.544,3.864,0,2.232,1.8,3.912,4.824,3.912,1.9,0,3.24-.624,3.936-1.8V29h3.5V21.632C-29.316,17.72-31.6,15.9-35.532,15.9Zm-.288,10.776c-1.32,0-2.112-.624-2.112-1.56,0-.864.552-1.512,2.3-1.512h2.568v1.32A2.759,2.759,0,0,1-35.82,26.672Zm13.464-8.88v-1.7h-3.576V29h3.744V22.9c0-2.472,1.368-3.6,3.432-3.6.288,0,.528.024.84.048V15.9A5.211,5.211,0,0,0-22.356,17.792Zm11.064,11.4c3.864,0,6.1-1.7,6.1-4.1,0-5.088-7.8-2.952-7.8-5.16,0-.672.72-1.2,2.4-1.2a7.415,7.415,0,0,1,3.72.96l1.248-2.664A10.617,10.617,0,0,0-10.6,15.9c-3.768,0-5.976,1.728-5.976,4.176,0,5.16,7.8,3,7.8,5.112,0,.72-.648,1.176-2.376,1.176a8.834,8.834,0,0,1-4.488-1.248L-16.884,27.8A11.085,11.085,0,0,0-11.292,29.192Zm21.048-6.6a6.392,6.392,0,0,0-6.72-6.7,6.574,6.574,0,0,0-6.888,6.648c0,3.84,2.9,6.648,7.368,6.648A6.763,6.763,0,0,0,8.844,27.1l-1.992-2.16a4.377,4.377,0,0,1-3.24,1.248A3.443,3.443,0,0,1-.084,23.6H9.684C9.708,23.288,9.756,22.88,9.756,22.592Zm-6.7-3.864a3.068,3.068,0,0,1,3.168,2.688H-.132A3.057,3.057,0,0,1,3.06,18.728ZM26.676,15.9a5.013,5.013,0,0,0-3.888,1.56V11.192H19.044V29H22.62V27.512a5.017,5.017,0,0,0,4.056,1.68,6.271,6.271,0,0,0,6.432-6.648A6.271,6.271,0,0,0,26.676,15.9ZM26.028,26.12a3.259,3.259,0,0,1-3.288-3.576,3.3,3.3,0,1,1,6.576,0A3.259,3.259,0,0,1,26.028,26.12ZM40.6,15.9a9.926,9.926,0,0,0-5.568,1.56l1.344,2.616a6.208,6.208,0,0,1,3.72-1.2c2.016,0,2.976.936,2.976,2.544H40.092c-3.936,0-5.544,1.584-5.544,3.864,0,2.232,1.8,3.912,4.824,3.912,1.9,0,3.24-.624,3.936-1.8V29h3.5V21.632C46.812,17.72,44.532,15.9,40.6,15.9Zm-.288,10.776c-1.32,0-2.112-.624-2.112-1.56,0-.864.552-1.512,2.3-1.512h2.568v1.32A2.759,2.759,0,0,1,40.308,26.672ZM52.236,14.288a2.153,2.153,0,0,0,2.328-2.16,2.1,2.1,0,0,0-2.328-2.016,2.1,2.1,0,1,0,0,4.176Zm-3,19.56a4.479,4.479,0,0,0,4.872-4.872V16.088H50.364V29c0,1.272-.6,1.872-1.536,1.872a2.746,2.746,0,0,1-1.584-.456l-1.008,2.712A5.452,5.452,0,0,0,49.236,33.848Zm14.472-4.656c4.1,0,7.08-2.76,7.08-6.648S67.812,15.9,63.708,15.9s-7.1,2.76-7.1,6.648S59.6,29.192,63.708,29.192Zm0-3.072A3.276,3.276,0,0,1,60.4,22.544a3.311,3.311,0,1,1,6.6,0A3.259,3.259,0,0,1,63.708,26.12ZM89.34,16.088v6.384c0,2.376-1.248,3.48-2.976,3.48-1.656,0-2.616-.96-2.616-3.12V16.088H80v7.3c0,3.984,2.28,5.808,5.52,5.808a5.224,5.224,0,0,0,4.008-1.728V29h3.552V16.088Zm15.072-.192a5.653,5.653,0,0,0-4.272,1.7V16.088H96.564V29h3.744V22.616c0-2.376,1.3-3.48,3.1-3.48,1.656,0,2.616.96,2.616,3.048V29h3.744V21.608C109.764,17.672,107.46,15.9,104.412,15.9Zm13.944,0a9.926,9.926,0,0,0-5.568,1.56l1.344,2.616a6.208,6.208,0,0,1,3.72-1.2c2.016,0,2.976.936,2.976,2.544h-2.976c-3.936,0-5.544,1.584-5.544,3.864,0,2.232,1.8,3.912,4.824,3.912,1.9,0,3.24-.624,3.936-1.8V29h3.5V21.632C124.572,17.72,122.292,15.9,118.356,15.9Zm-.288,10.776c-1.32,0-2.112-.624-2.112-1.56,0-.864.552-1.512,2.3-1.512h2.568v1.32A2.759,2.759,0,0,1,118.068,26.672Zm22.92,2.52c2.712,0,4.848-1.2,5.784-3.264l-2.9-1.584a3.177,3.177,0,0,1-2.9,1.776,3.3,3.3,0,0,1-3.384-3.576,3.3,3.3,0,0,1,3.384-3.576,3.22,3.22,0,0,1,2.9,1.776l2.9-1.56c-.936-2.112-3.072-3.288-5.784-3.288-4.2,0-7.2,2.76-7.2,6.648S136.788,29.192,140.988,29.192Zm13.92,0c4.1,0,7.08-2.76,7.08-6.648s-2.976-6.648-7.08-6.648-7.1,2.76-7.1,6.648S150.8,29.192,154.908,29.192Zm0-3.072a3.276,3.276,0,0,1-3.312-3.576,3.311,3.311,0,1,1,6.6,0A3.259,3.259,0,0,1,154.908,26.12Zm15.72,3.072c4.1,0,7.08-2.76,7.08-6.648s-2.976-6.648-7.08-6.648-7.1,2.76-7.1,6.648S166.524,29.192,170.628,29.192Zm0-3.072a3.276,3.276,0,0,1-3.312-3.576,3.311,3.311,0,1,1,6.6,0A3.259,3.259,0,0,1,170.628,26.12ZM187.836,15.9a5.017,5.017,0,0,0-4.056,1.68V16.088H180.2V33.656h3.744V27.632a5.013,5.013,0,0,0,3.888,1.56,6.271,6.271,0,0,0,6.432-6.648A6.271,6.271,0,0,0,187.836,15.9Zm-.648,10.224a3.259,3.259,0,0,1-3.288-3.576,3.3,3.3,0,1,1,6.576,0A3.259,3.259,0,0,1,187.188,26.12Zm22.224-3.528a6.392,6.392,0,0,0-6.72-6.7,6.573,6.573,0,0,0-6.888,6.648c0,3.84,2.9,6.648,7.368,6.648A6.763,6.763,0,0,0,208.5,27.1l-1.992-2.16a4.377,4.377,0,0,1-3.24,1.248,3.443,3.443,0,0,1-3.7-2.592h9.768C209.364,23.288,209.412,22.88,209.412,22.592Zm-6.7-3.864a3.068,3.068,0,0,1,3.168,2.688h-6.36A3.057,3.057,0,0,1,202.716,18.728Zm12.768-.936v-1.7h-3.576V29h3.744V22.9c0-2.472,1.368-3.6,3.432-3.6.288,0,.528.024.84.048V15.9A5.211,5.211,0,0,0,215.484,17.792Zm11.808-1.9a9.926,9.926,0,0,0-5.568,1.56l1.344,2.616a6.208,6.208,0,0,1,3.72-1.2c2.016,0,2.976.936,2.976,2.544h-2.976c-3.936,0-5.544,1.584-5.544,3.864,0,2.232,1.8,3.912,4.824,3.912,1.9,0,3.24-.624,3.936-1.8V29h3.5V21.632C233.508,17.72,231.228,15.9,227.292,15.9ZM227,26.672c-1.32,0-2.112-.624-2.112-1.56,0-.864.552-1.512,2.3-1.512h2.568v1.32A2.759,2.759,0,0,1,227,26.672Zm17.208-.936a2.523,2.523,0,0,1-1.512.48,1.506,1.506,0,0,1-1.608-1.7V19.256h3.216v-2.88h-3.216V13.232h-3.744v3.144h-1.992v2.88h1.992v5.3c0,3.072,1.776,4.632,4.824,4.632a5.351,5.351,0,0,0,3.048-.816ZM249.2,14.288a2.153,2.153,0,0,0,2.328-2.16,2.1,2.1,0,0,0-2.328-2.016,2.1,2.1,0,1,0,0,4.176ZM247.332,29h3.744V16.088h-3.744Zm16.44-12.912-3.7,8.784L256.5,16.088h-3.864L258.06,29h3.864l5.448-12.912Zm9.912-.192a9.926,9.926,0,0,0-5.568,1.56l1.344,2.616a6.208,6.208,0,0,1,3.72-1.2c2.016,0,2.976.936,2.976,2.544H273.18c-3.936,0-5.544,1.584-5.544,3.864,0,2.232,1.8,3.912,4.824,3.912,1.9,0,3.24-.624,3.936-1.8V29h3.5V21.632C279.9,17.72,277.62,15.9,273.684,15.9ZM273.4,26.672c-1.32,0-2.112-.624-2.112-1.56,0-.864.552-1.512,2.3-1.512h2.568v1.32A2.759,2.759,0,0,1,273.4,26.672Zm11.3,2.52a2.291,2.291,0,0,0,2.328-2.352,2.328,2.328,0,0,0-4.656,0A2.291,2.291,0,0,0,284.7,29.192Z" transform="translate(983 1596)" fill="#148e9f"/>
    <g id="Rectángulo_2191" data-name="Rectángulo 2191" transform="translate(557 1726)" fill="#fff" stroke="#8de2ed" stroke-width="2">
      <rect width="806" height="109" rx="54.5" stroke="none"/>
      <rect x="1" y="1" width="804" height="107" rx="53.5" fill="none"/>
    </g>
    <path id="Trazado_19971" data-name="Trazado 19971" d="M-313.656-3.168l3.864-3.648c2.352-2.184,2.808-3.672,2.808-5.3,0-3.048-2.5-4.968-6.24-4.968a7.8,7.8,0,0,0-6.672,3.12l2.832,1.824a4.108,4.108,0,0,1,3.48-1.68c1.776,0,2.688.768,2.688,2.088,0,.816-.264,1.68-1.752,3.1l-6.48,6.12V0h12.7V-3.168Zm11.28,3.36a2.291,2.291,0,0,0,2.328-2.352,2.237,2.237,0,0,0-2.328-2.3,2.237,2.237,0,0,0-2.328,2.3A2.291,2.291,0,0,0-302.376.192ZM-290.448,0h7.632c5.5,0,9.264-3.312,9.264-8.4s-3.768-8.4-9.264-8.4h-7.632Zm3.888-3.192V-13.608h3.552c3.336,0,5.52,1.992,5.52,5.208s-2.184,5.208-5.52,5.208Zm28.32-3.216a6.392,6.392,0,0,0-6.72-6.7,6.573,6.573,0,0,0-6.888,6.648c0,3.84,2.9,6.648,7.368,6.648A6.763,6.763,0,0,0-259.152-1.9l-1.992-2.16a4.377,4.377,0,0,1-3.24,1.248,3.443,3.443,0,0,1-3.7-2.592h9.768C-258.288-5.712-258.24-6.12-258.24-6.408Zm-6.7-3.864a3.068,3.068,0,0,1,3.168,2.688h-6.36A3.057,3.057,0,0,1-264.936-10.272Zm22.272-4.44a2.153,2.153,0,0,0,2.328-2.16,2.1,2.1,0,0,0-2.328-2.016,2.14,2.14,0,0,0-2.328,2.088A2.14,2.14,0,0,0-242.664-14.712Zm-7.272-.336a2.622,2.622,0,0,1,1.512.456l.984-2.712A5.307,5.307,0,0,0-250.3-18c-3.216,0-4.992,1.9-4.992,4.8v.576h-1.992v2.88h1.992V0h3.744V-9.744h3.216v-2.88h-3.312v-.552C-251.64-14.448-251.04-15.048-249.936-15.048ZM-244.536,0h3.744V-12.912h-3.744Zm15.072-13.1a5.653,5.653,0,0,0-4.272,1.7v-1.512h-3.576V0h3.744V-6.384c0-2.376,1.3-3.48,3.1-3.48,1.656,0,2.616.96,2.616,3.048V0h3.744V-7.392C-224.112-11.328-226.416-13.1-229.464-13.1Zm10.608-1.608a2.153,2.153,0,0,0,2.328-2.16,2.1,2.1,0,0,0-2.328-2.016,2.14,2.14,0,0,0-2.328,2.088A2.14,2.14,0,0,0-218.856-14.712ZM-220.728,0h3.744V-12.912h-3.744Zm10.8-11.208v-1.7H-213.5V0h3.744V-6.1c0-2.472,1.368-3.6,3.432-3.6.288,0,.528.024.84.048V-13.1A5.211,5.211,0,0,0-209.928-11.208Zm26.208,4.8a6.392,6.392,0,0,0-6.72-6.7,6.573,6.573,0,0,0-6.888,6.648c0,3.84,2.9,6.648,7.368,6.648A6.763,6.763,0,0,0-184.632-1.9l-1.992-2.16a4.377,4.377,0,0,1-3.24,1.248,3.443,3.443,0,0,1-3.7-2.592h9.768C-183.768-5.712-183.72-6.12-183.72-6.408Zm-6.7-3.864a3.068,3.068,0,0,1,3.168,2.688h-6.36A3.057,3.057,0,0,1-190.416-10.272ZM-181.224,0h3.744V-17.808h-3.744Zm21.336-3.264a2.523,2.523,0,0,1-1.512.48,1.506,1.506,0,0,1-1.608-1.7V-9.744h3.216v-2.88h-3.216v-3.144h-3.744v3.144h-1.992v2.88h1.992v5.3c0,3.072,1.776,4.632,4.824,4.632a5.351,5.351,0,0,0,3.048-.816Zm4.992-11.448a2.153,2.153,0,0,0,2.328-2.16,2.1,2.1,0,0,0-2.328-2.016,2.14,2.14,0,0,0-2.328,2.088A2.14,2.14,0,0,0-154.9-14.712ZM-156.768,0h3.744V-12.912h-3.744Zm14.856-13.1a5.017,5.017,0,0,0-4.056,1.68v-1.488h-3.576V4.656h3.744V-1.368a5.013,5.013,0,0,0,3.888,1.56,6.271,6.271,0,0,0,6.432-6.648A6.271,6.271,0,0,0-141.912-13.1ZM-142.56-2.88a3.259,3.259,0,0,1-3.288-3.576,3.259,3.259,0,0,1,3.288-3.576,3.259,3.259,0,0,1,3.288,3.576A3.259,3.259,0,0,1-142.56-2.88ZM-126.84.192c4.1,0,7.08-2.76,7.08-6.648s-2.976-6.648-7.08-6.648-7.1,2.76-7.1,6.648S-130.944.192-126.84.192Zm0-3.072a3.276,3.276,0,0,1-3.312-3.576,3.276,3.276,0,0,1,3.312-3.576,3.259,3.259,0,0,1,3.288,3.576A3.259,3.259,0,0,1-126.84-2.88Zm25.776-14.928v6.264a4.961,4.961,0,0,0-3.864-1.56,6.277,6.277,0,0,0-6.456,6.648A6.277,6.277,0,0,0-104.928.192a4.967,4.967,0,0,0,4.032-1.68V0h3.576V-17.808ZM-104.28-2.88a3.276,3.276,0,0,1-3.312-3.576,3.276,3.276,0,0,1,3.312-3.576,3.271,3.271,0,0,1,3.288,3.576A3.271,3.271,0,0,1-104.28-2.88Zm23.064-3.528a6.392,6.392,0,0,0-6.72-6.7,6.574,6.574,0,0,0-6.888,6.648c0,3.84,2.9,6.648,7.368,6.648A6.763,6.763,0,0,0-82.128-1.9l-1.992-2.16a4.377,4.377,0,0,1-3.24,1.248,3.443,3.443,0,0,1-3.7-2.592h9.768C-81.264-5.712-81.216-6.12-81.216-6.408Zm-6.7-3.864a3.068,3.068,0,0,1,3.168,2.688H-91.1A3.057,3.057,0,0,1-87.912-10.272ZM-65.688.192c2.712,0,4.848-1.2,5.784-3.264l-2.9-1.584a3.177,3.177,0,0,1-2.9,1.776A3.3,3.3,0,0,1-69.1-6.456a3.3,3.3,0,0,1,3.384-3.576,3.22,3.22,0,0,1,2.9,1.776l2.9-1.56c-.936-2.112-3.072-3.288-5.784-3.288-4.2,0-7.2,2.76-7.2,6.648S-69.888.192-65.688.192Zm13.92,0c4.1,0,7.08-2.76,7.08-6.648s-2.976-6.648-7.08-6.648-7.1,2.76-7.1,6.648S-55.872.192-51.768.192Zm0-3.072A3.276,3.276,0,0,1-55.08-6.456a3.276,3.276,0,0,1,3.312-3.576A3.259,3.259,0,0,1-48.48-6.456,3.259,3.259,0,0,1-51.768-2.88ZM-36.048.192c4.1,0,7.08-2.76,7.08-6.648s-2.976-6.648-7.08-6.648-7.1,2.76-7.1,6.648S-40.152.192-36.048.192Zm0-3.072A3.276,3.276,0,0,1-39.36-6.456a3.276,3.276,0,0,1,3.312-3.576A3.259,3.259,0,0,1-32.76-6.456,3.259,3.259,0,0,1-36.048-2.88ZM-18.84-13.1a5.017,5.017,0,0,0-4.056,1.68v-1.488h-3.576V4.656h3.744V-1.368A5.013,5.013,0,0,0-18.84.192a6.271,6.271,0,0,0,6.432-6.648A6.271,6.271,0,0,0-18.84-13.1ZM-19.488-2.88a3.259,3.259,0,0,1-3.288-3.576,3.259,3.259,0,0,1,3.288-3.576A3.259,3.259,0,0,1-16.2-6.456,3.259,3.259,0,0,1-19.488-2.88ZM2.736-6.408a6.392,6.392,0,0,0-6.72-6.7,6.574,6.574,0,0,0-6.888,6.648c0,3.84,2.9,6.648,7.368,6.648A6.763,6.763,0,0,0,1.824-1.9L-.168-4.056a4.377,4.377,0,0,1-3.24,1.248A3.443,3.443,0,0,1-7.1-5.4H2.664C2.688-5.712,2.736-6.12,2.736-6.408Zm-6.7-3.864A3.068,3.068,0,0,1-.792-7.584h-6.36A3.057,3.057,0,0,1-3.96-10.272Zm12.768-.936v-1.7H5.232V0H8.976V-6.1c0-2.472,1.368-3.6,3.432-3.6.288,0,.528.024.84.048V-13.1A5.211,5.211,0,0,0,8.808-11.208Zm11.808-1.9a9.926,9.926,0,0,0-5.568,1.56l1.344,2.616a6.208,6.208,0,0,1,3.72-1.2c2.016,0,2.976.936,2.976,2.544H20.112c-3.936,0-5.544,1.584-5.544,3.864,0,2.232,1.8,3.912,4.824,3.912,1.9,0,3.24-.624,3.936-1.8V0h3.5V-7.368C26.832-11.28,24.552-13.1,20.616-13.1ZM20.328-2.328c-1.32,0-2.112-.624-2.112-1.56,0-.864.552-1.512,2.3-1.512h2.568v1.32A2.759,2.759,0,0,1,20.328-2.328Zm17.208-.936a2.523,2.523,0,0,1-1.512.48,1.506,1.506,0,0,1-1.608-1.7V-9.744h3.216v-2.88H34.416v-3.144H30.672v3.144H28.68v2.88h1.992v5.3c0,3.072,1.776,4.632,4.824,4.632a5.351,5.351,0,0,0,3.048-.816Zm4.992-11.448a2.153,2.153,0,0,0,2.328-2.16,2.1,2.1,0,0,0-2.328-2.016A2.14,2.14,0,0,0,40.2-16.8,2.14,2.14,0,0,0,42.528-14.712ZM40.656,0H44.4V-12.912H40.656ZM57.1-12.912,53.4-4.128l-3.576-8.784H45.96L51.384,0h3.864L60.7-12.912Zm9.912-.192a9.926,9.926,0,0,0-5.568,1.56l1.344,2.616a6.208,6.208,0,0,1,3.72-1.2c2.016,0,2.976.936,2.976,2.544H66.5C62.568-7.584,60.96-6,60.96-3.72c0,2.232,1.8,3.912,4.824,3.912,1.9,0,3.24-.624,3.936-1.8V0h3.5V-7.368C73.224-11.28,70.944-13.1,67.008-13.1ZM66.72-2.328c-1.32,0-2.112-.624-2.112-1.56,0-.864.552-1.512,2.3-1.512H69.48v1.32A2.759,2.759,0,0,1,66.72-2.328ZM92.928-12.912v1.488A4.967,4.967,0,0,0,88.9-13.1,6.277,6.277,0,0,0,82.44-6.456,6.277,6.277,0,0,0,88.9.192a4.961,4.961,0,0,0,3.864-1.56V4.656H96.5V-12.912ZM89.544-2.88a3.276,3.276,0,0,1-3.312-3.576,3.276,3.276,0,0,1,3.312-3.576,3.271,3.271,0,0,1,3.288,3.576A3.271,3.271,0,0,1,89.544-2.88Zm19.68-10.032v6.384c0,2.376-1.248,3.48-2.976,3.48-1.656,0-2.616-.96-2.616-3.12v-6.744H99.888v7.3c0,3.984,2.28,5.808,5.52,5.808a5.224,5.224,0,0,0,4.008-1.728V0h3.552V-12.912Zm19.872,6.5a6.392,6.392,0,0,0-6.72-6.7,6.574,6.574,0,0,0-6.888,6.648c0,3.84,2.9,6.648,7.368,6.648A6.763,6.763,0,0,0,128.184-1.9l-1.992-2.16a4.377,4.377,0,0,1-3.24,1.248,3.443,3.443,0,0,1-3.7-2.592h9.768C129.048-5.712,129.1-6.12,129.1-6.408Zm-6.7-3.864a3.068,3.068,0,0,1,3.168,2.688h-6.36A3.057,3.057,0,0,1,122.4-10.272ZM142.728.192c3.864,0,6.1-1.7,6.1-4.1,0-5.088-7.8-2.952-7.8-5.16,0-.672.72-1.2,2.4-1.2a7.415,7.415,0,0,1,3.72.96l1.248-2.664a10.617,10.617,0,0,0-4.968-1.128c-3.768,0-5.976,1.728-5.976,4.176,0,5.16,7.8,3,7.8,5.112,0,.72-.648,1.176-2.376,1.176a8.834,8.834,0,0,1-4.488-1.248L137.136-1.2A11.085,11.085,0,0,0,142.728.192Zm21.048-6.6a6.392,6.392,0,0,0-6.72-6.7,6.573,6.573,0,0,0-6.888,6.648c0,3.84,2.9,6.648,7.368,6.648A6.763,6.763,0,0,0,162.864-1.9l-1.992-2.16a4.377,4.377,0,0,1-3.24,1.248,3.443,3.443,0,0,1-3.7-2.592H163.7C163.728-5.712,163.776-6.12,163.776-6.408Zm-6.7-3.864a3.068,3.068,0,0,1,3.168,2.688h-6.36A3.057,3.057,0,0,1,157.08-10.272Zm25.2-2.64-3.7,8.784-3.576-8.784h-3.864L176.568,0h3.864l5.448-12.912Zm9.912-.192a9.926,9.926,0,0,0-5.568,1.56l1.344,2.616a6.208,6.208,0,0,1,3.72-1.2c2.016,0,2.976.936,2.976,2.544h-2.976c-3.936,0-5.544,1.584-5.544,3.864,0,2.232,1.8,3.912,4.824,3.912,1.9,0,3.24-.624,3.936-1.8V0h3.5V-7.368C198.408-11.28,196.128-13.1,192.192-13.1ZM191.9-2.328c-1.32,0-2.112-.624-2.112-1.56,0-.864.552-1.512,2.3-1.512h2.568v1.32A2.759,2.759,0,0,1,191.9-2.328ZM213.792-13.1a9.926,9.926,0,0,0-5.568,1.56l1.344,2.616a6.208,6.208,0,0,1,3.72-1.2c2.016,0,2.976.936,2.976,2.544h-2.976c-3.936,0-5.544,1.584-5.544,3.864,0,2.232,1.8,3.912,4.824,3.912,1.9,0,3.24-.624,3.936-1.8V0h3.5V-7.368C220.008-11.28,217.728-13.1,213.792-13.1ZM213.5-2.328c-1.32,0-2.112-.624-2.112-1.56,0-.864.552-1.512,2.3-1.512h2.568v1.32A2.759,2.759,0,0,1,213.5-2.328Zm20.784-10.848c0-1.272.6-1.872,1.7-1.872a2.622,2.622,0,0,1,1.512.456l.984-2.712a5.307,5.307,0,0,0-2.856-.7c-3.216,0-4.992,1.9-4.992,4.8v.576h-1.992v2.88h1.992V0h3.744V-9.744H237.6v-2.88h-3.312ZM245.448.192c4.1,0,7.08-2.76,7.08-6.648s-2.976-6.648-7.08-6.648-7.1,2.76-7.1,6.648S241.344.192,245.448.192Zm0-3.072a3.276,3.276,0,0,1-3.312-3.576,3.276,3.276,0,0,1,3.312-3.576,3.259,3.259,0,0,1,3.288,3.576A3.259,3.259,0,0,1,245.448-2.88ZM258.6-11.208v-1.7h-3.576V0h3.744V-6.1c0-2.472,1.368-3.6,3.432-3.6.288,0,.528.024.84.048V-13.1A5.211,5.211,0,0,0,258.6-11.208Zm23.208-1.9a5.806,5.806,0,0,0-4.656,2.112A4.82,4.82,0,0,0,272.9-13.1a5.229,5.229,0,0,0-4.056,1.68v-1.488h-3.576V0h3.744V-6.48c0-2.3,1.176-3.384,2.832-3.384,1.56,0,2.448.96,2.448,3.048V0h3.744V-6.48c0-2.3,1.176-3.384,2.856-3.384,1.512,0,2.448.96,2.448,3.048V0h3.744V-7.392C287.088-11.328,284.88-13.1,281.808-13.1Zm13.848,0a9.926,9.926,0,0,0-5.568,1.56l1.344,2.616a6.208,6.208,0,0,1,3.72-1.2c2.016,0,2.976.936,2.976,2.544h-2.976c-3.936,0-5.544,1.584-5.544,3.864,0,2.232,1.8,3.912,4.824,3.912,1.9,0,3.24-.624,3.936-1.8V0h3.5V-7.368C301.872-11.28,299.592-13.1,295.656-13.1Zm-.288,10.776c-1.32,0-2.112-.624-2.112-1.56,0-.864.552-1.512,2.3-1.512h2.568v1.32A2.759,2.759,0,0,1,295.368-2.328Zm13.464-8.88v-1.7h-3.576V0H309V-6.1c0-2.472,1.368-3.6,3.432-3.6.288,0,.528.024.84.048V-13.1A5.211,5.211,0,0,0,308.832-11.208Zm7.944,11.4A2.291,2.291,0,0,0,319.1-2.16a2.237,2.237,0,0,0-2.328-2.3,2.237,2.237,0,0,0-2.328,2.3A2.291,2.291,0,0,0,316.776.192Z" transform="translate(968 1789)" fill="#148e9f"/>
    <g id="Rectángulo_2192" data-name="Rectángulo 2192" transform="translate(557 1909)" fill="#fff" stroke="#8de2ed" stroke-width="2">
      <rect width="806" height="109" rx="54.5" stroke="none"/>
      <rect x="1" y="1" width="804" height="107" rx="53.5" fill="none"/>
    </g>
    <path id="Trazado_19972" data-name="Trazado 19972" d="M-267.012-9.96l3.792-4.32V-16.8h-11.76v3.12h7.152l-3.456,3.912V-7.2h1.776c2.208,0,3.144.792,3.144,2.064,0,1.368-1.2,2.16-3.144,2.16a8.159,8.159,0,0,1-4.8-1.512l-1.512,2.976a11.551,11.551,0,0,0,6.408,1.8c4.776,0,6.96-2.592,6.96-5.424C-262.452-7.608-263.988-9.48-267.012-9.96ZM-258.444.192a2.291,2.291,0,0,0,2.328-2.352,2.237,2.237,0,0,0-2.328-2.3,2.237,2.237,0,0,0-2.328,2.3A2.291,2.291,0,0,0-258.444.192Zm19.2-16.992h-7.272V0h3.888V-4.632h3.384c4.488,0,7.3-2.328,7.3-6.072C-231.948-14.472-234.756-16.8-239.244-16.8Zm-.216,9h-3.168v-5.832h3.168c2.376,0,3.576,1.08,3.576,2.928C-235.884-8.88-237.084-7.8-239.46-7.8Zm13.584-3.408v-1.7h-3.576V0h3.744V-6.1c0-2.472,1.368-3.6,3.432-3.6.288,0,.528.024.84.048V-13.1A5.211,5.211,0,0,0-225.876-11.208Zm19.2,4.8a6.392,6.392,0,0,0-6.72-6.7,6.573,6.573,0,0,0-6.888,6.648c0,3.84,2.9,6.648,7.368,6.648A6.763,6.763,0,0,0-207.588-1.9l-1.992-2.16a4.377,4.377,0,0,1-3.24,1.248,3.443,3.443,0,0,1-3.7-2.592h9.768C-206.724-5.712-206.676-6.12-206.676-6.408Zm-6.7-3.864A3.068,3.068,0,0,1-210.2-7.584h-6.36A3.057,3.057,0,0,1-213.372-10.272Zm16.824-2.832a5.017,5.017,0,0,0-4.056,1.68v-1.488h-3.576V4.656h3.744V-1.368a5.013,5.013,0,0,0,3.888,1.56,6.271,6.271,0,0,0,6.432-6.648A6.271,6.271,0,0,0-196.548-13.1ZM-197.2-2.88a3.259,3.259,0,0,1-3.288-3.576,3.259,3.259,0,0,1,3.288-3.576,3.259,3.259,0,0,1,3.288,3.576A3.259,3.259,0,0,1-197.2-2.88ZM-182.628-13.1a9.926,9.926,0,0,0-5.568,1.56l1.344,2.616a6.208,6.208,0,0,1,3.72-1.2c2.016,0,2.976.936,2.976,2.544h-2.976c-3.936,0-5.544,1.584-5.544,3.864,0,2.232,1.8,3.912,4.824,3.912,1.9,0,3.24-.624,3.936-1.8V0h3.5V-7.368C-176.412-11.28-178.692-13.1-182.628-13.1Zm-.288,10.776c-1.32,0-2.112-.624-2.112-1.56,0-.864.552-1.512,2.3-1.512h2.568v1.32A2.759,2.759,0,0,1-182.916-2.328Zm13.464-8.88v-1.7h-3.576V0h3.744V-6.1c0-2.472,1.368-3.6,3.432-3.6.288,0,.528.024.84.048V-13.1A5.211,5.211,0,0,0-169.452-11.208Zm11.808-1.9a9.926,9.926,0,0,0-5.568,1.56l1.344,2.616a6.208,6.208,0,0,1,3.72-1.2c2.016,0,2.976.936,2.976,2.544h-2.976c-3.936,0-5.544,1.584-5.544,3.864,0,2.232,1.8,3.912,4.824,3.912,1.9,0,3.24-.624,3.936-1.8V0h3.5V-7.368C-151.428-11.28-153.708-13.1-157.644-13.1Zm-.288,10.776c-1.32,0-2.112-.624-2.112-1.56,0-.864.552-1.512,2.3-1.512h2.568v1.32A2.759,2.759,0,0,1-157.932-2.328Zm13.464-8.88v-1.7h-3.576V0h3.744V-6.1c0-2.472,1.368-3.6,3.432-3.6.288,0,.528.024.84.048V-13.1A5.211,5.211,0,0,0-144.468-11.208ZM-130.908,0h3.744V-17.808h-3.744Zm12.432-13.1a9.926,9.926,0,0,0-5.568,1.56l1.344,2.616a6.208,6.208,0,0,1,3.72-1.2c2.016,0,2.976.936,2.976,2.544h-2.976c-3.936,0-5.544,1.584-5.544,3.864,0,2.232,1.8,3.912,4.824,3.912,1.9,0,3.24-.624,3.936-1.8V0h3.5V-7.368C-112.26-11.28-114.54-13.1-118.476-13.1Zm-.288,10.776c-1.32,0-2.112-.624-2.112-1.56,0-.864.552-1.512,2.3-1.512H-116v1.32A2.759,2.759,0,0,1-118.764-2.328Zm22.92,2.52c2.712,0,4.848-1.2,5.784-3.264l-2.9-1.584a3.177,3.177,0,0,1-2.9,1.776,3.3,3.3,0,0,1-3.384-3.576,3.3,3.3,0,0,1,3.384-3.576,3.22,3.22,0,0,1,2.9,1.776l2.9-1.56C-91-11.928-93.132-13.1-95.844-13.1c-4.2,0-7.2,2.76-7.2,6.648S-100.044.192-95.844.192Zm13.152-13.3a9.926,9.926,0,0,0-5.568,1.56l1.344,2.616a6.208,6.208,0,0,1,3.72-1.2c2.016,0,2.976.936,2.976,2.544H-83.2C-87.132-7.584-88.74-6-88.74-3.72c0,2.232,1.8,3.912,4.824,3.912,1.9,0,3.24-.624,3.936-1.8V0h3.5V-7.368C-76.476-11.28-78.756-13.1-82.692-13.1ZM-82.98-2.328c-1.32,0-2.112-.624-2.112-1.56,0-.864.552-1.512,2.3-1.512h2.568v1.32A2.759,2.759,0,0,1-82.98-2.328ZM-65.46-13.1a5.017,5.017,0,0,0-4.056,1.68v-1.488h-3.576V4.656h3.744V-1.368A5.013,5.013,0,0,0-65.46.192a6.271,6.271,0,0,0,6.432-6.648A6.271,6.271,0,0,0-65.46-13.1ZM-66.108-2.88A3.259,3.259,0,0,1-69.4-6.456a3.259,3.259,0,0,1,3.288-3.576A3.259,3.259,0,0,1-62.82-6.456,3.259,3.259,0,0,1-66.108-2.88ZM-51.54-13.1a9.926,9.926,0,0,0-5.568,1.56l1.344,2.616a6.208,6.208,0,0,1,3.72-1.2c2.016,0,2.976.936,2.976,2.544h-2.976c-3.936,0-5.544,1.584-5.544,3.864,0,2.232,1.8,3.912,4.824,3.912,1.9,0,3.24-.624,3.936-1.8V0h3.5V-7.368C-45.324-11.28-47.6-13.1-51.54-13.1Zm-.288,10.776c-1.32,0-2.112-.624-2.112-1.56,0-.864.552-1.512,2.3-1.512h2.568v1.32A2.759,2.759,0,0,1-51.828-2.328ZM-35.556.192c2.712,0,4.848-1.2,5.784-3.264l-2.9-1.584a3.177,3.177,0,0,1-2.9,1.776,3.3,3.3,0,0,1-3.384-3.576,3.3,3.3,0,0,1,3.384-3.576,3.22,3.22,0,0,1,2.9,1.776l2.9-1.56c-.936-2.112-3.072-3.288-5.784-3.288-4.2,0-7.2,2.76-7.2,6.648S-39.756.192-35.556.192Zm9.816-14.9a2.153,2.153,0,0,0,2.328-2.16,2.1,2.1,0,0,0-2.328-2.016A2.14,2.14,0,0,0-28.068-16.8,2.14,2.14,0,0,0-25.74-14.712ZM-27.612,0h3.744V-12.912h-3.744Zm14.544-3.264a2.523,2.523,0,0,1-1.512.48,1.506,1.506,0,0,1-1.608-1.7V-9.744h3.216v-2.88h-3.216v-3.144h-3.744v3.144h-1.992v2.88h1.992v5.3c0,3.072,1.776,4.632,4.824,4.632A5.351,5.351,0,0,0-12.06-.624ZM-4.74-13.1a9.926,9.926,0,0,0-5.568,1.56l1.344,2.616a6.208,6.208,0,0,1,3.72-1.2c2.016,0,2.976.936,2.976,2.544H-5.244C-9.18-7.584-10.788-6-10.788-3.72c0,2.232,1.8,3.912,4.824,3.912,1.9,0,3.24-.624,3.936-1.8V0h3.5V-7.368C1.476-11.28-.8-13.1-4.74-13.1ZM-5.028-2.328c-1.32,0-2.112-.624-2.112-1.56,0-.864.552-1.512,2.3-1.512h2.568v1.32A2.759,2.759,0,0,1-5.028-2.328ZM11.244.192c2.712,0,4.848-1.2,5.784-3.264l-2.9-1.584a3.177,3.177,0,0,1-2.9,1.776A3.3,3.3,0,0,1,7.836-6.456a3.3,3.3,0,0,1,3.384-3.576,3.22,3.22,0,0,1,2.9,1.776l2.9-1.56c-.936-2.112-3.072-3.288-5.784-3.288-4.2,0-7.2,2.76-7.2,6.648S7.044.192,11.244.192Zm9.816-14.9a2.153,2.153,0,0,0,2.328-2.16,2.1,2.1,0,0,0-2.328-2.016A2.14,2.14,0,0,0,18.732-16.8,2.14,2.14,0,0,0,21.06-14.712ZM19.188,0h3.744V-12.912H19.188ZM30.324-14.568h2.928L37.6-18.024H33.564ZM32.556.192c4.1,0,7.08-2.76,7.08-6.648S36.66-13.1,32.556-13.1s-7.1,2.76-7.1,6.648S28.452.192,32.556.192Zm0-3.072a3.276,3.276,0,0,1-3.312-3.576,3.276,3.276,0,0,1,3.312-3.576,3.259,3.259,0,0,1,3.288,3.576A3.259,3.259,0,0,1,32.556-2.88ZM49.98-13.1a5.653,5.653,0,0,0-4.272,1.7v-1.512H42.132V0h3.744V-6.384c0-2.376,1.3-3.48,3.1-3.48,1.656,0,2.616.96,2.616,3.048V0h3.744V-7.392C55.332-11.328,53.028-13.1,49.98-13.1Zm24.936-4.7v6.264a4.961,4.961,0,0,0-3.864-1.56A6.277,6.277,0,0,0,64.6-6.456,6.277,6.277,0,0,0,71.052.192a4.967,4.967,0,0,0,4.032-1.68V0H78.66V-17.808ZM71.7-2.88a3.276,3.276,0,0,1-3.312-3.576A3.276,3.276,0,0,1,71.7-10.032a3.271,3.271,0,0,1,3.288,3.576A3.271,3.271,0,0,1,71.7-2.88ZM94.764-6.408a6.392,6.392,0,0,0-6.72-6.7,6.574,6.574,0,0,0-6.888,6.648c0,3.84,2.9,6.648,7.368,6.648A6.763,6.763,0,0,0,93.852-1.9L91.86-4.056a4.377,4.377,0,0,1-3.24,1.248,3.443,3.443,0,0,1-3.7-2.592h9.768C94.716-5.712,94.764-6.12,94.764-6.408Zm-6.7-3.864a3.068,3.068,0,0,1,3.168,2.688h-6.36A3.057,3.057,0,0,1,88.068-10.272ZM104.052,0H107.8V-17.808h-3.744ZM117.42.192c4.1,0,7.08-2.76,7.08-6.648s-2.976-6.648-7.08-6.648-7.1,2.76-7.1,6.648S113.316.192,117.42.192Zm0-3.072a3.276,3.276,0,0,1-3.312-3.576,3.276,3.276,0,0,1,3.312-3.576,3.259,3.259,0,0,1,3.288,3.576A3.259,3.259,0,0,1,117.42-2.88ZM131.34.192c3.864,0,6.1-1.7,6.1-4.1,0-5.088-7.8-2.952-7.8-5.16,0-.672.72-1.2,2.4-1.2a7.415,7.415,0,0,1,3.72.96L137-11.976a10.617,10.617,0,0,0-4.968-1.128c-3.768,0-5.976,1.728-5.976,4.176,0,5.16,7.8,3,7.8,5.112,0,.72-.648,1.176-2.376,1.176A8.834,8.834,0,0,1,127-3.888L125.748-1.2A11.084,11.084,0,0,0,131.34.192Zm20.4-13.3a9.926,9.926,0,0,0-5.568,1.56l1.344,2.616a6.208,6.208,0,0,1,3.72-1.2c2.016,0,2.976.936,2.976,2.544h-2.976c-3.936,0-5.544,1.584-5.544,3.864,0,2.232,1.8,3.912,4.824,3.912,1.9,0,3.24-.624,3.936-1.8V0h3.5V-7.368C157.956-11.28,155.676-13.1,151.74-13.1Zm-.288,10.776c-1.32,0-2.112-.624-2.112-1.56,0-.864.552-1.512,2.3-1.512h2.568v1.32A2.759,2.759,0,0,1,151.452-2.328ZM165.684.192c3.864,0,6.1-1.7,6.1-4.1,0-5.088-7.8-2.952-7.8-5.16,0-.672.72-1.2,2.4-1.2a7.415,7.415,0,0,1,3.72.96l1.248-2.664A10.617,10.617,0,0,0,166.38-13.1c-3.768,0-5.976,1.728-5.976,4.176,0,5.16,7.8,3,7.8,5.112,0,.72-.648,1.176-2.376,1.176a8.834,8.834,0,0,1-4.488-1.248L160.092-1.2A11.085,11.085,0,0,0,165.684.192Zm14.544,0c4.1,0,7.08-2.76,7.08-6.648s-2.976-6.648-7.08-6.648-7.1,2.76-7.1,6.648S176.124.192,180.228.192Zm0-3.072a3.276,3.276,0,0,1-3.312-3.576,3.276,3.276,0,0,1,3.312-3.576,3.259,3.259,0,0,1,3.288,3.576A3.259,3.259,0,0,1,180.228-2.88ZM196.044.192c2.712,0,4.848-1.2,5.784-3.264l-2.9-1.584a3.177,3.177,0,0,1-2.9,1.776,3.3,3.3,0,0,1-3.384-3.576,3.3,3.3,0,0,1,3.384-3.576,3.22,3.22,0,0,1,2.9,1.776l2.9-1.56c-.936-2.112-3.072-3.288-5.784-3.288-4.2,0-7.2,2.76-7.2,6.648S191.844.192,196.044.192Zm9.816-14.9a2.153,2.153,0,0,0,2.328-2.16,2.1,2.1,0,0,0-2.328-2.016,2.14,2.14,0,0,0-2.328,2.088A2.14,2.14,0,0,0,205.86-14.712ZM203.988,0h3.744V-12.912h-3.744ZM216.42-13.1a9.926,9.926,0,0,0-5.568,1.56L212.2-8.928a6.208,6.208,0,0,1,3.72-1.2c2.016,0,2.976.936,2.976,2.544h-2.976c-3.936,0-5.544,1.584-5.544,3.864,0,2.232,1.8,3.912,4.824,3.912,1.9,0,3.24-.624,3.936-1.8V0h3.5V-7.368C222.636-11.28,220.356-13.1,216.42-13.1Zm-.288,10.776c-1.32,0-2.112-.624-2.112-1.56,0-.864.552-1.512,2.3-1.512h2.568v1.32A2.759,2.759,0,0,1,216.132-2.328Zm19.44-15.48v6.264a4.961,4.961,0,0,0-3.864-1.56,6.277,6.277,0,0,0-6.456,6.648A6.277,6.277,0,0,0,231.708.192a4.967,4.967,0,0,0,4.032-1.68V0h3.576V-17.808ZM232.356-2.88a3.276,3.276,0,0,1-3.312-3.576,3.276,3.276,0,0,1,3.312-3.576,3.271,3.271,0,0,1,3.288,3.576A3.271,3.271,0,0,1,232.356-2.88ZM248.916.192c4.1,0,7.08-2.76,7.08-6.648s-2.976-6.648-7.08-6.648-7.1,2.76-7.1,6.648S244.812.192,248.916.192Zm0-3.072A3.276,3.276,0,0,1,245.6-6.456a3.276,3.276,0,0,1,3.312-3.576A3.259,3.259,0,0,1,252.2-6.456,3.259,3.259,0,0,1,248.916-2.88ZM262.836.192c3.864,0,6.1-1.7,6.1-4.1,0-5.088-7.8-2.952-7.8-5.16,0-.672.72-1.2,2.4-1.2a7.415,7.415,0,0,1,3.72.96l1.248-2.664a10.617,10.617,0,0,0-4.968-1.128c-3.768,0-5.976,1.728-5.976,4.176,0,5.16,7.8,3,7.8,5.112,0,.72-.648,1.176-2.376,1.176a8.834,8.834,0,0,1-4.488-1.248L257.244-1.2A11.084,11.084,0,0,0,262.836.192Zm9.816,0A2.291,2.291,0,0,0,274.98-2.16a2.237,2.237,0,0,0-2.328-2.3,2.237,2.237,0,0,0-2.328,2.3A2.291,2.291,0,0,0,272.652.192Z" transform="translate(968 1971)" fill="#148e9f"/>
    <g id="Rectángulo_2193" data-name="Rectángulo 2193" transform="translate(557 2100)" fill="#fff" stroke="#8de2ed" stroke-width="2">
      <rect width="806" height="109" rx="54.5" stroke="none"/>
      <rect x="1" y="1" width="804" height="107" rx="53.5" fill="none"/>
    </g>
    <path id="Trazado_19973" data-name="Trazado 19973" d="M-327.024-6.7h-2.736V-9.84h-3.672V-6.7h-4.512l7.344-10.1h-4.08L-342.6-6.144v2.616h9.048V0h3.792V-3.528h2.736Zm3.84,6.888a2.291,2.291,0,0,0,2.328-2.352,2.237,2.237,0,0,0-2.328-2.3,2.237,2.237,0,0,0-2.328,2.3A2.291,2.291,0,0,0-323.184.192Zm15.792-3.312V-7.008h7.8v-3.024h-7.8V-13.68h8.832V-16.8h-12.7V0h13.008V-3.12ZM-295.416,0h3.744V-17.808h-3.744Zm12.432-13.1a9.926,9.926,0,0,0-5.568,1.56l1.344,2.616a6.208,6.208,0,0,1,3.72-1.2c2.016,0,2.976.936,2.976,2.544h-2.976c-3.936,0-5.544,1.584-5.544,3.864,0,2.232,1.8,3.912,4.824,3.912,1.9,0,3.24-.624,3.936-1.8V0h3.5V-7.368C-276.768-11.28-279.048-13.1-282.984-13.1Zm-.288,10.776c-1.32,0-2.112-.624-2.112-1.56,0-.864.552-1.512,2.3-1.512h2.568v1.32A2.759,2.759,0,0,1-283.272-2.328Zm17.52-10.776a5.013,5.013,0,0,0-3.888,1.56v-6.264h-3.744V0h3.576V-1.488a5.017,5.017,0,0,0,4.056,1.68,6.271,6.271,0,0,0,6.432-6.648A6.271,6.271,0,0,0-265.752-13.1ZM-266.4-2.88a3.259,3.259,0,0,1-3.288-3.576,3.259,3.259,0,0,1,3.288-3.576,3.259,3.259,0,0,1,3.288,3.576A3.259,3.259,0,0,1-266.4-2.88ZM-250.68.192c4.1,0,7.08-2.76,7.08-6.648s-2.976-6.648-7.08-6.648-7.1,2.76-7.1,6.648S-254.784.192-250.68.192Zm0-3.072a3.276,3.276,0,0,1-3.312-3.576,3.276,3.276,0,0,1,3.312-3.576,3.259,3.259,0,0,1,3.288,3.576A3.259,3.259,0,0,1-250.68-2.88Zm13.152-8.328v-1.7H-241.1V0h3.744V-6.1c0-2.472,1.368-3.6,3.432-3.6.288,0,.528.024.84.048V-13.1A5.211,5.211,0,0,0-237.528-11.208Zm11.808-1.9a9.926,9.926,0,0,0-5.568,1.56l1.344,2.616a6.208,6.208,0,0,1,3.72-1.2c2.016,0,2.976.936,2.976,2.544h-2.976c-3.936,0-5.544,1.584-5.544,3.864,0,2.232,1.8,3.912,4.824,3.912,1.9,0,3.24-.624,3.936-1.8V0h3.5V-7.368C-219.5-11.28-221.784-13.1-225.72-13.1Zm-.288,10.776c-1.32,0-2.112-.624-2.112-1.56,0-.864.552-1.512,2.3-1.512h2.568v1.32A2.759,2.759,0,0,1-226.008-2.328Zm13.464-8.88v-1.7h-3.576V0h3.744V-6.1c0-2.472,1.368-3.6,3.432-3.6.288,0,.528.024.84.048V-13.1A5.211,5.211,0,0,0-212.544-11.208Zm22.824-1.7v6.384c0,2.376-1.248,3.48-2.976,3.48-1.656,0-2.616-.96-2.616-3.12v-6.744h-3.744v7.3c0,3.984,2.28,5.808,5.52,5.808a5.224,5.224,0,0,0,4.008-1.728V0h3.552V-12.912Zm15.072-.192a5.653,5.653,0,0,0-4.272,1.7v-1.512H-182.5V0h3.744V-6.384c0-2.376,1.3-3.48,3.1-3.48,1.656,0,2.616.96,2.616,3.048V0h3.744V-7.392C-169.3-11.328-171.6-13.1-174.648-13.1Zm23.16,0a5.017,5.017,0,0,0-4.056,1.68v-1.488h-3.576V4.656h3.744V-1.368a5.013,5.013,0,0,0,3.888,1.56,6.271,6.271,0,0,0,6.432-6.648A6.271,6.271,0,0,0-151.488-13.1Zm-.648,10.224a3.259,3.259,0,0,1-3.288-3.576,3.259,3.259,0,0,1,3.288-3.576,3.259,3.259,0,0,1,3.288,3.576A3.259,3.259,0,0,1-152.136-2.88Zm13.152-8.328v-1.7h-3.576V0h3.744V-6.1c0-2.472,1.368-3.6,3.432-3.6.288,0,.528.024.84.048V-13.1A5.211,5.211,0,0,0-138.984-11.208Zm12.7,11.4c4.1,0,7.08-2.76,7.08-6.648s-2.976-6.648-7.08-6.648-7.1,2.76-7.1,6.648S-130.392.192-126.288.192Zm0-3.072A3.276,3.276,0,0,1-129.6-6.456a3.276,3.276,0,0,1,3.312-3.576A3.259,3.259,0,0,1-123-6.456,3.259,3.259,0,0,1-126.288-2.88Zm18.432-10.032-3.648,8.76-3.624-8.76h-3.864L-113.4.1l-.048.12c-.5,1.152-1.08,1.608-2.112,1.608a3.319,3.319,0,0,1-2.112-.816l-1.368,2.664a5.734,5.734,0,0,0,3.6,1.176c2.328,0,4.1-.936,5.352-4.056l5.832-13.7Zm17.424,6.5a6.392,6.392,0,0,0-6.72-6.7,6.574,6.574,0,0,0-6.888,6.648c0,3.84,2.9,6.648,7.368,6.648A6.763,6.763,0,0,0-91.344-1.9l-1.992-2.16a4.377,4.377,0,0,1-3.24,1.248,3.443,3.443,0,0,1-3.7-2.592H-90.5C-90.48-5.712-90.432-6.12-90.432-6.408Zm-6.7-3.864A3.068,3.068,0,0,1-93.96-7.584h-6.36A3.057,3.057,0,0,1-97.128-10.272ZM-81.7.192c2.712,0,4.848-1.2,5.784-3.264l-2.9-1.584a3.177,3.177,0,0,1-2.9,1.776A3.3,3.3,0,0,1-85.1-6.456a3.3,3.3,0,0,1,3.384-3.576,3.22,3.22,0,0,1,2.9,1.776l2.9-1.56c-.936-2.112-3.072-3.288-5.784-3.288-4.2,0-7.2,2.76-7.2,6.648S-85.9.192-81.7.192ZM-66.24-3.264a2.523,2.523,0,0,1-1.512.48,1.506,1.506,0,0,1-1.608-1.7V-9.744h3.216v-2.88H-69.36v-3.144H-73.1v3.144H-75.1v2.88H-73.1v5.3c0,3.072,1.776,4.632,4.824,4.632a5.351,5.351,0,0,0,3.048-.816ZM-57.384.192c4.1,0,7.08-2.76,7.08-6.648S-53.28-13.1-57.384-13.1s-7.1,2.76-7.1,6.648S-61.488.192-57.384.192Zm0-3.072A3.276,3.276,0,0,1-60.7-6.456a3.276,3.276,0,0,1,3.312-3.576A3.259,3.259,0,0,1-54.1-6.456,3.259,3.259,0,0,1-57.384-2.88Zm25.776-14.928v6.264a4.961,4.961,0,0,0-3.864-1.56,6.277,6.277,0,0,0-6.456,6.648A6.277,6.277,0,0,0-35.472.192a4.967,4.967,0,0,0,4.032-1.68V0h3.576V-17.808ZM-34.824-2.88a3.276,3.276,0,0,1-3.312-3.576,3.276,3.276,0,0,1,3.312-3.576,3.271,3.271,0,0,1,3.288,3.576A3.271,3.271,0,0,1-34.824-2.88ZM-11.76-6.408a6.392,6.392,0,0,0-6.72-6.7,6.573,6.573,0,0,0-6.888,6.648c0,3.84,2.9,6.648,7.368,6.648A6.763,6.763,0,0,0-12.672-1.9l-1.992-2.16A4.377,4.377,0,0,1-17.9-2.808,3.443,3.443,0,0,1-21.6-5.4h9.768C-11.808-5.712-11.76-6.12-11.76-6.408Zm-6.7-3.864a3.068,3.068,0,0,1,3.168,2.688h-6.36A3.057,3.057,0,0,1-18.456-10.272ZM10.176-6.408a6.392,6.392,0,0,0-6.72-6.7A6.573,6.573,0,0,0-3.432-6.456c0,3.84,2.9,6.648,7.368,6.648A6.763,6.763,0,0,0,9.264-1.9L7.272-4.056a4.377,4.377,0,0,1-3.24,1.248A3.443,3.443,0,0,1,.336-5.4H10.1C10.128-5.712,10.176-6.12,10.176-6.408Zm-6.7-3.864A3.068,3.068,0,0,1,6.648-7.584H.288A3.057,3.057,0,0,1,3.48-10.272ZM17.016.192c3.864,0,6.1-1.7,6.1-4.1,0-5.088-7.8-2.952-7.8-5.16,0-.672.72-1.2,2.4-1.2a7.415,7.415,0,0,1,3.72.96l1.248-2.664A10.617,10.617,0,0,0,17.712-13.1c-3.768,0-5.976,1.728-5.976,4.176,0,5.16,7.8,3,7.8,5.112,0,.72-.648,1.176-2.376,1.176a8.834,8.834,0,0,1-4.488-1.248L11.424-1.2A11.084,11.084,0,0,0,17.016.192Zm15.72-3.456a2.523,2.523,0,0,1-1.512.48,1.506,1.506,0,0,1-1.608-1.7V-9.744h3.216v-2.88H29.616v-3.144H25.872v3.144H23.88v2.88h1.992v5.3c0,3.072,1.776,4.632,4.824,4.632a5.351,5.351,0,0,0,3.048-.816Zm8.328-9.84a9.926,9.926,0,0,0-5.568,1.56L36.84-8.928a6.208,6.208,0,0,1,3.72-1.2c2.016,0,2.976.936,2.976,2.544H40.56c-3.936,0-5.544,1.584-5.544,3.864,0,2.232,1.8,3.912,4.824,3.912,1.9,0,3.24-.624,3.936-1.8V0h3.5V-7.368C47.28-11.28,45-13.1,41.064-13.1ZM40.776-2.328c-1.32,0-2.112-.624-2.112-1.56,0-.864.552-1.512,2.3-1.512h2.568v1.32A2.759,2.759,0,0,1,40.776-2.328Zm17.208-.936a2.523,2.523,0,0,1-1.512.48,1.506,1.506,0,0,1-1.608-1.7V-9.744H58.08v-2.88H54.864v-3.144H51.12v3.144H49.128v2.88H51.12v5.3C51.12-1.368,52.9.192,55.944.192a5.351,5.351,0,0,0,3.048-.816Zm12.384-9.648v6.384c0,2.376-1.248,3.48-2.976,3.48-1.656,0-2.616-.96-2.616-3.12v-6.744H61.032v7.3c0,3.984,2.28,5.808,5.52,5.808A5.224,5.224,0,0,0,70.56-1.536V0h3.552V-12.912ZM84.912-3.264a2.523,2.523,0,0,1-1.512.48,1.506,1.506,0,0,1-1.608-1.7V-9.744h3.216v-2.88H81.792v-3.144H78.048v3.144H76.056v2.88h1.992v5.3c0,3.072,1.776,4.632,4.824,4.632A5.351,5.351,0,0,0,85.92-.624ZM93.768.192c4.1,0,7.08-2.76,7.08-6.648S97.872-13.1,93.768-13.1s-7.1,2.76-7.1,6.648S89.664.192,93.768.192Zm0-3.072a3.276,3.276,0,0,1-3.312-3.576,3.276,3.276,0,0,1,3.312-3.576,3.259,3.259,0,0,1,3.288,3.576A3.259,3.259,0,0,1,93.768-2.88ZM107.688.192c3.864,0,6.1-1.7,6.1-4.1,0-5.088-7.8-2.952-7.8-5.16,0-.672.72-1.2,2.4-1.2a7.415,7.415,0,0,1,3.72.96l1.248-2.664a10.617,10.617,0,0,0-4.968-1.128c-3.768,0-5.976,1.728-5.976,4.176,0,5.16,7.8,3,7.8,5.112,0,.72-.648,1.176-2.376,1.176a8.834,8.834,0,0,1-4.488-1.248L102.1-1.2A11.084,11.084,0,0,0,107.688.192Zm24.6-18v6.264a4.961,4.961,0,0,0-3.864-1.56,6.277,6.277,0,0,0-6.456,6.648A6.277,6.277,0,0,0,128.424.192a4.967,4.967,0,0,0,4.032-1.68V0h3.576V-17.808ZM129.072-2.88a3.276,3.276,0,0,1-3.312-3.576,3.276,3.276,0,0,1,3.312-3.576,3.271,3.271,0,0,1,3.288,3.576A3.271,3.271,0,0,1,129.072-2.88Zm23.064-3.528a6.392,6.392,0,0,0-6.72-6.7,6.573,6.573,0,0,0-6.888,6.648c0,3.84,2.9,6.648,7.368,6.648A6.763,6.763,0,0,0,151.224-1.9l-1.992-2.16a4.377,4.377,0,0,1-3.24,1.248A3.443,3.443,0,0,1,142.3-5.4h9.768C152.088-5.712,152.136-6.12,152.136-6.408Zm-6.7-3.864a3.068,3.068,0,0,1,3.168,2.688h-6.36A3.057,3.057,0,0,1,145.44-10.272ZM161.424,0h3.744V-17.808h-3.744Zm12.432-13.1a9.926,9.926,0,0,0-5.568,1.56l1.344,2.616a6.208,6.208,0,0,1,3.72-1.2c2.016,0,2.976.936,2.976,2.544h-2.976c-3.936,0-5.544,1.584-5.544,3.864,0,2.232,1.8,3.912,4.824,3.912,1.9,0,3.24-.624,3.936-1.8V0h3.5V-7.368C180.072-11.28,177.792-13.1,173.856-13.1Zm-.288,10.776c-1.32,0-2.112-.624-2.112-1.56,0-.864.552-1.512,2.3-1.512h2.568v1.32A2.759,2.759,0,0,1,173.568-2.328Zm22.92,2.52c2.712,0,4.848-1.2,5.784-3.264l-2.9-1.584a3.177,3.177,0,0,1-2.9,1.776,3.3,3.3,0,0,1-3.384-3.576,3.3,3.3,0,0,1,3.384-3.576,3.22,3.22,0,0,1,2.9,1.776l2.9-1.56c-.936-2.112-3.072-3.288-5.784-3.288-4.2,0-7.2,2.76-7.2,6.648S192.288.192,196.488.192Zm13.92,0c4.1,0,7.08-2.76,7.08-6.648s-2.976-6.648-7.08-6.648-7.1,2.76-7.1,6.648S206.3.192,210.408.192Zm0-3.072A3.276,3.276,0,0,1,207.1-6.456a3.276,3.276,0,0,1,3.312-3.576A3.259,3.259,0,0,1,213.7-6.456,3.259,3.259,0,0,1,210.408-2.88ZM226.128.192c4.1,0,7.08-2.76,7.08-6.648s-2.976-6.648-7.08-6.648-7.1,2.76-7.1,6.648S222.024.192,226.128.192Zm0-3.072a3.276,3.276,0,0,1-3.312-3.576,3.276,3.276,0,0,1,3.312-3.576,3.259,3.259,0,0,1,3.288,3.576A3.259,3.259,0,0,1,226.128-2.88ZM243.336-13.1a5.017,5.017,0,0,0-4.056,1.68v-1.488H235.7V4.656h3.744V-1.368a5.013,5.013,0,0,0,3.888,1.56,6.271,6.271,0,0,0,6.432-6.648A6.271,6.271,0,0,0,243.336-13.1ZM242.688-2.88A3.259,3.259,0,0,1,239.4-6.456a3.259,3.259,0,0,1,3.288-3.576,3.259,3.259,0,0,1,3.288,3.576A3.259,3.259,0,0,1,242.688-2.88Zm22.224-3.528a6.392,6.392,0,0,0-6.72-6.7A6.573,6.573,0,0,0,251.3-6.456c0,3.84,2.9,6.648,7.368,6.648A6.763,6.763,0,0,0,264-1.9l-1.992-2.16a4.377,4.377,0,0,1-3.24,1.248,3.443,3.443,0,0,1-3.7-2.592h9.768C264.864-5.712,264.912-6.12,264.912-6.408Zm-6.7-3.864a3.068,3.068,0,0,1,3.168,2.688h-6.36A3.057,3.057,0,0,1,258.216-10.272Zm12.768-.936v-1.7h-3.576V0h3.744V-6.1c0-2.472,1.368-3.6,3.432-3.6.288,0,.528.024.84.048V-13.1A5.211,5.211,0,0,0,270.984-11.208Zm11.808-1.9a9.926,9.926,0,0,0-5.568,1.56l1.344,2.616a6.208,6.208,0,0,1,3.72-1.2c2.016,0,2.976.936,2.976,2.544h-2.976c-3.936,0-5.544,1.584-5.544,3.864,0,2.232,1.8,3.912,4.824,3.912,1.9,0,3.24-.624,3.936-1.8V0h3.5V-7.368C289.008-11.28,286.728-13.1,282.792-13.1ZM282.5-2.328c-1.32,0-2.112-.624-2.112-1.56,0-.864.552-1.512,2.3-1.512h2.568v1.32A2.759,2.759,0,0,1,282.5-2.328Zm17.208-.936a2.523,2.523,0,0,1-1.512.48,1.506,1.506,0,0,1-1.608-1.7V-9.744h3.216v-2.88h-3.216v-3.144h-3.744v3.144h-1.992v2.88h1.992v5.3c0,3.072,1.776,4.632,4.824,4.632a5.351,5.351,0,0,0,3.048-.816ZM304.7-14.712a2.153,2.153,0,0,0,2.328-2.16,2.1,2.1,0,0,0-2.328-2.016,2.14,2.14,0,0,0-2.328,2.088A2.14,2.14,0,0,0,304.7-14.712ZM302.832,0h3.744V-12.912h-3.744Zm16.44-12.912-3.7,8.784L312-12.912h-3.864L313.56,0h3.864l5.448-12.912Zm9.912-.192a9.926,9.926,0,0,0-5.568,1.56l1.344,2.616a6.208,6.208,0,0,1,3.72-1.2c2.016,0,2.976.936,2.976,2.544H328.68c-3.936,0-5.544,1.584-5.544,3.864,0,2.232,1.8,3.912,4.824,3.912,1.9,0,3.24-.624,3.936-1.8V0h3.5V-7.368C335.4-11.28,333.12-13.1,329.184-13.1ZM328.9-2.328c-1.32,0-2.112-.624-2.112-1.56,0-.864.552-1.512,2.3-1.512h2.568v1.32A2.759,2.759,0,0,1,328.9-2.328ZM340.2.192a2.291,2.291,0,0,0,2.328-2.352,2.237,2.237,0,0,0-2.328-2.3,2.237,2.237,0,0,0-2.328,2.3A2.291,2.291,0,0,0,340.2.192Z" transform="translate(968 2163)" fill="#148e9f"/>
    <g id="Rectángulo_2194" data-name="Rectángulo 2194" transform="translate(557 2291)" fill="#fff" stroke="#8de2ed" stroke-width="2">
      <rect width="806" height="109" rx="54.5" stroke="none"/>
      <rect x="1" y="1" width="804" height="107" rx="53.5" fill="none"/>
    </g>
    <path id="Trazado_19974" data-name="Trazado 19974" d="M-316-10.488h-1.368l.264-3.192h7.008V-16.8H-320.34l-.864,9.456h4.3c3.048,0,3.912.864,3.912,2.184,0,1.368-1.2,2.184-3.144,2.184a8.085,8.085,0,0,1-4.776-1.512l-1.536,2.976a11.609,11.609,0,0,0,6.408,1.8c4.8,0,6.984-2.592,6.984-5.568S-311.028-10.488-316-10.488ZM-305.268.192A2.291,2.291,0,0,0-302.94-2.16a2.237,2.237,0,0,0-2.328-2.3,2.237,2.237,0,0,0-2.328,2.3A2.291,2.291,0,0,0-305.268.192ZM-293.34,0h3.888V-16.8h-3.888Zm15.456-13.1a5.653,5.653,0,0,0-4.272,1.7v-1.512h-3.576V0h3.744V-6.384c0-2.376,1.3-3.48,3.1-3.48,1.656,0,2.616.96,2.616,3.048V0h3.744V-7.392C-272.532-11.328-274.836-13.1-277.884-13.1ZM-264.8.192c3.864,0,6.1-1.7,6.1-4.1,0-5.088-7.8-2.952-7.8-5.16,0-.672.72-1.2,2.4-1.2a7.415,7.415,0,0,1,3.72.96l1.248-2.664a10.617,10.617,0,0,0-4.968-1.128c-3.768,0-5.976,1.728-5.976,4.176,0,5.16,7.8,3,7.8,5.112,0,.72-.648,1.176-2.376,1.176a8.834,8.834,0,0,1-4.488-1.248L-270.4-1.2A11.084,11.084,0,0,0-264.8.192Zm14.64,0c2.712,0,4.848-1.2,5.784-3.264l-2.9-1.584a3.177,3.177,0,0,1-2.9,1.776,3.3,3.3,0,0,1-3.384-3.576,3.3,3.3,0,0,1,3.384-3.576,3.22,3.22,0,0,1,2.9,1.776l2.9-1.56c-.936-2.112-3.072-3.288-5.784-3.288-4.2,0-7.2,2.76-7.2,6.648S-254.364.192-250.164.192Zm11.52-11.4v-1.7h-3.576V0h3.744V-6.1c0-2.472,1.368-3.6,3.432-3.6.288,0,.528.024.84.048V-13.1A5.211,5.211,0,0,0-238.644-11.208Zm8.544-3.5a2.153,2.153,0,0,0,2.328-2.16,2.1,2.1,0,0,0-2.328-2.016,2.14,2.14,0,0,0-2.328,2.088A2.14,2.14,0,0,0-230.1-14.712ZM-231.972,0h3.744V-12.912h-3.744Zm14.856-13.1A5.013,5.013,0,0,0-221-11.544v-6.264h-3.744V0h3.576V-1.488a5.017,5.017,0,0,0,4.056,1.68,6.271,6.271,0,0,0,6.432-6.648A6.271,6.271,0,0,0-217.116-13.1Zm-.648,10.224a3.259,3.259,0,0,1-3.288-3.576,3.259,3.259,0,0,1,3.288-3.576,3.259,3.259,0,0,1,3.288,3.576A3.259,3.259,0,0,1-217.764-2.88Zm11.448-11.832a2.153,2.153,0,0,0,2.328-2.16,2.1,2.1,0,0,0-2.328-2.016,2.14,2.14,0,0,0-2.328,2.088A2.14,2.14,0,0,0-206.316-14.712ZM-208.188,0h3.744V-12.912h-3.744Zm10.8-11.208v-1.7h-3.576V0h3.744V-6.1c0-2.472,1.368-3.6,3.432-3.6.288,0,.528.024.84.048V-13.1A5.211,5.211,0,0,0-197.388-11.208ZM-183.828,0h3.744V-17.808h-3.744ZM-171.4-13.1a9.926,9.926,0,0,0-5.568,1.56l1.344,2.616a6.208,6.208,0,0,1,3.72-1.2c2.016,0,2.976.936,2.976,2.544H-171.9c-3.936,0-5.544,1.584-5.544,3.864,0,2.232,1.8,3.912,4.824,3.912,1.9,0,3.24-.624,3.936-1.8V0h3.5V-7.368C-165.18-11.28-167.46-13.1-171.4-13.1Zm-.288,10.776c-1.32,0-2.112-.624-2.112-1.56,0-.864.552-1.512,2.3-1.512h2.568v1.32A2.759,2.759,0,0,1-171.684-2.328Zm22.92,2.52c2.712,0,4.848-1.2,5.784-3.264l-2.9-1.584a3.177,3.177,0,0,1-2.9,1.776,3.3,3.3,0,0,1-3.384-3.576,3.3,3.3,0,0,1,3.384-3.576,3.22,3.22,0,0,1,2.9,1.776l2.9-1.56c-.936-2.112-3.072-3.288-5.784-3.288-4.2,0-7.2,2.76-7.2,6.648S-152.964.192-148.764.192Zm13.92,0c4.1,0,7.08-2.76,7.08-6.648s-2.976-6.648-7.08-6.648-7.1,2.76-7.1,6.648S-138.948.192-134.844.192Zm0-3.072a3.276,3.276,0,0,1-3.312-3.576,3.276,3.276,0,0,1,3.312-3.576,3.259,3.259,0,0,1,3.288,3.576A3.259,3.259,0,0,1-134.844-2.88Zm15.72,3.072c4.1,0,7.08-2.76,7.08-6.648s-2.976-6.648-7.08-6.648-7.1,2.76-7.1,6.648S-123.228.192-119.124.192Zm0-3.072a3.276,3.276,0,0,1-3.312-3.576,3.276,3.276,0,0,1,3.312-3.576,3.259,3.259,0,0,1,3.288,3.576A3.259,3.259,0,0,1-119.124-2.88ZM-101.916-13.1a5.017,5.017,0,0,0-4.056,1.68v-1.488h-3.576V4.656h3.744V-1.368a5.013,5.013,0,0,0,3.888,1.56,6.271,6.271,0,0,0,6.432-6.648A6.271,6.271,0,0,0-101.916-13.1Zm-.648,10.224a3.259,3.259,0,0,1-3.288-3.576,3.259,3.259,0,0,1,3.288-3.576,3.259,3.259,0,0,1,3.288,3.576A3.259,3.259,0,0,1-102.564-2.88ZM-80.34-6.408a6.392,6.392,0,0,0-6.72-6.7,6.574,6.574,0,0,0-6.888,6.648c0,3.84,2.9,6.648,7.368,6.648A6.763,6.763,0,0,0-81.252-1.9l-1.992-2.16a4.377,4.377,0,0,1-3.24,1.248A3.443,3.443,0,0,1-90.18-5.4h9.768C-80.388-5.712-80.34-6.12-80.34-6.408Zm-6.7-3.864a3.068,3.068,0,0,1,3.168,2.688h-6.36A3.057,3.057,0,0,1-87.036-10.272Zm12.768-.936v-1.7h-3.576V0H-74.1V-6.1c0-2.472,1.368-3.6,3.432-3.6.288,0,.528.024.84.048V-13.1A5.211,5.211,0,0,0-74.268-11.208Zm11.808-1.9a9.926,9.926,0,0,0-5.568,1.56l1.344,2.616a6.208,6.208,0,0,1,3.72-1.2c2.016,0,2.976.936,2.976,2.544h-2.976C-66.9-7.584-68.508-6-68.508-3.72c0,2.232,1.8,3.912,4.824,3.912,1.9,0,3.24-.624,3.936-1.8V0h3.5V-7.368C-56.244-11.28-58.524-13.1-62.46-13.1Zm-.288,10.776c-1.32,0-2.112-.624-2.112-1.56,0-.864.552-1.512,2.3-1.512h2.568v1.32A2.759,2.759,0,0,1-62.748-2.328Zm17.208-.936a2.523,2.523,0,0,1-1.512.48,1.506,1.506,0,0,1-1.608-1.7V-9.744h3.216v-2.88H-48.66v-3.144H-52.4v3.144H-54.4v2.88H-52.4v5.3c0,3.072,1.776,4.632,4.824,4.632a5.351,5.351,0,0,0,3.048-.816Zm4.992-11.448a2.153,2.153,0,0,0,2.328-2.16,2.1,2.1,0,0,0-2.328-2.016A2.14,2.14,0,0,0-42.876-16.8,2.14,2.14,0,0,0-40.548-14.712ZM-42.42,0h3.744V-12.912H-42.42Zm16.44-12.912-3.7,8.784-3.576-8.784h-3.864L-31.692,0h3.864l5.448-12.912Zm9.912-.192a9.926,9.926,0,0,0-5.568,1.56l1.344,2.616a6.208,6.208,0,0,1,3.72-1.2c2.016,0,2.976.936,2.976,2.544h-2.976c-3.936,0-5.544,1.584-5.544,3.864,0,2.232,1.8,3.912,4.824,3.912,1.9,0,3.24-.624,3.936-1.8V0h3.5V-7.368C-9.852-11.28-12.132-13.1-16.068-13.1Zm-.288,10.776c-1.32,0-2.112-.624-2.112-1.56,0-.864.552-1.512,2.3-1.512H-13.6v1.32A2.759,2.759,0,0,1-16.356-2.328Zm29.328-4.08a6.392,6.392,0,0,0-6.72-6.7A6.574,6.574,0,0,0-.636-6.456c0,3.84,2.9,6.648,7.368,6.648A6.763,6.763,0,0,0,12.06-1.9l-1.992-2.16a4.377,4.377,0,0,1-3.24,1.248A3.443,3.443,0,0,1,3.132-5.4H12.9C12.924-5.712,12.972-6.12,12.972-6.408Zm-6.7-3.864A3.068,3.068,0,0,1,9.444-7.584H3.084A3.057,3.057,0,0,1,6.276-10.272ZM23.316-13.1a5.653,5.653,0,0,0-4.272,1.7v-1.512H15.468V0h3.744V-6.384c0-2.376,1.3-3.48,3.1-3.48,1.656,0,2.616.96,2.616,3.048V0h3.744V-7.392C28.668-11.328,26.364-13.1,23.316-13.1ZM38.844,0h3.744V-17.808H38.844ZM51.276-13.1a9.926,9.926,0,0,0-5.568,1.56l1.344,2.616a6.208,6.208,0,0,1,3.72-1.2c2.016,0,2.976.936,2.976,2.544H50.772c-3.936,0-5.544,1.584-5.544,3.864,0,2.232,1.8,3.912,4.824,3.912,1.9,0,3.24-.624,3.936-1.8V0h3.5V-7.368C57.492-11.28,55.212-13.1,51.276-13.1ZM50.988-2.328c-1.32,0-2.112-.624-2.112-1.56,0-.864.552-1.512,2.3-1.512h2.568v1.32A2.759,2.759,0,0,1,50.988-2.328ZM73.908.192c2.712,0,4.848-1.2,5.784-3.264l-2.9-1.584a3.177,3.177,0,0,1-2.9,1.776A3.3,3.3,0,0,1,70.5-6.456a3.3,3.3,0,0,1,3.384-3.576,3.22,3.22,0,0,1,2.9,1.776l2.9-1.56c-.936-2.112-3.072-3.288-5.784-3.288-4.2,0-7.2,2.76-7.2,6.648S69.708.192,73.908.192ZM92.532-18.024H88.5l-3.24,3.456h2.928ZM87.06-13.1a9.926,9.926,0,0,0-5.568,1.56l1.344,2.616a6.208,6.208,0,0,1,3.72-1.2c2.016,0,2.976.936,2.976,2.544H86.556C82.62-7.584,81.012-6,81.012-3.72c0,2.232,1.8,3.912,4.824,3.912,1.9,0,3.24-.624,3.936-1.8V0h3.5V-7.368C93.276-11.28,91-13.1,87.06-13.1ZM86.772-2.328c-1.32,0-2.112-.624-2.112-1.56,0-.864.552-1.512,2.3-1.512h2.568v1.32A2.759,2.759,0,0,1,86.772-2.328ZM113.2-13.1a5.806,5.806,0,0,0-4.656,2.112,4.82,4.82,0,0,0-4.248-2.112,5.229,5.229,0,0,0-4.056,1.68v-1.488H96.66V0H100.4V-6.48c0-2.3,1.176-3.384,2.832-3.384,1.56,0,2.448.96,2.448,3.048V0h3.744V-6.48c0-2.3,1.176-3.384,2.856-3.384,1.512,0,2.448.96,2.448,3.048V0h3.744V-7.392C118.476-11.328,116.268-13.1,113.2-13.1Zm13.848,0a9.926,9.926,0,0,0-5.568,1.56l1.344,2.616a6.208,6.208,0,0,1,3.72-1.2c2.016,0,2.976.936,2.976,2.544H126.54C122.6-7.584,121-6,121-3.72c0,2.232,1.8,3.912,4.824,3.912,1.9,0,3.24-.624,3.936-1.8V0h3.5V-7.368C133.26-11.28,130.98-13.1,127.044-13.1Zm-.288,10.776c-1.32,0-2.112-.624-2.112-1.56,0-.864.552-1.512,2.3-1.512h2.568v1.32A2.759,2.759,0,0,1,126.756-2.328Zm13.464-8.88v-1.7h-3.576V0h3.744V-6.1c0-2.472,1.368-3.6,3.432-3.6.288,0,.528.024.84.048V-13.1A5.211,5.211,0,0,0,140.22-11.208Zm11.808-1.9a9.926,9.926,0,0,0-5.568,1.56L147.8-8.928a6.208,6.208,0,0,1,3.72-1.2c2.016,0,2.976.936,2.976,2.544h-2.976c-3.936,0-5.544,1.584-5.544,3.864,0,2.232,1.8,3.912,4.824,3.912,1.9,0,3.24-.624,3.936-1.8V0h3.5V-7.368C158.244-11.28,155.964-13.1,152.028-13.1ZM151.74-2.328c-1.32,0-2.112-.624-2.112-1.56,0-.864.552-1.512,2.3-1.512H154.5v1.32A2.759,2.759,0,0,1,151.74-2.328Zm26.088-15.48v6.264a4.961,4.961,0,0,0-3.864-1.56,6.277,6.277,0,0,0-6.456,6.648A6.277,6.277,0,0,0,173.964.192,4.967,4.967,0,0,0,178-1.488V0h3.576V-17.808ZM174.612-2.88A3.276,3.276,0,0,1,171.3-6.456a3.276,3.276,0,0,1,3.312-3.576A3.271,3.271,0,0,1,177.9-6.456,3.271,3.271,0,0,1,174.612-2.88Zm23.064-3.528a6.392,6.392,0,0,0-6.72-6.7,6.573,6.573,0,0,0-6.888,6.648c0,3.84,2.9,6.648,7.368,6.648A6.763,6.763,0,0,0,196.764-1.9l-1.992-2.16a4.377,4.377,0,0,1-3.24,1.248,3.443,3.443,0,0,1-3.7-2.592H197.6C197.628-5.712,197.676-6.12,197.676-6.408Zm-6.7-3.864a3.068,3.068,0,0,1,3.168,2.688h-6.36A3.057,3.057,0,0,1,190.98-10.272ZM213.2.192c2.712,0,4.848-1.2,5.784-3.264l-2.9-1.584a3.177,3.177,0,0,1-2.9,1.776A3.3,3.3,0,0,1,209.8-6.456a3.3,3.3,0,0,1,3.384-3.576,3.22,3.22,0,0,1,2.9,1.776l2.9-1.56c-.936-2.112-3.072-3.288-5.784-3.288-4.2,0-7.2,2.76-7.2,6.648S209,.192,213.2.192Zm13.92,0c4.1,0,7.08-2.76,7.08-6.648s-2.976-6.648-7.08-6.648-7.1,2.76-7.1,6.648S223.02.192,227.124.192Zm0-3.072a3.276,3.276,0,0,1-3.312-3.576,3.276,3.276,0,0,1,3.312-3.576,3.259,3.259,0,0,1,3.288,3.576A3.259,3.259,0,0,1,227.124-2.88ZM253.236-13.1a5.806,5.806,0,0,0-4.656,2.112,4.82,4.82,0,0,0-4.248-2.112,5.229,5.229,0,0,0-4.056,1.68v-1.488H236.7V0h3.744V-6.48c0-2.3,1.176-3.384,2.832-3.384,1.56,0,2.448.96,2.448,3.048V0h3.744V-6.48c0-2.3,1.176-3.384,2.856-3.384,1.512,0,2.448.96,2.448,3.048V0h3.744V-7.392C258.516-11.328,256.308-13.1,253.236-13.1Zm21.432,6.7a6.392,6.392,0,0,0-6.72-6.7,6.573,6.573,0,0,0-6.888,6.648c0,3.84,2.9,6.648,7.368,6.648A6.763,6.763,0,0,0,273.756-1.9l-1.992-2.16a4.377,4.377,0,0,1-3.24,1.248,3.443,3.443,0,0,1-3.7-2.592H274.6C274.62-5.712,274.668-6.12,274.668-6.408Zm-6.7-3.864a3.068,3.068,0,0,1,3.168,2.688h-6.36A3.057,3.057,0,0,1,267.972-10.272Zm12.768-.936v-1.7h-3.576V0h3.744V-6.1c0-2.472,1.368-3.6,3.432-3.6.288,0,.528.024.84.048V-13.1A5.211,5.211,0,0,0,280.74-11.208ZM293.532.192c2.712,0,4.848-1.2,5.784-3.264l-2.9-1.584a3.177,3.177,0,0,1-2.9,1.776,3.3,3.3,0,0,1-3.384-3.576,3.3,3.3,0,0,1,3.384-3.576,3.22,3.22,0,0,1,2.9,1.776l2.9-1.56c-.936-2.112-3.072-3.288-5.784-3.288-4.2,0-7.2,2.76-7.2,6.648S289.332.192,293.532.192Zm9.816-14.9a2.153,2.153,0,0,0,2.328-2.16,2.1,2.1,0,0,0-2.328-2.016A2.14,2.14,0,0,0,301.02-16.8,2.14,2.14,0,0,0,303.348-14.712ZM301.476,0h3.744V-12.912h-3.744Zm13.368.192c4.1,0,7.08-2.76,7.08-6.648s-2.976-6.648-7.08-6.648-7.1,2.76-7.1,6.648S310.74.192,314.844.192Zm0-3.072a3.276,3.276,0,0,1-3.312-3.576,3.276,3.276,0,0,1,3.312-3.576,3.259,3.259,0,0,1,3.288,3.576A3.259,3.259,0,0,1,314.844-2.88Z" transform="translate(968 2354)" fill="#148e9f"/>
    <g id="Rectángulo_2195" data-name="Rectángulo 2195" transform="translate(557 2482)" fill="#fff" stroke="#8de2ed" stroke-width="2">
      <rect width="806" height="109" rx="54.5" stroke="none"/>
      <rect x="1" y="1" width="804" height="107" rx="53.5" fill="none"/>
    </g>
    <path id="Trazado_19975" data-name="Trazado 19975" d="M-324.78-10.536a5.67,5.67,0,0,0-4.152,1.488c.12-3.216,1.92-4.872,4.728-4.872a5.533,5.533,0,0,1,3.144.84l1.44-2.856a9.071,9.071,0,0,0-4.68-1.152c-5.064,0-8.568,3.24-8.568,9.048,0,5.424,2.88,8.328,7.512,8.328C-321.8.288-319-1.872-319-5.3-319-8.472-321.54-10.536-324.78-10.536Zm-.792,7.92c-1.872,0-2.952-1.056-2.952-2.5a2.628,2.628,0,0,1,2.9-2.52c1.728,0,2.856.984,2.856,2.52A2.512,2.512,0,0,1-325.572-2.616Zm10.44,2.808A2.291,2.291,0,0,0-312.8-2.16a2.237,2.237,0,0,0-2.328-2.3,2.237,2.237,0,0,0-2.328,2.3A2.291,2.291,0,0,0-315.132.192Zm19.968.1a8.632,8.632,0,0,0,6.936-3l-2.5-2.3a5.354,5.354,0,0,1-4.224,1.992A5.154,5.154,0,0,1-300.324-8.4a5.154,5.154,0,0,1,5.376-5.376,5.405,5.405,0,0,1,4.224,1.968l2.5-2.3a8.673,8.673,0,0,0-6.912-2.976c-5.232,0-9.12,3.624-9.12,8.688S-300.372.288-295.164.288Zm14.976-.1c4.1,0,7.08-2.76,7.08-6.648s-2.976-6.648-7.08-6.648-7.1,2.76-7.1,6.648S-284.292.192-280.188.192Zm0-3.072A3.276,3.276,0,0,1-283.5-6.456a3.276,3.276,0,0,1,3.312-3.576A3.259,3.259,0,0,1-276.9-6.456,3.259,3.259,0,0,1-280.188-2.88ZM-254.076-13.1a5.806,5.806,0,0,0-4.656,2.112A4.82,4.82,0,0,0-262.98-13.1a5.229,5.229,0,0,0-4.056,1.68v-1.488h-3.576V0h3.744V-6.48c0-2.3,1.176-3.384,2.832-3.384,1.56,0,2.448.96,2.448,3.048V0h3.744V-6.48c0-2.3,1.176-3.384,2.856-3.384,1.512,0,2.448.96,2.448,3.048V0h3.744V-7.392C-248.8-11.328-251-13.1-254.076-13.1Zm16.272,0a5.017,5.017,0,0,0-4.056,1.68v-1.488h-3.576V4.656h3.744V-1.368A5.013,5.013,0,0,0-237.8.192a6.271,6.271,0,0,0,6.432-6.648A6.271,6.271,0,0,0-237.8-13.1Zm-.648,10.224a3.259,3.259,0,0,1-3.288-3.576,3.259,3.259,0,0,1,3.288-3.576,3.259,3.259,0,0,1,3.288,3.576A3.259,3.259,0,0,1-238.452-2.88ZM-228.876,0h3.744V-17.808h-3.744ZM-209-6.408a6.392,6.392,0,0,0-6.72-6.7,6.573,6.573,0,0,0-6.888,6.648c0,3.84,2.9,6.648,7.368,6.648A6.763,6.763,0,0,0-209.916-1.9l-1.992-2.16a4.377,4.377,0,0,1-3.24,1.248,3.443,3.443,0,0,1-3.7-2.592h9.768C-209.052-5.712-209-6.12-209-6.408Zm-6.7-3.864a3.068,3.068,0,0,1,3.168,2.688h-6.36A3.057,3.057,0,0,1-215.7-10.272Zm16.512,7.008a2.523,2.523,0,0,1-1.512.48,1.506,1.506,0,0,1-1.608-1.7V-9.744h3.216v-2.88h-3.216v-3.144h-3.744v3.144h-1.992v2.88h1.992v5.3c0,3.072,1.776,4.632,4.824,4.632a5.351,5.351,0,0,0,3.048-.816Zm8.328-9.84a9.926,9.926,0,0,0-5.568,1.56l1.344,2.616a6.208,6.208,0,0,1,3.72-1.2c2.016,0,2.976.936,2.976,2.544h-2.976c-3.936,0-5.544,1.584-5.544,3.864,0,2.232,1.8,3.912,4.824,3.912,1.9,0,3.24-.624,3.936-1.8V0h3.5V-7.368C-184.644-11.28-186.924-13.1-190.86-13.1Zm-.288,10.776c-1.32,0-2.112-.624-2.112-1.56,0-.864.552-1.512,2.3-1.512h2.568v1.32A2.759,2.759,0,0,1-191.148-2.328Zm13.464-8.88v-1.7h-3.576V0h3.744V-6.1c0-2.472,1.368-3.6,3.432-3.6.288,0,.528.024.84.048V-13.1A5.211,5.211,0,0,0-177.684-11.208Zm20.88,7.944a2.523,2.523,0,0,1-1.512.48,1.506,1.506,0,0,1-1.608-1.7V-9.744h3.216v-2.88h-3.216v-3.144h-3.744v3.144h-1.992v2.88h1.992v5.3c0,3.072,1.776,4.632,4.824,4.632A5.351,5.351,0,0,0-155.8-.624Zm6.7-7.944v-1.7h-3.576V0h3.744V-6.1c0-2.472,1.368-3.6,3.432-3.6.288,0,.528.024.84.048V-13.1A5.211,5.211,0,0,0-150.108-11.208Zm17.28-6.816h-4.032l-3.24,3.456h2.928ZM-138.3-13.1a9.926,9.926,0,0,0-5.568,1.56l1.344,2.616a6.208,6.208,0,0,1,3.72-1.2c2.016,0,2.976.936,2.976,2.544H-138.8c-3.936,0-5.544,1.584-5.544,3.864,0,2.232,1.8,3.912,4.824,3.912,1.9,0,3.24-.624,3.936-1.8V0h3.5V-7.368C-132.084-11.28-134.364-13.1-138.3-13.1Zm-.288,10.776c-1.32,0-2.112-.624-2.112-1.56,0-.864.552-1.512,2.3-1.512h2.568v1.32A2.759,2.759,0,0,1-138.588-2.328ZM-112.164-13.1a5.806,5.806,0,0,0-4.656,2.112,4.82,4.82,0,0,0-4.248-2.112,5.229,5.229,0,0,0-4.056,1.68v-1.488H-128.7V0h3.744V-6.48c0-2.3,1.176-3.384,2.832-3.384,1.56,0,2.448.96,2.448,3.048V0h3.744V-6.48c0-2.3,1.176-3.384,2.856-3.384,1.512,0,2.448.96,2.448,3.048V0h3.744V-7.392C-106.884-11.328-109.092-13.1-112.164-13.1Zm10.512-1.608a2.153,2.153,0,0,0,2.328-2.16,2.1,2.1,0,0,0-2.328-2.016A2.14,2.14,0,0,0-103.98-16.8,2.14,2.14,0,0,0-101.652-14.712ZM-103.524,0h3.744V-12.912h-3.744ZM-88.98-3.264a2.523,2.523,0,0,1-1.512.48,1.506,1.506,0,0,1-1.608-1.7V-9.744h3.216v-2.88H-92.1v-3.144h-3.744v3.144h-1.992v2.88h1.992v5.3c0,3.072,1.776,4.632,4.824,4.632a5.351,5.351,0,0,0,3.048-.816Zm15.36-3.144a6.392,6.392,0,0,0-6.72-6.7,6.574,6.574,0,0,0-6.888,6.648c0,3.84,2.9,6.648,7.368,6.648A6.763,6.763,0,0,0-74.532-1.9l-1.992-2.16a4.377,4.377,0,0,1-3.24,1.248A3.443,3.443,0,0,1-83.46-5.4h9.768C-73.668-5.712-73.62-6.12-73.62-6.408Zm-6.7-3.864a3.068,3.068,0,0,1,3.168,2.688h-6.36A3.057,3.057,0,0,1-80.316-10.272ZM-66.78.192c3.864,0,6.1-1.7,6.1-4.1,0-5.088-7.8-2.952-7.8-5.16,0-.672.72-1.2,2.4-1.2a7.415,7.415,0,0,1,3.72.96l1.248-2.664A10.617,10.617,0,0,0-66.084-13.1c-3.768,0-5.976,1.728-5.976,4.176,0,5.16,7.8,3,7.8,5.112,0,.72-.648,1.176-2.376,1.176a8.834,8.834,0,0,1-4.488-1.248L-72.372-1.2A11.084,11.084,0,0,0-66.78.192ZM-51.588,0h3.744V-17.808h-3.744Zm19.872-6.408a6.392,6.392,0,0,0-6.72-6.7,6.573,6.573,0,0,0-6.888,6.648c0,3.84,2.9,6.648,7.368,6.648A6.763,6.763,0,0,0-32.628-1.9l-1.992-2.16a4.377,4.377,0,0,1-3.24,1.248,3.443,3.443,0,0,1-3.7-2.592h9.768C-31.764-5.712-31.716-6.12-31.716-6.408Zm-6.7-3.864a3.068,3.068,0,0,1,3.168,2.688H-41.6A3.057,3.057,0,0,1-38.412-10.272Zm18.96-2.64v1.656A5.183,5.183,0,0,0-23.724-13.1a6.147,6.147,0,0,0-6.456,6.24,6.147,6.147,0,0,0,6.456,6.24,5.316,5.316,0,0,0,4.08-1.608v.552c0,2.328-1.152,3.528-3.792,3.528A7.717,7.717,0,0,1-28,.384l-1.488,2.688a10.637,10.637,0,0,0,6.336,1.776c4.656,0,7.248-2.208,7.248-7.008V-12.912ZM-22.98-3.7a3.155,3.155,0,0,1-3.408-3.168,3.155,3.155,0,0,1,3.408-3.168A3.135,3.135,0,0,1-19.6-6.864,3.135,3.135,0,0,1-22.98-3.7ZM-7.212-13.1a9.926,9.926,0,0,0-5.568,1.56l1.344,2.616a6.208,6.208,0,0,1,3.72-1.2c2.016,0,2.976.936,2.976,2.544H-7.716C-11.652-7.584-13.26-6-13.26-3.72c0,2.232,1.8,3.912,4.824,3.912,1.9,0,3.24-.624,3.936-1.8V0H-1V-7.368C-1-11.28-3.276-13.1-7.212-13.1ZM-7.5-2.328c-1.32,0-2.112-.624-2.112-1.56,0-.864.552-1.512,2.3-1.512H-4.74v1.32A2.759,2.759,0,0,1-7.5-2.328ZM2.388,0H6.132V-17.808H2.388ZM22.26-6.408a6.392,6.392,0,0,0-6.72-6.7A6.574,6.574,0,0,0,8.652-6.456c0,3.84,2.9,6.648,7.368,6.648A6.763,6.763,0,0,0,21.348-1.9l-1.992-2.16a4.377,4.377,0,0,1-3.24,1.248A3.443,3.443,0,0,1,12.42-5.4h9.768C22.212-5.712,22.26-6.12,22.26-6.408Zm-6.7-3.864a3.068,3.068,0,0,1,3.168,2.688h-6.36A3.057,3.057,0,0,1,15.564-10.272ZM29.1.192c3.864,0,6.1-1.7,6.1-4.1,0-5.088-7.8-2.952-7.8-5.16,0-.672.72-1.2,2.4-1.2a7.415,7.415,0,0,1,3.72.96l1.248-2.664A10.617,10.617,0,0,0,29.8-13.1c-3.768,0-5.976,1.728-5.976,4.176,0,5.16,7.8,3,7.8,5.112,0,.72-.648,1.176-2.376,1.176a8.834,8.834,0,0,1-4.488-1.248L23.508-1.2A11.084,11.084,0,0,0,29.1.192ZM49.5-13.1a9.926,9.926,0,0,0-5.568,1.56l1.344,2.616a6.208,6.208,0,0,1,3.72-1.2c2.016,0,2.976.936,2.976,2.544H49C45.06-7.584,43.452-6,43.452-3.72c0,2.232,1.8,3.912,4.824,3.912,1.9,0,3.24-.624,3.936-1.8V0h3.5V-7.368C55.716-11.28,53.436-13.1,49.5-13.1ZM49.212-2.328c-1.32,0-2.112-.624-2.112-1.56,0-.864.552-1.512,2.3-1.512h2.568v1.32A2.759,2.759,0,0,1,49.212-2.328ZM66.948-13.1a5.653,5.653,0,0,0-4.272,1.7v-1.512H59.1V0h3.744V-6.384c0-2.376,1.3-3.48,3.1-3.48,1.656,0,2.616.96,2.616,3.048V0H72.3V-7.392C72.3-11.328,70-13.1,66.948-13.1ZM83-3.264a2.523,2.523,0,0,1-1.512.48,1.506,1.506,0,0,1-1.608-1.7V-9.744H83.1v-2.88H79.884v-3.144H76.14v3.144H74.148v2.88H76.14v5.3c0,3.072,1.776,4.632,4.824,4.632a5.351,5.351,0,0,0,3.048-.816Zm15.36-3.144a6.392,6.392,0,0,0-6.72-6.7,6.574,6.574,0,0,0-6.888,6.648c0,3.84,2.9,6.648,7.368,6.648A6.763,6.763,0,0,0,97.452-1.9L95.46-4.056a4.377,4.377,0,0,1-3.24,1.248,3.443,3.443,0,0,1-3.7-2.592h9.768C98.316-5.712,98.364-6.12,98.364-6.408Zm-6.7-3.864a3.068,3.068,0,0,1,3.168,2.688h-6.36A3.057,3.057,0,0,1,91.668-10.272ZM112,.192c3.864,0,6.1-1.7,6.1-4.1,0-5.088-7.8-2.952-7.8-5.16,0-.672.72-1.2,2.4-1.2a7.415,7.415,0,0,1,3.72.96l1.248-2.664a10.617,10.617,0,0,0-4.968-1.128c-3.768,0-5.976,1.728-5.976,4.176,0,5.16,7.8,3,7.8,5.112,0,.72-.648,1.176-2.376,1.176a8.834,8.834,0,0,1-4.488-1.248L106.4-1.2A11.084,11.084,0,0,0,112,.192Zm17.664-13.1v6.384c0,2.376-1.248,3.48-2.976,3.48-1.656,0-2.616-.96-2.616-3.12v-6.744h-3.744v7.3c0,3.984,2.28,5.808,5.52,5.808a5.224,5.224,0,0,0,4.008-1.728V0H133.4V-12.912Zm14.856-.192a5.017,5.017,0,0,0-4.056,1.68v-1.488h-3.576V4.656h3.744V-1.368a5.013,5.013,0,0,0,3.888,1.56,6.271,6.271,0,0,0,6.432-6.648A6.271,6.271,0,0,0,144.516-13.1ZM143.868-2.88a3.259,3.259,0,0,1-3.288-3.576,3.259,3.259,0,0,1,3.288-3.576,3.259,3.259,0,0,1,3.288,3.576A3.259,3.259,0,0,1,143.868-2.88Zm22.224-3.528a6.392,6.392,0,0,0-6.72-6.7,6.573,6.573,0,0,0-6.888,6.648c0,3.84,2.9,6.648,7.368,6.648A6.763,6.763,0,0,0,165.18-1.9l-1.992-2.16a4.377,4.377,0,0,1-3.24,1.248,3.443,3.443,0,0,1-3.7-2.592h9.768C166.044-5.712,166.092-6.12,166.092-6.408Zm-6.7-3.864a3.068,3.068,0,0,1,3.168,2.688H156.2A3.057,3.057,0,0,1,159.4-10.272Zm12.768-.936v-1.7h-3.576V0h3.744V-6.1c0-2.472,1.368-3.6,3.432-3.6.288,0,.528.024.84.048V-13.1A5.211,5.211,0,0,0,172.164-11.208Zm8.544-3.5a2.153,2.153,0,0,0,2.328-2.16,2.1,2.1,0,0,0-2.328-2.016A2.14,2.14,0,0,0,178.38-16.8,2.14,2.14,0,0,0,180.708-14.712ZM178.836,0h3.744V-12.912h-3.744Zm15.072-13.1a5.653,5.653,0,0,0-4.272,1.7v-1.512H186.06V0H189.8V-6.384c0-2.376,1.3-3.48,3.1-3.48,1.656,0,2.616.96,2.616,3.048V0h3.744V-7.392C199.26-11.328,196.956-13.1,193.908-13.1Zm16.056,9.84a2.523,2.523,0,0,1-1.512.48,1.506,1.506,0,0,1-1.608-1.7V-9.744h3.216v-2.88h-3.216v-3.144H203.1v3.144h-1.992v2.88H203.1v5.3c0,3.072,1.776,4.632,4.824,4.632a5.351,5.351,0,0,0,3.048-.816Zm15.36-3.144a6.392,6.392,0,0,0-6.72-6.7,6.573,6.573,0,0,0-6.888,6.648c0,3.84,2.9,6.648,7.368,6.648A6.763,6.763,0,0,0,224.412-1.9l-1.992-2.16a4.377,4.377,0,0,1-3.24,1.248,3.443,3.443,0,0,1-3.7-2.592h9.768C225.276-5.712,225.324-6.12,225.324-6.408Zm-6.7-3.864A3.068,3.068,0,0,1,221.8-7.584h-6.36A3.057,3.057,0,0,1,218.628-10.272Zm17.04-2.832a5.653,5.653,0,0,0-4.272,1.7v-1.512H227.82V0h3.744V-6.384c0-2.376,1.3-3.48,3.1-3.48,1.656,0,2.616.96,2.616,3.048V0h3.744V-7.392C241.02-11.328,238.716-13.1,235.668-13.1Zm18.288-4.7v6.264a4.961,4.961,0,0,0-3.864-1.56,6.277,6.277,0,0,0-6.456,6.648A6.277,6.277,0,0,0,250.092.192a4.967,4.967,0,0,0,4.032-1.68V0H257.7V-17.808ZM250.74-2.88a3.276,3.276,0,0,1-3.312-3.576,3.276,3.276,0,0,1,3.312-3.576,3.271,3.271,0,0,1,3.288,3.576A3.271,3.271,0,0,1,250.74-2.88ZM273.8-6.408a6.392,6.392,0,0,0-6.72-6.7A6.573,6.573,0,0,0,260.2-6.456c0,3.84,2.9,6.648,7.368,6.648A6.763,6.763,0,0,0,272.892-1.9L270.9-4.056a4.377,4.377,0,0,1-3.24,1.248,3.443,3.443,0,0,1-3.7-2.592h9.768C273.756-5.712,273.8-6.12,273.8-6.408Zm-6.7-3.864a3.068,3.068,0,0,1,3.168,2.688h-6.36A3.057,3.057,0,0,1,267.108-10.272Zm17.04-2.832a5.653,5.653,0,0,0-4.272,1.7v-1.512H276.3V0h3.744V-6.384c0-2.376,1.3-3.48,3.1-3.48,1.656,0,2.616.96,2.616,3.048V0H289.5V-7.392C289.5-11.328,287.2-13.1,284.148-13.1Zm15.12,13.3c2.712,0,4.848-1.2,5.784-3.264l-2.9-1.584a3.177,3.177,0,0,1-2.9,1.776,3.3,3.3,0,0,1-3.384-3.576,3.3,3.3,0,0,1,3.384-3.576,3.22,3.22,0,0,1,2.9,1.776l2.9-1.56c-.936-2.112-3.072-3.288-5.784-3.288-4.2,0-7.2,2.76-7.2,6.648S295.068.192,299.268.192Zm9.816-14.9a2.153,2.153,0,0,0,2.328-2.16,2.1,2.1,0,0,0-2.328-2.016,2.14,2.14,0,0,0-2.328,2.088A2.14,2.14,0,0,0,309.084-14.712ZM307.212,0h3.744V-12.912h-3.744Zm12.432-13.1a9.926,9.926,0,0,0-5.568,1.56l1.344,2.616a6.208,6.208,0,0,1,3.72-1.2c2.016,0,2.976.936,2.976,2.544H319.14C315.2-7.584,313.6-6,313.6-3.72c0,2.232,1.8,3.912,4.824,3.912,1.9,0,3.24-.624,3.936-1.8V0h3.5V-7.368C325.86-11.28,323.58-13.1,319.644-13.1Zm-.288,10.776c-1.32,0-2.112-.624-2.112-1.56,0-.864.552-1.512,2.3-1.512h2.568v1.32A2.759,2.759,0,0,1,319.356-2.328Zm11.3,2.52a2.291,2.291,0,0,0,2.328-2.352,2.237,2.237,0,0,0-2.328-2.3,2.237,2.237,0,0,0-2.328,2.3A2.291,2.291,0,0,0,330.66.192Z" transform="translate(968 2545)" fill="#148e9f"/>
    <path id="Unión_1" data-name="Unión 1" d="M-1444,1328h13v-32h14v32h14l-20.5,35Z" transform="translate(2384 356)" fill="#fed147"/>
    <path id="Unión_2" data-name="Unión 2" d="M-1444,1328h13v-32h14v32h14l-20.5,35Z" transform="translate(2384 539)" fill="#fed147"/>
    <path id="Unión_3" data-name="Unión 3" d="M-1444,1328h13v-32h14v32h14l-20.5,35Z" transform="translate(2384 722)" fill="#fed147"/>
    <path id="Unión_4" data-name="Unión 4" d="M-1444,1328h13v-32h14v32h14l-20.5,35Z" transform="translate(2384 913)" fill="#fed147"/>
    <path id="Unión_5" data-name="Unión 5" d="M-1444,1328h13v-32h14v32h14l-20.5,35Z" transform="translate(2384 1104)" fill="#fed147"/>
  </g>
</svg>
