<svg xmlns="http://www.w3.org/2000/svg" width="118" height="118" viewBox="0 0 118 118">
  <g id="Grupo_10436" data-name="Grupo 10436" transform="translate(-212 -2406)">
    <g id="Elipse_555" data-name="Elipse 555" transform="translate(212 2406)" fill="#f0f0f0" stroke="#068e9f" stroke-width="2">
      <circle cx="59" cy="59" r="59" stroke="none"/>
      <circle cx="59" cy="59" r="58" fill="none"/>
    </g>
    <g id="Grupo_10257" data-name="Grupo 10257" transform="translate(-5.673 2030.174)">
      <g id="Grupo_10250" data-name="Grupo 10250" transform="translate(276.742 437.647)">
        <path id="Trazado_19633" data-name="Trazado 19633" d="M259.786,414.554v2.188a1.493,1.493,0,0,0,.275.161h1a1.5,1.5,0,0,0,.275-.161v-2.188a1.324,1.324,0,0,0-1.555,0Z" transform="translate(-259.786 -414.302)" fill="#505c6a"/>
      </g>
      <g id="Grupo_10251" data-name="Grupo 10251" transform="translate(246.673 396.248)">
        <path id="Trazado_19634" data-name="Trazado 19634" d="M306.163,429.387c-1.617-.369-2.889-3.167-2.972-4.109s1.144-2.128,2.731-2.612,2.339-2.667,1.669-4.843-2.513-3.566-4.107-3.082-4.082-1.284-4.63-2.068-.071-2.412,1.057-3.628.683-3.481-.979-5.038-3.962-1.823-5.086-.608-2.724,1.811-3.55,1.321-2.775-2.862-2.4-4.469c.371-1.623-1.151-3.359-3.371-3.864s-4.341.4-4.712,2.011-3.164,2.894-4.111,2.983-2.123-1.151-2.614-2.738c-.475-1.585-2.664-2.33-4.843-1.669s-3.561,2.52-3.073,4.1-1.284,4.084-2.071,4.63-2.417.08-3.632-1.055-3.474-.681-5.031.988-1.823,3.955-.615,5.088.913,4.2.511,5.061-2.045,1.25-3.657.887c-1.614-.378-3.348,1.144-3.866,3.359s.4,4.343,2.016,4.714,2.9,3.167,2.981,4.118-1.147,2.116-2.733,2.607-2.337,2.671-1.662,4.843,2.511,3.563,4.091,3.073,4.089,1.284,4.639,2.071.078,2.417-1.059,3.634-.686,3.479.984,5.024,3.958,1.828,5.088.617a4.429,4.429,0,0,1,3.32-.851v-8.755l.55-.449.314-.257c-.046-.041-.1-.076-.144-.119a18.072,18.072,0,1,1,25.537-.938c-.342.367-.7.7-1.064,1.034l.342.28.55.449v8.906a5.867,5.867,0,0,1,1.335-1.614c.784-.541,2.412-.073,3.632,1.059s3.478.686,5.029-.977,1.832-3.965.612-5.1-.91-4.208-.509-5.068,2.05-1.245,3.653-.878c1.621.376,3.355-1.142,3.868-3.364S307.794,429.761,306.163,429.387Z" transform="translate(-246.673 -396.248)" fill="#068e9f"/>
      </g>
      <g id="Grupo_10252" data-name="Grupo 10252" transform="translate(265.975 436.948)">
        <path id="Trazado_19635" data-name="Trazado 19635" d="M258.439,433.087v17.491h7.427V437.285H267.4v13.293h7.427V433.087l3.348,1.2V418.895l-6-4.9-2.065,4.3-1.207-3.681V428.59h-4.55V414.014l-1.207,4.281-2.065-4.3-6,4.9v15.392Z" transform="translate(-255.091 -413.997)" fill="#505c6a"/>
      </g>
      <g id="Grupo_10253" data-name="Grupo 10253" transform="translate(276.443 441.446)">
        <path id="Trazado_19636" data-name="Trazado 19636" d="M259.656,415.959v8.9h2.151v-8.9h-2.151Z" transform="translate(-259.656 -415.959)" fill="#505c6a"/>
      </g>
      <g id="Grupo_10254" data-name="Grupo 10254" transform="translate(271.472 423.755)">
        <path id="Trazado_19637" data-name="Trazado 19637" d="M269.581,414.291a6.047,6.047,0,1,0-9.3,5.093,5.986,5.986,0,0,0,2.472.9,5.509,5.509,0,0,0,1.555,0,6.046,6.046,0,0,0,5.269-5.992Z" transform="translate(-257.488 -408.244)" fill="#505c6a"/>
      </g>
      <g id="Grupo_10255" data-name="Grupo 10255" transform="translate(266.245 457.442)">
        <path id="Trazado_19638" data-name="Trazado 19638" d="M257.806,423.8a1.354,1.354,0,0,0-1.236-.865l-.94.358a1.346,1.346,0,0,0,1.158,2.314,1.471,1.471,0,0,0,.238-.064A1.357,1.357,0,0,0,257.806,423.8Z" transform="translate(-255.208 -422.935)" fill="#505c6a"/>
      </g>
      <g id="Grupo_10256" data-name="Grupo 10256" transform="translate(286.108 457.442)">
        <path id="Trazado_19639" data-name="Trazado 19639" d="M265.224,422.935a1.349,1.349,0,0,0-.514,2.6,1.594,1.594,0,0,0,.266.078,1.359,1.359,0,0,0,1.493-.819,1.316,1.316,0,0,0,.083-.569,1.346,1.346,0,0,0-.394-.908Z" transform="translate(-263.871 -422.935)" fill="#505c6a"/>
      </g>
    </g>
  </g>
</svg>
