<svg xmlns="http://www.w3.org/2000/svg" width="118" height="118" viewBox="0 0 118 118">
  <g id="Grupo_10435" data-name="Grupo 10435" transform="translate(-212 -2179)">
    <g id="Elipse_554" data-name="Elipse 554" transform="translate(212 2179)" fill="#f0f0f0" stroke="#068e9f" stroke-width="2">
      <circle cx="59" cy="59" r="59" stroke="none"/>
      <circle cx="59" cy="59" r="58" fill="none"/>
    </g>
    <g id="Grupo_10249" data-name="Grupo 10249" transform="translate(58.357 1755.743)">
      <g id="Grupo_10235" data-name="Grupo 10235" transform="translate(183.874 501.748)">
        <path id="Trazado_19620" data-name="Trazado 19620" d="M181.151,490.66a1.786,1.786,0,1,0,3.073,1.822l6.253-10.5a1.612,1.612,0,0,0,.169-.393h-4.09Z" transform="translate(-180.901 -481.594)" fill="#505c6a"/>
      </g>
      <g id="Grupo_10236" data-name="Grupo 10236" transform="translate(176.28 460.384)">
        <path id="Trazado_19621" data-name="Trazado 19621" d="M176.28,459.1v2.187a2.687,2.687,0,0,0,2.68,2.679h1.265v-7.546H178.96A2.688,2.688,0,0,0,176.28,459.1Z" transform="translate(-176.28 -456.422)" fill="#505c6a"/>
      </g>
      <g id="Grupo_10237" data-name="Grupo 10237" transform="translate(182.533 468.735)">
        <path id="Trazado_19622" data-name="Trazado 19622" d="M220.018,484.656a4.276,4.276,0,0,1-4.271-4.271V471L211.1,473.2l-6.994,9.654-5.618-9.988-11.9,12.523-1.3-1.231,13.564-14.277,5.436,9.666,5.625-7.764,5.824-2.767V461.5H182.275a2.2,2.2,0,0,0-2.19,2.19V487.9a2.2,2.2,0,0,0,2.19,2.19h38.656v-5.536A4.185,4.185,0,0,1,220.018,484.656Z" transform="translate(-180.085 -461.504)" fill="#068e9f"/>
      </g>
      <g id="Grupo_10238" data-name="Grupo 10238" transform="translate(204.866 501.748)">
        <path id="Trazado_19623" data-name="Trazado 19623" d="M193.676,491.572a1.786,1.786,0,1,0,3.572,0v-9.978h-3.572Z" transform="translate(-193.676 -481.594)" fill="#505c6a"/>
      </g>
      <g id="Grupo_10239" data-name="Grupo 10239" transform="translate(219.685 501.748)">
        <path id="Trazado_19624" data-name="Trazado 19624" d="M202.694,481.594a1.753,1.753,0,0,0,.169.393l3.525,5.914v-6.307Z" transform="translate(-202.694 -481.594)" fill="#505c6a"/>
      </g>
      <g id="Grupo_10240" data-name="Grupo 10240" transform="translate(188.143 498.103)">
        <rect id="Rectángulo_2204" data-name="Rectángulo 2204" width="35.236" height="2.751" fill="#505c6a"/>
      </g>
      <g id="Grupo_10241" data-name="Grupo 10241" transform="translate(182.421 460.384)">
        <path id="Trazado_19625" data-name="Trazado 19625" d="M220.062,458.364h2.458a2.351,2.351,0,0,1,.306.021,7.777,7.777,0,0,1-1.326-1.964H180.017v7.546h35.774v-1.333A4.276,4.276,0,0,1,220.062,458.364Z" transform="translate(-180.017 -456.422)" fill="#505c6a"/>
      </g>
      <g id="Grupo_10242" data-name="Grupo 10242" transform="translate(236.647 462.129)">
        <path id="Trazado_19626" data-name="Trazado 19626" d="M213.277,457.684a2.044,2.044,0,0,0-.062-.2c-.064.074-.131.146-.2.219A2.348,2.348,0,0,1,213.277,457.684Z" transform="translate(-213.016 -457.484)" fill="#505c6a"/>
      </g>
      <g id="Grupo_10243" data-name="Grupo 10243" transform="translate(225.343 450.263)">
        <path id="Trazado_19627" data-name="Trazado 19627" d="M211.326,462.645a2.026,2.026,0,0,1,.812,0,5.609,5.609,0,0,0,5.189-5.574v-1.214a5.6,5.6,0,0,0-11.191,0v1.214A5.609,5.609,0,0,0,211.326,462.645Z" transform="translate(-206.137 -450.263)" fill="#505c6a"/>
      </g>
      <g id="Grupo_10244" data-name="Grupo 10244" transform="translate(225.343 450.263)">
        <path id="Trazado_19628" data-name="Trazado 19628" d="M211.326,462.645a2.026,2.026,0,0,1,.812,0,5.609,5.609,0,0,0,5.189-5.574v-1.214a5.6,5.6,0,0,0-11.191,0v1.214A5.609,5.609,0,0,0,211.326,462.645Z" transform="translate(-206.137 -450.263)" fill="#505c6a"/>
      </g>
      <g id="Grupo_10245" data-name="Grupo 10245" transform="translate(229.642 464.794)">
        <path id="Trazado_19629" data-name="Trazado 19629" d="M208.753,460.4v1.651l1.3,2.324,1.3-2.324V460.4a1.3,1.3,0,0,0-2.593,0Z" transform="translate(-208.753 -459.106)" fill="#505c6a"/>
      </g>
      <g id="Grupo_10246" data-name="Grupo 10246" transform="translate(229.642 464.794)">
        <path id="Trazado_19630" data-name="Trazado 19630" d="M208.753,460.4v1.651l1.3,2.324,1.3-2.324V460.4a1.3,1.3,0,0,0-2.593,0Z" transform="translate(-208.753 -459.106)" fill="#505c6a"/>
      </g>
      <g id="Grupo_10247" data-name="Grupo 10247" transform="translate(220.385 464.518)">
        <path id="Trazado_19631" data-name="Trazado 19631" d="M222.147,458.938h-2.46a.412.412,0,0,0-.353.2l-2.222,3.679-3.078,5.521a.414.414,0,0,1-.721,0l-3.079-5.521-2.222-3.679a.412.412,0,0,0-.353-.2H205.2a2.086,2.086,0,0,0-2.08,2.079v21.019a2.087,2.087,0,0,0,2.08,2.08,2,2,0,0,0,1.993-1.995v-6.2a.412.412,0,0,1,.412-.412h.286a.413.413,0,0,1,.412.412v32.2a.412.412,0,0,0,.412.412h4.4V487.911h1.111v20.621h4.4a.412.412,0,0,0,.412-.412v-32.2a.413.413,0,0,1,.414-.412h.284a.412.412,0,0,1,.412.412v6.537a1.66,1.66,0,0,0,1.66,1.66h.335a2.087,2.087,0,0,0,2.079-2.08V461.017A2.085,2.085,0,0,0,222.147,458.938Z" transform="translate(-203.12 -458.938)" fill="#505c6a"/>
      </g>
      <g id="Grupo_10248" data-name="Grupo 10248" transform="translate(220.385 464.518)">
        <path id="Trazado_19632" data-name="Trazado 19632" d="M222.147,458.938h-2.46a.412.412,0,0,0-.353.2l-2.222,3.679-3.078,5.521a.414.414,0,0,1-.721,0l-3.079-5.521-2.222-3.679a.412.412,0,0,0-.353-.2H205.2a2.086,2.086,0,0,0-2.08,2.079v21.019a2.087,2.087,0,0,0,2.08,2.08,2,2,0,0,0,1.993-1.995v-6.2a.412.412,0,0,1,.412-.412h.286a.413.413,0,0,1,.412.412v32.2a.412.412,0,0,0,.412.412h4.4V487.911h1.111v20.621h4.4a.412.412,0,0,0,.412-.412v-32.2a.413.413,0,0,1,.414-.412h.284a.412.412,0,0,1,.412.412v6.537a1.66,1.66,0,0,0,1.66,1.66h.335a2.087,2.087,0,0,0,2.079-2.08V461.017A2.085,2.085,0,0,0,222.147,458.938Z" transform="translate(-203.12 -458.938)" fill="#505c6a"/>
      </g>
    </g>
  </g>
</svg>
