<svg xmlns="http://www.w3.org/2000/svg" width="118" height="118" viewBox="0 0 118 118">
  <g id="Grupo_10437" data-name="Grupo 10437" transform="translate(-212 -2654)">
    <g id="Elipse_556" data-name="Elipse 556" transform="translate(212 2654)" fill="#f0f0f0" stroke="#068e9f" stroke-width="2">
      <circle cx="59" cy="59" r="59" stroke="none"/>
      <circle cx="59" cy="59" r="58" fill="none"/>
    </g>
    <g id="Grupo_10284" data-name="Grupo 10284" transform="translate(53.085 2537.165)">
      <g id="Grupo_10281" data-name="Grupo 10281" transform="translate(186.177 155.995)">
        <g id="Grupo_10258" data-name="Grupo 10258" transform="translate(12.029 41.907)">
          <path id="Trazado_19640" data-name="Trazado 19640" d="M183.8,178.017c.36,4.579,10.04,8.251,21.96,8.251s21.6-3.673,21.962-8.251a120.559,120.559,0,0,1-43.923,0Z" transform="translate(-183.798 -178.017)" fill="#505c6a"/>
        </g>
        <g id="Grupo_10259" data-name="Grupo 10259" transform="translate(0 22.663)">
          <path id="Trazado_19641" data-name="Trazado 19641" d="M243.05,173.925c-3.574-2.521-10.847-4.514-19.945-5.446-.238-.023-.48-.046-.717-.067-3.429-.327-7.1-.508-10.921-.508-3.305,0-6.5.135-9.517.382q-1.362.111-2.674.253c-9.412,1.018-16.8,3.176-20.027,5.873a4.123,4.123,0,0,0-1.772,3.043c0,2.921,4.674,5.536,12.029,7.287a107.622,107.622,0,0,0,43.923,0c7.355-1.751,12.029-4.365,12.029-7.287C245.457,176.207,244.6,175.017,243.05,173.925Z" transform="translate(-177.477 -167.904)" fill="#068e9f"/>
        </g>
        <g id="Grupo_10260" data-name="Grupo 10260" transform="translate(1.772 17.273)">
          <path id="Trazado_19642" data-name="Trazado 19642" d="M194.121,165.095a7.605,7.605,0,0,1-9.309-.023,11.056,11.056,0,0,0-6.4,9.492c3.224-2.7,10.615-4.856,20.027-5.873A11.142,11.142,0,0,0,194.121,165.095Z" transform="translate(-178.408 -165.072)" fill="#505c6a"/>
        </g>
        <g id="Grupo_10261" data-name="Grupo 10261" transform="translate(8.333 5.047)">
          <path id="Trazado_19643" data-name="Trazado 19643" d="M181.856,158.677l.038-.03Z" transform="translate(-181.856 -158.647)" fill="#505c6a"/>
        </g>
        <g id="Grupo_10262" data-name="Grupo 10262" transform="translate(8.995 4.628)">
          <path id="Trazado_19644" data-name="Trazado 19644" d="M182.2,158.438l.021-.011Z" transform="translate(-182.204 -158.427)" fill="#505c6a"/>
        </g>
        <g id="Grupo_10263" data-name="Grupo 10263" transform="translate(7.736 5.536)">
          <path id="Trazado_19645" data-name="Trazado 19645" d="M181.542,158.931l.03-.027Z" transform="translate(-181.542 -158.904)" fill="#505c6a"/>
        </g>
        <g id="Grupo_10264" data-name="Grupo 10264" transform="translate(5.203 2.39)">
          <path id="Trazado_19646" data-name="Trazado 19646" d="M192.493,170.954a7.635,7.635,0,0,0-8.468-12.67L184,158.3c-.215.126-.422.261-.624.407l-.038.029c-.2.145-.386.3-.567.461l-.03.027a7.633,7.633,0,0,0,9.749,11.734Z" transform="translate(-180.211 -157.251)" fill="#068e9f"/>
        </g>
        <g id="Grupo_10265" data-name="Grupo 10265" transform="translate(33.702 1.205)">
          <path id="Trazado_19647" data-name="Trazado 19647" d="M195.187,156.628c.03,0,.061,0,.091,0C195.248,156.632,195.217,156.628,195.187,156.628Z" transform="translate(-195.187 -156.628)" fill="#505c6a"/>
        </g>
        <g id="Grupo_10266" data-name="Grupo 10266" transform="translate(32.72 1.206)">
          <path id="Trazado_19648" data-name="Trazado 19648" d="M194.671,156.692a7.779,7.779,0,0,1,.925-.063A7.779,7.779,0,0,0,194.671,156.692Z" transform="translate(-194.671 -156.629)" fill="#505c6a"/>
        </g>
        <g id="Grupo_10267" data-name="Grupo 10267" transform="translate(34.543 1.254)">
          <path id="Trazado_19649" data-name="Trazado 19649" d="M195.646,156.654h-.017l.048.008Z" transform="translate(-195.629 -156.654)" fill="#505c6a"/>
        </g>
        <g id="Grupo_10268" data-name="Grupo 10268" transform="translate(31.73 1.296)">
          <path id="Trazado_19650" data-name="Trazado 19650" d="M194.151,156.845a7.385,7.385,0,0,1,.826-.169A7.383,7.383,0,0,0,194.151,156.845Z" transform="translate(-194.151 -156.676)" fill="#505c6a"/>
        </g>
        <g id="Grupo_10269" data-name="Grupo 10269" transform="translate(23.473 14.878)">
          <path id="Trazado_19651" data-name="Trazado 19651" d="M204.69,163.826l-.019.017a7.605,7.605,0,0,1-9.309-.023l-.009-.008a11.1,11.1,0,0,0-5.54,5.762c3.022-.247,6.213-.383,9.519-.383,3.821,0,7.49.179,10.919.506A11.1,11.1,0,0,0,204.69,163.826Z" transform="translate(-189.812 -163.813)" fill="#505c6a"/>
        </g>
        <g id="Grupo_10270" data-name="Grupo 10270" transform="translate(27.567 1.492)">
          <path id="Trazado_19652" data-name="Trazado 19652" d="M192.981,158.461l.029-.027c.181-.162.371-.316.567-.461l.04-.029a7.167,7.167,0,0,1,.624-.407l.021-.013a7.6,7.6,0,0,1,1.768-.746,7.574,7.574,0,0,0-4.067,2.8A7.679,7.679,0,0,1,192.981,158.461Z" transform="translate(-191.963 -156.779)" fill="#505c6a"/>
        </g>
        <g id="Grupo_10271" data-name="Grupo 10271" transform="translate(52.779 3.734)">
          <path id="Trazado_19653" data-name="Trazado 19653" d="M205.212,158.054c.158-.036.316-.068.476-.1C205.528,157.986,205.37,158.016,205.212,158.054Z" transform="translate(-205.212 -157.957)" fill="#505c6a"/>
        </g>
        <g id="Grupo_10272" data-name="Grupo 10272" transform="translate(51.984 3.954)">
          <path id="Trazado_19654" data-name="Trazado 19654" d="M204.794,158.191c.112-.04.225-.082.341-.118C205.019,158.109,204.906,158.151,204.794,158.191Z" transform="translate(-204.794 -158.073)" fill="#505c6a"/>
        </g>
        <g id="Grupo_10273" data-name="Grupo 10273" transform="translate(55.367 3.656)">
          <path id="Trazado_19655" data-name="Trazado 19655" d="M206.667,157.922c-.032,0-.063,0-.1-.006.091.01.179.029.266.04C206.781,157.948,206.726,157.929,206.667,157.922Z" transform="translate(-206.572 -157.916)" fill="#505c6a"/>
        </g>
        <g id="Grupo_10274" data-name="Grupo 10274" transform="translate(57.752 4.322)">
          <path id="Trazado_19656" data-name="Trazado 19656" d="M207.825,158.266c.061.027.12.057.179.086C207.943,158.321,207.886,158.295,207.825,158.266Z" transform="translate(-207.825 -158.266)" fill="#505c6a"/>
        </g>
        <g id="Grupo_10275" data-name="Grupo 10275" transform="translate(56.507 3.873)">
          <path id="Trazado_19657" data-name="Trazado 19657" d="M207.171,158.03c.088.023.175.042.263.068C207.346,158.072,207.259,158.055,207.171,158.03Z" transform="translate(-207.171 -158.03)" fill="#505c6a"/>
        </g>
        <g id="Grupo_10276" data-name="Grupo 10276" transform="translate(53.656 3.621)">
          <path id="Trazado_19658" data-name="Trazado 19658" d="M205.673,157.947c.238-.029.48-.044.723-.049C206.153,157.9,205.911,157.919,205.673,157.947Z" transform="translate(-205.673 -157.898)" fill="#505c6a"/>
        </g>
        <g id="Grupo_10277" data-name="Grupo 10277" transform="translate(54.579 3.612)">
          <path id="Trazado_19659" data-name="Trazado 19659" d="M206.158,157.893c.124,0,.245.011.367.019C206.4,157.906,206.28,157.893,206.158,157.893Z" transform="translate(-206.158 -157.893)" fill="#505c6a"/>
        </g>
        <g id="Grupo_10278" data-name="Grupo 10278" transform="translate(45.628 17.283)">
          <path id="Trazado_19660" data-name="Trazado 19660" d="M215.049,165.077l-.036.03a7.6,7.6,0,0,1-9.3-.013,11.116,11.116,0,0,0-4.263,3.532c9.1.931,16.371,2.925,19.945,5.444A11.067,11.067,0,0,0,215.049,165.077Z" transform="translate(-201.454 -165.077)" fill="#505c6a"/>
        </g>
        <g id="Grupo_10279" data-name="Grupo 10279" transform="translate(26.05)">
          <path id="Trazado_19661" data-name="Trazado 19661" d="M198.808,171.28a7.6,7.6,0,0,0,4.639-1.579l.019-.017a7.63,7.63,0,0,0-3.76-13.631l-.048-.006c-.247-.029-.5-.042-.75-.046-.03,0-.061,0-.091,0l-.009,0-.048,0a7.4,7.4,0,0,0-.925.063l-.164.025a7.849,7.849,0,0,0-.826.171l-.1.025a7.69,7.69,0,0,0-1.768.748l-.021.013a7.166,7.166,0,0,0-.624.407l-.04.029c-.2.145-.386.3-.567.459l-.029.027a7.793,7.793,0,0,0-1.018,1.121,7.607,7.607,0,0,0,1.446,10.582l.009.01A7.6,7.6,0,0,0,198.808,171.28Z" transform="translate(-191.166 -155.995)" fill="#068e9f"/>
        </g>
        <g id="Grupo_10280" data-name="Grupo 10280" transform="translate(46.907 2.407)">
          <path id="Trazado_19662" data-name="Trazado 19662" d="M214.406,170.963l.036-.03a7.622,7.622,0,0,0-1.292-12.876c-.059-.03-.118-.059-.179-.086a7.38,7.38,0,0,0-.982-.381c-.088-.027-.175-.046-.263-.069a7.4,7.4,0,0,0-.873-.177c-.088-.013-.175-.03-.266-.04-.137-.015-.28-.019-.421-.025-.122-.008-.244-.019-.367-.019l-.032,0c-.057,0-.11.01-.167.011-.244.006-.485.021-.723.049-.135.015-.268.04-.4.063-.16.029-.318.059-.476.1s-.3.078-.455.124c-.116.034-.228.078-.341.118a7.57,7.57,0,0,0-1.264.573l-.021.011c-.215.126-.422.263-.624.407l-.04.03c-.2.145-.384.3-.567.459l-.029.027a7.619,7.619,0,0,0,.44,11.711l.011.008a7.6,7.6,0,0,0,9.3.015Z" transform="translate(-202.126 -157.26)" fill="#068e9f"/>
        </g>
      </g>
      <g id="Grupo_10282" data-name="Grupo 10282" transform="translate(167.842 157.989)">
        <path id="Trazado_19663" data-name="Trazado 19663" d="M167.842,183.622c3.776-11.877,6.837-15.285,8.954-15.738l5.21,5.21,2.318-16.052-16.052,2.32,4.655,4.655C171.488,165.584,168.126,170.611,167.842,183.622Z" transform="translate(-167.842 -157.043)" fill="#505c6a"/>
      </g>
      <g id="Grupo_10283" data-name="Grupo 10283" transform="translate(256.053 156.054)">
        <path id="Trazado_19664" data-name="Trazado 19664" d="M216.767,156.026c5.728,11.068,5.973,15.644,4.8,17.46H214.2l9.711,12.99,9.711-12.992h-6.584C226.944,171.36,225.766,165.429,216.767,156.026Z" transform="translate(-214.196 -156.026)" fill="#505c6a"/>
      </g>
    </g>
  </g>
</svg>
