<svg xmlns="http://www.w3.org/2000/svg" xmlns:xlink="http://www.w3.org/1999/xlink" width="314" height="250.034" viewBox="0 0 314 250.034">
  <defs>
    <linearGradient id="linear-gradient" x1="0.592" y1="-0.012" x2="0.634" y2="1.143" gradientUnits="objectBoundingBox">
      <stop offset="0" stop-color="#daece5"/>
      <stop offset="1" stop-color="#b2deeb"/>
    </linearGradient>
  </defs>
  <g id="Grupo_10150" data-name="Grupo 10150" transform="translate(-73.13 -77.149)">
    <g id="Grupo_10136" data-name="Grupo 10136" transform="translate(80.385 152.428)">
      <g id="Grupo_10133" data-name="Grupo 10133">
        <path id="Trazado_19456" data-name="Trazado 19456" d="M184.133,243.142s-40.741-63.666-93.783-59.756c-27.043,57.963,33.018,97.949,33.018,97.949l64.869,12.69Z" transform="translate(-83.353 -183.213)" fill="#0f787a"/>
        <path id="Trazado_19457" data-name="Trazado 19457" d="M146.127,202.663,137.3,235,91.613,183.361c-.419.023-.835.038-1.256.068-.106.229-.2.454-.3.681l24.467,27.655-31.138.075c-.007.3-.006.588-.009.882l0,.781,32.613-.079,40.775,46.087-54.645,1.875c.447.549.895,1.09,1.344,1.618l54.731-1.878,28.954,32.726,1.1.214-.132-1.637-49.5-55.945,8.94-32.736Q146.847,203.2,146.127,202.663Z" transform="translate(-83.359 -183.256)" fill="#005558"/>
      </g>
      <g id="Grupo_10135" data-name="Grupo 10135" transform="translate(1.939 85.625)">
        <path id="Trazado_19458" data-name="Trazado 19458" d="M173.6,312.5s-58.494-23.637-87.51,7.24c22.391,83.575,130.279,60.994,130.279,60.994Z" transform="translate(-86.085 -303.855)" fill="#002f4c"/>
        <g id="Grupo_10134" data-name="Grupo 10134" transform="translate(0.001 0.275)">
          <path id="Trazado_19459" data-name="Trazado 19459" d="M86.086,319.857c.086.322.177.638.266.957L167.8,346.633,129.146,372.5q.879.421,1.767.82l38.917-26.04,31.812,10.085-1.367-2.18L138.34,335.547l-16.443-31.3q-.9.072-1.794.164l15.981,30.425L86.74,319.19c-.218.222-.439.437-.653.665Z" transform="translate(-86.086 -304.243)" fill="#005558"/>
        </g>
      </g>
    </g>
    <g id="Grupo_10140" data-name="Grupo 10140" transform="translate(273.312 77.149)">
      <g id="Grupo_10137" data-name="Grupo 10137" transform="translate(25.19)">
        <path id="Trazado_19460" data-name="Trazado 19460" d="M390.668,141.619s22.815-60.3,71.778-64.47c28.625,44.079-15.685,83.477-15.685,83.477l-51.339,17.734Z" transform="translate(-390.668 -77.149)" fill="#ffc630"/>
        <path id="Trazado_19461" data-name="Trazado 19461" d="M421.171,99.168l10.878,25.3,31.279-47.235c.343-.029.684-.065,1.03-.088.112.174.214.346.324.52l-16.753,25.3,25.348-3.494c.04.24.072.478.108.718l.087.635-26.548,3.66-27.919,42.16,44.682-4.714c-.3.5-.6.99-.909,1.471l-44.752,4.721L398.2,178.06l-.868.3-.079-1.347,33.89-51.177-11.013-25.618Q420.646,99.69,421.171,99.168Z" transform="translate(-392.58 -77.149)" fill="#fff"/>
      </g>
      <g id="Grupo_10139" data-name="Grupo 10139" transform="translate(0 73.154)">
        <path id="Trazado_19462" data-name="Trazado 19462" d="M395.794,193.056l-40.617,18.273c13.023,7.387,23.748,20.051,24.035,35.511q.028,1.488-.045,2.924a82.386,82.386,0,0,0,41.815-4.107c21.733-8.112,42.872-24.358,46.85-56.7C440.694,167.142,395.794,193.056,395.794,193.056Z" transform="translate(-355.177 -180.22)" fill="#0f787a"/>
        <g id="Grupo_10138" data-name="Grupo 10138" transform="translate(20.051 0.047)">
          <path id="Trazado_19463" data-name="Trazado 19463" d="M476.032,188.976v0c-.2-.16-.405-.311-.608-.466l-38.368,18.363,9.53-26.584q-.741.028-1.478.072L435.3,207.71l-51.874,23.681q.429.837.819,1.694l26.769-12.235L445.659,237.6q.675-.427,1.344-.869L412.594,220.1l63.33-30.311C475.96,189.515,476,189.248,476.032,188.976Z" transform="translate(-383.428 -180.287)" fill="#005558"/>
        </g>
      </g>
    </g>
    <g id="Grupo_10147" data-name="Grupo 10147" transform="translate(103.106 79.409)">
      <path id="Trazado_19464" data-name="Trazado 19464" d="M140.232,81.611V99.273h25.875v24.454h-.815V302.859a25.57,25.57,0,0,0,25.495,25.495h0c2.222,0,137.5.124,137.5.124V122.592a40.982,40.982,0,0,0-40.981-40.981Z" transform="translate(-122.583 -80.704)" fill="url(#linear-gradient)"/>
      <path id="Trazado_19465" data-name="Trazado 19465" d="M115.365,115.314V98.932a18.661,18.661,0,0,1,18.566-18.6,25.464,25.464,0,0,1,25.495,25.282v9.7Z" transform="translate(-115.365 -80.333)" fill="#53b6b9"/>
      <g id="Grupo_10146" data-name="Grupo 10146" transform="translate(85.367 46.501)">
        <g id="Grupo_10141" data-name="Grupo 10141">
          <rect id="Rectángulo_2168" data-name="Rectángulo 2168" width="87.989" height="3.694" fill="#0f787a"/>
        </g>
        <g id="Grupo_10142" data-name="Grupo 10142" transform="translate(0 14.774)">
          <rect id="Rectángulo_2169" data-name="Rectángulo 2169" width="87.989" height="3.694" fill="#0f787a"/>
        </g>
        <g id="Grupo_10145" data-name="Grupo 10145" transform="translate(0 31.395)">
          <g id="Grupo_10143" data-name="Grupo 10143">
            <rect id="Rectángulo_2170" data-name="Rectángulo 2170" width="87.989" height="3.694" fill="#0f787a"/>
          </g>
          <g id="Grupo_10144" data-name="Grupo 10144" transform="translate(0 14.774)">
            <rect id="Rectángulo_2171" data-name="Rectángulo 2171" width="87.989" height="3.694" fill="#0f787a"/>
          </g>
        </g>
      </g>
      <path id="Trazado_19466" data-name="Trazado 19466" d="M358.582,413.183H221.941s27.62-5.676,18.414-39.739H385.816S395.022,413.183,358.582,413.183Z" transform="translate(-146.299 -165.41)" fill="#53b6b9"/>
    </g>
    <g id="Grupo_10149" data-name="Grupo 10149" transform="translate(73.13 181.61)">
      <path id="Trazado_19467" data-name="Trazado 19467" d="M318.486,281.15l-51.423-45.391H177.729v39.986l11.168.719,9.365,3.963,52.591,31.337,13.653,8.293c1.787,1.559,4.835.547,6.251-1.075l1.388-1.594a3.8,3.8,0,0,0-.4-5.525l-11.8-10.288,1.508-1.69,15.8,13.772a5.412,5.412,0,0,0,7.882-.5l1.979-2.27a5.412,5.412,0,0,0-.576-7.877l-15.683-13.67,1.322-1.485L292.8,305.831a5.933,5.933,0,0,0,8.638-.552l2.17-2.488a5.934,5.934,0,0,0-.632-8.633l-20.5-17.868,1.6-1.8,22.852,19.917c2.882,2.512,6.82,1.835,9.33-1.045l2.465-2.828C321.233,287.653,321.369,283.661,318.486,281.15Z" transform="translate(-103.49 -227.647)" fill="#f7a57a"/>
      <path id="Trazado_19468" data-name="Trazado 19468" d="M352.655,280.712l-1.8-43.947H329.242l-36.059-12.245s-45.028-.424-45.849,0a58.2,58.2,0,0,0-.581,6.306l.76,3.747a12.092,12.092,0,0,0,11.462,6.85l26.964-.358c1.607-.019,8.118-.588,9.283-1.521l45.437,41.167Z" transform="translate(-123.525 -224.33)" fill="#f18c72"/>
      <path id="Trazado_19469" data-name="Trazado 19469" d="M255.5,329.172c-1.7,2.435-5.318,2.848-8.087.918h0c-2.771-1.93-3.64-5.469-1.944-7.9l5.989-8.6c1.7-2.437,5-2.395,7.772-.465h0c2.771,1.928,3.955,5.016,2.259,7.452Z" transform="translate(-122.9 -249.694)" fill="#f18c72"/>
      <path id="Trazado_19470" data-name="Trazado 19470" d="M238.715,316.015a6.267,6.267,0,0,1-8.677,1.761h0a6.264,6.264,0,0,1-1.353-8.748l7.136-10.247c2.021-2.9,5.532-3.153,8.3-1.225h0c2.771,1.928,3.75,5.31,1.728,8.214Z" transform="translate(-117.934 -245.224)" fill="#f18c72"/>
      <path id="Trazado_19471" data-name="Trazado 19471" d="M221,306.32c-1.8,2.364-5.433,2.625-8.12.579h0c-2.686-2.045-3.406-5.617-1.608-7.979l6.342-8.339c1.8-2.363,5.1-2.182,7.787-.14h0c2.686,2.046,3.739,5.178,1.941,7.542Z" transform="translate(-112.94 -243.06)" fill="#f18c72"/>
      <path id="Trazado_19472" data-name="Trazado 19472" d="M271.9,340.328c-1.4,2.011-4.391,2.349-6.676.758h0c-2.289-1.594-3.007-4.513-1.6-6.527l4.945-7.1c1.4-2.011,4.129-1.977,6.415-.383h0c2.287,1.593,3.266,4.141,1.864,6.152Z" transform="translate(-128.214 -253.816)" fill="#f18c72"/>
      <g id="Grupo_10148" data-name="Grupo 10148" transform="translate(225.979 10.984)">
        <path id="Trazado_19473" data-name="Trazado 19473" d="M452.212,241.133l-59.977-.212-.182,51.539,64.51.226a22.651,22.651,0,0,0,21.594-15.57h0A27.415,27.415,0,0,0,452.212,241.133Z" transform="translate(-391.677 -240.129)" fill="#002f4c"/>
        <path id="Trazado_19474" data-name="Trazado 19474" d="M478.807,277.307c-18.495-.335-86.666.5-86.666.5l-.09,25.485,63.358.223A24.133,24.133,0,0,0,479.5,283C479.872,280.362,479.763,278.249,478.807,277.307Z" transform="translate(-391.677 -250.667)" fill="#122043"/>
        <path id="Trazado_19475" data-name="Trazado 19475" d="M411.841,240.147l.1,53.157-20.317-.339-.1-53.159Z" transform="translate(-391.523 -239.805)" fill="#fff"/>
        <path id="Trazado_19476" data-name="Trazado 19476" d="M404.512,296.659a3.237,3.237,0,0,1,3.226,3.247h0a3.235,3.235,0,0,1-3.248,3.222h0a3.231,3.231,0,0,1-3.224-3.245h0a3.235,3.235,0,0,1,3.246-3.224Z" transform="translate(-394.351 -256.307)" fill="#002f4c"/>
      </g>
      <path id="Trazado_19477" data-name="Trazado 19477" d="M101.182,234.677l59.784.263-.226,51.537-64.7-.284A22.384,22.384,0,0,1,74.82,270.636h0A27.554,27.554,0,0,1,101.182,234.677Z" transform="translate(-73.233 -227.333)" fill="#ffc630"/>
      <path id="Trazado_19478" data-name="Trazado 19478" d="M73.478,271.173c7.522-.736,87.269.648,87.269.648l-.112,25.483-61.292-.27a26.337,26.337,0,0,1-26.08-22.654C73.047,272.759,73.077,271.592,73.478,271.173Z" transform="translate(-73.13 -237.864)" fill="#f99200"/>
      <path id="Trazado_19479" data-name="Trazado 19479" d="M168.906,234.192l.307,52.889,19.489.085-.307-52.889Z" transform="translate(-100.929 -227.193)" fill="#fff"/>
    </g>
  </g>
</svg>
