<svg xmlns="http://www.w3.org/2000/svg" xmlns:xlink="http://www.w3.org/1999/xlink" width="376.82" height="276.443" viewBox="0 0 376.82 276.443">
  <defs>
    <linearGradient id="linear-gradient" x1="-23.543" y1="0.5" x2="-22.543" y2="0.5" gradientUnits="objectBoundingBox">
      <stop offset="0" stop-color="#f1f8f7"/>
      <stop offset="1" stop-color="#bfe3ee"/>
    </linearGradient>
    <linearGradient id="linear-gradient-2" x1="-29.194" y1="0.5" x2="-28.194" y2="0.5" xlink:href="#linear-gradient"/>
    <linearGradient id="linear-gradient-3" x1="25.207" y1="11.683" x2="26.171" y2="11.683" xlink:href="#linear-gradient"/>
    <linearGradient id="linear-gradient-4" x1="21.582" y1="10.483" x2="22.572" y2="10.483" xlink:href="#linear-gradient"/>
    <linearGradient id="linear-gradient-5" y1="0.5" x2="1" y2="0.5" gradientUnits="objectBoundingBox">
      <stop offset="0" stop-color="#dfefea"/>
      <stop offset="1" stop-color="#bfe3ee"/>
    </linearGradient>
  </defs>
  <g id="Grupo_9883" data-name="Grupo 9883" transform="translate(-208.754 -220.026)">
    <g id="Grupo_9798" data-name="Grupo 9798" transform="translate(520.105 287.855)">
      <path id="Trazado_18800" data-name="Trazado 18800" d="M2340.781,708.753l4.995,13.052,3.148-2.343-7.035-11.86Z" transform="translate(-2338.939 -703.807)" fill="#f39f85"/>
      <g id="Grupo_9797" data-name="Grupo 9797" transform="translate(0 0)">
        <path id="Trazado_18801" data-name="Trazado 18801" d="M2330.7,682.765a2.03,2.03,0,0,1,.452,1.378l.221,1.884-.257.292-.884.784c.031-.39.075,0,.075,0l-1.421-2.474s-1.718-1.1.449-2.727a.623.623,0,0,1,.712-.046A1.593,1.593,0,0,1,2330.7,682.765Z" transform="translate(-2328.242 -681.765)" fill="#f39f85"/>
      </g>
      <path id="Trazado_18802" data-name="Trazado 18802" d="M2380.813,795.8a82.028,82.028,0,0,1-6.031-9.427l2.709-3.084,3.322,3.872Z" transform="translate(-2367.945 -768.378)" fill="#00666b"/>
    </g>
    <g id="Grupo_9805" data-name="Grupo 9805" transform="translate(559.327 275.352)">
      <g id="Grupo_9799" data-name="Grupo 9799" transform="translate(0 0)">
        <path id="Trazado_18803" data-name="Trazado 18803" d="M2615.32,617.337l2.424,4.767-5.09-1.161-17.413-5.487Z" transform="translate(-2595.24 -612.693)" fill="#afd8c7"/>
        <path id="Trazado_18804" data-name="Trazado 18804" d="M2698.213,651.338l-8.647-.537,2.119-1.077Z" transform="translate(-2675.709 -641.926)" fill="#63c0c4"/>
        <path id="Trazado_18805" data-name="Trazado 18805" d="M2615.32,601.293l1.514-4.644-21.594,2.763Z" transform="translate(-2595.24 -596.649)" fill="url(#linear-gradient)"/>
        <path id="Trazado_18806" data-name="Trazado 18806" d="M2595.24,615.456l17.413,5.487-2.6,6.694Z" transform="translate(-2595.24 -612.693)" fill="url(#linear-gradient-2)"/>
      </g>
      <g id="Grupo_9804" data-name="Grupo 9804" transform="translate(2.477 12.249)">
        <g id="Grupo_9800" data-name="Grupo 9800" transform="translate(15.876)">
          <path id="Trazado_18807" data-name="Trazado 18807" d="M2722.418,681.992a.4.4,0,0,0,.123-.1.406.406,0,0,0-.04-.574,11.419,11.419,0,0,0-1.712-1.233.406.406,0,1,0-.411.7,10.6,10.6,0,0,1,1.589,1.146A.406.406,0,0,0,2722.418,681.992Z" transform="translate(-2720.177 -680.032)" fill="#63c0c4"/>
        </g>
        <g id="Grupo_9802" data-name="Grupo 9802" transform="translate(0 2.993)">
          <g id="Grupo_9801" data-name="Grupo 9801">
            <path id="Trazado_18808" data-name="Trazado 18808" d="M2623.892,743.83a.406.406,0,0,1,.144-.557,11.444,11.444,0,0,0,2.983-2.586.407.407,0,0,1,.627.519,12.262,12.262,0,0,1-3.2,2.768l-.023.012A.407.407,0,0,1,2623.892,743.83Zm4.635-4.561a.406.406,0,0,1-.153-.554,14.566,14.566,0,0,0,1.476-3.7.407.407,0,1,1,.79.2,15.344,15.344,0,0,1-1.559,3.909.4.4,0,0,1-.169.162A.406.406,0,0,1,2628.527,739.269Zm2.072-6.186a.408.408,0,0,1-.377-.435l.011-.183a18.783,18.783,0,0,0-.2-3.823.407.407,0,1,1,.8-.122,19.65,19.65,0,0,1,.208,3.989l-.012.2a.408.408,0,0,1-.435.377Zm-.564-6.519a.407.407,0,0,1-.5-.289,29.579,29.579,0,0,0-1.321-3.83.407.407,0,0,1,.75-.315,30.3,30.3,0,0,1,1.357,3.936.406.406,0,0,1-.208.467A.446.446,0,0,1,2630.034,726.564Zm-2.287-6.154a.407.407,0,0,1-.544-.186c-.05-.1-.1-.2-.153-.307a13.62,13.62,0,0,1-1.315.439.407.407,0,0,1-.218-.784q.59-.164,1.161-.383c-.423-.809-.888-1.65-1.414-2.555a.407.407,0,0,1,.7-.408c.545.938,1.026,1.808,1.462,2.647a12.331,12.331,0,0,0,1.694-.945.407.407,0,1,1,.452.677,13.221,13.221,0,0,1-1.776.994q.067.133.133.267a.407.407,0,0,1-.181.542Zm3.213-3.423a.406.406,0,0,1-.008-.575,10.225,10.225,0,0,0,2.158-3.283.407.407,0,0,1,.752.309,11.02,11.02,0,0,1-2.328,3.542.391.391,0,0,1-.107.079A.406.406,0,0,1,2630.961,716.988Zm-7.723,3.819a12.71,12.71,0,0,1-4.212-.329.407.407,0,1,1,.2-.789,11.889,11.889,0,0,0,3.944.307.407.407,0,1,1,.069.811Zm10.859-9.487a.407.407,0,0,1-.33-.471,12.349,12.349,0,0,0,.037-3.961.407.407,0,0,1,.8-.12,13.161,13.161,0,0,1-.04,4.222.407.407,0,0,1-.471.33Zm-17.459,8.261a10.59,10.59,0,0,1-.955-.553,8.683,8.683,0,0,1-2.3-2.2.406.406,0,1,1,.66-.475,7.88,7.88,0,0,0,2.082,1.989,9.87,9.87,0,0,0,.883.511.407.407,0,1,1-.371.724Zm7.359-5.039a15.092,15.092,0,0,0-2.513-3.1.407.407,0,1,1,.545-.6,15.859,15.859,0,0,1,2.652,3.263.407.407,0,0,1-.122.563l-.036.021A.407.407,0,0,1,2624,714.542Zm9.757-9.721a.407.407,0,0,1-.517-.253,13.084,13.084,0,0,0-.707-1.671,12.476,12.476,0,0,0-1.144-1.836.406.406,0,1,1,.65-.489,13.2,13.2,0,0,1,1.219,1.956,13.871,13.871,0,0,1,.751,1.776.407.407,0,0,1-.2.494A.434.434,0,0,1,2633.754,704.821Zm-21,9.958a.407.407,0,0,1-.493-.3,4.52,4.52,0,0,1,.333-3.244,4.145,4.145,0,0,1,.695-.956.407.407,0,0,1,.583.567,3.3,3.3,0,0,0-.558.767,3.672,3.672,0,0,0-.264,2.668.407.407,0,0,1-.21.461A.4.4,0,0,1,2612.752,714.778Zm6.8-4.646a5.819,5.819,0,0,0-3.745-.353.407.407,0,0,1-.2-.789,6.567,6.567,0,0,1,4.286.4.407.407,0,1,1-.341.738Z" transform="translate(-2612.103 -700.409)" fill="#63c0c4"/>
          </g>
        </g>
        <g id="Grupo_9803" data-name="Grupo 9803" transform="translate(7.435 46.795)">
          <path id="Trazado_18809" data-name="Trazado 18809" d="M2665.309,999.354a.407.407,0,0,0-.3-.754,8.719,8.719,0,0,1-1.912.323.406.406,0,1,0,.045.812,9.543,9.543,0,0,0,2.091-.351A.436.436,0,0,0,2665.309,999.354Z" transform="translate(-2662.716 -998.585)" fill="#63c0c4"/>
        </g>
      </g>
    </g>
    <g id="Grupo_9808" data-name="Grupo 9808" transform="translate(252.7 246.228)">
      <g id="Grupo_9806" data-name="Grupo 9806" transform="translate(57.259 0)">
        <path id="Trazado_18810" data-name="Trazado 18810" d="M958.026,404.151,942.9,398.686l-7.324-.292-5.239,1.641Z" transform="translate(-925.543 -398.394)" fill="url(#linear-gradient-3)"/>
        <path id="Trazado_18811" data-name="Trazado 18811" d="M958.026,413.683l-27.1-2.556-.586-1.56" transform="translate(-925.543 -407.926)" fill="#afd8c7"/>
        <path id="Trazado_18812" data-name="Trazado 18812" d="M934.1,439.684l.042.049,1.735,3.869,25.292-5.935Z" transform="translate(-928.755 -431.897)" fill="#63c0c4"/>
        <path id="Trazado_18813" data-name="Trazado 18813" d="M897.694,419.714l3.236-3.605L930,419.247l-24.1,3.1Z" transform="translate(-897.694 -413.507)" fill="url(#linear-gradient-4)"/>
      </g>
      <g id="Grupo_9807" data-name="Grupo 9807" transform="translate(0 4.57)">
        <path id="Trazado_18814" data-name="Trazado 18814" d="M548.409,846.131a19.719,19.719,0,0,0,2.332-1.485.383.383,0,1,1,.455.617,20.5,20.5,0,0,1-2.423,1.543q-.453.246-.916.468a.383.383,0,0,1-.333-.689Q547.972,846.368,548.409,846.131Z" transform="translate(-541.521 -783.598)" fill="#63c0c4"/>
        <path id="Trazado_18815" data-name="Trazado 18815" d="M840.694,429.531c1.2-.036,2.464-.037,3.851,0a.383.383,0,1,1-.019.766c-1.373-.034-2.619-.033-3.809,0a.383.383,0,0,1-.023-.766Z" transform="translate(-791.491 -429.503)" fill="#63c0c4"/>
        <path id="Trazado_18816" data-name="Trazado 18816" d="M799.016,431.668a.383.383,0,0,1,.114-.718c1.212-.2,2.5-.357,3.838-.456a.383.383,0,0,1,.056.764c-1.311.1-2.578.248-3.768.447A.38.38,0,0,1,799.016,431.668Z" transform="translate(-756.076 -430.348)" fill="#63c0c4"/>
        <path id="Trazado_18817" data-name="Trazado 18817" d="M584.285,815.34a.377.377,0,0,1,.536-.078.382.382,0,0,1,.078.536,21.332,21.332,0,0,1-2.6,2.9.382.382,0,0,1-.437.059.37.37,0,0,1-.1-.079.383.383,0,0,1,.02-.541A20.7,20.7,0,0,0,584.285,815.34Z" transform="translate(-570.822 -758.528)" fill="#63c0c4"/>
        <path id="Trazado_18818" data-name="Trazado 18818" d="M607.872,782.749a.383.383,0,0,1-.137-.524q.258-.443.5-.9a19.878,19.878,0,0,0,1.092-2.5.383.383,0,0,1,.489-.233.387.387,0,0,1,.233.489,20.546,20.546,0,0,1-1.134,2.6q-.245.472-.514.93a.383.383,0,0,1-.507.146Z" transform="translate(-593.026 -727.291)" fill="#63c0c4"/>
        <path id="Trazado_18819" data-name="Trazado 18819" d="M623.4,742.382a.382.382,0,0,1-.284-.461,26.155,26.155,0,0,0,.588-3.724.383.383,0,1,1,.763.068,26.713,26.713,0,0,1-.606,3.832A.383.383,0,0,1,623.4,742.382Z" transform="translate(-606.182 -692.553)" fill="#63c0c4"/>
        <path id="Trazado_18820" data-name="Trazado 18820" d="M644.325,534.737q-.381.652-.729,1.321c-.35.673-.677,1.364-.971,2.055a.383.383,0,0,1-.5.2l-.027-.013a.382.382,0,0,1-.175-.489c.3-.708.636-1.418,1-2.108q.357-.686.748-1.354a.364.364,0,0,1,.524-.137A.383.383,0,0,1,644.325,534.737Z" transform="translate(-622.208 -518.779)" fill="#63c0c4"/>
        <path id="Trazado_18821" data-name="Trazado 18821" d="M631.439,572.605a27.931,27.931,0,0,0-.957,3.652.383.383,0,1,1-.752-.143,28.623,28.623,0,0,1,.983-3.753.383.383,0,1,1,.727.244Z" transform="translate(-611.829 -551.152)" fill="#63c0c4"/>
        <path id="Trazado_18822" data-name="Trazado 18822" d="M665.051,501.149a31.135,31.135,0,0,0-2.335,2.975.383.383,0,0,1-.491.123.434.434,0,0,1-.042-.025.383.383,0,0,1-.1-.533,32.048,32.048,0,0,1,2.392-3.049.383.383,0,0,1,.574.509Z" transform="translate(-639.379 -490.08)" fill="#63c0c4"/>
        <path id="Trazado_18823" data-name="Trazado 18823" d="M722.053,453.056a.383.383,0,0,1-.416-.643,30.344,30.344,0,0,1,3.383-1.893.383.383,0,1,1,.33.691A29.584,29.584,0,0,0,722.053,453.056Z" transform="translate(-690.091 -447.401)" fill="#63c0c4"/>
        <path id="Trazado_18824" data-name="Trazado 18824" d="M626.812,659.046a.383.383,0,0,1-.4-.366l-.022-.485c-.049-1.116-.1-2.234-.127-3.351a.383.383,0,1,1,.766-.019c.029,1.112.078,2.224.127,3.336l.021.485A.383.383,0,0,1,626.812,659.046Z" transform="translate(-608.877 -621.408)" fill="#63c0c4"/>
        <path id="Trazado_18825" data-name="Trazado 18825" d="M689.56,475.354a.383.383,0,1,1-.534-.549,31.792,31.792,0,0,1,2.937-2.528.383.383,0,1,1,.463.61A30.9,30.9,0,0,0,689.56,475.354Z" transform="translate(-662.321 -465.927)" fill="#63c0c4"/>
        <path id="Trazado_18826" data-name="Trazado 18826" d="M628.265,696.15a.382.382,0,0,1,.395.371c.049,1.5.056,2.727.025,3.854a.383.383,0,0,1-.766-.022c.031-1.11.024-2.32-.023-3.808A.383.383,0,0,1,628.265,696.15Z" transform="translate(-610.269 -656.98)" fill="#63c0c4"/>
        <path id="Trazado_18827" data-name="Trazado 18827" d="M511.832,864.1a.383.383,0,0,1,.263.719,30.93,30.93,0,0,1-3.716,1.093.383.383,0,1,1-.173-.746A30.476,30.476,0,0,0,511.832,864.1Z" transform="translate(-507.909 -800.242)" fill="#63c0c4"/>
        <path id="Trazado_18828" data-name="Trazado 18828" d="M626.726,612.786a.384.384,0,0,1,.341.421c-.121,1.16-.186,2.4-.2,3.786a.383.383,0,1,1-.766-.006c.011-1.413.078-2.675.2-3.859A.383.383,0,0,1,626.726,612.786Z" transform="translate(-608.74 -585.86)" fill="#63c0c4"/>
        <path id="Trazado_18829" data-name="Trazado 18829" d="M761.221,437.013q.65-.184,1.306-.34a.383.383,0,0,1,.177.746q-.64.151-1.275.331c-.784.222-1.57.483-2.336.777a.383.383,0,1,1-.274-.715C759.606,437.51,760.415,437.242,761.221,437.013Z" transform="translate(-721.75 -435.611)" fill="#63c0c4"/>
      </g>
    </g>
    <rect id="Rectángulo_2138" data-name="Rectángulo 2138" width="65.641" height="65.641" transform="translate(208.754 426.498)" fill="#63c0c4"/>
    <rect id="Rectángulo_2139" data-name="Rectángulo 2139" width="65.641" height="65.641" transform="translate(290.182 426.498)" fill="#053c5e"/>
    <rect id="Rectángulo_2140" data-name="Rectángulo 2140" width="65.641" height="65.641" transform="translate(290.182 360.821)" fill="#afd8c8"/>
    <rect id="Rectángulo_2141" data-name="Rectángulo 2141" width="65.641" height="65.641" transform="translate(374.934 426.498)" fill="#053c5e"/>
    <rect id="Rectángulo_2142" data-name="Rectángulo 2142" width="65.641" height="65.641" transform="translate(374.934 360.674)" fill="#01888b"/>
    <rect id="Rectángulo_2143" data-name="Rectángulo 2143" width="65.641" height="65.641" transform="translate(366.296 295.509)" fill="#63c0c4"/>
    <rect id="Rectángulo_2144" data-name="Rectángulo 2144" width="65.641" height="65.641" transform="translate(462.179 426.498)" fill="#212b53"/>
    <rect id="Rectángulo_2145" data-name="Rectángulo 2145" width="65.641" height="65.641" transform="translate(475.397 360.968)" fill="#053c5e"/>
    <rect id="Rectángulo_2146" data-name="Rectángulo 2146" width="65.641" height="65.641" transform="translate(453.954 295.803)" fill="#01888b"/>
    <rect id="Rectángulo_2147" data-name="Rectángulo 2147" width="65.641" height="65.641" transform="translate(477.771 220.026) rotate(16.288)" fill="#afd8c8"/>
    <g id="Grupo_9817" data-name="Grupo 9817" transform="translate(376.18 265.268)">
      <g id="Grupo_9810" data-name="Grupo 9810" transform="translate(35.755 9.579)">
        <path id="Trazado_18830" data-name="Trazado 18830" d="M1591.884,593.214s1.105,6.335,2.774,9.521,8.743,9.174,8.743,9.174l.7-2.085-5.228-7.388-2.367-7.883Z" transform="translate(-1591.884 -593.214)" fill="#f39f85"/>
        <g id="Grupo_9809" data-name="Grupo 9809" transform="translate(9.821 15.206)">
          <path id="Trazado_18831" data-name="Trazado 18831" d="M1661.129,698.236a3.794,3.794,0,0,0,1.33,1.636c.923.761,3.306,1.782,2.237,2.474-1.29-.144-2.821-.159-2.821-.159a4.189,4.189,0,0,1-2.081-1.883l-1.054-2.384s.556-1.136.572-1.195l.537.12A6.134,6.134,0,0,0,1661.129,698.236Z" transform="translate(-1658.74 -696.725)" fill="#f39f85"/>
          <path id="Trazado_18832" data-name="Trazado 18832" d="M1663.325,702.29a.945.945,0,0,0,.027.193c-.167-.038-.333-.066-.5-.089-.523-.342-1.056-.668-1.582-1,.237-.274.569-.659.587-.691l3.884,1.519s.026.538-.845.493A4.151,4.151,0,0,1,1663.325,702.29Z" transform="translate(-1660.899 -700.115)" fill="#f39f85"/>
        </g>
      </g>
      <g id="Grupo_9812" data-name="Grupo 9812" transform="translate(40.869 0.18)">
        <path id="Trazado_18833" data-name="Trazado 18833" d="M1630.668,551.778l-3.167.951-.8-3.435,5.142-.272Z" transform="translate(-1626.696 -546.114)" fill="#f39f85"/>
        <g id="Grupo_9811" data-name="Grupo 9811" transform="translate(3.476 2.326)">
          <path id="Trazado_18834" data-name="Trazado 18834" d="M1650.469,549.579a1.772,1.772,0,0,0,.417.926c1.911.835,6.2-1.364,6.2-1.364l.423-2-1.924-2.072-3.073.454a2.518,2.518,0,0,0-1.9,1.457h0A4.916,4.916,0,0,0,1650.469,549.579Z" transform="translate(-1650.358 -545.064)" fill="#f7b58e"/>
        </g>
        <path id="Trazado_18835" data-name="Trazado 18835" d="M1663.608,532.26c.537.031,1.705-.265,1.72.273.011.392.208,1.706.293,2.144.2,1.045.97,2.829,2.56,2.522a2.088,2.088,0,0,0,1.169-3.1c-.624-1.073-1.806-2.428-1.8-3.06.008-1.063-.789-1.969-1.656-1.787a8.863,8.863,0,0,0-3.03,1.577,4.97,4.97,0,0,0-1.164,1.307h0Z" transform="translate(-1656.557 -529.229)" fill="#212b53"/>
        <path id="Trazado_18836" data-name="Trazado 18836" d="M1667.135,542.278a.8.8,0,0,1,.1.99c-.195.354-.556.484-.807.291a.8.8,0,0,1-.1-.99C1666.523,542.215,1666.884,542.085,1667.135,542.278Z" transform="translate(-1660.403 -540.285)" fill="#f7b58e"/>
      </g>
      <path id="Trazado_18837" data-name="Trazado 18837" d="M1617.12,579.6l.153,5.878-2.518,1.87V579.6Z" transform="translate(-1575.641 -572.018)" fill="#00666b"/>
      <g id="Grupo_9813" data-name="Grupo 9813" transform="translate(30.62 25.484)">
        <path id="Trazado_18838" data-name="Trazado 18838" d="M1559.681,714.685a10.615,10.615,0,0,0,4.358,2c.667.17,1.386-.057,1.386,1.043h-3.676l-3.057-.529v.529h-1.651s-.46-2.7.5-3.047Z" transform="translate(-1556.93 -712.745)" fill="#212b53"/>
        <path id="Trazado_18839" data-name="Trazado 18839" d="M1562.924,701.48l.325,1.94h0a1.868,1.868,0,0,1-2.023.068l-.113-.068.164-1.94Z" transform="translate(-1560.498 -701.48)" fill="#f7b58e"/>
      </g>
      <g id="Grupo_9814" data-name="Grupo 9814" transform="translate(2.824 23.197)">
        <path id="Trazado_18840" data-name="Trazado 18840" d="M1369.7,688.25l-1.783-.353h0a1.745,1.745,0,0,1,.152-1.884l.075-.1,1.8.207Z" transform="translate(-1367.708 -685.915)" fill="#f7b58e"/>
      </g>
      <path id="Trazado_18841" data-name="Trazado 18841" d="M1516.164,595.354s2.3-.093,6.84-2.9c-3.073,5.47-2.071,12.919-2.071,12.919h2.605l6.412-16.8-15.362-.8v7.748Z" transform="translate(-1490.188 -579)" fill="#212b53"/>
      <path id="Trazado_18842" data-name="Trazado 18842" d="M1500.307,531.117s-8.015-8.3-23.911,2.207l6.813,8.136,8.282-2.805,6.279,1.737Z" transform="translate(-1457.605 -528.003)" fill="#01888b"/>
      <g id="Grupo_9816" data-name="Grupo 9816" transform="translate(33.885 10.651)">
        <path id="Trazado_18843" data-name="Trazado 18843" d="M1579.153,600.512s.4,6.946,1.737,10.286,7.818,9.485,7.818,9.485l.905-2-4.448-7.882.267-8.149Z" transform="translate(-1579.153 -600.512)" fill="#f7b58e"/>
        <g id="Grupo_9815" data-name="Grupo 9815" transform="translate(8.101 16.184)">
          <path id="Trazado_18844" data-name="Trazado 18844" d="M1636.648,712.373a3.79,3.79,0,0,0,1.156,1.763c.841.851,3.108,2.109,1.974,2.688-1.268-.275-2.79-.445-2.79-.445a4.189,4.189,0,0,1-1.878-2.085l-.806-2.479s.669-1.074.691-1.13l.522.174A6.127,6.127,0,0,0,1636.648,712.373Z" transform="translate(-1634.303 -710.685)" fill="#f7b58e"/>
          <path id="Trazado_18845" data-name="Trazado 18845" d="M1638.718,716.638a.947.947,0,0,0,.008.195c-.162-.055-.324-.1-.487-.139-.485-.393-.982-.772-1.472-1.16.264-.248.633-.6.654-.627l3.709,1.906s-.029.538-.891.4A4.147,4.147,0,0,1,1638.718,716.638Z" transform="translate(-1636.404 -714.286)" fill="#f7b58e"/>
        </g>
      </g>
      <path id="Trazado_18846" data-name="Trazado 18846" d="M1391.835,564.225s-4.275,3.285-4.542,7.468,4.007,12,4.007,12-4.785-4-13.48-1.71a17.622,17.622,0,0,0-.546,2.767s18.034,6.568,20.706,3.314.668-15.7.668-15.7Z" transform="translate(-1373.045 -558.904)" fill="#053c5e"/>
      <path id="Trazado_18847" data-name="Trazado 18847" d="M1351.728,681.359s-1.346.417-1.654,4.443c-.063.826-.347.624-.642.84-.27-1.241-.946-3.816-.946-3.816l1.01-2.654-.57-.431.939-1.491s1.871.194,2.09,1.126Z" transform="translate(-1348.486 -656.18)" fill="#212b53"/>
    </g>
    <g id="Grupo_9827" data-name="Grupo 9827" transform="translate(386.144 417.343)">
      <g id="Grupo_9826" data-name="Grupo 9826" transform="translate(0 0.362)">
        <g id="Grupo_9820" data-name="Grupo 9820" transform="translate(8.718 2.084)">
          <g id="Grupo_9819" data-name="Grupo 9819">
            <path id="Trazado_18848" data-name="Trazado 18848" d="M1479.311,1610.317l-1.388,3.1-2.259-2.035,1.593-4.516Z" transform="translate(-1475.665 -1602.903)" fill="#f39f85"/>
            <g id="Grupo_9818" data-name="Grupo 9818" transform="translate(1.539)">
              <path id="Trazado_18849" data-name="Trazado 18849" d="M1489.049,1587.5a1.543,1.543,0,0,0,.949-.087c1.373-1.556.9-6.137.9-6.137l-1.607-1.385-2.458,1.147-.641,2.518a4.027,4.027,0,0,0,.632,2.918h0A4.278,4.278,0,0,0,1489.049,1587.5Z" transform="translate(-1486.138 -1579.891)" fill="#f7b58e"/>
            </g>
          </g>
        </g>
        <path id="Trazado_18850" data-name="Trazado 18850" d="M1497.089,1696.238a3.551,3.551,0,0,0,1.666,1.188c1.111.382,9.381-1.354,9.381-1.354l1.661.174a4.222,4.222,0,0,0,2.631-.136l2.432-.941-14.269-.3-5.461-6.783Z" transform="translate(-1483.553 -1670.111)" fill="#f7b58e"/>
        <path id="Trazado_18851" data-name="Trazado 18851" d="M1445.962,1637.607s-3.3,4.222-4.067,7-1.048,10.43-1.048,10.43h6.938s1.992-3.611,3.538-6.887a3.746,3.746,0,0,0,.043-3.113c-1.133-2.565-2.833-6.094-2.833-6.094Z" transform="translate(-1437.244 -1627.045)" fill="#fff"/>
        <g id="Grupo_9822" data-name="Grupo 9822" transform="translate(9.856 74.188)">
          <g id="Grupo_9821" data-name="Grupo 9821" transform="translate(0.506)">
            <path id="Trazado_18852" data-name="Trazado 18852" d="M1488.733,2070.729l.55,1.432a1.839,1.839,0,0,0,.75.951,7.2,7.2,0,0,0,1.895.86c-1.1.942-2.858-.042-3.862-.737a2.457,2.457,0,0,1-.981-1.422l-.23-1.085Z" transform="translate(-1486.854 -2070.729)" fill="#f7b58e"/>
          </g>
          <path id="Trazado_18853" data-name="Trazado 18853" d="M1484.033,2075.8a1.579,1.579,0,0,0-.609,1.333c.137.748.33,2.5.33,2.5h.767L1484.5,2078c0-.106,1.645,1.633,1.923,1.633h4.058s.27-1.1-2.114-1.455A8.791,8.791,0,0,1,1484.033,2075.8Z" transform="translate(-1483.407 -2075.054)" fill="#053c5e"/>
        </g>
        <g id="Grupo_9824" data-name="Grupo 9824" transform="translate(1.967 74.188)">
          <g id="Grupo_9823" data-name="Grupo 9823" transform="translate(0.506)">
            <path id="Trazado_18854" data-name="Trazado 18854" d="M1435.032,2070.729l.55,1.432a1.839,1.839,0,0,0,.75.951,7.2,7.2,0,0,0,1.895.86c-1.1.942-2.858-.042-3.862-.737a2.457,2.457,0,0,1-.981-1.422l-.23-1.085Z" transform="translate(-1433.154 -2070.729)" fill="#f7b58e"/>
          </g>
          <path id="Trazado_18855" data-name="Trazado 18855" d="M1430.333,2075.8a1.579,1.579,0,0,0-.609,1.333c.137.748.331,2.5.331,2.5h.767L1430.8,2078c0-.106,1.645,1.633,1.923,1.633h4.058s.27-1.1-2.113-1.455A8.793,8.793,0,0,1,1430.333,2075.8Z" transform="translate(-1429.707 -2075.054)" fill="#053c5e"/>
        </g>
        <path id="Trazado_18856" data-name="Trazado 18856" d="M1459.245,1756.377s3.443,5.16.5,25.731c.463,7.775,1.327,20.571,1.327,20.571h-1.954s-5.417-13.629-3.6-20.419c.432-6.724-1.234-26.005-1.234-26.005Z" transform="translate(-1448.703 -1728.263)" fill="#01888b"/>
        <path id="Trazado_18857" data-name="Trazado 18857" d="M1419.921,1756.255s-3.6,2.9-3.6,7.2c0,3.376,1.627,10.37,2.56,14.948a10.618,10.618,0,0,1-.471,5.009c-1.906,6.64.41,19.265.41,19.265h1.944s.107-6.493,2.765-21.05c3.054-16.72,3.333-25.374,3.333-25.374Z" transform="translate(-1416.317 -1728.263)" fill="#63c0c4"/>
        <g id="Grupo_9825" data-name="Grupo 9825" transform="translate(20.364 15.077)">
          <path id="Trazado_18858" data-name="Trazado 18858" d="M1566.277,1678.322h-11.334v-.833h10.831l4.812-9.149.737.388Z" transform="translate(-1554.943 -1668.34)" fill="url(#linear-gradient-5)"/>
        </g>
        <path id="Trazado_18859" data-name="Trazado 18859" d="M1454.28,1675.114s3.62,8.427,5.36,8.427,11.372-4.119,11.372-4.119l-.256-1.438-9.834,1.666a43.122,43.122,0,0,1-1.476-4.987,2.744,2.744,0,0,0-2.122-2.118C1455,1672.1,1454.28,1675.114,1454.28,1675.114Z" transform="translate(-1448.703 -1656.812)" fill="#f7b58e"/>
        <path id="Trazado_18860" data-name="Trazado 18860" d="M1432.94,1570.632s1.073.649,4.359-1.458c.5.131-.3-4.6-4.552-3.214-2.976.974-2.833,3.855-2.7,5.449.148,1.722-.748,2.858-1.932,4.117-.993,1.056-.978,3-1.639,4.044-.814,1.286-1.677,1.211-2.323,2.515a4.121,4.121,0,0,0,.137,4.261c.514.7,1.713,2.377,3.61,1.779,1.065-.336,1.352-2.195,1.4-3.761a4.741,4.741,0,0,1,1.808-3.557,6.733,6.733,0,0,0,2.439-3.095C1434.136,1575.428,1432.94,1570.632,1432.94,1570.632Z" transform="translate(-1422.558 -1565.704)" fill="#ffd147"/>
        <path id="Trazado_18861" data-name="Trazado 18861" d="M1483.224,1599.382a.7.7,0,0,1,.9.24.6.6,0,0,1-.018.875.7.7,0,0,1-.9-.24A.6.6,0,0,1,1483.224,1599.382Z" transform="translate(-1473.229 -1594.363)" fill="#f7b58e"/>
        <path id="Trazado_18862" data-name="Trazado 18862" d="M1569.109,1706.381a.472.472,0,0,0-.281-.487l-1.849-.8a2.027,2.027,0,0,0-1.446-.065l-1.834.609-.248.01-.2,1.706c.367-.135.581-.218.581-.218l1.16-.422s2.531,2.146,3.436.2c.271,1.93.821,1.716.821,1.716Z" transform="translate(-1541.668 -1684.471)" fill="#f7b58e"/>
      </g>
      <path id="Trazado_18863" data-name="Trazado 18863" d="M1475.519,1566.869c.364,1.318,2.238,1.951,4.185,1.413s3-2,2.866-3.361c-.181-1.787-2.238-1.951-4.185-1.413S1475.155,1565.551,1475.519,1566.869Z" transform="translate(-1466.77 -1563.238)" fill="#ffd147"/>
    </g>
    <g id="Grupo_9837" data-name="Grupo 9837" transform="translate(227.651 345.804)">
      <g id="Grupo_9830" data-name="Grupo 9830" transform="translate(14.293 76.161)">
        <path id="Trazado_18864" data-name="Trazado 18864" d="M435.293,1608.527l6.115-.007c.812.085,1.719.316,1.871,1.02a4.091,4.091,0,0,1,.089.932c-.216.254-8.325-.034-8.325-.034l-.035-.029A1.285,1.285,0,0,1,435.293,1608.527Z" transform="translate(-434.688 -1606.49)" fill="#12375a"/>
        <path id="Trazado_18865" data-name="Trazado 18865" d="M445.43,1621.608l-8.325-.034.072.324h8.265Z" transform="translate(-436.75 -1617.627)" fill="#212b53"/>
        <g id="Grupo_9828" data-name="Grupo 9828" transform="translate(2.871 2.03)">
          <path id="Trazado_18866" data-name="Trazado 18866" d="M454.386,1608.52l.551,0-.171.75h-.534Z" transform="translate(-454.232 -1608.52)" fill="#fff"/>
        </g>
        <g id="Grupo_9829" data-name="Grupo 9829" transform="translate(4.052 2.03)">
          <path id="Trazado_18867" data-name="Trazado 18867" d="M462.424,1608.52l.551,0-.172.75h-.534Z" transform="translate(-462.269 -1608.52)" fill="#fff"/>
        </g>
        <path id="Trazado_18868" data-name="Trazado 18868" d="M435.951,1594.7l.42,2.037h0a1.983,1.983,0,0,0,1.639.039l.093-.041.295-2.035Z" transform="translate(-435.766 -1594.702)" fill="#f7b58e"/>
      </g>
      <g id="Grupo_9833" data-name="Grupo 9833" transform="translate(0 76.161)">
        <path id="Trazado_18869" data-name="Trazado 18869" d="M338,1608.527l6.115-.007c.812.085,1.719.316,1.871,1.02a4.091,4.091,0,0,1,.088.932c-.216.254-8.325-.034-8.325-.034l-.035-.029A1.285,1.285,0,0,1,338,1608.527Z" transform="translate(-337.392 -1606.49)" fill="#212b53"/>
        <path id="Trazado_18870" data-name="Trazado 18870" d="M348.134,1621.608l-8.325-.034.072.324h8.265Z" transform="translate(-339.453 -1617.627)" fill="#212b53"/>
        <g id="Grupo_9831" data-name="Grupo 9831" transform="translate(2.871 2.03)">
          <path id="Trazado_18871" data-name="Trazado 18871" d="M357.09,1608.52l.551,0-.171.75h-.534Z" transform="translate(-356.935 -1608.52)" fill="#fff"/>
        </g>
        <g id="Grupo_9832" data-name="Grupo 9832" transform="translate(4.052 2.03)">
          <path id="Trazado_18872" data-name="Trazado 18872" d="M365.128,1608.52l.551,0-.171.75h-.534Z" transform="translate(-364.973 -1608.52)" fill="#fff"/>
        </g>
        <path id="Trazado_18873" data-name="Trazado 18873" d="M341.776,1594.7l-.265,2.037h0a1.983,1.983,0,0,0,1.639.039l.093-.041.98-2.035Z" transform="translate(-340.906 -1594.702)" fill="#f7b58e"/>
      </g>
      <g id="Grupo_9834" data-name="Grupo 9834" transform="translate(4.96 7.66)">
        <path id="Trazado_18874" data-name="Trazado 18874" d="M376.2,1128.387l-5.036,3.284,1.554,3.98c.022.056.051.108.076.163.111-.007.221-.013.333-.013l.055,0,.052,0a3.885,3.885,0,0,1,3.21,1.946,6.692,6.692,0,0,0,2.377-.617,2.462,2.462,0,0,0,1.12-.848C380.476,1133.458,376.2,1128.387,376.2,1128.387Z" transform="translate(-371.159 -1128.387)" fill="#f7b58e"/>
      </g>
      <path id="Trazado_18875" data-name="Trazado 18875" d="M445.421,1129.417s.617,5.845-.625,9.568c.576.5,2.693,2.769,3.358-.171s-.747-10.426-.747-10.426Z" transform="translate(-429.018 -1120.727)" fill="#f7b58e"/>
      <g id="Grupo_9836" data-name="Grupo 9836" transform="translate(12.196 0.077)">
        <g id="Grupo_9835" data-name="Grupo 9835" transform="translate(0 8.199)">
          <path id="Trazado_18876" data-name="Trazado 18876" d="M421.6,1132.578l-1.185.762.423.885,1.271-.561Z" transform="translate(-420.414 -1132.578)" fill="#212b53"/>
          <path id="Trazado_18877" data-name="Trazado 18877" d="M420.9,1137.431c.119.271.127.528.019.576s-.292-.133-.411-.4-.127-.528-.019-.576S420.782,1137.16,420.9,1137.431Z" transform="translate(-420.414 -1136.367)" fill="#212b53"/>
        </g>
        <path id="Trazado_18878" data-name="Trazado 18878" d="M441.726,1080.653c0-.011,0-.022,0-.033a11.851,11.851,0,0,0-1.146-2.057,10.339,10.339,0,0,1-1.1-1.8l-12.236,8.008.792,1.5,13.687-5.058A3.792,3.792,0,0,1,441.726,1080.653Z" transform="translate(-426.244 -1076.765)" fill="#053c5e"/>
      </g>
      <path id="Trazado_18879" data-name="Trazado 18879" d="M395.322,1188.516l-.44,2.748h3.893l.28-3.367Z" transform="translate(-386.436 -1171.494)" fill="#f39f85"/>
      <path id="Trazado_18880" data-name="Trazado 18880" d="M457.762,1121.074s4.6-1.464,6.04-3.434-1-12.746-1-12.746l.315-1.94a1.806,1.806,0,0,0-1.766-2.1l-1.229-.011a.7.7,0,0,0-.649.989l1.616,3.636s1.213,8.163-.486,8.782a19.135,19.135,0,0,1-4.319.9Z" transform="translate(-438.821 -1097.234)" fill="#f7b58e"/>
      <path id="Trazado_18881" data-name="Trazado 18881" d="M373.639,1128.514l-1.183-2.624.768-.483a1.446,1.446,0,0,0,.6-1.691l-.842-2.473s2.4-.293,2.324-2.526c0-1.15-1.582-1.156-1.582-1.156a2.3,2.3,0,0,1-1.941,1.149,3.816,3.816,0,0,0-3.527,2.19c-.785,1.37-.441,3.515.242,5.126a4.675,4.675,0,0,0,3.724,2.486Z" transform="translate(-363.339 -1111.493)" fill="#12375a"/>
      <path id="Trazado_18882" data-name="Trazado 18882" d="M343.736,1342.145a86.517,86.517,0,0,0,1.454,11.657,10.42,10.42,0,0,1-.359,5.361c-2.746,8.158-6.6,20.425-6.6,20.425h3.425s7.759-14.5,9.759-21.69,2.342-9.475,2.342-9.475l-2.379-6.278Z" transform="translate(-338.111 -1303.084)" fill="#212b53"/>
      <path id="Trazado_18883" data-name="Trazado 18883" d="M394.918,1163.541a1.114,1.114,0,0,0,.637,1.222c.492.261,1.006.139,1.147-.275a1.114,1.114,0,0,0-.637-1.222C395.572,1163,395.059,1163.127,394.918,1163.541Z" transform="translate(-386.437 -1150.365)" fill="#f7b58e"/>
      <path id="Trazado_18884" data-name="Trazado 18884" d="M386.845,1218.345H375.679v-14.326a6.079,6.079,0,0,1,5.513-6.052l7.765-.94s.913,1.4,3.457,4.645a26.219,26.219,0,0,1-6.6,2.759Z" transform="translate(-370.055 -1179.284)" fill="#ffd147"/>
      <path id="Trazado_18885" data-name="Trazado 18885" d="M375.679,1342.145s1.577,5.708,7.4,12.105a7.482,7.482,0,0,1,2.172,5.817l-1.2,19.521h3.473s4.234-16.21,3.321-24.2a36.672,36.672,0,0,0-4-13.242Z" transform="translate(-370.055 -1303.084)" fill="#053c5e"/>
      <path id="Trazado_18886" data-name="Trazado 18886" d="M509.686,1078.88c.6,1.246,1.416,2.1,1.82,1.9s.246-1.363-.355-2.609-1.415-2.1-1.82-1.9S509.085,1077.634,509.686,1078.88Z" transform="translate(-483.882 -1076.243)" fill="#63c0c4"/>
      <path id="Trazado_18887" data-name="Trazado 18887" d="M445.763,1109.023l.1.049a1.556,1.556,0,0,0,1.165.073l.069-.023a2.079,2.079,0,0,0,1.324-1.343h0a.386.386,0,0,0-.447-.494l-.773.162a1.166,1.166,0,0,0-.734.5Z" transform="translate(-429.843 -1102.718)" fill="#f7b58e"/>
    </g>
    <g id="Grupo_9862" data-name="Grupo 9862" transform="translate(479.101 368.349)">
      <g id="Grupo_9849" data-name="Grupo 9849" transform="translate(0)">
        <g id="Grupo_9838" data-name="Grupo 9838">
          <path id="Trazado_18888" data-name="Trazado 18888" d="M2051.438,1356.71l40.85-126.993h-2.326l-40.85,126.993Z" transform="translate(-2049.112 -1229.717)" fill="#ffd147"/>
        </g>
        <g id="Grupo_9839" data-name="Grupo 9839" transform="translate(21.122)">
          <path id="Trazado_18889" data-name="Trazado 18889" d="M2195.224,1356.71l40.85-126.993h-2.326L2192.9,1356.71Z" transform="translate(-2192.898 -1229.717)" fill="#ffd147"/>
        </g>
        <g id="Grupo_9840" data-name="Grupo 9840" transform="translate(30.267 32.966)">
          <path id="Trazado_18890" data-name="Trazado 18890" d="M2255.148,1454.144v1.893l21.887-.012.374-1.893Z" transform="translate(-2255.148 -1454.131)" fill="#ffd147"/>
        </g>
        <g id="Grupo_9841" data-name="Grupo 9841" transform="translate(34.792 20.661)">
          <path id="Trazado_18891" data-name="Trazado 18891" d="M2285.952,1370.38v1.893l21.887-.012.374-1.894Z" transform="translate(-2285.952 -1370.367)" fill="#ffd147"/>
        </g>
        <g id="Grupo_9842" data-name="Grupo 9842" transform="translate(38.533 8.357)">
          <path id="Trazado_18892" data-name="Trazado 18892" d="M2311.421,1286.616v1.893l21.887-.012.374-1.893Z" transform="translate(-2311.421 -1286.604)" fill="#ffd147"/>
        </g>
        <g id="Grupo_9843" data-name="Grupo 9843" transform="translate(26.28 45.429)">
          <path id="Trazado_18893" data-name="Trazado 18893" d="M2228.011,1538.985v1.893l21.886-.012.374-1.893Z" transform="translate(-2228.011 -1538.973)" fill="#ffd147"/>
        </g>
        <g id="Grupo_9844" data-name="Grupo 9844" transform="translate(22.539 57.892)">
          <path id="Trazado_18894" data-name="Trazado 18894" d="M2202.542,1623.823v1.893l21.887-.012.374-1.893Z" transform="translate(-2202.542 -1623.811)" fill="#ffd147"/>
        </g>
        <g id="Grupo_9845" data-name="Grupo 9845" transform="translate(17.784 70.84)">
          <path id="Trazado_18895" data-name="Trazado 18895" d="M2171.06,1711.968l-.884,1.894,21.886-.012.374-1.893Z" transform="translate(-2170.176 -1711.956)" fill="#ffd147"/>
        </g>
        <g id="Grupo_9846" data-name="Grupo 9846" transform="translate(13.681 83.789)">
          <path id="Trazado_18896" data-name="Trazado 18896" d="M2143.126,1800.112l-.884,1.894,21.887-.012.374-1.894Z" transform="translate(-2142.242 -1800.101)" fill="#ffd147"/>
        </g>
        <g id="Grupo_9847" data-name="Grupo 9847" transform="translate(9.838 96.449)">
          <path id="Trazado_18897" data-name="Trazado 18897" d="M2116.967,1886.293l-.885,1.894,21.887-.012.374-1.893Z" transform="translate(-2116.082 -1886.281)" fill="#ffd147"/>
        </g>
        <g id="Grupo_9848" data-name="Grupo 9848" transform="translate(6.654 109.385)">
          <path id="Trazado_18898" data-name="Trazado 18898" d="M2095.292,1974.354l-.885,1.894,21.886-.012.374-1.894Z" transform="translate(-2094.407 -1974.342)" fill="#ffd147"/>
        </g>
      </g>
      <g id="Grupo_9861" data-name="Grupo 9861" transform="translate(42.175)">
        <g id="Grupo_9850" data-name="Grupo 9850" transform="translate(21.122)">
          <path id="Trazado_18899" data-name="Trazado 18899" d="M2520.846,1356.71,2480,1229.717h2.326l40.85,126.993Z" transform="translate(-2479.996 -1229.717)" fill="#01888b"/>
        </g>
        <g id="Grupo_9851" data-name="Grupo 9851">
          <path id="Trazado_18900" data-name="Trazado 18900" d="M2377.06,1356.71l-40.85-126.993h2.326l40.85,126.993Z" transform="translate(-2336.211 -1229.717)" fill="#01888b"/>
        </g>
        <g id="Grupo_9852" data-name="Grupo 9852" transform="translate(11.771 32.966)">
          <path id="Trazado_18901" data-name="Trazado 18901" d="M2438.6,1454.144v1.893l-21.887-.012-.374-1.893Z" transform="translate(-2416.339 -1454.131)" fill="#01888b"/>
        </g>
        <g id="Grupo_9853" data-name="Grupo 9853" transform="translate(7.246 20.661)">
          <path id="Trazado_18902" data-name="Trazado 18902" d="M2407.8,1370.38v1.893l-21.887-.012-.374-1.894Z" transform="translate(-2385.536 -1370.367)" fill="#01888b"/>
        </g>
        <g id="Grupo_9854" data-name="Grupo 9854" transform="translate(3.505 8.357)">
          <path id="Trazado_18903" data-name="Trazado 18903" d="M2382.328,1286.616v1.893l-21.886-.012-.374-1.893Z" transform="translate(-2360.067 -1286.604)" fill="#01888b"/>
        </g>
        <g id="Grupo_9855" data-name="Grupo 9855" transform="translate(15.757 45.429)">
          <path id="Trazado_18904" data-name="Trazado 18904" d="M2465.738,1538.985v1.893l-21.886-.012-.375-1.893Z" transform="translate(-2443.477 -1538.973)" fill="#01888b"/>
        </g>
        <g id="Grupo_9856" data-name="Grupo 9856" transform="translate(19.499 57.892)">
          <path id="Trazado_18905" data-name="Trazado 18905" d="M2491.206,1623.823v1.893l-21.886-.012-.374-1.893Z" transform="translate(-2468.946 -1623.811)" fill="#01888b"/>
        </g>
        <g id="Grupo_9857" data-name="Grupo 9857" transform="translate(24.253 70.84)">
          <path id="Trazado_18906" data-name="Trazado 18906" d="M2522.689,1711.968l.885,1.894-21.887-.012-.374-1.893Z" transform="translate(-2501.313 -1711.956)" fill="#01888b"/>
        </g>
        <g id="Grupo_9858" data-name="Grupo 9858" transform="translate(28.357 83.789)">
          <path id="Trazado_18907" data-name="Trazado 18907" d="M2550.622,1800.112l.885,1.894-21.887-.012-.374-1.894Z" transform="translate(-2529.246 -1800.101)" fill="#01888b"/>
        </g>
        <g id="Grupo_9859" data-name="Grupo 9859" transform="translate(32.2 96.449)">
          <path id="Trazado_18908" data-name="Trazado 18908" d="M2576.782,1886.293l.885,1.894-21.887-.012-.374-1.893Z" transform="translate(-2555.406 -1886.281)" fill="#01888b"/>
        </g>
        <g id="Grupo_9860" data-name="Grupo 9860" transform="translate(35.384 109.385)">
          <path id="Trazado_18909" data-name="Trazado 18909" d="M2598.457,1974.354l.885,1.894-21.887-.012-.374-1.894Z" transform="translate(-2577.08 -1974.342)" fill="#01888b"/>
        </g>
      </g>
    </g>
    <g id="Grupo_9866" data-name="Grupo 9866" transform="translate(514.858 287.225)">
      <path id="Trazado_18910" data-name="Trazado 18910" d="M2416.87,1085.8l-1.59.276c-.329-1.972-5.275-11.325-5.677-16.183a109.7,109.7,0,0,0-1.7-11.4l5.32-1.582s1.347,0-.132,10.991C2416.417,1072.268,2417.309,1082.177,2416.87,1085.8Z" transform="translate(-2390.954 -1001.171)" fill="#f39f85"/>
      <path id="Trazado_18911" data-name="Trazado 18911" d="M2394.8,1029.7s-1.25,7.518-2.988,15.56c1.815,4.856-.951,18.405-1,18.357-.208-.2-1.164.981-1.164.981s-2.018-11.958-2.464-17.351-.557-11.968-.557-11.968Z" transform="translate(-2372.8 -977.955)" fill="#f7b58e"/>
      <path id="Trazado_18912" data-name="Trazado 18912" d="M2378.593,1255.425a1.775,1.775,0,0,1,.619,1.461c-.139.819-.335,2.736-.335,2.736h-.779l.024-1.788c0-.117-1.67,1.788-1.952,1.788h-4.12s-.274-1.206,2.146-1.594A8.816,8.816,0,0,0,2378.593,1255.425Z" transform="translate(-2360.358 -1170.524)" fill="#212b53"/>
      <g id="Grupo_9863" data-name="Grupo 9863" transform="translate(19.92 82.891)">
        <path id="Trazado_18913" data-name="Trazado 18913" d="M2448.694,1242.39l.11,1.706a1.593,1.593,0,0,1-.281,1.01,6.386,6.386,0,0,1-1.239,1.288c1.195.384,2.281-.956,2.851-1.846a2.127,2.127,0,0,0,.309-1.462l-.2-1.343Z" transform="translate(-2444.47 -1241.743)" fill="#f39f85"/>
        <path id="Trazado_18914" data-name="Trazado 18914" d="M2434.123,1252.536s1.051.094,1.225.894.671,2.416.671,2.416l-.573.457-.808-1.6a23.852,23.852,0,0,1-2.014,2.458h-4.5s0-1.489,2.814-1.556C2433.534,1255.539,2434.123,1252.536,2434.123,1252.536Z" transform="translate(-2428.126 -1250.951)" fill="#212b53"/>
      </g>
      <path id="Trazado_18915" data-name="Trazado 18915" d="M2305.061,704.46l4.995,13.052,3.148-2.343-7.035-11.86Z" transform="translate(-2303.219 -699.514)" fill="#f7b58e"/>
      <g id="Grupo_9864" data-name="Grupo 9864" transform="translate(0 0)">
        <path id="Trazado_18916" data-name="Trazado 18916" d="M2294.982,678.471a2.03,2.03,0,0,1,.452,1.378l.22,1.884-.257.292-.884.784c.031-.39.075,0,.075,0l-1.421-2.474s-1.718-1.1.449-2.727a.623.623,0,0,1,.712-.046A1.591,1.591,0,0,1,2294.982,678.471Z" transform="translate(-2292.521 -677.472)" fill="#f7b58e"/>
      </g>
      <path id="Trazado_18917" data-name="Trazado 18917" d="M2404.518,799.8h3.219l-1.285-3.783-2.517,1.547Z" transform="translate(-2387.569 -778.602)" fill="#f39f85"/>
      <path id="Trazado_18918" data-name="Trazado 18918" d="M2344.9,789.35c.016-.1.038-.175.057-.263-3.187-4.111-5.894-7.005-5.894-7.005l2.709-3.084,6.158,5.847,1.807.008a3.62,3.62,0,0,1,4.572.588c.779.8,1.3,2.981.777,5.284-1.434,6.348-.312,9.706-.312,9.706l-8.3,3.1s-.189-5.52-.319-9.391v-.013a4.323,4.323,0,0,0-.674-2.119A3.787,3.787,0,0,1,2344.9,789.35Z" transform="translate(-2332.225 -764.084)" fill="#63c0c4"/>
      <g id="Grupo_9865" data-name="Grupo 9865" transform="translate(13.925 10.614)">
        <path id="Trazado_18919" data-name="Trazado 18919" d="M2389.2,749.727l5.279,1.848-.521,3.94c-.007.056-.022.109-.033.164-.1.018-.2.037-.3.062l-.049.014-.048.01a3.614,3.614,0,0,0-2.468,2.47,6.23,6.23,0,0,1-2.285-.029,2.29,2.29,0,0,1-1.2-.517C2386.464,755.259,2389.2,749.727,2389.2,749.727Z" transform="translate(-2387.312 -749.727)" fill="#f7b58e"/>
      </g>
      <path id="Trazado_18920" data-name="Trazado 18920" d="M2394.544,745.512c1.421.695,1.086,8.018,1.332,13.006a5.668,5.668,0,0,0,4.8,5.3c1.882.3,3.947.355,5.193-.354-.824-.674-5.264-7.208-3.842-15.859.188-1.139.21-4.309-1.707-6.03-2.13-1.911-6.526.583-6.526.583S2392.592,744.557,2394.544,745.512Z" transform="translate(-2378.604 -731.544)" fill="#212b53"/>
      <path id="Trazado_18921" data-name="Trazado 18921" d="M2381.91,923.583a61.669,61.669,0,0,0-1.1,8.975c0,1.839.451,13.426.451,13.426s7.89.571,9.423.571c.38-9.495,2.545-9.787,2.545-14.215a12.634,12.634,0,0,0-1.744-5.486,8.026,8.026,0,0,1-1.094-3.078l-.051-.18Z" transform="translate(-2367.836 -887.43)" fill="#00666b"/>
      <path id="Trazado_18922" data-name="Trazado 18922" d="M2450.6,1067.829" transform="translate(-2427.382 -1010.486)" fill="#ffd147"/>
    </g>
    <g id="Grupo_9870" data-name="Grupo 9870" transform="translate(439.478 417.185)">
      <g id="Grupo_9867" data-name="Grupo 9867" transform="translate(11.312 0)">
        <path id="Trazado_18923" data-name="Trazado 18923" d="M1860.589,1607.922l-1.068,2.368-3.131-1.463,2.7-3.89Z" transform="translate(-1856.391 -1598.653)" fill="#f39f85"/>
        <path id="Trazado_18924" data-name="Trazado 18924" d="M1871.893,1581.19s-.689,6.132-2.085,6.724-3.043-1.482-3.043-1.482l-1.568-3.633,4.975-2.143Z" transform="translate(-1863.903 -1577.939)" fill="#f7b58e"/>
        <path id="Trazado_18925" data-name="Trazado 18925" d="M1873.444,1564.194s-1.064,2.127-4.136,1.175c-.867.018-1.334.89-1.578,1.664-.283.9-.378.21-1.093.822l-1.251,1.793s-2.872-5.4,1-7.026S1873.444,1564.194,1873.444,1564.194Z" transform="translate(-1863.191 -1562.16)" fill="#212b53"/>
        <path id="Trazado_18926" data-name="Trazado 18926" d="M1879.514,1594.477a.772.772,0,0,1,.816.5c.156.356.044.708-.25.787a.771.771,0,0,1-.816-.5C1879.108,1594.907,1879.22,1594.555,1879.514,1594.477Z" transform="translate(-1875.844 -1589.716)" fill="#f7b58e"/>
      </g>
      <path id="Trazado_18927" data-name="Trazado 18927" d="M1816.88,1627.06c-7.726,4.579-4.782,23.49-4.782,23.49h11.749s.135-4.946.291-10.17c.118-3.956.491-8.073-.57-10.322C1822.089,1626.958,1818.8,1625.924,1816.88,1627.06Z" transform="translate(-1806.823 -1617.144)" fill="#01888b"/>
      <path id="Trazado_18928" data-name="Trazado 18928" d="M1875.306,1697.833s1.751,6.075,4.106,8.094,9.125,7.461,9.125,7.461l2.224-.466-7.442-8.983-2.695-8.734Z" transform="translate(-1861.215 -1675.661)" fill="#f7b58e"/>
      <path id="Trazado_18929" data-name="Trazado 18929" d="M1865.4,1659.9l6.46-2.628-3.235-7.2-4.262,2.219Z" transform="translate(-1851.879 -1637.156)" fill="#01888b"/>
      <g id="Grupo_9868" data-name="Grupo 9868" transform="translate(0 72.665)">
        <path id="Trazado_18930" data-name="Trazado 18930" d="M1782.072,2069.737a10.382,10.382,0,0,0,4.262,1.96c.652.166,1.356-.056,1.356,1.02h-3.6l-2.99-.517v.517h-1.615s-.45-2.641.494-2.98Z" transform="translate(-1779.382 -2067.84)" fill="#212b53"/>
        <path id="Trazado_18931" data-name="Trazado 18931" d="M1785.244,2056.822l.318,1.9h0a1.826,1.826,0,0,1-1.978.066l-.111-.066.161-1.9Z" transform="translate(-1782.871 -2056.822)" fill="#f7b58e"/>
      </g>
      <path id="Trazado_18932" data-name="Trazado 18932" d="M1786.213,1789.569s-1.154,3.953-1.387,13.611a13.7,13.7,0,0,1-1.428,5.615c-3.376,6.99-1.849,20.509-1.849,20.509h2.332l9.326-33.216-3.282-6.519Z" transform="translate(-1780.937 -1756.163)" fill="#212b53"/>
      <g id="Grupo_9869" data-name="Grupo 9869" transform="translate(12.686 73.808)">
        <path id="Trazado_18933" data-name="Trazado 18933" d="M1868.432,2077.513a10.383,10.383,0,0,0,4.262,1.96c.652.166,1.356-.056,1.356,1.02h-3.6l-2.99-.517v.517h-1.615s-.449-2.641.494-2.98Z" transform="translate(-1865.742 -2075.616)" fill="#212b53"/>
        <path id="Trazado_18934" data-name="Trazado 18934" d="M1871.6,2064.6l.318,1.9h0a1.828,1.828,0,0,1-1.979.066l-.111-.066.161-1.9Z" transform="translate(-1869.23 -2064.597)" fill="#f7b58e"/>
      </g>
      <path id="Trazado_18935" data-name="Trazado 18935" d="M1965.37,1815.5l1.765,2.605c.8,1,2.844.593,4.124-.054a.288.288,0,0,0,.034-.491,39.989,39.989,0,0,0-4.071-2.661Z" transform="translate(-1938.049 -1777.769)" fill="#f7b58e"/>
      <path id="Trazado_18936" data-name="Trazado 18936" d="M1835.143,1789.569l-1.155,40.973h-2.458s-3.46-11.395-2.7-19.257a12.718,12.718,0,0,0-.933-6.268,35.487,35.487,0,0,1-3.072-15.448Z" transform="translate(-1818.118 -1756.163)" fill="#053c5e"/>
    </g>
    <g id="Grupo_9874" data-name="Grupo 9874" transform="translate(306.657 408.245)">
      <path id="Trazado_18937" data-name="Trazado 18937" d="M933.928,1891.079a95.1,95.1,0,0,0,.155,23.826,5.426,5.426,0,0,1,1.31,0s1.816-14.287,2.242-19.057,0-5.087,0-5.087S935.571,1879.324,933.928,1891.079Z" transform="translate(-924.713 -1829.293)" fill="#f39f85"/>
      <path id="Trazado_18938" data-name="Trazado 18938" d="M901.817,1675.232l-4.019,2.562-1.7-3.533,5.193-5.952Z" transform="translate(-893.034 -1643.777)" fill="#fff"/>
      <g id="Grupo_9872" data-name="Grupo 9872" transform="translate(21.933)">
        <path id="Trazado_18939" data-name="Trazado 18939" d="M1032.588,1547.558l-4.921,12.858-3.142-2.338,7.021-11.837Z" transform="translate(-1024.525 -1539.641)" fill="#f7b58e"/>
        <g id="Grupo_9871" data-name="Grupo 9871" transform="translate(7.021)">
          <path id="Trazado_18940" data-name="Trazado 18940" d="M1073.649,1504.86a2.026,2.026,0,0,0-.724,1.253l-.6,1.795.191.338.85.979a1.291,1.291,0,0,1,.336-.672l1.339-1.5s2.2-2.561.146-3.429c1.2-2.379.342-2.318.342-2.318l-1.077,2.038Z" transform="translate(-1072.321 -1501.307)" fill="#f7b58e"/>
          <path id="Trazado_18941" data-name="Trazado 18941" d="M1074.912,1515.129s-.443-.418-.049-1.41-.2-.923-.2-.923-1.643,3.869-1.116,4.309S1074.912,1515.129,1074.912,1515.129Z" transform="translate(-1073.277 -1511.107)" fill="#f7b58e"/>
        </g>
      </g>
      <path id="Trazado_18942" data-name="Trazado 18942" d="M935.08,1627.505l1.473.115,5.007-5.836,2.7,3.078a81.705,81.705,0,0,1-6.11,9.532c-.207.986-1.282,10.906-1.282,10.906h-8.68s1.383-7.279-1.06-11.33S935.08,1627.505,935.08,1627.505Z" transform="translate(-919.188 -1604.086)" fill="#fff"/>
      <path id="Trazado_18943" data-name="Trazado 18943" d="M960.012,1891.079a95.1,95.1,0,0,0,.155,23.826,5.427,5.427,0,0,1,1.31,0s1.816-14.287,2.242-19.057,0-5.087,0-5.087S961.655,1879.324,960.012,1891.079Z" transform="translate(-946.965 -1829.293)" fill="#f7b58e"/>
      <g id="Grupo_9873" data-name="Grupo 9873" transform="translate(11.207 14.341)">
        <path id="Trazado_18944" data-name="Trazado 18944" d="M956.511,1598.932l-5,1.75.493,3.733c.007.053.021.1.031.156.1.017.192.035.288.059l.046.013.045.009a3.424,3.424,0,0,1,2.338,2.34,5.9,5.9,0,0,0,2.164-.028,2.17,2.17,0,0,0,1.137-.49C959.108,1604.172,956.511,1598.932,956.511,1598.932Z" transform="translate(-951.511 -1598.932)" fill="#f7b58e"/>
      </g>
      <path id="Trazado_18945" data-name="Trazado 18945" d="M932.478,1592.813a3.291,3.291,0,0,0-.1,2.874,4.829,4.829,0,0,1,.167,3.94,5.259,5.259,0,0,1-1.831,1.654,2.826,2.826,0,0,0-1.328,2.14c-.111,1.214-.227,2.7-1.267,3.063-3.018,1.04-4.124.939-4.527-1.576a5.11,5.11,0,0,1,.261-2.464,4.408,4.408,0,0,0-.093-3.3,5.759,5.759,0,0,1-.57-1.972,4.159,4.159,0,0,1,1.07-2.056,4.226,4.226,0,0,0,.888-3.029,3.888,3.888,0,0,1,1.16-3.423c2.062-1.76,6.639,1.01,6.639,1.01A4.415,4.415,0,0,1,932.478,1592.813Z" transform="translate(-916.141 -1575.33)" fill="#212b53"/>
      <path id="Trazado_18946" data-name="Trazado 18946" d="M878.287,1708.827l-1.931,2c-1.282,1.328-1.679,3.176-.138,4.192l6.308,5.01-.58,1.086a2.647,2.647,0,0,0,.231,2.854l.667.873,1.476-5.065-4.574-5.711a1.1,1.1,0,0,1,.236-1.7h0Z" transform="translate(-875.219 -1678.343)" fill="#f7b58e"/>
      <path id="Trazado_18947" data-name="Trazado 18947" d="M931.006,1781.867a21.178,21.178,0,0,1,1.272,6.64c0,1.836-1.59,15.68-1.59,15.68h-8.264c.56-10.224-2.54-11.478-2.54-15.9,0-3.117,2.442-6.422,2.442-6.422Z" transform="translate(-913.323 -1740.653)" fill="#63c0c4"/>
      <path id="Trazado_18948" data-name="Trazado 18948" d="M935.48,2073.627a1.53,1.53,0,0,0-.59,1.292c.132.724.32,2.42.32,2.42h.743l-.023-1.582c0-.1,1.594,1.582,1.863,1.582h3.932s.261-1.067-2.048-1.409A8.516,8.516,0,0,1,935.48,2073.627Z" transform="translate(-926.111 -1989.554)" fill="#212b53"/>
      <path id="Trazado_18949" data-name="Trazado 18949" d="M964.064,2073.627a1.53,1.53,0,0,0-.59,1.292c.132.724.32,2.42.32,2.42h.743l-.023-1.582c0-.1,1.594,1.582,1.863,1.582h3.932s.261-1.067-2.048-1.409A8.515,8.515,0,0,1,964.064,2073.627Z" transform="translate(-950.495 -1989.554)" fill="#12375a"/>
      <path id="Trazado_18950" data-name="Trazado 18950" d="M935.008,1921.9" transform="translate(-926.225 -1860.118)" fill="#ffd147"/>
    </g>
    <g id="Grupo_9882" data-name="Grupo 9882" transform="translate(509.775 418.296)">
      <g id="Grupo_9875" data-name="Grupo 9875" transform="translate(6.876 73.407)">
        <path id="Trazado_18951" data-name="Trazado 18951" d="M2308.984,2080.557s-.541.749-3.092,1.4c-.562.143-1.167.241-1.167,1.167h2.518l2.575-.445v.445h1.391s.387-2.274-.425-2.566Z" transform="translate(-2304.725 -2078.923)" fill="#212b53"/>
        <path id="Trazado_18952" data-name="Trazado 18952" d="M2332.82,2069.437l.132,1.634h0a1.572,1.572,0,0,0,1.7.057l.1-.057v-1.634Z" transform="translate(-2328.693 -2069.437)" fill="#f7b58e"/>
      </g>
      <g id="Grupo_9876" data-name="Grupo 9876" transform="translate(19.792 73.733)">
        <path id="Trazado_18953" data-name="Trazado 18953" d="M2396.906,2082.773s-.541.749-3.092,1.4c-.562.143-1.167.241-1.167,1.167h2.518l2.575-.445v.445h1.39s.387-2.274-.425-2.566Z" transform="translate(-2392.647 -2081.139)" fill="#212b53"/>
        <path id="Trazado_18954" data-name="Trazado 18954" d="M2420.742,2071.653l.133,1.633h0a1.572,1.572,0,0,0,1.7.057l.1-.057v-1.633Z" transform="translate(-2416.615 -2071.653)" fill="#f7b58e"/>
      </g>
      <path id="Trazado_18955" data-name="Trazado 18955" d="M2325.833,1775.755l.627,41.031h2.99s4.55-33.127,3.578-41.031S2325.833,1775.755,2325.833,1775.755Z" transform="translate(-2315.856 -1742.492)" fill="#00666b"/>
      <path id="Trazado_18956" data-name="Trazado 18956" d="M2347.342,1796.1s1.041,12.6,3.431,19.582,6.706,21.458,6.706,21.458h3.094s-5.167-30.261-3.985-41.04h-9.246Z" transform="translate(-2334.206 -1762.842)" fill="#01888b"/>
      <path id="Trazado_18957" data-name="Trazado 18957" d="M2274.353,1653.925s-3.684,8.591-4.619,8.591c-.748,0,.281-7.015.281-7.015h-3.085s-3.88,12.024-.795,14.221S2276,1663.5,2276,1663.5Z" transform="translate(-2263.91 -1641.556)" fill="#63c0c4"/>
      <path id="Trazado_18958" data-name="Trazado 18958" d="M2373.922,1802.431l-1.116,2.76c-.538,1.084-2.514,1.112-3.826.767a.272.272,0,0,1-.129-.447,37.893,37.893,0,0,1,3.239-3.268Z" transform="translate(-2352.494 -1768.086)" fill="#f7b58e"/>
      <path id="Trazado_18959" data-name="Trazado 18959" d="M2329.03,1641.646s-1.924,1.3-1.924,2.8V1664.3h11.274v-18.565s-.23-4.128-4.266-4.128S2329.03,1641.646,2329.03,1641.646Z" transform="translate(-2316.942 -1631.051)" fill="#63c0c4"/>
      <g id="Grupo_9877" data-name="Grupo 9877" transform="translate(9.977 15.428)">
        <path id="Trazado_18960" data-name="Trazado 18960" d="M2326.207,1692.582v-17.834l-.374.012v17.822Z" transform="translate(-2325.833 -1674.748)" fill="#fff"/>
      </g>
      <path id="Trazado_18961" data-name="Trazado 18961" d="M2347.165,1611.664v4.683a2.861,2.861,0,0,1-2.185,1.069c-1.407,0-1.407-1.014-1.407-1.014v-3l2.082-.542Z" transform="translate(-2330.99 -1605.503)" fill="#f39f85"/>
      <path id="Trazado_18962" data-name="Trazado 18962" d="M2333.306,1585.243a1.744,1.744,0,0,1-1.044-.271c-1.249-1.991.174-7.357.174-7.357l4.533.813.144,3.6a3.019,3.019,0,0,1-1.133,2.48h0A4.843,4.843,0,0,1,2333.306,1585.243Z" transform="translate(-2320.903 -1576.456)" fill="#f7b58e"/>
      <path id="Trazado_18963" data-name="Trazado 18963" d="M2329.672,1571.79a9.693,9.693,0,0,1-3.087,0c-1.583-.281-.57-2.026-.57-2.026a6.226,6.226,0,0,0,3.253.227c1.405-.208,1.782-.48,2.684,0,1.224.652.928,2.865.928,2.865l-.675,4.681h-.253s-.062-2.783-.062-3.731c-.265-.431-.552-.431-.772-.324a.709.709,0,0,0-.376.643v4.86s-3.095,1.334-3.882,1.093-.261-3.843-.261-3.843a1.446,1.446,0,0,1,1.612.394c.7.781,1.543-.031,1.543-.031Z" transform="translate(-2315.739 -1569.724)" fill="#212b53"/>
      <path id="Trazado_18964" data-name="Trazado 18964" d="M2282.5,1641.63l.109-.593a4.935,4.935,0,0,1,2.758-3.372h1.31l-.406,2.8-1.848,1.166Z" transform="translate(-2278.886 -1627.684)" fill="#f7b58e"/>
      <path id="Trazado_18965" data-name="Trazado 18965" d="M2360.881,1594.47a.79.79,0,0,0-.746.744.681.681,0,0,0,.513.848.79.79,0,0,0,.746-.743A.681.681,0,0,0,2360.881,1594.47Z" transform="translate(-2345.111 -1590.833)" fill="#f7b58e"/>
      <path id="Trazado_18966" data-name="Trazado 18966" d="M2289.672,1648.919l-2.552,1.476s1.6-.016,1.627,0l2.7-2.26s-.2-.395-.808-.061A3.1,3.1,0,0,0,2289.672,1648.919Z" transform="translate(-2282.83 -1636.451)" fill="#f7b58e"/>
      <path id="Trazado_18967" data-name="Trazado 18967" d="M2373.7,1650.07s6.374,7.081,6.374,11.325-5.174,11.724-5.174,11.724l-2.556-.748s2.306-9.256,2.306-11.719-4.737-6.073-4.737-6.073" transform="translate(-2353.458 -1638.267)" fill="#63c0c4"/>
      <g id="Grupo_9878" data-name="Grupo 9878" transform="translate(16.338 16.164)">
        <path id="Trazado_18968" data-name="Trazado 18968" d="M2373.8,1685.979c0,2.12-1.877,9.871-2.318,11.677.13.034.183.044.379.1.542-2.231,2.313-9.688,2.313-11.772,0-2.526-4.615-6.072-4.811-6.221l-.227.3C2369.183,1680.091,2373.8,1683.637,2373.8,1685.979Z" transform="translate(-2369.136 -1679.758)" fill="#fff"/>
      </g>
      <g id="Grupo_9881" data-name="Grupo 9881" transform="translate(0 2.382)">
        <path id="Trazado_18969" data-name="Trazado 18969" d="M2298.133,1622.82a6.761,6.761,0,0,1-1.168,4.945.736.736,0,0,1-.476.265,1.874,1.874,0,0,1-.882-.146.82.82,0,0,1-.534-.382.353.353,0,0,1,.037-.37c.343-.512,1.4-2.271.922-3.828A2.769,2.769,0,0,1,2298.133,1622.82Z" transform="translate(-2289.584 -1617.369)" fill="#f49b42"/>
        <path id="Trazado_18970" data-name="Trazado 18970" d="M2295.372,1628.158a.542.542,0,0,1-.3-.287.353.353,0,0,1,.037-.37c.343-.512,1.4-2.271.922-3.828a2.337,2.337,0,0,1,1-.461C2297.088,1624.923,2296.722,1626.066,2295.372,1628.158Z" transform="translate(-2289.584 -1617.737)" fill="#f9b646"/>
        <g id="Grupo_9880" data-name="Grupo 9880" transform="translate(6.309 6.916)">
          <g id="Grupo_9879" data-name="Grupo 9879" transform="translate(0.132 0.002)">
            <path id="Trazado_18971" data-name="Trazado 18971" d="M2302.36,1633.972c-.081.393-.271.685-.426.654s-.214-.376-.133-.768.271-.685.426-.653S2302.44,1633.579,2302.36,1633.972Z" transform="translate(-2301.765 -1633.176)" fill="#f49b42"/>
            <path id="Trazado_18972" data-name="Trazado 18972" d="M2304.173,1633.071l-.162-.038.012.082.108.042Z" transform="translate(-2303.681 -1633.033)" fill="#f49b42"/>
            <path id="Trazado_18973" data-name="Trazado 18973" d="M2302.027,1642.491l-.2-.038.224-.033Z" transform="translate(-2301.821 -1641.042)" fill="#e7365e"/>
          </g>
          <path id="Trazado_18974" data-name="Trazado 18974" d="M2301.464,1633.788c-.081.393-.271.685-.426.654s-.214-.376-.134-.768.271-.685.426-.654S2301.545,1633.4,2301.464,1633.788Z" transform="translate(-2300.869 -1633.017)" fill="#ffd147"/>
        </g>
        <path id="Trazado_18975" data-name="Trazado 18975" d="M2320.8,1607.313h.3a1.029,1.029,0,0,1,1.05,1v.795a1.029,1.029,0,0,1-1.05,1h-.3Z" transform="translate(-2311.56 -1604.173)" fill="#ffd147"/>
        <path id="Trazado_18976" data-name="Trazado 18976" d="M2257.918,1589.865c0,2.169.5,3.927,1.113,3.927s1.114-1.758,1.114-3.927-.5-3.927-1.114-3.927S2257.918,1587.7,2257.918,1589.865Z" transform="translate(-2257.918 -1585.938)" fill="#212b53"/>
        <path id="Trazado_18977" data-name="Trazado 18977" d="M2268.3,1602.819l-.88.573v1.27l.907.823.314-1.652Z" transform="translate(-2266.025 -1600.339)" fill="#fff"/>
        <path id="Trazado_18978" data-name="Trazado 18978" d="M2268.252,1590.625c0-1.823-.353-3.351-.83-3.793l0,0a17.948,17.948,0,0,0,8.013,3.037v2.772s-5.848-.329-8.013,1.783l0,0C2267.9,1593.978,2268.252,1592.449,2268.252,1590.625Z" transform="translate(-2266.025 -1586.698)" fill="#f6a505"/>
        <path id="Trazado_18979" data-name="Trazado 18979" d="M2266.6,1607.317c0,.352.054.638.12.638s.12-.286.12-.638-.054-.638-.12-.638S2266.6,1606.965,2266.6,1607.317Z" transform="translate(-2265.327 -1603.632)" fill="#ffd147"/>
      </g>
      <path id="Trazado_18980" data-name="Trazado 18980" d="M2292.15,1639.932a3.006,3.006,0,0,0,1.425.232c.742,0,1.076-.912,1.2-1.408.045-.175.084-.423-.134-.534l-1.192-.165Z" transform="translate(-2287.121 -1628.019)" fill="#f7b58e"/>
    </g>
  </g>
</svg>
