<svg xmlns="http://www.w3.org/2000/svg" width="806" height="1040" viewBox="0 0 806 1040">
  <g id="Grupo_10434" data-name="Grupo 10434" transform="translate(-557 -2696)">
    <g id="Rectángulo_2190" data-name="Rectángulo 2190" transform="translate(557 2696)" fill="#fff" stroke="#8de2ed" stroke-width="2">
      <rect width="806" height="101" rx="50.5" stroke="none"/>
      <rect x="1" y="1" width="804" height="99" rx="49.5" fill="none"/>
    </g>
    <path id="Trazado_19964" data-name="Trazado 19964" d="M1.992,0H14.3V-3.168H5.88V-16.8H1.992ZM21.576-13.1a9.926,9.926,0,0,0-5.568,1.56l1.344,2.616a6.208,6.208,0,0,1,3.72-1.2c2.016,0,2.976.936,2.976,2.544H21.072c-3.936,0-5.544,1.584-5.544,3.864,0,2.232,1.8,3.912,4.824,3.912,1.9,0,3.24-.624,3.936-1.8V0h3.5V-7.368C27.792-11.28,25.512-13.1,21.576-13.1ZM21.288-2.328c-1.32,0-2.112-.624-2.112-1.56,0-.864.552-1.512,2.3-1.512h2.568v1.32A2.759,2.759,0,0,1,21.288-2.328ZM43.176-13.1a9.926,9.926,0,0,0-5.568,1.56l1.344,2.616a6.208,6.208,0,0,1,3.72-1.2c2.016,0,2.976.936,2.976,2.544H42.672c-3.936,0-5.544,1.584-5.544,3.864,0,2.232,1.8,3.912,4.824,3.912,1.9,0,3.24-.624,3.936-1.8V0h3.5V-7.368C49.392-11.28,47.112-13.1,43.176-13.1ZM42.888-2.328c-1.32,0-2.112-.624-2.112-1.56,0-.864.552-1.512,2.3-1.512h2.568v1.32A2.759,2.759,0,0,1,42.888-2.328ZM57.12.192c3.864,0,6.1-1.7,6.1-4.1,0-5.088-7.8-2.952-7.8-5.16,0-.672.72-1.2,2.4-1.2a7.415,7.415,0,0,1,3.72.96l1.248-2.664A10.617,10.617,0,0,0,57.816-13.1c-3.768,0-5.976,1.728-5.976,4.176,0,5.16,7.8,3,7.8,5.112,0,.72-.648,1.176-2.376,1.176a8.834,8.834,0,0,1-4.488-1.248L51.528-1.2A11.084,11.084,0,0,0,57.12.192ZM70.728-13.1a9.926,9.926,0,0,0-5.568,1.56L66.5-8.928a6.208,6.208,0,0,1,3.72-1.2c2.016,0,2.976.936,2.976,2.544H70.224C66.288-7.584,64.68-6,64.68-3.72c0,2.232,1.8,3.912,4.824,3.912,1.9,0,3.24-.624,3.936-1.8V0h3.5V-7.368C76.944-11.28,74.664-13.1,70.728-13.1ZM70.44-2.328c-1.32,0-2.112-.624-2.112-1.56,0-.864.552-1.512,2.3-1.512H73.2v1.32A2.759,2.759,0,0,1,70.44-2.328ZM96.864-13.1a5.806,5.806,0,0,0-4.656,2.112A4.82,4.82,0,0,0,87.96-13.1a5.229,5.229,0,0,0-4.056,1.68v-1.488H80.328V0h3.744V-6.48c0-2.3,1.176-3.384,2.832-3.384,1.56,0,2.448.96,2.448,3.048V0H93.1V-6.48c0-2.3,1.176-3.384,2.856-3.384,1.512,0,2.448.96,2.448,3.048V0h3.744V-7.392C102.144-11.328,99.936-13.1,96.864-13.1Zm16.272,0a5.013,5.013,0,0,0-3.888,1.56v-6.264H105.5V0h3.576V-1.488a5.017,5.017,0,0,0,4.056,1.68,6.271,6.271,0,0,0,6.432-6.648A6.271,6.271,0,0,0,113.136-13.1ZM112.488-2.88A3.259,3.259,0,0,1,109.2-6.456a3.259,3.259,0,0,1,3.288-3.576,3.259,3.259,0,0,1,3.288,3.576A3.259,3.259,0,0,1,112.488-2.88ZM122.064,0h3.744V-17.808h-3.744Zm19.872-6.408a6.392,6.392,0,0,0-6.72-6.7,6.573,6.573,0,0,0-6.888,6.648c0,3.84,2.9,6.648,7.368,6.648A6.763,6.763,0,0,0,141.024-1.9l-1.992-2.16a4.377,4.377,0,0,1-3.24,1.248A3.443,3.443,0,0,1,132.1-5.4h9.768C141.888-5.712,141.936-6.12,141.936-6.408Zm-6.7-3.864a3.068,3.068,0,0,1,3.168,2.688h-6.36A3.057,3.057,0,0,1,135.24-10.272ZM149.28-13.1a9.926,9.926,0,0,0-5.568,1.56l1.344,2.616a6.208,6.208,0,0,1,3.72-1.2c2.016,0,2.976.936,2.976,2.544h-2.976c-3.936,0-5.544,1.584-5.544,3.864,0,2.232,1.8,3.912,4.824,3.912,1.9,0,3.24-.624,3.936-1.8V0h3.5V-7.368C155.5-11.28,153.216-13.1,149.28-13.1Zm-.288,10.776c-1.32,0-2.112-.624-2.112-1.56,0-.864.552-1.512,2.3-1.512h2.568v1.32A2.759,2.759,0,0,1,148.992-2.328ZM175.44-12.912v1.656a5.183,5.183,0,0,0-4.272-1.848,6.147,6.147,0,0,0-6.456,6.24,6.147,6.147,0,0,0,6.456,6.24,5.316,5.316,0,0,0,4.08-1.608v.552c0,2.328-1.152,3.528-3.792,3.528A7.717,7.717,0,0,1,166.9.384l-1.488,2.688a10.637,10.637,0,0,0,6.336,1.776c4.656,0,7.248-2.208,7.248-7.008V-12.912ZM171.912-3.7A3.155,3.155,0,0,1,168.5-6.864a3.155,3.155,0,0,1,3.408-3.168A3.135,3.135,0,0,1,175.3-6.864,3.135,3.135,0,0,1,171.912-3.7ZM195.12-6.408a6.392,6.392,0,0,0-6.72-6.7,6.573,6.573,0,0,0-6.888,6.648c0,3.84,2.9,6.648,7.368,6.648A6.763,6.763,0,0,0,194.208-1.9l-1.992-2.16a4.377,4.377,0,0,1-3.24,1.248,3.443,3.443,0,0,1-3.7-2.592h9.768C195.072-5.712,195.12-6.12,195.12-6.408Zm-6.7-3.864a3.068,3.068,0,0,1,3.168,2.688h-6.36A3.057,3.057,0,0,1,188.424-10.272Zm17.04-2.832a5.653,5.653,0,0,0-4.272,1.7v-1.512h-3.576V0h3.744V-6.384c0-2.376,1.3-3.48,3.1-3.48,1.656,0,2.616.96,2.616,3.048V0h3.744V-7.392C210.816-11.328,208.512-13.1,205.464-13.1Zm21.528,6.7a6.392,6.392,0,0,0-6.72-6.7,6.573,6.573,0,0,0-6.888,6.648c0,3.84,2.9,6.648,7.368,6.648A6.763,6.763,0,0,0,226.08-1.9l-1.992-2.16a4.377,4.377,0,0,1-3.24,1.248,3.443,3.443,0,0,1-3.7-2.592h9.768C226.944-5.712,226.992-6.12,226.992-6.408Zm-6.7-3.864a3.068,3.068,0,0,1,3.168,2.688H217.1A3.057,3.057,0,0,1,220.3-10.272Zm12.768-.936v-1.7h-3.576V0h3.744V-6.1c0-2.472,1.368-3.6,3.432-3.6.288,0,.528.024.84.048V-13.1A5.211,5.211,0,0,0,233.064-11.208Zm11.808-1.9a9.926,9.926,0,0,0-5.568,1.56l1.344,2.616a6.208,6.208,0,0,1,3.72-1.2c2.016,0,2.976.936,2.976,2.544h-2.976c-3.936,0-5.544,1.584-5.544,3.864,0,2.232,1.8,3.912,4.824,3.912,1.9,0,3.24-.624,3.936-1.8V0h3.5V-7.368C251.088-11.28,248.808-13.1,244.872-13.1Zm-.288,10.776c-1.32,0-2.112-.624-2.112-1.56,0-.864.552-1.512,2.3-1.512h2.568v1.32A2.759,2.759,0,0,1,244.584-2.328ZM254.472,0h3.744V-17.808h-3.744ZM277.9-17.808v6.264a4.96,4.96,0,0,0-3.864-1.56,6.277,6.277,0,0,0-6.456,6.648A6.277,6.277,0,0,0,274.032.192a4.967,4.967,0,0,0,4.032-1.68V0h3.576V-17.808ZM274.68-2.88a3.276,3.276,0,0,1-3.312-3.576,3.276,3.276,0,0,1,3.312-3.576,3.271,3.271,0,0,1,3.288,3.576A3.271,3.271,0,0,1,274.68-2.88Zm23.064-3.528a6.392,6.392,0,0,0-6.72-6.7,6.573,6.573,0,0,0-6.888,6.648c0,3.84,2.9,6.648,7.368,6.648A6.763,6.763,0,0,0,296.832-1.9l-1.992-2.16a4.377,4.377,0,0,1-3.24,1.248A3.443,3.443,0,0,1,287.9-5.4h9.768C297.7-5.712,297.744-6.12,297.744-6.408Zm-6.7-3.864a3.068,3.068,0,0,1,3.168,2.688h-6.36A3.057,3.057,0,0,1,291.048-10.272ZM312.24-13.1a9.926,9.926,0,0,0-5.568,1.56l1.344,2.616a6.208,6.208,0,0,1,3.72-1.2c2.016,0,2.976.936,2.976,2.544h-2.976c-3.936,0-5.544,1.584-5.544,3.864,0,2.232,1.8,3.912,4.824,3.912,1.9,0,3.24-.624,3.936-1.8V0h3.5V-7.368C318.456-11.28,316.176-13.1,312.24-13.1Zm-.288,10.776c-1.32,0-2.112-.624-2.112-1.56,0-.864.552-1.512,2.3-1.512h2.568v1.32A2.759,2.759,0,0,1,311.952-2.328ZM326.184.192c3.864,0,6.1-1.7,6.1-4.1,0-5.088-7.8-2.952-7.8-5.16,0-.672.72-1.2,2.4-1.2a7.415,7.415,0,0,1,3.72.96l1.248-2.664A10.617,10.617,0,0,0,326.88-13.1c-3.768,0-5.976,1.728-5.976,4.176,0,5.16,7.8,3,7.8,5.112,0,.72-.648,1.176-2.376,1.176a8.834,8.834,0,0,1-4.488-1.248L320.592-1.2A11.084,11.084,0,0,0,326.184.192Zm14.544,0c4.1,0,7.08-2.76,7.08-6.648s-2.976-6.648-7.08-6.648-7.1,2.76-7.1,6.648S336.624.192,340.728.192Zm0-3.072a3.276,3.276,0,0,1-3.312-3.576,3.276,3.276,0,0,1,3.312-3.576,3.259,3.259,0,0,1,3.288,3.576A3.259,3.259,0,0,1,340.728-2.88ZM356.544.192c2.712,0,4.848-1.2,5.784-3.264l-2.9-1.584a3.177,3.177,0,0,1-2.9,1.776,3.3,3.3,0,0,1-3.384-3.576,3.3,3.3,0,0,1,3.384-3.576,3.22,3.22,0,0,1,2.9,1.776l2.9-1.56c-.936-2.112-3.072-3.288-5.784-3.288-4.2,0-7.2,2.76-7.2,6.648S352.344.192,356.544.192Zm9.816-14.9a2.153,2.153,0,0,0,2.328-2.16,2.1,2.1,0,0,0-2.328-2.016,2.14,2.14,0,0,0-2.328,2.088A2.14,2.14,0,0,0,366.36-14.712ZM364.488,0h3.744V-12.912h-3.744ZM376.92-13.1a9.926,9.926,0,0,0-5.568,1.56L372.7-8.928a6.208,6.208,0,0,1,3.72-1.2c2.016,0,2.976.936,2.976,2.544h-2.976c-3.936,0-5.544,1.584-5.544,3.864,0,2.232,1.8,3.912,4.824,3.912,1.9,0,3.24-.624,3.936-1.8V0h3.5V-7.368C383.136-11.28,380.856-13.1,376.92-13.1Zm-.288,10.776c-1.32,0-2.112-.624-2.112-1.56,0-.864.552-1.512,2.3-1.512h2.568v1.32A2.759,2.759,0,0,1,376.632-2.328Zm19.44-15.48v6.264a4.96,4.96,0,0,0-3.864-1.56,6.277,6.277,0,0,0-6.456,6.648A6.277,6.277,0,0,0,392.208.192a4.967,4.967,0,0,0,4.032-1.68V0h3.576V-17.808ZM392.856-2.88a3.276,3.276,0,0,1-3.312-3.576,3.276,3.276,0,0,1,3.312-3.576,3.271,3.271,0,0,1,3.288,3.576A3.271,3.271,0,0,1,392.856-2.88ZM409.416.192c4.1,0,7.08-2.76,7.08-6.648s-2.976-6.648-7.08-6.648-7.1,2.76-7.1,6.648S405.312.192,409.416.192Zm0-3.072A3.276,3.276,0,0,1,406.1-6.456a3.276,3.276,0,0,1,3.312-3.576A3.259,3.259,0,0,1,412.7-6.456,3.259,3.259,0,0,1,409.416-2.88ZM423.336.192c3.864,0,6.1-1.7,6.1-4.1,0-5.088-7.8-2.952-7.8-5.16,0-.672.72-1.2,2.4-1.2a7.415,7.415,0,0,1,3.72.96L429-11.976a10.617,10.617,0,0,0-4.968-1.128c-3.768,0-5.976,1.728-5.976,4.176,0,5.16,7.8,3,7.8,5.112,0,.72-.648,1.176-2.376,1.176a8.834,8.834,0,0,1-4.488-1.248L417.744-1.2A11.084,11.084,0,0,0,423.336.192Zm21.336,0c4.1,0,7.08-2.76,7.08-6.648s-2.976-6.648-7.08-6.648-7.1,2.76-7.1,6.648S440.568.192,444.672.192Zm0-3.072a3.276,3.276,0,0,1-3.312-3.576,3.276,3.276,0,0,1,3.312-3.576,3.259,3.259,0,0,1,3.288,3.576A3.259,3.259,0,0,1,444.672-2.88Zm25.776-14.928v6.264a4.96,4.96,0,0,0-3.864-1.56,6.277,6.277,0,0,0-6.456,6.648A6.277,6.277,0,0,0,466.584.192a4.967,4.967,0,0,0,4.032-1.68V0h3.576V-17.808ZM467.232-2.88a3.276,3.276,0,0,1-3.312-3.576,3.276,3.276,0,0,1,3.312-3.576,3.271,3.271,0,0,1,3.288,3.576A3.271,3.271,0,0,1,467.232-2.88ZM490.3-6.408a6.392,6.392,0,0,0-6.72-6.7,6.573,6.573,0,0,0-6.888,6.648c0,3.84,2.9,6.648,7.368,6.648A6.763,6.763,0,0,0,489.384-1.9l-1.992-2.16a4.377,4.377,0,0,1-3.24,1.248,3.443,3.443,0,0,1-3.7-2.592h9.768C490.248-5.712,490.3-6.12,490.3-6.408Zm-6.7-3.864a3.068,3.068,0,0,1,3.168,2.688h-6.36A3.057,3.057,0,0,1,483.6-10.272ZM492.792,0h3.744V-17.808h-3.744Zm19.872-6.408a6.392,6.392,0,0,0-6.72-6.7,6.573,6.573,0,0,0-6.888,6.648c0,3.84,2.9,6.648,7.368,6.648A6.763,6.763,0,0,0,511.752-1.9l-1.992-2.16a4.377,4.377,0,0,1-3.24,1.248,3.443,3.443,0,0,1-3.7-2.592h9.768C512.616-5.712,512.664-6.12,512.664-6.408Zm-6.7-3.864a3.068,3.068,0,0,1,3.168,2.688h-6.36A3.057,3.057,0,0,1,505.968-10.272Zm18.96-2.64v1.656a5.183,5.183,0,0,0-4.272-1.848,6.147,6.147,0,0,0-6.456,6.24,6.147,6.147,0,0,0,6.456,6.24,5.316,5.316,0,0,0,4.08-1.608v.552c0,2.328-1.152,3.528-3.792,3.528a7.717,7.717,0,0,1-4.56-1.464L514.9,3.072a10.637,10.637,0,0,0,6.336,1.776c4.656,0,7.248-2.208,7.248-7.008V-12.912ZM521.4-3.7a3.155,3.155,0,0,1-3.408-3.168,3.155,3.155,0,0,1,3.408-3.168,3.135,3.135,0,0,1,3.384,3.168A3.135,3.135,0,0,1,521.4-3.7ZM537.168-13.1a9.926,9.926,0,0,0-5.568,1.56l1.344,2.616a6.209,6.209,0,0,1,3.72-1.2c2.016,0,2.976.936,2.976,2.544h-2.976c-3.936,0-5.544,1.584-5.544,3.864,0,2.232,1.8,3.912,4.824,3.912,1.9,0,3.24-.624,3.936-1.8V0h3.5V-7.368C543.384-11.28,541.1-13.1,537.168-13.1ZM536.88-2.328c-1.32,0-2.112-.624-2.112-1.56,0-.864.552-1.512,2.3-1.512h2.568v1.32A2.759,2.759,0,0,1,536.88-2.328Zm19.44-15.48v6.264a4.96,4.96,0,0,0-3.864-1.56A6.277,6.277,0,0,0,546-6.456,6.277,6.277,0,0,0,552.456.192a4.967,4.967,0,0,0,4.032-1.68V0h3.576V-17.808ZM553.1-2.88a3.276,3.276,0,0,1-3.312-3.576,3.276,3.276,0,0,1,3.312-3.576,3.271,3.271,0,0,1,3.288,3.576A3.271,3.271,0,0,1,553.1-2.88ZM569.664.192c4.1,0,7.08-2.76,7.08-6.648s-2.976-6.648-7.08-6.648-7.1,2.76-7.1,6.648S565.56.192,569.664.192Zm0-3.072a3.276,3.276,0,0,1-3.312-3.576,3.276,3.276,0,0,1,3.312-3.576,3.259,3.259,0,0,1,3.288,3.576A3.259,3.259,0,0,1,569.664-2.88ZM583.584.192c3.864,0,6.1-1.7,6.1-4.1,0-5.088-7.8-2.952-7.8-5.16,0-.672.72-1.2,2.4-1.2a7.415,7.415,0,0,1,3.72.96l1.248-2.664A10.617,10.617,0,0,0,584.28-13.1c-3.768,0-5.976,1.728-5.976,4.176,0,5.16,7.8,3,7.8,5.112,0,.72-.648,1.176-2.376,1.176a8.834,8.834,0,0,1-4.488-1.248L577.992-1.2A11.085,11.085,0,0,0,583.584.192Z" transform="translate(663 2755)" fill="#148e9f"/>
    <g id="Rectángulo_2191" data-name="Rectángulo 2191" transform="translate(557 2871)" fill="#fff" stroke="#8de2ed" stroke-width="2">
      <rect width="806" height="109" rx="54.5" stroke="none"/>
      <rect x="1" y="1" width="804" height="107" rx="53.5" fill="none"/>
    </g>
    <path id="Trazado_19965" data-name="Trazado 19965" d="M-331.44-3.12V-7.008h7.8v-3.024h-7.8V-13.68h8.832V-16.8h-12.7V0H-322.3V-3.12ZM-319.464,0h3.744V-17.808h-3.744Zm20.256.192c2.712,0,4.848-1.2,5.784-3.264l-2.9-1.584a3.177,3.177,0,0,1-2.9,1.776,3.3,3.3,0,0,1-3.384-3.576,3.3,3.3,0,0,1,3.384-3.576,3.22,3.22,0,0,1,2.9,1.776l2.9-1.56c-.936-2.112-3.072-3.288-5.784-3.288-4.2,0-7.2,2.76-7.2,6.648S-303.408.192-299.208.192Zm13.92,0c4.1,0,7.08-2.76,7.08-6.648s-2.976-6.648-7.08-6.648-7.1,2.76-7.1,6.648S-289.392.192-285.288.192Zm0-3.072A3.276,3.276,0,0,1-288.6-6.456a3.276,3.276,0,0,1,3.312-3.576A3.259,3.259,0,0,1-282-6.456,3.259,3.259,0,0,1-285.288-2.88ZM-267.864-13.1a5.653,5.653,0,0,0-4.272,1.7v-1.512h-3.576V0h3.744V-6.384c0-2.376,1.3-3.48,3.1-3.48,1.656,0,2.616.96,2.616,3.048V0h3.744V-7.392C-262.512-11.328-264.816-13.1-267.864-13.1Zm13.08,13.3c3.864,0,6.1-1.7,6.1-4.1,0-5.088-7.8-2.952-7.8-5.16,0-.672.72-1.2,2.4-1.2a7.415,7.415,0,0,1,3.72.96l1.248-2.664a10.617,10.617,0,0,0-4.968-1.128c-3.768,0-5.976,1.728-5.976,4.176,0,5.16,7.8,3,7.8,5.112,0,.72-.648,1.176-2.376,1.176a8.834,8.834,0,0,1-4.488-1.248L-260.376-1.2A11.084,11.084,0,0,0-254.784.192Zm21.048-6.6a6.392,6.392,0,0,0-6.72-6.7,6.573,6.573,0,0,0-6.888,6.648c0,3.84,2.9,6.648,7.368,6.648A6.763,6.763,0,0,0-234.648-1.9l-1.992-2.16a4.377,4.377,0,0,1-3.24,1.248,3.443,3.443,0,0,1-3.7-2.592h9.768C-233.784-5.712-233.736-6.12-233.736-6.408Zm-6.7-3.864a3.068,3.068,0,0,1,3.168,2.688h-6.36A3.057,3.057,0,0,1-240.432-10.272Zm11.232-4.44a2.153,2.153,0,0,0,2.328-2.16,2.1,2.1,0,0,0-2.328-2.016,2.14,2.14,0,0,0-2.328,2.088A2.14,2.14,0,0,0-229.2-14.712Zm-3,19.56a4.479,4.479,0,0,0,4.872-4.872V-12.912h-3.744V0c0,1.272-.6,1.872-1.536,1.872a2.746,2.746,0,0,1-1.584-.456L-235.2,4.128A5.452,5.452,0,0,0-232.2,4.848ZM-217.728.192c4.1,0,7.08-2.76,7.08-6.648s-2.976-6.648-7.08-6.648-7.1,2.76-7.1,6.648S-221.832.192-217.728.192Zm0-3.072a3.276,3.276,0,0,1-3.312-3.576,3.276,3.276,0,0,1,3.312-3.576,3.259,3.259,0,0,1,3.288,3.576A3.259,3.259,0,0,1-217.728-2.88Zm25.776-14.928v6.264a4.961,4.961,0,0,0-3.864-1.56,6.277,6.277,0,0,0-6.456,6.648A6.277,6.277,0,0,0-195.816.192a4.967,4.967,0,0,0,4.032-1.68V0h3.576V-17.808ZM-195.168-2.88a3.276,3.276,0,0,1-3.312-3.576,3.276,3.276,0,0,1,3.312-3.576,3.271,3.271,0,0,1,3.288,3.576A3.271,3.271,0,0,1-195.168-2.88ZM-172.1-6.408a6.392,6.392,0,0,0-6.72-6.7,6.573,6.573,0,0,0-6.888,6.648c0,3.84,2.9,6.648,7.368,6.648A6.763,6.763,0,0,0-173.016-1.9l-1.992-2.16a4.377,4.377,0,0,1-3.24,1.248,3.443,3.443,0,0,1-3.7-2.592h9.768C-172.152-5.712-172.1-6.12-172.1-6.408Zm-6.7-3.864a3.068,3.068,0,0,1,3.168,2.688h-6.36A3.057,3.057,0,0,1-178.8-10.272Zm21.192-2.832a9.926,9.926,0,0,0-5.568,1.56l1.344,2.616a6.208,6.208,0,0,1,3.72-1.2c2.016,0,2.976.936,2.976,2.544h-2.976c-3.936,0-5.544,1.584-5.544,3.864,0,2.232,1.8,3.912,4.824,3.912,1.9,0,3.24-.624,3.936-1.8V0h3.5V-7.368C-151.392-11.28-153.672-13.1-157.608-13.1ZM-157.9-2.328c-1.32,0-2.112-.624-2.112-1.56,0-.864.552-1.512,2.3-1.512h2.568v1.32A2.759,2.759,0,0,1-157.9-2.328Zm19.44-15.48v6.264a4.961,4.961,0,0,0-3.864-1.56,6.277,6.277,0,0,0-6.456,6.648A6.277,6.277,0,0,0-142.32.192a4.967,4.967,0,0,0,4.032-1.68V0h3.576V-17.808ZM-141.672-2.88a3.276,3.276,0,0,1-3.312-3.576,3.276,3.276,0,0,1,3.312-3.576,3.271,3.271,0,0,1,3.288,3.576A3.271,3.271,0,0,1-141.672-2.88ZM-114.72-13.1a5.806,5.806,0,0,0-4.656,2.112,4.82,4.82,0,0,0-4.248-2.112,5.229,5.229,0,0,0-4.056,1.68v-1.488h-3.576V0h3.744V-6.48c0-2.3,1.176-3.384,2.832-3.384,1.56,0,2.448.96,2.448,3.048V0h3.744V-6.48c0-2.3,1.176-3.384,2.856-3.384,1.512,0,2.448.96,2.448,3.048V0h3.744V-7.392C-109.44-11.328-111.648-13.1-114.72-13.1Zm10.512-1.608a2.153,2.153,0,0,0,2.328-2.16,2.1,2.1,0,0,0-2.328-2.016,2.14,2.14,0,0,0-2.328,2.088A2.14,2.14,0,0,0-104.208-14.712ZM-106.08,0h3.744V-12.912h-3.744Zm15.072-13.1a5.653,5.653,0,0,0-4.272,1.7v-1.512h-3.576V0h3.744V-6.384c0-2.376,1.3-3.48,3.1-3.48,1.656,0,2.616.96,2.616,3.048V0h3.744V-7.392C-85.656-11.328-87.96-13.1-91.008-13.1ZM-80.4-14.712a2.153,2.153,0,0,0,2.328-2.16A2.1,2.1,0,0,0-80.4-18.888,2.14,2.14,0,0,0-82.728-16.8,2.14,2.14,0,0,0-80.4-14.712ZM-82.272,0h3.744V-12.912h-3.744ZM-70.7.192c3.864,0,6.1-1.7,6.1-4.1,0-5.088-7.8-2.952-7.8-5.16,0-.672.72-1.2,2.4-1.2a7.415,7.415,0,0,1,3.72.96l1.248-2.664A10.617,10.617,0,0,0-70.008-13.1c-3.768,0-5.976,1.728-5.976,4.176,0,5.16,7.8,3,7.8,5.112,0,.72-.648,1.176-2.376,1.176a8.834,8.834,0,0,1-4.488-1.248L-76.3-1.2A11.084,11.084,0,0,0-70.7.192Zm15.72-3.456a2.523,2.523,0,0,1-1.512.48,1.506,1.506,0,0,1-1.608-1.7V-9.744h3.216v-2.88H-58.1v-3.144h-3.744v3.144H-63.84v2.88h1.992v5.3c0,3.072,1.776,4.632,4.824,4.632a5.351,5.351,0,0,0,3.048-.816Zm6.7-7.944v-1.7h-3.576V0h3.744V-6.1c0-2.472,1.368-3.6,3.432-3.6.288,0,.528.024.84.048V-13.1A5.211,5.211,0,0,0-48.288-11.208Zm11.808-1.9a9.926,9.926,0,0,0-5.568,1.56L-40.7-8.928a6.208,6.208,0,0,1,3.72-1.2c2.016,0,2.976.936,2.976,2.544h-2.976c-3.936,0-5.544,1.584-5.544,3.864,0,2.232,1.8,3.912,4.824,3.912,1.9,0,3.24-.624,3.936-1.8V0h3.5V-7.368C-30.264-11.28-32.544-13.1-36.48-13.1Zm-.288,10.776c-1.32,0-2.112-.624-2.112-1.56,0-.864.552-1.512,2.3-1.512h2.568v1.32A2.759,2.759,0,0,1-36.768-2.328ZM-20.5.192c2.712,0,4.848-1.2,5.784-3.264l-2.9-1.584a3.177,3.177,0,0,1-2.9,1.776A3.3,3.3,0,0,1-23.9-6.456a3.3,3.3,0,0,1,3.384-3.576,3.22,3.22,0,0,1,2.9,1.776l2.9-1.56c-.936-2.112-3.072-3.288-5.784-3.288-4.2,0-7.2,2.76-7.2,6.648S-24.7.192-20.5.192Zm9.816-14.9a2.153,2.153,0,0,0,2.328-2.16,2.1,2.1,0,0,0-2.328-2.016A2.14,2.14,0,0,0-13.008-16.8,2.14,2.14,0,0,0-10.68-14.712ZM-12.552,0h3.744V-12.912h-3.744ZM-1.416-14.568H1.512l4.344-3.456H1.824ZM.816.192c4.1,0,7.08-2.76,7.08-6.648S4.92-13.1.816-13.1s-7.1,2.76-7.1,6.648S-3.288.192.816.192Zm0-3.072A3.276,3.276,0,0,1-2.5-6.456,3.276,3.276,0,0,1,.816-10.032,3.259,3.259,0,0,1,4.1-6.456,3.259,3.259,0,0,1,.816-2.88ZM18.24-13.1a5.653,5.653,0,0,0-4.272,1.7v-1.512H10.392V0h3.744V-6.384c0-2.376,1.3-3.48,3.1-3.48,1.656,0,2.616.96,2.616,3.048V0h3.744V-7.392C23.592-11.328,21.288-13.1,18.24-13.1Zm10.176,8.64a2.224,2.224,0,0,0-2.328,2.3,2.082,2.082,0,0,0,1.3,2.04L26.328,3.7H28.7L30.072.24a5.58,5.58,0,0,0,.648-2.4A2.2,2.2,0,0,0,28.416-4.464ZM42.1-14.712a2.153,2.153,0,0,0,2.328-2.16A2.1,2.1,0,0,0,42.1-18.888,2.14,2.14,0,0,0,39.768-16.8,2.14,2.14,0,0,0,42.1-14.712Zm-3,19.56A4.479,4.479,0,0,0,43.968-.024V-12.912H40.224V0c0,1.272-.6,1.872-1.536,1.872A2.746,2.746,0,0,1,37.1,1.416L36.1,4.128A5.452,5.452,0,0,0,39.1,4.848Zm17.592-17.76v6.384c0,2.376-1.248,3.48-2.976,3.48-1.656,0-2.616-.96-2.616-3.12v-6.744H47.352v7.3c0,3.984,2.28,5.808,5.52,5.808A5.224,5.224,0,0,0,56.88-1.536V0h3.552V-12.912ZM71.76-13.1a5.653,5.653,0,0,0-4.272,1.7v-1.512H63.912V0h3.744V-6.384c0-2.376,1.3-3.48,3.1-3.48,1.656,0,2.616.96,2.616,3.048V0h3.744V-7.392C77.112-11.328,74.808-13.1,71.76-13.1Zm16.056,9.84a2.523,2.523,0,0,1-1.512.48,1.506,1.506,0,0,1-1.608-1.7V-9.744h3.216v-2.88H84.7v-3.144H80.952v3.144H78.96v2.88h1.992v5.3c0,3.072,1.776,4.632,4.824,4.632a5.351,5.351,0,0,0,3.048-.816Zm8.328-9.84a9.926,9.926,0,0,0-5.568,1.56L91.92-8.928a6.208,6.208,0,0,1,3.72-1.2c2.016,0,2.976.936,2.976,2.544H95.64C91.7-7.584,90.1-6,90.1-3.72,90.1-1.488,91.9.192,94.92.192c1.9,0,3.24-.624,3.936-1.8V0h3.5V-7.368C102.36-11.28,100.08-13.1,96.144-13.1ZM95.856-2.328c-1.32,0-2.112-.624-2.112-1.56,0-.864.552-1.512,2.3-1.512h2.568v1.32A2.759,2.759,0,0,1,95.856-2.328Zm26.088-15.48v6.264a4.961,4.961,0,0,0-3.864-1.56,6.277,6.277,0,0,0-6.456,6.648A6.277,6.277,0,0,0,118.08.192a4.967,4.967,0,0,0,4.032-1.68V0h3.576V-17.808ZM118.728-2.88a3.276,3.276,0,0,1-3.312-3.576,3.276,3.276,0,0,1,3.312-3.576,3.271,3.271,0,0,1,3.288,3.576A3.271,3.271,0,0,1,118.728-2.88Zm12.288-11.832a2.153,2.153,0,0,0,2.328-2.16,2.1,2.1,0,0,0-2.328-2.016,2.14,2.14,0,0,0-2.328,2.088A2.14,2.14,0,0,0,131.016-14.712ZM129.144,0h3.744V-12.912h-3.744Zm10.8-11.208v-1.7h-3.576V0h3.744V-6.1c0-2.472,1.368-3.6,3.432-3.6.288,0,.528.024.84.048V-13.1A5.211,5.211,0,0,0,139.944-11.208Zm19.2,4.8a6.392,6.392,0,0,0-6.72-6.7,6.573,6.573,0,0,0-6.888,6.648c0,3.84,2.9,6.648,7.368,6.648A6.763,6.763,0,0,0,158.232-1.9l-1.992-2.16A4.377,4.377,0,0,1,153-2.808,3.443,3.443,0,0,1,149.3-5.4h9.768C159.1-5.712,159.144-6.12,159.144-6.408Zm-6.7-3.864a3.068,3.068,0,0,1,3.168,2.688h-6.36A3.057,3.057,0,0,1,152.448-10.272ZM167.88.192c2.712,0,4.848-1.2,5.784-3.264l-2.9-1.584a3.177,3.177,0,0,1-2.9,1.776,3.3,3.3,0,0,1-3.384-3.576,3.3,3.3,0,0,1,3.384-3.576,3.22,3.22,0,0,1,2.9,1.776l2.9-1.56c-.936-2.112-3.072-3.288-5.784-3.288-4.2,0-7.2,2.76-7.2,6.648S163.68.192,167.88.192Zm15.456-3.456a2.523,2.523,0,0,1-1.512.48,1.506,1.506,0,0,1-1.608-1.7V-9.744h3.216v-2.88h-3.216v-3.144h-3.744v3.144H174.48v2.88h1.992v5.3c0,3.072,1.776,4.632,4.824,4.632a5.351,5.351,0,0,0,3.048-.816Zm4.992-11.448a2.153,2.153,0,0,0,2.328-2.16,2.1,2.1,0,0,0-2.328-2.016A2.14,2.14,0,0,0,186-16.8,2.14,2.14,0,0,0,188.328-14.712ZM186.456,0H190.2V-12.912h-3.744ZM202.9-12.912l-3.7,8.784-3.576-8.784H191.76L197.184,0h3.864L206.5-12.912Zm9.912-.192a9.926,9.926,0,0,0-5.568,1.56l1.344,2.616a6.208,6.208,0,0,1,3.72-1.2c2.016,0,2.976.936,2.976,2.544H212.3c-3.936,0-5.544,1.584-5.544,3.864,0,2.232,1.8,3.912,4.824,3.912,1.9,0,3.24-.624,3.936-1.8V0h3.5V-7.368C219.024-11.28,216.744-13.1,212.808-13.1ZM212.52-2.328c-1.32,0-2.112-.624-2.112-1.56,0-.864.552-1.512,2.3-1.512h2.568v1.32A2.759,2.759,0,0,1,212.52-2.328ZM235.344.192c4.1,0,7.08-2.76,7.08-6.648s-2.976-6.648-7.08-6.648-7.1,2.76-7.1,6.648S231.24.192,235.344.192Zm0-3.072a3.276,3.276,0,0,1-3.312-3.576,3.276,3.276,0,0,1,3.312-3.576,3.259,3.259,0,0,1,3.288,3.576A3.259,3.259,0,0,1,235.344-2.88ZM257.952.192c2.712,0,4.848-1.2,5.784-3.264l-2.9-1.584a3.177,3.177,0,0,1-2.9,1.776,3.3,3.3,0,0,1-3.384-3.576,3.3,3.3,0,0,1,3.384-3.576,3.22,3.22,0,0,1,2.9,1.776l2.9-1.56c-.936-2.112-3.072-3.288-5.784-3.288-4.2,0-7.2,2.76-7.2,6.648S253.752.192,257.952.192Zm13.92,0c4.1,0,7.08-2.76,7.08-6.648s-2.976-6.648-7.08-6.648-7.1,2.76-7.1,6.648S267.768.192,271.872.192Zm0-3.072a3.276,3.276,0,0,1-3.312-3.576,3.276,3.276,0,0,1,3.312-3.576,3.259,3.259,0,0,1,3.288,3.576A3.259,3.259,0,0,1,271.872-2.88ZM297.984-13.1a5.806,5.806,0,0,0-4.656,2.112A4.82,4.82,0,0,0,289.08-13.1a5.229,5.229,0,0,0-4.056,1.68v-1.488h-3.576V0h3.744V-6.48c0-2.3,1.176-3.384,2.832-3.384,1.56,0,2.448.96,2.448,3.048V0h3.744V-6.48c0-2.3,1.176-3.384,2.856-3.384,1.512,0,2.448.96,2.448,3.048V0h3.744V-7.392C303.264-11.328,301.056-13.1,297.984-13.1ZM308.5-14.712a2.153,2.153,0,0,0,2.328-2.16,2.1,2.1,0,0,0-2.328-2.016,2.14,2.14,0,0,0-2.328,2.088A2.14,2.14,0,0,0,308.5-14.712ZM306.624,0h3.744V-12.912h-3.744Zm14.544-3.264a2.523,2.523,0,0,1-1.512.48,1.506,1.506,0,0,1-1.608-1.7V-9.744h3.216v-2.88h-3.216v-3.144H314.3v3.144h-1.992v2.88H314.3v5.3c0,3.072,1.776,4.632,4.824,4.632a5.351,5.351,0,0,0,3.048-.816Zm13.656-14.76h-4.032l-3.24,3.456h2.928Zm1.7,11.616a6.392,6.392,0,0,0-6.72-6.7,6.573,6.573,0,0,0-6.888,6.648c0,3.84,2.9,6.648,7.368,6.648A6.763,6.763,0,0,0,335.616-1.9l-1.992-2.16a4.377,4.377,0,0,1-3.24,1.248,3.443,3.443,0,0,1-3.7-2.592h9.768C336.48-5.712,336.528-6.12,336.528-6.408Zm-6.7-3.864A3.068,3.068,0,0,1,333-7.584h-6.36A3.057,3.057,0,0,1,329.832-10.272ZM-292.4,11.192v6.264a4.96,4.96,0,0,0-3.864-1.56,6.277,6.277,0,0,0-6.456,6.648,6.277,6.277,0,0,0,6.456,6.648,4.967,4.967,0,0,0,4.032-1.68V29h3.576V11.192ZM-295.62,26.12a3.276,3.276,0,0,1-3.312-3.576,3.276,3.276,0,0,1,3.312-3.576,3.271,3.271,0,0,1,3.288,3.576A3.271,3.271,0,0,1-295.62,26.12Zm23.064-3.528a6.392,6.392,0,0,0-6.72-6.7,6.573,6.573,0,0,0-6.888,6.648c0,3.84,2.9,6.648,7.368,6.648a6.763,6.763,0,0,0,5.328-2.088l-1.992-2.16a4.377,4.377,0,0,1-3.24,1.248,3.443,3.443,0,0,1-3.7-2.592h9.768C-272.6,23.288-272.556,22.88-272.556,22.592Zm-6.7-3.864a3.068,3.068,0,0,1,3.168,2.688h-6.36A3.057,3.057,0,0,1-279.252,18.728ZM-258.06,15.9a9.926,9.926,0,0,0-5.568,1.56l1.344,2.616a6.208,6.208,0,0,1,3.72-1.2c2.016,0,2.976.936,2.976,2.544h-2.976c-3.936,0-5.544,1.584-5.544,3.864,0,2.232,1.8,3.912,4.824,3.912,1.9,0,3.24-.624,3.936-1.8V29h3.5V21.632C-251.844,17.72-254.124,15.9-258.06,15.9Zm-.288,10.776c-1.32,0-2.112-.624-2.112-1.56,0-.864.552-1.512,2.3-1.512h2.568v1.32A2.759,2.759,0,0,1-258.348,26.672Zm19.44-15.48v6.264a4.961,4.961,0,0,0-3.864-1.56,6.277,6.277,0,0,0-6.456,6.648,6.277,6.277,0,0,0,6.456,6.648,4.967,4.967,0,0,0,4.032-1.68V29h3.576V11.192Zm-3.216,14.928a3.276,3.276,0,0,1-3.312-3.576,3.276,3.276,0,0,1,3.312-3.576,3.271,3.271,0,0,1,3.288,3.576A3.271,3.271,0,0,1-242.124,26.12ZM-215.172,15.9a5.806,5.806,0,0,0-4.656,2.112,4.82,4.82,0,0,0-4.248-2.112,5.229,5.229,0,0,0-4.056,1.68V16.088h-3.576V29h3.744V22.52c0-2.3,1.176-3.384,2.832-3.384,1.56,0,2.448.96,2.448,3.048V29h3.744V22.52c0-2.3,1.176-3.384,2.856-3.384,1.512,0,2.448.96,2.448,3.048V29h3.744V21.608C-209.892,17.672-212.1,15.9-215.172,15.9Zm10.512-1.608a2.153,2.153,0,0,0,2.328-2.16,2.1,2.1,0,0,0-2.328-2.016,2.14,2.14,0,0,0-2.328,2.088A2.14,2.14,0,0,0-204.66,14.288ZM-206.532,29h3.744V16.088h-3.744Zm15.072-13.1a5.653,5.653,0,0,0-4.272,1.7V16.088h-3.576V29h3.744V22.616c0-2.376,1.3-3.48,3.1-3.48,1.656,0,2.616.96,2.616,3.048V29h3.744V21.608C-186.108,17.672-188.412,15.9-191.46,15.9Zm10.608-1.608a2.153,2.153,0,0,0,2.328-2.16,2.1,2.1,0,0,0-2.328-2.016A2.14,2.14,0,0,0-183.18,12.2,2.14,2.14,0,0,0-180.852,14.288ZM-182.724,29h3.744V16.088h-3.744Zm11.568.192c3.864,0,6.1-1.7,6.1-4.1,0-5.088-7.8-2.952-7.8-5.16,0-.672.72-1.2,2.4-1.2a7.415,7.415,0,0,1,3.72.96l1.248-2.664A10.617,10.617,0,0,0-170.46,15.9c-3.768,0-5.976,1.728-5.976,4.176,0,5.16,7.8,3,7.8,5.112,0,.72-.648,1.176-2.376,1.176a8.834,8.834,0,0,1-4.488-1.248l-1.248,2.688A11.085,11.085,0,0,0-171.156,29.192Zm15.72-3.456a2.523,2.523,0,0,1-1.512.48,1.506,1.506,0,0,1-1.608-1.7V19.256h3.216v-2.88h-3.216V13.232H-162.3v3.144h-1.992v2.88h1.992v5.3c0,3.072,1.776,4.632,4.824,4.632a5.351,5.351,0,0,0,3.048-.816Zm6.7-7.944v-1.7h-3.576V29h3.744V22.9c0-2.472,1.368-3.6,3.432-3.6.288,0,.528.024.84.048V15.9A5.211,5.211,0,0,0-148.74,17.792Zm11.808-1.9a9.926,9.926,0,0,0-5.568,1.56l1.344,2.616a6.208,6.208,0,0,1,3.72-1.2c2.016,0,2.976.936,2.976,2.544h-2.976c-3.936,0-5.544,1.584-5.544,3.864,0,2.232,1.8,3.912,4.824,3.912,1.9,0,3.24-.624,3.936-1.8V29h3.5V21.632C-130.716,17.72-133,15.9-136.932,15.9Zm-.288,10.776c-1.32,0-2.112-.624-2.112-1.56,0-.864.552-1.512,2.3-1.512h2.568v1.32A2.759,2.759,0,0,1-137.22,26.672Zm16.272,2.52c2.712,0,4.848-1.2,5.784-3.264l-2.9-1.584a3.177,3.177,0,0,1-2.9,1.776,3.3,3.3,0,0,1-3.384-3.576,3.3,3.3,0,0,1,3.384-3.576,3.22,3.22,0,0,1,2.9,1.776l2.9-1.56c-.936-2.112-3.072-3.288-5.784-3.288-4.2,0-7.2,2.76-7.2,6.648S-125.148,29.192-120.948,29.192Zm9.816-14.9a2.153,2.153,0,0,0,2.328-2.16,2.1,2.1,0,0,0-2.328-2.016A2.14,2.14,0,0,0-113.46,12.2,2.14,2.14,0,0,0-111.132,14.288ZM-113,29h3.744V16.088H-113Zm11.136-14.568h2.928l4.344-3.456h-4.032Zm2.232,14.76c4.1,0,7.08-2.76,7.08-6.648s-2.976-6.648-7.08-6.648-7.1,2.76-7.1,6.648S-103.74,29.192-99.636,29.192Zm0-3.072a3.276,3.276,0,0,1-3.312-3.576,3.276,3.276,0,0,1,3.312-3.576,3.259,3.259,0,0,1,3.288,3.576A3.259,3.259,0,0,1-99.636,26.12ZM-82.212,15.9a5.653,5.653,0,0,0-4.272,1.7V16.088H-90.06V29h3.744V22.616c0-2.376,1.3-3.48,3.1-3.48,1.656,0,2.616.96,2.616,3.048V29h3.744V21.608C-76.86,17.672-79.164,15.9-82.212,15.9Zm19.872,13.3c3.864,0,6.1-1.7,6.1-4.1,0-5.088-7.8-2.952-7.8-5.16,0-.672.72-1.2,2.4-1.2a7.415,7.415,0,0,1,3.72.96l1.248-2.664A10.617,10.617,0,0,0-61.644,15.9c-3.768,0-5.976,1.728-5.976,4.176,0,5.16,7.8,3,7.8,5.112,0,.72-.648,1.176-2.376,1.176a8.834,8.834,0,0,1-4.488-1.248L-67.932,27.8A11.084,11.084,0,0,0-62.34,29.192Zm21.048-6.6a6.392,6.392,0,0,0-6.72-6.7A6.573,6.573,0,0,0-54.9,22.544c0,3.84,2.9,6.648,7.368,6.648A6.763,6.763,0,0,0-42.2,27.1l-1.992-2.16a4.377,4.377,0,0,1-3.24,1.248,3.443,3.443,0,0,1-3.7-2.592h9.768C-41.34,23.288-41.292,22.88-41.292,22.592Zm-6.7-3.864a3.068,3.068,0,0,1,3.168,2.688h-6.36A3.057,3.057,0,0,1-47.988,18.728Zm18.96-2.64v1.656A5.183,5.183,0,0,0-33.3,15.9a6.147,6.147,0,0,0-6.456,6.24,6.147,6.147,0,0,0,6.456,6.24,5.316,5.316,0,0,0,4.08-1.608v.552c0,2.328-1.152,3.528-3.792,3.528a7.717,7.717,0,0,1-4.56-1.464l-1.488,2.688a10.637,10.637,0,0,0,6.336,1.776c4.656,0,7.248-2.208,7.248-7.008V16.088ZM-32.556,25.3a3.155,3.155,0,0,1-3.408-3.168,3.155,3.155,0,0,1,3.408-3.168,3.135,3.135,0,0,1,3.384,3.168A3.135,3.135,0,0,1-32.556,25.3Zm22.1-14.328h-4.032l-3.24,3.456H-14.8Zm-2.28,5.112v6.384c0,2.376-1.248,3.48-2.976,3.48-1.656,0-2.616-.96-2.616-3.12V16.088h-3.744v7.3c0,3.984,2.28,5.808,5.52,5.808a5.224,5.224,0,0,0,4.008-1.728V29h3.552V16.088ZM2.34,15.9a5.653,5.653,0,0,0-4.272,1.7V16.088H-5.508V29h3.744V22.616c0-2.376,1.3-3.48,3.1-3.48,1.656,0,2.616.96,2.616,3.048V29H7.692V21.608C7.692,17.672,5.388,15.9,2.34,15.9Zm28.176,6.7a6.392,6.392,0,0,0-6.72-6.7,6.574,6.574,0,0,0-6.888,6.648c0,3.84,2.9,6.648,7.368,6.648A6.763,6.763,0,0,0,29.6,27.1l-1.992-2.16a4.377,4.377,0,0,1-3.24,1.248,3.443,3.443,0,0,1-3.7-2.592h9.768C30.468,23.288,30.516,22.88,30.516,22.592Zm-6.7-3.864a3.068,3.068,0,0,1,3.168,2.688h-6.36A3.057,3.057,0,0,1,23.82,18.728ZM33.012,29h3.744V11.192H33.012Zm21.336-3.264a2.523,2.523,0,0,1-1.512.48,1.506,1.506,0,0,1-1.608-1.7V19.256h3.216v-2.88H51.228V13.232H47.484v3.144H45.492v2.88h1.992v5.3c0,3.072,1.776,4.632,4.824,4.632a5.351,5.351,0,0,0,3.048-.816ZM59.34,14.288a2.153,2.153,0,0,0,2.328-2.16,2.1,2.1,0,0,0-2.328-2.016,2.1,2.1,0,1,0,0,4.176ZM57.468,29h3.744V16.088H57.468ZM72.324,15.9a5.017,5.017,0,0,0-4.056,1.68V16.088H64.692V33.656h3.744V27.632a5.013,5.013,0,0,0,3.888,1.56,6.271,6.271,0,0,0,6.432-6.648A6.271,6.271,0,0,0,72.324,15.9ZM71.676,26.12a3.259,3.259,0,0,1-3.288-3.576,3.3,3.3,0,1,1,6.576,0A3.259,3.259,0,0,1,71.676,26.12ZM87.4,29.192c4.1,0,7.08-2.76,7.08-6.648S91.5,15.9,87.4,15.9s-7.1,2.76-7.1,6.648S83.292,29.192,87.4,29.192Zm0-3.072a3.276,3.276,0,0,1-3.312-3.576,3.311,3.311,0,1,1,6.6,0A3.259,3.259,0,0,1,87.4,26.12Zm25.776-14.928v6.264a4.961,4.961,0,0,0-3.864-1.56,6.277,6.277,0,0,0-6.456,6.648,6.277,6.277,0,0,0,6.456,6.648,4.967,4.967,0,0,0,4.032-1.68V29h3.576V11.192ZM109.956,26.12a3.276,3.276,0,0,1-3.312-3.576,3.311,3.311,0,1,1,6.6,0A3.271,3.271,0,0,1,109.956,26.12Zm23.064-3.528a6.392,6.392,0,0,0-6.72-6.7,6.574,6.574,0,0,0-6.888,6.648c0,3.84,2.9,6.648,7.368,6.648a6.763,6.763,0,0,0,5.328-2.088l-1.992-2.16a4.377,4.377,0,0,1-3.24,1.248,3.443,3.443,0,0,1-3.7-2.592h9.768C132.972,23.288,133.02,22.88,133.02,22.592Zm-6.7-3.864a3.068,3.068,0,0,1,3.168,2.688h-6.36A3.057,3.057,0,0,1,126.324,18.728Zm22.128,10.464c4.1,0,7.08-2.76,7.08-6.648s-2.976-6.648-7.08-6.648-7.1,2.76-7.1,6.648S144.348,29.192,148.452,29.192Zm0-3.072a3.276,3.276,0,0,1-3.312-3.576,3.311,3.311,0,1,1,6.6,0A3.259,3.259,0,0,1,148.452,26.12ZM161.6,17.792v-1.7h-3.576V29h3.744V22.9c0-2.472,1.368-3.6,3.432-3.6.288,0,.528.024.84.048V15.9A5.211,5.211,0,0,0,161.6,17.792Zm16.32-1.7v1.656a5.183,5.183,0,0,0-4.272-1.848,6.244,6.244,0,1,0,0,12.48,5.316,5.316,0,0,0,4.08-1.608v.552c0,2.328-1.152,3.528-3.792,3.528a7.717,7.717,0,0,1-4.56-1.464l-1.488,2.688a10.637,10.637,0,0,0,6.336,1.776c4.656,0,7.248-2.208,7.248-7.008V16.088ZM174.4,25.3a3.175,3.175,0,1,1,3.384-3.168A3.155,3.155,0,0,1,174.4,25.3ZM190.164,15.9a9.926,9.926,0,0,0-5.568,1.56l1.344,2.616a6.208,6.208,0,0,1,3.72-1.2c2.016,0,2.976.936,2.976,2.544H189.66c-3.936,0-5.544,1.584-5.544,3.864,0,2.232,1.8,3.912,4.824,3.912,1.9,0,3.24-.624,3.936-1.8V29h3.5V21.632C196.38,17.72,194.1,15.9,190.164,15.9Zm-.288,10.776c-1.32,0-2.112-.624-2.112-1.56,0-.864.552-1.512,2.3-1.512h2.568v1.32A2.759,2.759,0,0,1,189.876,26.672ZM207.612,15.9a5.653,5.653,0,0,0-4.272,1.7V16.088h-3.576V29h3.744V22.616c0-2.376,1.3-3.48,3.1-3.48,1.656,0,2.616.96,2.616,3.048V29h3.744V21.608C212.964,17.672,210.66,15.9,207.612,15.9Zm10.608-1.608a2.153,2.153,0,0,0,2.328-2.16,2.1,2.1,0,0,0-2.328-2.016,2.1,2.1,0,1,0,0,4.176ZM216.348,29h3.744V16.088h-3.744Zm11.064-2.88,6.576-7.776V16.088H222.852v2.88h6.408l-6.576,7.776V29H234.2V26.12Zm14.4-10.224a9.926,9.926,0,0,0-5.568,1.56l1.344,2.616a6.208,6.208,0,0,1,3.72-1.2c2.016,0,2.976.936,2.976,2.544h-2.976c-3.936,0-5.544,1.584-5.544,3.864,0,2.232,1.8,3.912,4.824,3.912,1.9,0,3.24-.624,3.936-1.8V29h3.5V21.632C248.028,17.72,245.748,15.9,241.812,15.9Zm-.288,10.776c-1.32,0-2.112-.624-2.112-1.56,0-.864.552-1.512,2.3-1.512h2.568v1.32A2.759,2.759,0,0,1,241.524,26.672Zm16.272,2.52c2.712,0,4.848-1.2,5.784-3.264l-2.9-1.584a3.177,3.177,0,0,1-2.9,1.776,3.3,3.3,0,0,1-3.384-3.576,3.3,3.3,0,0,1,3.384-3.576,3.22,3.22,0,0,1,2.9,1.776l2.9-1.56c-.936-2.112-3.072-3.288-5.784-3.288-4.2,0-7.2,2.76-7.2,6.648S253.6,29.192,257.8,29.192Zm9.816-14.9a2.153,2.153,0,0,0,2.328-2.16,2.1,2.1,0,0,0-2.328-2.016,2.1,2.1,0,1,0,0,4.176ZM265.74,29h3.744V16.088H265.74Zm11.136-14.568H279.8l4.344-3.456h-4.032Zm2.232,14.76c4.1,0,7.08-2.76,7.08-6.648s-2.976-6.648-7.08-6.648-7.1,2.76-7.1,6.648S275,29.192,279.108,29.192Zm0-3.072a3.276,3.276,0,0,1-3.312-3.576,3.311,3.311,0,1,1,6.6,0A3.259,3.259,0,0,1,279.108,26.12ZM296.532,15.9a5.653,5.653,0,0,0-4.272,1.7V16.088h-3.576V29h3.744V22.616c0-2.376,1.3-3.48,3.1-3.48,1.656,0,2.616.96,2.616,3.048V29h3.744V21.608C301.884,17.672,299.58,15.9,296.532,15.9Z" transform="translate(968 2920)" fill="#148e9f"/>
    <g id="Rectángulo_2192" data-name="Rectángulo 2192" transform="translate(557 3054)" fill="#fff" stroke="#8de2ed" stroke-width="2">
      <rect width="806" height="109" rx="54.5" stroke="none"/>
      <rect x="1" y="1" width="804" height="107" rx="53.5" fill="none"/>
    </g>
    <path id="Trazado_19966" data-name="Trazado 19966" d="M-240.4,0h12.312V-3.168h-8.424V-16.8H-240.4Zm19.584-13.1a9.926,9.926,0,0,0-5.568,1.56l1.344,2.616a6.208,6.208,0,0,1,3.72-1.2c2.016,0,2.976.936,2.976,2.544h-2.976c-3.936,0-5.544,1.584-5.544,3.864,0,2.232,1.8,3.912,4.824,3.912,1.9,0,3.24-.624,3.936-1.8V0h3.5V-7.368C-214.6-11.28-216.876-13.1-220.812-13.1ZM-221.1-2.328c-1.32,0-2.112-.624-2.112-1.56,0-.864.552-1.512,2.3-1.512h2.568v1.32A2.759,2.759,0,0,1-221.1-2.328Zm26.448-10.584v1.656a5.183,5.183,0,0,0-4.272-1.848,6.147,6.147,0,0,0-6.456,6.24,6.147,6.147,0,0,0,6.456,6.24,5.316,5.316,0,0,0,4.08-1.608v.552c0,2.328-1.152,3.528-3.792,3.528A7.717,7.717,0,0,1-203.2.384l-1.488,2.688a10.637,10.637,0,0,0,6.336,1.776c4.656,0,7.248-2.208,7.248-7.008V-12.912ZM-198.18-3.7a3.155,3.155,0,0,1-3.408-3.168,3.155,3.155,0,0,1,3.408-3.168A3.135,3.135,0,0,1-194.8-6.864,3.135,3.135,0,0,1-198.18-3.7Zm23.208-2.712a6.392,6.392,0,0,0-6.72-6.7,6.573,6.573,0,0,0-6.888,6.648c0,3.84,2.9,6.648,7.368,6.648A6.763,6.763,0,0,0-175.884-1.9l-1.992-2.16a4.377,4.377,0,0,1-3.24,1.248,3.443,3.443,0,0,1-3.7-2.592h9.768C-175.02-5.712-174.972-6.12-174.972-6.408Zm-6.7-3.864A3.068,3.068,0,0,1-178.5-7.584h-6.36A3.057,3.057,0,0,1-181.668-10.272Zm12.768-.936v-1.7h-3.576V0h3.744V-6.1c0-2.472,1.368-3.6,3.432-3.6.288,0,.528.024.84.048V-13.1A5.211,5.211,0,0,0-168.9-11.208Zm19.2,4.8a6.392,6.392,0,0,0-6.72-6.7,6.573,6.573,0,0,0-6.888,6.648c0,3.84,2.9,6.648,7.368,6.648A6.763,6.763,0,0,0-150.612-1.9l-1.992-2.16a4.377,4.377,0,0,1-3.24,1.248,3.443,3.443,0,0,1-3.7-2.592h9.768C-149.748-5.712-149.7-6.12-149.7-6.408Zm-6.7-3.864a3.068,3.068,0,0,1,3.168,2.688h-6.36A3.057,3.057,0,0,1-156.4-10.272Zm17.04-2.832a5.653,5.653,0,0,0-4.272,1.7v-1.512H-147.2V0h3.744V-6.384c0-2.376,1.3-3.48,3.1-3.48,1.656,0,2.616.96,2.616,3.048V0H-134V-7.392C-134-11.328-136.308-13.1-139.356-13.1Zm15.12,13.3c2.712,0,4.848-1.2,5.784-3.264l-2.9-1.584a3.177,3.177,0,0,1-2.9,1.776,3.3,3.3,0,0,1-3.384-3.576,3.3,3.3,0,0,1,3.384-3.576,3.22,3.22,0,0,1,2.9,1.776l2.9-1.56c-.936-2.112-3.072-3.288-5.784-3.288-4.2,0-7.2,2.76-7.2,6.648S-128.436.192-124.236.192Zm9.816-14.9a2.153,2.153,0,0,0,2.328-2.16,2.1,2.1,0,0,0-2.328-2.016,2.14,2.14,0,0,0-2.328,2.088A2.14,2.14,0,0,0-114.42-14.712ZM-116.292,0h3.744V-12.912h-3.744Zm12.432-13.1a9.926,9.926,0,0,0-5.568,1.56l1.344,2.616a6.208,6.208,0,0,1,3.72-1.2c2.016,0,2.976.936,2.976,2.544h-2.976c-3.936,0-5.544,1.584-5.544,3.864,0,2.232,1.8,3.912,4.824,3.912,1.9,0,3.24-.624,3.936-1.8V0h3.5V-7.368C-97.644-11.28-99.924-13.1-103.86-13.1Zm-.288,10.776c-1.32,0-2.112-.624-2.112-1.56,0-.864.552-1.512,2.3-1.512h2.568v1.32A2.759,2.759,0,0,1-104.148-2.328ZM-92.82-4.464a2.224,2.224,0,0,0-2.328,2.3,2.082,2.082,0,0,0,1.3,2.04L-94.908,3.7h2.376L-91.164.24a5.58,5.58,0,0,0,.648-2.4A2.2,2.2,0,0,0-92.82-4.464ZM-81.18,0h3.744V-17.808H-81.18Zm12.432-13.1a9.926,9.926,0,0,0-5.568,1.56l1.344,2.616a6.208,6.208,0,0,1,3.72-1.2c2.016,0,2.976.936,2.976,2.544h-2.976C-73.188-7.584-74.8-6-74.8-3.72c0,2.232,1.8,3.912,4.824,3.912,1.9,0,3.24-.624,3.936-1.8V0h3.5V-7.368C-62.532-11.28-64.812-13.1-68.748-13.1Zm-.288,10.776c-1.32,0-2.112-.624-2.112-1.56,0-.864.552-1.512,2.3-1.512h2.568v1.32A2.759,2.759,0,0,1-69.036-2.328Zm26.088-15.48v6.264a4.961,4.961,0,0,0-3.864-1.56,6.277,6.277,0,0,0-6.456,6.648A6.277,6.277,0,0,0-46.812.192a4.967,4.967,0,0,0,4.032-1.68V0H-39.2V-17.808ZM-46.164-2.88a3.276,3.276,0,0,1-3.312-3.576,3.276,3.276,0,0,1,3.312-3.576,3.271,3.271,0,0,1,3.288,3.576A3.271,3.271,0,0,1-46.164-2.88Zm12.288-11.832a2.153,2.153,0,0,0,2.328-2.16,2.1,2.1,0,0,0-2.328-2.016A2.14,2.14,0,0,0-36.2-16.8,2.14,2.14,0,0,0-33.876-14.712ZM-35.748,0H-32V-12.912h-3.744Zm10.8-11.208v-1.7h-3.576V0h3.744V-6.1c0-2.472,1.368-3.6,3.432-3.6.288,0,.528.024.84.048V-13.1A5.211,5.211,0,0,0-24.948-11.208Zm19.2,4.8a6.392,6.392,0,0,0-6.72-6.7,6.573,6.573,0,0,0-6.888,6.648c0,3.84,2.9,6.648,7.368,6.648A6.763,6.763,0,0,0-6.66-1.9l-1.992-2.16a4.377,4.377,0,0,1-3.24,1.248,3.443,3.443,0,0,1-3.7-2.592H-5.82C-5.8-5.712-5.748-6.12-5.748-6.408Zm-6.7-3.864A3.068,3.068,0,0,1-9.276-7.584h-6.36A3.057,3.057,0,0,1-12.444-10.272ZM2.988.192c2.712,0,4.848-1.2,5.784-3.264l-2.9-1.584a3.177,3.177,0,0,1-2.9,1.776A3.3,3.3,0,0,1-.42-6.456a3.3,3.3,0,0,1,3.384-3.576,3.22,3.22,0,0,1,2.9,1.776l2.9-1.56C7.836-11.928,5.7-13.1,2.988-13.1c-4.2,0-7.2,2.76-7.2,6.648S-1.212.192,2.988.192ZM17,.192c2.712,0,4.848-1.2,5.784-3.264l-2.9-1.584a3.177,3.177,0,0,1-2.9,1.776A3.3,3.3,0,0,1,13.6-6.456a3.3,3.3,0,0,1,3.384-3.576,3.22,3.22,0,0,1,2.9,1.776l2.9-1.56C21.852-11.928,19.716-13.1,17-13.1c-4.2,0-7.2,2.76-7.2,6.648S12.8.192,17,.192Zm9.816-14.9a2.153,2.153,0,0,0,2.328-2.16,2.1,2.1,0,0,0-2.328-2.016A2.14,2.14,0,0,0,24.492-16.8,2.14,2.14,0,0,0,26.82-14.712ZM24.948,0h3.744V-12.912H24.948ZM36.084-14.568h2.928l4.344-3.456H39.324ZM38.316.192c4.1,0,7.08-2.76,7.08-6.648S42.42-13.1,38.316-13.1s-7.1,2.76-7.1,6.648S34.212.192,38.316.192Zm0-3.072A3.276,3.276,0,0,1,35-6.456a3.276,3.276,0,0,1,3.312-3.576A3.259,3.259,0,0,1,41.6-6.456,3.259,3.259,0,0,1,38.316-2.88ZM55.74-13.1a5.653,5.653,0,0,0-4.272,1.7v-1.512H47.892V0h3.744V-6.384c0-2.376,1.3-3.48,3.1-3.48,1.656,0,2.616.96,2.616,3.048V0h3.744V-7.392C61.092-11.328,58.788-13.1,55.74-13.1Zm28.176,6.7a6.392,6.392,0,0,0-6.72-6.7,6.574,6.574,0,0,0-6.888,6.648c0,3.84,2.9,6.648,7.368,6.648A6.763,6.763,0,0,0,83-1.9l-1.992-2.16a4.377,4.377,0,0,1-3.24,1.248,3.443,3.443,0,0,1-3.7-2.592h9.768C83.868-5.712,83.916-6.12,83.916-6.408Zm-6.7-3.864a3.068,3.068,0,0,1,3.168,2.688h-6.36A3.057,3.057,0,0,1,77.22-10.272Zm11.232-4.44a2.153,2.153,0,0,0,2.328-2.16,2.1,2.1,0,0,0-2.328-2.016A2.14,2.14,0,0,0,86.124-16.8,2.14,2.14,0,0,0,88.452-14.712Zm-3,19.56A4.479,4.479,0,0,0,90.324-.024V-12.912H86.58V0c0,1.272-.6,1.872-1.536,1.872a2.746,2.746,0,0,1-1.584-.456L82.452,4.128A5.452,5.452,0,0,0,85.452,4.848ZM106.428-6.408a6.392,6.392,0,0,0-6.72-6.7A6.574,6.574,0,0,0,92.82-6.456c0,3.84,2.9,6.648,7.368,6.648A6.763,6.763,0,0,0,105.516-1.9l-1.992-2.16a4.377,4.377,0,0,1-3.24,1.248,3.443,3.443,0,0,1-3.7-2.592h9.768C106.38-5.712,106.428-6.12,106.428-6.408Zm-6.7-3.864A3.068,3.068,0,0,1,102.9-7.584H96.54A3.057,3.057,0,0,1,99.732-10.272ZM115.164.192c2.712,0,4.848-1.2,5.784-3.264l-2.9-1.584a3.177,3.177,0,0,1-2.9,1.776,3.3,3.3,0,0,1-3.384-3.576,3.3,3.3,0,0,1,3.384-3.576,3.22,3.22,0,0,1,2.9,1.776l2.9-1.56c-.936-2.112-3.072-3.288-5.784-3.288-4.2,0-7.2,2.76-7.2,6.648S110.964.192,115.164.192Zm17.208-13.1v6.384c0,2.376-1.248,3.48-2.976,3.48-1.656,0-2.616-.96-2.616-3.12v-6.744h-3.744v7.3c0,3.984,2.28,5.808,5.52,5.808a5.224,5.224,0,0,0,4.008-1.728V0h3.552V-12.912Zm14.544,9.648a2.523,2.523,0,0,1-1.512.48,1.506,1.506,0,0,1-1.608-1.7V-9.744h3.216v-2.88H143.8v-3.144h-3.744v3.144H138.06v2.88h1.992v5.3c0,3.072,1.776,4.632,4.824,4.632a5.351,5.351,0,0,0,3.048-.816Zm4.992-11.448a2.153,2.153,0,0,0,2.328-2.16,2.1,2.1,0,0,0-2.328-2.016A2.14,2.14,0,0,0,149.58-16.8,2.14,2.14,0,0,0,151.908-14.712ZM150.036,0h3.744V-12.912h-3.744Zm16.44-12.912-3.7,8.784L159.2-12.912H155.34L160.764,0h3.864l5.448-12.912Zm9.912-.192a9.926,9.926,0,0,0-5.568,1.56l1.344,2.616a6.208,6.208,0,0,1,3.72-1.2c2.016,0,2.976.936,2.976,2.544h-2.976c-3.936,0-5.544,1.584-5.544,3.864,0,2.232,1.8,3.912,4.824,3.912,1.9,0,3.24-.624,3.936-1.8V0h3.5V-7.368C182.6-11.28,180.324-13.1,176.388-13.1ZM176.1-2.328c-1.32,0-2.112-.624-2.112-1.56,0-.864.552-1.512,2.3-1.512h2.568v1.32A2.759,2.759,0,0,1,176.1-2.328ZM198.924.192c4.1,0,7.08-2.76,7.08-6.648s-2.976-6.648-7.08-6.648-7.1,2.76-7.1,6.648S194.82.192,198.924.192Zm0-3.072a3.276,3.276,0,0,1-3.312-3.576,3.276,3.276,0,0,1,3.312-3.576,3.259,3.259,0,0,1,3.288,3.576A3.259,3.259,0,0,1,198.924-2.88ZM215.292,0h3.744V-17.808h-3.744Zm12.432-13.1a9.926,9.926,0,0,0-5.568,1.56L223.5-8.928a6.208,6.208,0,0,1,3.72-1.2c2.016,0,2.976.936,2.976,2.544H227.22c-3.936,0-5.544,1.584-5.544,3.864,0,2.232,1.8,3.912,4.824,3.912,1.9,0,3.24-.624,3.936-1.8V0h3.5V-7.368C233.94-11.28,231.66-13.1,227.724-13.1Zm-.288,10.776c-1.32,0-2.112-.624-2.112-1.56,0-.864.552-1.512,2.3-1.512H230.2v1.32A2.759,2.759,0,0,1,227.436-2.328Zm-351.468,20.12v-1.7h-3.576V29h3.744V22.9c0-2.472,1.368-3.6,3.432-3.6.288,0,.528.024.84.048V15.9A5.211,5.211,0,0,0-124.032,17.792Zm19.2,4.8a6.392,6.392,0,0,0-6.72-6.7,6.574,6.574,0,0,0-6.888,6.648c0,3.84,2.9,6.648,7.368,6.648a6.763,6.763,0,0,0,5.328-2.088l-1.992-2.16a4.377,4.377,0,0,1-3.24,1.248,3.443,3.443,0,0,1-3.7-2.592h9.768C-104.88,23.288-104.832,22.88-104.832,22.592Zm-6.7-3.864a3.068,3.068,0,0,1,3.168,2.688h-6.36A3.057,3.057,0,0,1-111.528,18.728ZM-94.7,15.9a5.017,5.017,0,0,0-4.056,1.68V16.088h-3.576V33.656h3.744V27.632a5.013,5.013,0,0,0,3.888,1.56,6.271,6.271,0,0,0,6.432-6.648A6.271,6.271,0,0,0-94.7,15.9Zm-.648,10.224a3.259,3.259,0,0,1-3.288-3.576,3.259,3.259,0,0,1,3.288-3.576,3.259,3.259,0,0,1,3.288,3.576A3.259,3.259,0,0,1-95.352,26.12ZM-82.2,17.792v-1.7h-3.576V29h3.744V22.9c0-2.472,1.368-3.6,3.432-3.6.288,0,.528.024.84.048V15.9A5.211,5.211,0,0,0-82.2,17.792Zm19.2,4.8a6.392,6.392,0,0,0-6.72-6.7,6.574,6.574,0,0,0-6.888,6.648c0,3.84,2.9,6.648,7.368,6.648A6.763,6.763,0,0,0-63.912,27.1l-1.992-2.16a4.377,4.377,0,0,1-3.24,1.248,3.443,3.443,0,0,1-3.7-2.592h9.768C-63.048,23.288-63,22.88-63,22.592Zm-6.7-3.864a3.068,3.068,0,0,1,3.168,2.688h-6.36A3.057,3.057,0,0,1-69.7,18.728ZM-56.16,29.192c3.864,0,6.1-1.7,6.1-4.1,0-5.088-7.8-2.952-7.8-5.16,0-.672.72-1.2,2.4-1.2a7.415,7.415,0,0,1,3.72.96l1.248-2.664A10.617,10.617,0,0,0-55.464,15.9c-3.768,0-5.976,1.728-5.976,4.176,0,5.16,7.8,3,7.8,5.112,0,.72-.648,1.176-2.376,1.176A8.834,8.834,0,0,1-60.5,25.112L-61.752,27.8A11.085,11.085,0,0,0-56.16,29.192Zm21.048-6.6a6.392,6.392,0,0,0-6.72-6.7,6.573,6.573,0,0,0-6.888,6.648c0,3.84,2.9,6.648,7.368,6.648A6.763,6.763,0,0,0-36.024,27.1l-1.992-2.16a4.377,4.377,0,0,1-3.24,1.248,3.443,3.443,0,0,1-3.7-2.592h9.768C-35.16,23.288-35.112,22.88-35.112,22.592Zm-6.7-3.864a3.068,3.068,0,0,1,3.168,2.688H-45A3.057,3.057,0,0,1-41.808,18.728Zm17.04-2.832a5.653,5.653,0,0,0-4.272,1.7V16.088h-3.576V29h3.744V22.616c0-2.376,1.3-3.48,3.1-3.48,1.656,0,2.616.96,2.616,3.048V29h3.744V21.608C-19.416,17.672-21.72,15.9-24.768,15.9Zm16.056,9.84a2.523,2.523,0,0,1-1.512.48,1.506,1.506,0,0,1-1.608-1.7V19.256h3.216v-2.88h-3.216V13.232h-3.744v3.144h-1.992v2.88h1.992v5.3c0,3.072,1.776,4.632,4.824,4.632A5.351,5.351,0,0,0-7.7,28.376ZM-.384,15.9a9.926,9.926,0,0,0-5.568,1.56l1.344,2.616a6.208,6.208,0,0,1,3.72-1.2c2.016,0,2.976.936,2.976,2.544H-.888c-3.936,0-5.544,1.584-5.544,3.864,0,2.232,1.8,3.912,4.824,3.912,1.9,0,3.24-.624,3.936-1.8V29h3.5V21.632C5.832,17.72,3.552,15.9-.384,15.9ZM-.672,26.672c-1.32,0-2.112-.624-2.112-1.56,0-.864.552-1.512,2.3-1.512H2.088v1.32A2.759,2.759,0,0,1-.672,26.672ZM15.6,29.192c2.712,0,4.848-1.2,5.784-3.264l-2.9-1.584a3.177,3.177,0,0,1-2.9,1.776,3.3,3.3,0,0,1-3.384-3.576,3.3,3.3,0,0,1,3.384-3.576,3.22,3.22,0,0,1,2.9,1.776l2.9-1.56C20.448,17.072,18.312,15.9,15.6,15.9c-4.2,0-7.2,2.76-7.2,6.648S11.4,29.192,15.6,29.192Zm9.816-14.9a2.153,2.153,0,0,0,2.328-2.16,2.1,2.1,0,0,0-2.328-2.016,2.1,2.1,0,1,0,0,4.176ZM23.544,29h3.744V16.088H23.544ZM34.68,14.432h2.928l4.344-3.456H37.92Zm2.232,14.76c4.1,0,7.08-2.76,7.08-6.648S41.016,15.9,36.912,15.9s-7.1,2.76-7.1,6.648S32.808,29.192,36.912,29.192Zm0-3.072A3.276,3.276,0,0,1,33.6,22.544a3.311,3.311,0,1,1,6.6,0A3.259,3.259,0,0,1,36.912,26.12ZM54.336,15.9a5.653,5.653,0,0,0-4.272,1.7V16.088H46.488V29h3.744V22.616c0-2.376,1.3-3.48,3.1-3.48,1.656,0,2.616.96,2.616,3.048V29h3.744V21.608C59.688,17.672,57.384,15.9,54.336,15.9ZM69.864,29h3.744V11.192H69.864Zm19.872-6.408a6.392,6.392,0,0,0-6.72-6.7,6.574,6.574,0,0,0-6.888,6.648c0,3.84,2.9,6.648,7.368,6.648A6.763,6.763,0,0,0,88.824,27.1l-1.992-2.16a4.377,4.377,0,0,1-3.24,1.248A3.443,3.443,0,0,1,79.9,23.6h9.768C89.688,23.288,89.736,22.88,89.736,22.592Zm-6.7-3.864a3.068,3.068,0,0,1,3.168,2.688h-6.36A3.057,3.057,0,0,1,83.04,18.728ZM102,16.088v1.656A5.183,5.183,0,0,0,97.728,15.9a6.244,6.244,0,1,0,0,12.48,5.316,5.316,0,0,0,4.08-1.608v.552c0,2.328-1.152,3.528-3.792,3.528a7.717,7.717,0,0,1-4.56-1.464l-1.488,2.688A10.637,10.637,0,0,0,98.3,33.848c4.656,0,7.248-2.208,7.248-7.008V16.088ZM98.472,25.3a3.175,3.175,0,1,1,3.384-3.168A3.155,3.155,0,0,1,98.472,25.3ZM114.24,15.9a9.926,9.926,0,0,0-5.568,1.56l1.344,2.616a6.208,6.208,0,0,1,3.72-1.2c2.016,0,2.976.936,2.976,2.544h-2.976c-3.936,0-5.544,1.584-5.544,3.864,0,2.232,1.8,3.912,4.824,3.912,1.9,0,3.24-.624,3.936-1.8V29h3.5V21.632C120.456,17.72,118.176,15.9,114.24,15.9Zm-.288,10.776c-1.32,0-2.112-.624-2.112-1.56,0-.864.552-1.512,2.3-1.512h2.568v1.32A2.759,2.759,0,0,1,113.952,26.672ZM123.84,29h3.744V11.192H123.84Z" transform="translate(968 3103)" fill="#148e9f"/>
    <g id="Rectángulo_2193" data-name="Rectángulo 2193" transform="translate(557 3245)" fill="#fff" stroke="#8de2ed" stroke-width="2">
      <rect width="806" height="109" rx="54.5" stroke="none"/>
      <rect x="1" y="1" width="804" height="107" rx="53.5" fill="none"/>
    </g>
    <path id="Trazado_19967" data-name="Trazado 19967" d="M-311.748,0h12.312V-3.168h-8.424V-16.8h-3.888Zm19.584-13.1a9.926,9.926,0,0,0-5.568,1.56l1.344,2.616a6.208,6.208,0,0,1,3.72-1.2c2.016,0,2.976.936,2.976,2.544h-2.976c-3.936,0-5.544,1.584-5.544,3.864,0,2.232,1.8,3.912,4.824,3.912,1.9,0,3.24-.624,3.936-1.8V0h3.5V-7.368C-285.948-11.28-288.228-13.1-292.164-13.1Zm-.288,10.776c-1.32,0-2.112-.624-2.112-1.56,0-.864.552-1.512,2.3-1.512h2.568v1.32A2.759,2.759,0,0,1-292.452-2.328Zm18.72-12.384a2.153,2.153,0,0,0,2.328-2.16,2.1,2.1,0,0,0-2.328-2.016A2.14,2.14,0,0,0-276.06-16.8,2.14,2.14,0,0,0-273.732-14.712Zm-3,19.56A4.479,4.479,0,0,0-271.86-.024V-12.912H-275.6V0c0,1.272-.6,1.872-1.536,1.872a2.746,2.746,0,0,1-1.584-.456l-1.008,2.712A5.452,5.452,0,0,0-276.732,4.848Zm17.592-17.76v6.384c0,2.376-1.248,3.48-2.976,3.48-1.656,0-2.616-.96-2.616-3.12v-6.744h-3.744v7.3c0,3.984,2.28,5.808,5.52,5.808a5.224,5.224,0,0,0,4.008-1.728V0h3.552V-12.912Zm15.072-.192a5.653,5.653,0,0,0-4.272,1.7v-1.512h-3.576V0h3.744V-6.384c0-2.376,1.3-3.48,3.1-3.48,1.656,0,2.616.96,2.616,3.048V0h3.744V-7.392C-238.716-11.328-241.02-13.1-244.068-13.1Zm16.056,9.84a2.523,2.523,0,0,1-1.512.48,1.506,1.506,0,0,1-1.608-1.7V-9.744h3.216v-2.88h-3.216v-3.144h-3.744v3.144h-1.992v2.88h1.992v5.3c0,3.072,1.776,4.632,4.824,4.632A5.351,5.351,0,0,0-227-.624Zm8.328-9.84a9.926,9.926,0,0,0-5.568,1.56l1.344,2.616a6.208,6.208,0,0,1,3.72-1.2c2.016,0,2.976.936,2.976,2.544h-2.976c-3.936,0-5.544,1.584-5.544,3.864,0,2.232,1.8,3.912,4.824,3.912,1.9,0,3.24-.624,3.936-1.8V0h3.5V-7.368C-213.468-11.28-215.748-13.1-219.684-13.1Zm-.288,10.776c-1.32,0-2.112-.624-2.112-1.56,0-.864.552-1.512,2.3-1.512h2.568v1.32A2.759,2.759,0,0,1-219.972-2.328Zm26.088-15.48v6.264a4.961,4.961,0,0,0-3.864-1.56A6.277,6.277,0,0,0-204.2-6.456,6.277,6.277,0,0,0-197.748.192a4.967,4.967,0,0,0,4.032-1.68V0h3.576V-17.808ZM-197.1-2.88a3.276,3.276,0,0,1-3.312-3.576,3.276,3.276,0,0,1,3.312-3.576,3.271,3.271,0,0,1,3.288,3.576A3.271,3.271,0,0,1-197.1-2.88Zm23.064-3.528a6.392,6.392,0,0,0-6.72-6.7,6.573,6.573,0,0,0-6.888,6.648c0,3.84,2.9,6.648,7.368,6.648A6.763,6.763,0,0,0-174.948-1.9l-1.992-2.16a4.377,4.377,0,0,1-3.24,1.248,3.443,3.443,0,0,1-3.7-2.592h9.768C-174.084-5.712-174.036-6.12-174.036-6.408Zm-6.7-3.864a3.068,3.068,0,0,1,3.168,2.688h-6.36A3.057,3.057,0,0,1-180.732-10.272Zm25.2-2.64-3.7,8.784-3.576-8.784h-3.864L-161.244,0h3.864l5.448-12.912Zm7.008-1.8a2.153,2.153,0,0,0,2.328-2.16,2.1,2.1,0,0,0-2.328-2.016,2.14,2.14,0,0,0-2.328,2.088A2.14,2.14,0,0,0-148.524-14.712ZM-150.4,0h3.744V-12.912H-150.4ZM-133.4-12.912v1.656a5.183,5.183,0,0,0-4.272-1.848,6.147,6.147,0,0,0-6.456,6.24,6.147,6.147,0,0,0,6.456,6.24,5.316,5.316,0,0,0,4.08-1.608v.552c0,2.328-1.152,3.528-3.792,3.528a7.717,7.717,0,0,1-4.56-1.464l-1.488,2.688A10.637,10.637,0,0,0-137.1,4.848c4.656,0,7.248-2.208,7.248-7.008V-12.912ZM-136.932-3.7a3.155,3.155,0,0,1-3.408-3.168,3.155,3.155,0,0,1,3.408-3.168,3.135,3.135,0,0,1,3.384,3.168A3.135,3.135,0,0,1-136.932-3.7ZM-124.5-14.712a2.153,2.153,0,0,0,2.328-2.16,2.1,2.1,0,0,0-2.328-2.016,2.14,2.14,0,0,0-2.328,2.088A2.14,2.14,0,0,0-124.5-14.712ZM-126.372,0h3.744V-12.912h-3.744Zm7.224,0h3.744V-17.808h-3.744Zm12.432-13.1a9.926,9.926,0,0,0-5.568,1.56l1.344,2.616a6.208,6.208,0,0,1,3.72-1.2c2.016,0,2.976.936,2.976,2.544h-2.976c-3.936,0-5.544,1.584-5.544,3.864,0,2.232,1.8,3.912,4.824,3.912,1.9,0,3.24-.624,3.936-1.8V0h3.5V-7.368C-100.5-11.28-102.78-13.1-106.716-13.1ZM-107-2.328c-1.32,0-2.112-.624-2.112-1.56,0-.864.552-1.512,2.3-1.512h2.568v1.32A2.759,2.759,0,0,1-107-2.328ZM-89.268-13.1a5.653,5.653,0,0,0-4.272,1.7v-1.512h-3.576V0h3.744V-6.384c0-2.376,1.3-3.48,3.1-3.48,1.656,0,2.616.96,2.616,3.048V0h3.744V-7.392C-83.916-11.328-86.22-13.1-89.268-13.1Zm15.12,13.3c2.712,0,4.848-1.2,5.784-3.264l-2.9-1.584a3.177,3.177,0,0,1-2.9,1.776,3.3,3.3,0,0,1-3.384-3.576,3.3,3.3,0,0,1,3.384-3.576,3.22,3.22,0,0,1,2.9,1.776l2.9-1.56c-.936-2.112-3.072-3.288-5.784-3.288-4.2,0-7.2,2.76-7.2,6.648S-78.348.192-74.148.192Zm9.816-14.9A2.153,2.153,0,0,0-62-16.872a2.1,2.1,0,0,0-2.328-2.016A2.14,2.14,0,0,0-66.66-16.8,2.14,2.14,0,0,0-64.332-14.712ZM-66.2,0h3.744V-12.912H-66.2Zm12.432-13.1a9.926,9.926,0,0,0-5.568,1.56L-58-8.928a6.208,6.208,0,0,1,3.72-1.2c2.016,0,2.976.936,2.976,2.544h-2.976C-58.212-7.584-59.82-6-59.82-3.72c0,2.232,1.8,3.912,4.824,3.912,1.9,0,3.24-.624,3.936-1.8V0h3.5V-7.368C-47.556-11.28-49.836-13.1-53.772-13.1ZM-54.06-2.328c-1.32,0-2.112-.624-2.112-1.56,0-.864.552-1.512,2.3-1.512H-51.3v1.32A2.759,2.759,0,0,1-54.06-2.328ZM-31.236.192c4.1,0,7.08-2.76,7.08-6.648s-2.976-6.648-7.08-6.648-7.1,2.76-7.1,6.648S-35.34.192-31.236.192Zm0-3.072a3.276,3.276,0,0,1-3.312-3.576,3.276,3.276,0,0,1,3.312-3.576,3.259,3.259,0,0,1,3.288,3.576A3.259,3.259,0,0,1-31.236-2.88ZM-2.22-6.408a6.392,6.392,0,0,0-6.72-6.7,6.574,6.574,0,0,0-6.888,6.648c0,3.84,2.9,6.648,7.368,6.648A6.763,6.763,0,0,0-3.132-1.9l-1.992-2.16a4.377,4.377,0,0,1-3.24,1.248A3.443,3.443,0,0,1-12.06-5.4h9.768C-2.268-5.712-2.22-6.12-2.22-6.408Zm-6.7-3.864A3.068,3.068,0,0,1-5.748-7.584h-6.36A3.057,3.057,0,0,1-8.916-10.272ZM.276,0H4.02V-17.808H.276ZM20.532.192c2.712,0,4.848-1.2,5.784-3.264l-2.9-1.584a3.177,3.177,0,0,1-2.9,1.776,3.3,3.3,0,0,1-3.384-3.576,3.3,3.3,0,0,1,3.384-3.576,3.22,3.22,0,0,1,2.9,1.776l2.9-1.56c-.936-2.112-3.072-3.288-5.784-3.288-4.2,0-7.2,2.76-7.2,6.648S16.332.192,20.532.192Zm13.92,0c4.1,0,7.08-2.76,7.08-6.648S38.556-13.1,34.452-13.1s-7.1,2.76-7.1,6.648S30.348.192,34.452.192Zm0-3.072A3.276,3.276,0,0,1,31.14-6.456a3.276,3.276,0,0,1,3.312-3.576A3.259,3.259,0,0,1,37.74-6.456,3.259,3.259,0,0,1,34.452-2.88ZM60.564-13.1a5.806,5.806,0,0,0-4.656,2.112A4.82,4.82,0,0,0,51.66-13.1a5.229,5.229,0,0,0-4.056,1.68v-1.488H44.028V0h3.744V-6.48c0-2.3,1.176-3.384,2.832-3.384,1.56,0,2.448.96,2.448,3.048V0H56.8V-6.48c0-2.3,1.176-3.384,2.856-3.384,1.512,0,2.448.96,2.448,3.048V0h3.744V-7.392C65.844-11.328,63.636-13.1,60.564-13.1Zm10.512-1.608a2.153,2.153,0,0,0,2.328-2.16,2.1,2.1,0,0,0-2.328-2.016A2.14,2.14,0,0,0,68.748-16.8,2.14,2.14,0,0,0,71.076-14.712ZM69.2,0h3.744V-12.912H69.2ZM83.748-3.264a2.523,2.523,0,0,1-1.512.48,1.506,1.506,0,0,1-1.608-1.7V-9.744h3.216v-2.88H80.628v-3.144H76.884v3.144H74.892v2.88h1.992v5.3c0,3.072,1.776,4.632,4.824,4.632a5.351,5.351,0,0,0,3.048-.816ZM97.4-18.024H93.372l-3.24,3.456H93.06Zm1.7,11.616a6.392,6.392,0,0,0-6.72-6.7A6.574,6.574,0,0,0,85.5-6.456c0,3.84,2.9,6.648,7.368,6.648A6.763,6.763,0,0,0,98.2-1.9L96.2-4.056a4.377,4.377,0,0,1-3.24,1.248,3.443,3.443,0,0,1-3.7-2.592h9.768C99.06-5.712,99.108-6.12,99.108-6.408Zm-6.7-3.864A3.068,3.068,0,0,1,95.58-7.584H89.22A3.057,3.057,0,0,1,92.412-10.272ZM117.8-17.808v6.264a4.961,4.961,0,0,0-3.864-1.56,6.277,6.277,0,0,0-6.456,6.648A6.277,6.277,0,0,0,113.94.192a4.967,4.967,0,0,0,4.032-1.68V0h3.576V-17.808ZM114.588-2.88a3.276,3.276,0,0,1-3.312-3.576,3.276,3.276,0,0,1,3.312-3.576,3.271,3.271,0,0,1,3.288,3.576A3.271,3.271,0,0,1,114.588-2.88Zm23.064-3.528a6.392,6.392,0,0,0-6.72-6.7,6.574,6.574,0,0,0-6.888,6.648c0,3.84,2.9,6.648,7.368,6.648A6.763,6.763,0,0,0,136.74-1.9l-1.992-2.16a4.377,4.377,0,0,1-3.24,1.248,3.443,3.443,0,0,1-3.7-2.592h9.768C137.6-5.712,137.652-6.12,137.652-6.408Zm-6.7-3.864a3.068,3.068,0,0,1,3.168,2.688h-6.36A3.057,3.057,0,0,1,130.956-10.272ZM153.18.192c2.712,0,4.848-1.2,5.784-3.264l-2.9-1.584a3.177,3.177,0,0,1-2.9,1.776,3.3,3.3,0,0,1-3.384-3.576,3.3,3.3,0,0,1,3.384-3.576,3.22,3.22,0,0,1,2.9,1.776l2.9-1.56c-.936-2.112-3.072-3.288-5.784-3.288-4.2,0-7.2,2.76-7.2,6.648S148.98.192,153.18.192Zm13.92,0c4.1,0,7.08-2.76,7.08-6.648S171.2-13.1,167.1-13.1s-7.1,2.76-7.1,6.648S163,.192,167.1.192Zm0-3.072a3.276,3.276,0,0,1-3.312-3.576,3.276,3.276,0,0,1,3.312-3.576,3.259,3.259,0,0,1,3.288,3.576A3.259,3.259,0,0,1,167.1-2.88ZM184.524-13.1a5.653,5.653,0,0,0-4.272,1.7v-1.512h-3.576V0h3.744V-6.384c0-2.376,1.3-3.48,3.1-3.48,1.656,0,2.616.96,2.616,3.048V0h3.744V-7.392C189.876-11.328,187.572-13.1,184.524-13.1Zm16.056,9.84a2.523,2.523,0,0,1-1.512.48,1.506,1.506,0,0,1-1.608-1.7V-9.744h3.216v-2.88H197.46v-3.144h-3.744v3.144h-1.992v2.88h1.992v5.3c0,3.072,1.776,4.632,4.824,4.632a5.351,5.351,0,0,0,3.048-.816Zm6.7-7.944v-1.7H203.7V0h3.744V-6.1c0-2.472,1.368-3.6,3.432-3.6.288,0,.528.024.84.048V-13.1A5.211,5.211,0,0,0,207.276-11.208Zm12.7,11.4c4.1,0,7.08-2.76,7.08-6.648s-2.976-6.648-7.08-6.648-7.1,2.76-7.1,6.648S215.868.192,219.972.192Zm0-3.072a3.276,3.276,0,0,1-3.312-3.576,3.276,3.276,0,0,1,3.312-3.576,3.259,3.259,0,0,1,3.288,3.576A3.259,3.259,0,0,1,219.972-2.88ZM229.548,0h3.744V-17.808h-3.744Zm18.36.192c3.864,0,6.1-1.7,6.1-4.1,0-5.088-7.8-2.952-7.8-5.16,0-.672.72-1.2,2.4-1.2a7.415,7.415,0,0,1,3.72.96l1.248-2.664A10.617,10.617,0,0,0,248.6-13.1c-3.768,0-5.976,1.728-5.976,4.176,0,5.16,7.8,3,7.8,5.112,0,.72-.648,1.176-2.376,1.176a8.834,8.834,0,0,1-4.488-1.248L242.316-1.2A11.085,11.085,0,0,0,247.908.192Zm14.544,0c4.1,0,7.08-2.76,7.08-6.648s-2.976-6.648-7.08-6.648-7.1,2.76-7.1,6.648S258.348.192,262.452.192Zm0-3.072a3.276,3.276,0,0,1-3.312-3.576,3.276,3.276,0,0,1,3.312-3.576,3.259,3.259,0,0,1,3.288,3.576A3.259,3.259,0,0,1,262.452-2.88ZM278.268.192c2.712,0,4.848-1.2,5.784-3.264l-2.9-1.584a3.177,3.177,0,0,1-2.9,1.776,3.3,3.3,0,0,1-3.384-3.576,3.3,3.3,0,0,1,3.384-3.576,3.22,3.22,0,0,1,2.9,1.776l2.9-1.56c-.936-2.112-3.072-3.288-5.784-3.288-4.2,0-7.2,2.76-7.2,6.648S274.068.192,278.268.192Zm9.816-14.9a2.153,2.153,0,0,0,2.328-2.16,2.1,2.1,0,0,0-2.328-2.016,2.14,2.14,0,0,0-2.328,2.088A2.14,2.14,0,0,0,288.084-14.712ZM286.212,0h3.744V-12.912h-3.744Zm12.432-13.1a9.926,9.926,0,0,0-5.568,1.56l1.344,2.616a6.208,6.208,0,0,1,3.72-1.2c2.016,0,2.976.936,2.976,2.544H298.14C294.2-7.584,292.6-6,292.6-3.72c0,2.232,1.8,3.912,4.824,3.912,1.9,0,3.24-.624,3.936-1.8V0h3.5V-7.368C304.86-11.28,302.58-13.1,298.644-13.1Zm-.288,10.776c-1.32,0-2.112-.624-2.112-1.56,0-.864.552-1.512,2.3-1.512h2.568v1.32A2.759,2.759,0,0,1,298.356-2.328ZM308.244,0h3.744V-17.808h-3.744Z" transform="translate(968 3308)" fill="#148e9f"/>
    <g id="Rectángulo_2194" data-name="Rectángulo 2194" transform="translate(557 3436)" fill="#fff" stroke="#8de2ed" stroke-width="2">
      <rect width="806" height="109" rx="54.5" stroke="none"/>
      <rect x="1" y="1" width="804" height="107" rx="53.5" fill="none"/>
    </g>
    <path id="Trazado_19968" data-name="Trazado 19968" d="M-106.9,0h12.312V-3.168h-8.424V-16.8H-106.9Zm19.584-13.1a9.926,9.926,0,0,0-5.568,1.56l1.344,2.616a6.208,6.208,0,0,1,3.72-1.2c2.016,0,2.976.936,2.976,2.544h-2.976C-91.752-7.584-93.36-6-93.36-3.72c0,2.232,1.8,3.912,4.824,3.912,1.9,0,3.24-.624,3.936-1.8V0h3.5V-7.368C-81.1-11.28-83.376-13.1-87.312-13.1ZM-87.6-2.328c-1.32,0-2.112-.624-2.112-1.56,0-.864.552-1.512,2.3-1.512h2.568v1.32A2.759,2.759,0,0,1-87.6-2.328Zm20.256-8.88v-1.7H-70.92V0h3.744V-6.1c0-2.472,1.368-3.6,3.432-3.6.288,0,.528.024.84.048V-13.1A5.211,5.211,0,0,0-67.344-11.208Zm19.2,4.8a6.392,6.392,0,0,0-6.72-6.7,6.573,6.573,0,0,0-6.888,6.648c0,3.84,2.9,6.648,7.368,6.648A6.763,6.763,0,0,0-49.056-1.9l-1.992-2.16a4.377,4.377,0,0,1-3.24,1.248,3.443,3.443,0,0,1-3.7-2.592h9.768C-48.192-5.712-48.144-6.12-48.144-6.408Zm-6.7-3.864a3.068,3.068,0,0,1,3.168,2.688h-6.36A3.057,3.057,0,0,1-54.84-10.272Zm18.168-2.64-3.7,8.784-3.576-8.784h-3.864L-42.384,0h3.864l5.448-12.912Zm7.008-1.8a2.153,2.153,0,0,0,2.328-2.16,2.1,2.1,0,0,0-2.328-2.016A2.14,2.14,0,0,0-31.992-16.8,2.14,2.14,0,0,0-29.664-14.712ZM-31.536,0h3.744V-12.912h-3.744Zm11.568.192c3.864,0,6.1-1.7,6.1-4.1,0-5.088-7.8-2.952-7.8-5.16,0-.672.72-1.2,2.4-1.2a7.415,7.415,0,0,1,3.72.96l1.248-2.664A10.617,10.617,0,0,0-19.272-13.1c-3.768,0-5.976,1.728-5.976,4.176,0,5.16,7.8,3,7.8,5.112,0,.72-.648,1.176-2.376,1.176a8.834,8.834,0,0,1-4.488-1.248L-25.56-1.2A11.084,11.084,0,0,0-19.968.192Zm14.544,0c4.1,0,7.08-2.76,7.08-6.648S-1.32-13.1-5.424-13.1s-7.1,2.76-7.1,6.648S-9.528.192-5.424.192Zm0-3.072A3.276,3.276,0,0,1-8.736-6.456a3.276,3.276,0,0,1,3.312-3.576A3.259,3.259,0,0,1-2.136-6.456,3.259,3.259,0,0,1-5.424-2.88ZM7.728-11.208v-1.7H4.152V0H7.9V-6.1c0-2.472,1.368-3.6,3.432-3.6.288,0,.528.024.84.048V-13.1A5.211,5.211,0,0,0,7.728-11.208Zm6.36-3.36h2.928l4.344-3.456H17.328ZM14.4,0h3.744V-12.912H14.4ZM26.832-13.1a9.926,9.926,0,0,0-5.568,1.56l1.344,2.616a6.208,6.208,0,0,1,3.72-1.2c2.016,0,2.976.936,2.976,2.544H26.328c-3.936,0-5.544,1.584-5.544,3.864,0,2.232,1.8,3.912,4.824,3.912,1.9,0,3.24-.624,3.936-1.8V0h3.5V-7.368C33.048-11.28,30.768-13.1,26.832-13.1ZM26.544-2.328c-1.32,0-2.112-.624-2.112-1.56,0-.864.552-1.512,2.3-1.512H29.3v1.32A2.759,2.759,0,0,1,26.544-2.328ZM56.3-14.712a2.153,2.153,0,0,0,2.328-2.16A2.1,2.1,0,0,0,56.3-18.888,2.14,2.14,0,0,0,53.976-16.8,2.14,2.14,0,0,0,56.3-14.712Zm-7.272-.336a2.621,2.621,0,0,1,1.512.456l.984-2.712a5.307,5.307,0,0,0-2.856-.7c-3.216,0-4.992,1.9-4.992,4.8v.576H41.688v2.88H43.68V0h3.744V-9.744H50.64v-2.88H47.328v-.552C47.328-14.448,47.928-15.048,49.032-15.048ZM54.432,0h3.744V-12.912H54.432ZM66,.192c3.864,0,6.1-1.7,6.1-4.1,0-5.088-7.8-2.952-7.8-5.16,0-.672.72-1.2,2.4-1.2a7.415,7.415,0,0,1,3.72.96l1.248-2.664A10.617,10.617,0,0,0,66.7-13.1c-3.768,0-5.976,1.728-5.976,4.176,0,5.16,7.8,3,7.8,5.112,0,.72-.648,1.176-2.376,1.176a8.834,8.834,0,0,1-4.488-1.248L60.408-1.2A11.084,11.084,0,0,0,66,.192Zm14.64,0c2.712,0,4.848-1.2,5.784-3.264l-2.9-1.584a3.177,3.177,0,0,1-2.9,1.776,3.3,3.3,0,0,1-3.384-3.576,3.3,3.3,0,0,1,3.384-3.576,3.22,3.22,0,0,1,2.9,1.776l2.9-1.56c-.936-2.112-3.072-3.288-5.784-3.288-4.2,0-7.2,2.76-7.2,6.648S76.44.192,80.64.192ZM93.792-13.1a9.926,9.926,0,0,0-5.568,1.56l1.344,2.616a6.208,6.208,0,0,1,3.72-1.2c2.016,0,2.976.936,2.976,2.544H93.288c-3.936,0-5.544,1.584-5.544,3.864,0,2.232,1.8,3.912,4.824,3.912,1.9,0,3.24-.624,3.936-1.8V0h3.5V-7.368C100.008-11.28,97.728-13.1,93.792-13.1ZM93.5-2.328c-1.32,0-2.112-.624-2.112-1.56,0-.864.552-1.512,2.3-1.512h2.568v1.32A2.759,2.759,0,0,1,93.5-2.328ZM103.392,0h3.744V-17.808h-3.744Z" transform="translate(968 3499)" fill="#148e9f"/>
    <g id="Rectángulo_2195" data-name="Rectángulo 2195" transform="translate(557 3627)" fill="#fff" stroke="#8de2ed" stroke-width="2">
      <rect width="806" height="109" rx="54.5" stroke="none"/>
      <rect x="1" y="1" width="804" height="107" rx="53.5" fill="none"/>
    </g>
    <path id="Trazado_19969" data-name="Trazado 19969" d="M-147.252,0h12.312V-3.168h-8.424V-16.8h-3.888Zm20.28.192c4.1,0,7.08-2.76,7.08-6.648s-2.976-6.648-7.08-6.648-7.1,2.76-7.1,6.648S-131.076.192-126.972.192Zm0-3.072a3.276,3.276,0,0,1-3.312-3.576,3.276,3.276,0,0,1,3.312-3.576,3.259,3.259,0,0,1,3.288,3.576A3.259,3.259,0,0,1-126.972-2.88Zm13.92,3.072c3.864,0,6.1-1.7,6.1-4.1,0-5.088-7.8-2.952-7.8-5.16,0-.672.72-1.2,2.4-1.2a7.415,7.415,0,0,1,3.72.96l1.248-2.664a10.617,10.617,0,0,0-4.968-1.128c-3.768,0-5.976,1.728-5.976,4.176,0,5.16,7.8,3,7.8,5.112,0,.72-.648,1.176-2.376,1.176A8.834,8.834,0,0,1-117.4-3.888L-118.644-1.2A11.084,11.084,0,0,0-113.052.192Zm21.432,0c2.712,0,4.848-1.2,5.784-3.264l-2.9-1.584a3.177,3.177,0,0,1-2.9,1.776,3.3,3.3,0,0,1-3.384-3.576,3.3,3.3,0,0,1,3.384-3.576,3.22,3.22,0,0,1,2.9,1.776l2.9-1.56c-.936-2.112-3.072-3.288-5.784-3.288-4.2,0-7.2,2.76-7.2,6.648S-95.82.192-91.62.192Zm13.92,0c4.1,0,7.08-2.76,7.08-6.648S-73.6-13.1-77.7-13.1s-7.1,2.76-7.1,6.648S-81.8.192-77.7.192Zm0-3.072a3.276,3.276,0,0,1-3.312-3.576A3.276,3.276,0,0,1-77.7-10.032a3.259,3.259,0,0,1,3.288,3.576A3.259,3.259,0,0,1-77.7-2.88ZM-51.588-13.1a5.806,5.806,0,0,0-4.656,2.112A4.82,4.82,0,0,0-60.492-13.1a5.229,5.229,0,0,0-4.056,1.68v-1.488h-3.576V0h3.744V-6.48c0-2.3,1.176-3.384,2.832-3.384,1.56,0,2.448.96,2.448,3.048V0h3.744V-6.48c0-2.3,1.176-3.384,2.856-3.384,1.512,0,2.448.96,2.448,3.048V0h3.744V-7.392C-46.308-11.328-48.516-13.1-51.588-13.1Zm10.512-1.608a2.153,2.153,0,0,0,2.328-2.16,2.1,2.1,0,0,0-2.328-2.016A2.14,2.14,0,0,0-43.4-16.8,2.14,2.14,0,0,0-41.076-14.712ZM-42.948,0H-39.2V-12.912h-3.744ZM-28.4-3.264a2.523,2.523,0,0,1-1.512.48,1.506,1.506,0,0,1-1.608-1.7V-9.744h3.216v-2.88h-3.216v-3.144h-3.744v3.144H-37.26v2.88h1.992v5.3c0,3.072,1.776,4.632,4.824,4.632A5.351,5.351,0,0,0-27.4-.624Zm13.656-14.76H-18.78l-3.24,3.456h2.928Zm1.7,11.616a6.392,6.392,0,0,0-6.72-6.7,6.573,6.573,0,0,0-6.888,6.648c0,3.84,2.9,6.648,7.368,6.648A6.763,6.763,0,0,0-13.956-1.9l-1.992-2.16a4.377,4.377,0,0,1-3.24,1.248,3.443,3.443,0,0,1-3.7-2.592h9.768C-13.092-5.712-13.044-6.12-13.044-6.408Zm-6.7-3.864a3.068,3.068,0,0,1,3.168,2.688h-6.36A3.057,3.057,0,0,1-19.74-10.272ZM-6.2.192c3.864,0,6.1-1.7,6.1-4.1,0-5.088-7.8-2.952-7.8-5.16,0-.672.72-1.2,2.4-1.2a7.415,7.415,0,0,1,3.72.96L-.54-11.976A10.617,10.617,0,0,0-5.508-13.1c-3.768,0-5.976,1.728-5.976,4.176,0,5.16,7.8,3,7.8,5.112,0,.72-.648,1.176-2.376,1.176a8.834,8.834,0,0,1-4.488-1.248L-11.8-1.2A11.084,11.084,0,0,0-6.2.192Zm24.6-18v6.264a4.961,4.961,0,0,0-3.864-1.56A6.277,6.277,0,0,0,8.076-6.456,6.277,6.277,0,0,0,14.532.192a4.967,4.967,0,0,0,4.032-1.68V0H22.14V-17.808ZM15.18-2.88a3.276,3.276,0,0,1-3.312-3.576,3.276,3.276,0,0,1,3.312-3.576,3.271,3.271,0,0,1,3.288,3.576A3.271,3.271,0,0,1,15.18-2.88ZM38.244-6.408a6.392,6.392,0,0,0-6.72-6.7,6.573,6.573,0,0,0-6.888,6.648c0,3.84,2.9,6.648,7.368,6.648A6.763,6.763,0,0,0,37.332-1.9L35.34-4.056A4.377,4.377,0,0,1,32.1-2.808,3.443,3.443,0,0,1,28.4-5.4h9.768C38.2-5.712,38.244-6.12,38.244-6.408Zm-6.7-3.864a3.068,3.068,0,0,1,3.168,2.688h-6.36A3.057,3.057,0,0,1,31.548-10.272ZM52.74-13.1a9.926,9.926,0,0,0-5.568,1.56l1.344,2.616a6.208,6.208,0,0,1,3.72-1.2c2.016,0,2.976.936,2.976,2.544H52.236C48.3-7.584,46.692-6,46.692-3.72c0,2.232,1.8,3.912,4.824,3.912,1.9,0,3.24-.624,3.936-1.8V0h3.5V-7.368C58.956-11.28,56.676-13.1,52.74-13.1ZM52.452-2.328c-1.32,0-2.112-.624-2.112-1.56,0-.864.552-1.512,2.3-1.512h2.568v1.32A2.759,2.759,0,0,1,52.452-2.328ZM66.684.192c3.864,0,6.1-1.7,6.1-4.1,0-5.088-7.8-2.952-7.8-5.16,0-.672.72-1.2,2.4-1.2a7.415,7.415,0,0,1,3.72.96l1.248-2.664A10.617,10.617,0,0,0,67.38-13.1c-3.768,0-5.976,1.728-5.976,4.176,0,5.16,7.8,3,7.8,5.112,0,.72-.648,1.176-2.376,1.176A8.834,8.834,0,0,1,62.34-3.888L61.092-1.2A11.084,11.084,0,0,0,66.684.192Zm21.048-6.6a6.392,6.392,0,0,0-6.72-6.7,6.574,6.574,0,0,0-6.888,6.648c0,3.84,2.9,6.648,7.368,6.648A6.763,6.763,0,0,0,86.82-1.9l-1.992-2.16a4.377,4.377,0,0,1-3.24,1.248,3.443,3.443,0,0,1-3.7-2.592H87.66C87.684-5.712,87.732-6.12,87.732-6.408Zm-6.7-3.864A3.068,3.068,0,0,1,84.2-7.584h-6.36A3.057,3.057,0,0,1,81.036-10.272ZM94.572.192c3.864,0,6.1-1.7,6.1-4.1,0-5.088-7.8-2.952-7.8-5.16,0-.672.72-1.2,2.4-1.2a7.415,7.415,0,0,1,3.72.96l1.248-2.664A10.617,10.617,0,0,0,95.268-13.1c-3.768,0-5.976,1.728-5.976,4.176,0,5.16,7.8,3,7.8,5.112,0,.72-.648,1.176-2.376,1.176a8.834,8.834,0,0,1-4.488-1.248L88.98-1.2A11.084,11.084,0,0,0,94.572.192Zm14.544,0c4.1,0,7.08-2.76,7.08-6.648s-2.976-6.648-7.08-6.648-7.1,2.76-7.1,6.648S105.012.192,109.116.192Zm0-3.072A3.276,3.276,0,0,1,105.8-6.456a3.276,3.276,0,0,1,3.312-3.576A3.259,3.259,0,0,1,112.4-6.456,3.259,3.259,0,0,1,109.116-2.88Zm13.152-8.328v-1.7h-3.576V0h3.744V-6.1c0-2.472,1.368-3.6,3.432-3.6.288,0,.528.024.84.048V-13.1A5.211,5.211,0,0,0,122.268-11.208Zm6.36-3.36h2.928l4.344-3.456h-4.032ZM128.94,0h3.744V-12.912H128.94Zm12.432-13.1a9.926,9.926,0,0,0-5.568,1.56l1.344,2.616a6.208,6.208,0,0,1,3.72-1.2c2.016,0,2.976.936,2.976,2.544h-2.976c-3.936,0-5.544,1.584-5.544,3.864,0,2.232,1.8,3.912,4.824,3.912,1.9,0,3.24-.624,3.936-1.8V0h3.5V-7.368C147.588-11.28,145.308-13.1,141.372-13.1Zm-.288,10.776c-1.32,0-2.112-.624-2.112-1.56,0-.864.552-1.512,2.3-1.512h2.568v1.32A2.759,2.759,0,0,1,141.084-2.328Z" transform="translate(968 3690)" fill="#148e9f"/>
    <path id="Unión_1" data-name="Unión 1" d="M-1444,1328h13v-32h14v32h14l-20.5,35Z" transform="translate(2384 1501)" fill="#fed147"/>
    <path id="Unión_2" data-name="Unión 2" d="M-1444,1328h13v-32h14v32h14l-20.5,35Z" transform="translate(2384 1684)" fill="#fed147"/>
    <path id="Unión_3" data-name="Unión 3" d="M-1444,1328h13v-32h14v32h14l-20.5,35Z" transform="translate(2384 1867)" fill="#fed147"/>
    <path id="Unión_4" data-name="Unión 4" d="M-1444,1328h13v-32h14v32h14l-20.5,35Z" transform="translate(2384 2058)" fill="#fed147"/>
    <path id="Unión_5" data-name="Unión 5" d="M-1444,1328h13v-32h14v32h14l-20.5,35Z" transform="translate(2384 2249)" fill="#fed147"/>
  </g>
</svg>
