<svg xmlns="http://www.w3.org/2000/svg" xmlns:xlink="http://www.w3.org/1999/xlink" width="348.863" height="255.738" viewBox="0 0 348.863 255.738">
  <defs>
    <linearGradient id="linear-gradient" x1="2.269" y1="0.5" x2="3.269" y2="0.5" gradientUnits="objectBoundingBox">
      <stop offset="0" stop-color="#daece5"/>
      <stop offset="1" stop-color="#b2deeb"/>
    </linearGradient>
    <linearGradient id="linear-gradient-2" x1="0.087" y1="0.5" x2="1.087" y2="0.5" xlink:href="#linear-gradient"/>
    <linearGradient id="linear-gradient-3" x1="4.106" y1="0.5" x2="5.106" y2="0.5" xlink:href="#linear-gradient"/>
    <linearGradient id="linear-gradient-4" x1="17.143" y1="0.5" x2="18.143" y2="0.5" xlink:href="#linear-gradient"/>
  </defs>
  <g id="Grupo_9796" data-name="Grupo 9796" transform="translate(-52.449 -23.954)">
    <g id="Grupo_9760" data-name="Grupo 9760" transform="translate(181.655 114.377)">
      <g id="Grupo_9756" data-name="Grupo 9756" transform="translate(17.406)">
        <path id="Trazado_18686" data-name="Trazado 18686" d="M252.579,162.823l-1.389,6.591-6.927-1.913,4.53-9.458Z" transform="translate(-244.263 -145.976)" fill="#f18c72"/>
        <g id="Grupo_9755" data-name="Grupo 9755" transform="translate(4.481 3.71)">
          <path id="Trazado_18687" data-name="Trazado 18687" d="M255.69,162.085a3.607,3.607,0,0,0,2.062.157c3.356-2.6,3.615-12.421,3.615-12.421l-3.171-2.712-5.582,1.417-2.188,5.937a5.129,5.129,0,0,0,.753,4.817h0A10.015,10.015,0,0,0,255.69,162.085Z" transform="translate(-250.126 -147.109)" fill="#f7a57a"/>
        </g>
        <path id="Trazado_18688" data-name="Trazado 18688" d="M251.819,151.029c.579-.93,1.191-3.307,2.167-2.809.712.362,3.253,1.291,4.119,1.568,2.065.659,6,1.026,7.007-2.116a4.252,4.252,0,0,0-4.4-5.113c-2.527.068-6.1.859-7.228.234-1.893-1.053-4.29-.511-4.811,1.218a18.056,18.056,0,0,0-.137,6.956,10.142,10.142,0,0,0,1.2,3.356h0Z" transform="translate(-245.207 -142.256)" fill="#122043"/>
        <path id="Trazado_18689" data-name="Trazado 18689" d="M249.916,153.131a1.631,1.631,0,0,1,1.869.786c.442.693.323,1.466-.268,1.725a1.631,1.631,0,0,1-1.869-.786C249.206,154.162,249.326,153.39,249.916,153.131Z" transform="translate(-245.469 -144.798)" fill="#f7a57a"/>
      </g>
      <path id="Trazado_18690" data-name="Trazado 18690" d="M243.351,168.49c-12.894-.721-13.987,10.748-15.069,23.212A235.112,235.112,0,0,0,228,221.618h30.007s-.007-13.29-.321-26.58C257.381,182.146,256.986,169.253,243.351,168.49Z" transform="translate(-222.941 -148.43)" fill="#ffc630"/>
      <path id="Trazado_18691" data-name="Trazado 18691" d="M265.261,228.9s2.947-2.034,4.04-1.549.233,2.533.233,2.533Z" transform="translate(-231.806 -162.293)" fill="#f18c72"/>
      <path id="Trazado_18692" data-name="Trazado 18692" d="M233.84,200.482l-1.4,9.505,22.978,11.454-2.506,2.489s-25.8-4.644-29.446-8.053-1.122-17.04-1.122-17.04Z" transform="translate(-221.491 -155.589)" fill="#f7a57a"/>
      <path id="Trazado_18693" data-name="Trazado 18693" d="M270.492,214.464c5.261-1.858,2.05-19.955,2.05-19.955l-3.109-.03S265.231,216.322,270.492,214.464Z" transform="translate(-232.414 -154.563)" fill="#f18c72"/>
      <path id="Trazado_18694" data-name="Trazado 18694" d="M260.763,230.261l5.412,3.478c2.178,1,4.107-.563,5.676-2.771a2.036,2.036,0,0,0-1.7-3.221c-1.946.029-4.308.425-5.48.507Z" transform="translate(-230.746 -162.402)" fill="#f7a57a"/>
      <path id="Trazado_18695" data-name="Trazado 18695" d="M270.867,189.172l-3.673,2.206s-15.5-25.075-7.838-18.472A44.9,44.9,0,0,1,270.867,189.172Z" transform="translate(-229.913 -149.218)" fill="#ffc630"/>
      <g id="Grupo_9757" data-name="Grupo 9757" transform="translate(16.319 152.839)">
        <path id="Trazado_18696" data-name="Trazado 18696" d="M249.245,347.6s.015,3.593,7.232,5.749c1.481.443,1,.88,1.276,1.5h-8.3L246.2,351.2l-1.01.868-2.345-2.3s1.095-3.334,2.88-3.363Z" transform="translate(-242.841 -343.204)" fill="#122043"/>
        <path id="Trazado_18697" data-name="Trazado 18697" d="M251.482,343.507l-1.349,3.111h0a3.255,3.255,0,0,1-3.375-1.026l-.149-.175,1.091-3.2Z" transform="translate(-243.729 -342.218)" fill="#f7a57a"/>
      </g>
      <path id="Trazado_18698" data-name="Trazado 18698" d="M222.6,191.939s4.922-22.894,16.555-22.362-5.057,24.008-5.057,24.008Z" transform="translate(-221.753 -148.692)" fill="#ffc630"/>
      <path id="Trazado_18699" data-name="Trazado 18699" d="M267.982,209.825c7.291-5.889-7.032-36.667-7.032-36.667l-3.471.349S257.746,214.318,267.982,209.825Z" transform="translate(-229.972 -149.538)" fill="#f7a57a"/>
      <path id="Trazado_18700" data-name="Trazado 18700" d="M252.579,168.922l-.441-2.255-5.958-1.186-1.918,2.382Z" transform="translate(-226.857 -147.729)" fill="#fff"/>
      <path id="Trazado_18701" data-name="Trazado 18701" d="M260.351,170.273l.441-5.868s-2.927-4.49-5.7-3.285c-.509,1.229.376,3.709.376,3.709l1.409,5.793Z" transform="translate(-229.373 -146.653)" fill="#f7a57a"/>
      <path id="Trazado_18702" data-name="Trazado 18702" d="M261.786,238.008s4.181,26.221,3.2,38.351-14.275,43.82-14.275,43.82l-5.786-1.683s-.439-21.2,5.242-35.117a12.95,12.95,0,0,0,0-9.553,160.548,160.548,0,0,1-6.485-20.112l.443-15.7Z" transform="translate(-226.721 -164.821)" fill="#122043"/>
      <g id="Grupo_9758" data-name="Grupo 9758" transform="translate(25.285 13.98)">
        <path id="Trazado_18703" data-name="Trazado 18703" d="M259.9,169.942l.1-.011.417-5.537c-.389-.565-2.882-4.013-5.191-3.148a7.057,7.057,0,0,0,.43,3.43l.016.067a3.565,3.565,0,0,0-.618-.1c-.2-.615-.773-2.593-.308-3.717l.044-.1.1-.046c2.948-1.277,5.92,3.2,6.044,3.389l.053.08-.467,6.2-.343.034A3.8,3.8,0,0,0,259.9,169.942Z" transform="translate(-254.571 -160.547)" fill="#f18c72"/>
      </g>
      <g id="Grupo_9759" data-name="Grupo 9759" transform="translate(6.094 155.358)">
        <path id="Trazado_18704" data-name="Trazado 18704" d="M234.826,350.46s2.59,2.4,8.5,3.907c1.3.331,2.7-.112,2.7,2.033h-7.166l-5.96-1.03v1.03h-3.219s-.9-5.264.984-5.94Z" transform="translate(-229.464 -346.679)" fill="#122043"/>
        <path id="Trazado_18705" data-name="Trazado 18705" d="M234.562,345.513l.633,3.781h0a3.641,3.641,0,0,1-3.943.132l-.221-.132.32-3.781Z" transform="translate(-229.833 -345.513)" fill="#f7a57a"/>
      </g>
      <path id="Trazado_18706" data-name="Trazado 18706" d="M248.98,238.008,235.058,321.3h-5.57s-4.8-22.437-1.092-40.557a27.356,27.356,0,0,0,.248-9.554c-3.529-23.4-.838-33.181-.838-33.181Z" transform="translate(-222.748 -164.821)" fill="#002f4c"/>
    </g>
    <g id="Grupo_9767" data-name="Grupo 9767" transform="translate(282.583 114.885)">
      <g id="Grupo_9761" data-name="Grupo 9761" transform="translate(29.162 155.046)">
        <path id="Trazado_18707" data-name="Trazado 18707" d="M396.468,350.032s2.231,2.07,7.319,3.365c1.12.285,2.327-.1,2.327,1.752H399.94l-5.135-.888v.888h-2.774s-.772-4.536.848-5.117Z" transform="translate(-391.727 -346.774)" fill="#122043"/>
        <path id="Trazado_18708" data-name="Trazado 18708" d="M396.118,345.77l.313,3.258h0a3.137,3.137,0,0,1-3.4.114l-.191-.114-1.152-3.258Z" transform="translate(-391.69 -345.77)" fill="#f7a57a"/>
      </g>
      <path id="Trazado_18709" data-name="Trazado 18709" d="M390.788,237.211l2.942,84.181H389.1l-8.871-43.437,1.164-40.744Z" transform="translate(-359.828 -165.141)" fill="#122043"/>
      <g id="Grupo_9763" data-name="Grupo 9763" transform="translate(18.145)">
        <path id="Trazado_18710" data-name="Trazado 18710" d="M387.638,164.032l-1.078,6.581-5.863-2.619,1.934-7.9Z" transform="translate(-378.082 -146.968)" fill="#f18c72"/>
        <g id="Grupo_9762" data-name="Grupo 9762" transform="translate(4.479 2.912)">
          <path id="Trazado_18711" data-name="Trazado 18711" d="M390.342,161.49a3.54,3.54,0,0,0,1.976-.469c2.363-3.436-.329-12.7-.329-12.7l-3.777-1.59-4.8,2.993-.273,6.208a5.036,5.036,0,0,0,2.142,4.282h0A9.825,9.825,0,0,0,390.342,161.49Z" transform="translate(-383.136 -146.731)" fill="#f7a57a"/>
        </g>
        <path id="Trazado_18712" data-name="Trazado 18712" d="M383.365,150.616a2.075,2.075,0,0,1,2.34-1.547,16.517,16.517,0,0,0,2.594.236c2.129,0,4.772-.833,4.772-4.072s-3.98-2.129-3.98-2.129-8.175,1.239-11.342,3.613c-1.515,1.135,1.019,4.74,1.95,6.549a9.933,9.933,0,0,0,2.126,2.781h0Z" transform="translate(-377.276 -142.921)" fill="#122043"/>
        <path id="Trazado_18713" data-name="Trazado 18713" d="M381.574,155.474a1.6,1.6,0,0,1,1.983.177c.621.517.74,1.276.265,1.695a1.6,1.6,0,0,1-1.983-.177C381.219,156.651,381.1,155.893,381.574,155.474Z" transform="translate(-378.221 -145.815)" fill="#f7a57a"/>
      </g>
      <g id="Grupo_9764" data-name="Grupo 9764" transform="translate(60.881 60.152)">
        <path id="Trazado_18714" data-name="Trazado 18714" d="M436.835,223.385a5.617,5.617,0,0,0,3.138.971c1.847.164,5.781-.7,5.031,1.255-1.769,1.021-3.731,2.447-3.731,2.447-1.127.505-3.125-.019-4.311-.6l-3.446-2.249s-.3-2.072-.327-2.167l.79-.344A8.994,8.994,0,0,0,436.835,223.385Z" transform="translate(-433.188 -221.873)" fill="#f7a57a"/>
        <path id="Trazado_18715" data-name="Trazado 18715" d="M437.736,224a1.614,1.614,0,0,0,.2.237c-.245.105-.482.224-.713.35-.968.028-1.934.088-2.9.127.06-.6.141-1.434.138-1.494l6.285-1.6s.508.708-.641,1.47A6.151,6.151,0,0,1,437.736,224Z" transform="translate(-433.456 -221.618)" fill="#f7a57a"/>
      </g>
      <g id="Grupo_9765" data-name="Grupo 9765" transform="translate(0 152.19)">
        <path id="Trazado_18716" data-name="Trazado 18716" d="M359.709,347.224s.015,3.463,6.972,5.542c1.426.426.962.848,1.231,1.448h-8l-3.135-3.524-.975.838-2.26-2.22s1.056-3.213,2.776-3.242Z" transform="translate(-353.537 -342.984)" fill="#122043"/>
        <path id="Trazado_18717" data-name="Trazado 18717" d="M361.866,343.275l-1.3,3h0a3.136,3.136,0,0,1-3.252-.988l-.144-.169,1.051-3.083Z" transform="translate(-354.393 -342.033)" fill="#f7a57a"/>
      </g>
      <path id="Trazado_18718" data-name="Trazado 18718" d="M382.308,172.295c8.468,10.442,4.337,49,4.337,49H363.229c-3.9-34.748,13.215-51.62,13.215-51.62Z" transform="translate(-355.685 -149.226)" fill="url(#linear-gradient)"/>
      <path id="Trazado_18719" data-name="Trazado 18719" d="M392.73,182.96l13.147,16.008a10.885,10.885,0,0,0,2.31,2.107l17.41,11.785-1.872,4.031-20.526-7.7a10.516,10.516,0,0,1-4.265-2.973l-4.221-3.733Z" transform="translate(-362.773 -152.356)" fill="url(#linear-gradient-2)"/>
      <path id="Trazado_18720" data-name="Trazado 18720" d="M380.559,237.211a271.117,271.117,0,0,1-7.487,47.466L361.849,320.24l-5.047-.576,5.594-33.88a31.763,31.763,0,0,0,.391-5.706l-.936-42.867Z" transform="translate(-354.306 -165.141)" fill="#002f4c"/>
      <path id="Trazado_18721" data-name="Trazado 18721" d="M376.711,255.074l.7,5.848c.464,2.35,4.221,3.427,6.906,3.45a.539.539,0,0,0,.477-.787,74.967,74.967,0,0,0-4.487-7.919Z" transform="translate(-358.998 -169.351)" fill="#f7a57a"/>
      <path id="Trazado_18722" data-name="Trazado 18722" d="M377.442,181.156c8.091,2.153,2.276,21.509.4,27.129a8.442,8.442,0,0,0-.414,3.237l1.878,28.378h-4.866l-7.211-28.842a11.478,11.478,0,0,1-.319-3.533C367.342,200.918,369.383,179.011,377.442,181.156Z" transform="translate(-356.683 -151.896)" fill="url(#linear-gradient-3)"/>
      <g id="Grupo_9766" data-name="Grupo 9766" transform="translate(9.916 38.797)">
        <path id="Trazado_18723" data-name="Trazado 18723" d="M380.872,214.488l.822,12.416h-.578l-.819-12.378a8.715,8.715,0,0,1,.428-3.347c.972-2.912,3.334-10.552,3.711-16.959.211-.174.417-.354.617-.541-.242,6.28-2.51,13.874-3.781,17.683A8.131,8.131,0,0,0,380.872,214.488Z" transform="translate(-369.755 -193.679)" fill="#53b6b9"/>
        <path id="Trazado_18724" data-name="Trazado 18724" d="M367.42,214.6l3.233,12.931h-.594l-3.2-12.791a11.748,11.748,0,0,1-.327-3.621,101.293,101.293,0,0,1,1.983-14.789q.28.107.563.2a102.685,102.685,0,0,0-1.97,14.625A11.188,11.188,0,0,0,367.42,214.6Z" transform="translate(-366.51 -194.303)" fill="#53b6b9"/>
      </g>
      <path id="Trazado_18725" data-name="Trazado 18725" d="M386.636,170.293l-5.649-3.018-.966,2.39,7.458,3.657Z" transform="translate(-359.778 -148.66)" fill="#fff"/>
    </g>
    <g id="Grupo_9773" data-name="Grupo 9773" transform="translate(52.449 114.485)">
      <path id="Trazado_18726" data-name="Trazado 18726" d="M116.327,161.324a5.352,5.352,0,0,0-.231,3.819l.7,4.954.851.572,3.168,1.308a3.409,3.409,0,0,1,0-1.983l1.391-5.125s2.163-8.648-3.708-8.278c.03-7.044-1.933-5.882-1.933-5.882l-.135,6.09Z" transform="translate(-67.39 -144.339)" fill="#f7a57a"/>
      <path id="Trazado_18727" data-name="Trazado 18727" d="M96.926,184.294s4.1,15.666,7.605,15.946,7.141-24.817,7.141-24.817l4.761.575s1.849,36.091-8.83,36.748-12.088-7.325-12.088-7.325Z" transform="translate(-62.598 -150.18)" fill="#ffd159"/>
      <path id="Trazado_18728" data-name="Trazado 18728" d="M88.164,227.125H60.228V184.7c7.982-12.18,17.928-8.862,17.928-8.862S87.2,176,88.61,184.294C88.61,190.3,88.164,227.125,88.164,227.125Z" transform="translate(-54.282 -150.18)" fill="#f99200"/>
      <g id="Grupo_9768" data-name="Grupo 9768" transform="translate(20.195 20.02)">
        <path id="Trazado_18729" data-name="Trazado 18729" d="M79.285,168.589l-.414,6,.2.187a5.2,5.2,0,0,0,7.066.1h0l.094-4.513Z" transform="translate(-78.871 -168.589)" fill="#f18c72"/>
      </g>
      <g id="Grupo_9769" data-name="Grupo 9769" transform="translate(12.037)">
        <path id="Trazado_18730" data-name="Trazado 18730" d="M76.542,152.193l.505,9.915a1.532,1.532,0,0,1,1.377,1.947,1.85,1.85,0,0,1,.166.73,11.375,11.375,0,0,0,8.834,2.058c6.275-1.2,2.489-13.33,2.489-13.33Z" transform="translate(-70.163 -144.705)" fill="#f7a57a"/>
        <path id="Trazado_18731" data-name="Trazado 18731" d="M71.421,157.331a6.073,6.073,0,0,0-1.59-2.746c-3.552-3.073-.375-5.314.753-6.038,1.247-.8,1-3.063,2.616-4.326,2.465-1.929,4.84.07,6.418-.222s2.559-2.392,4.854-1.28,2.042,2.914,2.778,3.674,2.087-1.341,4.325,1.059c3.405,3.651-3.273,5.214-3.273,5.214a12.117,12.117,0,0,1-8.493-.386,1.587,1.587,0,0,0-1.873.459c-1.155,1.579-1.169,9.851-1.169,9.851l-1.614-1.342S71.635,160.662,71.421,157.331Z" transform="translate(-68.197 -142.397)" fill="#122043"/>
        <path id="Trazado_18732" data-name="Trazado 18732" d="M77.3,162.351a1.522,1.522,0,1,0,.832-1.986A1.522,1.522,0,0,0,77.3,162.351Z" transform="translate(-70.316 -146.604)" fill="#f7a57a"/>
      </g>
      <g id="Grupo_9770" data-name="Grupo 9770" transform="translate(20.811 152.193)">
        <path id="Trazado_18733" data-name="Trazado 18733" d="M86.415,347.732s1.575,2.178,9,4.069c1.634.416,3.4.7,3.4,3.4H91.481L83.991,353.9V355.2H79.945s-1.127-6.616,1.236-7.465Z" transform="translate(-79.677 -342.979)" fill="#122043"/>
        <path id="Trazado_18734" data-name="Trazado 18734" d="M87.264,341.514l-.385,4.753h0a4.575,4.575,0,0,1-4.956.166l-.278-.166v-4.753Z" transform="translate(-80.141 -341.514)" fill="#f7a57a"/>
      </g>
      <g id="Grupo_9771" data-name="Grupo 9771" transform="translate(0 152.193)">
        <path id="Trazado_18735" data-name="Trazado 18735" d="M59.188,347.732s1.575,2.178,9,4.069c1.633.416,3.4.7,3.4,3.4H64.254L56.763,353.9V355.2H52.717s-1.126-6.616,1.237-7.465Z" transform="translate(-52.449 -342.979)" fill="#122043"/>
        <path id="Trazado_18736" data-name="Trazado 18736" d="M60.037,341.514l-.384,4.753h0a4.576,4.576,0,0,1-4.957.166l-.277-.166v-4.753Z" transform="translate(-52.913 -341.514)" fill="#f7a57a"/>
      </g>
      <path id="Trazado_18737" data-name="Trazado 18737" d="M59.29,187.556s-8.373,19.324,2.311,29.2,25.187,8.192,25.187,8.192v-5.567s-13.11-1.108-17.311-9.871,1.681-16.348,1.681-16.348" transform="translate(-53.326 -153.039)" fill="#f99200"/>
      <path id="Trazado_18738" data-name="Trazado 18738" d="M95.108,233.075l6.687.14c2.716-.15,4.522-4.2,4.973-7.218a.612.612,0,0,0-.809-.662c-2.269.787-8.106,2.854-9.616,3.791Z" transform="translate(-62.502 -161.934)" fill="#f7a57a"/>
      <path id="Trazado_18739" data-name="Trazado 18739" d="M91.143,243.066c8.331,23.525-4.691,75.615-4.691,75.615H79.03s3.5-73.865-6.161-75.615Z" transform="translate(-57.261 -166.12)" fill="#005558"/>
      <path id="Trazado_18740" data-name="Trazado 18740" d="M67.993,208.624a15.059,15.059,0,0,0,1.491,5.846c4.2,8.763,17.993,9.924,17.993,9.924v5.622s-15.185,1.572-25.869-8.3c-3.874-3.579-5.236-8.4-5.406-13.092Z" transform="translate(-53.334 -158.004)" fill="#ffd159"/>
      <g id="Grupo_9772" data-name="Grupo 9772" transform="translate(13.8 39.65)">
        <path id="Trazado_18741" data-name="Trazado 18741" d="M71.428,206.09c-.293-.133-.588-.26-.878-.4a17.947,17.947,0,0,1,3.333-11.419l.659.521A16.949,16.949,0,0,0,71.428,206.09Z" transform="translate(-70.504 -194.272)" fill="#ef7100"/>
      </g>
      <path id="Trazado_18742" data-name="Trazado 18742" d="M117.119,163.945s-1.541-.462-1.782-3.274-1.569-1.942-1.569-1.942.691,11.086,2.458,11.5S117.119,163.945,117.119,163.945Z" transform="translate(-66.899 -146.216)" fill="#f7a57a"/>
      <path id="Trazado_18743" data-name="Trazado 18743" d="M78.33,243.066c2.269,28.845-16.15,75.615-16.15,75.615H53.358s6-29.906,6.117-57.974a149.814,149.814,0,0,0-.866-17.642Z" transform="translate(-52.663 -166.12)" fill="#0f787a"/>
    </g>
    <g id="Grupo_9784" data-name="Grupo 9784" transform="translate(92.391 120.923)">
      <g id="Grupo_9781" data-name="Grupo 9781">
        <path id="Trazado_18744" data-name="Trazado 18744" d="M152.151,187.18l-8.461,13.162c-1.808,2.813-4.622,5.967-7.867,6.771l-17.382,4.3v2.543s17.369,1.663,25.248-2.59,13.529-14.345,13.529-14.345Z" transform="translate(-107.943 -159.388)" fill="#f7a57a"/>
        <path id="Trazado_18745" data-name="Trazado 18745" d="M181.624,187.955s-4.341-8.151-10.023-9.577c-4.87,0-6.01.713-6.01.713s-6.242,7.738-8.416,12.742a7.162,7.162,0,0,0,.031,5.862c3.834,8.263,3.346,24.173,3.346,24.173h19.155s-3.35-23.813-2.71-28.518A6.047,6.047,0,0,1,181.624,187.955Z" transform="translate(-116.927 -157.314)" fill="url(#linear-gradient-4)"/>
        <g id="Grupo_9775" data-name="Grupo 9775" transform="translate(20.062 148.207)">
          <g id="Grupo_9774" data-name="Grupo 9774" transform="translate(3.085)">
            <path id="Trazado_18746" data-name="Trazado 18746" d="M141.55,344.721l-1.13,2.941a3.777,3.777,0,0,1-1.539,1.954,15.192,15.192,0,0,1-3.892,1.688c2.266,1.934,5.87-.006,7.932-1.435a5.042,5.042,0,0,0,2.016-2.92l.472-2.228Z" transform="translate(-134.989 -344.721)" fill="#f7a57a"/>
          </g>
          <path id="Trazado_18747" data-name="Trazado 18747" d="M144.212,346.722a3.245,3.245,0,0,1,1.251,2.739c-.281,1.536-.679,5.13-.679,5.13h-1.575l.049-3.353c-.005-.219-3.378,3.353-3.95,3.353h-8.336s-.553-2.262,4.341-2.989S144.212,346.722,144.212,346.722Z" transform="translate(-130.953 -345.193)" fill="#002f4c"/>
        </g>
        <path id="Trazado_18748" data-name="Trazado 18748" d="M157.343,235.277l-14.4,83.843,4.658.1s10.217-17.622,11.721-32.23c.248-2.415.363-4.872,1.94-6.719,12.028-14.088,8.6-36.34,8.6-36.34l-6.5-8.65Z" transform="translate(-113.717 -170.723)" fill="#122043"/>
        <g id="Grupo_9777" data-name="Grupo 9777" transform="translate(56.185 148.207)">
          <g id="Grupo_9776" data-name="Grupo 9776" transform="translate(3.085)">
            <path id="Trazado_18749" data-name="Trazado 18749" d="M188.81,344.721l-1.13,2.941a3.772,3.772,0,0,1-1.539,1.954,15.192,15.192,0,0,1-3.892,1.688c2.266,1.934,5.87-.006,7.932-1.435a5.045,5.045,0,0,0,2.015-2.92l.472-2.228Z" transform="translate(-182.249 -344.721)" fill="#f7a57a"/>
          </g>
          <path id="Trazado_18750" data-name="Trazado 18750" d="M191.472,346.722a3.245,3.245,0,0,1,1.251,2.739c-.281,1.536-.679,5.13-.679,5.13h-1.575l.049-3.353c0-.219-3.379,3.353-3.95,3.353h-8.336s-.553-2.262,4.341-2.989S191.472,346.722,191.472,346.722Z" transform="translate(-178.213 -345.193)" fill="#002f4c"/>
        </g>
        <g id="Grupo_9779" data-name="Grupo 9779" transform="translate(42.354)">
          <path id="Trazado_18751" data-name="Trazado 18751" d="M167.431,172.324l-.013,9.33,5.6-6.1-.6-8.684Z" transform="translate(-161.839 -154.601)" fill="#f18c72"/>
          <path id="Trazado_18752" data-name="Trazado 18752" d="M164.778,154.91c3.879.527,5.809,5.5,5.809,5.5l-.044,14.717,6.727-5.816a52.452,52.452,0,0,0-1.171-13.874c-1.44-4.555-7.245-5.755-11.321-3.533a9.061,9.061,0,0,0-3.861,5.308,16.781,16.781,0,0,0-.4,8.786l2.308,10.8,2.872-2.847a11.739,11.739,0,0,0,.013-5.408C164.233,163.122,162.173,154.556,164.778,154.91Z" transform="translate(-160.119 -150.82)" fill="#122043"/>
          <path id="Trazado_18753" data-name="Trazado 18753" d="M174.591,163.554a1.371,1.371,0,0,0-1.818.178,1.182,1.182,0,0,0-.244,1.7,1.372,1.372,0,0,0,1.818-.178A1.182,1.182,0,0,0,174.591,163.554Z" transform="translate(-162.981 -153.757)" fill="#f7a57a"/>
          <g id="Grupo_9778" data-name="Grupo 9778" transform="translate(1.272 3.02)">
            <path id="Trazado_18754" data-name="Trazado 18754" d="M164.485,169.6a3.029,3.029,0,0,1-1.811-.471c-2.166-3.453.3-12.759.3-12.759l3.462-1.6,4.4,3.007.251,6.236a5.236,5.236,0,0,1-1.964,4.3h0A8.4,8.4,0,0,1,164.485,169.6Z" transform="translate(-161.783 -154.771)" fill="#f7a57a"/>
          </g>
          <path id="Trazado_18755" data-name="Trazado 18755" d="M165.237,155.009c-.829,2.781,6.541,6.009,6.541,6.009l1.852-3.472-3.384-4.147-4.277.683A2.464,2.464,0,0,0,165.237,155.009Z" transform="translate(-161.309 -151.428)" fill="#122043"/>
          <path id="Trazado_18756" data-name="Trazado 18756" d="M164.57,156.093c-.154,1.1-1.866,2.428-1.866,2.428l-.16-1.311.39-.922.879-.488S164.725,155,164.57,156.093Z" transform="translate(-160.69 -151.926)" fill="#122043"/>
        </g>
        <path id="Trazado_18757" data-name="Trazado 18757" d="M181.3,235.277s13.537,5.822,6.453,42.366a13.769,13.769,0,0,0,.464,6.464c3,10.193,1.3,35.108,1.3,35.108H184.84s-15.665-65.021-16.676-83.938Z" transform="translate(-119.66 -170.723)" fill="#002f4c"/>
        <g id="Grupo_9780" data-name="Grupo 9780" transform="translate(0 49.194)">
          <path id="Trazado_18758" data-name="Trazado 18758" d="M112.865,218.061a5.428,5.428,0,0,1-3.17-.12c-1.737-.443-5.047-2.489-4.988-.469,1.285,1.5,2.616,3.427,2.616,3.427.865.822,2.854.984,4.121.837l3.863-.945s.934-1.793.992-1.87l-.609-.566A8.676,8.676,0,0,1,112.865,218.061Z" transform="translate(-104.706 -215.515)" fill="#f7a57a"/>
          <path id="Trazado_18759" data-name="Trazado 18759" d="M113.566,218.317a1.5,1.5,0,0,1-.263.151c.19.174.368.358.538.547.873.336,1.734.7,2.6,1.046.137-.563.331-1.353.354-1.406l-5.215-3.474s-.69.482.112,1.545A5.926,5.926,0,0,0,113.566,218.317Z" transform="translate(-106.262 -215.181)" fill="#f7a57a"/>
        </g>
      </g>
      <g id="Grupo_9782" data-name="Grupo 9782" transform="translate(48.991 21.845)">
        <path id="Trazado_18760" data-name="Trazado 18760" d="M176.734,179.4l.314.475c-.076.051-7.676,5.159-7.676,13.5v33.988h13.919l-.443-26.171c.189.149.381.3.578.435l.445,26.306H168.8V193.373C168.8,184.731,176.656,179.452,176.734,179.4Z" transform="translate(-168.802 -179.4)" fill="#53b6b9"/>
      </g>
      <path id="Trazado_18761" data-name="Trazado 18761" d="M184.6,190.908s9.53,24.658,3.007,26.9-18.429-15.487-18.429-15.487l2.295-1.79,10.867,9.275s-2.447-3.456-3.658-11.12S184.6,190.908,184.6,190.908Z" transform="translate(-119.898 -160.267)" fill="#f7a57a"/>
      <path id="Trazado_18762" data-name="Trazado 18762" d="M170.482,201.737l-.7-5.134s-1.775-1.947-3.117-2.3a1.012,1.012,0,0,0-1.072.409,12.7,12.7,0,0,0-1.853,3.242.97.97,0,0,0,.36.767l1.637,1.423,2.159,2.97Z" transform="translate(-118.617 -161.061)" fill="#f7a57a"/>
      <g id="Grupo_9783" data-name="Grupo 9783" transform="translate(47.255 63.593)">
        <rect id="Rect치ngulo_2136" data-name="Rect치ngulo 2136" width="18.182" height="13.567" rx="3.097" transform="translate(18.268 13.567) rotate(180)" fill="#53b6b9"/>
        <path id="Trazado_18763" data-name="Trazado 18763" d="M166.642,240.521v-4.134a2.374,2.374,0,0,1,2.367-2.367h13.448a2.373,2.373,0,0,1,2.367,2.367v4.134Z" transform="translate(-166.556 -234.02)" fill="#ffd159"/>
        <path id="Trazado_18764" data-name="Trazado 18764" d="M168.592,247.586h0c1.134,0,2.062-.486,2.062-1.62V235.64c0-1.134-.928-1.62-2.062-1.62h0a2.05,2.05,0,0,0-2.062,1.62v9.884A1.833,1.833,0,0,0,168.592,247.586Z" transform="translate(-166.53 -234.02)" fill="#0f787a"/>
        <path id="Trazado_18765" data-name="Trazado 18765" d="M181.138,244.085h0a.627.627,0,0,0,.625-.625v-3.154a.628.628,0,0,0-.625-.626h0a.628.628,0,0,0-.626.626v3.154A.628.628,0,0,0,181.138,244.085Z" transform="translate(-169.825 -235.354)" fill="#002f4c"/>
      </g>
    </g>
    <g id="Grupo_9789" data-name="Grupo 9789" transform="translate(329.769 117.176)">
      <g id="Grupo_9785" data-name="Grupo 9785" transform="translate(49.884 109.279)">
        <path id="Trazado_18766" data-name="Trazado 18766" d="M502.9,344.386a3.134,3.134,0,0,1,1.661,2.388c0,1.507.238,4.991.238,4.991l-1.5.271-.531-3.194c-.042-.208-2.684,3.375-4.483,5.173l-6.615.128s-.916-2.054,3.611-3.587S502.9,344.386,502.9,344.386Z" transform="translate(-483.143 -301.967)" fill="#005558"/>
        <path id="Trazado_18767" data-name="Trazado 18767" d="M494.92,304.9a28.68,28.68,0,0,0-.389-4.037,24.876,24.876,0,0,0-3.3-8.3c-1.622-.6-3.175-1.352-4.831-2.007a43.5,43.5,0,0,0-5.859-1.662q.122.334.249.67c9.689,25.563,15.106,37.171,15.95,39.92a3.185,3.185,0,0,1,.2,1.273c-.14,1.326-.757,4.163-4.642,6.862,4.124,1.028,8-6.306,8-6.306S495.125,313.695,494.92,304.9Z" transform="translate(-480.536 -288.889)" fill="#f18c72"/>
      </g>
      <path id="Trazado_18768" data-name="Trazado 18768" d="M473.235,173.371l.439,6.947,6.784-1.4-.815-9.442Z" transform="translate(-428.931 -151.469)" fill="#f18c72"/>
      <path id="Trazado_18769" data-name="Trazado 18769" d="M470.088,169.283a4,4,0,0,1-2.391-.621c-2.859-4.557.4-16.84.4-16.84l10.376,1.86.331,8.231a6.911,6.911,0,0,1-2.593,5.678h0A11.085,11.085,0,0,1,470.088,169.283Z" transform="translate(-427.35 -147.309)" fill="#f7a57a"/>
      <path id="Trazado_18770" data-name="Trazado 18770" d="M476.116,347.556a3.024,3.024,0,0,1,1.166,2.553c-.261,1.431-.632,4.781-.632,4.781h-1.468l.045-3.125c0-.2-3.148,3.125-3.681,3.125h-7.769s-.516-2.108,4.046-2.785S476.116,347.556,476.116,347.556Z" transform="translate(-426.698 -193.436)" fill="#005558"/>
      <g id="Grupo_9786" data-name="Grupo 9786" transform="translate(40.638 107.727)">
        <path id="Trazado_18771" data-name="Trazado 18771" d="M481.159,306.863a28.594,28.594,0,0,0,1.035-3.922,42.74,42.74,0,0,0,.3-11.041c-1.313-1.127-3.032-.261-4.359-1.45a43.616,43.616,0,0,0-4.92-3.591q0,.355,0,.715c.224,27.336,1.28,40.1,1.119,42.974-.024.439-1.319,6.087-5.9,7.272,3.511,2.394,8.779-4.568,8.779-4.568S478.3,315.185,481.159,306.863Z" transform="translate(-468.44 -286.859)" fill="#f7a57a"/>
      </g>
      <path id="Trazado_18772" data-name="Trazado 18772" d="M471.454,180.761l-6.518,10.65a8.334,8.334,0,0,0-.6,5.426l4.14,18.173a15.937,15.937,0,0,1,.394,3.211l.989,47.642h20.809a147.6,147.6,0,0,1-3.96-21.543c-1.321-12.139,2.544-17.42,1.467-22.734a26.153,26.153,0,0,0-5.122-10.371,10.077,10.077,0,0,1-2.157-6.07c-.221-9.012,9.216-33.889.209-27.835S471.454,180.761,471.454,180.761Z" transform="translate(-426.786 -153.095)" fill="#0f787a"/>
      <path id="Trazado_18773" data-name="Trazado 18773" d="M467.641,217.369l-.489,1.747a9.812,9.812,0,0,1-1.4,2.638c-2.294,3.826-10.022,13.2-10.022,13.2l-6.247,3.542s.129.9,1.545.644a6.417,6.417,0,0,0,2.447-1.03s.259,1.027-1.03,3.091c-.963,1.542-4.052,4.169-1.931,4.637a35.835,35.835,0,0,0,4.3-2.38,4.16,4.16,0,0,0,2.088-2.942l.566-3.308,13.264-10.843a10.032,10.032,0,0,0,3.174-4.61l.044-.132Z" transform="translate(-423.333 -162.756)" fill="#f7a57a"/>
      <path id="Trazado_18774" data-name="Trazado 18774" d="M423.513,202.01a5.867,5.867,0,0,1-3.238-1.135c-1.652-1.01-4.42-4.179-5-2.074.85,1.957,1.611,4.374,1.611,4.374.631,1.125,2.635,1.926,3.99,2.178l4.292.255s1.536-1.555,1.621-1.616l-.449-.78A9.364,9.364,0,0,1,423.513,202.01Z" transform="translate(-415.272 -158.214)" fill="#f7a57a"/>
      <g id="Grupo_9787" data-name="Grupo 9787" transform="translate(43.96 36.534)">
        <path id="Trazado_18775" data-name="Trazado 18775" d="M479.627,216.561l-6.842-4.61,2.6-18.234.64.092-2.547,17.832,5.773,3.89,4.259-14.517.621.182Z" transform="translate(-472.785 -193.717)" fill="#005558"/>
      </g>
      <path id="Trazado_18776" data-name="Trazado 18776" d="M474.565,155.321a10.574,10.574,0,0,1-5.6,1.295A7.108,7.108,0,0,1,463.482,153c-.729-1.569-.889-3.2,1.53-5.024a3.777,3.777,0,0,1,4.6.339,1.74,1.74,0,0,0,2.306.063,10.658,10.658,0,0,1,7.023-2.462c3.609,0,3.509,3.5,2.961,6.042a3.653,3.653,0,0,0,1.617,3.891c2.142,1.326,4.87,3.489,4.309,5.652a12.821,12.821,0,0,1-2.4,4.5,3.2,3.2,0,0,0-.031,3.9c1.331,1.756,2.891,4.308,2.429,6.154a21.724,21.724,0,0,1-2.789,5.611,3.476,3.476,0,0,0,0,3.767,4.63,4.63,0,0,1,.731,3.5,8.075,8.075,0,0,1-1.317,2.833,2.262,2.262,0,0,1-3.877-.3c-2.363-4.771-6.5-14.536-5.056-21.985.725-3.735,1.712-10.325,1.712-10.325S478.3,153.731,474.565,155.321Z" transform="translate(-426.521 -145.918)" fill="#122043"/>
      <path id="Trazado_18777" data-name="Trazado 18777" d="M460.9,209.088l-7.944,4.116a4.351,4.351,0,0,1-3.216.315l-21.849-6.9V203.86l21.294,2.585,6.66-3.541Z" transform="translate(-418.245 -159.347)" fill="#f7a57a"/>
      <path id="Trazado_18778" data-name="Trazado 18778" d="M482.451,160.656a1.809,1.809,0,0,0-2.4.235,1.559,1.559,0,0,0-.321,2.246,1.809,1.809,0,0,0,2.4-.235A1.559,1.559,0,0,0,482.451,160.656Z" transform="translate(-430.379 -149.307)" fill="#f7a57a"/>
      <path id="Trazado_18779" data-name="Trazado 18779" d="M469.654,205.778l-2.2-13.585-9.434,10.842,2.587,8.437,8.99-4.65C469.326,205.785,469.6,206.822,469.654,205.778Z" transform="translate(-425.346 -156.823)" fill="#0f787a"/>
      <g id="Grupo_9788" data-name="Grupo 9788" transform="translate(36.96 27.602)">
        <path id="Trazado_18780" data-name="Trazado 18780" d="M467.058,210.629c.252-.183.252-.183.508-.356L464.6,198.084a7.969,7.969,0,0,1,.55-5.139l6.435-10.536c-.209-.149-.144-.128-.247-.316-.024-.042-.289-.053-.357-.064l-6.511,10.548a8.76,8.76,0,0,0-.624,5.678" transform="translate(-463.628 -182.03)" fill="#53b6b9"/>
      </g>
      <path id="Trazado_18781" data-name="Trazado 18781" d="M424.167,202.464a1.672,1.672,0,0,1-.32.072c.141.241.265.488.381.737.795.625,1.569,1.276,2.356,1.91.32-.537.773-1.292.813-1.339l-4.28-5.251s-.868.277-.376,1.631A6.412,6.412,0,0,0,424.167,202.464Z" transform="translate(-416.997 -158.331)" fill="#f7a57a"/>
    </g>
    <g id="Grupo_9793" data-name="Grupo 9793" transform="translate(210.606 119.381)">
      <path id="Trazado_18782" data-name="Trazado 18782" d="M327.567,184.153s10.485,20.189,9.748,24.629-9.748,12.15-9.748,12.15l-1.456-2.515,4.575-10.342L324.794,191.1Z" transform="translate(-274.787 -157.133)" fill="#fbb685"/>
      <path id="Trazado_18783" data-name="Trazado 18783" d="M313.72,171.865l.85,5.78h5.138l.524-8.878Z" transform="translate(-272.177 -153.508)" fill="#f18c72"/>
      <path id="Trazado_18784" data-name="Trazado 18784" d="M301.418,199.865V183.573c6.594-4.669,11.253-4.174,11.253-4.174a21.49,21.49,0,0,1,2.94-.12c.042,0,11.039-.816,9.012,16.6-4.39,14.808-2.282,21.341-2.282,21.341s-11.489,4.683-17.905,1.38c1.613-3.7-1.359-13.875-2.975-18.812Z" transform="translate(-269.278 -155.983)" fill="#0f787a"/>
      <path id="Trazado_18785" data-name="Trazado 18785" d="M321.414,176.69s4.364,2.561,4.364,6.614c0,2.512-.984,4-2.118,5.756a8.316,8.316,0,0,0,.216,9.466q.045.061.092.122a3.593,3.593,0,0,1,.725,3.044c-.806,3.845-6.1,4.421-8.146,1.068a20.1,20.1,0,0,1-2.013-4.4c-.9-2.844-.014-4.628,1.085-5.7a2.331,2.331,0,0,0,.133-3.307c-1.65-1.69-3.28-4.238-1.218-6.483a19.959,19.959,0,0,0,4.441-7.286Z" transform="translate(-272.141 -155.114)" fill="#122043"/>
      <path id="Trazado_18786" data-name="Trazado 18786" d="M331.218,329.983l-3.078.534C327.5,326.7,317.931,308.6,317.153,299.2a212.242,212.242,0,0,0-3.289-22.054l10.3-3.061s2.607,0-.256,21.269C330.341,303.8,332.067,322.979,331.218,329.983Z" transform="translate(-272.211 -178.327)" fill="#f18c72"/>
      <g id="Grupo_9791" data-name="Grupo 9791" transform="translate(35.74)">
        <g id="Grupo_9790" data-name="Grupo 9790" transform="translate(0.99 4.27)">
          <path id="Trazado_18787" data-name="Trazado 18787" d="M307.509,154.838l9.5-.449,1.689,6.543c.024.092.034.186.054.28-.148.093-.3.187-.44.291-.024.017-.045.035-.068.053l-.07.046a6.144,6.144,0,0,0-2.316,5.466,10.6,10.6,0,0,1-3.62,1.409,3.9,3.9,0,0,1-2.221-.052C306.712,165.3,307.509,154.838,307.509,154.838Z" transform="translate(-307.424 -154.389)" fill="#f7a57a"/>
        </g>
        <path id="Trazado_18788" data-name="Trazado 18788" d="M319.69,168.991c-2.468.283,1.452,0-2.468.283-.11-2.081-6.8-7.492-8.079-8.59a8.029,8.029,0,0,1-3.01-6.184s6.466-6.97,10.655-5.492a7.772,7.772,0,0,1,4.943,5.522C322.2,156.087,323.157,158.739,319.69,168.991Z" transform="translate(-306.129 -148.803)" fill="#122043"/>
      </g>
      <path id="Trazado_18789" data-name="Trazado 18789" d="M321.43,263.964s-2.418,14.549-5.782,30.11c3.514,9.4-1.841,35.617-1.939,35.523-.4-.38-2.253,1.9-2.253,1.9s-3.9-23.141-4.768-33.576-2.184-23.16-2.184-23.16Z" transform="translate(-270.005 -175.942)" fill="#fbb685"/>
      <path id="Trazado_18790" data-name="Trazado 18790" d="M313.209,347.916a3.433,3.433,0,0,1,1.2,2.827c-.268,1.584-.649,5.294-.649,5.294H312.25l.047-3.46c0-.226-3.232,3.46-3.778,3.46h-7.974s-.53-2.333,4.152-3.084S313.209,347.916,313.209,347.916Z" transform="translate(-269.068 -195.726)" fill="#002f4c"/>
      <rect id="Rect치ngulo_2137" data-name="Rect치ngulo 2137" width="4.412" height="2.212" rx="1.106" transform="translate(50.262 21.576) rotate(180)" fill="#ffd159"/>
      <path id="Trazado_18791" data-name="Trazado 18791" d="M305.149,226.074s-2.612,14.69-2.612,22c0,4.017,1.854,21.066,1.854,21.066s15.278.444,18.379.444c.4-12.087,4.9-20.052,4.9-29.722,0-6.821-6.011-12.774-6.011-12.774Z" transform="translate(-269.542 -167.012)" fill="#005558"/>
      <path id="Trazado_18792" data-name="Trazado 18792" d="M329.527,294.737" transform="translate(-275.902 -183.194)" fill="#ffc630"/>
      <path id="Trazado_18793" data-name="Trazado 18793" d="M265.85,199.332l.687.2a4.258,4.258,0,0,1,2.891,2.866l.163.543a71.916,71.916,0,0,0,12.748,2.938c6.852-19.508,9.171-20.98,9.171-20.98a6.888,6.888,0,0,1,4.421,6.748c0,4.48-2.992,17.17-8.685,21.145a5.369,5.369,0,0,1-5.364.366c-9.15-4.346-15.6-8.061-15.6-8.061l-6.907-3.814,3.052-1.605A4.606,4.606,0,0,1,265.85,199.332Z" transform="translate(-259.369 -157.309)" fill="#fbb685"/>
      <g id="Grupo_9792" data-name="Grupo 9792" transform="translate(47.402 148.301)">
        <path id="Trazado_18794" data-name="Trazado 18794" d="M331.24,344.08l.212,3.3a3.08,3.08,0,0,1-.544,1.954,12.39,12.39,0,0,1-2.4,2.493c2.311.743,4.413-1.849,5.516-3.572a4.113,4.113,0,0,0,.6-2.83l-.389-2.6Z" transform="translate(-323.065 -342.828)" fill="#f18c72"/>
        <path id="Trazado_18795" data-name="Trazado 18795" d="M332.989,346.842s2.034.182,2.372,1.729,1.3,4.676,1.3,4.676l-1.11.884-1.563-3.1s-3.363,4.533-3.9,4.756h-8.7s0-2.88,5.446-3.011C331.851,352.653,332.989,346.842,332.989,346.842Z" transform="translate(-321.386 -343.774)" fill="#122043"/>
      </g>
    </g>
    <path id="Trazado_18796" data-name="Trazado 18796" d="M120.514,46.67A33.974,33.974,0,0,0,86.54,80.644c0,6.985,2.1,10.963,6.089,18.875,5.8,11.515-3.771,16.388-3.771,16.388s25.1.173,31.657.173c18.763,0,33.973-16.673,33.973-35.436A33.974,33.974,0,0,0,120.514,46.67Z" transform="translate(-8.034 -5.353)" fill="#53b6b9"/>
    <g id="Grupo_9794" data-name="Grupo 9794" transform="translate(312.685 53.528)">
      <path id="Trazado_18797" data-name="Trazado 18797" d="M471.511,122.73l-.743-.258c-4.254-7.559-10.021-17.938-27.657-15.307-12.292,1.833-28.77,4.686-37.924.151-6.212-3.077-13.55-19.468-12.076-29.734,1.129-7.861,8.049-13.66,15.962-14.334,11.992-1.023,34.279-1.662,45.01,6.1C476.194,85.326,471.511,122.73,471.511,122.73Z" transform="translate(-392.92 -62.646)" fill="#ffc630"/>
    </g>
    <g id="Grupo_9795" data-name="Grupo 9795" transform="translate(150.959 49.554)">
      <path id="Trazado_18798" data-name="Trazado 18798" d="M181.331,111.083l.611-.263c8.4-3.617,17.428,1.746,26.133,3.993,9.994,2.58,23.546,1.964,31.036-2.642,5.111-3.143,5.911-11.878,5.869-29.452-.029-11.809,2.125-19.389-7.958-22.9-7.92-2.76-23.005-3.549-37.725.049-5.652,1.381-10.4,4.7-11.354,11.751a128.418,128.418,0,0,0-.367,28.456Z" transform="translate(-181.331 -57.447)" fill="#a4d1bb"/>
    </g>
    <path id="Trazado_18799" data-name="Trazado 18799" d="M315.161,23.954A40.975,40.975,0,0,1,356.136,64.93c0,8.425-2.535,13.222-7.343,22.765-7,13.888,4.548,19.766,4.548,19.766s-30.27.209-38.18.209c-22.63,0-40.976-20.109-40.976-42.74A40.976,40.976,0,0,1,315.161,23.954Z" transform="translate(-52.254)" fill="#002f4c"/>
  </g>
</svg>
