<svg xmlns="http://www.w3.org/2000/svg" xmlns:xlink="http://www.w3.org/1999/xlink" width="620.351" height="451.838" viewBox="0 0 620.351 451.838">
  <defs>
    <linearGradient id="linear-gradient" y1="0.5" x2="1" y2="0.5" gradientUnits="objectBoundingBox">
      <stop offset="0" stop-color="#eef7f6"/>
      <stop offset="1" stop-color="#b2deeb"/>
    </linearGradient>
  </defs>
  <g id="Grupo_10229" data-name="Grupo 10229" transform="translate(-40.13 -57.09)">
    <g id="Grupo_10153" data-name="Grupo 10153" transform="translate(324.233 101.535)">
      <path id="Trazado_19480" data-name="Trazado 19480" d="M243.838,89.521s6.135,10.827,11.249,15.548,21.9,11.032,21.9,11.032l-.086-4.254-14.333-10.062-9.442-12.827Z" transform="translate(-243.838 -88.958)" fill="#f18c72"/>
      <g id="Grupo_10152" data-name="Grupo 10152" transform="translate(28.567 21.383)">
        <path id="Trazado_19481" data-name="Trazado 19481" d="M268.88,105.993a7.336,7.336,0,0,0,3.488,2.116c2.177.787,7.184,1.1,5.685,3.054-2.443.576-5.245,1.544-5.245,1.544-1.513.2-3.761-1.038-5.015-2.078l-3.471-3.658s.273-2.432.265-2.549l1.057-.131A11.916,11.916,0,0,0,268.88,105.993Z" transform="translate(-264.321 -104.29)" fill="#f18c72"/>
        <path id="Trazado_19482" data-name="Trazado 19482" d="M269.172,106.912a1.79,1.79,0,0,0,.176.333c-.328.039-.65.1-.966.163-1.176-.283-2.36-.531-3.537-.8.252-.654.607-1.572.621-1.642l8.065.241s.4.964-1.219,1.449A8.048,8.048,0,0,1,269.172,106.912Z" transform="translate(-264.115 -104.023)" fill="#f18c72"/>
      </g>
    </g>
    <g id="Grupo_10157" data-name="Grupo 10157" transform="translate(40.13 229.408)">
      <g id="Grupo_10154" data-name="Grupo 10154" transform="translate(9.832)">
        <path id="Trazado_19483" data-name="Trazado 19483" d="M184.028,282.169s-45.338-97.09-120.607-101.523C14.572,257.038,91.49,324.469,91.49,324.469l88.783,29.973Z" transform="translate(-47.18 -180.646)" fill="#ffc630"/>
        <path id="Trazado_19484" data-name="Trazado 19484" d="M137.965,218.111l-18.46,43.784L64.972,180.785c-.593-.047-1.181-.1-1.778-.139-.191.3-.365.6-.554.9l29.208,43.442-43.771-5.722c-.066.416-.119.827-.177,1.24l-.144,1.1L93.6,227.594l48.674,72.4L65.133,292.4c.526.855,1.054,1.7,1.586,2.527l77.263,7.6,34.564,51.407,1.5.506.121-2.325-59.086-87.88,18.69-44.329Q138.877,219.005,137.965,218.111Z" transform="translate(-46.952 -180.646)" fill="#fff"/>
      </g>
      <g id="Grupo_10156" data-name="Grupo 10156" transform="translate(0 126.063)">
        <path id="Trazado_19485" data-name="Trazado 19485" d="M164.46,292.639s-77.776-44.162-124.33-6.2C55.955,408.071,211.791,396.53,211.791,396.53Z" transform="translate(-40.13 -271.036)" fill="#0f787a"/>
        <g id="Grupo_10155" data-name="Grupo 10155" transform="translate(0 0.056)">
          <path id="Trazado_19486" data-name="Trazado 19486" d="M40.13,286.423c.061.469.131.929.2,1.393l109.623,51.526L90.79,368.452q1.157.755,2.329,1.483l59.563-29.309L195.5,360.751l-1.512-3.319-83.361-39.183L93.377,271.182q-1.274-.067-2.552-.106l16.764,45.746L41.173,285.607c-.347.272-.7.533-1.042.813Z" transform="translate(-40.13 -271.076)" fill="#005558"/>
        </g>
      </g>
    </g>
    <g id="Grupo_10162" data-name="Grupo 10162" transform="translate(475.227 217.356)">
      <g id="Grupo_10158" data-name="Grupo 10158">
        <path id="Trazado_19487" data-name="Trazado 19487" d="M352.1,301.762S361.423,196.25,431.739,172c82.491,97.845-13.956,178.714-13.956,178.714Z" transform="translate(-352.104 -172.004)" fill="#a4d1bc"/>
        <path id="Trazado_19488" data-name="Trazado 19488" d="M424.65,172c.287.342.563.681.847,1.021l-35.908,114.1,68.361-29.869c-.029.833-.068,1.658-.116,2.482L388.7,289.943l-10.362,32.925-1.837-1.58,20.656-65.635h0l-27.09-33.706c.378-.711.757-1.423,1.149-2.13L397.963,253.1l25.367-80.608c.441-.159.873-.329,1.319-.484Z" transform="translate(-345.015 -172.004)" fill="#fff"/>
      </g>
      <g id="Grupo_10159" data-name="Grupo 10159" transform="translate(16.334 61.693)">
        <path id="Trazado_19489" data-name="Trazado 19489" d="M415.24,243.848c27.386-18.129,71.882-38.055,116.288-21.3,12.749,84.713-79.571,113.292-79.571,113.292l-88.141-8.309S369.244,274.3,415.24,243.848Z" transform="translate(-363.816 -216.239)" fill="#0f787a"/>
        <path id="Trazado_19490" data-name="Trazado 19490" d="M452.593,224.47l-.923,44.883,78.27-49c.53.188,1.06.365,1.589.565.05.333.084.658.131.989l-41.921,26.242,39.97,11.909c-.1.384-.216.759-.324,1.138l-.3,1-41.863-12.474-69.86,43.732L486.844,316.6c-.782.536-1.563,1.061-2.34,1.57l-69.591-23.176-49.608,31.053-1.49-.141.791-2.052,84.8-53.086.934-45.441Q451.464,224.891,452.593,224.47Z" transform="translate(-363.816 -214.614)" fill="#005558"/>
      </g>
      <g id="Grupo_10161" data-name="Grupo 10161" transform="translate(12.135 162.16)">
        <path id="Trazado_19491" data-name="Trazado 19491" d="M401.112,289.474S484.8,277.8,512.453,327.358c-30.54,54.962-83.6,61.115-125.76,55.259,1.232-8.827-3.19-18.045-10.258-23.784-3.692-9.856-9.053-19.266-14.051-28.175a26.39,26.39,0,0,0-1.579-2.45Z" transform="translate(-360.805 -288.276)" fill="#002f4c"/>
        <g id="Grupo_10160" data-name="Grupo 10160" transform="translate(4.197 7.143)">
          <path id="Trazado_19492" data-name="Trazado 19492" d="M365.012,335.471q-.6-1.086-1.2-2.162l74.455-4.59,31.55-35.321q1.142.385,2.277.8l-30.664,34.33,69.2-4.266c.211.36.428.711.632,1.078v0c-.218.391-.439.77-.658,1.156l-114.221,7.042,41.8,46.18q-1.28.259-2.563.491l-42.089-46.5Z" transform="translate(-363.814 -293.398)" fill="#005558"/>
        </g>
      </g>
    </g>
    <g id="Grupo_10169" data-name="Grupo 10169" transform="translate(587.338 112.981)">
      <g id="Grupo_10163" data-name="Grupo 10163">
        <path id="Trazado_19493" data-name="Trazado 19493" d="M474.6,105.265l5.083,10-10.675-2.436L432.49,101.32Z" transform="translate(-432.49 -95.526)" fill="#a4d1bb"/>
        <path id="Trazado_19494" data-name="Trazado 19494" d="M471.46,112.275l-18.135-1.127,4.444-2.259Z" transform="translate(-424.267 -92.539)" fill="#53b6b9"/>
        <path id="Trazado_19495" data-name="Trazado 19495" d="M474.6,106.9l3.174-9.739-45.284,5.794Z" transform="translate(-432.49 -97.165)" fill="url(#linear-gradient)"/>
        <path id="Trazado_19496" data-name="Trazado 19496" d="M432.49,101.32l36.518,11.507-5.443,14.039Z" transform="translate(-432.49 -95.526)" fill="url(#linear-gradient)"/>
      </g>
      <g id="Grupo_10168" data-name="Grupo 10168" transform="translate(5.195 25.688)">
        <g id="Grupo_10164" data-name="Grupo 10164" transform="translate(33.293)">
          <path id="Trazado_19497" data-name="Trazado 19497" d="M464.788,119.693a.835.835,0,0,0,.257-.2.853.853,0,0,0-.084-1.2,23.87,23.87,0,0,0-3.59-2.586.852.852,0,1,0-.863,1.47,22.124,22.124,0,0,1,3.333,2.4A.854.854,0,0,0,464.788,119.693Z" transform="translate(-460.087 -115.584)" fill="#53b6b9"/>
        </g>
        <g id="Grupo_10166" data-name="Grupo 10166" transform="translate(0 6.277)">
          <g id="Grupo_10165" data-name="Grupo 10165">
            <path id="Trazado_19498" data-name="Trazado 19498" d="M460.937,211.145a.853.853,0,0,1,.3-1.169,23.984,23.984,0,0,0,6.256-5.424.853.853,0,0,1,1.315,1.088,25.685,25.685,0,0,1-6.7,5.806.524.524,0,0,1-.049.025A.852.852,0,0,1,460.937,211.145Zm9.721-9.565a.852.852,0,0,1-.319-1.163,30.577,30.577,0,0,0,3.095-7.765.853.853,0,1,1,1.656.41,32.162,32.162,0,0,1-3.268,8.2.836.836,0,0,1-.354.339A.854.854,0,0,1,470.658,201.581ZM475,188.607a.855.855,0,0,1-.792-.911l.025-.385a39.355,39.355,0,0,0-.42-8.018.853.853,0,0,1,1.688-.255,41.226,41.226,0,0,1,.435,8.365l-.025.413a.855.855,0,0,1-.911.791Zm-1.184-13.67a.854.854,0,0,1-1.043-.607,62.136,62.136,0,0,0-2.77-8.032.853.853,0,0,1,1.573-.66,63.579,63.579,0,0,1,2.845,8.254.854.854,0,0,1-.438.979A.928.928,0,0,1,473.819,174.937Zm-4.8-12.906a.854.854,0,0,1-1.142-.389c-.1-.215-.212-.43-.319-.643a28.672,28.672,0,0,1-2.759.919.853.853,0,0,1-.456-1.644c.824-.229,1.637-.5,2.434-.8-.887-1.7-1.862-3.46-2.965-5.358a.852.852,0,0,1,1.474-.856c1.145,1.968,2.153,3.792,3.068,5.552a25.757,25.757,0,0,0,3.552-1.982.853.853,0,1,1,.948,1.418,27.576,27.576,0,0,1-3.725,2.084c.095.187.187.374.279.561a.852.852,0,0,1-.379,1.137Zm6.739-7.178a.851.851,0,0,1-.017-1.2,21.491,21.491,0,0,0,4.527-6.887.853.853,0,0,1,1.577.648,23.128,23.128,0,0,1-4.883,7.428.832.832,0,0,1-.225.165A.849.849,0,0,1,475.762,154.853Zm-16.2,8.01a26.634,26.634,0,0,1-8.834-.689.853.853,0,1,1,.418-1.654,24.929,24.929,0,0,0,8.27.643.853.853,0,0,1,.459,1.611A.843.843,0,0,1,459.566,162.862Zm22.772-19.895a.856.856,0,0,1-.693-.987,25.874,25.874,0,0,0,.078-8.308.853.853,0,0,1,1.688-.251,27.576,27.576,0,0,1-.085,8.853.852.852,0,0,1-.987.693ZM445.724,160.29a22.084,22.084,0,0,1-2-1.159,18.231,18.231,0,0,1-4.823-4.607.853.853,0,0,1,1.386-1,16.49,16.49,0,0,0,4.365,4.171,20.5,20.5,0,0,0,1.851,1.072.852.852,0,1,1-.777,1.517Zm15.433-10.566a31.685,31.685,0,0,0-5.27-6.5.853.853,0,1,1,1.144-1.266,33.306,33.306,0,0,1,5.562,6.844.854.854,0,0,1-.257,1.18c-.024.015-.05.029-.075.043A.854.854,0,0,1,461.157,149.724Zm20.461-20.387a.855.855,0,0,1-1.084-.53,27.129,27.129,0,0,0-1.483-3.5,26.119,26.119,0,0,0-2.4-3.851.853.853,0,0,1,1.363-1.025,27.669,27.669,0,0,1,2.556,4.1,29.228,29.228,0,0,1,1.576,3.724.854.854,0,0,1-.42,1.036A.9.9,0,0,1,481.618,129.337Zm-44.043,20.882a.852.852,0,0,1-1.033-.621,9.47,9.47,0,0,1,.7-6.8,8.63,8.63,0,0,1,1.456-2,.853.853,0,0,1,1.223,1.19,6.943,6.943,0,0,0-1.17,1.609,7.7,7.7,0,0,0-.554,5.594.858.858,0,0,1-.621,1.035Zm14.26-9.743a12.2,12.2,0,0,0-7.855-.741.853.853,0,0,1-.42-1.654,13.78,13.78,0,0,1,8.99.847.851.851,0,0,1,.416,1.131.85.85,0,0,1-1.131.417Z" transform="translate(-436.215 -120.085)" fill="#53b6b9"/>
          </g>
        </g>
        <g id="Grupo_10167" data-name="Grupo 10167" transform="translate(15.593 98.135)">
          <path id="Trazado_19499" data-name="Trazado 19499" d="M452.833,187.563a.854.854,0,0,0-.622-1.582,18.24,18.24,0,0,1-4.01.676.853.853,0,1,0,.094,1.7,20.046,20.046,0,0,0,4.385-.736A.926.926,0,0,0,452.833,187.563Z" transform="translate(-447.395 -185.949)" fill="#53b6b9"/>
        </g>
      </g>
    </g>
    <g id="Grupo_10172" data-name="Grupo 10172" transform="translate(54.376 57.09)">
      <g id="Grupo_10170" data-name="Grupo 10170" transform="translate(139.555)">
        <path id="Trazado_19500" data-name="Trazado 19500" d="M214.6,76.4l-29.526-16.3L170,57.09l-11.391,1.675Z" transform="translate(-147.172 -57.09)" fill="url(#linear-gradient)"/>
        <path id="Trazado_19501" data-name="Trazado 19501" d="M214.6,75.928l-55.29-14.213-.7-3.424" transform="translate(-147.172 -56.616)" fill="#a4d1bb"/>
        <path id="Trazado_19502" data-name="Trazado 19502" d="M157.978,67.548l.071.115,2.32,8.584,54.337-3.969Z" transform="translate(-147.42 -52.963)" fill="#53b6b9"/>
        <path id="Trazado_19503" data-name="Trazado 19503" d="M150.408,65.753l7.889-6.4,59.178,16.068L166.533,73.9Z" transform="translate(-150.408 -56.198)" fill="url(#linear-gradient)"/>
      </g>
      <g id="Grupo_10171" data-name="Grupo 10171" transform="translate(0 2.731)">
        <path id="Trazado_19504" data-name="Trazado 19504" d="M61.956,143.165a41.275,41.275,0,0,0,5.319-2.308.8.8,0,0,1,.741,1.427,43.063,43.063,0,0,1-5.526,2.4q-1.021.362-2.052.668a.8.8,0,1,1-.462-1.537Q60.971,143.513,61.956,143.165Z" transform="translate(-46.769 -26.798)" fill="#53b6b9"/>
        <path id="Trazado_19505" data-name="Trazado 19505" d="M139.08,59.651c2.506.322,5.117.734,7.977,1.262a.8.8,0,0,1-.291,1.58c-2.833-.523-5.413-.932-7.89-1.248a.819.819,0,0,1-.377-.152.8.8,0,0,1,.58-1.442Z" transform="translate(-15.682 -58.814)" fill="#53b6b9"/>
        <path id="Trazado_19506" data-name="Trazado 19506" d="M129.31,60.5a.8.8,0,0,1,.471-1.449c2.576-.024,5.3.085,8.1.319a.8.8,0,0,1-.134,1.6c-2.747-.229-5.421-.335-7.951-.312A.8.8,0,0,1,129.31,60.5Z" transform="translate(-19.309 -59.049)" fill="#53b6b9"/>
        <path id="Trazado_19507" data-name="Trazado 19507" d="M74.179,135.609a.792.792,0,0,1,1.135.014.8.8,0,0,1-.015,1.135,44.666,44.666,0,0,1-6.339,5.149.8.8,0,0,1-.926-.021.774.774,0,0,1-.188-.2.8.8,0,0,1,.219-1.114A43.243,43.243,0,0,0,74.179,135.609Z" transform="translate(-43.491 -28.925)" fill="#53b6b9"/>
        <path id="Trazado_19508" data-name="Trazado 19508" d="M74.805,136.141a.8.8,0,0,1-.112-1.131q.68-.833,1.322-1.695a41.73,41.73,0,0,0,3.085-4.827.8.8,0,0,1,1.089-.321.812.812,0,0,1,.321,1.091,43.168,43.168,0,0,1-3.2,5.012q-.663.9-1.371,1.757a.8.8,0,0,1-1.1.137Z" transform="translate(-40.807 -31.809)" fill="#53b6b9"/>
        <path id="Trazado_19509" data-name="Trazado 19509" d="M79.711,128.655a.867.867,0,0,1-.173-.1.8.8,0,0,1-.264-.951,54.788,54.788,0,0,0,2.443-7.519.8.8,0,0,1,1.558.392,55.826,55.826,0,0,1-2.517,7.738A.8.8,0,0,1,79.711,128.655Z" transform="translate(-38.951 -35.199)" fill="#53b6b9"/>
        <path id="Trazado_19510" data-name="Trazado 19510" d="M96.573,77.291q-1,1.224-1.946,2.5c-.947,1.279-1.852,2.6-2.688,3.936a.8.8,0,0,1-1.109.254l-.052-.035a.8.8,0,0,1-.2-1.071c.858-1.368,1.785-2.727,2.757-4.039q.964-1.3,2-2.559a.764.764,0,0,1,1.131-.11A.8.8,0,0,1,96.573,77.291Z" transform="translate(-34.514 -52.375)" fill="#53b6b9"/>
        <path id="Trazado_19511" data-name="Trazado 19511" d="M91.164,84.816a58.607,58.607,0,0,0-3.184,7.247.8.8,0,0,1-1.028.484.793.793,0,0,1-.206-.11.8.8,0,0,1-.276-.916,59.907,59.907,0,0,1,3.27-7.449.8.8,0,1,1,1.424.745Z" transform="translate(-36.106 -49.344)" fill="#53b6b9"/>
        <path id="Trazado_19512" data-name="Trazado 19512" d="M103.312,70.9A65.156,65.156,0,0,0,97.5,76.29a.8.8,0,0,1-1.059.092.882.882,0,0,1-.078-.066.8.8,0,0,1-.027-1.135,66.96,66.96,0,0,1,5.958-5.527.8.8,0,0,1,1.021,1.243Z" transform="translate(-32.282 -54.936)" fill="#53b6b9"/>
        <path id="Trazado_19513" data-name="Trazado 19513" d="M112.211,65.158a.8.8,0,0,1-.8-.089.791.791,0,0,1-.257-.321.8.8,0,0,1,.41-1.059,63.58,63.58,0,0,1,7.63-2.809.8.8,0,0,1,.456,1.541A61.957,61.957,0,0,0,112.211,65.158Z" transform="translate(-26.374 -58.339)" fill="#53b6b9"/>
        <path id="Trazado_19514" data-name="Trazado 19514" d="M83.714,110.835a.8.8,0,0,1-.706-.89l.113-1.01c.266-2.329.533-4.66.84-6.982a.8.8,0,0,1,1.594.212c-.307,2.311-.572,4.632-.835,6.951l-.116,1.011A.8.8,0,0,1,83.714,110.835Z" transform="translate(-37.456 -42.391)" fill="#53b6b9"/>
        <path id="Trazado_19515" data-name="Trazado 19515" d="M104.348,70.031a.8.8,0,0,1-.941-.011.767.767,0,0,1-.179-.183.8.8,0,0,1,.194-1.119,66.38,66.38,0,0,1,6.915-4.27.8.8,0,0,1,.759,1.417A64.4,64.4,0,0,0,104.348,70.031Z" transform="translate(-29.532 -56.955)" fill="#53b6b9"/>
        <path id="Trazado_19516" data-name="Trazado 19516" d="M83.842,110.415a.8.8,0,0,1,.7.9c-.393,3.128-.782,5.668-1.218,7.99a.8.8,0,0,1-.939.64.78.78,0,0,1-.329-.144.8.8,0,0,1-.312-.794c.431-2.29.814-4.8,1.2-7.894A.8.8,0,0,1,83.842,110.415Z" transform="translate(-37.959 -38.779)" fill="#53b6b9"/>
        <path id="Trazado_19517" data-name="Trazado 19517" d="M58.952,143.765a.8.8,0,1,1,.31,1.576,64.807,64.807,0,0,1-8.057,1.04.8.8,0,0,1-.858-.745.8.8,0,0,1,.745-.858A63.877,63.877,0,0,0,58.952,143.765Z" transform="translate(-50.344 -25.621)" fill="#53b6b9"/>
        <path id="Trazado_19518" data-name="Trazado 19518" d="M86.877,92.235a.8.8,0,0,1,.568.985c-.633,2.363-1.176,4.906-1.657,7.777a.8.8,0,0,1-1.584-.266c.49-2.922,1.043-5.514,1.69-7.926A.8.8,0,0,1,86.877,92.235Z" transform="translate(-36.986 -45.963)" fill="#53b6b9"/>
        <path id="Trazado_19519" data-name="Trazado 19519" d="M125.708,59.47c.939-.112,1.877-.2,2.817-.273a.8.8,0,0,1,.121,1.6q-1.377.1-2.749.265c-1.7.2-3.411.484-5.095.841a.8.8,0,0,1-.332-1.572C122.2,59.968,123.963,59.678,125.708,59.47Z" transform="translate(-22.92 -58.991)" fill="#53b6b9"/>
      </g>
    </g>
    <path id="Trazado_19520" data-name="Trazado 19520" d="M382.626,251.268a26.006,26.006,0,1,1-31.205,0h-56a15.351,15.351,0,0,0-15.351,15.351v52.368a26.139,26.139,0,1,0,0,39.571v50.191a15.35,15.35,0,0,0,15.351,15.35h142.13a15.35,15.35,0,0,0,15.351-15.35V266.619a15.351,15.351,0,0,0-15.351-15.351Z" transform="translate(77.65 76.634)" fill="#ffc630"/>
    <path id="Trazado_19521" data-name="Trazado 19521" d="M425.3,80.805H283.279a15.351,15.351,0,0,0-15.351,15.351v50.407a25.881,25.881,0,1,1,0,36.707v70.259h70.5a25.881,25.881,0,1,0,33.006,0H425.3a15.351,15.351,0,0,0,15.351-15.351V96.156A15.351,15.351,0,0,0,425.3,80.805Z" transform="translate(89.902 9.359)" fill="#002f4c"/>
    <path id="Trazado_19522" data-name="Trazado 19522" d="M321.143,179.885a25.783,25.783,0,0,0-20.669,6.852v-52.15a15.351,15.351,0,0,0-15.351-15.351H143.1a15.351,15.351,0,0,0-15.351,15.351V291.959h67.811a25.749,25.749,0,1,1,33.755,0h71.157v-67.5a25.872,25.872,0,1,0,20.669-44.572Z" transform="translate(34.58 24.526)" fill="#53b6b9"/>
    <g id="Grupo_10179" data-name="Grupo 10179" transform="translate(256.733 84.065)">
      <g id="Grupo_10174" data-name="Grupo 10174" transform="translate(79.081)">
        <path id="Trazado_19523" data-name="Trazado 19523" d="M259.828,88.106,253.7,89.947,252.142,83.3l9.95-.527Z" transform="translate(-252.142 -73.93)" fill="#f18c72"/>
        <g id="Grupo_10173" data-name="Grupo 10173" transform="translate(7.572 4.83)">
          <path id="Trazado_19524" data-name="Trazado 19524" d="M258.547,90.778a3.428,3.428,0,0,0,1.219,1.541c3.978.668,11-5.477,11-5.477l-.148-3.961L266.035,79.9l-5.556,2.3A4.871,4.871,0,0,0,257.6,85.82h0A9.508,9.508,0,0,0,258.547,90.778Z" transform="translate(-257.572 -79.895)" fill="#f7a57a"/>
        </g>
        <path id="Trazado_19525" data-name="Trazado 19525" d="M262.679,83.362c1.022-.194,3.075-1.3,3.357-.3.205.731,1.194,3.1,1.559,3.887.869,1.866,3.149,4.853,5.99,3.53a4.041,4.041,0,0,0,.736-6.367c-1.675-1.721-4.531-3.708-4.819-4.9-.484-2-2.407-3.325-3.948-2.576a17.137,17.137,0,0,0-4.947,4.386,9.617,9.617,0,0,0-1.57,3h0Z" transform="translate(-249.421 -76.432)" fill="#122043"/>
        <path id="Trazado_19526" data-name="Trazado 19526" d="M261.278,80.133a1.551,1.551,0,0,1,.654,1.812c-.2.756-.816,1.17-1.377.925a1.549,1.549,0,0,1-.656-1.812C260.1,80.3,260.716,79.889,261.278,80.133Z" transform="translate(-249.105 -74.999)" fill="#f7a57a"/>
      </g>
      <path id="Trazado_19527" data-name="Trazado 19527" d="M254.284,89l3.086,8.584L249.708,104V89Z" transform="translate(-174.021 -71.47)" fill="#005558"/>
      <g id="Grupo_10175" data-name="Grupo 10175" transform="translate(59.251 52.18)">
        <path id="Trazado_19528" data-name="Trazado 19528" d="M243.245,116.537s2.572,2.385,8.434,3.879c1.29.328,2.681-.112,2.681,2.018h-7.113l-5.916-1.024v1.024h-3.2s-.89-5.226.976-5.9Z" transform="translate(-237.923 -112.784)" fill="#122043"/>
        <path id="Trazado_19529" data-name="Trazado 19529" d="M242.281,113.846l.628,3.753h0a3.611,3.611,0,0,1-3.915.131l-.219-.131.318-3.753Z" transform="translate(-237.587 -113.846)" fill="#f7a57a"/>
      </g>
      <g id="Grupo_10176" data-name="Grupo 10176" transform="translate(5.464 47.754)">
        <path id="Trazado_19530" data-name="Trazado 19530" d="M203.208,115.192l-3.45-.682h0a3.375,3.375,0,0,1,.3-3.647l.145-.19,3.482.4Z" transform="translate(-199.357 -110.673)" fill="#f7a57a"/>
      </g>
      <path id="Trazado_19531" data-name="Trazado 19531" d="M232.342,105.327s4.448-.179,13.237-5.608c-5.945,10.585-4.007,25-4.007,25h5.04l12.407-32.5-29.726-1.545v14.993Z" transform="translate(-182.078 -70.812)" fill="#122043"/>
      <path id="Trazado_19532" data-name="Trazado 19532" d="M267.778,84.514s-15.51-16.065-46.269,4.272l13.182,15.741L250.717,99.1l12.149,3.361Z" transform="translate(-185.15 -75.62)" fill="#0f787a"/>
      <g id="Grupo_10178" data-name="Grupo 10178" transform="translate(65.567 23.479)">
        <path id="Trazado_19533" data-name="Trazado 19533" d="M242.452,93.267s.775,13.442,3.361,19.9,15.128,18.354,15.128,18.354l1.752-3.877L254.085,112.4l.516-15.768Z" transform="translate(-242.452 -93.267)" fill="#f7a57a"/>
        <g id="Grupo_10177" data-name="Grupo 10177" transform="translate(15.677 31.317)">
          <path id="Trazado_19534" data-name="Trazado 19534" d="M258.228,118.988a7.342,7.342,0,0,0,2.238,3.411c1.628,1.647,6.014,4.081,3.819,5.2-2.455-.531-5.4-.862-5.4-.862-1.453-.469-2.948-2.556-3.633-4.035l-1.559-4.8s1.293-2.078,1.336-2.187l1.01.336A11.889,11.889,0,0,0,258.228,118.988Z" transform="translate(-253.693 -115.722)" fill="#f7a57a"/>
          <path id="Trazado_19535" data-name="Trazado 19535" d="M257.971,119.933a1.922,1.922,0,0,0,.014.377c-.312-.106-.626-.192-.943-.269-.939-.761-1.9-1.494-2.848-2.244.51-.481,1.225-1.158,1.266-1.215l7.178,3.689s-.056,1.04-1.725.782A8.024,8.024,0,0,1,257.971,119.933Z" transform="translate(-253.495 -115.383)" fill="#f7a57a"/>
        </g>
      </g>
      <path id="Trazado_19536" data-name="Trazado 19536" d="M229.482,85.872s-8.272,6.357-8.789,14.45,7.754,23.213,7.754,23.213-9.259-7.749-26.084-3.31a34.138,34.138,0,0,0-1.056,5.354s34.9,12.708,40.064,6.413,1.293-30.378,1.293-30.378Z" transform="translate(-193.123 -72.706)" fill="#002f4c"/>
      <path id="Trazado_19537" data-name="Trazado 19537" d="M201.712,115.126s-2.605.807-3.2,8.6c-.123,1.6-.672,1.206-1.241,1.625-.523-2.4-1.831-7.383-1.831-7.383l1.955-5.137-1.1-.833,1.817-2.886s3.621.377,4.045,2.178C201.969,112.893,201.712,115.126,201.712,115.126Z" transform="translate(-195.439 -63.535)" fill="#122043"/>
    </g>
    <g id="Grupo_10204" data-name="Grupo 10204" transform="translate(468.134 329.287)">
      <g id="Grupo_10191" data-name="Grupo 10191" transform="translate(59.167)">
        <g id="Grupo_10180" data-name="Grupo 10180" transform="translate(29.632)">
          <path id="Trazado_19538" data-name="Trazado 19538" d="M468,430.418,410.689,252.261h3.263L471.26,430.418Z" transform="translate(-410.689 -252.261)" fill="#ffc630"/>
        </g>
        <g id="Grupo_10181" data-name="Grupo 10181">
          <path id="Trazado_19539" data-name="Trazado 19539" d="M446.75,430.418,389.442,252.261h3.263l57.308,178.157Z" transform="translate(-389.442 -252.261)" fill="#ffc630"/>
        </g>
        <g id="Grupo_10182" data-name="Grupo 10182" transform="translate(16.513 46.248)">
          <path id="Trazado_19540" data-name="Trazado 19540" d="M432.512,285.439V288.1l-30.7-.017-.525-2.656Z" transform="translate(-401.282 -285.422)" fill="#ffc630"/>
        </g>
        <g id="Grupo_10183" data-name="Grupo 10183" transform="translate(10.165 28.986)">
          <path id="Trazado_19541" data-name="Trazado 19541" d="M427.96,273.062v2.656l-30.7-.017-.525-2.656Z" transform="translate(-396.731 -273.044)" fill="#ffc630"/>
        </g>
        <g id="Grupo_10184" data-name="Grupo 10184" transform="translate(4.916 11.723)">
          <path id="Trazado_19542" data-name="Trazado 19542" d="M424.2,260.684v2.656l-30.7-.017-.525-2.656Z" transform="translate(-392.967 -260.667)" fill="#ffc630"/>
        </g>
        <g id="Grupo_10185" data-name="Grupo 10185" transform="translate(22.106 63.733)">
          <path id="Trazado_19543" data-name="Trazado 19543" d="M436.522,297.976v2.656l-30.7-.017-.525-2.656Z" transform="translate(-405.292 -297.959)" fill="#ffc630"/>
        </g>
        <g id="Grupo_10186" data-name="Grupo 10186" transform="translate(27.354 81.216)">
          <path id="Trazado_19544" data-name="Trazado 19544" d="M440.285,310.512v2.656l-30.7-.017-.525-2.656Z" transform="translate(-409.056 -310.495)" fill="#ffc630"/>
        </g>
        <g id="Grupo_10187" data-name="Grupo 10187" transform="translate(34.025 99.382)">
          <path id="Trazado_19545" data-name="Trazado 19545" d="M443.827,323.536l1.241,2.657-30.7-.017-.525-2.656Z" transform="translate(-413.839 -323.52)" fill="#ffc630"/>
        </g>
        <g id="Grupo_10188" data-name="Grupo 10188" transform="translate(39.781 117.547)">
          <path id="Trazado_19546" data-name="Trazado 19546" d="M447.955,336.561l1.241,2.657-30.7-.017-.525-2.656Z" transform="translate(-417.966 -336.545)" fill="#ffc630"/>
        </g>
        <g id="Grupo_10189" data-name="Grupo 10189" transform="translate(45.173 135.307)">
          <path id="Trazado_19547" data-name="Trazado 19547" d="M451.82,349.3l1.241,2.657-30.7-.017-.525-2.656Z" transform="translate(-421.832 -349.279)" fill="#ffc630"/>
        </g>
        <g id="Grupo_10190" data-name="Grupo 10190" transform="translate(49.639 153.455)">
          <path id="Trazado_19548" data-name="Trazado 19548" d="M455.023,362.308l1.241,2.657-30.7-.017-.525-2.656Z" transform="translate(-425.034 -362.292)" fill="#ffc630"/>
        </g>
      </g>
      <g id="Grupo_10203" data-name="Grupo 10203">
        <g id="Grupo_10192" data-name="Grupo 10192">
          <path id="Trazado_19549" data-name="Trazado 19549" d="M350.282,430.418,407.59,252.261h-3.264L347.018,430.418Z" transform="translate(-347.018 -252.261)" fill="#002f4c"/>
        </g>
        <g id="Grupo_10193" data-name="Grupo 10193" transform="translate(29.632)">
          <path id="Trazado_19550" data-name="Trazado 19550" d="M371.529,430.418l57.308-178.157h-3.263L368.265,430.418Z" transform="translate(-368.265 -252.261)" fill="#002f4c"/>
        </g>
        <g id="Grupo_10194" data-name="Grupo 10194" transform="translate(42.461 46.248)">
          <path id="Trazado_19551" data-name="Trazado 19551" d="M377.464,285.439V288.1l30.7-.017.525-2.656Z" transform="translate(-377.464 -285.422)" fill="#002f4c"/>
        </g>
        <g id="Grupo_10195" data-name="Grupo 10195" transform="translate(48.809 28.986)">
          <path id="Trazado_19552" data-name="Trazado 19552" d="M382.015,273.062v2.656l30.7-.017.525-2.656Z" transform="translate(-382.015 -273.044)" fill="#002f4c"/>
        </g>
        <g id="Grupo_10196" data-name="Grupo 10196" transform="translate(54.058 11.723)">
          <path id="Trazado_19553" data-name="Trazado 19553" d="M385.779,260.684v2.656l30.7-.017.525-2.656Z" transform="translate(-385.779 -260.667)" fill="#002f4c"/>
        </g>
        <g id="Grupo_10197" data-name="Grupo 10197" transform="translate(36.868 63.733)">
          <path id="Trazado_19554" data-name="Trazado 19554" d="M373.454,297.976v2.656l30.7-.017.525-2.656Z" transform="translate(-373.454 -297.959)" fill="#002f4c"/>
        </g>
        <g id="Grupo_10198" data-name="Grupo 10198" transform="translate(31.62 81.216)">
          <path id="Trazado_19555" data-name="Trazado 19555" d="M369.69,310.512v2.656l30.7-.017.525-2.656Z" transform="translate(-369.69 -310.495)" fill="#002f4c"/>
        </g>
        <g id="Grupo_10199" data-name="Grupo 10199" transform="translate(24.949 99.382)">
          <path id="Trazado_19556" data-name="Trazado 19556" d="M366.148,323.536l-1.241,2.657,30.7-.017.525-2.656Z" transform="translate(-364.907 -323.52)" fill="#002f4c"/>
        </g>
        <g id="Grupo_10200" data-name="Grupo 10200" transform="translate(19.193 117.547)">
          <path id="Trazado_19557" data-name="Trazado 19557" d="M362.021,336.561l-1.241,2.657,30.7-.017.525-2.656Z" transform="translate(-360.78 -336.545)" fill="#002f4c"/>
        </g>
        <g id="Grupo_10201" data-name="Grupo 10201" transform="translate(13.802 135.307)">
          <path id="Trazado_19558" data-name="Trazado 19558" d="M358.155,349.3l-1.241,2.657,30.7-.017.525-2.656Z" transform="translate(-356.914 -349.279)" fill="#002f4c"/>
        </g>
        <g id="Grupo_10202" data-name="Grupo 10202" transform="translate(9.335 153.455)">
          <path id="Trazado_19559" data-name="Trazado 19559" d="M354.952,362.308l-1.241,2.657,30.7-.017.525-2.656Z" transform="translate(-353.711 -362.292)" fill="#002f4c"/>
        </g>
      </g>
    </g>
    <g id="Grupo_10212" data-name="Grupo 10212" transform="translate(512.572 179.822)">
      <g id="Grupo_10211" data-name="Grupo 10211">
        <g id="Grupo_10205" data-name="Grupo 10205" transform="translate(8.401 151.48)">
          <path id="Trazado_19560" data-name="Trazado 19560" d="M397,256.634s-2.8,2.594-9.174,4.219c-1.4.358-2.918-.12-2.918,2.2h7.739l6.436-1.113v1.113h3.477s.968-5.686-1.063-6.415Z" transform="translate(-384.905 -252.55)" fill="#122043"/>
          <path id="Trazado_19561" data-name="Trazado 19561" d="M393.967,253.706l-.392,4.084h0a3.932,3.932,0,0,0,4.259.144l.238-.144,1.445-4.084Z" transform="translate(-381.483 -253.706)" fill="#f7a57a"/>
        </g>
        <g id="Grupo_10206" data-name="Grupo 10206" transform="translate(27.772 151.48)">
          <path id="Trazado_19562" data-name="Trazado 19562" d="M410.886,256.634s-2.8,2.594-9.174,4.219c-1.4.358-2.918-.12-2.918,2.2h7.739l6.436-1.113v1.113h3.477s.968-5.686-1.063-6.415Z" transform="translate(-398.794 -252.55)" fill="#122043"/>
          <path id="Trazado_19563" data-name="Trazado 19563" d="M407.856,253.706l-.392,4.084h0a3.932,3.932,0,0,0,4.259.144l.238-.144,1.443-4.084Z" transform="translate(-395.372 -253.706)" fill="#f7a57a"/>
        </g>
        <g id="Grupo_10208" data-name="Grupo 10208" transform="translate(26.956)">
          <path id="Trazado_19564" data-name="Trazado 19564" d="M402.739,158.611l1.091,6.665,5.938-2.652-1.958-8Z" transform="translate(-396.421 -141.33)" fill="#f18c72"/>
          <g id="Grupo_10207" data-name="Grupo 10207" transform="translate(1.176 2.95)">
            <path id="Trazado_19565" data-name="Trazado 19565" d="M402.036,162.155a3.587,3.587,0,0,1-2-.476c-2.393-3.48.332-12.863.332-12.863l3.826-1.609,4.86,3.031.276,6.287a5.1,5.1,0,0,1-2.17,4.337h0A9.964,9.964,0,0,1,402.036,162.155Z" transform="translate(-399.052 -147.207)" fill="#f7a57a"/>
          </g>
          <path id="Trazado_19566" data-name="Trazado 19566" d="M408.037,152.885a2.1,2.1,0,0,0-2.37-1.566,16.734,16.734,0,0,1-2.628.238c-2.155,0-4.831-.844-4.831-4.124s4.029-2.156,4.029-2.156,8.28,1.255,11.486,3.66c1.535,1.149-1.032,4.8-1.973,6.633a10.055,10.055,0,0,1-2.153,2.816h0Z" transform="translate(-398.209 -145.092)" fill="#122043"/>
          <path id="Trazado_19567" data-name="Trazado 19567" d="M407.97,152.182a1.623,1.623,0,0,0-2.008.18c-.629.523-.75,1.291-.269,1.715a1.623,1.623,0,0,0,2.008-.178C408.33,153.374,408.45,152.606,407.97,152.182Z" transform="translate(-395.372 -142.401)" fill="#f7a57a"/>
        </g>
        <path id="Trazado_19568" data-name="Trazado 19568" d="M407.563,163.013s-8.938,14.673-14.284,48.752c10.768,3.385,27.218,7.042,27.218,7.042s9.721-36.939-7-58.446A8.841,8.841,0,0,0,407.563,163.013Z" transform="translate(-373.199 -139.066)" fill="#53b6b9"/>
        <path id="Trazado_19569" data-name="Trazado 19569" d="M395.4,197.218s-7.485,25.122-7.485,36.5,7.485,43.453,7.485,43.453h6.876s1.608-22.44-.368-35.041a25.488,25.488,0,0,1,.745-11.089c3.687-12.634,7.62-29.717,7.62-29.717Z" transform="translate(-375.317 -124.52)" fill="#122043"/>
        <path id="Trazado_19570" data-name="Trazado 19570" d="M397.123,198.657s-1.939,27.281,1.166,37.113S411.766,276.6,411.766,276.6h6.075a109.388,109.388,0,0,0-3.368-34.787,22.513,22.513,0,0,1,.439-13.212,76.028,76.028,0,0,0,4.3-24.909Z" transform="translate(-371.918 -123.952)" fill="#002f4c"/>
        <g id="Grupo_10209" data-name="Grupo 10209" transform="translate(0 74.266)">
          <path id="Trazado_19571" data-name="Trazado 19571" d="M388.945,200.036a7.024,7.024,0,0,1-3.86.6c-2.215-.1-6.757-1.66-6.148.621,1.953,1.4,4.075,3.286,4.075,3.286,1.264.734,3.708.459,5.2,0l4.41-1.966s.648-2.251.7-2.353l-.887-.5A11.333,11.333,0,0,1,388.945,200.036Z" transform="translate(-378.881 -197.8)" fill="#f7a57a"/>
          <path id="Trazado_19572" data-name="Trazado 19572" d="M386.441,201.445a1.853,1.853,0,0,1-.278.23c.276.155.54.324.795.5,1.144.18,2.282.395,3.422.587.015-.671.038-1.612.052-1.679l-7.224-2.739s-.7.707.548,1.728A7.693,7.693,0,0,0,386.441,201.445Z" transform="translate(-377.251 -198.342)" fill="#f7a57a"/>
        </g>
        <path id="Trazado_19573" data-name="Trazado 19573" d="M408.591,170.693l-2,16.34a14.944,14.944,0,0,1-3.961,8.433l-14.716,15.6,1.457,3.657s22.171-10.45,26.25-16.64,6.12-25.063,6.12-25.063Z" transform="translate(-375.317 -134.988)" fill="#53b6b9"/>
        <g id="Grupo_10210" data-name="Grupo 10210" transform="translate(12.255 43.957)">
          <path id="Trazado_19574" data-name="Trazado 19574" d="M420.677,176.975c-.957,6.054-2.7,14.817-5.2,18.617-3.74,5.676-23.27,15.167-25.85,16.4l-1.275-3.194,14.591-15.471a15.136,15.136,0,0,0,4.036-8.6l.9-7.323c-.185-.1-.367-.215-.547-.329l-.929,7.581a14.545,14.545,0,0,1-3.883,8.269L387.8,208.536l-.128.135,1.641,4.117.28-.133c.909-.428,22.294-10.556,26.37-16.741,2.658-4.033,4.436-13.206,5.376-19.3Q421.012,176.8,420.677,176.975Z" transform="translate(-387.668 -176.61)" fill="#0f787a"/>
        </g>
      </g>
      <path id="Trazado_19575" data-name="Trazado 19575" d="M403.273,161.657l5.829-3.214.455,2.674-6.284,3.261Z" transform="translate(-369.254 -139.822)" fill="#fff"/>
    </g>
    <g id="Grupo_10218" data-name="Grupo 10218" transform="translate(48.045 352.685)">
      <path id="Trazado_19576" data-name="Trazado 19576" d="M84.9,285.625s10.59,8.733,17.239,12.651c5.428,3.2,16.453,5.414,20.323,6.121a3.477,3.477,0,0,0,2.535-.519l3.342-2.2s3.711-.3,4.378,2.061a16.919,16.919,0,0,1-1.948,3.428,3.644,3.644,0,0,1-3.018,1.462c-4.8-.11-18.687-.682-28.27-3.626-11.751-3.612-24.142-11.956-24.142-11.956Z" transform="translate(-34.151 -262.492)" fill="#f18c72"/>
      <g id="Grupo_10217" data-name="Grupo 10217">
        <g id="Grupo_10214" data-name="Grupo 10214" transform="translate(43.077)">
          <path id="Trazado_19577" data-name="Trazado 19577" d="M85.79,283.018,83.4,289.467l-6.71-2.968,5.99-8.875Z" transform="translate(-76.692 -265.65)" fill="#f18c72"/>
          <g id="Grupo_10213" data-name="Grupo 10213" transform="translate(5.783 4.733)">
            <path id="Trazado_19578" data-name="Trazado 19578" d="M85.624,287.182a3.684,3.684,0,0,0,2.06.467c3.778-2.125,5.507-12,5.507-12l-2.8-3.213-5.848.6-3.1,5.668a5.238,5.238,0,0,0,.039,4.978h0A10.232,10.232,0,0,0,85.624,287.182Z" transform="translate(-80.839 -272.432)" fill="#f7a57a"/>
          </g>
          <path id="Trazado_19579" data-name="Trazado 19579" d="M83.783,278c.724-.852,1.7-3.16,2.608-2.513.665.474,3.093,1.791,3.926,2.2,1.987.975,5.909,1.934,7.393-1.088.741-1.512-.086-3.534-.824-4.378a4.486,4.486,0,0,0-2.855-1.445c-2.563-.308-6.291-.045-7.335-.845-1.754-1.346-4.256-1.156-5.04.51a18.416,18.416,0,0,0-1.178,7.005,10.359,10.359,0,0,0,.71,3.569h0Z" transform="translate(-75.199 -269.038)" fill="#122043"/>
          <path id="Trazado_19580" data-name="Trazado 19580" d="M81.521,274.921a1.662,1.662,0,0,1,1.768,1.072c.343.767.107,1.529-.527,1.7a1.665,1.665,0,0,1-1.77-1.074C80.649,275.857,80.887,275.094,81.521,274.921Z" transform="translate(-75.057 -266.73)" fill="#f7a57a"/>
        </g>
        <g id="Grupo_10215" data-name="Grupo 10215" transform="translate(11.488 136.367)">
          <path id="Trazado_19581" data-name="Trazado 19581" d="M61.148,370.694s.017,3.986,8.025,6.381c1.643.491,1.109.976,1.417,1.667H61.374l-3.608-4.056-1.123.964-2.6-2.556s1.215-3.7,3.2-3.732Z" transform="translate(-54.042 -365.812)" fill="#122043"/>
          <path id="Trazado_19582" data-name="Trazado 19582" d="M61.74,368.246l-1.5,3.453h0a3.614,3.614,0,0,1-3.745-1.138l-.166-.2,1.211-3.549Z" transform="translate(-53.138 -366.816)" fill="#f7a57a"/>
        </g>
        <path id="Trazado_19583" data-name="Trazado 19583" d="M86.759,281.6c-17.852-1.964-34.242,31.431-34.242,31.431l21.577,15.145s23.294-21.324,19.514-40.18A7.992,7.992,0,0,0,86.759,281.6Z" transform="translate(-43.156 -264.114)" fill="#a4d1bc"/>
        <g id="Grupo_10216" data-name="Grupo 10216" transform="translate(0.39 139.455)">
          <path id="Trazado_19584" data-name="Trazado 19584" d="M51.4,371.72s2.569,2.382,8.425,3.874c1.29.328,2.681-.112,2.681,2.017H55.4l-5.912-1.022v1.022H46.3s-.888-5.222.976-5.891Z" transform="translate(-46.084 -367.968)" fill="#122043"/>
          <path id="Trazado_19585" data-name="Trazado 19585" d="M50.438,369.03l.629,3.752h0a3.615,3.615,0,0,1-3.912.131l-.219-.131.318-3.752Z" transform="translate(-45.748 -369.03)" fill="#f7a57a"/>
        </g>
        <path id="Trazado_19586" data-name="Trazado 19586" d="M73.492,316.668s11.825,21.474,10.27,32.833-22.1,42.947-22.1,42.947l-3.733-1.713s4.15-23.913,8-34.939c.909-2.607,1.443-5.322.237-7.806-5.375-11.06-12.125-29.3-12.125-29.3l10.9-8.021Z" transform="translate(-42.554 -252.607)" fill="#122043"/>
        <path id="Trazado_19587" data-name="Trazado 19587" d="M71.662,315.69l-20.128,80.9H47.177s-3.382-23.249.473-39.361a22.629,22.629,0,0,0,.457-7.323c-2.165-23.494-.8-37.869,7.058-45.795Z" transform="translate(-45.805 -255.196)" fill="#002f4c"/>
      </g>
    </g>
    <path id="Trazado_19588" data-name="Trazado 19588" d="M165.552,242.352a25.783,25.783,0,0,0,6.852,20.669H104.9V420.394a15.351,15.351,0,0,0,15.351,15.351H262.276a15.35,15.35,0,0,0,15.35-15.351V367.932a25.748,25.748,0,1,1,0-33.754V263.021h-67.5a25.872,25.872,0,1,0-44.573-20.669Z" transform="translate(25.563 64.079)" fill="#002f4c"/>
    <path id="Trazado_19589" data-name="Trazado 19589" d="M83.748,290.128s9.661,9.751,15.885,14.316c5.081,3.725,15.827,7.036,19.606,8.127a3.481,3.481,0,0,0,2.576-.261l3.544-1.849s4.361,1.06,4.149,2.489a16.825,16.825,0,0,1-2.282,3.215,3.641,3.641,0,0,1-3.151,1.152c-4.766-.591-18.524-2.551-27.762-6.442C84.983,306.1,73.492,296.56,73.492,296.56Z" transform="translate(13.167 91.97)" fill="#f7a57a"/>
    <g id="Grupo_10224" data-name="Grupo 10224" transform="translate(216.828 336.525)">
      <g id="Grupo_10220" data-name="Grupo 10220" transform="translate(18.767 1.22)">
        <path id="Trazado_19590" data-name="Trazado 19590" d="M200.038,265.819l-9.665,25.255-6.092-4.533,13.613-22.949Z" transform="translate(-178.704 -256.248)" fill="#f18c72"/>
        <g id="Grupo_10219" data-name="Grupo 10219" transform="translate(18.836)">
          <path id="Trazado_19591" data-name="Trazado 19591" d="M195.089,260.26a3.928,3.928,0,0,0-.874,2.667l-.427,3.646.5.565,1.71,1.519c-.06-.756-.145,0-.145,0l2.749-4.786s3.325-2.132-.867-5.279a1.209,1.209,0,0,0-1.379-.088A3.084,3.084,0,0,0,195.089,260.26Z" transform="translate(-193.788 -258.326)" fill="#f18c72"/>
        </g>
        <path id="Trazado_19592" data-name="Trazado 19592" d="M180.282,303.226a158.791,158.791,0,0,0,11.669-18.241l-5.241-5.966-6.428,7.492Z" transform="translate(-180.282 -250.16)" fill="#005558"/>
      </g>
      <path id="Trazado_19593" data-name="Trazado 19593" d="M169.514,390.68l3.078.533c.636-3.816,10.207-21.914,10.986-31.313a212.47,212.47,0,0,1,3.289-22.052l-10.294-3.063s-2.607,0,.255,21.269C170.391,364.5,168.666,383.676,169.514,390.68Z" transform="translate(-165.844 -226.931)" fill="#f18c72"/>
      <path id="Trazado_19594" data-name="Trazado 19594" d="M174.893,329.239s2.418,14.548,5.781,30.108c-3.512,9.4,1.841,35.614,1.94,35.522.4-.381,2.254,1.9,2.254,1.9s3.9-23.139,4.767-33.574,1.078-23.157,1.078-23.157Z" transform="translate(-163.642 -229.119)" fill="#f7a57a"/>
      <path id="Trazado_19595" data-name="Trazado 19595" d="M180.464,375.245a3.435,3.435,0,0,0-1.2,2.827c.268,1.584.649,5.294.649,5.294h1.506l-.046-3.46c0-.226,3.231,3.46,3.778,3.46h7.973s.529-2.333-4.153-3.084S180.464,375.245,180.464,375.245Z" transform="translate(-161.929 -210.963)" fill="#002f4c"/>
      <g id="Grupo_10221" data-name="Grupo 10221" transform="translate(0 160.394)">
        <path id="Trazado_19596" data-name="Trazado 19596" d="M172.887,373.709l-.212,3.3a3.085,3.085,0,0,0,.544,1.954,12.353,12.353,0,0,0,2.4,2.491c-2.312.743-4.414-1.848-5.516-3.57a4.115,4.115,0,0,1-.6-2.83l.388-2.6Z" transform="translate(-165.788 -372.457)" fill="#f18c72"/>
        <path id="Trazado_19597" data-name="Trazado 19597" d="M170.5,374.657s-2.035.183-2.371,1.728-1.3,4.676-1.3,4.676l1.11.884,1.563-3.1s3.363,4.533,3.9,4.756h8.7s0-2.88-5.445-3.011C171.635,380.467,170.5,374.657,170.5,374.657Z" transform="translate(-166.826 -371.589)" fill="#122043"/>
      </g>
      <path id="Trazado_19598" data-name="Trazado 19598" d="M207.319,264.944,197.654,290.2l-6.092-4.533,13.613-22.949Z" transform="translate(-157.064 -255.373)" fill="#f7a57a"/>
      <g id="Grupo_10222" data-name="Grupo 10222" transform="translate(47.756)">
        <path id="Trazado_19599" data-name="Trazado 19599" d="M202.369,259.385a3.935,3.935,0,0,0-.874,2.667l-.427,3.646.5.565,1.711,1.519c-.061-.756-.146,0-.146,0l2.75-4.788s3.325-2.131-.869-5.277a1.207,1.207,0,0,0-1.378-.088A3.082,3.082,0,0,0,202.369,259.385Z" transform="translate(-201.068 -257.451)" fill="#f7a57a"/>
      </g>
      <path id="Trazado_19600" data-name="Trazado 19600" d="M183.662,288.932h-6.229l2.486-7.32,4.87,2.993Z" transform="translate(-162.64 -247.916)" fill="#f18c72"/>
      <path id="Trazado_19601" data-name="Trazado 19601" d="M193.525,298.174c-.032-.184-.074-.339-.11-.508,6.167-7.955,11.4-13.556,11.4-13.556l-5.241-5.968L187.66,289.458l-3.5.015a7,7,0,0,0-8.846,1.137c-1.508,1.554-2.51,5.768-1.5,10.224,2.777,12.283.6,18.781.6,18.781l16.071,5.991s.365-10.68.616-18.172v-.025a8.347,8.347,0,0,1,1.305-4.1A7.333,7.333,0,0,0,193.525,298.174Z" transform="translate(-164.229 -249.285)" fill="#0f787a"/>
      <g id="Grupo_10223" data-name="Grupo 10223" transform="translate(12.997 20.539)">
        <path id="Trazado_19602" data-name="Trazado 19602" d="M186.359,272.178l-10.214,3.574,1.007,7.625c.014.109.043.212.063.318.2.036.393.073.589.12l.095.026c.031.008.061.013.092.02a6.994,6.994,0,0,1,4.775,4.781,12.057,12.057,0,0,0,4.421-.057,4.43,4.43,0,0,0,2.321-1C191.663,282.881,186.359,272.178,186.359,272.178Z" transform="translate(-176.145 -272.178)" fill="#f7a57a"/>
      </g>
      <path id="Trazado_19603" data-name="Trazado 19603" d="M189.5,279.38c-2.75,1.344-2.1,15.516-2.576,25.167a10.97,10.97,0,0,1-9.287,10.258c-3.641.582-7.637.689-10.049-.685,1.594-1.3,10.187-13.947,7.435-30.687-.363-2.2-.407-8.339,3.3-11.668,4.121-3.7,12.626,1.127,12.626,1.127S193.279,277.533,189.5,279.38Z" transform="translate(-166.525 -252.353)" fill="#122043"/>
      <path id="Trazado_19604" data-name="Trazado 19604" d="M192.084,307.612s2.138,10.889,2.138,17.366c0,3.559-.873,25.98-.873,25.98s-15.267,1.106-18.232,1.106c-.735-18.373-4.923-18.938-4.923-27.507,0-3.724,1.909-7.933,3.375-10.616a15.521,15.521,0,0,0,2.117-5.957l.1-.349Z" transform="translate(-165.497 -237.655)" fill="#ffc630"/>
      <path id="Trazado_19605" data-name="Trazado 19605" d="M173.2,337.011" transform="translate(-164.312 -226.052)" fill="#ffc630"/>
    </g>
    <g id="Grupo_10228" data-name="Grupo 10228" transform="translate(343.924 348.518)">
      <path id="Trazado_19606" data-name="Trazado 19606" d="M296.584,285.422s10.485,20.188,9.749,24.628-9.749,12.149-9.749,12.149l-1.456-2.516,4.574-10.34-5.891-16.972Z" transform="translate(-243.807 -258.405)" fill="#f7a57a"/>
      <path id="Trazado_19607" data-name="Trazado 19607" d="M287.742,280.088l.85,5.78h5.138l.524-8.877Z" transform="translate(-246.202 -261.733)" fill="#f18c72"/>
      <path id="Trazado_19608" data-name="Trazado 19608" d="M281,303.339v-16.29c6.593-4.669,11.251-4.176,11.251-4.176a21.61,21.61,0,0,1,2.94-.119c.042,0,11.039-.816,9.012,16.6-4.39,14.807-2.282,21.34-2.282,21.34s-11.488,4.683-17.9,1.381c1.614-3.7-1.358-13.874-2.975-18.811Z" transform="translate(-248.863 -259.46)" fill="#0f787a"/>
      <path id="Trazado_19609" data-name="Trazado 19609" d="M295.5,281.833s4.364,2.561,4.364,6.613c0,2.51-.983,4-2.117,5.756a8.317,8.317,0,0,0,.215,9.464l.092.121a3.59,3.59,0,0,1,.724,3.045c-.8,3.845-6.1,4.421-8.143,1.067a20.043,20.043,0,0,1-2.013-4.4c-.9-2.845-.014-4.629,1.085-5.7a2.331,2.331,0,0,0,.133-3.305c-1.65-1.69-3.28-4.238-1.218-6.484a19.978,19.978,0,0,0,4.441-7.284Z" transform="translate(-246.235 -260.258)" fill="#122043"/>
      <path id="Trazado_19610" data-name="Trazado 19610" d="M305.173,390.6l-3.078.534c-.636-3.817-10.207-21.914-10.986-31.314a212.116,212.116,0,0,0-3.289-22.052l10.3-3.061s2.607,0-.257,21.267C304.3,364.423,306.023,383.6,305.173,390.6Z" transform="translate(-246.171 -238.955)" fill="#f18c72"/>
      <g id="Grupo_10226" data-name="Grupo 10226" transform="translate(35.738)">
        <g id="Grupo_10225" data-name="Grupo 10225" transform="translate(0.991 4.268)">
          <path id="Trazado_19611" data-name="Trazado 19611" d="M284.377,269.561l9.5-.45,1.69,6.542c.024.093.034.187.053.28-.148.093-.3.187-.439.292-.024.017-.045.035-.068.053s-.046.029-.07.046a6.14,6.14,0,0,0-2.315,5.464,10.591,10.591,0,0,1-3.621,1.41,3.907,3.907,0,0,1-2.22-.052C283.579,280.026,284.377,269.561,284.377,269.561Z" transform="translate(-284.292 -269.111)" fill="#f7a57a"/>
        </g>
        <path id="Trazado_19612" data-name="Trazado 19612" d="M297.142,286.237c-2.467.282,1.452,0-2.467.282-.11-2.079-6.8-7.492-8.079-8.588a8.028,8.028,0,0,1-3.01-6.184s6.466-6.969,10.654-5.491a7.775,7.775,0,0,1,4.944,5.521C299.648,273.334,300.609,275.985,297.142,286.237Z" transform="translate(-283.582 -266.05)" fill="#122043"/>
      </g>
      <path id="Trazado_19613" data-name="Trazado 19613" d="M299.618,329.16s-2.418,14.548-5.782,30.108c3.513,9.4-1.841,35.614-1.94,35.522-.4-.381-2.252,1.9-2.252,1.9s-3.9-23.139-4.767-33.574-2.184-23.157-2.184-23.157Z" transform="translate(-248.195 -241.144)" fill="#f7a57a"/>
      <path id="Trazado_19614" data-name="Trazado 19614" d="M293.194,375.167a3.437,3.437,0,0,1,1.2,2.827c-.269,1.583-.649,5.293-.649,5.293h-1.508l.046-3.459c0-.227-3.231,3.459-3.777,3.459H280.53s-.53-2.333,4.152-3.084S293.194,375.167,293.194,375.167Z" transform="translate(-249.055 -222.987)" fill="#002f4c"/>
      <rect id="Rectángulo_2201" data-name="Rectángulo 2201" width="4.412" height="2.212" rx="0.709" transform="translate(50.258 21.575) rotate(180)" fill="#ffd159"/>
      <path id="Trazado_19615" data-name="Trazado 19615" d="M284.226,308.4s-2.612,14.689-2.612,22c0,4.017,1.853,21.065,1.853,21.065s15.276.443,18.377.443c.4-12.085,4.9-20.05,4.9-29.72,0-6.82-6.011-12.772-6.011-12.772Z" transform="translate(-248.621 -249.338)" fill="#002f4c"/>
      <path id="Trazado_19616" data-name="Trazado 19616" d="M296.4,346.024" transform="translate(-242.783 -234.488)" fill="#ffc630"/>
      <path id="Trazado_19617" data-name="Trazado 19617" d="M264.438,300.264l.686.2a4.26,4.26,0,0,1,2.891,2.866l.163.543a71.92,71.92,0,0,0,12.747,2.939c6.851-19.507,9.17-20.978,9.17-20.978a6.886,6.886,0,0,1,4.42,6.746c0,4.48-2.992,17.17-8.685,21.144a5.368,5.368,0,0,1-5.364.365c-9.149-4.346-15.6-8.06-15.6-8.06l-6.906-3.813,3.052-1.605A4.6,4.6,0,0,1,264.438,300.264Z" transform="translate(-257.957 -258.243)" fill="#f7a57a"/>
      <g id="Grupo_10227" data-name="Grupo 10227" transform="translate(47.399 148.291)">
        <path id="Trazado_19618" data-name="Trazado 19618" d="M298.576,373.63l.213,3.3a3.085,3.085,0,0,1-.544,1.954,12.43,12.43,0,0,1-2.4,2.492c2.311.742,4.413-1.849,5.516-3.572a4.113,4.113,0,0,0,.6-2.83l-.389-2.6Z" transform="translate(-290.402 -372.378)" fill="#f18c72"/>
        <path id="Trazado_19619" data-name="Trazado 19619" d="M303.547,374.578s2.033.183,2.371,1.729,1.3,4.675,1.3,4.675l-1.109.884-1.563-3.1s-3.363,4.533-3.9,4.756h-8.7s0-2.88,5.446-3.01C302.407,380.388,303.547,374.578,303.547,374.578Z" transform="translate(-291.943 -371.51)" fill="#122043"/>
      </g>
    </g>
  </g>
</svg>
